%TF.GenerationSoftware,KiCad,Pcbnew,9.0.4*%
%TF.CreationDate,2026-03-16T14:16:26-04:00*%
%TF.ProjectId,digital_and_recording,64696769-7461-46c5-9f61-6e645f726563,rev?*%
%TF.SameCoordinates,Original*%
%TF.FileFunction,Soldermask,Top*%
%TF.FilePolarity,Negative*%
%FSLAX46Y46*%
G04 Gerber Fmt 4.6, Leading zero omitted, Abs format (unit mm)*
G04 Created by KiCad (PCBNEW 9.0.4) date 2026-03-16 14:16:26*
%MOMM*%
%LPD*%
G01*
G04 APERTURE LIST*
G04 Aperture macros list*
%AMRoundRect*
0 Rectangle with rounded corners*
0 $1 Rounding radius*
0 $2 $3 $4 $5 $6 $7 $8 $9 X,Y pos of 4 corners*
0 Add a 4 corners polygon primitive as box body*
4,1,4,$2,$3,$4,$5,$6,$7,$8,$9,$2,$3,0*
0 Add four circle primitives for the rounded corners*
1,1,$1+$1,$2,$3*
1,1,$1+$1,$4,$5*
1,1,$1+$1,$6,$7*
1,1,$1+$1,$8,$9*
0 Add four rect primitives between the rounded corners*
20,1,$1+$1,$2,$3,$4,$5,0*
20,1,$1+$1,$4,$5,$6,$7,0*
20,1,$1+$1,$6,$7,$8,$9,0*
20,1,$1+$1,$8,$9,$2,$3,0*%
G04 Aperture macros list end*
%ADD10C,0.586200*%
%ADD11C,0.836200*%
%ADD12C,0.010000*%
%ADD13RoundRect,0.085500X0.256500X-0.621500X0.256500X0.621500X-0.256500X0.621500X-0.256500X-0.621500X0*%
%ADD14RoundRect,0.225000X-0.250000X0.225000X-0.250000X-0.225000X0.250000X-0.225000X0.250000X0.225000X0*%
%ADD15RoundRect,0.225000X0.250000X-0.225000X0.250000X0.225000X-0.250000X0.225000X-0.250000X-0.225000X0*%
%ADD16RoundRect,0.200000X-0.275000X0.200000X-0.275000X-0.200000X0.275000X-0.200000X0.275000X0.200000X0*%
%ADD17C,1.020000*%
%ADD18RoundRect,0.225000X0.225000X0.250000X-0.225000X0.250000X-0.225000X-0.250000X0.225000X-0.250000X0*%
%ADD19C,2.700000*%
%ADD20R,0.850000X0.850000*%
%ADD21C,0.850000*%
%ADD22RoundRect,0.102000X0.802500X-0.802500X0.802500X0.802500X-0.802500X0.802500X-0.802500X-0.802500X0*%
%ADD23C,1.809000*%
%ADD24C,1.800000*%
%ADD25RoundRect,0.250002X1.599998X-1.599998X1.599998X1.599998X-1.599998X1.599998X-1.599998X-1.599998X0*%
%ADD26C,3.700000*%
%ADD27R,1.700000X1.700000*%
%ADD28C,1.700000*%
%ADD29RoundRect,0.250001X-1.399999X1.099999X-1.399999X-1.099999X1.399999X-1.099999X1.399999X1.099999X0*%
%ADD30O,3.300000X2.700000*%
%ADD31RoundRect,0.102000X-0.802500X-0.802500X0.802500X-0.802500X0.802500X0.802500X-0.802500X0.802500X0*%
%ADD32C,1.955800*%
%ADD33RoundRect,0.102000X-0.609000X0.609000X-0.609000X-0.609000X0.609000X-0.609000X0.609000X0.609000X0*%
%ADD34C,1.422000*%
%ADD35RoundRect,0.250001X1.399999X-1.099999X1.399999X1.099999X-1.399999X1.099999X-1.399999X-1.099999X0*%
%ADD36RoundRect,0.225000X-0.225000X-0.250000X0.225000X-0.250000X0.225000X0.250000X-0.225000X0.250000X0*%
G04 APERTURE END LIST*
D10*
%TO.C,J2*%
X146063100Y-70030000D02*
G75*
G02*
X145476900Y-70030000I-293100J0D01*
G01*
X145476900Y-70030000D02*
G75*
G02*
X146063100Y-70030000I293100J0D01*
G01*
D11*
X147168100Y-59750000D02*
G75*
G02*
X146331900Y-59750000I-418100J0D01*
G01*
X146331900Y-59750000D02*
G75*
G02*
X147168100Y-59750000I418100J0D01*
G01*
X147168100Y-62750000D02*
G75*
G02*
X146331900Y-62750000I-418100J0D01*
G01*
X146331900Y-62750000D02*
G75*
G02*
X147168100Y-62750000I418100J0D01*
G01*
X147168100Y-65750000D02*
G75*
G02*
X146331900Y-65750000I-418100J0D01*
G01*
X146331900Y-65750000D02*
G75*
G02*
X147168100Y-65750000I418100J0D01*
G01*
X147168100Y-68750000D02*
G75*
G02*
X146331900Y-68750000I-418100J0D01*
G01*
X146331900Y-68750000D02*
G75*
G02*
X147168100Y-68750000I418100J0D01*
G01*
X150168100Y-62750000D02*
G75*
G02*
X149331900Y-62750000I-418100J0D01*
G01*
X149331900Y-62750000D02*
G75*
G02*
X150168100Y-62750000I418100J0D01*
G01*
X150168100Y-65750000D02*
G75*
G02*
X149331900Y-65750000I-418100J0D01*
G01*
X149331900Y-65750000D02*
G75*
G02*
X150168100Y-65750000I418100J0D01*
G01*
X150168100Y-68750000D02*
G75*
G02*
X149331900Y-68750000I-418100J0D01*
G01*
X149331900Y-68750000D02*
G75*
G02*
X150168100Y-68750000I418100J0D01*
G01*
D12*
X150586200Y-60586200D02*
X148913800Y-60586200D01*
X148913800Y-58913800D01*
X150586200Y-58913800D01*
X150586200Y-60586200D01*
G36*
X150586200Y-60586200D02*
G01*
X148913800Y-60586200D01*
X148913800Y-58913800D01*
X150586200Y-58913800D01*
X150586200Y-60586200D01*
G37*
D11*
%TO.C,J4*%
X166018100Y-112750000D02*
G75*
G02*
X165181900Y-112750000I-418100J0D01*
G01*
X165181900Y-112750000D02*
G75*
G02*
X166018100Y-112750000I418100J0D01*
G01*
X166018100Y-115750000D02*
G75*
G02*
X165181900Y-115750000I-418100J0D01*
G01*
X165181900Y-115750000D02*
G75*
G02*
X166018100Y-115750000I418100J0D01*
G01*
X166018100Y-118750000D02*
G75*
G02*
X165181900Y-118750000I-418100J0D01*
G01*
X165181900Y-118750000D02*
G75*
G02*
X166018100Y-118750000I418100J0D01*
G01*
X169018100Y-112750000D02*
G75*
G02*
X168181900Y-112750000I-418100J0D01*
G01*
X168181900Y-112750000D02*
G75*
G02*
X169018100Y-112750000I418100J0D01*
G01*
X169018100Y-115750000D02*
G75*
G02*
X168181900Y-115750000I-418100J0D01*
G01*
X168181900Y-115750000D02*
G75*
G02*
X169018100Y-115750000I418100J0D01*
G01*
X169018100Y-118750000D02*
G75*
G02*
X168181900Y-118750000I-418100J0D01*
G01*
X168181900Y-118750000D02*
G75*
G02*
X169018100Y-118750000I418100J0D01*
G01*
X169018100Y-121750000D02*
G75*
G02*
X168181900Y-121750000I-418100J0D01*
G01*
X168181900Y-121750000D02*
G75*
G02*
X169018100Y-121750000I418100J0D01*
G01*
D10*
X169873100Y-111470000D02*
G75*
G02*
X169286900Y-111470000I-293100J0D01*
G01*
X169286900Y-111470000D02*
G75*
G02*
X169873100Y-111470000I293100J0D01*
G01*
D12*
X166436200Y-122586200D02*
X164763800Y-122586200D01*
X164763800Y-120913800D01*
X166436200Y-120913800D01*
X166436200Y-122586200D01*
G36*
X166436200Y-122586200D02*
G01*
X164763800Y-122586200D01*
X164763800Y-120913800D01*
X166436200Y-120913800D01*
X166436200Y-122586200D01*
G37*
%TD*%
D13*
%TO.C,U4*%
X148525000Y-135005000D03*
X149175000Y-135005000D03*
X149825000Y-135005000D03*
X150475000Y-135005000D03*
X150475000Y-132495000D03*
X149825000Y-132495000D03*
X149175000Y-132495000D03*
X148525000Y-132495000D03*
%TD*%
D14*
%TO.C,C12*%
X171475000Y-129805000D03*
X171475000Y-131355000D03*
%TD*%
D15*
%TO.C,C13*%
X171475000Y-134855000D03*
X171475000Y-133305000D03*
%TD*%
D16*
%TO.C,R4*%
X149000000Y-73850000D03*
X149000000Y-75500000D03*
%TD*%
D13*
%TO.C,U5*%
X138525000Y-135005000D03*
X139175000Y-135005000D03*
X139825000Y-135005000D03*
X140475000Y-135005000D03*
X140475000Y-132495000D03*
X139825000Y-132495000D03*
X139175000Y-132495000D03*
X138525000Y-132495000D03*
%TD*%
D14*
%TO.C,C9*%
X160000000Y-120975000D03*
X160000000Y-122525000D03*
%TD*%
D16*
%TO.C,R3*%
X151250000Y-73850000D03*
X151250000Y-75500000D03*
%TD*%
%TO.C,R1*%
X149500000Y-80925000D03*
X149500000Y-82575000D03*
%TD*%
D17*
%TO.C,J2*%
X145770000Y-70030000D03*
%TD*%
D14*
%TO.C,C5*%
X143500000Y-128725000D03*
X143500000Y-130275000D03*
%TD*%
D18*
%TO.C,C11*%
X137775000Y-65750000D03*
X136225000Y-65750000D03*
%TD*%
D19*
%TO.C,H3*%
X130450000Y-151600000D03*
%TD*%
D20*
%TO.C,J3*%
X157750000Y-113750000D03*
D21*
X156750000Y-113750000D03*
X155750000Y-113750000D03*
X154750000Y-113750000D03*
%TD*%
D22*
%TO.C,PS3*%
X168250000Y-134830000D03*
D23*
X168250000Y-132290000D03*
X168250000Y-129750000D03*
%TD*%
D15*
%TO.C,C6*%
X138500000Y-130275000D03*
X138500000Y-128725000D03*
%TD*%
%TO.C,C8*%
X159750000Y-132025000D03*
X159750000Y-130475000D03*
%TD*%
%TO.C,C3*%
X148500000Y-130275000D03*
X148500000Y-128725000D03*
%TD*%
%TO.C,C2*%
X150500000Y-138775000D03*
X150500000Y-137225000D03*
%TD*%
D16*
%TO.C,R5*%
X138250000Y-69425000D03*
X138250000Y-71075000D03*
%TD*%
D24*
%TO.C,J8*%
X171270000Y-140270000D03*
D25*
X162800000Y-143750000D03*
D26*
X168500000Y-143750000D03*
%TD*%
D14*
%TO.C,C4*%
X145500000Y-137225000D03*
X145500000Y-138775000D03*
%TD*%
D13*
%TO.C,U3*%
X143525000Y-135015000D03*
X144175000Y-135015000D03*
X144825000Y-135015000D03*
X145475000Y-135015000D03*
X145475000Y-132505000D03*
X144825000Y-132505000D03*
X144175000Y-132505000D03*
X143525000Y-132505000D03*
%TD*%
D27*
%TO.C,U1*%
X130596000Y-75820000D03*
D28*
X130596000Y-78360000D03*
X130596000Y-80900000D03*
X130596000Y-83440000D03*
X130596000Y-85980000D03*
X130596000Y-88520000D03*
X130596000Y-91060000D03*
X130596000Y-93600000D03*
X130596000Y-96140000D03*
X130596000Y-98680000D03*
X130596000Y-101220000D03*
X130596000Y-103760000D03*
X130596000Y-106300000D03*
X130596000Y-108840000D03*
X130596000Y-111380000D03*
X130596000Y-113920000D03*
X130596000Y-116460000D03*
X130596000Y-119000000D03*
X130596000Y-121540000D03*
X130596000Y-124080000D03*
X145836000Y-124080000D03*
X145836000Y-121540000D03*
X145836000Y-119000000D03*
X145836000Y-116460000D03*
X145836000Y-113920000D03*
X145836000Y-111380000D03*
X145836000Y-108840000D03*
X145836000Y-106300000D03*
X145836000Y-103760000D03*
X145836000Y-101220000D03*
X145836000Y-98680000D03*
X145836000Y-96140000D03*
X145836000Y-93600000D03*
X145836000Y-91060000D03*
X145836000Y-88520000D03*
X145836000Y-85980000D03*
X145836000Y-83440000D03*
X145836000Y-80900000D03*
X145836000Y-78360000D03*
X145836000Y-75820000D03*
%TD*%
D15*
%TO.C,C7*%
X140500000Y-138775000D03*
X140500000Y-137225000D03*
%TD*%
D16*
%TO.C,R6*%
X140500000Y-69425000D03*
X140500000Y-71075000D03*
%TD*%
D15*
%TO.C,C1*%
X159750000Y-136025000D03*
X159750000Y-134475000D03*
%TD*%
D29*
%TO.C,J6*%
X153500000Y-143750000D03*
D30*
X148000000Y-143750000D03*
%TD*%
D19*
%TO.C,H1*%
X171550000Y-51200000D03*
%TD*%
D27*
%TO.C,U2*%
X156210000Y-58070000D03*
D28*
X156210000Y-60610000D03*
X156210000Y-63150000D03*
X156210000Y-65690000D03*
X156210000Y-68230000D03*
X156210000Y-70770000D03*
X156210000Y-73310000D03*
X156210000Y-75850000D03*
X156210000Y-78390000D03*
X156210000Y-80930000D03*
X156210000Y-83470000D03*
X156210000Y-86010000D03*
X156210000Y-88550000D03*
X156210000Y-91090000D03*
X156210000Y-93630000D03*
X156210000Y-96170000D03*
X156210000Y-98710000D03*
X156210000Y-101250000D03*
X156210000Y-103790000D03*
X156210000Y-106330000D03*
X171450000Y-106330000D03*
X171450000Y-103790000D03*
X171450000Y-101250000D03*
X171450000Y-98710000D03*
X171450000Y-96170000D03*
X171450000Y-93630000D03*
X171450000Y-91090000D03*
X171450000Y-88550000D03*
X171450000Y-86010000D03*
X171450000Y-83470000D03*
X171450000Y-80930000D03*
X171450000Y-78390000D03*
X171450000Y-75850000D03*
X171450000Y-73310000D03*
X171450000Y-70770000D03*
X171450000Y-68230000D03*
X171450000Y-65690000D03*
X171450000Y-63150000D03*
X171450000Y-60610000D03*
X171450000Y-58070000D03*
%TD*%
D31*
%TO.C,PS2*%
X132731000Y-62525000D03*
D23*
X135271000Y-62525000D03*
X137811000Y-62525000D03*
%TD*%
D32*
%TO.C,J1*%
X132250000Y-137000000D03*
X132250000Y-131500001D03*
%TD*%
D33*
%TO.C,PS1*%
X157175000Y-120600000D03*
D34*
X157175000Y-123140000D03*
X157175000Y-130760000D03*
X157175000Y-133300000D03*
X157175000Y-135840000D03*
%TD*%
D19*
%TO.C,H2*%
X130450000Y-51200000D03*
%TD*%
D35*
%TO.C,J7*%
X132500000Y-143750000D03*
D30*
X138000000Y-143750000D03*
%TD*%
D17*
%TO.C,J4*%
X169580000Y-111470000D03*
%TD*%
D16*
%TO.C,R7*%
X143000000Y-143350000D03*
X143000000Y-145000000D03*
%TD*%
D36*
%TO.C,C10*%
X132725000Y-65750000D03*
X134275000Y-65750000D03*
%TD*%
D15*
%TO.C,C14*%
X143000000Y-141550000D03*
X143000000Y-140000000D03*
%TD*%
D19*
%TO.C,H4*%
X171550000Y-151600000D03*
%TD*%
D16*
%TO.C,R2*%
X152500000Y-80925000D03*
X152500000Y-82575000D03*
%TD*%
M02*
