M48
; DRILL file {KiCad 9.0.4} date 2026-03-16T14:09:26-0400
; FORMAT={-:-/ absolute / metric / decimal}
; #@! TF.CreationDate,2026-03-16T14:09:26-04:00
; #@! TF.GenerationSoftware,Kicad,Pcbnew,9.0.4
; #@! TF.FileFunction,Plated,1,4,PTH
FMAT,2
METRIC
; #@! TA.AperFunction,Plated,PTH,ViaDrill
T1C0.300
; #@! TA.AperFunction,Plated,PTH,ComponentDrill
T2C1.000
; #@! TA.AperFunction,Plated,PTH,ComponentDrill
T3C1.020
; #@! TA.AperFunction,Plated,PTH,ComponentDrill
T4C1.400
; #@! TA.AperFunction,Plated,PTH,ComponentDrill
T5C1.800
%
G90
G05
T1
X34.564Y-85.689
X35.326Y-88.991
X35.631Y-86.807
X35.885Y-81.219
X37.338Y-37.338
X37.592Y-45.466
X38.425Y-81.346
X39.441Y-88.89
X39.568Y-84.775
X40.03Y-82.474
X40.03Y-85.801
X43.398Y-37.313
X43.398Y-45.441
X47.625Y-84.684
X47.797Y-85.744
X48.438Y-89.144
X48.582Y-26.848
X48.94Y-81.6
X51.46Y-41.681
X51.48Y-81.6
X51.48Y-83.886
X52.299Y-69.393
X52.522Y-84.724
X52.553Y-89.042
X52.583Y-72.09
X53.569Y-39.37
X53.696Y-35.077
X53.746Y-51.74
X54.458Y-85.796
X54.524Y-43.749
X54.61Y-67.386
X54.61Y-89.245
X54.762Y-56.769
X55.285Y-52.972
X55.341Y-81.752
X55.595Y-87.162
X55.88Y-35.382
X56.159Y-68.936
X56.246Y-41.621
X57.396Y-26.822
X57.683Y-40.97
X57.881Y-81.879
X58.699Y-32.944
X58.877Y-89.245
X59.19Y-85.148
X59.588Y-86.182
X59.792Y-76.886
X62.078Y-52.578
X62.31Y-55.55
X62.865Y-58.444
X63.11Y-55.524
X63.856Y-52.578
X64.465Y-58.444
X64.516Y-29.896
X65.049Y-55.347
X65.1Y-35.204
X66.548Y-84.684
X66.695Y-85.791
X67.183Y-89.433
X68.016Y-81.752
X68.021Y-32.106
X68.199Y-45.339
X68.301Y-43.84
X69.801Y-44.704
X70.556Y-81.752
X70.556Y-84.064
X71.501Y-89.332
X71.572Y-85.029
X72.492Y-28.067
X73.05Y-45.771
X73.101Y-86.299
X73.914Y-89.347
X74.27Y-87.247
X74.397Y-56.348
X74.397Y-61.428
X74.397Y-66.508
X74.544Y-81.717
X76.022Y-76.751
X76.957Y-81.752
X77.826Y-89.245
X77.986Y-85.275
X78.257Y-86.36
X78.41Y-53.366
X78.461Y-58.277
X78.461Y-63.357
X80.493Y-61.936
X80.747Y-56.856
X82.271Y-54.229
X84.963Y-35.001
X85.115Y-48.692
X85.242Y-51.613
X85.369Y-45.644
X85.395Y-36.5
X85.395Y-39.802
X85.649Y-42.596
X86.863Y-85.918
X87.224Y-85.065
X88.082Y-89.525
X88.615Y-81.93
X91.079Y-84.292
X91.155Y-81.93
X92.146Y-85.257
X92.197Y-89.575
X92.227Y-78.918
T2
X32.027Y-56.46
X32.027Y-59.0
X32.027Y-64.08
X32.027Y-66.62
X32.027Y-69.16
X38.777Y-33.881
X41.317Y-33.881
X42.545Y-71.12
X42.545Y-73.66
X42.545Y-76.2
X42.545Y-78.74
X42.545Y-81.28
X42.545Y-83.82
X42.545Y-86.36
X42.545Y-88.9
X43.857Y-33.881
X45.085Y-71.12
X45.085Y-73.66
X45.085Y-76.2
X45.085Y-78.74
X45.085Y-81.28
X45.085Y-83.82
X45.085Y-86.36
X45.085Y-88.9
X61.595Y-71.12
X61.595Y-73.66
X61.595Y-76.2
X61.595Y-78.74
X61.595Y-81.28
X61.595Y-83.82
X61.595Y-86.36
X61.595Y-88.9
X64.135Y-71.12
X64.135Y-73.66
X64.135Y-76.2
X64.135Y-78.74
X64.135Y-81.28
X64.135Y-83.82
X64.135Y-86.36
X64.135Y-88.9
X80.645Y-71.12
X80.645Y-73.66
X80.645Y-76.2
X80.645Y-78.74
X80.645Y-81.28
X80.645Y-83.82
X80.645Y-86.36
X80.645Y-88.9
X83.185Y-71.12
X83.185Y-73.66
X83.185Y-76.2
X83.185Y-78.74
X83.185Y-81.28
X83.185Y-83.82
X83.185Y-86.36
X83.185Y-88.9
T3
X93.52Y-38.752
X93.52Y-41.752
X93.52Y-44.752
X93.52Y-47.752
X93.52Y-50.752
X93.52Y-53.752
X93.52Y-56.752
X93.52Y-59.752
X93.52Y-62.752
X96.52Y-38.752
X96.52Y-41.752
X96.52Y-44.752
X96.52Y-47.752
X96.52Y-50.752
X96.52Y-53.752
X96.52Y-56.752
X96.52Y-59.752
X96.52Y-62.752
T4
X29.21Y-78.32
X29.21Y-83.82
X97.79Y-78.32
X97.79Y-83.82
T5
X30.582Y-42.044
X30.582Y-47.744
M30
