%TF.GenerationSoftware,KiCad,Pcbnew,9.0.4*%
%TF.CreationDate,2026-03-12T13:43:51-04:00*%
%TF.ProjectId,Analog Controller,416e616c-6f67-4204-936f-6e74726f6c6c,rev?*%
%TF.SameCoordinates,Original*%
%TF.FileFunction,Soldermask,Bot*%
%TF.FilePolarity,Negative*%
%FSLAX46Y46*%
G04 Gerber Fmt 4.6, Leading zero omitted, Abs format (unit mm)*
G04 Created by KiCad (PCBNEW 9.0.4) date 2026-03-12 13:43:51*
%MOMM*%
%LPD*%
G01*
G04 APERTURE LIST*
G04 Aperture macros list*
%AMRoundRect*
0 Rectangle with rounded corners*
0 $1 Rounding radius*
0 $2 $3 $4 $5 $6 $7 $8 $9 X,Y pos of 4 corners*
0 Add a 4 corners polygon primitive as box body*
4,1,4,$2,$3,$4,$5,$6,$7,$8,$9,$2,$3,0*
0 Add four circle primitives for the rounded corners*
1,1,$1+$1,$2,$3*
1,1,$1+$1,$4,$5*
1,1,$1+$1,$6,$7*
1,1,$1+$1,$8,$9*
0 Add four rect primitives between the rounded corners*
20,1,$1+$1,$2,$3,$4,$5,0*
20,1,$1+$1,$4,$5,$6,$7,0*
20,1,$1+$1,$6,$7,$8,$9,0*
20,1,$1+$1,$8,$9,$2,$3,0*%
G04 Aperture macros list end*
%ADD10C,3.200000*%
%ADD11C,1.020000*%
%ADD12RoundRect,0.250001X0.499999X-0.499999X0.499999X0.499999X-0.499999X0.499999X-0.499999X-0.499999X0*%
%ADD13C,1.500000*%
%ADD14R,1.700000X1.700000*%
%ADD15C,1.700000*%
%ADD16C,2.374900*%
%ADD17C,0.990600*%
%ADD18C,1.800000*%
%ADD19RoundRect,0.250002X1.599998X1.599998X-1.599998X1.599998X-1.599998X-1.599998X1.599998X-1.599998X0*%
%ADD20C,3.700000*%
%ADD21RoundRect,0.250001X1.099999X1.399999X-1.099999X1.399999X-1.099999X-1.399999X1.099999X-1.399999X0*%
%ADD22O,2.700000X3.300000*%
%ADD23RoundRect,0.250001X-0.499999X-0.499999X0.499999X-0.499999X0.499999X0.499999X-0.499999X0.499999X0*%
%ADD24R,1.500000X2.300000*%
%ADD25O,1.500000X2.300000*%
%ADD26RoundRect,0.237500X-0.237500X0.250000X-0.237500X-0.250000X0.237500X-0.250000X0.237500X0.250000X0*%
G04 APERTURE END LIST*
D10*
%TO.C,H3*%
X96520000Y-91440000D03*
%TD*%
D11*
%TO.C,J7*%
X97460000Y-65752000D03*
X97460000Y-35752000D03*
D12*
X93520000Y-62752000D03*
D13*
X93520000Y-59752000D03*
X93520000Y-56752000D03*
X93520000Y-53752000D03*
X93520000Y-50752000D03*
X93520000Y-47752000D03*
X93520000Y-44752000D03*
X93520000Y-41752000D03*
X93520000Y-38752000D03*
X96520000Y-62752000D03*
X96520000Y-59752000D03*
X96520000Y-56752000D03*
X96520000Y-53752000D03*
X96520000Y-50752000D03*
X96520000Y-47752000D03*
X96520000Y-44752000D03*
X96520000Y-41752000D03*
X96520000Y-38752000D03*
%TD*%
D14*
%TO.C,J8*%
X83185000Y-71120000D03*
D15*
X80645000Y-71120000D03*
X83185000Y-73660000D03*
X80645000Y-73660000D03*
X83185000Y-76200000D03*
X80645000Y-76200000D03*
X83185000Y-78740000D03*
X80645000Y-78740000D03*
X83185000Y-81280000D03*
X80645000Y-81280000D03*
X83185000Y-83820000D03*
X80645000Y-83820000D03*
X83185000Y-86360000D03*
X80645000Y-86360000D03*
X83185000Y-88900000D03*
X80645000Y-88900000D03*
%TD*%
D10*
%TO.C,H1*%
X30480000Y-30480000D03*
%TD*%
%TO.C,H4*%
X30480000Y-91440000D03*
%TD*%
D14*
%TO.C,J2*%
X64135000Y-71120000D03*
D15*
X61595000Y-71120000D03*
X64135000Y-73660000D03*
X61595000Y-73660000D03*
X64135000Y-76200000D03*
X61595000Y-76200000D03*
X64135000Y-78740000D03*
X61595000Y-78740000D03*
X64135000Y-81280000D03*
X61595000Y-81280000D03*
X64135000Y-83820000D03*
X61595000Y-83820000D03*
X64135000Y-86360000D03*
X61595000Y-86360000D03*
X64135000Y-88900000D03*
X61595000Y-88900000D03*
%TD*%
D14*
%TO.C,J3*%
X45085000Y-71120000D03*
D15*
X42545000Y-71120000D03*
X45085000Y-73660000D03*
X42545000Y-73660000D03*
X45085000Y-76200000D03*
X42545000Y-76200000D03*
X45085000Y-78740000D03*
X42545000Y-78740000D03*
X45085000Y-81280000D03*
X42545000Y-81280000D03*
X45085000Y-83820000D03*
X42545000Y-83820000D03*
X45085000Y-86360000D03*
X42545000Y-86360000D03*
X45085000Y-88900000D03*
X42545000Y-88900000D03*
%TD*%
D16*
%TO.C,J10*%
X78925382Y-37195207D03*
D17*
X78925382Y-34655207D03*
D16*
X78925382Y-32115207D03*
X73210382Y-37195207D03*
X73210382Y-32115207D03*
D17*
X71305382Y-35671207D03*
X71305382Y-33639207D03*
%TD*%
D18*
%TO.C,J6*%
X27101600Y-39273600D03*
D19*
X30581600Y-47743600D03*
D20*
X30581600Y-42043600D03*
%TD*%
D21*
%TO.C,J1*%
X29210000Y-83820000D03*
D22*
X29210000Y-78320000D03*
%TD*%
D10*
%TO.C,H2*%
X96520000Y-30480000D03*
%TD*%
D21*
%TO.C,J4*%
X97790000Y-83820000D03*
D22*
X97790000Y-78320000D03*
%TD*%
D23*
%TO.C,U5*%
X32027000Y-56459600D03*
D13*
X32027000Y-58999600D03*
X32027000Y-64079600D03*
X32027000Y-66619600D03*
X32027000Y-69159600D03*
%TD*%
D24*
%TO.C,U4*%
X38776700Y-33881300D03*
D25*
X41316700Y-33881300D03*
X43856700Y-33881300D03*
%TD*%
D26*
%TO.C,C29*%
X60172600Y-56643900D03*
X60172600Y-58468900D03*
%TD*%
%TO.C,C27*%
X65049400Y-56643900D03*
X65049400Y-58468900D03*
%TD*%
%TO.C,C30*%
X61798200Y-56642000D03*
X61798200Y-58467000D03*
%TD*%
%TO.C,C26*%
X63385800Y-56643900D03*
X63385800Y-58468900D03*
%TD*%
M02*
