ISO-10303-21;
HEADER;
FILE_DESCRIPTION (( 'STEP AP203' ),
    '1' );
FILE_NAME ('TMV Dual Output 5+12VIN.STEP',
    '2020-11-20T01:05:04',
    ( '' ),
    ( '' ),
    'SwSTEP 2.0',
    'SolidWorks 2020',
    '' );
FILE_SCHEMA (( 'CONFIG_CONTROL_DESIGN' ));
ENDSEC;

DATA;
#1 = CARTESIAN_POINT ( 'NONE',  ( -7.899999999999999467, -3.700000000000000178, -1.749999999999999778 ) ) ;
#2 = ORIENTED_EDGE ( 'NONE', *, *, #963, .T. ) ;
#3 = ORIENTED_EDGE ( 'NONE', *, *, #431, .F. ) ;
#4 = VECTOR ( 'NONE', #854, 1000.000000000000000 ) ;
#5 = DIRECTION ( 'NONE',  ( -0.0000000000000000000, 1.000000000000000000, -0.0000000000000000000 ) ) ;
#6 = EDGE_CURVE ( 'NONE', #867, #971, #859, .T. ) ;
#7 = LINE ( 'NONE', #678, #4 ) ;
#8 = ORIENTED_EDGE ( 'NONE', *, *, #707, .F. ) ;
#9 = VERTEX_POINT ( 'NONE', #441 ) ;
#10 = FACE_OUTER_BOUND ( 'NONE', #332, .T. ) ;
#11 = FACE_BOUND ( 'NONE', #995, .T. ) ;
#12 = ORIENTED_EDGE ( 'NONE', *, *, #479, .T. ) ;
#13 = CARTESIAN_POINT ( 'NONE',  ( 9.750000000000000000, -0.5000000000000000000, 3.049999999999999822 ) ) ;
#14 = VECTOR ( 'NONE', #315, 1000.000000000000000 ) ;
#15 = DIRECTION ( 'NONE',  ( 0.0000000000000000000, 0.0000000000000000000, -1.000000000000000000 ) ) ;
#16 = FACE_BOUND ( 'NONE', #117, .T. ) ;
#17 = ORIENTED_EDGE ( 'NONE', *, *, #185, .F. ) ;
#18 = CARTESIAN_POINT ( 'NONE',  ( 7.839999999999999858, 0.0000000000000000000, -2.000000000000000000 ) ) ;
#19 = DIRECTION ( 'NONE',  ( -0.0000000000000000000, 1.000000000000000000, -0.0000000000000000000 ) ) ;
#20 = CARTESIAN_POINT ( 'NONE',  ( 7.339999999999998970, -3.700000000000000178, -2.000000000000000000 ) ) ;
#21 = EDGE_CURVE ( 'NONE', #398, #917, #941, .T. ) ;
#22 = AXIS2_PLACEMENT_3D ( 'NONE', #851, #586, #262 ) ;
#23 = ORIENTED_EDGE ( 'NONE', *, *, #410, .F. ) ;
#24 = EDGE_CURVE ( 'NONE', #887, #250, #336, .T. ) ;
#25 = DIRECTION ( 'NONE',  ( 1.000000000000000000, 0.0000000000000000000, 0.0000000000000000000 ) ) ;
#26 = CARTESIAN_POINT ( 'NONE',  ( -5.359999999999999432, 0.0000000000000000000, -1.749999999999999778 ) ) ;
#27 = VERTEX_POINT ( 'NONE', #592 ) ;
#28 = ORIENTED_EDGE ( 'NONE', *, *, #698, .T. ) ;
#29 = DIRECTION ( 'NONE',  ( 1.000000000000000000, 0.0000000000000000000, 2.843808977011158816E-16 ) ) ;
#30 = LINE ( 'NONE', #599, #415 ) ;
#31 = CARTESIAN_POINT ( 'NONE',  ( 9.750000000000000000, -0.5000000000000000000, -3.049999999999999822 ) ) ;
#32 = VECTOR ( 'NONE', #836, 1000.000000000000000 ) ;
#33 = ORIENTED_EDGE ( 'NONE', *, *, #1059, .T. ) ;
#34 = DIRECTION ( 'NONE',  ( -2.843808977011159309E-16, 0.0000000000000000000, 1.000000000000000000 ) ) ;
#35 = PERSON_AND_ORGANIZATION ( #273, #397 ) ;
#36 = LINE ( 'NONE', #535, #367 ) ;
#37 = VECTOR ( 'NONE', #292, 1000.000000000000000 ) ;
#38 = EDGE_CURVE ( 'NONE', #681, #246, #842, .T. ) ;
#39 = VERTEX_POINT ( 'NONE', #264 ) ;
#40 = VECTOR ( 'NONE', #428, 1000.000000000000000 ) ;
#41 = LINE ( 'NONE', #361, #495 ) ;
#42 = ADVANCED_FACE ( 'NONE', ( #164 ), #763, .F. ) ;
#43 = PERSON_AND_ORGANIZATION ( #273, #397 ) ;
#44 = DIRECTION ( 'NONE',  ( -1.000000000000000000, 0.0000000000000000000, -0.0000000000000000000 ) ) ;
#45 = ORIENTED_EDGE ( 'NONE', *, *, #6, .F. ) ;
#46 = CARTESIAN_POINT ( 'NONE',  ( -5.359999999999999432, -3.700000000000000178, -1.749999999999999778 ) ) ;
#47 = CARTESIAN_POINT ( 'NONE',  ( -9.750000000000000000, 9.700000000000001066, -3.049999999999999822 ) ) ;
#48 = ORIENTED_EDGE ( 'NONE', *, *, #458, .F. ) ;
#49 = CC_DESIGN_APPROVAL ( #524, ( #327 ) ) ;
#50 = LINE ( 'NONE', #383, #83 ) ;
#51 = PERSON_AND_ORGANIZATION ( #273, #397 ) ;
#52 = LINE ( 'NONE', #727, #37 ) ;
#53 = ORIENTED_EDGE ( 'NONE', *, *, #514, .F. ) ;
#54 = ADVANCED_FACE ( 'NONE', ( #696 ), #340, .F. ) ;
#55 = CARTESIAN_POINT ( 'NONE',  ( -5.359999999999999432, 0.0000000000000000000, -1.749999999999999778 ) ) ;
#56 = EDGE_CURVE ( 'NONE', #844, #861, #176, .T. ) ;
#57 = COORDINATED_UNIVERSAL_TIME_OFFSET ( 8, 0, .AHEAD. ) ;
#58 = FACE_OUTER_BOUND ( 'NONE', #925, .T. ) ;
#59 = DIRECTION ( 'NONE',  ( -3.469446951953611033E-15, 0.0000000000000000000, 1.000000000000000000 ) ) ;
#60 = VERTEX_POINT ( 'NONE', #606 ) ;
#61 = DIRECTION ( 'NONE',  ( -0.0000000000000000000, 1.000000000000000000, -0.0000000000000000000 ) ) ;
#62 = CARTESIAN_POINT ( 'NONE',  ( 9.250000000000000000, 0.0000000000000000000, 3.050000000000003375 ) ) ;
#63 = LINE ( 'NONE', #396, #14 ) ;
#64 = ORIENTED_EDGE ( 'NONE', *, *, #573, .F. ) ;
#65 = VECTOR ( 'NONE', #986, 1000.000000000000000 ) ;
#66 = LOCAL_TIME ( 9, 5, 4.000000000000000000, #389 ) ;
#67 = CARTESIAN_POINT ( 'NONE',  ( -9.750000000000000000, 9.700000000000001066, 3.049999999999999822 ) ) ;
#68 = PLANE ( 'NONE',  #402 ) ;
#69 = PRODUCT_DEFINITION ( 'UNKNOWN', '', #417, #318 ) ;
#70 = DIRECTION ( 'NONE',  ( 0.0000000000000000000, -0.0000000000000000000, -1.000000000000000000 ) ) ;
#71 = CARTESIAN_POINT ( 'NONE',  ( 5.299999999999998934, -3.700000000000000178, -1.749999999999999778 ) ) ;
#72 = LINE ( 'NONE', #395, #173 ) ;
#73 = AXIS2_PLACEMENT_3D ( 'NONE', #388, #484, #666 ) ;
#74 = EDGE_CURVE ( 'NONE', #752, #238, #864, .T. ) ;
#75 = DIRECTION ( 'NONE',  ( 0.0000000000000000000, -0.0000000000000000000, -1.000000000000000000 ) ) ;
#76 = ORIENTED_EDGE ( 'NONE', *, *, #698, .F. ) ;
#77 = ORIENTED_EDGE ( 'NONE', *, *, #498, .T. ) ;
#78 = PLANE ( 'NONE',  #204 ) ;
#79 = DIRECTION ( 'NONE',  ( -0.0000000000000000000, 0.0000000000000000000, 1.000000000000000000 ) ) ;
#80 = CARTESIAN_POINT ( 'NONE',  ( 9.750000000000000000, 9.700000000000001066, 3.049999999999999822 ) ) ;
#81 = ORIENTED_EDGE ( 'NONE', *, *, #935, .F. ) ;
#82 = ORIENTED_EDGE ( 'NONE', *, *, #935, .T. ) ;
#83 = VECTOR ( 'NONE', #725, 1000.000000000000000 ) ;
#84 = LINE ( 'NONE', #418, #284 ) ;
#85 = DIRECTION ( 'NONE',  ( 0.0000000000000000000, 0.0000000000000000000, -1.000000000000000000 ) ) ;
#86 = EDGE_LOOP ( 'NONE', ( #767, #8, #881, #554 ) ) ;
#87 = ORIENTED_EDGE ( 'NONE', *, *, #747, .F. ) ;
#88 = AXIS2_PLACEMENT_3D ( 'NONE', #624, #121, #1054 ) ;
#89 = DIRECTION ( 'NONE',  ( -0.0000000000000000000, 1.000000000000000000, -0.0000000000000000000 ) ) ;
#90 = ORIENTED_EDGE ( 'NONE', *, *, #6, .T. ) ;
#91 = VECTOR ( 'NONE', #641, 1000.000000000000000 ) ;
#92 = ORIENTED_EDGE ( 'NONE', *, *, #611, .T. ) ;
#93 = EDGE_LOOP ( 'NONE', ( #279, #670, #520, #614 ) ) ;
#94 = CARTESIAN_POINT ( 'NONE',  ( 9.750000000000000000, 9.700000000000001066, -3.049999999999999822 ) ) ;
#95 = DIRECTION ( 'NONE',  ( 0.0000000000000000000, -1.000000000000000000, 0.0000000000000000000 ) ) ;
#96 = FACE_BOUND ( 'NONE', #113, .T. ) ;
#97 = ORIENTED_EDGE ( 'NONE', *, *, #1046, .T. ) ;
#98 = LINE ( 'NONE', #502, #848 ) ;
#99 = EDGE_CURVE ( 'NONE', #230, #708, #7, .T. ) ;
#100 = CARTESIAN_POINT ( 'NONE',  ( 7.339999999999998970, -3.700000000000000178, -2.000000000000000000 ) ) ;
#101 = DIRECTION ( 'NONE',  ( -2.843808977011159309E-16, -0.0000000000000000000, 1.000000000000000000 ) ) ;
#102 = ADVANCED_FACE ( 'NONE', ( #508, #96, #846, #425, #11, #16 ), #193, .F. ) ;
#103 = ORIENTED_EDGE ( 'NONE', *, *, #115, .T. ) ;
#104 = DIRECTION ( 'NONE',  ( -2.843808977011159309E-16, -0.0000000000000000000, 1.000000000000000000 ) ) ;
#105 = VECTOR ( 'NONE', #130, 1000.000000000000000 ) ;
#106 = DIRECTION ( 'NONE',  ( -3.469446951953611033E-15, -0.0000000000000000000, 1.000000000000000000 ) ) ;
#107 = EDGE_CURVE ( 'NONE', #708, #792, #369, .T. ) ;
#108 = VECTOR ( 'NONE', #303, 1000.000000000000000 ) ;
#109 = ORIENTED_EDGE ( 'NONE', *, *, #1071, .T. ) ;
#110 = DIRECTION ( 'NONE',  ( -1.000000000000000000, 0.0000000000000000000, -0.0000000000000000000 ) ) ;
#111 = DIRECTION ( 'NONE',  ( -0.0000000000000000000, 1.000000000000000000, -0.0000000000000000000 ) ) ;
#112 = FACE_OUTER_BOUND ( 'NONE', #528, .T. ) ;
#113 = EDGE_LOOP ( 'NONE', ( #357, #690, #734, #316 ) ) ;
#114 = CARTESIAN_POINT ( 'NONE',  ( 9.250000000000001776, -0.5000000000000000000, -3.049999999999998046 ) ) ;
#115 = EDGE_CURVE ( 'NONE', #1004, #427, #634, .T. ) ;
#116 = DIRECTION ( 'NONE',  ( -0.0000000000000000000, 1.000000000000000000, -0.0000000000000000000 ) ) ;
#117 = EDGE_LOOP ( 'NONE', ( #242, #460, #952, #719 ) ) ;
#118 = CARTESIAN_POINT ( 'NONE',  ( 2.259999999999999787, -3.700000000000000178, -1.749999999999999778 ) ) ;
#119 = MECHANICAL_CONTEXT ( 'NONE', #866, 'mechanical' ) ;
#120 = EDGE_CURVE ( 'NONE', #9, #387, #553, .T. ) ;
#121 = DIRECTION ( 'NONE',  ( -1.000000000000000000, 0.0000000000000000000, -3.469446951953611033E-15 ) ) ;
#122 = ORIENTED_EDGE ( 'NONE', *, *, #692, .T. ) ;
#123 = VECTOR ( 'NONE', #275, 1000.000000000000000 ) ;
#124 = DIRECTION ( 'NONE',  ( 0.0000000000000000000, -0.0000000000000000000, -1.000000000000000000 ) ) ;
#125 = APPLICATION_PROTOCOL_DEFINITION ( 'international standard', 'config_control_design', 1994, #866 ) ;
#126 = CARTESIAN_POINT ( 'NONE',  ( 4.800000000000000711, 0.0000000000000000000, -2.000000000000000000 ) ) ;
#127 = ORIENTED_EDGE ( 'NONE', *, *, #458, .T. ) ;
#128 = CARTESIAN_POINT ( 'NONE',  ( 9.750000000000000000, -0.5000000000000000000, 3.049999999999999822 ) ) ;
#129 = CALENDAR_DATE ( 2020, 20, 11 ) ;
#130 = DIRECTION ( 'NONE',  ( -0.0000000000000000000, 1.000000000000000000, -0.0000000000000000000 ) ) ;
#131 = EDGE_CURVE ( 'NONE', #162, #847, #967, .T. ) ;
#132 = ORIENTED_EDGE ( 'NONE', *, *, #740, .T. ) ;
#133 = APPROVAL_PERSON_ORGANIZATION ( #43, #524, #717 ) ;
#134 = CARTESIAN_POINT ( 'NONE',  ( -4.860000000000000320, -3.700000000000000178, -1.749999999999999778 ) ) ;
#135 = COORDINATED_UNIVERSAL_TIME_OFFSET ( 8, 0, .AHEAD. ) ;
#136 = PLANE ( 'NONE',  #260 ) ;
#137 = DIRECTION ( 'NONE',  ( -1.000000000000000000, 0.0000000000000000000, -3.469446951953611033E-15 ) ) ;
#138 = ORIENTED_EDGE ( 'NONE', *, *, #611, .F. ) ;
#139 = AXIS2_PLACEMENT_3D ( 'NONE', #1058, #490, #234 ) ;
#140 = LINE ( 'NONE', #1074, #344 ) ;
#141 = DIRECTION ( 'NONE',  ( -1.000000000000000000, 0.0000000000000000000, -0.0000000000000000000 ) ) ;
#142 = CARTESIAN_POINT ( 'NONE',  ( 2.259999999999999787, -3.700000000000000178, -2.000000000000000000 ) ) ;
#143 = ORIENTED_EDGE ( 'NONE', *, *, #225, .T. ) ;
#144 = DIRECTION ( 'NONE',  ( 0.0000000000000000000, 0.0000000000000000000, -1.000000000000000000 ) ) ;
#145 = DIRECTION ( 'NONE',  ( 0.0000000000000000000, 0.0000000000000000000, -1.000000000000000000 ) ) ;
#146 = EDGE_CURVE ( 'NONE', #427, #759, #543, .T. ) ;
#147 = DIRECTION ( 'NONE',  ( 0.0000000000000000000, 0.0000000000000000000, -1.000000000000000000 ) ) ;
#148 = ORIENTED_EDGE ( 'NONE', *, *, #74, .F. ) ;
#149 = VECTOR ( 'NONE', #852, 1000.000000000000000 ) ;
#150 = DIRECTION ( 'NONE',  ( -0.0000000000000000000, 0.0000000000000000000, 1.000000000000000000 ) ) ;
#151 = EDGE_CURVE ( 'NONE', #189, #684, #288, .T. ) ;
#152 = PLANE ( 'NONE',  #139 ) ;
#153 = ADVANCED_FACE ( 'NONE', ( #469 ), #951, .F. ) ;
#154 = CARTESIAN_POINT ( 'NONE',  ( -7.899999999999999467, 0.0000000000000000000, -2.000000000000000000 ) ) ;
#155 = ORIENTED_EDGE ( 'NONE', *, *, #839, .F. ) ;
#156 = ORIENTED_EDGE ( 'NONE', *, *, #1014, .F. ) ;
#157 = CARTESIAN_POINT ( 'NONE',  ( 4.800000000000000711, -3.700000000000000178, -1.749999999999999778 ) ) ;
#158 = PLANE ( 'NONE',  #422 ) ;
#159 = VECTOR ( 'NONE', #184, 1000.000000000000000 ) ;
#160 = CARTESIAN_POINT ( 'NONE',  ( 0.0000000000000000000, -3.700000000000000178, 0.0000000000000000000 ) ) ;
#161 = ORIENTED_EDGE ( 'NONE', *, *, #1005, .T. ) ;
#162 = VERTEX_POINT ( 'NONE', #1030 ) ;
#163 = DIRECTION ( 'NONE',  ( 1.000000000000000000, 0.0000000000000000000, 0.0000000000000000000 ) ) ;
#164 = FACE_OUTER_BOUND ( 'NONE', #311, .T. ) ;
#165 = ORIENTED_EDGE ( 'NONE', *, *, #231, .F. ) ;
#166 = ORIENTED_EDGE ( 'NONE', *, *, #667, .F. ) ;
#167 = EDGE_CURVE ( 'NONE', #289, #584, #810, .T. ) ;
#168 = VECTOR ( 'NONE', #735, 1000.000000000000000 ) ;
#169 = PLANE ( 'NONE',  #728 ) ;
#170 = ORIENTED_EDGE ( 'NONE', *, *, #597, .F. ) ;
#171 = EDGE_LOOP ( 'NONE', ( #536, #343, #544, #223 ) ) ;
#172 = ORIENTED_EDGE ( 'NONE', *, *, #445, .T. ) ;
#173 = VECTOR ( 'NONE', #824, 1000.000000000000000 ) ;
#174 = DIRECTION ( 'NONE',  ( -0.0000000000000000000, -1.000000000000000000, -0.0000000000000000000 ) ) ;
#175 = CARTESIAN_POINT ( 'NONE',  ( 5.299999999999998934, -3.700000000000000178, -1.749999999999999778 ) ) ;
#176 = LINE ( 'NONE', #430, #601 ) ;
#177 = ORIENTED_EDGE ( 'NONE', *, *, #74, .T. ) ;
#178 = APPROVAL ( #803, 'UNSPECIFIED' ) ;
#179 = CARTESIAN_POINT ( 'NONE',  ( 4.800000000000000711, -3.700000000000000178, -1.749999999999999778 ) ) ;
#180 = MANIFOLD_SOLID_BREP ( '¶ñ®Æ-¦ùªø3', #438 ) ;
#181 = DIRECTION ( 'NONE',  ( 0.0000000000000000000, 0.0000000000000000000, -1.000000000000000000 ) ) ;
#182 = ORIENTED_EDGE ( 'NONE', *, *, #626, .F. ) ;
#183 = ORIENTED_EDGE ( 'NONE', *, *, #915, .T. ) ;
#184 = DIRECTION ( 'NONE',  ( -0.0000000000000000000, 1.000000000000000000, -0.0000000000000000000 ) ) ;
#185 = EDGE_CURVE ( 'NONE', #658, #583, #638, .T. ) ;
#186 = CARTESIAN_POINT ( 'NONE',  ( 2.759999999999998455, 0.0000000000000000000, -1.749999999999999778 ) ) ;
#187 = LOCAL_TIME ( 9, 5, 4.000000000000000000, #135 ) ;
#188 = CARTESIAN_POINT ( 'NONE',  ( -7.400000000000000355, 0.0000000000000000000, -1.749999999999999778 ) ) ;
#189 = VERTEX_POINT ( 'NONE', #871 ) ;
#190 = PLANE ( 'NONE',  #512 ) ;
#191 = VECTOR ( 'NONE', #718, 1000.000000000000000 ) ;
#192 = DIRECTION ( 'NONE',  ( -1.000000000000000000, 0.0000000000000000000, 0.0000000000000000000 ) ) ;
#193 = PLANE ( 'NONE',  #224 ) ;
#194 = EDGE_LOOP ( 'NONE', ( #382, #594, #782, #236 ) ) ;
#195 = EDGE_CURVE ( 'NONE', #1016, #414, #52, .T. ) ;
#196 = CARTESIAN_POINT ( 'NONE',  ( 2.259999999999999787, -3.700000000000000178, -1.749999999999999778 ) ) ;
#197 = LINE ( 'NONE', #352, #149 ) ;
#198 = DIRECTION ( 'NONE',  ( 1.000000000000000000, 0.0000000000000000000, 0.0000000000000000000 ) ) ;
#199 = ADVANCED_FACE ( 'NONE', ( #112 ), #890, .F. ) ;
#200 = EDGE_LOOP ( 'NONE', ( #504, #821, #558, #205 ) ) ;
#201 = LINE ( 'NONE', #539, #265 ) ;
#202 = APPROVAL_STATUS ( 'not_yet_approved' ) ;
#203 = DIRECTION ( 'NONE',  ( -0.0000000000000000000, 1.000000000000000000, -0.0000000000000000000 ) ) ;
#204 = AXIS2_PLACEMENT_3D ( 'NONE', #157, #411, #496 ) ;
#205 = ORIENTED_EDGE ( 'NONE', *, *, #115, .F. ) ;
#206 = CARTESIAN_POINT ( 'NONE',  ( 2.259999999999999787, 0.0000000000000000000, -1.749999999999999778 ) ) ;
#207 = CARTESIAN_POINT ( 'NONE',  ( -7.899999999999999467, -3.700000000000000178, -2.000000000000000000 ) ) ;
#208 = ORIENTED_EDGE ( 'NONE', *, *, #146, .F. ) ;
#209 = VECTOR ( 'NONE', #89, 1000.000000000000000 ) ;
#210 = CARTESIAN_POINT ( 'NONE',  ( -9.250000000000001776, -0.5000000000000000000, 3.049999999999999822 ) ) ;
#211 = APPROVAL_DATE_TIME ( #966, #524 ) ;
#212 = DIRECTION ( 'NONE',  ( 0.0000000000000000000, -0.0000000000000000000, 1.000000000000000000 ) ) ;
#213 = EDGE_CURVE ( 'NONE', #246, #39, #790, .T. ) ;
#214 = EDGE_LOOP ( 'NONE', ( #910, #76, #1072, #1026, #891, #1044, #453, #208 ) ) ;
#215 = CARTESIAN_POINT ( 'NONE',  ( 9.750000000000000000, 9.700000000000001066, -3.049999999999999822 ) ) ;
#216 = CARTESIAN_POINT ( 'NONE',  ( 2.759999999999999343, 0.0000000000000000000, -2.000000000000000000 ) ) ;
#217 = VECTOR ( 'NONE', #975, 1000.000000000000000 ) ;
#218 = ORIENTED_EDGE ( 'NONE', *, *, #225, .F. ) ;
#219 = LINE ( 'NONE', #134, #403 ) ;
#220 = CALENDAR_DATE ( 2020, 20, 11 ) ;
#221 = DIRECTION ( 'NONE',  ( -1.000000000000000000, -0.0000000000000000000, -0.0000000000000000000 ) ) ;
#222 = CARTESIAN_POINT ( 'NONE',  ( 7.339999999999998970, 0.0000000000000000000, -1.749999999999999778 ) ) ;
#223 = ORIENTED_EDGE ( 'NONE', *, *, #707, .T. ) ;
#224 = AXIS2_PLACEMENT_3D ( 'NONE', #714, #283, #212 ) ;
#225 = EDGE_CURVE ( 'NONE', #27, #259, #36, .T. ) ;
#226 = VECTOR ( 'NONE', #25, 1000.000000000000000 ) ;
#227 = FACE_OUTER_BOUND ( 'NONE', #86, .T. ) ;
#228 = PLANE ( 'NONE',  #386 ) ;
#229 = DIRECTION ( 'NONE',  ( 0.0000000000000000000, -1.000000000000000000, 0.0000000000000000000 ) ) ;
#230 = VERTEX_POINT ( 'NONE', #457 ) ;
#231 = EDGE_CURVE ( 'NONE', #60, #987, #364, .T. ) ;
#232 = CARTESIAN_POINT ( 'NONE',  ( -7.399999999999999467, -3.700000000000000178, -2.000000000000000000 ) ) ;
#233 = ADVANCED_FACE ( 'NONE', ( #804 ), #795, .F. ) ;
#234 = DIRECTION ( 'NONE',  ( 0.0000000000000000000, -0.0000000000000000000, -1.000000000000000000 ) ) ;
#235 = DIRECTION ( 'NONE',  ( 0.0000000000000000000, -1.000000000000000000, 0.0000000000000000000 ) ) ;
#236 = ORIENTED_EDGE ( 'NONE', *, *, #747, .T. ) ;
#237 = AXIS2_PLACEMENT_3D ( 'NONE', #487, #235, #70 ) ;
#238 = VERTEX_POINT ( 'NONE', #885 ) ;
#239 = DIRECTION ( 'NONE',  ( -0.0000000000000000000, 1.000000000000000000, -0.0000000000000000000 ) ) ;
#240 = CARTESIAN_POINT ( 'NONE',  ( 4.800000000000000711, -3.700000000000000178, -1.749999999999999778 ) ) ;
#241 = FACE_OUTER_BOUND ( 'NONE', #612, .T. ) ;
#242 = ORIENTED_EDGE ( 'NONE', *, *, #726, .F. ) ;
#243 = PLANE ( 'NONE',  #22 ) ;
#244 = VECTOR ( 'NONE', #144, 1000.000000000000000 ) ;
#245 = CARTESIAN_POINT ( 'NONE',  ( 2.259999999999999787, 0.0000000000000000000, -2.000000000000000000 ) ) ;
#246 = VERTEX_POINT ( 'NONE', #126 ) ;
#247 = EDGE_CURVE ( 'NONE', #701, #917, #304, .T. ) ;
#248 = ORIENTED_EDGE ( 'NONE', *, *, #915, .F. ) ;
#249 = DIRECTION ( 'NONE',  ( 1.000000000000000000, 0.0000000000000000000, 0.0000000000000000000 ) ) ;
#250 = VERTEX_POINT ( 'NONE', #412 ) ;
#251 = ORIENTED_EDGE ( 'NONE', *, *, #410, .T. ) ;
#252 = VERTEX_POINT ( 'NONE', #643 ) ;
#253 = AXIS2_PLACEMENT_3D ( 'NONE', #936, #192, #530 ) ;
#254 = LINE ( 'NONE', #760, #916 ) ;
#255 = CARTESIAN_POINT ( 'NONE',  ( 0.0000000000000000000, -0.5000000000000000000, 0.0000000000000000000 ) ) ;
#256 = CARTESIAN_POINT ( 'NONE',  ( -9.750000000000000000, 9.700000000000001066, 3.049999999999999822 ) ) ;
#257 = EDGE_LOOP ( 'NONE', ( #796, #82, #901, #183 ) ) ;
#258 = CC_DESIGN_PERSON_AND_ORGANIZATION_ASSIGNMENT ( #35, #713, ( #417 ) ) ;
#259 = VERTEX_POINT ( 'NONE', #216 ) ;
#260 = AXIS2_PLACEMENT_3D ( 'NONE', #979, #79, #907 ) ;
#261 = ADVANCED_FACE ( 'NONE', ( #835 ), #68, .F. ) ;
#262 = DIRECTION ( 'NONE',  ( 1.000000000000000000, 0.0000000000000000000, 0.0000000000000000000 ) ) ;
#263 = DIRECTION ( 'NONE',  ( -3.469446951953611033E-15, 0.0000000000000000000, 1.000000000000000000 ) ) ;
#264 = CARTESIAN_POINT ( 'NONE',  ( 5.299999999999999822, 0.0000000000000000000, -2.000000000000000000 ) ) ;
#265 = VECTOR ( 'NONE', #721, 1000.000000000000000 ) ;
#266 = ORIENTED_EDGE ( 'NONE', *, *, #993, .T. ) ;
#267 = ADVANCED_FACE ( 'NONE', ( #1075 ), #136, .F. ) ;
#268 = CARTESIAN_POINT ( 'NONE',  ( -7.399999999999999467, 0.0000000000000000000, -2.000000000000000000 ) ) ;
#269 = EDGE_CURVE ( 'NONE', #408, #681, #400, .T. ) ;
#270 = DIRECTION ( 'NONE',  ( 0.0000000000000000000, 0.0000000000000000000, -1.000000000000000000 ) ) ;
#271 = ORIENTED_EDGE ( 'NONE', *, *, #657, .T. ) ;
#272 = ORIENTED_EDGE ( 'NONE', *, *, #302, .T. ) ;
#273 = PERSON ( 'UNSPECIFIED', 'UNSPECIFIED', 'UNSPECIFIED', ('UNSPECIFIED'), ('UNSPECIFIED'), ('UNSPECIFIED') ) ;
#274 =( GEOMETRIC_REPRESENTATION_CONTEXT ( 3 ) GLOBAL_UNCERTAINTY_ASSIGNED_CONTEXT ( ( #652 ) ) GLOBAL_UNIT_ASSIGNED_CONTEXT ( ( #893, #468, #642 ) ) REPRESENTATION_CONTEXT ( 'NONE', 'WORKASPACE' ) );
#275 = DIRECTION ( 'NONE',  ( 1.000000000000000000, 0.0000000000000000000, 0.0000000000000000000 ) ) ;
#276 = CARTESIAN_POINT ( 'NONE',  ( 9.750000000000000000, 9.700000000000001066, 3.049999999999999822 ) ) ;
#277 = LOCAL_TIME ( 9, 5, 4.000000000000000000, #57 ) ;
#278 = ORIENTED_EDGE ( 'NONE', *, *, #947, .T. ) ;
#279 = ORIENTED_EDGE ( 'NONE', *, *, #726, .T. ) ;
#280 = CARTESIAN_POINT ( 'NONE',  ( -7.400000000000000355, -3.700000000000000178, -1.749999999999999778 ) ) ;
#281 = AXIS2_PLACEMENT_3D ( 'NONE', #256, #435, #930 ) ;
#282 = CARTESIAN_POINT ( 'NONE',  ( -9.750000000000000000, 9.700000000000001066, -3.049999999999999822 ) ) ;
#283 = DIRECTION ( 'NONE',  ( 0.0000000000000000000, 1.000000000000000000, 0.0000000000000000000 ) ) ;
#284 = VECTOR ( 'NONE', #1079, 1000.000000000000000 ) ;
#285 = VERTEX_POINT ( 'NONE', #750 ) ;
#286 = CARTESIAN_POINT ( 'NONE',  ( 7.339999999999998970, -3.700000000000000178, -1.749999999999999778 ) ) ;
#287 = CALENDAR_DATE ( 2020, 20, 11 ) ;
#288 = LINE ( 'NONE', #379, #333 ) ;
#289 = VERTEX_POINT ( 'NONE', #755 ) ;
#290 = DIRECTION ( 'NONE',  ( -1.000000000000000000, 0.0000000000000000000, -2.843808977011159309E-16 ) ) ;
#291 = CALENDAR_DATE ( 2020, 20, 11 ) ;
#292 = DIRECTION ( 'NONE',  ( -0.0000000000000000000, 1.000000000000000000, -0.0000000000000000000 ) ) ;
#293 = AXIS2_PLACEMENT_3D ( 'NONE', #581, #981, #147 ) ;
#294 = ORIENTED_EDGE ( 'NONE', *, *, #146, .T. ) ;
#295 = EDGE_CURVE ( 'NONE', #488, #805, #912, .T. ) ;
#296 = FACE_OUTER_BOUND ( 'NONE', #619, .T. ) ;
#297 = ADVANCED_FACE ( 'NONE', ( #1069 ), #228, .F. ) ;
#298 = PERSON_AND_ORGANIZATION_ROLE ( 'classification_officer' ) ;
#299 = DIRECTION ( 'NONE',  ( 1.000000000000000000, 0.0000000000000000000, -0.0000000000000000000 ) ) ;
#300 = ORIENTED_EDGE ( 'NONE', *, *, #1042, .T. ) ;
#301 = VECTOR ( 'NONE', #454, 1000.000000000000000 ) ;
#302 = EDGE_CURVE ( 'NONE', #252, #1003, #742, .T. ) ;
#303 = DIRECTION ( 'NONE',  ( -0.0000000000000000000, -1.000000000000000000, -0.0000000000000000000 ) ) ;
#304 = LINE ( 'NONE', #662, #455 ) ;
#305 = ORIENTED_EDGE ( 'NONE', *, *, #107, .F. ) ;
#306 = DIRECTION ( 'NONE',  ( -0.0000000000000000000, 1.000000000000000000, -0.0000000000000000000 ) ) ;
#307 = CARTESIAN_POINT ( 'NONE',  ( 0.0000000000000000000, 0.0000000000000000000, 0.0000000000000000000 ) ) ;
#308 = CARTESIAN_POINT ( 'NONE',  ( -5.359999999999999432, 0.0000000000000000000, -1.749999999999999778 ) ) ;
#309 = VECTOR ( 'NONE', #904, 1000.000000000000000 ) ;
#310 = FACE_OUTER_BOUND ( 'NONE', #590, .T. ) ;
#311 = EDGE_LOOP ( 'NONE', ( #1037, #625, #375, #97, #138, #588, #494, #697 ) ) ;
#312 = EDGE_CURVE ( 'NONE', #920, #847, #668, .T. ) ;
#313 = LINE ( 'NONE', #897, #449 ) ;
#314 = CARTESIAN_POINT ( 'NONE',  ( 2.259999999999999787, -3.700000000000000178, -1.749999999999999778 ) ) ;
#315 = DIRECTION ( 'NONE',  ( -0.0000000000000000000, 1.000000000000000000, -0.0000000000000000000 ) ) ;
#316 = ORIENTED_EDGE ( 'NONE', *, *, #541, .F. ) ;
#317 = ADVANCED_FACE ( 'NONE', ( #58 ), #152, .T. ) ;
#318 = DESIGN_CONTEXT ( 'detailed design', #582, 'design' ) ;
#319 = FACE_OUTER_BOUND ( 'NONE', #194, .T. ) ;
#320 = CARTESIAN_POINT ( 'NONE',  ( 7.839999999999998082, 0.0000000000000000000, -1.749999999999999778 ) ) ;
#321 = CARTESIAN_POINT ( 'NONE',  ( 7.339999999999998970, -3.700000000000000178, -1.749999999999999778 ) ) ;
#322 = ORIENTED_EDGE ( 'NONE', *, *, #213, .F. ) ;
#323 = CARTESIAN_POINT ( 'NONE',  ( 7.839999999999999858, -3.700000000000000178, -2.000000000000000000 ) ) ;
#324 = FACE_OUTER_BOUND ( 'NONE', #921, .T. ) ;
#325 = DIRECTION ( 'NONE',  ( 0.0000000000000000000, 0.0000000000000000000, -1.000000000000000000 ) ) ;
#326 = ORIENTED_EDGE ( 'NONE', *, *, #431, .T. ) ;
#327 = SECURITY_CLASSIFICATION ( '', '', #542 ) ;
#328 = FACE_OUTER_BOUND ( 'NONE', #753, .T. ) ;
#329 = ADVANCED_FACE ( 'NONE', ( #324 ), #991, .F. ) ;
#330 = PRODUCT ( 'TMV Dual Output 5+12VIN', 'TMV Dual Output 5+12VIN', '', ( #119 ) ) ;
#331 = CARTESIAN_POINT ( 'NONE',  ( -9.750000000000000000, 9.700000000000001066, -3.049999999999999822 ) ) ;
#332 = EDGE_LOOP ( 'NONE', ( #28, #827, #444, #996 ) ) ;
#333 = VECTOR ( 'NONE', #629, 1000.000000000000000 ) ;
#334 = ORIENTED_EDGE ( 'NONE', *, *, #407, .T. ) ;
#335 = CARTESIAN_POINT ( 'NONE',  ( 0.0000000000000000000, -0.5000000000000000000, 0.0000000000000000000 ) ) ;
#336 = LINE ( 'NONE', #1010, #1050 ) ;
#337 = ORIENTED_EDGE ( 'NONE', *, *, #477, .T. ) ;
#338 = CARTESIAN_POINT ( 'NONE',  ( -4.859999999999999432, -3.700000000000000178, -2.000000000000000000 ) ) ;
#339 = CARTESIAN_POINT ( 'NONE',  ( 4.800000000000000711, -3.700000000000000178, -1.749999999999999778 ) ) ;
#340 = PLANE ( 'NONE',  #1031 ) ;
#341 = ORIENTED_EDGE ( 'NONE', *, *, #120, .F. ) ;
#342 = ADVANCED_FACE ( 'NONE', ( #561 ), #829, .F. ) ;
#343 = ORIENTED_EDGE ( 'NONE', *, *, #247, .F. ) ;
#344 = VECTOR ( 'NONE', #239, 1000.000000000000000 ) ;
#345 = LINE ( 'NONE', #688, #159 ) ;
#346 = CARTESIAN_POINT ( 'NONE',  ( -9.250000000000001776, -0.5000000000000000000, 3.049999999999999822 ) ) ;
#347 = DIRECTION ( 'NONE',  ( -0.0000000000000000000, 0.0000000000000000000, 1.000000000000000000 ) ) ;
#348 = EDGE_CURVE ( 'NONE', #27, #189, #481, .T. ) ;
#349 = VERTEX_POINT ( 'NONE', #62 ) ;
#350 = EDGE_CURVE ( 'NONE', #483, #867, #72, .T. ) ;
#351 = CARTESIAN_POINT ( 'NONE',  ( 7.339999999999998970, 0.0000000000000000000, -2.000000000000000000 ) ) ;
#352 = CARTESIAN_POINT ( 'NONE',  ( -9.250000000000001776, -0.5000000000000000000, 3.049999999999999822 ) ) ;
#353 = CARTESIAN_POINT ( 'NONE',  ( 4.800000000000000711, 0.0000000000000000000, -1.749999999999999778 ) ) ;
#354 = ORIENTED_EDGE ( 'NONE', *, *, #616, .T. ) ;
#355 = PLANE ( 'NONE',  #603 ) ;
#356 = CARTESIAN_POINT ( 'NONE',  ( 0.0000000000000000000, -3.700000000000000178, 0.0000000000000000000 ) ) ;
#357 = ORIENTED_EDGE ( 'NONE', *, *, #692, .F. ) ;
#358 = VERTEX_POINT ( 'NONE', #405 ) ;
#359 = CC_DESIGN_PERSON_AND_ORGANIZATION_ASSIGNMENT ( #731, #378, ( #417 ) ) ;
#360 = AXIS2_PLACEMENT_3D ( 'NONE', #789, #778, #263 ) ;
#361 = CARTESIAN_POINT ( 'NONE',  ( 2.259999999999999787, 0.0000000000000000000, -2.000000000000000000 ) ) ;
#362 = DIRECTION ( 'NONE',  ( 1.000000000000000000, 0.0000000000000000000, 0.0000000000000000000 ) ) ;
#363 = ADVANCED_FACE ( 'NONE', ( #1064 ), #158, .F. ) ;
#364 = LINE ( 'NONE', #464, #743 ) ;
#365 = EDGE_LOOP ( 'NONE', ( #640, #409, #165, #957 ) ) ;
#366 = DIRECTION ( 'NONE',  ( -0.0000000000000000000, 1.000000000000000000, -0.0000000000000000000 ) ) ;
#367 = VECTOR ( 'NONE', #722, 1000.000000000000000 ) ;
#368 = DATE_AND_TIME ( #129, #187 ) ;
#369 = LINE ( 'NONE', #1048, #191 ) ;
#370 = AXIS2_PLACEMENT_3D ( 'NONE', #196, #1039, #110 ) ;
#371 = ORIENTED_EDGE ( 'NONE', *, *, #780, .F. ) ;
#372 = DIRECTION ( 'NONE',  ( 1.000000000000000000, 0.0000000000000000000, 0.0000000000000000000 ) ) ;
#373 = DATE_AND_TIME ( #463, #277 ) ;
#374 = DIRECTION ( 'NONE',  ( 0.0000000000000000000, 0.0000000000000000000, 1.000000000000000000 ) ) ;
#375 = ORIENTED_EDGE ( 'NONE', *, *, #1014, .T. ) ;
#376 = EDGE_CURVE ( 'NONE', #792, #938, #485, .T. ) ;
#377 = CARTESIAN_POINT ( 'NONE',  ( 9.250000000000000000, -0.5000000000000000000, 3.050000000000003375 ) ) ;
#378 = PERSON_AND_ORGANIZATION_ROLE ( 'creator' ) ;
#379 = CARTESIAN_POINT ( 'NONE',  ( 2.759999999999998455, -3.700000000000000178, -1.749999999999999778 ) ) ;
#380 = LOCAL_TIME ( 9, 5, 4.000000000000000000, #1035 ) ;
#381 = EDGE_CURVE ( 'NONE', #631, #230, #98, .T. ) ;
#382 = ORIENTED_EDGE ( 'NONE', *, *, #312, .T. ) ;
#383 = CARTESIAN_POINT ( 'NONE',  ( -7.400000000000000355, -3.700000000000000178, -1.749999999999999778 ) ) ;
#384 = APPROVAL_STATUS ( 'not_yet_approved' ) ;
#385 = CARTESIAN_POINT ( 'NONE',  ( 9.750000000000000000, 9.700000000000001066, -3.049999999999999822 ) ) ;
#386 = AXIS2_PLACEMENT_3D ( 'NONE', #579, #732, #473 ) ;
#387 = VERTEX_POINT ( 'NONE', #518 ) ;
#388 = CARTESIAN_POINT ( 'NONE',  ( -7.899999999999999467, -3.700000000000000178, -1.749999999999999778 ) ) ;
#389 = COORDINATED_UNIVERSAL_TIME_OFFSET ( 8, 0, .AHEAD. ) ;
#390 = DIRECTION ( 'NONE',  ( -6.938893903907222067E-15, -0.0000000000000000000, 1.000000000000000000 ) ) ;
#391 = EDGE_CURVE ( 'NONE', #779, #252, #1015, .T. ) ;
#392 = PLANE ( 'NONE',  #702 ) ;
#393 = ORIENTED_EDGE ( 'NONE', *, *, #498, .F. ) ;
#394 = DIRECTION ( 'NONE',  ( 1.000000000000000000, 0.0000000000000000000, -3.469446951953623261E-15 ) ) ;
#395 = CARTESIAN_POINT ( 'NONE',  ( -9.750000000000000000, -0.5000000000000000000, -3.049999999999999822 ) ) ;
#396 = CARTESIAN_POINT ( 'NONE',  ( 5.299999999999999822, -3.700000000000000178, -2.000000000000000000 ) ) ;
#397 = ORGANIZATION ( 'UNSPECIFIED', 'UNSPECIFIED', '' ) ;
#398 = VERTEX_POINT ( 'NONE', #268 ) ;
#399 = LINE ( 'NONE', #215, #108 ) ;
#400 = LINE ( 'NONE', #894, #781 ) ;
#401 = CARTESIAN_POINT ( 'NONE',  ( 7.839999999999998082, -3.700000000000000178, -1.749999999999999778 ) ) ;
#402 = AXIS2_PLACEMENT_3D ( 'NONE', #557, #572, #815 ) ;
#403 = VECTOR ( 'NONE', #972, 1000.000000000000000 ) ;
#404 = DIRECTION ( 'NONE',  ( -3.469446951953611033E-15, -0.0000000000000000000, 1.000000000000000000 ) ) ;
#405 = CARTESIAN_POINT ( 'NONE',  ( 4.800000000000000711, -3.700000000000000178, -2.000000000000000000 ) ) ;
#406 = DIRECTION ( 'NONE',  ( 1.000000000000000000, 0.0000000000000000000, 0.0000000000000000000 ) ) ;
#407 = EDGE_CURVE ( 'NONE', #509, #779, #856, .T. ) ;
#408 = VERTEX_POINT ( 'NONE', #770 ) ;
#409 = ORIENTED_EDGE ( 'NONE', *, *, #740, .F. ) ;
#410 = EDGE_CURVE ( 'NONE', #917, #920, #998, .T. ) ;
#411 = DIRECTION ( 'NONE',  ( 1.000000000000000000, 0.0000000000000000000, 0.0000000000000000000 ) ) ;
#412 = CARTESIAN_POINT ( 'NONE',  ( -5.359999999999999432, -3.700000000000000178, -1.749999999999999778 ) ) ;
#413 = FACE_OUTER_BOUND ( 'NONE', #1055, .T. ) ;
#414 = VERTEX_POINT ( 'NONE', #351 ) ;
#415 = VECTOR ( 'NONE', #362, 1000.000000000000000 ) ;
#416 = ORIENTED_EDGE ( 'NONE', *, *, #269, .F. ) ;
#417 = PRODUCT_DEFINITION_FORMATION_WITH_SPECIFIED_SOURCE ( 'ANY', '', #330, .NOT_KNOWN. ) ;
#418 = CARTESIAN_POINT ( 'NONE',  ( 9.250000000000001776, 0.0000000000000000000, -3.049999999999998046 ) ) ;
#419 = CARTESIAN_POINT ( 'NONE',  ( -5.359999999999999432, -3.700000000000000178, -2.000000000000000000 ) ) ;
#420 = ORIENTED_EDGE ( 'NONE', *, *, #350, .T. ) ;
#421 = VECTOR ( 'NONE', #106, 1000.000000000000000 ) ;
#422 = AXIS2_PLACEMENT_3D ( 'NONE', #314, #654, #145 ) ;
#423 = CARTESIAN_POINT ( 'NONE',  ( 7.339999999999998970, -3.700000000000000178, -1.749999999999999778 ) ) ;
#424 = ADVANCED_FACE ( 'NONE', ( #328 ), #243, .F. ) ;
#425 = FACE_BOUND ( 'NONE', #532, .T. ) ;
#426 = ORIENTED_EDGE ( 'NONE', *, *, #559, .T. ) ;
#427 = VERTEX_POINT ( 'NONE', #94 ) ;
#428 = DIRECTION ( 'NONE',  ( -3.469446951953611033E-15, -0.0000000000000000000, 1.000000000000000000 ) ) ;
#429 = PLANE ( 'NONE',  #774 ) ;
#430 = CARTESIAN_POINT ( 'NONE',  ( 2.259999999999999787, -3.700000000000000178, -2.000000000000000000 ) ) ;
#431 = EDGE_CURVE ( 'NONE', #432, #1016, #1019, .T. ) ;
#432 = VERTEX_POINT ( 'NONE', #423 ) ;
#433 = CARTESIAN_POINT ( 'NONE',  ( -7.899999999999999467, -3.700000000000000178, -2.000000000000000000 ) ) ;
#434 = FACE_OUTER_BOUND ( 'NONE', #200, .T. ) ;
#435 = DIRECTION ( 'NONE',  ( 0.0000000000000000000, 0.0000000000000000000, -1.000000000000000000 ) ) ;
#436 = PRODUCT_DEFINITION_SHAPE ( 'NONE', 'NONE',  #69 ) ;
#437 = ORIENTED_EDGE ( 'NONE', *, *, #462, .T. ) ;
#438 = CLOSED_SHELL ( 'NONE', ( #102, #1073, #42, #1038, #153, #506, #578, #958, #547, #465, #680, #644, #527, #1077, #317, #886, #267, #199, #329, #537, #806, #261, #1025, #342, #889, #896, #54, #297, #233, #960, #363, #424, #819, #570, #933 ) ) ;
#439 = CARTESIAN_POINT ( 'NONE',  ( 0.0000000000000000000, 9.700000000000001066, 0.0000000000000000000 ) ) ;
#440 = DIRECTION ( 'NONE',  ( -0.0000000000000000000, 1.000000000000000000, -0.0000000000000000000 ) ) ;
#441 = CARTESIAN_POINT ( 'NONE',  ( 2.259999999999999787, -3.700000000000000178, -1.749999999999999778 ) ) ;
#442 = VECTOR ( 'NONE', #450, 1000.000000000000000 ) ;
#443 = EDGE_CURVE ( 'NONE', #509, #887, #918, .T. ) ;
#444 = ORIENTED_EDGE ( 'NONE', *, *, #493, .T. ) ;
#445 = EDGE_CURVE ( 'NONE', #658, #1004, #604, .T. ) ;
#446 = CARTESIAN_POINT ( 'NONE',  ( 4.800000000000000711, -3.700000000000000178, -2.000000000000000000 ) ) ;
#447 = PLANE ( 'NONE',  #360 ) ;
#448 = VERTEX_POINT ( 'NONE', #179 ) ;
#449 = VECTOR ( 'NONE', #404, 1000.000000000000000 ) ;
#450 = DIRECTION ( 'NONE',  ( 0.0000000000000000000, 0.0000000000000000000, -1.000000000000000000 ) ) ;
#451 = LINE ( 'NONE', #339, #736 ) ;
#452 = CARTESIAN_POINT ( 'NONE',  ( -9.750000000000000000, 9.700000000000001066, -3.049999999999999822 ) ) ;
#453 = ORIENTED_EDGE ( 'NONE', *, *, #479, .F. ) ;
#454 = DIRECTION ( 'NONE',  ( 0.0000000000000000000, 0.0000000000000000000, -1.000000000000000000 ) ) ;
#455 = VECTOR ( 'NONE', #970, 1000.000000000000000 ) ;
#456 = DATE_AND_TIME ( #220, #66 ) ;
#457 = CARTESIAN_POINT ( 'NONE',  ( 9.250000000000001776, -0.5000000000000000000, -3.049999999999998046 ) ) ;
#458 = EDGE_CURVE ( 'NONE', #349, #708, #84, .T. ) ;
#459 = VECTOR ( 'NONE', #366, 1000.000000000000000 ) ;
#460 = ORIENTED_EDGE ( 'NONE', *, *, #589, .F. ) ;
#461 = PLANE ( 'NONE',  #549 ) ;
#462 = EDGE_CURVE ( 'NONE', #691, #488, #254, .T. ) ;
#463 = CALENDAR_DATE ( 2020, 20, 11 ) ;
#464 = CARTESIAN_POINT ( 'NONE',  ( 5.299999999999998934, -3.700000000000000178, -1.749999999999999778 ) ) ;
#465 = ADVANCED_FACE ( 'NONE', ( #10 ), #169, .T. ) ;
#466 = EDGE_LOOP ( 'NONE', ( #161, #674, #1006, #143 ) ) ;
#467 = LINE ( 'NONE', #807, #686 ) ;
#468 =( NAMED_UNIT ( * ) PLANE_ANGLE_UNIT ( ) SI_UNIT ( $, .RADIAN. ) );
#469 = FACE_OUTER_BOUND ( 'NONE', #214, .T. ) ;
#470 = ORIENTED_EDGE ( 'NONE', *, *, #593, .T. ) ;
#471 = DIRECTION ( 'NONE',  ( 1.000000000000000000, 0.0000000000000000000, 0.0000000000000000000 ) ) ;
#472 = PERSON_AND_ORGANIZATION ( #273, #397 ) ;
#473 = DIRECTION ( 'NONE',  ( -6.938893903907222067E-15, 0.0000000000000000000, 1.000000000000000000 ) ) ;
#474 = VECTOR ( 'NONE', #390, 1000.000000000000000 ) ;
#475 = CARTESIAN_POINT ( 'NONE',  ( -7.899999999999999467, 0.0000000000000000000, -1.749999999999999778 ) ) ;
#476 = ORIENTED_EDGE ( 'NONE', *, *, #989, .F. ) ;
#477 = EDGE_CURVE ( 'NONE', #162, #492, #1007, .T. ) ;
#478 = PLANE ( 'NONE',  #884 ) ;
#479 = EDGE_CURVE ( 'NONE', #759, #483, #507, .T. ) ;
#480 = PERSON_AND_ORGANIZATION_ROLE ( 'creator' ) ;
#481 = LINE ( 'NONE', #903, #655 ) ;
#482 = PLANE ( 'NONE',  #237 ) ;
#483 = VERTEX_POINT ( 'NONE', #777 ) ;
#484 = DIRECTION ( 'NONE',  ( 1.000000000000000000, 0.0000000000000000000, 0.0000000000000000000 ) ) ;
#485 = LINE ( 'NONE', #591, #585 ) ;
#486 = VECTOR ( 'NONE', #440, 1000.000000000000000 ) ;
#487 = CARTESIAN_POINT ( 'NONE',  ( 0.0000000000000000000, -3.700000000000000178, 0.0000000000000000000 ) ) ;
#488 = VERTEX_POINT ( 'NONE', #18 ) ;
#489 = LINE ( 'NONE', #905, #168 ) ;
#490 = DIRECTION ( 'NONE',  ( 0.0000000000000000000, -1.000000000000000000, 0.0000000000000000000 ) ) ;
#491 = PLANE ( 'NONE',  #293 ) ;
#492 = VERTEX_POINT ( 'NONE', #694 ) ;
#493 = EDGE_CURVE ( 'NONE', #584, #631, #513, .T. ) ;
#494 = ORIENTED_EDGE ( 'NONE', *, *, #857, .F. ) ;
#495 = VECTOR ( 'NONE', #372, 1000.000000000000000 ) ;
#496 = DIRECTION ( 'NONE',  ( 0.0000000000000000000, 0.0000000000000000000, -1.000000000000000000 ) ) ;
#497 = DIRECTION ( 'NONE',  ( -1.000000000000000000, -0.0000000000000000000, -0.0000000000000000000 ) ) ;
#498 = EDGE_CURVE ( 'NONE', #285, #805, #345, .T. ) ;
#499 = CARTESIAN_POINT ( 'NONE',  ( 2.259999999999999787, -3.700000000000000178, -1.749999999999999778 ) ) ;
#500 = ORIENTED_EDGE ( 'NONE', *, *, #927, .T. ) ;
#501 = ORIENTED_EDGE ( 'NONE', *, *, #213, .T. ) ;
#502 = CARTESIAN_POINT ( 'NONE',  ( 9.250000000000001776, -0.5000000000000000000, -3.049999999999998046 ) ) ;
#503 = DIRECTION ( 'NONE',  ( 1.000000000000000000, 0.0000000000000000000, 0.0000000000000000000 ) ) ;
#504 = ORIENTED_EDGE ( 'NONE', *, *, #857, .T. ) ;
#505 = EDGE_LOOP ( 'NONE', ( #976, #393, #787, #437 ) ) ;
#506 = ADVANCED_FACE ( 'NONE', ( #523 ), #862, .T. ) ;
#507 = LINE ( 'NONE', #598, #639 ) ;
#508 = FACE_BOUND ( 'NONE', #1027, .T. ) ;
#509 = VERTEX_POINT ( 'NONE', #953 ) ;
#510 = AXIS2_PLACEMENT_3D ( 'NONE', #240, #899, #141 ) ;
#511 = ORIENTED_EDGE ( 'NONE', *, *, #24, .F. ) ;
#512 = AXIS2_PLACEMENT_3D ( 'NONE', #210, #290, #34 ) ;
#513 = LINE ( 'NONE', #13, #868 ) ;
#514 = EDGE_CURVE ( 'NONE', #414, #488, #888, .T. ) ;
#515 = DIRECTION ( 'NONE',  ( 0.0000000000000000000, 0.0000000000000000000, -1.000000000000000000 ) ) ;
#516 = EDGE_LOOP ( 'NONE', ( #837, #341, #248, #596 ) ) ;
#517 = ORIENTED_EDGE ( 'NONE', *, *, #573, .T. ) ;
#518 = CARTESIAN_POINT ( 'NONE',  ( 2.259999999999999787, 0.0000000000000000000, -1.749999999999999778 ) ) ;
#519 = FACE_OUTER_BOUND ( 'NONE', #607, .T. ) ;
#520 = ORIENTED_EDGE ( 'NONE', *, *, #545, .F. ) ;
#521 = ORIENTED_EDGE ( 'NONE', *, *, #391, .T. ) ;
#522 = LOCAL_TIME ( 9, 5, 4.000000000000000000, #1040 ) ;
#523 = FACE_OUTER_BOUND ( 'NONE', #635, .T. ) ;
#524 = APPROVAL ( #202, 'UNSPECIFIED' ) ;
#525 = DIRECTION ( 'NONE',  ( -1.000000000000000000, 0.0000000000000000000, -0.0000000000000000000 ) ) ;
#526 = DIRECTION ( 'NONE',  ( -0.0000000000000000000, 1.000000000000000000, -0.0000000000000000000 ) ) ;
#527 = ADVANCED_FACE ( 'NONE', ( #943 ), #355, .F. ) ;
#528 = EDGE_LOOP ( 'NONE', ( #521, #166, #645, #334 ) ) ;
#529 = CARTESIAN_POINT ( 'NONE',  ( -9.750000000000000000, -0.5000000000000000000, 3.049999999999999822 ) ) ;
#530 = DIRECTION ( 'NONE',  ( 0.0000000000000000000, 0.0000000000000000000, 1.000000000000000000 ) ) ;
#531 = CARTESIAN_POINT ( 'NONE',  ( 2.259999999999999787, -3.700000000000000178, -1.749999999999999778 ) ) ;
#532 = EDGE_LOOP ( 'NONE', ( #564, #23, #831, #155 ) ) ;
#533 = CARTESIAN_POINT ( 'NONE',  ( -9.750000000000000000, -0.5000000000000000000, 3.049999999999999822 ) ) ;
#534 = DIRECTION ( 'NONE',  ( -1.000000000000000000, -0.0000000000000000000, -0.0000000000000000000 ) ) ;
#535 = CARTESIAN_POINT ( 'NONE',  ( 2.759999999999999343, -3.700000000000000178, -2.000000000000000000 ) ) ;
#536 = ORIENTED_EDGE ( 'NONE', *, *, #21, .T. ) ;
#537 = ADVANCED_FACE ( 'NONE', ( #551 ), #461, .T. ) ;
#538 = VECTOR ( 'NONE', #994, 1000.000000000000000 ) ;
#539 = CARTESIAN_POINT ( 'NONE',  ( 7.339999999999998970, 0.0000000000000000000, -1.749999999999999778 ) ) ;
#540 = APPROVAL_PERSON_ORGANIZATION ( #472, #608, #973 ) ;
#541 = EDGE_CURVE ( 'NONE', #238, #779, #964, .T. ) ;
#542 = SECURITY_CLASSIFICATION_LEVEL ( 'unclassified' ) ;
#543 = LINE ( 'NONE', #47, #997 ) ;
#544 = ORIENTED_EDGE ( 'NONE', *, *, #775, .F. ) ;
#545 = EDGE_CURVE ( 'NONE', #9, #844, #622, .T. ) ;
#546 = DIRECTION ( 'NONE',  ( -1.000000000000000000, -0.0000000000000000000, -0.0000000000000000000 ) ) ;
#547 = ADVANCED_FACE ( 'NONE', ( #296 ), #802, .F. ) ;
#548 = CARTESIAN_POINT ( 'NONE',  ( 4.800000000000000711, 0.0000000000000000000, -2.000000000000000000 ) ) ;
#549 = AXIS2_PLACEMENT_3D ( 'NONE', #788, #710, #124 ) ;
#550 = ORIENTED_EDGE ( 'NONE', *, *, #780, .T. ) ;
#551 = FACE_OUTER_BOUND ( 'NONE', #729, .T. ) ;
#552 = DATE_TIME_ROLE ( 'creation_date' ) ;
#553 = LINE ( 'NONE', #531, #105 ) ;
#554 = ORIENTED_EDGE ( 'NONE', *, *, #131, .T. ) ;
#555 = CARTESIAN_POINT ( 'NONE',  ( -7.899999999999999467, -3.700000000000000178, -1.749999999999999778 ) ) ;
#556 = AXIS2_PLACEMENT_3D ( 'NONE', #255, #875, #181 ) ;
#557 = CARTESIAN_POINT ( 'NONE',  ( 4.800000000000000711, -3.700000000000000178, -2.000000000000000000 ) ) ;
#558 = ORIENTED_EDGE ( 'NONE', *, *, #665, .F. ) ;
#559 = EDGE_CURVE ( 'NONE', #861, #259, #41, .T. ) ;
#560 = PLANE ( 'NONE',  #73 ) ;
#561 = FACE_OUTER_BOUND ( 'NONE', #569, .T. ) ;
#562 = VECTOR ( 'NONE', #1036, 1000.000000000000000 ) ;
#563 = FACE_OUTER_BOUND ( 'NONE', #257, .T. ) ;
#564 = ORIENTED_EDGE ( 'NONE', *, *, #312, .F. ) ;
#565 = VECTOR ( 'NONE', #394, 1000.000000000000000 ) ;
#566 = CARTESIAN_POINT ( 'NONE',  ( -7.899999999999999467, -3.700000000000000178, -2.000000000000000000 ) ) ;
#567 = DIRECTION ( 'NONE',  ( 0.0000000000000000000, 0.0000000000000000000, -1.000000000000000000 ) ) ;
#568 = PLANE ( 'NONE',  #647 ) ;
#569 = EDGE_LOOP ( 'NONE', ( #926, #371, #948, #132 ) ) ;
#570 = ADVANCED_FACE ( 'NONE', ( #869 ), #615, .F. ) ;
#571 = CARTESIAN_POINT ( 'NONE',  ( 9.250000000000003553, 0.0000000000000000000, -3.049999999999999822 ) ) ;
#572 = DIRECTION ( 'NONE',  ( -0.0000000000000000000, 0.0000000000000000000, 1.000000000000000000 ) ) ;
#573 = EDGE_CURVE ( 'NONE', #358, #60, #704, .T. ) ;
#574 = VECTOR ( 'NONE', #575, 1000.000000000000000 ) ;
#575 = DIRECTION ( 'NONE',  ( 1.000000000000000000, 0.0000000000000000000, 0.0000000000000000000 ) ) ;
#576 = VERTEX_POINT ( 'NONE', #1028 ) ;
#577 = CARTESIAN_POINT ( 'NONE',  ( -5.359999999999999432, -3.700000000000000178, -2.000000000000000000 ) ) ;
#578 = ADVANCED_FACE ( 'NONE', ( #1034 ), #190, .F. ) ;
#579 = CARTESIAN_POINT ( 'NONE',  ( 7.839999999999998082, -3.700000000000000178, -1.749999999999999778 ) ) ;
#580 = VECTOR ( 'NONE', #786, 1000.000000000000000 ) ;
#581 = CARTESIAN_POINT ( 'NONE',  ( -5.359999999999999432, -3.700000000000000178, -1.749999999999999778 ) ) ;
#582 = APPLICATION_CONTEXT ( 'configuration controlled 3d designs of mechanical parts and assemblies' ) ;
#583 = VERTEX_POINT ( 'NONE', #529 ) ;
#584 = VERTEX_POINT ( 'NONE', #128 ) ;
#585 = VECTOR ( 'NONE', #104, 1000.000000000000000 ) ;
#586 = DIRECTION ( 'NONE',  ( -0.0000000000000000000, 0.0000000000000000000, 1.000000000000000000 ) ) ;
#587 = CARTESIAN_POINT ( 'NONE',  ( -7.400000000000000355, 0.0000000000000000000, -1.749999999999999778 ) ) ;
#588 = ORIENTED_EDGE ( 'NONE', *, *, #493, .F. ) ;
#589 = EDGE_CURVE ( 'NONE', #684, #387, #949, .T. ) ;
#590 = EDGE_LOOP ( 'NONE', ( #1078, #1018, #3, #266 ) ) ;
#591 = CARTESIAN_POINT ( 'NONE',  ( -9.250000000000001776, 0.0000000000000000000, 3.049999999999999822 ) ) ;
#592 = CARTESIAN_POINT ( 'NONE',  ( 2.759999999999999343, -3.700000000000000178, -2.000000000000000000 ) ) ;
#593 = EDGE_CURVE ( 'NONE', #583, #483, #784, .T. ) ;
#594 = ORIENTED_EDGE ( 'NONE', *, *, #131, .F. ) ;
#595 = VECTOR ( 'NONE', #534, 1000.000000000000000 ) ;
#596 = ORIENTED_EDGE ( 'NONE', *, *, #151, .T. ) ;
#597 = EDGE_CURVE ( 'NONE', #250, #752, #874, .T. ) ;
#598 = CARTESIAN_POINT ( 'NONE',  ( -9.750000000000000000, 9.700000000000001066, -3.049999999999999822 ) ) ;
#599 = CARTESIAN_POINT ( 'NONE',  ( -9.750000000000000000, 0.0000000000000000000, 3.049999999999999822 ) ) ;
#600 = EDGE_LOOP ( 'NONE', ( #251, #87, #872, #801 ) ) ;
#601 = VECTOR ( 'NONE', #526, 1000.000000000000000 ) ;
#602 = EDGE_LOOP ( 'NONE', ( #687, #914, #769, #177 ) ) ;
#603 = AXIS2_PLACEMENT_3D ( 'NONE', #280, #699, #1023 ) ;
#604 = LINE ( 'NONE', #840, #693 ) ;
#605 = CARTESIAN_POINT ( 'NONE',  ( 4.800000000000000711, -3.700000000000000178, -2.000000000000000000 ) ) ;
#606 = CARTESIAN_POINT ( 'NONE',  ( 5.299999999999999822, -3.700000000000000178, -2.000000000000000000 ) ) ;
#607 = EDGE_LOOP ( 'NONE', ( #109, #470, #420, #90 ) ) ;
#608 = APPROVAL ( #384, 'UNSPECIFIED' ) ;
#609 = DIRECTION ( 'NONE',  ( -1.000000000000000000, 0.0000000000000000000, 6.938893903907222067E-15 ) ) ;
#610 = FACE_OUTER_BOUND ( 'NONE', #600, .T. ) ;
#611 = EDGE_CURVE ( 'NONE', #631, #349, #793, .T. ) ;
#612 = EDGE_LOOP ( 'NONE', ( #122, #148, #170, #748 ) ) ;
#613 = VECTOR ( 'NONE', #116, 1000.000000000000000 ) ;
#614 = ORIENTED_EDGE ( 'NONE', *, *, #120, .T. ) ;
#615 = PLANE ( 'NONE',  #370 ) ;
#616 = EDGE_CURVE ( 'NONE', #285, #432, #636, .T. ) ;
#617 = CARTESIAN_POINT ( 'NONE',  ( 4.800000000000000711, -3.700000000000000178, -1.749999999999999778 ) ) ;
#618 = CARTESIAN_POINT ( 'NONE',  ( 7.339999999999998970, -3.700000000000000178, -1.749999999999999778 ) ) ;
#619 = EDGE_LOOP ( 'NONE', ( #127, #962, #816, #92 ) ) ;
#620 = ADVANCED_BREP_SHAPE_REPRESENTATION ( 'TMV Dual Output 5+12VIN', ( #180, #1045 ), #274 ) ;
#621 = VECTOR ( 'NONE', #221, 1000.000000000000000 ) ;
#622 = LINE ( 'NONE', #118, #301 ) ;
#623 = PLANE ( 'NONE',  #720 ) ;
#624 = CARTESIAN_POINT ( 'NONE',  ( -4.860000000000000320, -3.700000000000000178, -1.749999999999999778 ) ) ;
#625 = ORIENTED_EDGE ( 'NONE', *, *, #1071, .F. ) ;
#626 = EDGE_CURVE ( 'NONE', #805, #576, #201, .T. ) ;
#627 = DIRECTION ( 'NONE',  ( -1.000000000000000000, -0.0000000000000000000, -0.0000000000000000000 ) ) ;
#628 = DATE_TIME_ROLE ( 'classification_date' ) ;
#629 = DIRECTION ( 'NONE',  ( -0.0000000000000000000, 1.000000000000000000, -0.0000000000000000000 ) ) ;
#630 = PRODUCT_RELATED_PRODUCT_CATEGORY ( 'detail', '', ( #330 ) ) ;
#631 = VERTEX_POINT ( 'NONE', #892 ) ;
#632 = VECTOR ( 'NONE', #19, 1000.000000000000000 ) ;
#633 = DIRECTION ( 'NONE',  ( 1.000000000000000000, 0.0000000000000000000, 0.0000000000000000000 ) ) ;
#634 = LINE ( 'NONE', #385, #562 ) ;
#635 = EDGE_LOOP ( 'NONE', ( #843, #172, #103, #294 ) ) ;
#636 = LINE ( 'NONE', #286, #659 ) ;
#637 = DIRECTION ( 'NONE',  ( 0.0000000000000000000, 0.0000000000000000000, 1.000000000000000000 ) ) ;
#638 = LINE ( 'NONE', #1041, #946 ) ;
#639 = VECTOR ( 'NONE', #174, 1000.000000000000000 ) ;
#640 = ORIENTED_EDGE ( 'NONE', *, *, #744, .T. ) ;
#641 = DIRECTION ( 'NONE',  ( -0.0000000000000000000, 1.000000000000000000, -0.0000000000000000000 ) ) ;
#642 =( NAMED_UNIT ( * ) SI_UNIT ( $, .STERADIAN. ) SOLID_ANGLE_UNIT ( ) );
#643 = CARTESIAN_POINT ( 'NONE',  ( -4.860000000000000320, 0.0000000000000000000, -1.749999999999999778 ) ) ;
#644 = ADVANCED_FACE ( 'NONE', ( #227 ), #478, .F. ) ;
#645 = ORIENTED_EDGE ( 'NONE', *, *, #443, .F. ) ;
#646 = CARTESIAN_POINT ( 'NONE',  ( 4.800000000000000711, 0.0000000000000000000, -1.749999999999999778 ) ) ;
#647 = AXIS2_PLACEMENT_3D ( 'NONE', #321, #406, #751 ) ;
#648 = DIRECTION ( 'NONE',  ( 1.000000000000000000, 0.0000000000000000000, 0.0000000000000000000 ) ) ;
#649 = DIRECTION ( 'NONE',  ( 0.0000000000000000000, 0.0000000000000000000, -1.000000000000000000 ) ) ;
#650 = LINE ( 'NONE', #673, #1008 ) ;
#651 = EDGE_LOOP ( 'NONE', ( #326, #271, #278, #354 ) ) ;
#652 = UNCERTAINTY_MEASURE_WITH_UNIT (LENGTH_MEASURE( 1.000000000000000082E-05 ), #893, 'distance_accuracy_value', 'NONE');
#653 = DIRECTION ( 'NONE',  ( 1.000000000000000000, 0.0000000000000000000, 0.0000000000000000000 ) ) ;
#654 = DIRECTION ( 'NONE',  ( 1.000000000000000000, 0.0000000000000000000, 0.0000000000000000000 ) ) ;
#655 = VECTOR ( 'NONE', #818, 1000.000000000000000 ) ;
#656 = LINE ( 'NONE', #222, #538 ) ;
#657 = EDGE_CURVE ( 'NONE', #1016, #691, #1068, .T. ) ;
#658 = VERTEX_POINT ( 'NONE', #67 ) ;
#659 = VECTOR ( 'NONE', #627, 1000.000000000000000 ) ;
#660 = EDGE_CURVE ( 'NONE', #752, #509, #813, .T. ) ;
#661 = LINE ( 'NONE', #55, #244 ) ;
#662 = CARTESIAN_POINT ( 'NONE',  ( -7.400000000000000355, -3.700000000000000178, -1.749999999999999778 ) ) ;
#663 = LINE ( 'NONE', #401, #65 ) ;
#664 = ORIENTED_EDGE ( 'NONE', *, *, #873, .F. ) ;
#665 = EDGE_CURVE ( 'NONE', #427, #289, #399, .T. ) ;
#666 = DIRECTION ( 'NONE',  ( 0.0000000000000000000, 0.0000000000000000000, -1.000000000000000000 ) ) ;
#667 = EDGE_CURVE ( 'NONE', #887, #252, #219, .T. ) ;
#668 = LINE ( 'NONE', #985, #977 ) ;
#669 = DIRECTION ( 'NONE',  ( 1.000000000000000000, 0.0000000000000000000, 0.0000000000000000000 ) ) ;
#670 = ORIENTED_EDGE ( 'NONE', *, *, #56, .F. ) ;
#671 = ORIENTED_EDGE ( 'NONE', *, *, #195, .T. ) ;
#672 = DIRECTION ( 'NONE',  ( 2.843808977011158816E-16, -0.0000000000000000000, -1.000000000000000000 ) ) ;
#673 = CARTESIAN_POINT ( 'NONE',  ( -7.899999999999999467, 0.0000000000000000000, -2.000000000000000000 ) ) ;
#674 = ORIENTED_EDGE ( 'NONE', *, *, #151, .F. ) ;
#675 = ORIENTED_EDGE ( 'NONE', *, *, #1046, .F. ) ;
#676 = DIRECTION ( 'NONE',  ( 0.0000000000000000000, -1.000000000000000000, 0.0000000000000000000 ) ) ;
#677 = CC_DESIGN_DATE_AND_TIME_ASSIGNMENT ( #373, #552, ( #69 ) ) ;
#678 = CARTESIAN_POINT ( 'NONE',  ( 9.250000000000001776, -0.5000000000000000000, -3.049999999999998046 ) ) ;
#679 = VERTEX_POINT ( 'NONE', #555 ) ;
#680 = ADVANCED_FACE ( 'NONE', ( #319 ), #560, .F. ) ;
#681 = VERTEX_POINT ( 'NONE', #646 ) ;
#682 = DIRECTION ( 'NONE',  ( -1.000000000000000000, -0.0000000000000000000, -0.0000000000000000000 ) ) ;
#683 = LINE ( 'NONE', #617, #595 ) ;
#684 = VERTEX_POINT ( 'NONE', #902 ) ;
#685 = ORIENTED_EDGE ( 'NONE', *, *, #944, .F. ) ;
#686 = VECTOR ( 'NONE', #306, 1000.000000000000000 ) ;
#687 = ORIENTED_EDGE ( 'NONE', *, *, #541, .T. ) ;
#688 = CARTESIAN_POINT ( 'NONE',  ( 7.839999999999998082, -3.700000000000000178, -1.749999999999999778 ) ) ;
#689 = FACE_OUTER_BOUND ( 'NONE', #651, .T. ) ;
#690 = ORIENTED_EDGE ( 'NONE', *, *, #302, .F. ) ;
#691 = VERTEX_POINT ( 'NONE', #323 ) ;
#692 = EDGE_CURVE ( 'NONE', #1003, #238, #661, .T. ) ;
#693 = VECTOR ( 'NONE', #163, 1000.000000000000000 ) ;
#694 = CARTESIAN_POINT ( 'NONE',  ( -7.399999999999999467, -3.700000000000000178, -2.000000000000000000 ) ) ;
#695 = DIRECTION ( 'NONE',  ( -3.469446951953611033E-15, -0.0000000000000000000, 1.000000000000000000 ) ) ;
#696 = FACE_OUTER_BOUND ( 'NONE', #855, .T. ) ;
#697 = ORIENTED_EDGE ( 'NONE', *, *, #445, .F. ) ;
#698 = EDGE_CURVE ( 'NONE', #230, #289, #990, .T. ) ;
#699 = DIRECTION ( 'NONE',  ( -1.000000000000000000, 0.0000000000000000000, -3.469446951953611033E-15 ) ) ;
#700 = DIRECTION ( 'NONE',  ( 0.0000000000000000000, -0.0000000000000000000, -1.000000000000000000 ) ) ;
#701 = VERTEX_POINT ( 'NONE', #749 ) ;
#702 = AXIS2_PLACEMENT_3D ( 'NONE', #830, #137, #59 ) ;
#703 = ORIENTED_EDGE ( 'NONE', *, *, #443, .T. ) ;
#704 = LINE ( 'NONE', #446, #764 ) ;
#705 = LINE ( 'NONE', #605, #632 ) ;
#706 = DIRECTION ( 'NONE',  ( -1.000000000000000000, -0.0000000000000000000, -0.0000000000000000000 ) ) ;
#707 = EDGE_CURVE ( 'NONE', #492, #398, #822, .T. ) ;
#708 = VERTEX_POINT ( 'NONE', #571 ) ;
#709 = AXIS2_PLACEMENT_3D ( 'NONE', #452, #374, #299 ) ;
#710 = DIRECTION ( 'NONE',  ( 0.0000000000000000000, -1.000000000000000000, 0.0000000000000000000 ) ) ;
#711 = VECTOR ( 'NONE', #682, 1000.000000000000000 ) ;
#712 = CC_DESIGN_DATE_AND_TIME_ASSIGNMENT ( #799, #628, ( #327 ) ) ;
#713 = PERSON_AND_ORGANIZATION_ROLE ( 'design_supplier' ) ;
#714 = CARTESIAN_POINT ( 'NONE',  ( 0.0000000000000000000, 0.0000000000000000000, 0.0000000000000000000 ) ) ;
#715 = ORIENTED_EDGE ( 'NONE', *, *, #295, .F. ) ;
#716 = DIRECTION ( 'NONE',  ( 0.0000000000000000000, -0.0000000000000000000, 1.000000000000000000 ) ) ;
#717 = APPROVAL_ROLE ( '' ) ;
#718 = DIRECTION ( 'NONE',  ( -1.000000000000000000, -0.0000000000000000000, -0.0000000000000000000 ) ) ;
#719 = ORIENTED_EDGE ( 'NONE', *, *, #559, .F. ) ;
#720 = AXIS2_PLACEMENT_3D ( 'NONE', #356, #95, #700 ) ;
#721 = DIRECTION ( 'NONE',  ( -1.000000000000000000, -0.0000000000000000000, -0.0000000000000000000 ) ) ;
#722 = DIRECTION ( 'NONE',  ( -0.0000000000000000000, 1.000000000000000000, -0.0000000000000000000 ) ) ;
#723 = ORIENTED_EDGE ( 'NONE', *, *, #993, .F. ) ;
#724 = VECTOR ( 'NONE', #203, 1000.000000000000000 ) ;
#725 = DIRECTION ( 'NONE',  ( -3.469446951953611033E-15, -0.0000000000000000000, 1.000000000000000000 ) ) ;
#726 = EDGE_CURVE ( 'NONE', #387, #861, #489, .T. ) ;
#727 = CARTESIAN_POINT ( 'NONE',  ( 7.339999999999998970, -3.700000000000000178, -2.000000000000000000 ) ) ;
#728 = AXIS2_PLACEMENT_3D ( 'NONE', #335, #676, #1002 ) ;
#729 = EDGE_LOOP ( 'NONE', ( #849, #1000, #703, #1032 ) ) ;
#730 = DIRECTION ( 'NONE',  ( 1.000000000000000000, 0.0000000000000000000, 0.0000000000000000000 ) ) ;
#731 = PERSON_AND_ORGANIZATION ( #273, #397 ) ;
#732 = DIRECTION ( 'NONE',  ( -1.000000000000000000, 0.0000000000000000000, -6.938893903907222067E-15 ) ) ;
#733 = LINE ( 'NONE', #1076, #823 ) ;
#734 = ORIENTED_EDGE ( 'NONE', *, *, #391, .F. ) ;
#735 = DIRECTION ( 'NONE',  ( 0.0000000000000000000, 0.0000000000000000000, -1.000000000000000000 ) ) ;
#736 = VECTOR ( 'NONE', #515, 1000.000000000000000 ) ;
#737 = CARTESIAN_POINT ( 'NONE',  ( -5.359999999999999432, -3.700000000000000178, -1.749999999999999778 ) ) ;
#738 = DIRECTION ( 'NONE',  ( -0.0000000000000000000, -1.000000000000000000, -0.0000000000000000000 ) ) ;
#739 = EDGE_LOOP ( 'NONE', ( #48, #675, #968, #305 ) ) ;
#740 = EDGE_CURVE ( 'NONE', #987, #408, #828, .T. ) ;
#741 = CARTESIAN_POINT ( 'NONE',  ( 7.339999999999998970, -3.700000000000000178, -2.000000000000000000 ) ) ;
#742 = LINE ( 'NONE', #308, #621 ) ;
#743 = VECTOR ( 'NONE', #876, 1000.000000000000000 ) ;
#744 = EDGE_CURVE ( 'NONE', #39, #408, #313, .T. ) ;
#745 = CARTESIAN_POINT ( 'NONE',  ( -9.250000000000000000, -0.5000000000000000000, -3.049999999999999822 ) ) ;
#746 = VECTOR ( 'NONE', #883, 1000.000000000000000 ) ;
#747 = EDGE_CURVE ( 'NONE', #679, #920, #140, .T. ) ;
#748 = ORIENTED_EDGE ( 'NONE', *, *, #761, .T. ) ;
#749 = CARTESIAN_POINT ( 'NONE',  ( -7.400000000000000355, -3.700000000000000178, -1.749999999999999778 ) ) ;
#750 = CARTESIAN_POINT ( 'NONE',  ( 7.839999999999998082, -3.700000000000000178, -1.749999999999999778 ) ) ;
#751 = DIRECTION ( 'NONE',  ( 0.0000000000000000000, 0.0000000000000000000, -1.000000000000000000 ) ) ;
#752 = VERTEX_POINT ( 'NONE', #577 ) ;
#753 = EDGE_LOOP ( 'NONE', ( #426, #218, #81, #982 ) ) ;
#754 = FACE_OUTER_BOUND ( 'NONE', #937, .T. ) ;
#755 = CARTESIAN_POINT ( 'NONE',  ( 9.750000000000000000, -0.5000000000000000000, -3.049999999999999822 ) ) ;
#756 = LINE ( 'NONE', #1, #217 ) ;
#757 = CC_DESIGN_APPROVAL ( #608, ( #69 ) ) ;
#758 = ORIENTED_EDGE ( 'NONE', *, *, #462, .F. ) ;
#759 = VERTEX_POINT ( 'NONE', #911 ) ;
#760 = CARTESIAN_POINT ( 'NONE',  ( 7.839999999999999858, -3.700000000000000178, -2.000000000000000000 ) ) ;
#761 = EDGE_CURVE ( 'NONE', #250, #1003, #467, .T. ) ;
#762 = AXIS2_PLACEMENT_3D ( 'NONE', #737, #649, #974 ) ;
#763 = PLANE ( 'NONE',  #281 ) ;
#764 = VECTOR ( 'NONE', #633, 1000.000000000000000 ) ;
#765 = EDGE_LOOP ( 'NONE', ( #12, #1013, #17, #664 ) ) ;
#766 = CARTESIAN_POINT ( 'NONE',  ( -4.860000000000000320, -3.700000000000000178, -1.749999999999999778 ) ) ;
#767 = ORIENTED_EDGE ( 'NONE', *, *, #839, .T. ) ;
#768 = ORIENTED_EDGE ( 'NONE', *, *, #616, .F. ) ;
#769 = ORIENTED_EDGE ( 'NONE', *, *, #660, .F. ) ;
#770 = CARTESIAN_POINT ( 'NONE',  ( 5.299999999999998934, 0.0000000000000000000, -1.749999999999999778 ) ) ;
#771 = CC_DESIGN_PERSON_AND_ORGANIZATION_ASSIGNMENT ( #879, #298, ( #327 ) ) ;
#772 = PLANE ( 'NONE',  #906 ) ;
#773 = ORIENTED_EDGE ( 'NONE', *, *, #1059, .F. ) ;
#774 = AXIS2_PLACEMENT_3D ( 'NONE', #282, #1020, #270 ) ;
#775 = EDGE_CURVE ( 'NONE', #492, #701, #50, .T. ) ;
#776 = ORIENTED_EDGE ( 'NONE', *, *, #761, .F. ) ;
#777 = CARTESIAN_POINT ( 'NONE',  ( -9.750000000000000000, -0.5000000000000000000, -3.049999999999999822 ) ) ;
#778 = DIRECTION ( 'NONE',  ( -1.000000000000000000, 0.0000000000000000000, -3.469446951953611033E-15 ) ) ;
#779 = VERTEX_POINT ( 'NONE', #1051 ) ;
#780 = EDGE_CURVE ( 'NONE', #448, #681, #969, .T. ) ;
#781 = VECTOR ( 'NONE', #497, 1000.000000000000000 ) ;
#782 = ORIENTED_EDGE ( 'NONE', *, *, #825, .F. ) ;
#783 = AXIS2_PLACEMENT_3D ( 'NONE', #439, #1047, #716 ) ;
#784 = LINE ( 'NONE', #533, #746 ) ;
#785 = FACE_OUTER_BOUND ( 'NONE', #365, .T. ) ;
#786 = DIRECTION ( 'NONE',  ( -0.0000000000000000000, 1.000000000000000000, -0.0000000000000000000 ) ) ;
#787 = ORIENTED_EDGE ( 'NONE', *, *, #947, .F. ) ;
#788 = CARTESIAN_POINT ( 'NONE',  ( 0.0000000000000000000, -3.700000000000000178, 0.0000000000000000000 ) ) ;
#789 = CARTESIAN_POINT ( 'NONE',  ( 5.299999999999998934, -3.700000000000000178, -1.749999999999999778 ) ) ;
#790 = LINE ( 'NONE', #548, #812 ) ;
#791 = VECTOR ( 'NONE', #61, 1000.000000000000000 ) ;
#792 = VERTEX_POINT ( 'NONE', #1063 ) ;
#793 = LINE ( 'NONE', #377, #459 ) ;
#794 = CARTESIAN_POINT ( 'NONE',  ( -9.250000000000000000, -0.5000000000000000000, -3.049999999999999822 ) ) ;
#795 = PLANE ( 'NONE',  #1067 ) ;
#796 = ORIENTED_EDGE ( 'NONE', *, *, #545, .T. ) ;
#797 = VECTOR ( 'NONE', #101, 1000.000000000000000 ) ;
#798 = CARTESIAN_POINT ( 'NONE',  ( 7.339999999999998970, 0.0000000000000000000, -2.000000000000000000 ) ) ;
#799 = DATE_AND_TIME ( #287, #380 ) ;
#800 = DIRECTION ( 'NONE',  ( 0.0000000000000000000, 0.0000000000000000000, -1.000000000000000000 ) ) ;
#801 = ORIENTED_EDGE ( 'NONE', *, *, #247, .T. ) ;
#802 = PLANE ( 'NONE',  #832 ) ;
#803 = APPROVAL_STATUS ( 'not_yet_approved' ) ;
#804 = FACE_OUTER_BOUND ( 'NONE', #1022, .T. ) ;
#805 = VERTEX_POINT ( 'NONE', #834 ) ;
#806 = ADVANCED_FACE ( 'NONE', ( #754 ), #78, .F. ) ;
#807 = CARTESIAN_POINT ( 'NONE',  ( -5.359999999999999432, -3.700000000000000178, -1.749999999999999778 ) ) ;
#808 = CC_DESIGN_SECURITY_CLASSIFICATION ( #327, ( #417 ) ) ;
#809 = PERSON_AND_ORGANIZATION ( #273, #397 ) ;
#810 = LINE ( 'NONE', #31, #865 ) ;
#811 = ORIENTED_EDGE ( 'NONE', *, *, #667, .T. ) ;
#812 = VECTOR ( 'NONE', #198, 1000.000000000000000 ) ;
#813 = LINE ( 'NONE', #978, #1033 ) ;
#814 = APPROVAL_DATE_TIME ( #368, #608 ) ;
#815 = DIRECTION ( 'NONE',  ( 1.000000000000000000, 0.0000000000000000000, 0.0000000000000000000 ) ) ;
#816 = ORIENTED_EDGE ( 'NONE', *, *, #381, .F. ) ;
#817 = CARTESIAN_POINT ( 'NONE',  ( 4.800000000000000711, -3.700000000000000178, -1.749999999999999778 ) ) ;
#818 = DIRECTION ( 'NONE',  ( -3.469446951953611033E-15, -0.0000000000000000000, 1.000000000000000000 ) ) ;
#819 = ADVANCED_FACE ( 'NONE', ( #826 ), #392, .F. ) ;
#820 = CARTESIAN_POINT ( 'NONE',  ( -9.250000000000001776, 0.0000000000000000000, 3.049999999999999822 ) ) ;
#821 = ORIENTED_EDGE ( 'NONE', *, *, #167, .F. ) ;
#822 = LINE ( 'NONE', #232, #91 ) ;
#823 = VECTOR ( 'NONE', #325, 1000.000000000000000 ) ;
#824 = DIRECTION ( 'NONE',  ( 1.000000000000000000, 0.0000000000000000000, 0.0000000000000000000 ) ) ;
#825 = EDGE_CURVE ( 'NONE', #679, #162, #733, .T. ) ;
#826 = FACE_OUTER_BOUND ( 'NONE', #466, .T. ) ;
#827 = ORIENTED_EDGE ( 'NONE', *, *, #167, .T. ) ;
#828 = LINE ( 'NONE', #71, #1043 ) ;
#829 = PLANE ( 'NONE',  #510 ) ;
#830 = CARTESIAN_POINT ( 'NONE',  ( 2.759999999999998455, -3.700000000000000178, -1.749999999999999778 ) ) ;
#831 = ORIENTED_EDGE ( 'NONE', *, *, #21, .F. ) ;
#832 = AXIS2_PLACEMENT_3D ( 'NONE', #114, #29, #959 ) ;
#833 = ORIENTED_EDGE ( 'NONE', *, *, #853, .F. ) ;
#834 = CARTESIAN_POINT ( 'NONE',  ( 7.839999999999998082, 0.0000000000000000000, -1.749999999999999778 ) ) ;
#835 = FACE_OUTER_BOUND ( 'NONE', #1001, .T. ) ;
#836 = DIRECTION ( 'NONE',  ( -1.000000000000000000, -0.0000000000000000000, -0.0000000000000000000 ) ) ;
#837 = ORIENTED_EDGE ( 'NONE', *, *, #589, .T. ) ;
#838 = ORIENTED_EDGE ( 'NONE', *, *, #376, .T. ) ;
#839 = EDGE_CURVE ( 'NONE', #847, #398, #650, .T. ) ;
#840 = CARTESIAN_POINT ( 'NONE',  ( -9.750000000000000000, 9.700000000000001066, 3.049999999999999822 ) ) ;
#841 = VECTOR ( 'NONE', #695, 1000.000000000000000 ) ;
#842 = LINE ( 'NONE', #353, #882 ) ;
#843 = ORIENTED_EDGE ( 'NONE', *, *, #873, .T. ) ;
#844 = VERTEX_POINT ( 'NONE', #908 ) ;
#845 = CARTESIAN_POINT ( 'NONE',  ( 7.339999999999998970, -3.700000000000000178, -1.749999999999999778 ) ) ;
#846 = FACE_OUTER_BOUND ( 'NONE', #739, .T. ) ;
#847 = VERTEX_POINT ( 'NONE', #154 ) ;
#848 = VECTOR ( 'NONE', #672, 1000.000000000000000 ) ;
#849 = ORIENTED_EDGE ( 'NONE', *, *, #597, .T. ) ;
#850 = CC_DESIGN_PERSON_AND_ORGANIZATION_ASSIGNMENT ( #51, #898, ( #330 ) ) ;
#851 = CARTESIAN_POINT ( 'NONE',  ( 2.259999999999999787, -3.700000000000000178, -2.000000000000000000 ) ) ;
#852 = DIRECTION ( 'NONE',  ( -1.000000000000000000, 0.0000000000000000000, 0.0000000000000000000 ) ) ;
#853 = EDGE_CURVE ( 'NONE', #576, #414, #656, .T. ) ;
#854 = DIRECTION ( 'NONE',  ( -0.0000000000000000000, 1.000000000000000000, -0.0000000000000000000 ) ) ;
#855 = EDGE_LOOP ( 'NONE', ( #1049, #758, #919, #671 ) ) ;
#856 = LINE ( 'NONE', #338, #209 ) ;
#857 = EDGE_CURVE ( 'NONE', #1004, #584, #1060, .T. ) ;
#858 = LINE ( 'NONE', #1009, #613 ) ;
#859 = LINE ( 'NONE', #1021, #797 ) ;
#860 = CC_DESIGN_APPROVAL ( #178, ( #417 ) ) ;
#861 = VERTEX_POINT ( 'NONE', #245 ) ;
#862 = PLANE ( 'NONE',  #783 ) ;
#863 = LINE ( 'NONE', #186, #841 ) ;
#864 = LINE ( 'NONE', #419, #580 ) ;
#865 = VECTOR ( 'NONE', #955, 1000.000000000000000 ) ;
#866 = APPLICATION_CONTEXT ( 'configuration controlled 3d designs of mechanical parts and assemblies' ) ;
#867 = VERTEX_POINT ( 'NONE', #745 ) ;
#868 = VECTOR ( 'NONE', #609, 1000.000000000000000 ) ;
#869 = FACE_OUTER_BOUND ( 'NONE', #516, .T. ) ;
#870 = LINE ( 'NONE', #794, #956 ) ;
#871 = CARTESIAN_POINT ( 'NONE',  ( 2.759999999999998455, -3.700000000000000178, -1.749999999999999778 ) ) ;
#872 = ORIENTED_EDGE ( 'NONE', *, *, #927, .F. ) ;
#873 = EDGE_CURVE ( 'NONE', #759, #658, #999, .T. ) ;
#874 = LINE ( 'NONE', #46, #442 ) ;
#875 = DIRECTION ( 'NONE',  ( 0.0000000000000000000, -1.000000000000000000, -0.0000000000000000000 ) ) ;
#876 = DIRECTION ( 'NONE',  ( -3.469446951953611033E-15, -0.0000000000000000000, 1.000000000000000000 ) ) ;
#877 = ORIENTED_EDGE ( 'NONE', *, *, #775, .T. ) ;
#878 = CARTESIAN_POINT ( 'NONE',  ( -5.359999999999999432, 0.0000000000000000000, -2.000000000000000000 ) ) ;
#879 = PERSON_AND_ORGANIZATION ( #273, #397 ) ;
#880 = DIRECTION ( 'NONE',  ( -0.0000000000000000000, -1.000000000000000000, -0.0000000000000000000 ) ) ;
#881 = ORIENTED_EDGE ( 'NONE', *, *, #477, .F. ) ;
#882 = VECTOR ( 'NONE', #85, 1000.000000000000000 ) ;
#883 = DIRECTION ( 'NONE',  ( 0.0000000000000000000, 0.0000000000000000000, -1.000000000000000000 ) ) ;
#884 = AXIS2_PLACEMENT_3D ( 'NONE', #566, #150, #471 ) ;
#885 = CARTESIAN_POINT ( 'NONE',  ( -5.359999999999999432, 0.0000000000000000000, -2.000000000000000000 ) ) ;
#886 = ADVANCED_FACE ( 'NONE', ( #241 ), #491, .F. ) ;
#887 = VERTEX_POINT ( 'NONE', #913 ) ;
#888 = LINE ( 'NONE', #798, #226 ) ;
#889 = ADVANCED_FACE ( 'NONE', ( #413 ), #1070, .T. ) ;
#890 = PLANE ( 'NONE',  #88 ) ;
#891 = ORIENTED_EDGE ( 'NONE', *, *, #1042, .F. ) ;
#892 = CARTESIAN_POINT ( 'NONE',  ( 9.250000000000000000, -0.5000000000000000000, 3.050000000000003375 ) ) ;
#893 =( LENGTH_UNIT ( ) NAMED_UNIT ( * ) SI_UNIT ( .MILLI., .METRE. ) );
#894 = CARTESIAN_POINT ( 'NONE',  ( 4.800000000000000711, 0.0000000000000000000, -1.749999999999999778 ) ) ;
#895 = ORIENTED_EDGE ( 'NONE', *, *, #744, .F. ) ;
#896 = ADVANCED_FACE ( 'NONE', ( #310 ), #568, .F. ) ;
#897 = CARTESIAN_POINT ( 'NONE',  ( 5.299999999999998934, 0.0000000000000000000, -1.749999999999999778 ) ) ;
#898 = PERSON_AND_ORGANIZATION_ROLE ( 'design_owner' ) ;
#899 = DIRECTION ( 'NONE',  ( 0.0000000000000000000, 0.0000000000000000000, -1.000000000000000000 ) ) ;
#900 = LINE ( 'NONE', #142, #574 ) ;
#901 = ORIENTED_EDGE ( 'NONE', *, *, #348, .T. ) ;
#902 = CARTESIAN_POINT ( 'NONE',  ( 2.759999999999998455, 0.0000000000000000000, -1.749999999999999778 ) ) ;
#903 = CARTESIAN_POINT ( 'NONE',  ( 2.759999999999998455, -3.700000000000000178, -1.749999999999999778 ) ) ;
#904 = DIRECTION ( 'NONE',  ( 0.0000000000000000000, 0.0000000000000000000, 1.000000000000000000 ) ) ;
#905 = CARTESIAN_POINT ( 'NONE',  ( 2.259999999999999787, 0.0000000000000000000, -1.749999999999999778 ) ) ;
#906 = AXIS2_PLACEMENT_3D ( 'NONE', #940, #15, #525 ) ;
#907 = DIRECTION ( 'NONE',  ( 1.000000000000000000, 0.0000000000000000000, 0.0000000000000000000 ) ) ;
#908 = CARTESIAN_POINT ( 'NONE',  ( 2.259999999999999787, -3.700000000000000178, -2.000000000000000000 ) ) ;
#909 = ORIENTED_EDGE ( 'NONE', *, *, #626, .T. ) ;
#910 = ORIENTED_EDGE ( 'NONE', *, *, #665, .T. ) ;
#911 = CARTESIAN_POINT ( 'NONE',  ( -9.750000000000000000, 9.700000000000001066, -3.049999999999999822 ) ) ;
#912 = LINE ( 'NONE', #320, #474 ) ;
#913 = CARTESIAN_POINT ( 'NONE',  ( -4.860000000000000320, -3.700000000000000178, -1.749999999999999778 ) ) ;
#914 = ORIENTED_EDGE ( 'NONE', *, *, #407, .F. ) ;
#915 = EDGE_CURVE ( 'NONE', #189, #9, #1065, .T. ) ;
#916 = VECTOR ( 'NONE', #5, 1000.000000000000000 ) ;
#917 = VERTEX_POINT ( 'NONE', #587 ) ;
#918 = LINE ( 'NONE', #766, #965 ) ;
#919 = ORIENTED_EDGE ( 'NONE', *, *, #657, .F. ) ;
#920 = VERTEX_POINT ( 'NONE', #475 ) ;
#921 = EDGE_LOOP ( 'NONE', ( #272, #776, #511, #811 ) ) ;
#922 = DIRECTION ( 'NONE',  ( 0.0000000000000000000, 0.0000000000000000000, -1.000000000000000000 ) ) ;
#923 = VECTOR ( 'NONE', #738, 1000.000000000000000 ) ;
#924 = DIRECTION ( 'NONE',  ( -1.000000000000000000, -0.0000000000000000000, -0.0000000000000000000 ) ) ;
#925 = EDGE_LOOP ( 'NONE', ( #1066, #337, #877, #500 ) ) ;
#926 = ORIENTED_EDGE ( 'NONE', *, *, #269, .T. ) ;
#927 = EDGE_CURVE ( 'NONE', #701, #679, #756, .T. ) ;
#928 = CARTESIAN_POINT ( 'NONE',  ( -7.899999999999999467, 0.0000000000000000000, -1.749999999999999778 ) ) ;
#929 = CARTESIAN_POINT ( 'NONE',  ( -9.250000000000001776, -0.5000000000000000000, 3.049999999999999822 ) ) ;
#930 = DIRECTION ( 'NONE',  ( -1.000000000000000000, 0.0000000000000000000, -0.0000000000000000000 ) ) ;
#931 = VECTOR ( 'NONE', #922, 1000.000000000000000 ) ;
#932 = ORIENTED_EDGE ( 'NONE', *, *, #38, .F. ) ;
#933 = ADVANCED_FACE ( 'NONE', ( #563 ), #482, .T. ) ;
#934 = CARTESIAN_POINT ( 'NONE',  ( -4.860000000000000320, 0.0000000000000000000, -1.749999999999999778 ) ) ;
#935 = EDGE_CURVE ( 'NONE', #844, #27, #900, .T. ) ;
#936 = CARTESIAN_POINT ( 'NONE',  ( 9.750000000000000000, 9.700000000000001066, -3.049999999999999822 ) ) ;
#937 = EDGE_LOOP ( 'NONE', ( #1061, #773, #476, #550 ) ) ;
#938 = VERTEX_POINT ( 'NONE', #820 ) ;
#939 = DIRECTION ( 'NONE',  ( -3.469446951953611033E-15, -0.0000000000000000000, 1.000000000000000000 ) ) ;
#940 = CARTESIAN_POINT ( 'NONE',  ( -7.899999999999999467, -3.700000000000000178, -1.749999999999999778 ) ) ;
#941 = LINE ( 'NONE', #188, #421 ) ;
#942 = ORIENTED_EDGE ( 'NONE', *, *, #989, .T. ) ;
#943 = FACE_OUTER_BOUND ( 'NONE', #171, .T. ) ;
#944 = EDGE_CURVE ( 'NONE', #60, #39, #63, .T. ) ;
#945 = PLANE ( 'NONE',  #253 ) ;
#946 = VECTOR ( 'NONE', #880, 1000.000000000000000 ) ;
#947 = EDGE_CURVE ( 'NONE', #691, #285, #663, .T. ) ;
#948 = ORIENTED_EDGE ( 'NONE', *, *, #963, .F. ) ;
#949 = LINE ( 'NONE', #206, #1052 ) ;
#950 = LINE ( 'NONE', #346, #486 ) ;
#951 = PLANE ( 'NONE',  #709 ) ;
#952 = ORIENTED_EDGE ( 'NONE', *, *, #1005, .F. ) ;
#953 = CARTESIAN_POINT ( 'NONE',  ( -4.859999999999999432, -3.700000000000000178, -2.000000000000000000 ) ) ;
#954 = PERSON_AND_ORGANIZATION ( #273, #397 ) ;
#955 = DIRECTION ( 'NONE',  ( 0.0000000000000000000, 0.0000000000000000000, 1.000000000000000000 ) ) ;
#956 = VECTOR ( 'NONE', #111, 1000.000000000000000 ) ;
#957 = ORIENTED_EDGE ( 'NONE', *, *, #944, .T. ) ;
#958 = ADVANCED_FACE ( 'NONE', ( #519 ), #1024, .T. ) ;
#959 = DIRECTION ( 'NONE',  ( 2.843808977011158816E-16, 0.0000000000000000000, -1.000000000000000000 ) ) ;
#960 = ADVANCED_FACE ( 'NONE', ( #689 ), #623, .T. ) ;
#961 = APPROVAL_ROLE ( '' ) ;
#962 = ORIENTED_EDGE ( 'NONE', *, *, #99, .F. ) ;
#963 = EDGE_CURVE ( 'NONE', #987, #448, #683, .T. ) ;
#964 = LINE ( 'NONE', #878, #123 ) ;
#965 = VECTOR ( 'NONE', #939, 1000.000000000000000 ) ;
#966 = DATE_AND_TIME ( #291, #522 ) ;
#967 = LINE ( 'NONE', #207, #724 ) ;
#968 = ORIENTED_EDGE ( 'NONE', *, *, #376, .F. ) ;
#969 = LINE ( 'NONE', #817, #791 ) ;
#970 = DIRECTION ( 'NONE',  ( -0.0000000000000000000, 1.000000000000000000, -0.0000000000000000000 ) ) ;
#971 = VERTEX_POINT ( 'NONE', #929 ) ;
#972 = DIRECTION ( 'NONE',  ( -0.0000000000000000000, 1.000000000000000000, -0.0000000000000000000 ) ) ;
#973 = APPROVAL_ROLE ( '' ) ;
#974 = DIRECTION ( 'NONE',  ( -1.000000000000000000, 0.0000000000000000000, -0.0000000000000000000 ) ) ;
#975 = DIRECTION ( 'NONE',  ( -1.000000000000000000, -0.0000000000000000000, -0.0000000000000000000 ) ) ;
#976 = ORIENTED_EDGE ( 'NONE', *, *, #295, .T. ) ;
#977 = VECTOR ( 'NONE', #567, 1000.000000000000000 ) ;
#978 = CARTESIAN_POINT ( 'NONE',  ( -5.359999999999999432, -3.700000000000000178, -2.000000000000000000 ) ) ;
#979 = CARTESIAN_POINT ( 'NONE',  ( -5.359999999999999432, -3.700000000000000178, -2.000000000000000000 ) ) ;
#980 = VECTOR ( 'NONE', #249, 1000.000000000000000 ) ;
#981 = DIRECTION ( 'NONE',  ( 1.000000000000000000, 0.0000000000000000000, 0.0000000000000000000 ) ) ;
#982 = ORIENTED_EDGE ( 'NONE', *, *, #56, .T. ) ;
#983 = CARTESIAN_POINT ( 'NONE',  ( 9.250000000000001776, -0.5000000000000000000, -3.049999999999998046 ) ) ;
#984 = SHAPE_DEFINITION_REPRESENTATION ( #436, #620 ) ;
#985 = CARTESIAN_POINT ( 'NONE',  ( -7.899999999999999467, 0.0000000000000000000, -1.749999999999999778 ) ) ;
#986 = DIRECTION ( 'NONE',  ( -6.938893903907222067E-15, -0.0000000000000000000, 1.000000000000000000 ) ) ;
#987 = VERTEX_POINT ( 'NONE', #175 ) ;
#988 = EDGE_LOOP ( 'NONE', ( #838, #156, #45, #300 ) ) ;
#989 = EDGE_CURVE ( 'NONE', #448, #358, #451, .T. ) ;
#990 = LINE ( 'NONE', #983, #565 ) ;
#991 = PLANE ( 'NONE',  #762 ) ;
#992 = APPROVAL_PERSON_ORGANIZATION ( #809, #178, #961 ) ;
#993 = EDGE_CURVE ( 'NONE', #432, #576, #858, .T. ) ;
#994 = DIRECTION ( 'NONE',  ( 0.0000000000000000000, 0.0000000000000000000, -1.000000000000000000 ) ) ;
#995 = EDGE_LOOP ( 'NONE', ( #932, #416, #895, #322 ) ) ;
#996 = ORIENTED_EDGE ( 'NONE', *, *, #381, .T. ) ;
#997 = VECTOR ( 'NONE', #706, 1000.000000000000000 ) ;
#998 = LINE ( 'NONE', #928, #711 ) ;
#999 = LINE ( 'NONE', #331, #309 ) ;
#1000 = ORIENTED_EDGE ( 'NONE', *, *, #660, .T. ) ;
#1001 = EDGE_LOOP ( 'NONE', ( #501, #685, #64, #33 ) ) ;
#1002 = DIRECTION ( 'NONE',  ( 0.0000000000000000000, -0.0000000000000000000, -1.000000000000000000 ) ) ;
#1003 = VERTEX_POINT ( 'NONE', #26 ) ;
#1004 = VERTEX_POINT ( 'NONE', #276 ) ;
#1005 = EDGE_CURVE ( 'NONE', #259, #684, #863, .T. ) ;
#1006 = ORIENTED_EDGE ( 'NONE', *, *, #348, .F. ) ;
#1007 = LINE ( 'NONE', #433, #980 ) ;
#1008 = VECTOR ( 'NONE', #669, 1000.000000000000000 ) ;
#1009 = CARTESIAN_POINT ( 'NONE',  ( 7.339999999999998970, -3.700000000000000178, -1.749999999999999778 ) ) ;
#1010 = CARTESIAN_POINT ( 'NONE',  ( -5.359999999999999432, -3.700000000000000178, -1.749999999999999778 ) ) ;
#1011 = CC_DESIGN_PERSON_AND_ORGANIZATION_ASSIGNMENT ( #954, #480, ( #69 ) ) ;
#1012 = ORIENTED_EDGE ( 'NONE', *, *, #231, .T. ) ;
#1013 = ORIENTED_EDGE ( 'NONE', *, *, #593, .F. ) ;
#1014 = EDGE_CURVE ( 'NONE', #971, #938, #950, .T. ) ;
#1015 = LINE ( 'NONE', #934, #40 ) ;
#1016 = VERTEX_POINT ( 'NONE', #100 ) ;
#1017 = VECTOR ( 'NONE', #730, 1000.000000000000000 ) ;
#1018 = ORIENTED_EDGE ( 'NONE', *, *, #195, .F. ) ;
#1019 = LINE ( 'NONE', #845, #931 ) ;
#1020 = DIRECTION ( 'NONE',  ( 1.000000000000000000, 0.0000000000000000000, 0.0000000000000000000 ) ) ;
#1021 = CARTESIAN_POINT ( 'NONE',  ( -9.250000000000001776, -0.5000000000000000000, 3.049999999999999822 ) ) ;
#1022 = EDGE_LOOP ( 'NONE', ( #909, #723, #768, #77 ) ) ;
#1023 = DIRECTION ( 'NONE',  ( -3.469446951953611033E-15, 0.0000000000000000000, 1.000000000000000000 ) ) ;
#1024 = PLANE ( 'NONE',  #556 ) ;
#1025 = ADVANCED_FACE ( 'NONE', ( #785 ), #447, .F. ) ;
#1026 = ORIENTED_EDGE ( 'NONE', *, *, #107, .T. ) ;
#1027 = EDGE_LOOP ( 'NONE', ( #833, #182, #715, #53 ) ) ;
#1028 = CARTESIAN_POINT ( 'NONE',  ( 7.339999999999998970, 0.0000000000000000000, -1.749999999999999778 ) ) ;
#1029 = FACE_OUTER_BOUND ( 'NONE', #765, .T. ) ;
#1030 = CARTESIAN_POINT ( 'NONE',  ( -7.899999999999999467, -3.700000000000000178, -2.000000000000000000 ) ) ;
#1031 = AXIS2_PLACEMENT_3D ( 'NONE', #20, #347, #503 ) ;
#1032 = ORIENTED_EDGE ( 'NONE', *, *, #24, .T. ) ;
#1033 = VECTOR ( 'NONE', #653, 1000.000000000000000 ) ;
#1034 = FACE_OUTER_BOUND ( 'NONE', #988, .T. ) ;
#1035 = COORDINATED_UNIVERSAL_TIME_OFFSET ( 8, 0, .AHEAD. ) ;
#1036 = DIRECTION ( 'NONE',  ( -0.0000000000000000000, -0.0000000000000000000, -1.000000000000000000 ) ) ;
#1037 = ORIENTED_EDGE ( 'NONE', *, *, #185, .T. ) ;
#1038 = ADVANCED_FACE ( 'NONE', ( #434 ), #945, .F. ) ;
#1039 = DIRECTION ( 'NONE',  ( 0.0000000000000000000, 0.0000000000000000000, -1.000000000000000000 ) ) ;
#1040 = COORDINATED_UNIVERSAL_TIME_OFFSET ( 8, 0, .AHEAD. ) ;
#1041 = CARTESIAN_POINT ( 'NONE',  ( -9.750000000000000000, 9.700000000000001066, 3.049999999999999822 ) ) ;
#1042 = EDGE_CURVE ( 'NONE', #867, #792, #870, .T. ) ;
#1043 = VECTOR ( 'NONE', #1056, 1000.000000000000000 ) ;
#1044 = ORIENTED_EDGE ( 'NONE', *, *, #350, .F. ) ;
#1045 = AXIS2_PLACEMENT_3D ( 'NONE', #307, #637, #648 ) ;
#1046 = EDGE_CURVE ( 'NONE', #938, #349, #30, .T. ) ;
#1047 = DIRECTION ( 'NONE',  ( 0.0000000000000000000, 1.000000000000000000, 0.0000000000000000000 ) ) ;
#1048 = CARTESIAN_POINT ( 'NONE',  ( -9.750000000000000000, 0.0000000000000000000, -3.049999999999999822 ) ) ;
#1049 = ORIENTED_EDGE ( 'NONE', *, *, #514, .T. ) ;
#1050 = VECTOR ( 'NONE', #924, 1000.000000000000000 ) ;
#1051 = CARTESIAN_POINT ( 'NONE',  ( -4.859999999999999432, 0.0000000000000000000, -2.000000000000000000 ) ) ;
#1052 = VECTOR ( 'NONE', #546, 1000.000000000000000 ) ;
#1053 = APPLICATION_PROTOCOL_DEFINITION ( 'international standard', 'config_control_design', 1994, #582 ) ;
#1054 = DIRECTION ( 'NONE',  ( -3.469446951953611033E-15, 0.0000000000000000000, 1.000000000000000000 ) ) ;
#1055 = EDGE_LOOP ( 'NONE', ( #942, #517, #1012, #2 ) ) ;
#1056 = DIRECTION ( 'NONE',  ( -0.0000000000000000000, 1.000000000000000000, -0.0000000000000000000 ) ) ;
#1057 = APPROVAL_DATE_TIME ( #456, #178 ) ;
#1058 = CARTESIAN_POINT ( 'NONE',  ( 0.0000000000000000000, -3.700000000000000178, 0.0000000000000000000 ) ) ;
#1059 = EDGE_CURVE ( 'NONE', #358, #246, #705, .T. ) ;
#1060 = LINE ( 'NONE', #80, #923 ) ;
#1061 = ORIENTED_EDGE ( 'NONE', *, *, #38, .T. ) ;
#1062 = AXIS2_PLACEMENT_3D ( 'NONE', #160, #229, #75 ) ;
#1063 = CARTESIAN_POINT ( 'NONE',  ( -9.250000000000001776, 0.0000000000000000000, -3.049999999999999822 ) ) ;
#1064 = FACE_OUTER_BOUND ( 'NONE', #93, .T. ) ;
#1065 = LINE ( 'NONE', #499, #32 ) ;
#1066 = ORIENTED_EDGE ( 'NONE', *, *, #825, .T. ) ;
#1067 = AXIS2_PLACEMENT_3D ( 'NONE', #618, #800, #44 ) ;
#1068 = LINE ( 'NONE', #741, #1017 ) ;
#1069 = FACE_OUTER_BOUND ( 'NONE', #505, .T. ) ;
#1070 = PLANE ( 'NONE',  #1062 ) ;
#1071 = EDGE_CURVE ( 'NONE', #971, #583, #197, .T. ) ;
#1072 = ORIENTED_EDGE ( 'NONE', *, *, #99, .T. ) ;
#1073 = ADVANCED_FACE ( 'NONE', ( #1029 ), #429, .F. ) ;
#1074 = CARTESIAN_POINT ( 'NONE',  ( -7.899999999999999467, -3.700000000000000178, -1.749999999999999778 ) ) ;
#1075 = FACE_OUTER_BOUND ( 'NONE', #602, .T. ) ;
#1076 = CARTESIAN_POINT ( 'NONE',  ( -7.899999999999999467, -3.700000000000000178, -1.749999999999999778 ) ) ;
#1077 = ADVANCED_FACE ( 'NONE', ( #610 ), #772, .F. ) ;
#1078 = ORIENTED_EDGE ( 'NONE', *, *, #853, .T. ) ;
#1079 = DIRECTION ( 'NONE',  ( 2.843808977011158816E-16, -0.0000000000000000000, -1.000000000000000000 ) ) ;
ENDSEC;
END-ISO-10303-21;

