%TF.GenerationSoftware,KiCad,Pcbnew,9.0.4*%
%TF.CreationDate,2026-03-12T13:55:43-04:00*%
%TF.ProjectId,Pre Amp Stage,50726520-416d-4702-9053-746167652e6b,rev?*%
%TF.SameCoordinates,Original*%
%TF.FileFunction,Copper,L1,Top*%
%TF.FilePolarity,Positive*%
%FSLAX46Y46*%
G04 Gerber Fmt 4.6, Leading zero omitted, Abs format (unit mm)*
G04 Created by KiCad (PCBNEW 9.0.4) date 2026-03-12 13:55:43*
%MOMM*%
%LPD*%
G01*
G04 APERTURE LIST*
G04 Aperture macros list*
%AMRoundRect*
0 Rectangle with rounded corners*
0 $1 Rounding radius*
0 $2 $3 $4 $5 $6 $7 $8 $9 X,Y pos of 4 corners*
0 Add a 4 corners polygon primitive as box body*
4,1,4,$2,$3,$4,$5,$6,$7,$8,$9,$2,$3,0*
0 Add four circle primitives for the rounded corners*
1,1,$1+$1,$2,$3*
1,1,$1+$1,$4,$5*
1,1,$1+$1,$6,$7*
1,1,$1+$1,$8,$9*
0 Add four rect primitives between the rounded corners*
20,1,$1+$1,$2,$3,$4,$5,0*
20,1,$1+$1,$4,$5,$6,$7,0*
20,1,$1+$1,$6,$7,$8,$9,0*
20,1,$1+$1,$8,$9,$2,$3,0*%
G04 Aperture macros list end*
%TA.AperFunction,SMDPad,CuDef*%
%ADD10RoundRect,0.200000X-0.200000X-0.275000X0.200000X-0.275000X0.200000X0.275000X-0.200000X0.275000X0*%
%TD*%
%TA.AperFunction,SMDPad,CuDef*%
%ADD11RoundRect,0.200000X0.200000X0.275000X-0.200000X0.275000X-0.200000X-0.275000X0.200000X-0.275000X0*%
%TD*%
%TA.AperFunction,ComponentPad*%
%ADD12R,1.500000X1.050000*%
%TD*%
%TA.AperFunction,ComponentPad*%
%ADD13O,1.500000X1.050000*%
%TD*%
%TA.AperFunction,SMDPad,CuDef*%
%ADD14RoundRect,0.200000X-0.275000X0.200000X-0.275000X-0.200000X0.275000X-0.200000X0.275000X0.200000X0*%
%TD*%
%TA.AperFunction,SMDPad,CuDef*%
%ADD15RoundRect,0.200000X0.275000X-0.200000X0.275000X0.200000X-0.275000X0.200000X-0.275000X-0.200000X0*%
%TD*%
%TA.AperFunction,ComponentPad*%
%ADD16RoundRect,0.250001X-0.759999X0.499999X-0.759999X-0.499999X0.759999X-0.499999X0.759999X0.499999X0*%
%TD*%
%TA.AperFunction,ComponentPad*%
%ADD17O,2.020000X1.500000*%
%TD*%
%TA.AperFunction,ComponentPad*%
%ADD18RoundRect,0.250001X-0.499999X-0.759999X0.499999X-0.759999X0.499999X0.759999X-0.499999X0.759999X0*%
%TD*%
%TA.AperFunction,ComponentPad*%
%ADD19O,1.500000X2.020000*%
%TD*%
%TA.AperFunction,ComponentPad*%
%ADD20C,3.000000*%
%TD*%
%TA.AperFunction,SMDPad,CuDef*%
%ADD21R,0.508000X0.977900*%
%TD*%
%TA.AperFunction,ComponentPad*%
%ADD22RoundRect,0.250001X-1.399999X1.099999X-1.399999X-1.099999X1.399999X-1.099999X1.399999X1.099999X0*%
%TD*%
%TA.AperFunction,ComponentPad*%
%ADD23O,3.300000X2.700000*%
%TD*%
%TA.AperFunction,ComponentPad*%
%ADD24RoundRect,0.250001X1.399999X-1.099999X1.399999X1.099999X-1.399999X1.099999X-1.399999X-1.099999X0*%
%TD*%
%TA.AperFunction,ComponentPad*%
%ADD25RoundRect,0.250001X0.499999X-0.499999X0.499999X0.499999X-0.499999X0.499999X-0.499999X-0.499999X0*%
%TD*%
%TA.AperFunction,ComponentPad*%
%ADD26C,1.500000*%
%TD*%
%TA.AperFunction,SMDPad,CuDef*%
%ADD27RoundRect,0.250000X0.350000X0.450000X-0.350000X0.450000X-0.350000X-0.450000X0.350000X-0.450000X0*%
%TD*%
%TA.AperFunction,ComponentPad*%
%ADD28RoundRect,0.250001X0.759999X-0.499999X0.759999X0.499999X-0.759999X0.499999X-0.759999X-0.499999X0*%
%TD*%
%TA.AperFunction,ViaPad*%
%ADD29C,0.600000*%
%TD*%
%TA.AperFunction,Conductor*%
%ADD30C,0.200000*%
%TD*%
%TA.AperFunction,Conductor*%
%ADD31C,0.381000*%
%TD*%
G04 APERTURE END LIST*
D10*
%TO.P,C10,1*%
%TO.N,-15V*%
X68490800Y-50177400D03*
%TO.P,C10,2*%
%TO.N,GND*%
X70140800Y-50177400D03*
%TD*%
D11*
%TO.P,C5,1*%
%TO.N,Net-(C5-Pad1)*%
X85864200Y-47268800D03*
%TO.P,C5,2*%
%TO.N,Net-(J6-Pin_2)*%
X84214200Y-47268800D03*
%TD*%
D12*
%TO.P,Q1,1,D*%
%TO.N,Net-(J2-Pin_1)*%
X56053401Y-52654200D03*
D13*
%TO.P,Q1,2,S*%
%TO.N,Net-(Q1-S)*%
X56053401Y-53924201D03*
%TO.P,Q1,3,G*%
%TO.N,Net-(Q1-G)*%
X56053401Y-55194200D03*
%TD*%
D14*
%TO.P,R7,1*%
%TO.N,Net-(J5-Pin_3)*%
X83794600Y-41567000D03*
%TO.P,R7,2*%
%TO.N,Net-(U3-OUT)*%
X83794600Y-43217000D03*
%TD*%
D11*
%TO.P,C8,1*%
%TO.N,+15V*%
X67600800Y-57162400D03*
%TO.P,C8,2*%
%TO.N,GND*%
X65950800Y-57162400D03*
%TD*%
D15*
%TO.P,R1,1*%
%TO.N,Net-(Q1-G)*%
X52946800Y-55181000D03*
%TO.P,R1,2*%
%TO.N,GND*%
X52946800Y-53531000D03*
%TD*%
D16*
%TO.P,J3,1,Pin_1*%
%TO.N,GND*%
X63881000Y-40151200D03*
D17*
%TO.P,J3,2,Pin_2*%
%TO.N,Net-(J3-Pin_2)*%
X63881000Y-43151200D03*
%TO.P,J3,3,Pin_3*%
%TO.N,Net-(J3-Pin_3)*%
X63881000Y-46151200D03*
%TD*%
D18*
%TO.P,J5,1,Pin_1*%
%TO.N,Net-(J5-Pin_1)*%
X72644000Y-41579200D03*
D19*
%TO.P,J5,2,Pin_2*%
%TO.N,Net-(J5-Pin_2)*%
X75644000Y-41579200D03*
%TO.P,J5,3,Pin_3*%
%TO.N,Net-(J5-Pin_3)*%
X78644000Y-41579200D03*
%TD*%
D10*
%TO.P,R2,1*%
%TO.N,Net-(Q1-S)*%
X61659000Y-55219600D03*
%TO.P,R2,2*%
%TO.N,GND*%
X63309000Y-55219600D03*
%TD*%
%TO.P,R10,1*%
%TO.N,Net-(J5-Pin_2)*%
X84214200Y-45262200D03*
%TO.P,R10,2*%
%TO.N,Net-(C5-Pad1)*%
X85864200Y-45262200D03*
%TD*%
D11*
%TO.P,C13,1*%
%TO.N,+15V*%
X45605200Y-57581800D03*
%TO.P,C13,2*%
%TO.N,GND*%
X43955200Y-57581800D03*
%TD*%
D20*
%TO.P,J1,R*%
%TO.N,GND*%
X37693600Y-48742000D03*
%TO.P,J1,RN*%
X37693600Y-32512000D03*
%TO.P,J1,S*%
X31343600Y-48742000D03*
%TO.P,J1,SN*%
X31343600Y-32512000D03*
%TO.P,J1,T*%
%TO.N,Net-(U4-IN+)*%
X44043600Y-48742000D03*
%TO.P,J1,TN*%
%TO.N,GND*%
X44043600Y-32512000D03*
%TD*%
D10*
%TO.P,C2,1*%
%TO.N,Net-(U4-IN-)*%
X49619400Y-55194200D03*
%TO.P,C2,2*%
%TO.N,Net-(Q1-G)*%
X51269400Y-55194200D03*
%TD*%
%TO.P,R3,1*%
%TO.N,Net-(C3-Pad2)*%
X62993000Y-52120800D03*
%TO.P,R3,2*%
%TO.N,Net-(J3-Pin_3)*%
X64643000Y-52120800D03*
%TD*%
D18*
%TO.P,J7,1,Pin_1*%
%TO.N,Net-(J7-Pin_1)*%
X72644000Y-60544400D03*
D19*
%TO.P,J7,2,Pin_2*%
%TO.N,Net-(J7-Pin_2)*%
X75644000Y-60544400D03*
%TO.P,J7,3,Pin_3*%
%TO.N,Net-(J7-Pin_3)*%
X78644000Y-60544400D03*
%TD*%
D21*
%TO.P,U4,1,OUT*%
%TO.N,Net-(U4-IN-)*%
X45605201Y-53016150D03*
%TO.P,U4,2,V-*%
%TO.N,-15V*%
X44655200Y-53016150D03*
%TO.P,U4,3,IN+*%
%TO.N,Net-(U4-IN+)*%
X43705199Y-53016150D03*
%TO.P,U4,4,IN-*%
%TO.N,Net-(U4-IN-)*%
X43705199Y-55746650D03*
%TO.P,U4,5,V+*%
%TO.N,+15V*%
X45605201Y-55746650D03*
%TD*%
D10*
%TO.P,C14,1*%
%TO.N,-15V*%
X47079400Y-51612800D03*
%TO.P,C14,2*%
%TO.N,GND*%
X48729400Y-51612800D03*
%TD*%
D22*
%TO.P,J8,1,1*%
%TO.N,GND*%
X93699400Y-32969200D03*
D23*
%TO.P,J8,2,2*%
%TO.N,Net-(C15-Pad2)*%
X88199400Y-32969200D03*
%TD*%
D10*
%TO.P,R6,1*%
%TO.N,Net-(U1-IN-)*%
X71919800Y-51874600D03*
%TO.P,R6,2*%
%TO.N,Net-(J7-Pin_1)*%
X73569800Y-51874600D03*
%TD*%
D21*
%TO.P,U1,1,OUT*%
%TO.N,Net-(U1-IN-)*%
X69124801Y-52520550D03*
%TO.P,U1,2,V-*%
%TO.N,-15V*%
X68174800Y-52520550D03*
%TO.P,U1,3,IN+*%
%TO.N,Net-(J3-Pin_2)*%
X67224799Y-52520550D03*
%TO.P,U1,4,IN-*%
%TO.N,Net-(U1-IN-)*%
X67224799Y-55251050D03*
%TO.P,U1,5,V+*%
%TO.N,+15V*%
X69124801Y-55251050D03*
%TD*%
D11*
%TO.P,C12,1*%
%TO.N,Net-(Q1-G)*%
X51269400Y-57048400D03*
%TO.P,C12,2*%
%TO.N,GND*%
X49619400Y-57048400D03*
%TD*%
D24*
%TO.P,J4,1,1*%
%TO.N,GND*%
X31838000Y-54634800D03*
D23*
%TO.P,J4,2,2*%
%TO.N,+12V*%
X37338000Y-54634800D03*
%TD*%
D10*
%TO.P,C1,1*%
%TO.N,Net-(U4-IN-)*%
X49543200Y-53289200D03*
%TO.P,C1,2*%
%TO.N,GND*%
X51193200Y-53289200D03*
%TD*%
D25*
%TO.P,U2,1,+Vin*%
%TO.N,+12V*%
X37104000Y-60111200D03*
D26*
%TO.P,U2,2,-Vin*%
%TO.N,GND*%
X39644000Y-60111200D03*
%TO.P,U2,4,-Vout*%
%TO.N,-15V*%
X44724000Y-60111200D03*
%TO.P,U2,5,Com*%
%TO.N,GND*%
X47264000Y-60111200D03*
%TO.P,U2,6,+Vout*%
%TO.N,+15V*%
X49804000Y-60111200D03*
%TD*%
D11*
%TO.P,R11,1*%
%TO.N,Net-(U3-IN-)*%
X89877400Y-45262200D03*
%TO.P,R11,2*%
%TO.N,Net-(C5-Pad1)*%
X88227400Y-45262200D03*
%TD*%
D10*
%TO.P,R4,1*%
%TO.N,Net-(U1-IN-)*%
X71919800Y-46926200D03*
%TO.P,R4,2*%
%TO.N,Net-(J5-Pin_1)*%
X73569800Y-46926200D03*
%TD*%
%TO.P,R8,1*%
%TO.N,Net-(J6-Pin_3)*%
X92037400Y-52018600D03*
%TO.P,R8,2*%
%TO.N,Net-(U3-OUT)*%
X93687400Y-52018600D03*
%TD*%
D11*
%TO.P,C9,1*%
%TO.N,+15V*%
X95820200Y-48196200D03*
%TO.P,C9,2*%
%TO.N,GND*%
X94170200Y-48196200D03*
%TD*%
D10*
%TO.P,R5,1*%
%TO.N,Net-(U1-IN-)*%
X71919800Y-49364600D03*
%TO.P,R5,2*%
%TO.N,Net-(J6-Pin_1)*%
X73569800Y-49364600D03*
%TD*%
D18*
%TO.P,J6,1,Pin_1*%
%TO.N,Net-(J6-Pin_1)*%
X81201000Y-51502000D03*
D19*
%TO.P,J6,2,Pin_2*%
%TO.N,Net-(J6-Pin_2)*%
X84201000Y-51502000D03*
%TO.P,J6,3,Pin_3*%
%TO.N,Net-(J6-Pin_3)*%
X87201000Y-51502000D03*
%TD*%
D21*
%TO.P,U3,1,OUT*%
%TO.N,Net-(U3-OUT)*%
X95821001Y-43338150D03*
%TO.P,U3,2,V-*%
%TO.N,-15V*%
X94871000Y-43338150D03*
%TO.P,U3,3,IN+*%
%TO.N,GND*%
X93920999Y-43338150D03*
%TO.P,U3,4,IN-*%
%TO.N,Net-(U3-IN-)*%
X93920999Y-46068650D03*
%TO.P,U3,5,V+*%
%TO.N,+15V*%
X95821001Y-46068650D03*
%TD*%
D11*
%TO.P,C6,1*%
%TO.N,Net-(U3-IN-)*%
X89877400Y-47268800D03*
%TO.P,C6,2*%
%TO.N,Net-(J7-Pin_2)*%
X88227400Y-47268800D03*
%TD*%
D27*
%TO.P,C15,1*%
%TO.N,Net-(U3-OUT)*%
X90204800Y-37465000D03*
%TO.P,C15,2*%
%TO.N,Net-(C15-Pad2)*%
X88204800Y-37465000D03*
%TD*%
D15*
%TO.P,R9,1*%
%TO.N,Net-(J7-Pin_3)*%
X83769200Y-60539800D03*
%TO.P,R9,2*%
%TO.N,Net-(U3-OUT)*%
X83769200Y-58889800D03*
%TD*%
D11*
%TO.P,C11,1*%
%TO.N,-15V*%
X92683600Y-41529000D03*
%TO.P,C11,2*%
%TO.N,GND*%
X91033600Y-41529000D03*
%TD*%
D10*
%TO.P,C3,1*%
%TO.N,Net-(J2-Pin_1)*%
X59691000Y-52120800D03*
%TO.P,C3,2*%
%TO.N,Net-(C3-Pad2)*%
X61341000Y-52120800D03*
%TD*%
D28*
%TO.P,J2,1,Pin_1*%
%TO.N,Net-(J2-Pin_1)*%
X55321200Y-46151200D03*
D17*
%TO.P,J2,2,Pin_2*%
%TO.N,+15V*%
X55321200Y-43151200D03*
%TO.P,J2,3,Pin_3*%
X55321200Y-40151200D03*
%TD*%
D29*
%TO.N,GND*%
X49276000Y-58115200D03*
X89801200Y-42087800D03*
X64616800Y-56578200D03*
X92963200Y-48526400D03*
X70001600Y-49059800D03*
X64591400Y-54826200D03*
X92861600Y-42862200D03*
X49936400Y-51358800D03*
X51561200Y-52057600D03*
X52514200Y-52260800D03*
X42646600Y-58064400D03*
%TO.N,+15V*%
X70154000Y-55638400D03*
X45605200Y-56642000D03*
X95821001Y-47104000D03*
X68353525Y-56022325D03*
%TO.N,-15V*%
X68174800Y-51244200D03*
X94202042Y-42119758D03*
X45618400Y-51612800D03*
%TD*%
D30*
%TO.N,GND*%
X43129200Y-57581800D02*
X42646600Y-58064400D01*
D31*
X65201000Y-57162400D02*
X64616800Y-56578200D01*
X63309000Y-55219600D02*
X64198000Y-55219600D01*
X70140800Y-50177400D02*
X70140800Y-49199000D01*
X90360000Y-41529000D02*
X89801200Y-42087800D01*
X91033600Y-41529000D02*
X90360000Y-41529000D01*
X52946800Y-53531000D02*
X52946800Y-52693400D01*
X93920999Y-43338150D02*
X93337550Y-43338150D01*
D30*
X43955200Y-57581800D02*
X43129200Y-57581800D01*
D31*
X52946800Y-52693400D02*
X52514200Y-52260800D01*
X93337550Y-43338150D02*
X92861600Y-42862200D01*
D30*
X49619400Y-57771800D02*
X49276000Y-58115200D01*
X49619400Y-57048400D02*
X49619400Y-57771800D01*
X48729400Y-51612800D02*
X49682400Y-51612800D01*
D31*
X51193200Y-53289200D02*
X51193200Y-52425600D01*
X94170200Y-48196200D02*
X93293400Y-48196200D01*
X64198000Y-55219600D02*
X64591400Y-54826200D01*
X65950800Y-57162400D02*
X65201000Y-57162400D01*
X70140800Y-49199000D02*
X70001600Y-49059800D01*
X93293400Y-48196200D02*
X92963200Y-48526400D01*
X51193200Y-52425600D02*
X51561200Y-52057600D01*
D30*
X49682400Y-51612800D02*
X49936400Y-51358800D01*
%TO.N,Net-(U4-IN-)*%
X49619400Y-55194200D02*
X49619400Y-53365400D01*
X45605201Y-53846648D02*
X45605201Y-53016150D01*
X49270150Y-53016150D02*
X49543200Y-53289200D01*
X49619400Y-53365400D02*
X49543200Y-53289200D01*
X43705199Y-55746650D02*
X45605201Y-53846648D01*
X45605201Y-53016150D02*
X49270150Y-53016150D01*
%TO.N,Net-(Q1-G)*%
X56040201Y-55181000D02*
X56053401Y-55194200D01*
X51269400Y-55194200D02*
X51269400Y-57048400D01*
X52946800Y-55181000D02*
X56040201Y-55181000D01*
X51269400Y-55194200D02*
X52933600Y-55194200D01*
X52933600Y-55194200D02*
X52946800Y-55181000D01*
D31*
%TO.N,Net-(C3-Pad2)*%
X61341000Y-52120800D02*
X62993000Y-52120800D01*
D30*
%TO.N,Net-(J2-Pin_1)*%
X56053401Y-52654200D02*
X56053401Y-46883401D01*
X56184800Y-52654200D02*
X56718200Y-52120800D01*
X56053401Y-52654200D02*
X56184800Y-52654200D01*
X56718200Y-52120800D02*
X59691000Y-52120800D01*
X56053401Y-46883401D02*
X55321200Y-46151200D01*
D31*
%TO.N,Net-(J6-Pin_3)*%
X92037400Y-52018600D02*
X87717600Y-52018600D01*
X87717600Y-52018600D02*
X87201000Y-51502000D01*
%TO.N,Net-(J6-Pin_1)*%
X75707200Y-51502000D02*
X81201000Y-51502000D01*
X73569800Y-49364600D02*
X75707200Y-51502000D01*
%TO.N,Net-(J6-Pin_2)*%
X84214200Y-51488800D02*
X84201000Y-51502000D01*
X84214200Y-47268800D02*
X84214200Y-51488800D01*
%TO.N,Net-(C5-Pad1)*%
X85864200Y-45262200D02*
X88227400Y-45262200D01*
X85864200Y-47268800D02*
X85864200Y-45262200D01*
%TO.N,Net-(J7-Pin_2)*%
X75644000Y-60544400D02*
X80245200Y-55943200D01*
X85673400Y-50939400D02*
X88227400Y-48385400D01*
X85673400Y-54343000D02*
X85673400Y-50939400D01*
X84073200Y-55943200D02*
X85673400Y-54343000D01*
X80245200Y-55943200D02*
X84073200Y-55943200D01*
X88227400Y-48385400D02*
X88227400Y-47268800D01*
%TO.N,Net-(U3-IN-)*%
X93920999Y-46068650D02*
X92626950Y-46068650D01*
X92626950Y-46068650D02*
X91426800Y-47268800D01*
X89877400Y-47268800D02*
X89877400Y-45262200D01*
X91426800Y-47268800D02*
X89877400Y-47268800D01*
%TO.N,+15V*%
X67600800Y-56775051D02*
X68353525Y-56022325D01*
X95821001Y-48195399D02*
X95820200Y-48196200D01*
X69124801Y-55251050D02*
X69766650Y-55251050D01*
X68353525Y-56022325D02*
X69124801Y-55251050D01*
X69766650Y-55251050D02*
X70154000Y-55638400D01*
X95821001Y-46068650D02*
X95821001Y-48195399D01*
X67600800Y-57162400D02*
X67600800Y-56775051D01*
D30*
X45605200Y-56642000D02*
X45605201Y-55746650D01*
X45605200Y-57581800D02*
X45605200Y-56642000D01*
D31*
%TO.N,Net-(J3-Pin_2)*%
X67224799Y-52520550D02*
X67224799Y-46494999D01*
X67224799Y-46494999D02*
X63881000Y-43151200D01*
D30*
%TO.N,Net-(J3-Pin_3)*%
X64643000Y-52120800D02*
X64643000Y-46913200D01*
X64643000Y-46913200D02*
X63881000Y-46151200D01*
D31*
%TO.N,Net-(J5-Pin_3)*%
X78644000Y-41579200D02*
X83782400Y-41579200D01*
X83782400Y-41579200D02*
X83794600Y-41567000D01*
%TO.N,Net-(J5-Pin_2)*%
X75644000Y-41579200D02*
X79327000Y-45262200D01*
X79327000Y-45262200D02*
X84214200Y-45262200D01*
%TO.N,Net-(J5-Pin_1)*%
X73569800Y-42505000D02*
X72644000Y-41579200D01*
X73569800Y-46926200D02*
X73569800Y-42505000D01*
%TO.N,Net-(J7-Pin_1)*%
X73569800Y-59618600D02*
X72644000Y-60544400D01*
X73569800Y-51874600D02*
X73569800Y-59618600D01*
%TO.N,Net-(J7-Pin_3)*%
X78644000Y-60544400D02*
X83764600Y-60544400D01*
X83764600Y-60544400D02*
X83769200Y-60539800D01*
%TO.N,Net-(U3-OUT)*%
X88822800Y-58889800D02*
X93687400Y-54025200D01*
X90523800Y-37465000D02*
X90204800Y-37465000D01*
X95821001Y-43338150D02*
X95821001Y-42762201D01*
X93687400Y-54025200D02*
X93687400Y-52018600D01*
X97281200Y-50507600D02*
X95770200Y-52018600D01*
X83769200Y-58889800D02*
X88822800Y-58889800D01*
X90204800Y-38192200D02*
X90204800Y-37465000D01*
X97281200Y-43852800D02*
X97281200Y-50507600D01*
X96766550Y-43338150D02*
X97281200Y-43852800D01*
X85180000Y-43217000D02*
X90204800Y-38192200D01*
X95821001Y-42762201D02*
X90523800Y-37465000D01*
X95770200Y-52018600D02*
X93687400Y-52018600D01*
X83794600Y-43217000D02*
X85180000Y-43217000D01*
X95821001Y-43338150D02*
X96766550Y-43338150D01*
D30*
%TO.N,Net-(Q1-S)*%
X59867800Y-55219600D02*
X58572401Y-53924201D01*
X58572401Y-53924201D02*
X56053401Y-53924201D01*
X61659000Y-55219600D02*
X59867800Y-55219600D01*
D31*
%TO.N,Net-(U1-IN-)*%
X71919800Y-51874600D02*
X71919800Y-49364600D01*
X69124801Y-52520550D02*
X71273850Y-52520550D01*
X67224799Y-55251050D02*
X69124801Y-53351048D01*
X71273850Y-52520550D02*
X71919800Y-51874600D01*
X71919800Y-49364600D02*
X71919800Y-46926200D01*
X69124801Y-53351048D02*
X69124801Y-52520550D01*
%TO.N,-15V*%
X68174800Y-52520550D02*
X68174800Y-51244200D01*
D30*
X92683600Y-41529000D02*
X93750800Y-41529000D01*
X94202042Y-41980242D02*
X94202042Y-42119758D01*
X94068600Y-41846800D02*
X94871000Y-42649200D01*
X44655200Y-52093400D02*
X45135800Y-51612800D01*
D31*
X68490800Y-50177400D02*
X68174800Y-50493400D01*
D30*
X45135800Y-51612800D02*
X45618400Y-51612800D01*
D31*
X68174800Y-50493400D02*
X68174800Y-51244200D01*
D30*
X47079400Y-51612800D02*
X45618400Y-51612800D01*
X44655200Y-53016150D02*
X44655200Y-52093400D01*
X94068600Y-41846800D02*
X94202042Y-41980242D01*
X94871000Y-42649200D02*
X94871000Y-43338150D01*
X93750800Y-41529000D02*
X94068600Y-41846800D01*
%TO.N,Net-(C15-Pad2)*%
X88204800Y-32974600D02*
X88199400Y-32969200D01*
D31*
X88204800Y-37465000D02*
X88204800Y-32974600D01*
D30*
%TO.N,Net-(U4-IN+)*%
X43705199Y-53016150D02*
X43705199Y-49080401D01*
X43705199Y-49080401D02*
X44043600Y-48742000D01*
%TD*%
%TA.AperFunction,Conductor*%
%TO.N,GND*%
G36*
X93135361Y-46760936D02*
G01*
X93139824Y-46759966D01*
X93168580Y-46770691D01*
X93198018Y-46779335D01*
X93202202Y-46783230D01*
X93205289Y-46784382D01*
X93230245Y-46809339D01*
X93309451Y-46915144D01*
X93309454Y-46915147D01*
X93424663Y-47001393D01*
X93424670Y-47001397D01*
X93455839Y-47013022D01*
X93559516Y-47051691D01*
X93615187Y-47057676D01*
X93679735Y-47084413D01*
X93719583Y-47141806D01*
X93722077Y-47211631D01*
X93686425Y-47271720D01*
X93666079Y-47287082D01*
X93535322Y-47366127D01*
X93415127Y-47486322D01*
X93327180Y-47631804D01*
X93276609Y-47794093D01*
X93270200Y-47864627D01*
X93270200Y-47946200D01*
X94046200Y-47946200D01*
X94113239Y-47965885D01*
X94158994Y-48018689D01*
X94170200Y-48070200D01*
X94170200Y-48196200D01*
X94296200Y-48196200D01*
X94363239Y-48215885D01*
X94408994Y-48268689D01*
X94420200Y-48320200D01*
X94420200Y-49171199D01*
X94426781Y-49171199D01*
X94497302Y-49164791D01*
X94497307Y-49164790D01*
X94659596Y-49114218D01*
X94805077Y-49026272D01*
X94805078Y-49026271D01*
X94907163Y-48924185D01*
X94968486Y-48890699D01*
X95038177Y-48895683D01*
X95082526Y-48924184D01*
X95185011Y-49026669D01*
X95185013Y-49026670D01*
X95185015Y-49026672D01*
X95330594Y-49114678D01*
X95493004Y-49165286D01*
X95563584Y-49171700D01*
X95563587Y-49171700D01*
X96076813Y-49171700D01*
X96076816Y-49171700D01*
X96147396Y-49165286D01*
X96309806Y-49114678D01*
X96402051Y-49058913D01*
X96469604Y-49041077D01*
X96536078Y-49062594D01*
X96580366Y-49116634D01*
X96590200Y-49165030D01*
X96590200Y-50170016D01*
X96570515Y-50237055D01*
X96553881Y-50257697D01*
X95520297Y-51291281D01*
X95458974Y-51324766D01*
X95432616Y-51327600D01*
X94513420Y-51327600D01*
X94446381Y-51307915D01*
X94425739Y-51291281D01*
X94322588Y-51188130D01*
X94308719Y-51179746D01*
X94177006Y-51100122D01*
X94014596Y-51049514D01*
X94014594Y-51049513D01*
X94014592Y-51049513D01*
X93965178Y-51045023D01*
X93944016Y-51043100D01*
X93430784Y-51043100D01*
X93411545Y-51044848D01*
X93360207Y-51049513D01*
X93197793Y-51100122D01*
X93052211Y-51188130D01*
X93052210Y-51188131D01*
X92950081Y-51290261D01*
X92888758Y-51323746D01*
X92819066Y-51318762D01*
X92774719Y-51290261D01*
X92672588Y-51188130D01*
X92658719Y-51179746D01*
X92527006Y-51100122D01*
X92364596Y-51049514D01*
X92364594Y-51049513D01*
X92364592Y-51049513D01*
X92315178Y-51045023D01*
X92294016Y-51043100D01*
X91780784Y-51043100D01*
X91761545Y-51044848D01*
X91710207Y-51049513D01*
X91547793Y-51100122D01*
X91402211Y-51188130D01*
X91402210Y-51188131D01*
X91299061Y-51291281D01*
X91237738Y-51324766D01*
X91211380Y-51327600D01*
X88575500Y-51327600D01*
X88508461Y-51307915D01*
X88462706Y-51255111D01*
X88451500Y-51203600D01*
X88451500Y-51143577D01*
X88420709Y-50949173D01*
X88392487Y-50862317D01*
X88359884Y-50761975D01*
X88359882Y-50761972D01*
X88359882Y-50761970D01*
X88301477Y-50647344D01*
X88270524Y-50586595D01*
X88154828Y-50427354D01*
X88015646Y-50288172D01*
X87856405Y-50172476D01*
X87810892Y-50149286D01*
X87717746Y-50101826D01*
X87666950Y-50053852D01*
X87650155Y-49986031D01*
X87672692Y-49919896D01*
X87686354Y-49903667D01*
X88075073Y-49514948D01*
X88135240Y-49454781D01*
X89315500Y-49454781D01*
X89315500Y-49629218D01*
X89349527Y-49800283D01*
X89349529Y-49800291D01*
X89416278Y-49961439D01*
X89416283Y-49961448D01*
X89513186Y-50106473D01*
X89513189Y-50106477D01*
X89636522Y-50229810D01*
X89636526Y-50229813D01*
X89781551Y-50326716D01*
X89781557Y-50326719D01*
X89781558Y-50326720D01*
X89942709Y-50393471D01*
X90089474Y-50422664D01*
X90113781Y-50427499D01*
X90113785Y-50427500D01*
X90113786Y-50427500D01*
X90288215Y-50427500D01*
X90288216Y-50427499D01*
X90459291Y-50393471D01*
X90620442Y-50326720D01*
X90765474Y-50229813D01*
X90888813Y-50106474D01*
X90985720Y-49961442D01*
X91052471Y-49800291D01*
X91086500Y-49629214D01*
X91086500Y-49454786D01*
X91052471Y-49283709D01*
X90990093Y-49133116D01*
X90985721Y-49122560D01*
X90985716Y-49122551D01*
X90888813Y-48977526D01*
X90888810Y-48977522D01*
X90765477Y-48854189D01*
X90765473Y-48854186D01*
X90620448Y-48757283D01*
X90620439Y-48757278D01*
X90459291Y-48690529D01*
X90459283Y-48690527D01*
X90288218Y-48656500D01*
X90288214Y-48656500D01*
X90113786Y-48656500D01*
X90113781Y-48656500D01*
X89942716Y-48690527D01*
X89942708Y-48690529D01*
X89781560Y-48757278D01*
X89781551Y-48757283D01*
X89636526Y-48854186D01*
X89636522Y-48854189D01*
X89513189Y-48977522D01*
X89513186Y-48977526D01*
X89416283Y-49122551D01*
X89416278Y-49122560D01*
X89349529Y-49283708D01*
X89349527Y-49283716D01*
X89315500Y-49454781D01*
X88135240Y-49454781D01*
X88229009Y-49361013D01*
X88764132Y-48825890D01*
X88764132Y-48825889D01*
X88764135Y-48825887D01*
X88839756Y-48712712D01*
X88891845Y-48586958D01*
X88903615Y-48527782D01*
X93270201Y-48527782D01*
X93276608Y-48598302D01*
X93276609Y-48598307D01*
X93327181Y-48760596D01*
X93415127Y-48906077D01*
X93535322Y-49026272D01*
X93680804Y-49114219D01*
X93680803Y-49114219D01*
X93843094Y-49164790D01*
X93843093Y-49164790D01*
X93913608Y-49171198D01*
X93913626Y-49171199D01*
X93920199Y-49171198D01*
X93920200Y-49171198D01*
X93920200Y-48446200D01*
X93270201Y-48446200D01*
X93270201Y-48527782D01*
X88903615Y-48527782D01*
X88904465Y-48523511D01*
X88918400Y-48453458D01*
X88918400Y-48094819D01*
X88927043Y-48065383D01*
X88933565Y-48035398D01*
X88937321Y-48030378D01*
X88938085Y-48027780D01*
X88954709Y-48007147D01*
X88964717Y-47997139D01*
X89026035Y-47963654D01*
X89095727Y-47968635D01*
X89140080Y-47997138D01*
X89242211Y-48099269D01*
X89242213Y-48099270D01*
X89242215Y-48099272D01*
X89387794Y-48187278D01*
X89550204Y-48237886D01*
X89620784Y-48244300D01*
X89620787Y-48244300D01*
X90134013Y-48244300D01*
X90134016Y-48244300D01*
X90204596Y-48237886D01*
X90367006Y-48187278D01*
X90512585Y-48099272D01*
X90546474Y-48065383D01*
X90615739Y-47996119D01*
X90677062Y-47962634D01*
X90703420Y-47959800D01*
X91494860Y-47959800D01*
X91584670Y-47941934D01*
X91628357Y-47933245D01*
X91754111Y-47881156D01*
X91792803Y-47855303D01*
X91867287Y-47805535D01*
X92876853Y-46795969D01*
X92938176Y-46762484D01*
X92964534Y-46759650D01*
X93130979Y-46759650D01*
X93135361Y-46760936D01*
G37*
%TD.AperFunction*%
%TA.AperFunction,Conductor*%
G36*
X90771233Y-38705501D02*
G01*
X90815580Y-38734002D01*
X92430532Y-40348954D01*
X92464017Y-40410277D01*
X92459033Y-40479969D01*
X92417161Y-40535902D01*
X92362492Y-40556893D01*
X92362839Y-40558634D01*
X92356411Y-40559912D01*
X92356404Y-40559913D01*
X92356404Y-40559914D01*
X92296682Y-40578523D01*
X92193993Y-40610522D01*
X92048411Y-40698530D01*
X92048410Y-40698531D01*
X91945927Y-40801015D01*
X91884604Y-40834500D01*
X91814912Y-40829516D01*
X91770565Y-40801015D01*
X91668477Y-40698927D01*
X91522995Y-40610980D01*
X91522996Y-40610980D01*
X91360705Y-40560409D01*
X91360706Y-40560409D01*
X91290172Y-40554000D01*
X91283600Y-40554000D01*
X91283600Y-42503999D01*
X91290181Y-42503999D01*
X91360702Y-42497591D01*
X91360707Y-42497590D01*
X91522996Y-42447018D01*
X91668477Y-42359072D01*
X91668478Y-42359071D01*
X91770563Y-42256985D01*
X91831886Y-42223499D01*
X91901577Y-42228483D01*
X91945926Y-42256984D01*
X92048411Y-42359469D01*
X92048413Y-42359470D01*
X92048415Y-42359472D01*
X92193994Y-42447478D01*
X92356404Y-42498086D01*
X92426984Y-42504500D01*
X92426987Y-42504500D01*
X92940213Y-42504500D01*
X92940216Y-42504500D01*
X93010796Y-42498086D01*
X93056196Y-42483938D01*
X93126056Y-42482788D01*
X93185449Y-42519589D01*
X93215516Y-42582657D01*
X93209268Y-42645656D01*
X93173402Y-42741817D01*
X93173400Y-42741827D01*
X93166999Y-42801355D01*
X93166999Y-43088150D01*
X93796999Y-43088150D01*
X93864038Y-43107835D01*
X93909793Y-43160639D01*
X93920999Y-43212150D01*
X93920999Y-43338150D01*
X93992500Y-43338150D01*
X94059539Y-43357835D01*
X94105294Y-43410639D01*
X94116500Y-43462150D01*
X94116500Y-43874970D01*
X94116501Y-43874976D01*
X94122908Y-43934581D01*
X94122909Y-43934583D01*
X94163181Y-44042559D01*
X94170999Y-44085890D01*
X94170999Y-44327100D01*
X94222827Y-44327100D01*
X94222843Y-44327099D01*
X94282376Y-44320697D01*
X94282378Y-44320697D01*
X94351949Y-44294748D01*
X94421641Y-44289762D01*
X94438616Y-44294746D01*
X94509517Y-44321191D01*
X94569127Y-44327600D01*
X95172872Y-44327599D01*
X95232483Y-44321191D01*
X95302665Y-44295013D01*
X95372357Y-44290029D01*
X95389335Y-44295014D01*
X95459512Y-44321189D01*
X95459518Y-44321191D01*
X95519128Y-44327600D01*
X96122873Y-44327599D01*
X96182484Y-44321191D01*
X96317332Y-44270896D01*
X96356008Y-44241943D01*
X96391889Y-44215083D01*
X96457353Y-44190665D01*
X96525626Y-44205516D01*
X96575032Y-44254921D01*
X96590200Y-44314349D01*
X96590200Y-45092450D01*
X96570515Y-45159489D01*
X96517711Y-45205244D01*
X96448553Y-45215188D01*
X96391889Y-45191717D01*
X96317332Y-45135904D01*
X96317329Y-45135902D01*
X96182487Y-45085610D01*
X96182486Y-45085609D01*
X96182484Y-45085609D01*
X96122874Y-45079200D01*
X96122864Y-45079200D01*
X95519130Y-45079200D01*
X95519124Y-45079201D01*
X95459517Y-45085608D01*
X95324672Y-45135902D01*
X95324665Y-45135906D01*
X95209456Y-45222152D01*
X95209453Y-45222155D01*
X95123207Y-45337364D01*
X95123203Y-45337371D01*
X95072909Y-45472217D01*
X95070094Y-45498404D01*
X95066502Y-45531823D01*
X95066501Y-45531835D01*
X95066501Y-46605470D01*
X95066502Y-46605476D01*
X95072909Y-46665083D01*
X95085919Y-46699965D01*
X95090901Y-46769657D01*
X95084298Y-46790745D01*
X95051265Y-46870497D01*
X95051262Y-46870505D01*
X95020501Y-47025153D01*
X95020501Y-47182846D01*
X95039753Y-47279633D01*
X95033526Y-47349225D01*
X94990663Y-47404402D01*
X94924773Y-47427646D01*
X94856776Y-47411578D01*
X94830455Y-47391505D01*
X94805077Y-47366127D01*
X94659595Y-47278180D01*
X94659596Y-47278180D01*
X94497305Y-47227609D01*
X94497308Y-47227609D01*
X94478126Y-47225866D01*
X94413144Y-47200193D01*
X94372358Y-47143464D01*
X94368716Y-47073689D01*
X94403375Y-47013022D01*
X94415041Y-47003108D01*
X94417325Y-47001397D01*
X94417330Y-47001396D01*
X94532545Y-46915146D01*
X94618795Y-46799931D01*
X94669090Y-46665083D01*
X94675499Y-46605473D01*
X94675498Y-45531828D01*
X94669090Y-45472217D01*
X94663152Y-45456297D01*
X94618796Y-45337371D01*
X94618792Y-45337364D01*
X94532546Y-45222155D01*
X94532543Y-45222152D01*
X94417334Y-45135906D01*
X94417327Y-45135902D01*
X94282485Y-45085610D01*
X94282484Y-45085609D01*
X94282482Y-45085609D01*
X94222872Y-45079200D01*
X94222862Y-45079200D01*
X93619128Y-45079200D01*
X93619122Y-45079201D01*
X93559515Y-45085608D01*
X93424670Y-45135902D01*
X93424663Y-45135906D01*
X93309454Y-45222152D01*
X93309451Y-45222155D01*
X93230245Y-45327961D01*
X93174311Y-45369832D01*
X93130979Y-45377650D01*
X92558888Y-45377650D01*
X92444388Y-45400426D01*
X92444387Y-45400426D01*
X92432948Y-45402701D01*
X92425390Y-45404205D01*
X92425389Y-45404205D01*
X92299644Y-45456290D01*
X92299631Y-45456297D01*
X92186463Y-45531914D01*
X92186459Y-45531917D01*
X91176897Y-46541481D01*
X91115574Y-46574966D01*
X91089216Y-46577800D01*
X90703420Y-46577800D01*
X90673979Y-46569155D01*
X90643993Y-46562632D01*
X90638977Y-46558877D01*
X90636381Y-46558115D01*
X90615739Y-46541481D01*
X90604719Y-46530461D01*
X90571234Y-46469138D01*
X90568400Y-46442780D01*
X90568400Y-46088219D01*
X90588085Y-46021180D01*
X90604715Y-46000541D01*
X90632872Y-45972385D01*
X90720878Y-45826806D01*
X90771486Y-45664396D01*
X90777900Y-45593816D01*
X90777900Y-44930584D01*
X90771486Y-44860004D01*
X90720878Y-44697594D01*
X90632872Y-44552015D01*
X90632870Y-44552013D01*
X90632869Y-44552011D01*
X90512588Y-44431730D01*
X90495475Y-44421385D01*
X90367006Y-44343722D01*
X90204596Y-44293114D01*
X90204594Y-44293113D01*
X90204592Y-44293113D01*
X90155178Y-44288623D01*
X90134016Y-44286700D01*
X89620784Y-44286700D01*
X89601545Y-44288448D01*
X89550207Y-44293113D01*
X89387793Y-44343722D01*
X89242211Y-44431730D01*
X89242210Y-44431731D01*
X89140081Y-44533861D01*
X89078758Y-44567346D01*
X89009066Y-44562362D01*
X88964719Y-44533861D01*
X88862588Y-44431730D01*
X88845475Y-44421385D01*
X88717006Y-44343722D01*
X88554596Y-44293114D01*
X88554594Y-44293113D01*
X88554592Y-44293113D01*
X88505178Y-44288623D01*
X88484016Y-44286700D01*
X87970784Y-44286700D01*
X87951545Y-44288448D01*
X87900207Y-44293113D01*
X87737793Y-44343722D01*
X87592211Y-44431730D01*
X87592210Y-44431731D01*
X87489061Y-44534881D01*
X87427738Y-44568366D01*
X87401380Y-44571200D01*
X86690220Y-44571200D01*
X86623181Y-44551515D01*
X86602539Y-44534881D01*
X86499388Y-44431730D01*
X86482275Y-44421385D01*
X86353806Y-44343722D01*
X86191396Y-44293114D01*
X86191394Y-44293113D01*
X86191392Y-44293113D01*
X86141978Y-44288623D01*
X86120816Y-44286700D01*
X85607584Y-44286700D01*
X85588345Y-44288448D01*
X85537007Y-44293113D01*
X85374593Y-44343722D01*
X85229011Y-44431730D01*
X85229010Y-44431731D01*
X85126881Y-44533861D01*
X85065558Y-44567346D01*
X84995866Y-44562362D01*
X84951519Y-44533861D01*
X84849388Y-44431730D01*
X84832275Y-44421385D01*
X84703806Y-44343722D01*
X84541396Y-44293114D01*
X84541394Y-44293113D01*
X84541392Y-44293113D01*
X84491978Y-44288623D01*
X84470816Y-44286700D01*
X84429798Y-44286700D01*
X84397960Y-44277351D01*
X84365848Y-44268937D01*
X84364570Y-44267546D01*
X84362759Y-44267015D01*
X84341034Y-44241943D01*
X84318563Y-44217498D01*
X84318239Y-44215636D01*
X84317004Y-44214211D01*
X84312282Y-44181373D01*
X84306595Y-44148661D01*
X84307328Y-44146921D01*
X84307060Y-44145053D01*
X84320847Y-44114862D01*
X84333743Y-44084282D01*
X84335516Y-44082742D01*
X84336085Y-44081497D01*
X84359727Y-44060396D01*
X84362624Y-44058411D01*
X84504785Y-43972472D01*
X84541065Y-43936191D01*
X84550549Y-43929696D01*
X84573282Y-43922289D01*
X84594262Y-43910834D01*
X84615432Y-43908557D01*
X84616982Y-43908053D01*
X84617897Y-43908292D01*
X84620620Y-43908000D01*
X85248060Y-43908000D01*
X85337870Y-43890134D01*
X85381557Y-43881445D01*
X85397252Y-43874944D01*
X93166999Y-43874944D01*
X93173400Y-43934472D01*
X93173402Y-43934479D01*
X93223644Y-44069186D01*
X93223648Y-44069193D01*
X93309808Y-44184287D01*
X93309811Y-44184290D01*
X93424905Y-44270450D01*
X93424912Y-44270454D01*
X93559619Y-44320696D01*
X93559626Y-44320698D01*
X93619154Y-44327099D01*
X93619171Y-44327100D01*
X93670999Y-44327100D01*
X93670999Y-43588150D01*
X93166999Y-43588150D01*
X93166999Y-43874944D01*
X85397252Y-43874944D01*
X85507311Y-43829356D01*
X85523304Y-43818670D01*
X85620487Y-43753735D01*
X85771952Y-43602270D01*
X85925116Y-43449107D01*
X87280826Y-42093396D01*
X87513640Y-41860582D01*
X90133601Y-41860582D01*
X90140008Y-41931102D01*
X90140009Y-41931107D01*
X90190581Y-42093396D01*
X90278527Y-42238877D01*
X90398722Y-42359072D01*
X90544204Y-42447019D01*
X90544203Y-42447019D01*
X90706494Y-42497590D01*
X90706493Y-42497590D01*
X90777008Y-42503998D01*
X90777026Y-42503999D01*
X90783599Y-42503998D01*
X90783600Y-42503998D01*
X90783600Y-41779000D01*
X90133601Y-41779000D01*
X90133601Y-41860582D01*
X87513640Y-41860582D01*
X88176794Y-41197427D01*
X90133600Y-41197427D01*
X90133600Y-41279000D01*
X90783600Y-41279000D01*
X90783600Y-40554000D01*
X90783599Y-40553999D01*
X90777036Y-40554000D01*
X90777017Y-40554001D01*
X90706497Y-40560408D01*
X90706492Y-40560409D01*
X90544203Y-40610981D01*
X90398722Y-40698927D01*
X90278527Y-40819122D01*
X90190580Y-40964604D01*
X90140009Y-41126893D01*
X90133600Y-41197427D01*
X88176794Y-41197427D01*
X90640220Y-38734000D01*
X90701541Y-38700517D01*
X90771233Y-38705501D01*
G37*
%TD.AperFunction*%
%TA.AperFunction,Conductor*%
G36*
X96477992Y-25904822D02*
G01*
X96493324Y-25904197D01*
X96510835Y-25914466D01*
X96530310Y-25920185D01*
X96540355Y-25931778D01*
X96553594Y-25939542D01*
X96562774Y-25957650D01*
X96576065Y-25972989D01*
X96578248Y-25988174D01*
X96585187Y-26001861D01*
X96583120Y-26022055D01*
X96586009Y-26042147D01*
X96579529Y-26057136D01*
X96578073Y-26071368D01*
X96560218Y-26101813D01*
X96527369Y-26143004D01*
X96342092Y-26437869D01*
X96190999Y-26751617D01*
X96075985Y-27080307D01*
X96075982Y-27080315D01*
X95998491Y-27419829D01*
X95998489Y-27419841D01*
X95959500Y-27765875D01*
X95959500Y-28114124D01*
X95998489Y-28460158D01*
X95998491Y-28460170D01*
X96075982Y-28799684D01*
X96075985Y-28799692D01*
X96190999Y-29128382D01*
X96342092Y-29442130D01*
X96527371Y-29736999D01*
X96527372Y-29737001D01*
X96744487Y-30009256D01*
X96990743Y-30255512D01*
X97262998Y-30472627D01*
X97263001Y-30472628D01*
X97263003Y-30472630D01*
X97557867Y-30657906D01*
X97871621Y-30809002D01*
X98118488Y-30895384D01*
X98200307Y-30924014D01*
X98200315Y-30924017D01*
X98200318Y-30924017D01*
X98200319Y-30924018D01*
X98539829Y-31001509D01*
X98885876Y-31040499D01*
X98885877Y-31040500D01*
X98885880Y-31040500D01*
X99234123Y-31040500D01*
X99234123Y-31040499D01*
X99580171Y-31001509D01*
X99919681Y-30924018D01*
X100248379Y-30809002D01*
X100562133Y-30657906D01*
X100856997Y-30472630D01*
X100898187Y-30439781D01*
X100962874Y-30413373D01*
X101031569Y-30426130D01*
X101082463Y-30474000D01*
X101099500Y-30536729D01*
X101099500Y-60903271D01*
X101079815Y-60970310D01*
X101027011Y-61016065D01*
X100957853Y-61026009D01*
X100898189Y-61000219D01*
X100856997Y-60967370D01*
X100856993Y-60967367D01*
X100856990Y-60967365D01*
X100562130Y-60782092D01*
X100248382Y-60630999D01*
X99919692Y-60515985D01*
X99919684Y-60515982D01*
X99665048Y-60457863D01*
X99580171Y-60438491D01*
X99580167Y-60438490D01*
X99580158Y-60438489D01*
X99234124Y-60399500D01*
X99234120Y-60399500D01*
X98885880Y-60399500D01*
X98885875Y-60399500D01*
X98539841Y-60438489D01*
X98539829Y-60438491D01*
X98200315Y-60515982D01*
X98200307Y-60515985D01*
X97871617Y-60630999D01*
X97557869Y-60782092D01*
X97263000Y-60967371D01*
X97262998Y-60967372D01*
X96990743Y-61184487D01*
X96744487Y-61430743D01*
X96527372Y-61702998D01*
X96527371Y-61703000D01*
X96342092Y-61997869D01*
X96190999Y-62311617D01*
X96075985Y-62640307D01*
X96075982Y-62640315D01*
X95998491Y-62979829D01*
X95998489Y-62979841D01*
X95959500Y-63325875D01*
X95959500Y-63674124D01*
X95998489Y-64020158D01*
X95998491Y-64020170D01*
X96075982Y-64359684D01*
X96075985Y-64359692D01*
X96190999Y-64688382D01*
X96342092Y-65002130D01*
X96342094Y-65002133D01*
X96527370Y-65296997D01*
X96560218Y-65338187D01*
X96586627Y-65402874D01*
X96573870Y-65471569D01*
X96526000Y-65522463D01*
X96463271Y-65539500D01*
X30536729Y-65539500D01*
X30469690Y-65519815D01*
X30423935Y-65467011D01*
X30413991Y-65397853D01*
X30439782Y-65338187D01*
X30472630Y-65296997D01*
X30657906Y-65002133D01*
X30809002Y-64688379D01*
X30924018Y-64359681D01*
X31001509Y-64020171D01*
X31040500Y-63674120D01*
X31040500Y-63325880D01*
X31001509Y-62979829D01*
X30924018Y-62640319D01*
X30809002Y-62311621D01*
X30680314Y-62044398D01*
X30657907Y-61997869D01*
X30652467Y-61989212D01*
X30472630Y-61703003D01*
X30472628Y-61703000D01*
X30472627Y-61702998D01*
X30255512Y-61430743D01*
X30009256Y-61184487D01*
X29737001Y-60967372D01*
X29736999Y-60967371D01*
X29442130Y-60782092D01*
X29128382Y-60630999D01*
X28799692Y-60515985D01*
X28799684Y-60515982D01*
X28545048Y-60457863D01*
X28460171Y-60438491D01*
X28460167Y-60438490D01*
X28460158Y-60438489D01*
X28114124Y-60399500D01*
X28114120Y-60399500D01*
X27765880Y-60399500D01*
X27765875Y-60399500D01*
X27419841Y-60438489D01*
X27419829Y-60438491D01*
X27080315Y-60515982D01*
X27080307Y-60515985D01*
X26751617Y-60630999D01*
X26437869Y-60782092D01*
X26143009Y-60967365D01*
X26143000Y-60967372D01*
X26101810Y-61000219D01*
X26037125Y-61026627D01*
X25968429Y-61013870D01*
X25917536Y-60965999D01*
X25900500Y-60903271D01*
X25900500Y-53484814D01*
X29688000Y-53484814D01*
X29688000Y-54384800D01*
X31183879Y-54384800D01*
X31164901Y-54430618D01*
X31138000Y-54565856D01*
X31138000Y-54703744D01*
X31164901Y-54838982D01*
X31183879Y-54884800D01*
X29688000Y-54884800D01*
X29688000Y-55784785D01*
X29698493Y-55887489D01*
X29698494Y-55887496D01*
X29753641Y-56053918D01*
X29753643Y-56053923D01*
X29845684Y-56203144D01*
X29969655Y-56327115D01*
X30118876Y-56419156D01*
X30118881Y-56419158D01*
X30285303Y-56474305D01*
X30285310Y-56474306D01*
X30388014Y-56484799D01*
X30388027Y-56484800D01*
X31588000Y-56484800D01*
X31588000Y-55288920D01*
X31633818Y-55307899D01*
X31769056Y-55334800D01*
X31906944Y-55334800D01*
X32042182Y-55307899D01*
X32088000Y-55288920D01*
X32088000Y-56484800D01*
X33287973Y-56484800D01*
X33287985Y-56484799D01*
X33390689Y-56474306D01*
X33390696Y-56474305D01*
X33557118Y-56419158D01*
X33557123Y-56419156D01*
X33706343Y-56327116D01*
X33708984Y-56325028D01*
X33711138Y-56324158D01*
X33712490Y-56323325D01*
X33712632Y-56323555D01*
X33773778Y-56298884D01*
X33842421Y-56311921D01*
X33893119Y-56359999D01*
X33909900Y-56422290D01*
X33909900Y-62656403D01*
X33921413Y-62763674D01*
X33921413Y-62763675D01*
X33932577Y-62815089D01*
X33932578Y-62815092D01*
X33966592Y-62917480D01*
X34044292Y-63038580D01*
X34090007Y-63091416D01*
X34198668Y-63185713D01*
X34198670Y-63185715D01*
X34329500Y-63245583D01*
X34329503Y-63245584D01*
X34396528Y-63265319D01*
X34396530Y-63265319D01*
X34396531Y-63265319D01*
X34538931Y-63285902D01*
X41225131Y-63290885D01*
X41332781Y-63279372D01*
X41384384Y-63268166D01*
X41487104Y-63233998D01*
X41608143Y-63156210D01*
X41660947Y-63110455D01*
X41755167Y-63001721D01*
X41814938Y-62870844D01*
X41834623Y-62803805D01*
X41834624Y-62803801D01*
X41855100Y-62661385D01*
X41855100Y-60012777D01*
X43473500Y-60012777D01*
X43473500Y-60209622D01*
X43504290Y-60404026D01*
X43565117Y-60591229D01*
X43610069Y-60679451D01*
X43654476Y-60766605D01*
X43770172Y-60925846D01*
X43909354Y-61065028D01*
X44068595Y-61180724D01*
X44151455Y-61222943D01*
X44243970Y-61270082D01*
X44243972Y-61270082D01*
X44243975Y-61270084D01*
X44321486Y-61295269D01*
X44431173Y-61330909D01*
X44625578Y-61361700D01*
X44625583Y-61361700D01*
X44822422Y-61361700D01*
X45016826Y-61330909D01*
X45018328Y-61330421D01*
X45204025Y-61270084D01*
X45379405Y-61180724D01*
X45538646Y-61065028D01*
X45677828Y-60925846D01*
X45793524Y-60766605D01*
X45882884Y-60591225D01*
X45882884Y-60591222D01*
X45883795Y-60589436D01*
X45931769Y-60538640D01*
X45999590Y-60521844D01*
X46065725Y-60544381D01*
X46104765Y-60589435D01*
X46194905Y-60766345D01*
X46220319Y-60801325D01*
X46220320Y-60801325D01*
X46781037Y-60240608D01*
X46798075Y-60304193D01*
X46863901Y-60418207D01*
X46956993Y-60511299D01*
X47071007Y-60577125D01*
X47134590Y-60594162D01*
X46573873Y-61154877D01*
X46573873Y-61154878D01*
X46608858Y-61180296D01*
X46784164Y-61269618D01*
X46971294Y-61330421D01*
X47165618Y-61361200D01*
X47362382Y-61361200D01*
X47556705Y-61330421D01*
X47743835Y-61269618D01*
X47919143Y-61180295D01*
X47954125Y-61154878D01*
X47954126Y-61154878D01*
X47393410Y-60594162D01*
X47456993Y-60577125D01*
X47571007Y-60511299D01*
X47664099Y-60418207D01*
X47729925Y-60304193D01*
X47746962Y-60240609D01*
X48307678Y-60801326D01*
X48307678Y-60801325D01*
X48333097Y-60766341D01*
X48423234Y-60589436D01*
X48471208Y-60538639D01*
X48539029Y-60521844D01*
X48605164Y-60544381D01*
X48644204Y-60589435D01*
X48645115Y-60591224D01*
X48645116Y-60591225D01*
X48734476Y-60766605D01*
X48850172Y-60925846D01*
X48989354Y-61065028D01*
X49148595Y-61180724D01*
X49231455Y-61222943D01*
X49323970Y-61270082D01*
X49323972Y-61270082D01*
X49323975Y-61270084D01*
X49401486Y-61295269D01*
X49511173Y-61330909D01*
X49705578Y-61361700D01*
X49705583Y-61361700D01*
X49902422Y-61361700D01*
X50096826Y-61330909D01*
X50098328Y-61330421D01*
X50284025Y-61270084D01*
X50459405Y-61180724D01*
X50618646Y-61065028D01*
X50757828Y-60925846D01*
X50873524Y-60766605D01*
X50962884Y-60591225D01*
X51023709Y-60404026D01*
X51024793Y-60397184D01*
X51054500Y-60209622D01*
X51054500Y-60012777D01*
X51023709Y-59818373D01*
X50981491Y-59688442D01*
X50962884Y-59631175D01*
X50962882Y-59631172D01*
X50962882Y-59631170D01*
X50882808Y-59474016D01*
X50873524Y-59455795D01*
X50757828Y-59296554D01*
X50618646Y-59157372D01*
X50459405Y-59041676D01*
X50444144Y-59033900D01*
X50284029Y-58952317D01*
X50096826Y-58891490D01*
X49902422Y-58860700D01*
X49902417Y-58860700D01*
X49705583Y-58860700D01*
X49705578Y-58860700D01*
X49511173Y-58891490D01*
X49323970Y-58952317D01*
X49148594Y-59041676D01*
X49068889Y-59099586D01*
X48989354Y-59157372D01*
X48989352Y-59157374D01*
X48989351Y-59157374D01*
X48850174Y-59296551D01*
X48850174Y-59296552D01*
X48850172Y-59296554D01*
X48825455Y-59330574D01*
X48734476Y-59455794D01*
X48644204Y-59632964D01*
X48596229Y-59683760D01*
X48528408Y-59700555D01*
X48462274Y-59678018D01*
X48423234Y-59632964D01*
X48333096Y-59456058D01*
X48307678Y-59421073D01*
X48307677Y-59421073D01*
X47746962Y-59981789D01*
X47729925Y-59918207D01*
X47664099Y-59804193D01*
X47571007Y-59711101D01*
X47456993Y-59645275D01*
X47393409Y-59628237D01*
X47954125Y-59067520D01*
X47954125Y-59067519D01*
X47919145Y-59042105D01*
X47743835Y-58952781D01*
X47556705Y-58891978D01*
X47362382Y-58861200D01*
X47165618Y-58861200D01*
X46971294Y-58891978D01*
X46784161Y-58952782D01*
X46608863Y-59042099D01*
X46608859Y-59042102D01*
X46573873Y-59067520D01*
X46573872Y-59067520D01*
X47134590Y-59628237D01*
X47071007Y-59645275D01*
X46956993Y-59711101D01*
X46863901Y-59804193D01*
X46798075Y-59918207D01*
X46781037Y-59981790D01*
X46220320Y-59421072D01*
X46220320Y-59421073D01*
X46194902Y-59456059D01*
X46104765Y-59632964D01*
X46056790Y-59683760D01*
X45988969Y-59700555D01*
X45922835Y-59678018D01*
X45883795Y-59632963D01*
X45793525Y-59455796D01*
X45741756Y-59384543D01*
X45677828Y-59296554D01*
X45538646Y-59157372D01*
X45379405Y-59041676D01*
X45364144Y-59033900D01*
X45204029Y-58952317D01*
X45016826Y-58891490D01*
X44822422Y-58860700D01*
X44822417Y-58860700D01*
X44625583Y-58860700D01*
X44625578Y-58860700D01*
X44431173Y-58891490D01*
X44243970Y-58952317D01*
X44068594Y-59041676D01*
X43988889Y-59099586D01*
X43909354Y-59157372D01*
X43909352Y-59157374D01*
X43909351Y-59157374D01*
X43770174Y-59296551D01*
X43770174Y-59296552D01*
X43770172Y-59296554D01*
X43745455Y-59330574D01*
X43654476Y-59455794D01*
X43565117Y-59631170D01*
X43504290Y-59818373D01*
X43473500Y-60012777D01*
X41855100Y-60012777D01*
X41855100Y-58090141D01*
X41856320Y-58072788D01*
X41870783Y-57970456D01*
X41870783Y-57970453D01*
X41870784Y-57970449D01*
X41870647Y-57913382D01*
X43055201Y-57913382D01*
X43061608Y-57983902D01*
X43061609Y-57983907D01*
X43112181Y-58146196D01*
X43200127Y-58291677D01*
X43320322Y-58411872D01*
X43465804Y-58499819D01*
X43465803Y-58499819D01*
X43628094Y-58550390D01*
X43628093Y-58550390D01*
X43698608Y-58556798D01*
X43698626Y-58556799D01*
X43705199Y-58556798D01*
X43705200Y-58556798D01*
X43705200Y-57831800D01*
X43055201Y-57831800D01*
X43055201Y-57913382D01*
X41870647Y-57913382D01*
X41861354Y-54037648D01*
X41855035Y-51402892D01*
X41843354Y-51296058D01*
X41832149Y-51244846D01*
X41827411Y-51230638D01*
X41798150Y-51142898D01*
X41720366Y-51021865D01*
X41720357Y-51021854D01*
X41674613Y-50969062D01*
X41674609Y-50969059D01*
X41674607Y-50969056D01*
X41565873Y-50874836D01*
X41565870Y-50874834D01*
X41565868Y-50874833D01*
X41435002Y-50815067D01*
X41434997Y-50815065D01*
X41434996Y-50815065D01*
X41367957Y-50795380D01*
X41367959Y-50795380D01*
X41367954Y-50795379D01*
X41305884Y-50786455D01*
X41225537Y-50774903D01*
X38634723Y-50774903D01*
X38567684Y-50755218D01*
X38521929Y-50702414D01*
X38511985Y-50633256D01*
X38541010Y-50569700D01*
X38576811Y-50542059D01*
X38576560Y-50541624D01*
X38579797Y-50539754D01*
X38579884Y-50539688D01*
X38580084Y-50539589D01*
X38807116Y-50408511D01*
X38807134Y-50408499D01*
X38919965Y-50321919D01*
X38919965Y-50321917D01*
X37979357Y-49381309D01*
X38025174Y-49362332D01*
X38139824Y-49285726D01*
X38237326Y-49188224D01*
X38313932Y-49073574D01*
X38332909Y-49027757D01*
X39273517Y-49968365D01*
X39273519Y-49968365D01*
X39360099Y-49855534D01*
X39360111Y-49855516D01*
X39491190Y-49628482D01*
X39491195Y-49628471D01*
X39591524Y-49386255D01*
X39659377Y-49133020D01*
X39659379Y-49133009D01*
X39693599Y-48873094D01*
X39693600Y-48873080D01*
X39693600Y-48610912D01*
X39693595Y-48610872D01*
X42043100Y-48610872D01*
X42043100Y-48873127D01*
X42065296Y-49041709D01*
X42077330Y-49133116D01*
X42145158Y-49386255D01*
X42145202Y-49386418D01*
X42145205Y-49386428D01*
X42245553Y-49628690D01*
X42245558Y-49628700D01*
X42376675Y-49855803D01*
X42536318Y-50063851D01*
X42536326Y-50063860D01*
X42721740Y-50249274D01*
X42721748Y-50249281D01*
X42721749Y-50249282D01*
X42772430Y-50288171D01*
X42929258Y-50408511D01*
X42929797Y-50408924D01*
X43042700Y-50474108D01*
X43090914Y-50524673D01*
X43104699Y-50581494D01*
X43104699Y-52113626D01*
X43085014Y-52180665D01*
X43079966Y-52187937D01*
X43007403Y-52284868D01*
X43007401Y-52284871D01*
X42957107Y-52419717D01*
X42950700Y-52479316D01*
X42950699Y-52479335D01*
X42950699Y-53552970D01*
X42950700Y-53552976D01*
X42957107Y-53612583D01*
X43007401Y-53747428D01*
X43007405Y-53747435D01*
X43093651Y-53862644D01*
X43093654Y-53862647D01*
X43208863Y-53948893D01*
X43208870Y-53948897D01*
X43230196Y-53956851D01*
X43343716Y-53999191D01*
X43403326Y-54005600D01*
X44007071Y-54005599D01*
X44066682Y-53999191D01*
X44136864Y-53973013D01*
X44158840Y-53971442D01*
X44179974Y-53965195D01*
X44198837Y-53968581D01*
X44206556Y-53968029D01*
X44214918Y-53970155D01*
X44219277Y-53971426D01*
X44293717Y-53999191D01*
X44326590Y-54002725D01*
X44337129Y-54005799D01*
X44357673Y-54018949D01*
X44380213Y-54028285D01*
X44386577Y-54037451D01*
X44395976Y-54043467D01*
X44406150Y-54065639D01*
X44420063Y-54085676D01*
X44420461Y-54096826D01*
X44425116Y-54106970D01*
X44421687Y-54131125D01*
X44422559Y-54155501D01*
X44416790Y-54165631D01*
X44415298Y-54176146D01*
X44402095Y-54191438D01*
X44390091Y-54212520D01*
X43881731Y-54720881D01*
X43820408Y-54754366D01*
X43794050Y-54757200D01*
X43403328Y-54757200D01*
X43403322Y-54757201D01*
X43343715Y-54763608D01*
X43208870Y-54813902D01*
X43208863Y-54813906D01*
X43093654Y-54900152D01*
X43093651Y-54900155D01*
X43007405Y-55015364D01*
X43007401Y-55015371D01*
X42957107Y-55150217D01*
X42954064Y-55178526D01*
X42950700Y-55209823D01*
X42950699Y-55209835D01*
X42950699Y-56283470D01*
X42950700Y-56283476D01*
X42957107Y-56343083D01*
X43007401Y-56477928D01*
X43007405Y-56477935D01*
X43093651Y-56593144D01*
X43093654Y-56593147D01*
X43199413Y-56672319D01*
X43241284Y-56728253D01*
X43246268Y-56797944D01*
X43212786Y-56859264D01*
X43200126Y-56871923D01*
X43112180Y-57017404D01*
X43061609Y-57179693D01*
X43055200Y-57250227D01*
X43055200Y-57331800D01*
X43831200Y-57331800D01*
X43898239Y-57351485D01*
X43943994Y-57404289D01*
X43955200Y-57455800D01*
X43955200Y-57581800D01*
X44081200Y-57581800D01*
X44148239Y-57601485D01*
X44193994Y-57654289D01*
X44205200Y-57705800D01*
X44205200Y-58556799D01*
X44211781Y-58556799D01*
X44282302Y-58550391D01*
X44282307Y-58550390D01*
X44444596Y-58499818D01*
X44590077Y-58411872D01*
X44590078Y-58411871D01*
X44692163Y-58309785D01*
X44753486Y-58276299D01*
X44823177Y-58281283D01*
X44867526Y-58309784D01*
X44970011Y-58412269D01*
X44970013Y-58412270D01*
X44970015Y-58412272D01*
X45115594Y-58500278D01*
X45278004Y-58550886D01*
X45348584Y-58557300D01*
X45348587Y-58557300D01*
X45861813Y-58557300D01*
X45861816Y-58557300D01*
X45932396Y-58550886D01*
X46094806Y-58500278D01*
X46099929Y-58497181D01*
X68758500Y-58497181D01*
X68758500Y-58671618D01*
X68792527Y-58842683D01*
X68792529Y-58842691D01*
X68859278Y-59003839D01*
X68859283Y-59003848D01*
X68956186Y-59148873D01*
X68956189Y-59148877D01*
X69079522Y-59272210D01*
X69079526Y-59272213D01*
X69224551Y-59369116D01*
X69224560Y-59369121D01*
X69261066Y-59384242D01*
X69385709Y-59435871D01*
X69532474Y-59465064D01*
X69556781Y-59469899D01*
X69556785Y-59469900D01*
X69556786Y-59469900D01*
X69731215Y-59469900D01*
X69731216Y-59469899D01*
X69902291Y-59435871D01*
X70063442Y-59369120D01*
X70208474Y-59272213D01*
X70331813Y-59148874D01*
X70428720Y-59003842D01*
X70495471Y-58842691D01*
X70529500Y-58671614D01*
X70529500Y-58497186D01*
X70495471Y-58326109D01*
X70428720Y-58164958D01*
X70428719Y-58164957D01*
X70428716Y-58164951D01*
X70331813Y-58019926D01*
X70331810Y-58019922D01*
X70208477Y-57896589D01*
X70208473Y-57896586D01*
X70063448Y-57799683D01*
X70063439Y-57799678D01*
X69902291Y-57732929D01*
X69902283Y-57732927D01*
X69731218Y-57698900D01*
X69731214Y-57698900D01*
X69556786Y-57698900D01*
X69556781Y-57698900D01*
X69385716Y-57732927D01*
X69385708Y-57732929D01*
X69224560Y-57799678D01*
X69224551Y-57799683D01*
X69079526Y-57896586D01*
X69079522Y-57896589D01*
X68956189Y-58019922D01*
X68956186Y-58019926D01*
X68859283Y-58164951D01*
X68859278Y-58164960D01*
X68792529Y-58326108D01*
X68792527Y-58326116D01*
X68758500Y-58497181D01*
X46099929Y-58497181D01*
X46240385Y-58412272D01*
X46240786Y-58411871D01*
X46249245Y-58403413D01*
X46360668Y-58291989D01*
X46360669Y-58291988D01*
X46360672Y-58291985D01*
X46448678Y-58146406D01*
X46499286Y-57983996D01*
X46505700Y-57913416D01*
X46505700Y-57379982D01*
X48719401Y-57379982D01*
X48725808Y-57450502D01*
X48725809Y-57450507D01*
X48776381Y-57612796D01*
X48864327Y-57758277D01*
X48984522Y-57878472D01*
X49130004Y-57966419D01*
X49130003Y-57966419D01*
X49292294Y-58016990D01*
X49292293Y-58016990D01*
X49362808Y-58023398D01*
X49362826Y-58023399D01*
X49369399Y-58023398D01*
X49369400Y-58023398D01*
X49369400Y-57298400D01*
X48719401Y-57298400D01*
X48719401Y-57379982D01*
X46505700Y-57379982D01*
X46505700Y-57250184D01*
X46499286Y-57179604D01*
X46448678Y-57017194D01*
X46396868Y-56931491D01*
X46379034Y-56863941D01*
X46381369Y-56843160D01*
X46402665Y-56736099D01*
X46405700Y-56720844D01*
X46405700Y-56563155D01*
X46405699Y-56563153D01*
X46399625Y-56532617D01*
X46374937Y-56408503D01*
X46374785Y-56408137D01*
X46364280Y-56382775D01*
X46355551Y-56322066D01*
X46359701Y-56283473D01*
X46359700Y-55209828D01*
X46353292Y-55150217D01*
X46302997Y-55015369D01*
X46302996Y-55015368D01*
X46302994Y-55015364D01*
X46216748Y-54900155D01*
X46216745Y-54900152D01*
X46101536Y-54813906D01*
X46101529Y-54813902D01*
X45966683Y-54763608D01*
X45966684Y-54763608D01*
X45907084Y-54757201D01*
X45907082Y-54757200D01*
X45907074Y-54757200D01*
X45907066Y-54757200D01*
X45843246Y-54757200D01*
X45776207Y-54737515D01*
X45730452Y-54684711D01*
X45720508Y-54615553D01*
X45749533Y-54551997D01*
X45755565Y-54545519D01*
X45809469Y-54491615D01*
X46085721Y-54215364D01*
X46164778Y-54078432D01*
X46205702Y-53925705D01*
X46205702Y-53918672D01*
X46210275Y-53902338D01*
X46209882Y-53886746D01*
X46221142Y-53863523D01*
X46223730Y-53854283D01*
X46226843Y-53849158D01*
X46302997Y-53747431D01*
X46325795Y-53686303D01*
X46331898Y-53676261D01*
X46349380Y-53660323D01*
X46363558Y-53641384D01*
X46374726Y-53637218D01*
X46383533Y-53629190D01*
X46406854Y-53625234D01*
X46429022Y-53616966D01*
X46437870Y-53616650D01*
X48534582Y-53616650D01*
X48601621Y-53636335D01*
X48647376Y-53689139D01*
X48652962Y-53703747D01*
X48699722Y-53853806D01*
X48787728Y-53999385D01*
X48908015Y-54119672D01*
X48959048Y-54150522D01*
X48966314Y-54158456D01*
X48976103Y-54162927D01*
X48989500Y-54183773D01*
X49006237Y-54202049D01*
X49009056Y-54214204D01*
X49013877Y-54221705D01*
X49018900Y-54256640D01*
X49018900Y-54277680D01*
X48999215Y-54344719D01*
X48982581Y-54365361D01*
X48863931Y-54484010D01*
X48863930Y-54484011D01*
X48775922Y-54629593D01*
X48725313Y-54792007D01*
X48718900Y-54862586D01*
X48718900Y-55525813D01*
X48725313Y-55596392D01*
X48725313Y-55596394D01*
X48725314Y-55596396D01*
X48775922Y-55758806D01*
X48849156Y-55879950D01*
X48863930Y-55904388D01*
X48989518Y-56029976D01*
X48988418Y-56031075D01*
X49023999Y-56080842D01*
X49027456Y-56150626D01*
X48992635Y-56211201D01*
X48985244Y-56217605D01*
X48864327Y-56338522D01*
X48776380Y-56484004D01*
X48725809Y-56646293D01*
X48719400Y-56716827D01*
X48719400Y-56798400D01*
X49495400Y-56798400D01*
X49562439Y-56818085D01*
X49608194Y-56870889D01*
X49619400Y-56922400D01*
X49619400Y-57048400D01*
X49745400Y-57048400D01*
X49812439Y-57068085D01*
X49858194Y-57120889D01*
X49869400Y-57172400D01*
X49869400Y-58023399D01*
X49875981Y-58023399D01*
X49946502Y-58016991D01*
X49946507Y-58016990D01*
X50108796Y-57966418D01*
X50254277Y-57878472D01*
X50254278Y-57878471D01*
X50356363Y-57776385D01*
X50417686Y-57742899D01*
X50487377Y-57747883D01*
X50531726Y-57776384D01*
X50634211Y-57878869D01*
X50634213Y-57878870D01*
X50634215Y-57878872D01*
X50779794Y-57966878D01*
X50942204Y-58017486D01*
X51012784Y-58023900D01*
X51012787Y-58023900D01*
X51526013Y-58023900D01*
X51526016Y-58023900D01*
X51596596Y-58017486D01*
X51759006Y-57966878D01*
X51904585Y-57878872D01*
X52024872Y-57758585D01*
X52112878Y-57613006D01*
X52149967Y-57493982D01*
X65050801Y-57493982D01*
X65057208Y-57564502D01*
X65057209Y-57564507D01*
X65107781Y-57726796D01*
X65195727Y-57872277D01*
X65315922Y-57992472D01*
X65461404Y-58080419D01*
X65461403Y-58080419D01*
X65623694Y-58130990D01*
X65623693Y-58130990D01*
X65694208Y-58137398D01*
X65694226Y-58137399D01*
X65700799Y-58137398D01*
X65700800Y-58137398D01*
X65700800Y-57412400D01*
X65050801Y-57412400D01*
X65050801Y-57493982D01*
X52149967Y-57493982D01*
X52163486Y-57450596D01*
X52169900Y-57380016D01*
X52169900Y-56830827D01*
X65050800Y-56830827D01*
X65050800Y-56912400D01*
X65700800Y-56912400D01*
X65700800Y-56187400D01*
X65700799Y-56187399D01*
X65694236Y-56187400D01*
X65694217Y-56187401D01*
X65623697Y-56193808D01*
X65623692Y-56193809D01*
X65461403Y-56244381D01*
X65315922Y-56332327D01*
X65195727Y-56452522D01*
X65107780Y-56598004D01*
X65057209Y-56760293D01*
X65050800Y-56830827D01*
X52169900Y-56830827D01*
X52169900Y-56716784D01*
X52163486Y-56646204D01*
X52112878Y-56483794D01*
X52024872Y-56338215D01*
X52024870Y-56338213D01*
X52024869Y-56338211D01*
X51906219Y-56219561D01*
X51891515Y-56192633D01*
X51874923Y-56166815D01*
X51874031Y-56160614D01*
X51872734Y-56158238D01*
X51869900Y-56131880D01*
X51869900Y-56110719D01*
X51889585Y-56043680D01*
X51906219Y-56023038D01*
X52027019Y-55902238D01*
X52088342Y-55868753D01*
X52158034Y-55873737D01*
X52202382Y-55902239D01*
X52236611Y-55936468D01*
X52236611Y-55936469D01*
X52236613Y-55936470D01*
X52236615Y-55936472D01*
X52382194Y-56024478D01*
X52544604Y-56075086D01*
X52615184Y-56081500D01*
X52615187Y-56081500D01*
X53278413Y-56081500D01*
X53278416Y-56081500D01*
X53348996Y-56075086D01*
X53511406Y-56024478D01*
X53656985Y-55936472D01*
X53713507Y-55879950D01*
X53775639Y-55817819D01*
X53836962Y-55784334D01*
X53863320Y-55781500D01*
X54921184Y-55781500D01*
X54988223Y-55801185D01*
X55024286Y-55836608D01*
X55031845Y-55847921D01*
X55174682Y-55990758D01*
X55342638Y-56102982D01*
X55342642Y-56102984D01*
X55342645Y-56102986D01*
X55529274Y-56180291D01*
X55726699Y-56219561D01*
X55727393Y-56219699D01*
X55727397Y-56219700D01*
X55727398Y-56219700D01*
X56379405Y-56219700D01*
X56379406Y-56219699D01*
X56577528Y-56180291D01*
X56764157Y-56102986D01*
X56932119Y-55990758D01*
X57074959Y-55847918D01*
X57187187Y-55679956D01*
X57264492Y-55493327D01*
X57303901Y-55295203D01*
X57303901Y-55093197D01*
X57264492Y-54895073D01*
X57187187Y-54708444D01*
X57187184Y-54708440D01*
X57186498Y-54707155D01*
X57186341Y-54706401D01*
X57184856Y-54702816D01*
X57185535Y-54702534D01*
X57172256Y-54638753D01*
X57197255Y-54573509D01*
X57253560Y-54532138D01*
X57295856Y-54524701D01*
X58272304Y-54524701D01*
X58339343Y-54544386D01*
X58359985Y-54561020D01*
X59382939Y-55583974D01*
X59382949Y-55583985D01*
X59387279Y-55588315D01*
X59387280Y-55588316D01*
X59499084Y-55700120D01*
X59571005Y-55741643D01*
X59636015Y-55779177D01*
X59788743Y-55820101D01*
X59788746Y-55820101D01*
X59954453Y-55820101D01*
X59954469Y-55820100D01*
X60767285Y-55820100D01*
X60834324Y-55839785D01*
X60873401Y-55879949D01*
X60903342Y-55929477D01*
X60903530Y-55929788D01*
X61023811Y-56050069D01*
X61023813Y-56050070D01*
X61023815Y-56050072D01*
X61169394Y-56138078D01*
X61331804Y-56188686D01*
X61402384Y-56195100D01*
X61402387Y-56195100D01*
X61915613Y-56195100D01*
X61915616Y-56195100D01*
X61986196Y-56188686D01*
X62148606Y-56138078D01*
X62294185Y-56050072D01*
X62396673Y-55947583D01*
X62457994Y-55914099D01*
X62527685Y-55919083D01*
X62572034Y-55947584D01*
X62674122Y-56049672D01*
X62819604Y-56137619D01*
X62819603Y-56137619D01*
X62981894Y-56188190D01*
X62981893Y-56188190D01*
X63052408Y-56194598D01*
X63052426Y-56194599D01*
X63559000Y-56194599D01*
X63565581Y-56194599D01*
X63636102Y-56188191D01*
X63636107Y-56188190D01*
X63798396Y-56137618D01*
X63943877Y-56049672D01*
X64064072Y-55929477D01*
X64152019Y-55783995D01*
X64202590Y-55621706D01*
X64209000Y-55551172D01*
X64209000Y-55469600D01*
X63559000Y-55469600D01*
X63559000Y-56194599D01*
X63052426Y-56194599D01*
X63058999Y-56194598D01*
X63059000Y-56194598D01*
X63059000Y-54969600D01*
X63559000Y-54969600D01*
X64208999Y-54969600D01*
X64208999Y-54888017D01*
X64202591Y-54817497D01*
X64202590Y-54817492D01*
X64152018Y-54655203D01*
X64064072Y-54509722D01*
X63943877Y-54389527D01*
X63798395Y-54301580D01*
X63798396Y-54301580D01*
X63636105Y-54251009D01*
X63636106Y-54251009D01*
X63565572Y-54244600D01*
X63559000Y-54244600D01*
X63559000Y-54969600D01*
X63059000Y-54969600D01*
X63059000Y-54244600D01*
X63058999Y-54244599D01*
X63052436Y-54244600D01*
X63052417Y-54244601D01*
X62981897Y-54251008D01*
X62981892Y-54251009D01*
X62819603Y-54301581D01*
X62674122Y-54389527D01*
X62674121Y-54389528D01*
X62572035Y-54491615D01*
X62510712Y-54525100D01*
X62441020Y-54520116D01*
X62396673Y-54491615D01*
X62294188Y-54389130D01*
X62287025Y-54384800D01*
X62148606Y-54301122D01*
X61986196Y-54250514D01*
X61986194Y-54250513D01*
X61986192Y-54250513D01*
X61936778Y-54246023D01*
X61915616Y-54244100D01*
X61402384Y-54244100D01*
X61383145Y-54245848D01*
X61331807Y-54250513D01*
X61169393Y-54301122D01*
X61023811Y-54389130D01*
X60903530Y-54509411D01*
X60889791Y-54532138D01*
X60881524Y-54545815D01*
X60873402Y-54559250D01*
X60821874Y-54606438D01*
X60767285Y-54619100D01*
X60167897Y-54619100D01*
X60100858Y-54599415D01*
X60080216Y-54582781D01*
X59059991Y-53562556D01*
X59059989Y-53562553D01*
X58941118Y-53443682D01*
X58941117Y-53443681D01*
X58854305Y-53393561D01*
X58854305Y-53393560D01*
X58854301Y-53393559D01*
X58804186Y-53364624D01*
X58651458Y-53323700D01*
X58493344Y-53323700D01*
X58485748Y-53323700D01*
X58485732Y-53323701D01*
X57427901Y-53323701D01*
X57360862Y-53304016D01*
X57315107Y-53251212D01*
X57303901Y-53199701D01*
X57303901Y-52845300D01*
X57323586Y-52778261D01*
X57376390Y-52732506D01*
X57427901Y-52721300D01*
X58799285Y-52721300D01*
X58866324Y-52740985D01*
X58905401Y-52781149D01*
X58929273Y-52820638D01*
X58935530Y-52830988D01*
X59055811Y-52951269D01*
X59055813Y-52951270D01*
X59055815Y-52951272D01*
X59201394Y-53039278D01*
X59363804Y-53089886D01*
X59434384Y-53096300D01*
X59434387Y-53096300D01*
X59947613Y-53096300D01*
X59947616Y-53096300D01*
X60018196Y-53089886D01*
X60180606Y-53039278D01*
X60326185Y-52951272D01*
X60363109Y-52914348D01*
X60428319Y-52849139D01*
X60489642Y-52815654D01*
X60559334Y-52820638D01*
X60603681Y-52849139D01*
X60705811Y-52951269D01*
X60705813Y-52951270D01*
X60705815Y-52951272D01*
X60851394Y-53039278D01*
X61013804Y-53089886D01*
X61084384Y-53096300D01*
X61084387Y-53096300D01*
X61597613Y-53096300D01*
X61597616Y-53096300D01*
X61668196Y-53089886D01*
X61830606Y-53039278D01*
X61976185Y-52951272D01*
X62013109Y-52914348D01*
X62079319Y-52848139D01*
X62140642Y-52814654D01*
X62210334Y-52819638D01*
X62254681Y-52848139D01*
X62357811Y-52951269D01*
X62357813Y-52951270D01*
X62357815Y-52951272D01*
X62503394Y-53039278D01*
X62665804Y-53089886D01*
X62736384Y-53096300D01*
X62736387Y-53096300D01*
X63249613Y-53096300D01*
X63249616Y-53096300D01*
X63320196Y-53089886D01*
X63482606Y-53039278D01*
X63628185Y-52951272D01*
X63665109Y-52914348D01*
X63730319Y-52849139D01*
X63791642Y-52815654D01*
X63861334Y-52820638D01*
X63905681Y-52849139D01*
X64007811Y-52951269D01*
X64007813Y-52951270D01*
X64007815Y-52951272D01*
X64153394Y-53039278D01*
X64315804Y-53089886D01*
X64386384Y-53096300D01*
X64386387Y-53096300D01*
X64899613Y-53096300D01*
X64899616Y-53096300D01*
X64970196Y-53089886D01*
X65132606Y-53039278D01*
X65278185Y-52951272D01*
X65398472Y-52830985D01*
X65486478Y-52685406D01*
X65537086Y-52522996D01*
X65543500Y-52452416D01*
X65543500Y-51789184D01*
X65537086Y-51718604D01*
X65486478Y-51556194D01*
X65398472Y-51410615D01*
X65398470Y-51410613D01*
X65398469Y-51410611D01*
X65279819Y-51291961D01*
X65246334Y-51230638D01*
X65243500Y-51204280D01*
X65243500Y-50047627D01*
X65263185Y-49980588D01*
X65315989Y-49934833D01*
X65385147Y-49924889D01*
X65415418Y-49934824D01*
X65415930Y-49933589D01*
X65421558Y-49935920D01*
X65582709Y-50002671D01*
X65753781Y-50036699D01*
X65753785Y-50036700D01*
X65753786Y-50036700D01*
X65928215Y-50036700D01*
X65928216Y-50036699D01*
X66099291Y-50002671D01*
X66260442Y-49935920D01*
X66340910Y-49882152D01*
X66407585Y-49861276D01*
X66474965Y-49879760D01*
X66521656Y-49931739D01*
X66533799Y-49985256D01*
X66533799Y-51748675D01*
X66525981Y-51792008D01*
X66476707Y-51924117D01*
X66470300Y-51983716D01*
X66470299Y-51983735D01*
X66470299Y-53057370D01*
X66470300Y-53057376D01*
X66476707Y-53116983D01*
X66527001Y-53251828D01*
X66527005Y-53251835D01*
X66613251Y-53367044D01*
X66613254Y-53367047D01*
X66728463Y-53453293D01*
X66728470Y-53453297D01*
X66773015Y-53469911D01*
X66863316Y-53503591D01*
X66922926Y-53510000D01*
X67526671Y-53509999D01*
X67586282Y-53503591D01*
X67656464Y-53477413D01*
X67682821Y-53475528D01*
X67708651Y-53469911D01*
X67721691Y-53472748D01*
X67726156Y-53472429D01*
X67743130Y-53477412D01*
X67754209Y-53481545D01*
X67764892Y-53485530D01*
X67820824Y-53527404D01*
X67845237Y-53592870D01*
X67830382Y-53661142D01*
X67809234Y-53689391D01*
X67273344Y-54225281D01*
X67212021Y-54258766D01*
X67185663Y-54261600D01*
X66922929Y-54261600D01*
X66922922Y-54261601D01*
X66863315Y-54268008D01*
X66728470Y-54318302D01*
X66728463Y-54318306D01*
X66613254Y-54404552D01*
X66613251Y-54404555D01*
X66527005Y-54519764D01*
X66527001Y-54519771D01*
X66476707Y-54654617D01*
X66470300Y-54714216D01*
X66470299Y-54714235D01*
X66470299Y-55787870D01*
X66470300Y-55787876D01*
X66476707Y-55847483D01*
X66527001Y-55982328D01*
X66527003Y-55982331D01*
X66579702Y-56052728D01*
X66604120Y-56118191D01*
X66589269Y-56186465D01*
X66539864Y-56235870D01*
X66471591Y-56250723D01*
X66443546Y-56245425D01*
X66277901Y-56193808D01*
X66207372Y-56187400D01*
X66200800Y-56187400D01*
X66200800Y-58137399D01*
X66207381Y-58137399D01*
X66277902Y-58130991D01*
X66277907Y-58130990D01*
X66440196Y-58080418D01*
X66585677Y-57992472D01*
X66585678Y-57992471D01*
X66687763Y-57890385D01*
X66749086Y-57856899D01*
X66818777Y-57861883D01*
X66863126Y-57890384D01*
X66965611Y-57992869D01*
X66965613Y-57992870D01*
X66965615Y-57992872D01*
X67111194Y-58080878D01*
X67273604Y-58131486D01*
X67344184Y-58137900D01*
X67344187Y-58137900D01*
X67857413Y-58137900D01*
X67857416Y-58137900D01*
X67927996Y-58131486D01*
X68090406Y-58080878D01*
X68235985Y-57992872D01*
X68356272Y-57872585D01*
X68444278Y-57727006D01*
X68494886Y-57564596D01*
X68501300Y-57494016D01*
X68501300Y-56910030D01*
X68520985Y-56842991D01*
X68573789Y-56797236D01*
X68582291Y-56794021D01*
X68587019Y-56792062D01*
X68587022Y-56792062D01*
X68732704Y-56731719D01*
X68863814Y-56644114D01*
X68975314Y-56532614D01*
X69062919Y-56401504D01*
X69062920Y-56401501D01*
X69062922Y-56401498D01*
X69097902Y-56317047D01*
X69141742Y-56262643D01*
X69208036Y-56240578D01*
X69212463Y-56240499D01*
X69426672Y-56240499D01*
X69426673Y-56240499D01*
X69486284Y-56234091D01*
X69507268Y-56226263D01*
X69576959Y-56221278D01*
X69638283Y-56254762D01*
X69643707Y-56260186D01*
X69643711Y-56260189D01*
X69774814Y-56347790D01*
X69774827Y-56347797D01*
X69859273Y-56382775D01*
X69920503Y-56408137D01*
X70075153Y-56438899D01*
X70075156Y-56438900D01*
X70075158Y-56438900D01*
X70232844Y-56438900D01*
X70232845Y-56438899D01*
X70387497Y-56408137D01*
X70503713Y-56359999D01*
X70533172Y-56347797D01*
X70533172Y-56347796D01*
X70533179Y-56347794D01*
X70664289Y-56260189D01*
X70775789Y-56148689D01*
X70863394Y-56017579D01*
X70923737Y-55871897D01*
X70954500Y-55717242D01*
X70954500Y-55559558D01*
X70954500Y-55559555D01*
X70954499Y-55559553D01*
X70936606Y-55469600D01*
X70923737Y-55404903D01*
X70894700Y-55334800D01*
X70863397Y-55259227D01*
X70863390Y-55259214D01*
X70775789Y-55128111D01*
X70775786Y-55128107D01*
X70664292Y-55016613D01*
X70664288Y-55016610D01*
X70533185Y-54929009D01*
X70533172Y-54929002D01*
X70387498Y-54868663D01*
X70381662Y-54866893D01*
X70382369Y-54864561D01*
X70329958Y-54837109D01*
X70328428Y-54835605D01*
X70207139Y-54714316D01*
X70093957Y-54638691D01*
X69968209Y-54586605D01*
X69968203Y-54586603D01*
X69902507Y-54573535D01*
X69840596Y-54541149D01*
X69827434Y-54526229D01*
X69736348Y-54404555D01*
X69736345Y-54404552D01*
X69621136Y-54318306D01*
X69621129Y-54318302D01*
X69486284Y-54268008D01*
X69471991Y-54266472D01*
X69407440Y-54239733D01*
X69367593Y-54182340D01*
X69365100Y-54112515D01*
X69397565Y-54055504D01*
X69661536Y-53791534D01*
X69737157Y-53678359D01*
X69789246Y-53552605D01*
X69802004Y-53488465D01*
X69815801Y-53419106D01*
X69815801Y-53329895D01*
X69816315Y-53324269D01*
X69827173Y-53296821D01*
X69835486Y-53268511D01*
X69839877Y-53264705D01*
X69842017Y-53259298D01*
X69865992Y-53242076D01*
X69888290Y-53222756D01*
X69894890Y-53221320D01*
X69898765Y-53218537D01*
X69910466Y-53217931D01*
X69939801Y-53211550D01*
X71341910Y-53211550D01*
X71431720Y-53193684D01*
X71475407Y-53184995D01*
X71601161Y-53132906D01*
X71609038Y-53127643D01*
X71714337Y-53057285D01*
X71885203Y-52886419D01*
X71946526Y-52852934D01*
X71972884Y-52850100D01*
X72176413Y-52850100D01*
X72176416Y-52850100D01*
X72246996Y-52843686D01*
X72409406Y-52793078D01*
X72554985Y-52705072D01*
X72657120Y-52602936D01*
X72665065Y-52598598D01*
X72670490Y-52591352D01*
X72695246Y-52582118D01*
X72718441Y-52569453D01*
X72727471Y-52570098D01*
X72735954Y-52566935D01*
X72761774Y-52572551D01*
X72788133Y-52574437D01*
X72797186Y-52580255D01*
X72804227Y-52581787D01*
X72832481Y-52602938D01*
X72842481Y-52612938D01*
X72875966Y-52674261D01*
X72878800Y-52700619D01*
X72878800Y-58909900D01*
X72859115Y-58976939D01*
X72806311Y-59022694D01*
X72754800Y-59033900D01*
X72093984Y-59033900D01*
X71991204Y-59044400D01*
X71991203Y-59044401D01*
X71824664Y-59099586D01*
X71824662Y-59099587D01*
X71675348Y-59191686D01*
X71675344Y-59191689D01*
X71551289Y-59315744D01*
X71551286Y-59315748D01*
X71459187Y-59465062D01*
X71459186Y-59465064D01*
X71404001Y-59631603D01*
X71404000Y-59631604D01*
X71393500Y-59734384D01*
X71393500Y-61354415D01*
X71404000Y-61457195D01*
X71404001Y-61457197D01*
X71431593Y-61540465D01*
X71459186Y-61623735D01*
X71459187Y-61623737D01*
X71551286Y-61773051D01*
X71551289Y-61773055D01*
X71675344Y-61897110D01*
X71675348Y-61897113D01*
X71824662Y-61989212D01*
X71824664Y-61989213D01*
X71824666Y-61989214D01*
X71991203Y-62044399D01*
X72093992Y-62054900D01*
X72093997Y-62054900D01*
X73194003Y-62054900D01*
X73194008Y-62054900D01*
X73296797Y-62044399D01*
X73463334Y-61989214D01*
X73612655Y-61897111D01*
X73736711Y-61773055D01*
X73828814Y-61623734D01*
X73883999Y-61457197D01*
X73894500Y-61354408D01*
X73894500Y-60322483D01*
X73914185Y-60255444D01*
X73930819Y-60234802D01*
X74106532Y-60059089D01*
X74106535Y-60059086D01*
X74182156Y-59945911D01*
X74184979Y-59939094D01*
X74228818Y-59884689D01*
X74295112Y-59862622D01*
X74362812Y-59879899D01*
X74410424Y-59931034D01*
X74422832Y-59999793D01*
X74422015Y-60005941D01*
X74393500Y-60185977D01*
X74393500Y-60902822D01*
X74424290Y-61097226D01*
X74485117Y-61284429D01*
X74559665Y-61430737D01*
X74574476Y-61459805D01*
X74690172Y-61619046D01*
X74829354Y-61758228D01*
X74988595Y-61873924D01*
X75071455Y-61916143D01*
X75163970Y-61963282D01*
X75163972Y-61963282D01*
X75163975Y-61963284D01*
X75243773Y-61989212D01*
X75351173Y-62024109D01*
X75545578Y-62054900D01*
X75545583Y-62054900D01*
X75742422Y-62054900D01*
X75936826Y-62024109D01*
X76124025Y-61963284D01*
X76299405Y-61873924D01*
X76458646Y-61758228D01*
X76597828Y-61619046D01*
X76713524Y-61459805D01*
X76802884Y-61284425D01*
X76863709Y-61097226D01*
X76875950Y-61019938D01*
X76894500Y-60902822D01*
X76894500Y-60322483D01*
X76914185Y-60255444D01*
X76930815Y-60234806D01*
X77201532Y-59964089D01*
X77262852Y-59930606D01*
X77332543Y-59935590D01*
X77388477Y-59977461D01*
X77412894Y-60042926D01*
X77411683Y-60071169D01*
X77393500Y-60185976D01*
X77393500Y-60902822D01*
X77424290Y-61097226D01*
X77485117Y-61284429D01*
X77559665Y-61430737D01*
X77574476Y-61459805D01*
X77690172Y-61619046D01*
X77829354Y-61758228D01*
X77988595Y-61873924D01*
X78071455Y-61916143D01*
X78163970Y-61963282D01*
X78163972Y-61963282D01*
X78163975Y-61963284D01*
X78243773Y-61989212D01*
X78351173Y-62024109D01*
X78545578Y-62054900D01*
X78545583Y-62054900D01*
X78742422Y-62054900D01*
X78936826Y-62024109D01*
X79124025Y-61963284D01*
X79299405Y-61873924D01*
X79458646Y-61758228D01*
X79597828Y-61619046D01*
X79713524Y-61459805D01*
X79793366Y-61303104D01*
X79841340Y-61252309D01*
X79903851Y-61235400D01*
X82947780Y-61235400D01*
X83014819Y-61255085D01*
X83035461Y-61271719D01*
X83059011Y-61295269D01*
X83059013Y-61295270D01*
X83059015Y-61295272D01*
X83204594Y-61383278D01*
X83367004Y-61433886D01*
X83437584Y-61440300D01*
X83437587Y-61440300D01*
X84100813Y-61440300D01*
X84100816Y-61440300D01*
X84171396Y-61433886D01*
X84333806Y-61383278D01*
X84479385Y-61295272D01*
X84599672Y-61174985D01*
X84687678Y-61029406D01*
X84738286Y-60866996D01*
X84744700Y-60796416D01*
X84744700Y-60283184D01*
X84738286Y-60212604D01*
X84687678Y-60050194D01*
X84599672Y-59904615D01*
X84599670Y-59904613D01*
X84599669Y-59904611D01*
X84497538Y-59802480D01*
X84493197Y-59794530D01*
X84485944Y-59789100D01*
X84476712Y-59764340D01*
X84464053Y-59741157D01*
X84464699Y-59732121D01*
X84461534Y-59723633D01*
X84467152Y-59697818D01*
X84469037Y-59671465D01*
X84474859Y-59662406D01*
X84476393Y-59655361D01*
X84497544Y-59627112D01*
X84502547Y-59622109D01*
X84507548Y-59617110D01*
X84568874Y-59583631D01*
X84595220Y-59580800D01*
X88890860Y-59580800D01*
X88980670Y-59562934D01*
X89024357Y-59554245D01*
X89150111Y-59502156D01*
X89263287Y-59426535D01*
X94224135Y-54465687D01*
X94299756Y-54352511D01*
X94306613Y-54335958D01*
X94319834Y-54304038D01*
X94351845Y-54226757D01*
X94361230Y-54179575D01*
X94371187Y-54129519D01*
X94378400Y-54093260D01*
X94378400Y-52844619D01*
X94387046Y-52815171D01*
X94393571Y-52785187D01*
X94397322Y-52780175D01*
X94398085Y-52777580D01*
X94414723Y-52756934D01*
X94425743Y-52745915D01*
X94487067Y-52712433D01*
X94513420Y-52709600D01*
X95838260Y-52709600D01*
X95946947Y-52687980D01*
X95971757Y-52683045D01*
X96081932Y-52637409D01*
X96097509Y-52630957D01*
X96097512Y-52630955D01*
X96210687Y-52555335D01*
X97817935Y-50948086D01*
X97893556Y-50834911D01*
X97894851Y-50831786D01*
X97905358Y-50806417D01*
X97945645Y-50709157D01*
X97961032Y-50631797D01*
X97971385Y-50579757D01*
X97971386Y-50579750D01*
X97972200Y-50575658D01*
X97972200Y-43784739D01*
X97945646Y-43651248D01*
X97945645Y-43651247D01*
X97945645Y-43651243D01*
X97901305Y-43544196D01*
X97893557Y-43525490D01*
X97893555Y-43525487D01*
X97817936Y-43412314D01*
X97817930Y-43412307D01*
X97207042Y-42801419D01*
X97207035Y-42801413D01*
X97093862Y-42725794D01*
X97093859Y-42725792D01*
X96968111Y-42673706D01*
X96968099Y-42673703D01*
X96891838Y-42658534D01*
X96891837Y-42658533D01*
X96863223Y-42652842D01*
X96834609Y-42647150D01*
X96834608Y-42647150D01*
X96611021Y-42647150D01*
X96606638Y-42645863D01*
X96602176Y-42646834D01*
X96573419Y-42636108D01*
X96543982Y-42627465D01*
X96539797Y-42623569D01*
X96536711Y-42622418D01*
X96511755Y-42597461D01*
X96496333Y-42576860D01*
X96481038Y-42550001D01*
X96433360Y-42434895D01*
X96433353Y-42434882D01*
X96357736Y-42321714D01*
X96357733Y-42321710D01*
X91341618Y-37305595D01*
X91308133Y-37244272D01*
X91305299Y-37217914D01*
X91305299Y-36964998D01*
X91305298Y-36964981D01*
X91294799Y-36862203D01*
X91294798Y-36862200D01*
X91251574Y-36731760D01*
X91239614Y-36695666D01*
X91147512Y-36546344D01*
X91023456Y-36422288D01*
X90895799Y-36343549D01*
X90874136Y-36330187D01*
X90874131Y-36330185D01*
X90867326Y-36327930D01*
X90707597Y-36275001D01*
X90707595Y-36275000D01*
X90604810Y-36264500D01*
X89804798Y-36264500D01*
X89804780Y-36264501D01*
X89702003Y-36275000D01*
X89702000Y-36275001D01*
X89535468Y-36330185D01*
X89535463Y-36330187D01*
X89386142Y-36422289D01*
X89292481Y-36515951D01*
X89289588Y-36517530D01*
X89287862Y-36520339D01*
X89259131Y-36534161D01*
X89231158Y-36549436D01*
X89227870Y-36549200D01*
X89224900Y-36550630D01*
X89193262Y-36546725D01*
X89161466Y-36544452D01*
X89157851Y-36542356D01*
X89155557Y-36542073D01*
X89145052Y-36534934D01*
X89125489Y-36523590D01*
X89121136Y-36519968D01*
X89023456Y-36422288D01*
X88947236Y-36375275D01*
X88940489Y-36369661D01*
X88925708Y-36347642D01*
X88907978Y-36327930D01*
X88905676Y-36317803D01*
X88901546Y-36311650D01*
X88901281Y-36298464D01*
X88895800Y-36274341D01*
X88895800Y-34873911D01*
X88915485Y-34806872D01*
X88968289Y-34761117D01*
X88987698Y-34754139D01*
X89095500Y-34725254D01*
X89319612Y-34632424D01*
X89529689Y-34511136D01*
X89722138Y-34363465D01*
X89893665Y-34191938D01*
X90041336Y-33999489D01*
X90162624Y-33789412D01*
X90255454Y-33565300D01*
X90318238Y-33330989D01*
X90333903Y-33212000D01*
X90341848Y-33151653D01*
X90341848Y-33151652D01*
X90349900Y-33090489D01*
X90349900Y-32847911D01*
X90332558Y-32716182D01*
X90318238Y-32607411D01*
X90255454Y-32373100D01*
X90162624Y-32148988D01*
X90041336Y-31938911D01*
X90032764Y-31927739D01*
X90004996Y-31891551D01*
X89949490Y-31819214D01*
X91549400Y-31819214D01*
X91549400Y-32719200D01*
X93045279Y-32719200D01*
X93026301Y-32765018D01*
X92999400Y-32900256D01*
X92999400Y-33038144D01*
X93026301Y-33173382D01*
X93045279Y-33219200D01*
X91549400Y-33219200D01*
X91549400Y-34119185D01*
X91559893Y-34221889D01*
X91559894Y-34221896D01*
X91615041Y-34388318D01*
X91615043Y-34388323D01*
X91707084Y-34537544D01*
X91831055Y-34661515D01*
X91980276Y-34753556D01*
X91980281Y-34753558D01*
X92146703Y-34808705D01*
X92146710Y-34808706D01*
X92249414Y-34819199D01*
X92249427Y-34819200D01*
X93449400Y-34819200D01*
X93449400Y-33623320D01*
X93495218Y-33642299D01*
X93630456Y-33669200D01*
X93768344Y-33669200D01*
X93903582Y-33642299D01*
X93949400Y-33623320D01*
X93949400Y-34819200D01*
X95149373Y-34819200D01*
X95149385Y-34819199D01*
X95252089Y-34808706D01*
X95252096Y-34808705D01*
X95418518Y-34753558D01*
X95418523Y-34753556D01*
X95567744Y-34661515D01*
X95691715Y-34537544D01*
X95783756Y-34388323D01*
X95783758Y-34388318D01*
X95838905Y-34221896D01*
X95838906Y-34221889D01*
X95849399Y-34119185D01*
X95849400Y-34119172D01*
X95849400Y-33219200D01*
X94353521Y-33219200D01*
X94372499Y-33173382D01*
X94399400Y-33038144D01*
X94399400Y-32900256D01*
X94372499Y-32765018D01*
X94353521Y-32719200D01*
X95849400Y-32719200D01*
X95849400Y-31819227D01*
X95849399Y-31819214D01*
X95838906Y-31716510D01*
X95838905Y-31716503D01*
X95783758Y-31550081D01*
X95783756Y-31550076D01*
X95691715Y-31400855D01*
X95567744Y-31276884D01*
X95418523Y-31184843D01*
X95418518Y-31184841D01*
X95252096Y-31129694D01*
X95252089Y-31129693D01*
X95149385Y-31119200D01*
X93949400Y-31119200D01*
X93949400Y-32315079D01*
X93903582Y-32296101D01*
X93768344Y-32269200D01*
X93630456Y-32269200D01*
X93495218Y-32296101D01*
X93449400Y-32315079D01*
X93449400Y-31119200D01*
X92249414Y-31119200D01*
X92146710Y-31129693D01*
X92146703Y-31129694D01*
X91980281Y-31184841D01*
X91980276Y-31184843D01*
X91831055Y-31276884D01*
X91707084Y-31400855D01*
X91615043Y-31550076D01*
X91615041Y-31550081D01*
X91559894Y-31716503D01*
X91559893Y-31716510D01*
X91549400Y-31819214D01*
X89949490Y-31819214D01*
X89893666Y-31746463D01*
X89893660Y-31746456D01*
X89722143Y-31574939D01*
X89722136Y-31574933D01*
X89529693Y-31427267D01*
X89529692Y-31427266D01*
X89529689Y-31427264D01*
X89319612Y-31305976D01*
X89249378Y-31276884D01*
X89095504Y-31213147D01*
X88861185Y-31150361D01*
X88620689Y-31118700D01*
X88620688Y-31118700D01*
X87778112Y-31118700D01*
X87778111Y-31118700D01*
X87537614Y-31150361D01*
X87303295Y-31213147D01*
X87079194Y-31305973D01*
X87079185Y-31305977D01*
X86869106Y-31427267D01*
X86676663Y-31574933D01*
X86676656Y-31574939D01*
X86505139Y-31746456D01*
X86505133Y-31746463D01*
X86357467Y-31938906D01*
X86236177Y-32148985D01*
X86236173Y-32148994D01*
X86143347Y-32373095D01*
X86080561Y-32607414D01*
X86048900Y-32847911D01*
X86048900Y-33090488D01*
X86061355Y-33185099D01*
X86080562Y-33330989D01*
X86111954Y-33448144D01*
X86143347Y-33565304D01*
X86236173Y-33789405D01*
X86236176Y-33789412D01*
X86357464Y-33999489D01*
X86357466Y-33999492D01*
X86357467Y-33999493D01*
X86505133Y-34191936D01*
X86505139Y-34191943D01*
X86676656Y-34363460D01*
X86676663Y-34363466D01*
X86737209Y-34409924D01*
X86869111Y-34511136D01*
X87079188Y-34632424D01*
X87303300Y-34725254D01*
X87421895Y-34757031D01*
X87481554Y-34793395D01*
X87512083Y-34856242D01*
X87513800Y-34876805D01*
X87513800Y-36274341D01*
X87494115Y-36341380D01*
X87454898Y-36379879D01*
X87386144Y-36422287D01*
X87262089Y-36546342D01*
X87169987Y-36695663D01*
X87169985Y-36695668D01*
X87142149Y-36779670D01*
X87114801Y-36862203D01*
X87114801Y-36862204D01*
X87114800Y-36862204D01*
X87104300Y-36964983D01*
X87104300Y-37965001D01*
X87104301Y-37965019D01*
X87114800Y-38067796D01*
X87114801Y-38067799D01*
X87169985Y-38234331D01*
X87169986Y-38234334D01*
X87262088Y-38383656D01*
X87386144Y-38507712D01*
X87535466Y-38599814D01*
X87702003Y-38654999D01*
X87804791Y-38665500D01*
X88454915Y-38665499D01*
X88521954Y-38685183D01*
X88567709Y-38737987D01*
X88577653Y-38807146D01*
X88548628Y-38870702D01*
X88542596Y-38877180D01*
X84930097Y-42489681D01*
X84903169Y-42504384D01*
X84877351Y-42520977D01*
X84871150Y-42521868D01*
X84868774Y-42523166D01*
X84842416Y-42526000D01*
X84620620Y-42526000D01*
X84553581Y-42506315D01*
X84532943Y-42489686D01*
X84532938Y-42489681D01*
X84522940Y-42479683D01*
X84510048Y-42456075D01*
X84507826Y-42453511D01*
X84507532Y-42451468D01*
X84489454Y-42418364D01*
X84494435Y-42348672D01*
X84522936Y-42304320D01*
X84625072Y-42202185D01*
X84713078Y-42056606D01*
X84763686Y-41894196D01*
X84770100Y-41823616D01*
X84770100Y-41310384D01*
X84763686Y-41239804D01*
X84713078Y-41077394D01*
X84625072Y-40931815D01*
X84625070Y-40931813D01*
X84625069Y-40931811D01*
X84504788Y-40811530D01*
X84492148Y-40803889D01*
X84359206Y-40723522D01*
X84196796Y-40672914D01*
X84196794Y-40672913D01*
X84196792Y-40672913D01*
X84147378Y-40668423D01*
X84126216Y-40666500D01*
X83462984Y-40666500D01*
X83443745Y-40668248D01*
X83392407Y-40672913D01*
X83229993Y-40723522D01*
X83084411Y-40811530D01*
X83084411Y-40811531D01*
X83044063Y-40851880D01*
X82982740Y-40885366D01*
X82956381Y-40888200D01*
X79903851Y-40888200D01*
X79836812Y-40868515D01*
X79793366Y-40820495D01*
X79713524Y-40663795D01*
X79597828Y-40504554D01*
X79458646Y-40365372D01*
X79299405Y-40249676D01*
X79253892Y-40226486D01*
X79124029Y-40160317D01*
X78936826Y-40099490D01*
X78742422Y-40068700D01*
X78742417Y-40068700D01*
X78545583Y-40068700D01*
X78545578Y-40068700D01*
X78351173Y-40099490D01*
X78163970Y-40160317D01*
X77988594Y-40249676D01*
X77909682Y-40307010D01*
X77829354Y-40365372D01*
X77829352Y-40365374D01*
X77829351Y-40365374D01*
X77690174Y-40504551D01*
X77690174Y-40504552D01*
X77690172Y-40504554D01*
X77649591Y-40560409D01*
X77574476Y-40663794D01*
X77485117Y-40839170D01*
X77424290Y-41026373D01*
X77393500Y-41220777D01*
X77393500Y-41937623D01*
X77411683Y-42052429D01*
X77402728Y-42121722D01*
X77357732Y-42175174D01*
X77290980Y-42195813D01*
X77223667Y-42177088D01*
X77201529Y-42159507D01*
X76930819Y-41888797D01*
X76897334Y-41827474D01*
X76894500Y-41801116D01*
X76894500Y-41220777D01*
X76863709Y-41026373D01*
X76802882Y-40839170D01*
X76732568Y-40701172D01*
X76713524Y-40663795D01*
X76597828Y-40504554D01*
X76458646Y-40365372D01*
X76299405Y-40249676D01*
X76253892Y-40226486D01*
X76124029Y-40160317D01*
X75936826Y-40099490D01*
X75742422Y-40068700D01*
X75742417Y-40068700D01*
X75545583Y-40068700D01*
X75545578Y-40068700D01*
X75351173Y-40099490D01*
X75163970Y-40160317D01*
X74988594Y-40249676D01*
X74909682Y-40307010D01*
X74829354Y-40365372D01*
X74829352Y-40365374D01*
X74829351Y-40365374D01*
X74690174Y-40504551D01*
X74690174Y-40504552D01*
X74690172Y-40504554D01*
X74649591Y-40560409D01*
X74574476Y-40663794D01*
X74485117Y-40839170D01*
X74424290Y-41026373D01*
X74393500Y-41220777D01*
X74393500Y-41937622D01*
X74422015Y-42117658D01*
X74413060Y-42186951D01*
X74368064Y-42240403D01*
X74301313Y-42261043D01*
X74233999Y-42242318D01*
X74187495Y-42190173D01*
X74184981Y-42184508D01*
X74182156Y-42177689D01*
X74182155Y-42177686D01*
X74140893Y-42115933D01*
X74140893Y-42115934D01*
X74106535Y-42064513D01*
X73930819Y-41888797D01*
X73897334Y-41827474D01*
X73894500Y-41801116D01*
X73894500Y-40769197D01*
X73894499Y-40769184D01*
X73883999Y-40666404D01*
X73883999Y-40666403D01*
X73828814Y-40499866D01*
X73816541Y-40479969D01*
X73736713Y-40350548D01*
X73736710Y-40350544D01*
X73612655Y-40226489D01*
X73612651Y-40226486D01*
X73463337Y-40134387D01*
X73463335Y-40134386D01*
X73311451Y-40084057D01*
X73296797Y-40079201D01*
X73296795Y-40079200D01*
X73194015Y-40068700D01*
X73194008Y-40068700D01*
X72093992Y-40068700D01*
X72093984Y-40068700D01*
X71991204Y-40079200D01*
X71991203Y-40079201D01*
X71824664Y-40134386D01*
X71824662Y-40134387D01*
X71675348Y-40226486D01*
X71675344Y-40226489D01*
X71551289Y-40350544D01*
X71551286Y-40350548D01*
X71459187Y-40499862D01*
X71459186Y-40499864D01*
X71404001Y-40666403D01*
X71404000Y-40666404D01*
X71393500Y-40769184D01*
X71393500Y-42389215D01*
X71404000Y-42491995D01*
X71404001Y-42491997D01*
X71451755Y-42636108D01*
X71459186Y-42658534D01*
X71551286Y-42807851D01*
X71551289Y-42807855D01*
X71675344Y-42931910D01*
X71675348Y-42931913D01*
X71824662Y-43024012D01*
X71824664Y-43024013D01*
X71824666Y-43024014D01*
X71991203Y-43079199D01*
X72093992Y-43089700D01*
X72754800Y-43089700D01*
X72821839Y-43109385D01*
X72867594Y-43162189D01*
X72878800Y-43213700D01*
X72878800Y-46100180D01*
X72870155Y-46129620D01*
X72863632Y-46159607D01*
X72859877Y-46164622D01*
X72859115Y-46167219D01*
X72842481Y-46187861D01*
X72832481Y-46197861D01*
X72771158Y-46231346D01*
X72701466Y-46226362D01*
X72657119Y-46197861D01*
X72554988Y-46095730D01*
X72549929Y-46092672D01*
X72409406Y-46007722D01*
X72246996Y-45957114D01*
X72246994Y-45957113D01*
X72246992Y-45957113D01*
X72197578Y-45952623D01*
X72176416Y-45950700D01*
X71663184Y-45950700D01*
X71643945Y-45952448D01*
X71592607Y-45957113D01*
X71430193Y-46007722D01*
X71284611Y-46095730D01*
X71164330Y-46216011D01*
X71076322Y-46361593D01*
X71025713Y-46524007D01*
X71019300Y-46594586D01*
X71019300Y-47257813D01*
X71025713Y-47328392D01*
X71025713Y-47328394D01*
X71025714Y-47328396D01*
X71076322Y-47490806D01*
X71164328Y-47636385D01*
X71192481Y-47664538D01*
X71225966Y-47725859D01*
X71228800Y-47752219D01*
X71228800Y-48538580D01*
X71209115Y-48605619D01*
X71192481Y-48626261D01*
X71164331Y-48654410D01*
X71164330Y-48654411D01*
X71076322Y-48799993D01*
X71025713Y-48962407D01*
X71019300Y-49032986D01*
X71019300Y-49291588D01*
X70999615Y-49358627D01*
X70946811Y-49404382D01*
X70877653Y-49414326D01*
X70814097Y-49385301D01*
X70807619Y-49379269D01*
X70775677Y-49347327D01*
X70630195Y-49259380D01*
X70630196Y-49259380D01*
X70467905Y-49208809D01*
X70467906Y-49208809D01*
X70397372Y-49202400D01*
X70390800Y-49202400D01*
X70390800Y-51152399D01*
X70397381Y-51152399D01*
X70467902Y-51145991D01*
X70467907Y-51145990D01*
X70630196Y-51095418D01*
X70775677Y-51007472D01*
X70895872Y-50887277D01*
X70983817Y-50741799D01*
X70986414Y-50733466D01*
X71025152Y-50675318D01*
X71089177Y-50647344D01*
X71158162Y-50658425D01*
X71210205Y-50705044D01*
X71228800Y-50770356D01*
X71228800Y-51048580D01*
X71209115Y-51115619D01*
X71192481Y-51136261D01*
X71164331Y-51164410D01*
X71164330Y-51164411D01*
X71076322Y-51309993D01*
X71025713Y-51472407D01*
X71019300Y-51542986D01*
X71019300Y-51705550D01*
X70999615Y-51772589D01*
X70946811Y-51818344D01*
X70895300Y-51829550D01*
X69914821Y-51829550D01*
X69847782Y-51809865D01*
X69815555Y-51779861D01*
X69736348Y-51674055D01*
X69736345Y-51674052D01*
X69621136Y-51587806D01*
X69621129Y-51587802D01*
X69486283Y-51537508D01*
X69486284Y-51537508D01*
X69426684Y-51531101D01*
X69426682Y-51531100D01*
X69426674Y-51531100D01*
X69426666Y-51531100D01*
X69085009Y-51531100D01*
X69072763Y-51527504D01*
X69060043Y-51528561D01*
X69039875Y-51517847D01*
X69017970Y-51511415D01*
X69009613Y-51501770D01*
X68998340Y-51495782D01*
X68987165Y-51475865D01*
X68972215Y-51458611D01*
X68969593Y-51444544D01*
X68964153Y-51434847D01*
X68963842Y-51413684D01*
X68961232Y-51399674D01*
X68961739Y-51391214D01*
X68975300Y-51323042D01*
X68975300Y-51165358D01*
X68975292Y-51165319D01*
X68975523Y-51161474D01*
X68986146Y-51131961D01*
X68994985Y-51101861D01*
X68998057Y-51098871D01*
X68999187Y-51095734D01*
X69009070Y-51088156D01*
X69035147Y-51062785D01*
X69125985Y-51007872D01*
X69228473Y-50905383D01*
X69289794Y-50871899D01*
X69359485Y-50876883D01*
X69403834Y-50905384D01*
X69505922Y-51007472D01*
X69651404Y-51095419D01*
X69651403Y-51095419D01*
X69813694Y-51145990D01*
X69813693Y-51145990D01*
X69884208Y-51152398D01*
X69884226Y-51152399D01*
X69890799Y-51152398D01*
X69890800Y-51152398D01*
X69890800Y-49202400D01*
X69890799Y-49202399D01*
X69884236Y-49202400D01*
X69884217Y-49202401D01*
X69813697Y-49208808D01*
X69813692Y-49208809D01*
X69651403Y-49259381D01*
X69505922Y-49347327D01*
X69505921Y-49347328D01*
X69403835Y-49449415D01*
X69342512Y-49482900D01*
X69272820Y-49477916D01*
X69228473Y-49449415D01*
X69125988Y-49346930D01*
X69088383Y-49324197D01*
X68980406Y-49258922D01*
X68817996Y-49208314D01*
X68817994Y-49208313D01*
X68817992Y-49208313D01*
X68768578Y-49203823D01*
X68747416Y-49201900D01*
X68234184Y-49201900D01*
X68214945Y-49203648D01*
X68163607Y-49208313D01*
X68163604Y-49208314D01*
X68076686Y-49235398D01*
X68006828Y-49236548D01*
X67947436Y-49199747D01*
X67917368Y-49136678D01*
X67915799Y-49117012D01*
X67915799Y-46426938D01*
X67889245Y-46293447D01*
X67889244Y-46293446D01*
X67889244Y-46293442D01*
X67845511Y-46187861D01*
X67837158Y-46167694D01*
X67837151Y-46167681D01*
X67761534Y-46054513D01*
X67714743Y-46007722D01*
X67665286Y-45958265D01*
X65363023Y-43656001D01*
X65329538Y-43594678D01*
X65332772Y-43530003D01*
X65360709Y-43444026D01*
X65377504Y-43337984D01*
X65391500Y-43249622D01*
X65391500Y-43052777D01*
X65360709Y-42858373D01*
X65299882Y-42671170D01*
X65224470Y-42523166D01*
X65210524Y-42495795D01*
X65094828Y-42336554D01*
X64955646Y-42197372D01*
X64796405Y-42081676D01*
X64621029Y-41992317D01*
X64433826Y-41931490D01*
X64239422Y-41900700D01*
X64239417Y-41900700D01*
X63522583Y-41900700D01*
X63522578Y-41900700D01*
X63328173Y-41931490D01*
X63140970Y-41992317D01*
X62965594Y-42081676D01*
X62874741Y-42147685D01*
X62806354Y-42197372D01*
X62806352Y-42197374D01*
X62806351Y-42197374D01*
X62667174Y-42336551D01*
X62667174Y-42336552D01*
X62667172Y-42336554D01*
X62628911Y-42389215D01*
X62551476Y-42495794D01*
X62462117Y-42671170D01*
X62401290Y-42858373D01*
X62370500Y-43052777D01*
X62370500Y-43249622D01*
X62401290Y-43444026D01*
X62462117Y-43631229D01*
X62540335Y-43784739D01*
X62551476Y-43806605D01*
X62667172Y-43965846D01*
X62806354Y-44105028D01*
X62965595Y-44220724D01*
X63007240Y-44241943D01*
X63140970Y-44310082D01*
X63140972Y-44310082D01*
X63140975Y-44310084D01*
X63241317Y-44342687D01*
X63328173Y-44370909D01*
X63522578Y-44401700D01*
X63522583Y-44401700D01*
X64102916Y-44401700D01*
X64169955Y-44421385D01*
X64190597Y-44438019D01*
X64461307Y-44708729D01*
X64494792Y-44770052D01*
X64489808Y-44839744D01*
X64447936Y-44895677D01*
X64382472Y-44920094D01*
X64354229Y-44918883D01*
X64239423Y-44900700D01*
X64239417Y-44900700D01*
X63522583Y-44900700D01*
X63522578Y-44900700D01*
X63328173Y-44931490D01*
X63140970Y-44992317D01*
X62965594Y-45081676D01*
X62890960Y-45135902D01*
X62806354Y-45197372D01*
X62806352Y-45197374D01*
X62806351Y-45197374D01*
X62667174Y-45336551D01*
X62667174Y-45336552D01*
X62667172Y-45336554D01*
X62642994Y-45369832D01*
X62551476Y-45495794D01*
X62462117Y-45671170D01*
X62401290Y-45858373D01*
X62370500Y-46052777D01*
X62370500Y-46249622D01*
X62401290Y-46444026D01*
X62462117Y-46631229D01*
X62535994Y-46776220D01*
X62551476Y-46806605D01*
X62667172Y-46965846D01*
X62806354Y-47105028D01*
X62965595Y-47220724D01*
X63038387Y-47257813D01*
X63140970Y-47310082D01*
X63140972Y-47310082D01*
X63140975Y-47310084D01*
X63220773Y-47336012D01*
X63328173Y-47370909D01*
X63522578Y-47401700D01*
X63522583Y-47401700D01*
X63918500Y-47401700D01*
X63985539Y-47421385D01*
X64031294Y-47474189D01*
X64042500Y-47525700D01*
X64042500Y-51204280D01*
X64033855Y-51233720D01*
X64027332Y-51263707D01*
X64023577Y-51268722D01*
X64022815Y-51271319D01*
X64006181Y-51291961D01*
X63905681Y-51392461D01*
X63844358Y-51425946D01*
X63774666Y-51420962D01*
X63730319Y-51392461D01*
X63628188Y-51290330D01*
X63613113Y-51281217D01*
X63482606Y-51202322D01*
X63320196Y-51151714D01*
X63320194Y-51151713D01*
X63320192Y-51151713D01*
X63270778Y-51147223D01*
X63249616Y-51145300D01*
X62736384Y-51145300D01*
X62717145Y-51147048D01*
X62665807Y-51151713D01*
X62503393Y-51202322D01*
X62357811Y-51290330D01*
X62357810Y-51290331D01*
X62254681Y-51393461D01*
X62193358Y-51426946D01*
X62123666Y-51421962D01*
X62079319Y-51393461D01*
X61976188Y-51290330D01*
X61961113Y-51281217D01*
X61830606Y-51202322D01*
X61668196Y-51151714D01*
X61668194Y-51151713D01*
X61668192Y-51151713D01*
X61618778Y-51147223D01*
X61597616Y-51145300D01*
X61084384Y-51145300D01*
X61065145Y-51147048D01*
X61013807Y-51151713D01*
X60851393Y-51202322D01*
X60705811Y-51290330D01*
X60705810Y-51290331D01*
X60603681Y-51392461D01*
X60542358Y-51425946D01*
X60472666Y-51420962D01*
X60428319Y-51392461D01*
X60326188Y-51290330D01*
X60311113Y-51281217D01*
X60180606Y-51202322D01*
X60018196Y-51151714D01*
X60018194Y-51151713D01*
X60018192Y-51151713D01*
X59968778Y-51147223D01*
X59947616Y-51145300D01*
X59434384Y-51145300D01*
X59415145Y-51147048D01*
X59363807Y-51151713D01*
X59201393Y-51202322D01*
X59055811Y-51290330D01*
X58935530Y-51410611D01*
X58924480Y-51428890D01*
X58906514Y-51458611D01*
X58905402Y-51460450D01*
X58853874Y-51507638D01*
X58799285Y-51520300D01*
X56804865Y-51520300D01*
X56797260Y-51520299D01*
X56797258Y-51520299D01*
X56777896Y-51520299D01*
X56734783Y-51507638D01*
X56710862Y-51500614D01*
X56710861Y-51500612D01*
X56710858Y-51500612D01*
X56676060Y-51460450D01*
X56665107Y-51447810D01*
X56665106Y-51447807D01*
X56665105Y-51447806D01*
X56665102Y-51447790D01*
X56653901Y-51396299D01*
X56653901Y-47187462D01*
X56672363Y-47122365D01*
X56715955Y-47051691D01*
X56766014Y-46970534D01*
X56821199Y-46803997D01*
X56831700Y-46701208D01*
X56831700Y-45601192D01*
X56821199Y-45498403D01*
X56766014Y-45331866D01*
X56763605Y-45327961D01*
X56673913Y-45182548D01*
X56673910Y-45182544D01*
X56549855Y-45058489D01*
X56549851Y-45058486D01*
X56400537Y-44966387D01*
X56400535Y-44966386D01*
X56260834Y-44920094D01*
X56233997Y-44911201D01*
X56233995Y-44911200D01*
X56131215Y-44900700D01*
X56131208Y-44900700D01*
X54511192Y-44900700D01*
X54511184Y-44900700D01*
X54408404Y-44911200D01*
X54408403Y-44911201D01*
X54241864Y-44966386D01*
X54241862Y-44966387D01*
X54092548Y-45058486D01*
X54092544Y-45058489D01*
X53968489Y-45182544D01*
X53968486Y-45182548D01*
X53876387Y-45331862D01*
X53876386Y-45331864D01*
X53821201Y-45498403D01*
X53821200Y-45498404D01*
X53810700Y-45601184D01*
X53810700Y-46701215D01*
X53821200Y-46803995D01*
X53821201Y-46803997D01*
X53834325Y-46843602D01*
X53876386Y-46970535D01*
X53876387Y-46970537D01*
X53968486Y-47119851D01*
X53968489Y-47119855D01*
X54092544Y-47243910D01*
X54092548Y-47243913D01*
X54241862Y-47336012D01*
X54241864Y-47336013D01*
X54241866Y-47336014D01*
X54408403Y-47391199D01*
X54511192Y-47401700D01*
X55328901Y-47401700D01*
X55395940Y-47421385D01*
X55441695Y-47474189D01*
X55452901Y-47525700D01*
X55452901Y-51504700D01*
X55433216Y-51571739D01*
X55380412Y-51617494D01*
X55328903Y-51628700D01*
X55255531Y-51628700D01*
X55255524Y-51628701D01*
X55195917Y-51635108D01*
X55061072Y-51685402D01*
X55061065Y-51685406D01*
X54945856Y-51771652D01*
X54945853Y-51771655D01*
X54859607Y-51886864D01*
X54859603Y-51886871D01*
X54809309Y-52021717D01*
X54802902Y-52081316D01*
X54802901Y-52081335D01*
X54802901Y-53227070D01*
X54802902Y-53227076D01*
X54809309Y-53286683D01*
X54859603Y-53421528D01*
X54859604Y-53421530D01*
X54859605Y-53421531D01*
X54860429Y-53422632D01*
X54860910Y-53423921D01*
X54863855Y-53429314D01*
X54863079Y-53429737D01*
X54884849Y-53488095D01*
X54875726Y-53544398D01*
X54842311Y-53625069D01*
X54842308Y-53625081D01*
X54802901Y-53823193D01*
X54802901Y-54025208D01*
X54842308Y-54223320D01*
X54842310Y-54223328D01*
X54919238Y-54409047D01*
X54926707Y-54478516D01*
X54895432Y-54540996D01*
X54835343Y-54576648D01*
X54804677Y-54580500D01*
X53863320Y-54580500D01*
X53833879Y-54571855D01*
X53803893Y-54565332D01*
X53798877Y-54561577D01*
X53796281Y-54560815D01*
X53775639Y-54544181D01*
X53674784Y-54443326D01*
X53641299Y-54382003D01*
X53646283Y-54312311D01*
X53674785Y-54267963D01*
X53776871Y-54165878D01*
X53776872Y-54165877D01*
X53864819Y-54020395D01*
X53915390Y-53858106D01*
X53921800Y-53787572D01*
X53921800Y-53781000D01*
X51965800Y-53781000D01*
X51898761Y-53761315D01*
X51853006Y-53708511D01*
X51841800Y-53657000D01*
X51841800Y-53539200D01*
X51317200Y-53539200D01*
X51250161Y-53519515D01*
X51204406Y-53466711D01*
X51193200Y-53415200D01*
X51193200Y-53289200D01*
X51067200Y-53289200D01*
X51000161Y-53269515D01*
X50954406Y-53216711D01*
X50943200Y-53165200D01*
X50943200Y-53039200D01*
X51443200Y-53039200D01*
X52099200Y-53039200D01*
X52166239Y-53058885D01*
X52211994Y-53111689D01*
X52223200Y-53163200D01*
X52223200Y-53281000D01*
X52696800Y-53281000D01*
X53196800Y-53281000D01*
X53921799Y-53281000D01*
X53921799Y-53274417D01*
X53915391Y-53203897D01*
X53915390Y-53203892D01*
X53864818Y-53041603D01*
X53776872Y-52896122D01*
X53656677Y-52775927D01*
X53511195Y-52687980D01*
X53511196Y-52687980D01*
X53348905Y-52637409D01*
X53348906Y-52637409D01*
X53278372Y-52631000D01*
X53196800Y-52631000D01*
X53196800Y-53281000D01*
X52696800Y-53281000D01*
X52696800Y-52631000D01*
X52696799Y-52630999D01*
X52615217Y-52631000D01*
X52544697Y-52637408D01*
X52544692Y-52637409D01*
X52382403Y-52687981D01*
X52236922Y-52775927D01*
X52231017Y-52780554D01*
X52229215Y-52778254D01*
X52179714Y-52805256D01*
X52110024Y-52800241D01*
X52054109Y-52758345D01*
X52040253Y-52731211D01*
X52039297Y-52731642D01*
X52036219Y-52724804D01*
X51948272Y-52579322D01*
X51828077Y-52459127D01*
X51682595Y-52371180D01*
X51682596Y-52371180D01*
X51520305Y-52320609D01*
X51520306Y-52320609D01*
X51449772Y-52314200D01*
X51443200Y-52314200D01*
X51443200Y-53039200D01*
X50943200Y-53039200D01*
X50943200Y-52314200D01*
X50943199Y-52314199D01*
X50936636Y-52314200D01*
X50936617Y-52314201D01*
X50866097Y-52320608D01*
X50866092Y-52320609D01*
X50703803Y-52371181D01*
X50558322Y-52459127D01*
X50558321Y-52459128D01*
X50456235Y-52561215D01*
X50394912Y-52594700D01*
X50325220Y-52589716D01*
X50280873Y-52561215D01*
X50178388Y-52458730D01*
X50167943Y-52452416D01*
X50032806Y-52370722D01*
X49870396Y-52320114D01*
X49870394Y-52320113D01*
X49870392Y-52320113D01*
X49820978Y-52315623D01*
X49799816Y-52313700D01*
X49698403Y-52313700D01*
X49631364Y-52294015D01*
X49585609Y-52241211D01*
X49575665Y-52172053D01*
X49580018Y-52152810D01*
X49622990Y-52014906D01*
X49629400Y-51944372D01*
X49629400Y-51862800D01*
X48853400Y-51862800D01*
X48786361Y-51843115D01*
X48740606Y-51790311D01*
X48729400Y-51738800D01*
X48729400Y-51612800D01*
X48603400Y-51612800D01*
X48536361Y-51593115D01*
X48490606Y-51540311D01*
X48479400Y-51488800D01*
X48479400Y-51362800D01*
X48979400Y-51362800D01*
X49629399Y-51362800D01*
X49629399Y-51281217D01*
X49622991Y-51210697D01*
X49622990Y-51210692D01*
X49572418Y-51048403D01*
X49484472Y-50902922D01*
X49364277Y-50782727D01*
X49218795Y-50694780D01*
X49218796Y-50694780D01*
X49056505Y-50644209D01*
X49056506Y-50644209D01*
X48985972Y-50637800D01*
X48979400Y-50637800D01*
X48979400Y-51362800D01*
X48479400Y-51362800D01*
X48479400Y-50637800D01*
X48479399Y-50637799D01*
X48472836Y-50637800D01*
X48472817Y-50637801D01*
X48402297Y-50644208D01*
X48402292Y-50644209D01*
X48240003Y-50694781D01*
X48094522Y-50782727D01*
X48094521Y-50782728D01*
X47992435Y-50884815D01*
X47931112Y-50918300D01*
X47861420Y-50913316D01*
X47817073Y-50884815D01*
X47714588Y-50782330D01*
X47702302Y-50774903D01*
X47569006Y-50694322D01*
X47406596Y-50643714D01*
X47406594Y-50643713D01*
X47406592Y-50643713D01*
X47357178Y-50639223D01*
X47336016Y-50637300D01*
X46822784Y-50637300D01*
X46803545Y-50639048D01*
X46752207Y-50643713D01*
X46589793Y-50694322D01*
X46444211Y-50782330D01*
X46323930Y-50902611D01*
X46296816Y-50947463D01*
X46245287Y-50994649D01*
X46176428Y-51006487D01*
X46121809Y-50986413D01*
X45997585Y-50903409D01*
X45997572Y-50903402D01*
X45851901Y-50843064D01*
X45851889Y-50843061D01*
X45697245Y-50812300D01*
X45697242Y-50812300D01*
X45539558Y-50812300D01*
X45539555Y-50812300D01*
X45384910Y-50843061D01*
X45384898Y-50843064D01*
X45239227Y-50903402D01*
X45239209Y-50903412D01*
X45105076Y-50993037D01*
X45064127Y-51008453D01*
X45064594Y-51010196D01*
X45056745Y-51012299D01*
X45056743Y-51012299D01*
X44967880Y-51036110D01*
X44904017Y-51053222D01*
X44904015Y-51053222D01*
X44904015Y-51053223D01*
X44885233Y-51064067D01*
X44885230Y-51064069D01*
X44885229Y-51064068D01*
X44767087Y-51132277D01*
X44767082Y-51132281D01*
X44517380Y-51381984D01*
X44456057Y-51415469D01*
X44386365Y-51410485D01*
X44330432Y-51368613D01*
X44306015Y-51303149D01*
X44305699Y-51294303D01*
X44305699Y-50834000D01*
X44325384Y-50766961D01*
X44378188Y-50721206D01*
X44413514Y-50711061D01*
X44434716Y-50708270D01*
X44688019Y-50640398D01*
X44930297Y-50540043D01*
X45157403Y-50408924D01*
X45365451Y-50249282D01*
X45365455Y-50249277D01*
X45365460Y-50249274D01*
X45550874Y-50063860D01*
X45550877Y-50063855D01*
X45550882Y-50063851D01*
X45710524Y-49855803D01*
X45841643Y-49628697D01*
X45941998Y-49386419D01*
X46009870Y-49133116D01*
X46018972Y-49063981D01*
X52475700Y-49063981D01*
X52475700Y-49238418D01*
X52509727Y-49409483D01*
X52509729Y-49409491D01*
X52576478Y-49570639D01*
X52576483Y-49570648D01*
X52673386Y-49715673D01*
X52673389Y-49715677D01*
X52796722Y-49839010D01*
X52796726Y-49839013D01*
X52941751Y-49935916D01*
X52941757Y-49935919D01*
X52941758Y-49935920D01*
X53102909Y-50002671D01*
X53273981Y-50036699D01*
X53273985Y-50036700D01*
X53273986Y-50036700D01*
X53448415Y-50036700D01*
X53448416Y-50036699D01*
X53619491Y-50002671D01*
X53780642Y-49935920D01*
X53925674Y-49839013D01*
X54049013Y-49715674D01*
X54145920Y-49570642D01*
X54212671Y-49409491D01*
X54246700Y-49238414D01*
X54246700Y-49063986D01*
X54212671Y-48892909D01*
X54150163Y-48742001D01*
X54145921Y-48731760D01*
X54145916Y-48731751D01*
X54049013Y-48586726D01*
X54049010Y-48586722D01*
X53925677Y-48463389D01*
X53925673Y-48463386D01*
X53780648Y-48366483D01*
X53780639Y-48366478D01*
X53619491Y-48299729D01*
X53619483Y-48299727D01*
X53448418Y-48265700D01*
X53448414Y-48265700D01*
X53273986Y-48265700D01*
X53273981Y-48265700D01*
X53102916Y-48299727D01*
X53102908Y-48299729D01*
X52941760Y-48366478D01*
X52941751Y-48366483D01*
X52796726Y-48463386D01*
X52796722Y-48463389D01*
X52673389Y-48586722D01*
X52673386Y-48586726D01*
X52576483Y-48731751D01*
X52576478Y-48731760D01*
X52509729Y-48892908D01*
X52509727Y-48892916D01*
X52475700Y-49063981D01*
X46018972Y-49063981D01*
X46044100Y-48873120D01*
X46044100Y-48610880D01*
X46009870Y-48350884D01*
X45941998Y-48097581D01*
X45940854Y-48094819D01*
X45841646Y-47855309D01*
X45841641Y-47855299D01*
X45710524Y-47628196D01*
X45588024Y-47468554D01*
X45550882Y-47420149D01*
X45550881Y-47420148D01*
X45550874Y-47420140D01*
X45365460Y-47234726D01*
X45365451Y-47234718D01*
X45157403Y-47075075D01*
X44930300Y-46943958D01*
X44930290Y-46943953D01*
X44688028Y-46843605D01*
X44688021Y-46843603D01*
X44688019Y-46843602D01*
X44434716Y-46775730D01*
X44376939Y-46768123D01*
X44174727Y-46741500D01*
X44174720Y-46741500D01*
X43912480Y-46741500D01*
X43912472Y-46741500D01*
X43690758Y-46770691D01*
X43652484Y-46775730D01*
X43434483Y-46834143D01*
X43399181Y-46843602D01*
X43399171Y-46843605D01*
X43156909Y-46943953D01*
X43156899Y-46943958D01*
X42929796Y-47075075D01*
X42721748Y-47234718D01*
X42536318Y-47420148D01*
X42376675Y-47628196D01*
X42245558Y-47855299D01*
X42245553Y-47855309D01*
X42145205Y-48097571D01*
X42145202Y-48097581D01*
X42077330Y-48350884D01*
X42077316Y-48350990D01*
X42043100Y-48610872D01*
X39693595Y-48610872D01*
X39659379Y-48350990D01*
X39659377Y-48350979D01*
X39591524Y-48097744D01*
X39491195Y-47855528D01*
X39491190Y-47855517D01*
X39360111Y-47628483D01*
X39360105Y-47628475D01*
X39273518Y-47515633D01*
X39273517Y-47515633D01*
X38332909Y-48456242D01*
X38313932Y-48410426D01*
X38237326Y-48295776D01*
X38139824Y-48198274D01*
X38025174Y-48121668D01*
X37979355Y-48102689D01*
X38919965Y-47162080D01*
X38807124Y-47075494D01*
X38807116Y-47075488D01*
X38580082Y-46944409D01*
X38580071Y-46944404D01*
X38337855Y-46844075D01*
X38084620Y-46776222D01*
X38084609Y-46776220D01*
X37824694Y-46742000D01*
X37562505Y-46742000D01*
X37302590Y-46776220D01*
X37302579Y-46776222D01*
X37049344Y-46844075D01*
X36807128Y-46944404D01*
X36807117Y-46944409D01*
X36580071Y-47075496D01*
X36467233Y-47162079D01*
X36467233Y-47162080D01*
X37407843Y-48102690D01*
X37362026Y-48121668D01*
X37247376Y-48198274D01*
X37149874Y-48295776D01*
X37073268Y-48410426D01*
X37054290Y-48456243D01*
X36113680Y-47515633D01*
X36113679Y-47515633D01*
X36027096Y-47628471D01*
X35896009Y-47855517D01*
X35896004Y-47855528D01*
X35795675Y-48097744D01*
X35727822Y-48350979D01*
X35727820Y-48350990D01*
X35693600Y-48610905D01*
X35693600Y-48873094D01*
X35727820Y-49133009D01*
X35727822Y-49133020D01*
X35795675Y-49386255D01*
X35896004Y-49628471D01*
X35896009Y-49628482D01*
X36027088Y-49855516D01*
X36027094Y-49855524D01*
X36113680Y-49968365D01*
X37054289Y-49027756D01*
X37073268Y-49073574D01*
X37149874Y-49188224D01*
X37247376Y-49285726D01*
X37362026Y-49362332D01*
X37407842Y-49381309D01*
X36467233Y-50321917D01*
X36467233Y-50321918D01*
X36580075Y-50408505D01*
X36580083Y-50408511D01*
X36807115Y-50539589D01*
X36807316Y-50539688D01*
X36807365Y-50539733D01*
X36810640Y-50541624D01*
X36810216Y-50542356D01*
X36858738Y-50586992D01*
X36876422Y-50654586D01*
X36854755Y-50721011D01*
X36800615Y-50765178D01*
X36752477Y-50774903D01*
X34539400Y-50774903D01*
X34539391Y-50774903D01*
X34539390Y-50774904D01*
X34431949Y-50786455D01*
X34431937Y-50786457D01*
X34380427Y-50797663D01*
X34277902Y-50831786D01*
X34277896Y-50831789D01*
X34156862Y-50909574D01*
X34156851Y-50909582D01*
X34104059Y-50955326D01*
X34009833Y-51064067D01*
X34009830Y-51064071D01*
X33950064Y-51194937D01*
X33930376Y-51261985D01*
X33909900Y-51404404D01*
X33909900Y-52847309D01*
X33890215Y-52914348D01*
X33837411Y-52960103D01*
X33768253Y-52970047D01*
X33712584Y-52946121D01*
X33712490Y-52946275D01*
X33711451Y-52945634D01*
X33708991Y-52944577D01*
X33706344Y-52942484D01*
X33557123Y-52850443D01*
X33557118Y-52850441D01*
X33390696Y-52795294D01*
X33390689Y-52795293D01*
X33287985Y-52784800D01*
X32088000Y-52784800D01*
X32088000Y-53980679D01*
X32042182Y-53961701D01*
X31906944Y-53934800D01*
X31769056Y-53934800D01*
X31633818Y-53961701D01*
X31588000Y-53980679D01*
X31588000Y-52784800D01*
X30388014Y-52784800D01*
X30285310Y-52795293D01*
X30285303Y-52795294D01*
X30118881Y-52850441D01*
X30118876Y-52850443D01*
X29969655Y-52942484D01*
X29845684Y-53066455D01*
X29753643Y-53215676D01*
X29753641Y-53215681D01*
X29698494Y-53382103D01*
X29698493Y-53382110D01*
X29688000Y-53484814D01*
X25900500Y-53484814D01*
X25900500Y-48610905D01*
X29343600Y-48610905D01*
X29343600Y-48873094D01*
X29377820Y-49133009D01*
X29377822Y-49133020D01*
X29445675Y-49386255D01*
X29546004Y-49628471D01*
X29546009Y-49628482D01*
X29677088Y-49855516D01*
X29677094Y-49855524D01*
X29763680Y-49968365D01*
X30704289Y-49027756D01*
X30723268Y-49073574D01*
X30799874Y-49188224D01*
X30897376Y-49285726D01*
X31012026Y-49362332D01*
X31057842Y-49381309D01*
X30117233Y-50321917D01*
X30117233Y-50321918D01*
X30230075Y-50408505D01*
X30230083Y-50408511D01*
X30457117Y-50539590D01*
X30457128Y-50539595D01*
X30699344Y-50639924D01*
X30952579Y-50707777D01*
X30952590Y-50707779D01*
X31212505Y-50741999D01*
X31212520Y-50742000D01*
X31474680Y-50742000D01*
X31474694Y-50741999D01*
X31734609Y-50707779D01*
X31734620Y-50707777D01*
X31987855Y-50639924D01*
X32230071Y-50539595D01*
X32230082Y-50539590D01*
X32457116Y-50408511D01*
X32457134Y-50408499D01*
X32569965Y-50321919D01*
X32569965Y-50321917D01*
X31629357Y-49381309D01*
X31675174Y-49362332D01*
X31789824Y-49285726D01*
X31887326Y-49188224D01*
X31963932Y-49073574D01*
X31982909Y-49027757D01*
X32923517Y-49968365D01*
X32923519Y-49968365D01*
X33010099Y-49855534D01*
X33010111Y-49855516D01*
X33141190Y-49628482D01*
X33141195Y-49628471D01*
X33241524Y-49386255D01*
X33309377Y-49133020D01*
X33309379Y-49133009D01*
X33343599Y-48873094D01*
X33343600Y-48873080D01*
X33343600Y-48610919D01*
X33343599Y-48610905D01*
X33309379Y-48350990D01*
X33309377Y-48350979D01*
X33241524Y-48097744D01*
X33141195Y-47855528D01*
X33141190Y-47855517D01*
X33010111Y-47628483D01*
X33010105Y-47628475D01*
X32923518Y-47515633D01*
X32923517Y-47515633D01*
X31982909Y-48456242D01*
X31963932Y-48410426D01*
X31887326Y-48295776D01*
X31789824Y-48198274D01*
X31675174Y-48121668D01*
X31629355Y-48102689D01*
X32569965Y-47162080D01*
X32457124Y-47075494D01*
X32457116Y-47075488D01*
X32230082Y-46944409D01*
X32230071Y-46944404D01*
X31987855Y-46844075D01*
X31734620Y-46776222D01*
X31734609Y-46776220D01*
X31474694Y-46742000D01*
X31212505Y-46742000D01*
X30952590Y-46776220D01*
X30952579Y-46776222D01*
X30699344Y-46844075D01*
X30457128Y-46944404D01*
X30457117Y-46944409D01*
X30230071Y-47075496D01*
X30117233Y-47162079D01*
X30117233Y-47162080D01*
X31057843Y-48102690D01*
X31012026Y-48121668D01*
X30897376Y-48198274D01*
X30799874Y-48295776D01*
X30723268Y-48410426D01*
X30704290Y-48456243D01*
X29763680Y-47515633D01*
X29763679Y-47515633D01*
X29677096Y-47628471D01*
X29546009Y-47855517D01*
X29546004Y-47855528D01*
X29445675Y-48097744D01*
X29377822Y-48350979D01*
X29377820Y-48350990D01*
X29343600Y-48610905D01*
X25900500Y-48610905D01*
X25900500Y-43052777D01*
X53810700Y-43052777D01*
X53810700Y-43249622D01*
X53841490Y-43444026D01*
X53902317Y-43631229D01*
X53980535Y-43784739D01*
X53991676Y-43806605D01*
X54107372Y-43965846D01*
X54246554Y-44105028D01*
X54405795Y-44220724D01*
X54447440Y-44241943D01*
X54581170Y-44310082D01*
X54581172Y-44310082D01*
X54581175Y-44310084D01*
X54681517Y-44342687D01*
X54768373Y-44370909D01*
X54962778Y-44401700D01*
X54962783Y-44401700D01*
X55679622Y-44401700D01*
X55874026Y-44370909D01*
X56061225Y-44310084D01*
X56236605Y-44220724D01*
X56395846Y-44105028D01*
X56535028Y-43965846D01*
X56650724Y-43806605D01*
X56740084Y-43631225D01*
X56800909Y-43444026D01*
X56806197Y-43410639D01*
X56831700Y-43249622D01*
X56831700Y-43052777D01*
X56800909Y-42858373D01*
X56740082Y-42671170D01*
X56664670Y-42523166D01*
X56650724Y-42495795D01*
X56535028Y-42336554D01*
X56395846Y-42197372D01*
X56236605Y-42081676D01*
X56061229Y-41992317D01*
X55874026Y-41931490D01*
X55679622Y-41900700D01*
X55679617Y-41900700D01*
X54962783Y-41900700D01*
X54962778Y-41900700D01*
X54768373Y-41931490D01*
X54581170Y-41992317D01*
X54405794Y-42081676D01*
X54314941Y-42147685D01*
X54246554Y-42197372D01*
X54246552Y-42197374D01*
X54246551Y-42197374D01*
X54107374Y-42336551D01*
X54107374Y-42336552D01*
X54107372Y-42336554D01*
X54069111Y-42389215D01*
X53991676Y-42495794D01*
X53902317Y-42671170D01*
X53841490Y-42858373D01*
X53810700Y-43052777D01*
X25900500Y-43052777D01*
X25900500Y-40052777D01*
X53810700Y-40052777D01*
X53810700Y-40249622D01*
X53841490Y-40444026D01*
X53902317Y-40631229D01*
X53937962Y-40701185D01*
X53991676Y-40806605D01*
X54107372Y-40965846D01*
X54246554Y-41105028D01*
X54405795Y-41220724D01*
X54488655Y-41262943D01*
X54581170Y-41310082D01*
X54581172Y-41310082D01*
X54581175Y-41310084D01*
X54681517Y-41342687D01*
X54768373Y-41370909D01*
X54962778Y-41401700D01*
X54962783Y-41401700D01*
X55679622Y-41401700D01*
X55874026Y-41370909D01*
X56061225Y-41310084D01*
X56236605Y-41220724D01*
X56395846Y-41105028D01*
X56535028Y-40965846D01*
X56650724Y-40806605D01*
X56740084Y-40631225D01*
X56800909Y-40444026D01*
X56818900Y-40330440D01*
X56831700Y-40249622D01*
X56831700Y-40052777D01*
X56800909Y-39858373D01*
X56763453Y-39743098D01*
X56740084Y-39671175D01*
X56736516Y-39664172D01*
X56731516Y-39654358D01*
X56704438Y-39601214D01*
X62371000Y-39601214D01*
X62371000Y-39901200D01*
X63436440Y-39901200D01*
X63405755Y-39954347D01*
X63371000Y-40084057D01*
X63371000Y-40218343D01*
X63405755Y-40348053D01*
X63436440Y-40401200D01*
X62371000Y-40401200D01*
X62371000Y-40701185D01*
X62381493Y-40803889D01*
X62381494Y-40803896D01*
X62436641Y-40970318D01*
X62436643Y-40970323D01*
X62528684Y-41119544D01*
X62652655Y-41243515D01*
X62801876Y-41335556D01*
X62801881Y-41335558D01*
X62968303Y-41390705D01*
X62968310Y-41390706D01*
X63071014Y-41401199D01*
X63071027Y-41401200D01*
X63631000Y-41401200D01*
X63631000Y-40595760D01*
X63684147Y-40626445D01*
X63813857Y-40661200D01*
X63948143Y-40661200D01*
X64077853Y-40626445D01*
X64131000Y-40595760D01*
X64131000Y-41401200D01*
X64690973Y-41401200D01*
X64690985Y-41401199D01*
X64793689Y-41390706D01*
X64793696Y-41390705D01*
X64960118Y-41335558D01*
X64960123Y-41335556D01*
X65109344Y-41243515D01*
X65233315Y-41119544D01*
X65325356Y-40970323D01*
X65325358Y-40970318D01*
X65380505Y-40803896D01*
X65380506Y-40803889D01*
X65390999Y-40701185D01*
X65391000Y-40701172D01*
X65391000Y-40401200D01*
X64325560Y-40401200D01*
X64356245Y-40348053D01*
X64391000Y-40218343D01*
X64391000Y-40084057D01*
X64356245Y-39954347D01*
X64325560Y-39901200D01*
X65391000Y-39901200D01*
X65391000Y-39601227D01*
X65390999Y-39601212D01*
X65384592Y-39538496D01*
X65383926Y-39531981D01*
X68758500Y-39531981D01*
X68758500Y-39706418D01*
X68792527Y-39877483D01*
X68792529Y-39877491D01*
X68859278Y-40038639D01*
X68859283Y-40038648D01*
X68956186Y-40183673D01*
X68956189Y-40183677D01*
X69079522Y-40307010D01*
X69079526Y-40307013D01*
X69224551Y-40403916D01*
X69224557Y-40403919D01*
X69224558Y-40403920D01*
X69385709Y-40470671D01*
X69532474Y-40499864D01*
X69556781Y-40504699D01*
X69556785Y-40504700D01*
X69556786Y-40504700D01*
X69731215Y-40504700D01*
X69731216Y-40504699D01*
X69902291Y-40470671D01*
X70063442Y-40403920D01*
X70208474Y-40307013D01*
X70331813Y-40183674D01*
X70428720Y-40038642D01*
X70495471Y-39877491D01*
X70529500Y-39706414D01*
X70529500Y-39531986D01*
X70529499Y-39531981D01*
X80758500Y-39531981D01*
X80758500Y-39706418D01*
X80792527Y-39877483D01*
X80792529Y-39877491D01*
X80859278Y-40038639D01*
X80859283Y-40038648D01*
X80956186Y-40183673D01*
X80956189Y-40183677D01*
X81079522Y-40307010D01*
X81079526Y-40307013D01*
X81224551Y-40403916D01*
X81224557Y-40403919D01*
X81224558Y-40403920D01*
X81385709Y-40470671D01*
X81532474Y-40499864D01*
X81556781Y-40504699D01*
X81556785Y-40504700D01*
X81556786Y-40504700D01*
X81731215Y-40504700D01*
X81731216Y-40504699D01*
X81902291Y-40470671D01*
X82063442Y-40403920D01*
X82208474Y-40307013D01*
X82331813Y-40183674D01*
X82428720Y-40038642D01*
X82495471Y-39877491D01*
X82529500Y-39706414D01*
X82529500Y-39531986D01*
X82495471Y-39360909D01*
X82428720Y-39199758D01*
X82428719Y-39199757D01*
X82428716Y-39199751D01*
X82331813Y-39054726D01*
X82331810Y-39054722D01*
X82208477Y-38931389D01*
X82208473Y-38931386D01*
X82063448Y-38834483D01*
X82063439Y-38834478D01*
X81902291Y-38767729D01*
X81902283Y-38767727D01*
X81731218Y-38733700D01*
X81731214Y-38733700D01*
X81556786Y-38733700D01*
X81556781Y-38733700D01*
X81385716Y-38767727D01*
X81385708Y-38767729D01*
X81224560Y-38834478D01*
X81224551Y-38834483D01*
X81079526Y-38931386D01*
X81079522Y-38931389D01*
X80956189Y-39054722D01*
X80956186Y-39054726D01*
X80859283Y-39199751D01*
X80859278Y-39199760D01*
X80792529Y-39360908D01*
X80792527Y-39360916D01*
X80758500Y-39531981D01*
X70529499Y-39531981D01*
X70495471Y-39360909D01*
X70428720Y-39199758D01*
X70428719Y-39199757D01*
X70428716Y-39199751D01*
X70331813Y-39054726D01*
X70331810Y-39054722D01*
X70208477Y-38931389D01*
X70208473Y-38931386D01*
X70063448Y-38834483D01*
X70063439Y-38834478D01*
X69902291Y-38767729D01*
X69902283Y-38767727D01*
X69731218Y-38733700D01*
X69731214Y-38733700D01*
X69556786Y-38733700D01*
X69556781Y-38733700D01*
X69385716Y-38767727D01*
X69385708Y-38767729D01*
X69224560Y-38834478D01*
X69224551Y-38834483D01*
X69079526Y-38931386D01*
X69079522Y-38931389D01*
X68956189Y-39054722D01*
X68956186Y-39054726D01*
X68859283Y-39199751D01*
X68859278Y-39199760D01*
X68792529Y-39360908D01*
X68792527Y-39360916D01*
X68758500Y-39531981D01*
X65383926Y-39531981D01*
X65380506Y-39498510D01*
X65380505Y-39498503D01*
X65325358Y-39332081D01*
X65325356Y-39332076D01*
X65233315Y-39182855D01*
X65109344Y-39058884D01*
X64960123Y-38966843D01*
X64960118Y-38966841D01*
X64793696Y-38911694D01*
X64793689Y-38911693D01*
X64690985Y-38901200D01*
X64131000Y-38901200D01*
X64131000Y-39706639D01*
X64077853Y-39675955D01*
X63948143Y-39641200D01*
X63813857Y-39641200D01*
X63684147Y-39675955D01*
X63631000Y-39706639D01*
X63631000Y-38901200D01*
X63071014Y-38901200D01*
X62968310Y-38911693D01*
X62968303Y-38911694D01*
X62801881Y-38966841D01*
X62801876Y-38966843D01*
X62652655Y-39058884D01*
X62528684Y-39182855D01*
X62436643Y-39332076D01*
X62436641Y-39332081D01*
X62381494Y-39498503D01*
X62381493Y-39498510D01*
X62371000Y-39601214D01*
X56704438Y-39601214D01*
X56669164Y-39531986D01*
X56650724Y-39495795D01*
X56535028Y-39336554D01*
X56395846Y-39197372D01*
X56236605Y-39081676D01*
X56191873Y-39058884D01*
X56061229Y-38992317D01*
X55874026Y-38931490D01*
X55679622Y-38900700D01*
X55679617Y-38900700D01*
X54962783Y-38900700D01*
X54962778Y-38900700D01*
X54768373Y-38931490D01*
X54581170Y-38992317D01*
X54405794Y-39081676D01*
X54314941Y-39147685D01*
X54246554Y-39197372D01*
X54246552Y-39197374D01*
X54246551Y-39197374D01*
X54107374Y-39336551D01*
X54107374Y-39336552D01*
X54107372Y-39336554D01*
X54089678Y-39360908D01*
X53991676Y-39495794D01*
X53902317Y-39671170D01*
X53841490Y-39858373D01*
X53810700Y-40052777D01*
X25900500Y-40052777D01*
X25900500Y-37063981D01*
X52475700Y-37063981D01*
X52475700Y-37238418D01*
X52509727Y-37409483D01*
X52509729Y-37409491D01*
X52576478Y-37570639D01*
X52576483Y-37570648D01*
X52673386Y-37715673D01*
X52673389Y-37715677D01*
X52796722Y-37839010D01*
X52796726Y-37839013D01*
X52941751Y-37935916D01*
X52941757Y-37935919D01*
X52941758Y-37935920D01*
X53102909Y-38002671D01*
X53273981Y-38036699D01*
X53273985Y-38036700D01*
X53273986Y-38036700D01*
X53448415Y-38036700D01*
X53448416Y-38036699D01*
X53619491Y-38002671D01*
X53780642Y-37935920D01*
X53925674Y-37839013D01*
X54049013Y-37715674D01*
X54145920Y-37570642D01*
X54212671Y-37409491D01*
X54246700Y-37238414D01*
X54246700Y-37063986D01*
X54246699Y-37063981D01*
X64955500Y-37063981D01*
X64955500Y-37238418D01*
X64989527Y-37409483D01*
X64989529Y-37409491D01*
X65056278Y-37570639D01*
X65056283Y-37570648D01*
X65153186Y-37715673D01*
X65153189Y-37715677D01*
X65276522Y-37839010D01*
X65276526Y-37839013D01*
X65421551Y-37935916D01*
X65421557Y-37935919D01*
X65421558Y-37935920D01*
X65582709Y-38002671D01*
X65753781Y-38036699D01*
X65753785Y-38036700D01*
X65753786Y-38036700D01*
X65928215Y-38036700D01*
X65928216Y-38036699D01*
X66099291Y-38002671D01*
X66260442Y-37935920D01*
X66405474Y-37839013D01*
X66528813Y-37715674D01*
X66625720Y-37570642D01*
X66692471Y-37409491D01*
X66726500Y-37238414D01*
X66726500Y-37063986D01*
X66692471Y-36892909D01*
X66625720Y-36731758D01*
X66625719Y-36731757D01*
X66625716Y-36731751D01*
X66528813Y-36586726D01*
X66528810Y-36586722D01*
X66405477Y-36463389D01*
X66405473Y-36463386D01*
X66260448Y-36366483D01*
X66260439Y-36366478D01*
X66099291Y-36299729D01*
X66099283Y-36299727D01*
X65928218Y-36265700D01*
X65928214Y-36265700D01*
X65753786Y-36265700D01*
X65753781Y-36265700D01*
X65582716Y-36299727D01*
X65582708Y-36299729D01*
X65421560Y-36366478D01*
X65421551Y-36366483D01*
X65276526Y-36463386D01*
X65276522Y-36463389D01*
X65153189Y-36586722D01*
X65153186Y-36586726D01*
X65056283Y-36731751D01*
X65056278Y-36731760D01*
X64989529Y-36892908D01*
X64989527Y-36892916D01*
X64955500Y-37063981D01*
X54246699Y-37063981D01*
X54212671Y-36892909D01*
X54145920Y-36731758D01*
X54145919Y-36731757D01*
X54145916Y-36731751D01*
X54049013Y-36586726D01*
X54049010Y-36586722D01*
X53925677Y-36463389D01*
X53925673Y-36463386D01*
X53780648Y-36366483D01*
X53780639Y-36366478D01*
X53619491Y-36299729D01*
X53619483Y-36299727D01*
X53448418Y-36265700D01*
X53448414Y-36265700D01*
X53273986Y-36265700D01*
X53273981Y-36265700D01*
X53102916Y-36299727D01*
X53102908Y-36299729D01*
X52941760Y-36366478D01*
X52941751Y-36366483D01*
X52796726Y-36463386D01*
X52796722Y-36463389D01*
X52673389Y-36586722D01*
X52673386Y-36586726D01*
X52576483Y-36731751D01*
X52576478Y-36731760D01*
X52509729Y-36892908D01*
X52509727Y-36892916D01*
X52475700Y-37063981D01*
X25900500Y-37063981D01*
X25900500Y-32380905D01*
X29343600Y-32380905D01*
X29343600Y-32643094D01*
X29377820Y-32903009D01*
X29377822Y-32903020D01*
X29445675Y-33156255D01*
X29546004Y-33398471D01*
X29546009Y-33398482D01*
X29677088Y-33625516D01*
X29677094Y-33625524D01*
X29763680Y-33738365D01*
X30704289Y-32797756D01*
X30723268Y-32843574D01*
X30799874Y-32958224D01*
X30897376Y-33055726D01*
X31012026Y-33132332D01*
X31057842Y-33151309D01*
X30117233Y-34091917D01*
X30117233Y-34091918D01*
X30230075Y-34178505D01*
X30230083Y-34178511D01*
X30457117Y-34309590D01*
X30457128Y-34309595D01*
X30699344Y-34409924D01*
X30952579Y-34477777D01*
X30952590Y-34477779D01*
X31212505Y-34511999D01*
X31212520Y-34512000D01*
X31474680Y-34512000D01*
X31474694Y-34511999D01*
X31734609Y-34477779D01*
X31734620Y-34477777D01*
X31987855Y-34409924D01*
X32230071Y-34309595D01*
X32230082Y-34309590D01*
X32457116Y-34178511D01*
X32457134Y-34178499D01*
X32569965Y-34091919D01*
X32569965Y-34091917D01*
X31629357Y-33151309D01*
X31675174Y-33132332D01*
X31789824Y-33055726D01*
X31887326Y-32958224D01*
X31963932Y-32843574D01*
X31982909Y-32797757D01*
X32923517Y-33738365D01*
X32923519Y-33738365D01*
X33010099Y-33625534D01*
X33010111Y-33625516D01*
X33141190Y-33398482D01*
X33141195Y-33398471D01*
X33241524Y-33156255D01*
X33309377Y-32903020D01*
X33309379Y-32903009D01*
X33343599Y-32643094D01*
X33343600Y-32643080D01*
X33343600Y-32380919D01*
X33343599Y-32380905D01*
X35693600Y-32380905D01*
X35693600Y-32643094D01*
X35727820Y-32903009D01*
X35727822Y-32903020D01*
X35795675Y-33156255D01*
X35896004Y-33398471D01*
X35896009Y-33398482D01*
X36027088Y-33625516D01*
X36027094Y-33625524D01*
X36113680Y-33738365D01*
X37054289Y-32797756D01*
X37073268Y-32843574D01*
X37149874Y-32958224D01*
X37247376Y-33055726D01*
X37362026Y-33132332D01*
X37407842Y-33151309D01*
X36467233Y-34091917D01*
X36467233Y-34091918D01*
X36580075Y-34178505D01*
X36580083Y-34178511D01*
X36807117Y-34309590D01*
X36807128Y-34309595D01*
X37049344Y-34409924D01*
X37302579Y-34477777D01*
X37302590Y-34477779D01*
X37562505Y-34511999D01*
X37562520Y-34512000D01*
X37824680Y-34512000D01*
X37824694Y-34511999D01*
X38084609Y-34477779D01*
X38084620Y-34477777D01*
X38337855Y-34409924D01*
X38580071Y-34309595D01*
X38580082Y-34309590D01*
X38807116Y-34178511D01*
X38807134Y-34178499D01*
X38919965Y-34091919D01*
X38919965Y-34091917D01*
X37979357Y-33151309D01*
X38025174Y-33132332D01*
X38139824Y-33055726D01*
X38237326Y-32958224D01*
X38313932Y-32843574D01*
X38332909Y-32797757D01*
X39273517Y-33738365D01*
X39273519Y-33738365D01*
X39360099Y-33625534D01*
X39360111Y-33625516D01*
X39491190Y-33398482D01*
X39491195Y-33398471D01*
X39591524Y-33156255D01*
X39659377Y-32903020D01*
X39659379Y-32903009D01*
X39693599Y-32643094D01*
X39693600Y-32643080D01*
X39693600Y-32380919D01*
X39693599Y-32380905D01*
X42043600Y-32380905D01*
X42043600Y-32643094D01*
X42077820Y-32903009D01*
X42077822Y-32903020D01*
X42145675Y-33156255D01*
X42246004Y-33398471D01*
X42246009Y-33398482D01*
X42377088Y-33625516D01*
X42377094Y-33625524D01*
X42463680Y-33738365D01*
X43404289Y-32797756D01*
X43423268Y-32843574D01*
X43499874Y-32958224D01*
X43597376Y-33055726D01*
X43712026Y-33132332D01*
X43757842Y-33151309D01*
X42817233Y-34091917D01*
X42817233Y-34091918D01*
X42930075Y-34178505D01*
X42930083Y-34178511D01*
X43157117Y-34309590D01*
X43157128Y-34309595D01*
X43399344Y-34409924D01*
X43652579Y-34477777D01*
X43652590Y-34477779D01*
X43912505Y-34511999D01*
X43912520Y-34512000D01*
X44174680Y-34512000D01*
X44174694Y-34511999D01*
X44434609Y-34477779D01*
X44434620Y-34477777D01*
X44687855Y-34409924D01*
X44930071Y-34309595D01*
X44930082Y-34309590D01*
X45157116Y-34178511D01*
X45157134Y-34178499D01*
X45269965Y-34091919D01*
X45269965Y-34091917D01*
X44329357Y-33151309D01*
X44375174Y-33132332D01*
X44489824Y-33055726D01*
X44587326Y-32958224D01*
X44663932Y-32843574D01*
X44682909Y-32797757D01*
X45623517Y-33738365D01*
X45623519Y-33738365D01*
X45710099Y-33625534D01*
X45710111Y-33625516D01*
X45841190Y-33398482D01*
X45841195Y-33398471D01*
X45941524Y-33156255D01*
X46009377Y-32903020D01*
X46009379Y-32903009D01*
X46043599Y-32643094D01*
X46043600Y-32643080D01*
X46043600Y-32380919D01*
X46043599Y-32380905D01*
X46009379Y-32120990D01*
X46009377Y-32120979D01*
X45941524Y-31867744D01*
X45841195Y-31625528D01*
X45841190Y-31625517D01*
X45710111Y-31398483D01*
X45710105Y-31398475D01*
X45623518Y-31285633D01*
X45623517Y-31285633D01*
X44682909Y-32226242D01*
X44663932Y-32180426D01*
X44587326Y-32065776D01*
X44489824Y-31968274D01*
X44375174Y-31891668D01*
X44329355Y-31872689D01*
X45269965Y-30932080D01*
X45157124Y-30845494D01*
X45157116Y-30845488D01*
X44930082Y-30714409D01*
X44930071Y-30714404D01*
X44687855Y-30614075D01*
X44434620Y-30546222D01*
X44434609Y-30546220D01*
X44174694Y-30512000D01*
X43912505Y-30512000D01*
X43652590Y-30546220D01*
X43652579Y-30546222D01*
X43399344Y-30614075D01*
X43157128Y-30714404D01*
X43157117Y-30714409D01*
X42930071Y-30845496D01*
X42817233Y-30932079D01*
X42817233Y-30932080D01*
X43757843Y-31872690D01*
X43712026Y-31891668D01*
X43597376Y-31968274D01*
X43499874Y-32065776D01*
X43423268Y-32180426D01*
X43404290Y-32226243D01*
X42463680Y-31285633D01*
X42463679Y-31285633D01*
X42377096Y-31398471D01*
X42246009Y-31625517D01*
X42246004Y-31625528D01*
X42145675Y-31867744D01*
X42077822Y-32120979D01*
X42077820Y-32120990D01*
X42043600Y-32380905D01*
X39693599Y-32380905D01*
X39659379Y-32120990D01*
X39659377Y-32120979D01*
X39591524Y-31867744D01*
X39491195Y-31625528D01*
X39491190Y-31625517D01*
X39360111Y-31398483D01*
X39360105Y-31398475D01*
X39273518Y-31285633D01*
X39273517Y-31285633D01*
X38332909Y-32226242D01*
X38313932Y-32180426D01*
X38237326Y-32065776D01*
X38139824Y-31968274D01*
X38025174Y-31891668D01*
X37979355Y-31872689D01*
X38919965Y-30932080D01*
X38807124Y-30845494D01*
X38807116Y-30845488D01*
X38580082Y-30714409D01*
X38580071Y-30714404D01*
X38337855Y-30614075D01*
X38084620Y-30546222D01*
X38084609Y-30546220D01*
X37824694Y-30512000D01*
X37562505Y-30512000D01*
X37302590Y-30546220D01*
X37302579Y-30546222D01*
X37049344Y-30614075D01*
X36807128Y-30714404D01*
X36807117Y-30714409D01*
X36580071Y-30845496D01*
X36467233Y-30932079D01*
X36467233Y-30932080D01*
X37407843Y-31872690D01*
X37362026Y-31891668D01*
X37247376Y-31968274D01*
X37149874Y-32065776D01*
X37073268Y-32180426D01*
X37054290Y-32226243D01*
X36113680Y-31285633D01*
X36113679Y-31285633D01*
X36027096Y-31398471D01*
X35896009Y-31625517D01*
X35896004Y-31625528D01*
X35795675Y-31867744D01*
X35727822Y-32120979D01*
X35727820Y-32120990D01*
X35693600Y-32380905D01*
X33343599Y-32380905D01*
X33309379Y-32120990D01*
X33309377Y-32120979D01*
X33241524Y-31867744D01*
X33141195Y-31625528D01*
X33141190Y-31625517D01*
X33010111Y-31398483D01*
X33010105Y-31398475D01*
X32923518Y-31285633D01*
X32923517Y-31285633D01*
X31982909Y-32226242D01*
X31963932Y-32180426D01*
X31887326Y-32065776D01*
X31789824Y-31968274D01*
X31675174Y-31891668D01*
X31629355Y-31872689D01*
X32569965Y-30932080D01*
X32457124Y-30845494D01*
X32457116Y-30845488D01*
X32230082Y-30714409D01*
X32230071Y-30714404D01*
X31987855Y-30614075D01*
X31734620Y-30546222D01*
X31734609Y-30546220D01*
X31474694Y-30512000D01*
X31212505Y-30512000D01*
X30952590Y-30546220D01*
X30952579Y-30546222D01*
X30699344Y-30614075D01*
X30457128Y-30714404D01*
X30457117Y-30714409D01*
X30230071Y-30845496D01*
X30117233Y-30932079D01*
X30117233Y-30932080D01*
X31057843Y-31872690D01*
X31012026Y-31891668D01*
X30897376Y-31968274D01*
X30799874Y-32065776D01*
X30723268Y-32180426D01*
X30704290Y-32226243D01*
X29763680Y-31285633D01*
X29763679Y-31285633D01*
X29677096Y-31398471D01*
X29546009Y-31625517D01*
X29546004Y-31625528D01*
X29445675Y-31867744D01*
X29377822Y-32120979D01*
X29377820Y-32120990D01*
X29343600Y-32380905D01*
X25900500Y-32380905D01*
X25900500Y-30536729D01*
X25920185Y-30469690D01*
X25972989Y-30423935D01*
X26042147Y-30413991D01*
X26101812Y-30439781D01*
X26143003Y-30472630D01*
X26437867Y-30657906D01*
X26751621Y-30809002D01*
X26998488Y-30895384D01*
X27080307Y-30924014D01*
X27080315Y-30924017D01*
X27080318Y-30924017D01*
X27080319Y-30924018D01*
X27419829Y-31001509D01*
X27765876Y-31040499D01*
X27765877Y-31040500D01*
X27765880Y-31040500D01*
X28114123Y-31040500D01*
X28114123Y-31040499D01*
X28460171Y-31001509D01*
X28799681Y-30924018D01*
X28848873Y-30906804D01*
X28974085Y-30862992D01*
X29024090Y-30845494D01*
X29128379Y-30809002D01*
X29442133Y-30657906D01*
X29736997Y-30472630D01*
X29740684Y-30469690D01*
X30009256Y-30255512D01*
X30009258Y-30255509D01*
X30009263Y-30255506D01*
X30255506Y-30009263D01*
X30472630Y-29736997D01*
X30657906Y-29442133D01*
X30809002Y-29128379D01*
X30924018Y-28799681D01*
X31001509Y-28460171D01*
X31040500Y-28114120D01*
X31040500Y-27765880D01*
X31001509Y-27419829D01*
X30924018Y-27080319D01*
X30809002Y-26751621D01*
X30657906Y-26437867D01*
X30472630Y-26143003D01*
X30439781Y-26101812D01*
X30413373Y-26037126D01*
X30426130Y-25968431D01*
X30474000Y-25917537D01*
X30536729Y-25900500D01*
X96463271Y-25900500D01*
X96477992Y-25904822D01*
G37*
%TD.AperFunction*%
%TD*%
%TA.AperFunction,Conductor*%
%TO.N,+12V*%
G36*
X41292576Y-51300088D02*
G01*
X41338331Y-51352892D01*
X41349536Y-51404104D01*
X41355855Y-54038860D01*
X41365285Y-57971661D01*
X41349600Y-58025555D01*
X41349600Y-62661385D01*
X41329915Y-62728424D01*
X41277111Y-62774179D01*
X41225508Y-62785385D01*
X34539308Y-62780402D01*
X34472283Y-62760667D01*
X34426567Y-62707829D01*
X34415400Y-62656402D01*
X34415400Y-59561214D01*
X35854000Y-59561214D01*
X35854000Y-59861200D01*
X36670988Y-59861200D01*
X36638075Y-59918207D01*
X36604000Y-60045374D01*
X36604000Y-60177026D01*
X36638075Y-60304193D01*
X36670988Y-60361200D01*
X35854000Y-60361200D01*
X35854000Y-60661185D01*
X35864493Y-60763889D01*
X35864494Y-60763896D01*
X35919641Y-60930318D01*
X35919643Y-60930323D01*
X36011684Y-61079544D01*
X36135655Y-61203515D01*
X36284876Y-61295556D01*
X36284881Y-61295558D01*
X36451303Y-61350705D01*
X36451310Y-61350706D01*
X36554014Y-61361199D01*
X36554027Y-61361200D01*
X36854000Y-61361200D01*
X36854000Y-60544212D01*
X36911007Y-60577125D01*
X37038174Y-60611200D01*
X37169826Y-60611200D01*
X37296993Y-60577125D01*
X37354000Y-60544212D01*
X37354000Y-61361200D01*
X37653973Y-61361200D01*
X37653985Y-61361199D01*
X37756689Y-61350706D01*
X37756696Y-61350705D01*
X37923118Y-61295558D01*
X37923123Y-61295556D01*
X38072344Y-61203515D01*
X38196315Y-61079544D01*
X38288356Y-60930323D01*
X38288358Y-60930318D01*
X38340585Y-60772708D01*
X38380357Y-60715263D01*
X38444873Y-60688440D01*
X38513649Y-60700755D01*
X38564849Y-60748298D01*
X38568777Y-60755420D01*
X38574474Y-60766603D01*
X38578910Y-60772708D01*
X38690172Y-60925846D01*
X38829354Y-61065028D01*
X38988595Y-61180724D01*
X39071455Y-61222943D01*
X39163970Y-61270082D01*
X39163972Y-61270082D01*
X39163975Y-61270084D01*
X39264317Y-61302687D01*
X39351173Y-61330909D01*
X39545578Y-61361700D01*
X39545583Y-61361700D01*
X39742422Y-61361700D01*
X39936826Y-61330909D01*
X40124025Y-61270084D01*
X40299405Y-61180724D01*
X40458646Y-61065028D01*
X40597828Y-60925846D01*
X40713524Y-60766605D01*
X40802884Y-60591225D01*
X40863709Y-60404026D01*
X40879521Y-60304193D01*
X40894500Y-60209622D01*
X40894500Y-60012777D01*
X40863709Y-59818373D01*
X40802882Y-59631170D01*
X40745106Y-59517778D01*
X40713524Y-59455795D01*
X40597828Y-59296554D01*
X40458646Y-59157372D01*
X40299405Y-59041676D01*
X40254673Y-59018884D01*
X40124029Y-58952317D01*
X39936826Y-58891490D01*
X39742422Y-58860700D01*
X39742417Y-58860700D01*
X39545583Y-58860700D01*
X39545578Y-58860700D01*
X39351173Y-58891490D01*
X39163970Y-58952317D01*
X38988594Y-59041676D01*
X38897741Y-59107685D01*
X38829354Y-59157372D01*
X38829352Y-59157374D01*
X38829351Y-59157374D01*
X38690174Y-59296551D01*
X38690174Y-59296552D01*
X38690172Y-59296554D01*
X38640485Y-59364941D01*
X38574476Y-59455794D01*
X38568776Y-59466982D01*
X38520801Y-59517778D01*
X38452980Y-59534573D01*
X38386845Y-59512035D01*
X38343394Y-59457320D01*
X38340585Y-59449691D01*
X38288358Y-59292081D01*
X38288356Y-59292076D01*
X38196315Y-59142855D01*
X38072344Y-59018884D01*
X37923123Y-58926843D01*
X37923118Y-58926841D01*
X37756696Y-58871694D01*
X37756689Y-58871693D01*
X37653985Y-58861200D01*
X37354000Y-58861200D01*
X37354000Y-59678188D01*
X37296993Y-59645275D01*
X37169826Y-59611200D01*
X37038174Y-59611200D01*
X36911007Y-59645275D01*
X36854000Y-59678188D01*
X36854000Y-58861200D01*
X36554014Y-58861200D01*
X36451310Y-58871693D01*
X36451303Y-58871694D01*
X36284881Y-58926841D01*
X36284876Y-58926843D01*
X36135655Y-59018884D01*
X36011684Y-59142855D01*
X35919643Y-59292076D01*
X35919641Y-59292081D01*
X35864494Y-59458503D01*
X35864493Y-59458510D01*
X35854000Y-59561214D01*
X34415400Y-59561214D01*
X34415400Y-54384800D01*
X35204950Y-54384800D01*
X36683879Y-54384800D01*
X36664901Y-54430618D01*
X36638000Y-54565856D01*
X36638000Y-54703744D01*
X36664901Y-54838982D01*
X36683879Y-54884800D01*
X35204950Y-54884800D01*
X35219653Y-54996487D01*
X35282421Y-55230739D01*
X35375220Y-55454778D01*
X35375227Y-55454793D01*
X35496480Y-55664809D01*
X35644110Y-55857205D01*
X35644116Y-55857212D01*
X35815587Y-56028683D01*
X35815594Y-56028689D01*
X36007990Y-56176319D01*
X36218006Y-56297572D01*
X36218021Y-56297579D01*
X36442060Y-56390378D01*
X36676312Y-56453146D01*
X36916735Y-56484798D01*
X36916752Y-56484800D01*
X37088000Y-56484800D01*
X37088000Y-55288920D01*
X37133818Y-55307899D01*
X37269056Y-55334800D01*
X37406944Y-55334800D01*
X37542182Y-55307899D01*
X37588000Y-55288920D01*
X37588000Y-56484800D01*
X37759248Y-56484800D01*
X37759264Y-56484798D01*
X37999687Y-56453146D01*
X38233939Y-56390378D01*
X38457978Y-56297579D01*
X38457993Y-56297572D01*
X38668009Y-56176319D01*
X38860405Y-56028689D01*
X38860412Y-56028683D01*
X39031883Y-55857212D01*
X39031889Y-55857205D01*
X39179519Y-55664809D01*
X39300772Y-55454793D01*
X39300779Y-55454778D01*
X39393578Y-55230739D01*
X39456346Y-54996487D01*
X39471050Y-54884800D01*
X37992121Y-54884800D01*
X38011099Y-54838982D01*
X38038000Y-54703744D01*
X38038000Y-54565856D01*
X38011099Y-54430618D01*
X37992121Y-54384800D01*
X39471049Y-54384800D01*
X39456346Y-54273112D01*
X39393578Y-54038860D01*
X39300779Y-53814821D01*
X39300772Y-53814806D01*
X39179519Y-53604790D01*
X39031889Y-53412394D01*
X39031883Y-53412387D01*
X38860412Y-53240916D01*
X38860405Y-53240910D01*
X38668009Y-53093280D01*
X38457993Y-52972027D01*
X38457978Y-52972020D01*
X38233939Y-52879221D01*
X37999687Y-52816453D01*
X37759264Y-52784801D01*
X37759248Y-52784800D01*
X37588000Y-52784800D01*
X37588000Y-53980679D01*
X37542182Y-53961701D01*
X37406944Y-53934800D01*
X37269056Y-53934800D01*
X37133818Y-53961701D01*
X37088000Y-53980679D01*
X37088000Y-52784800D01*
X36916752Y-52784800D01*
X36916735Y-52784801D01*
X36676312Y-52816453D01*
X36442060Y-52879221D01*
X36218021Y-52972020D01*
X36218006Y-52972027D01*
X36007990Y-53093280D01*
X35815594Y-53240910D01*
X35815587Y-53240916D01*
X35644116Y-53412387D01*
X35644110Y-53412394D01*
X35496480Y-53604790D01*
X35375227Y-53814806D01*
X35375220Y-53814821D01*
X35282421Y-54038860D01*
X35219653Y-54273112D01*
X35204950Y-54384800D01*
X34415400Y-54384800D01*
X34415400Y-51404403D01*
X34435085Y-51337364D01*
X34487889Y-51291609D01*
X34539400Y-51280403D01*
X41225537Y-51280403D01*
X41292576Y-51300088D01*
G37*
%TD.AperFunction*%
%TD*%
M02*
