%TF.GenerationSoftware,KiCad,Pcbnew,9.0.4*%
%TF.CreationDate,2026-03-16T14:28:23-04:00*%
%TF.ProjectId,Pre Amp Stage,50726520-416d-4702-9053-746167652e6b,rev?*%
%TF.SameCoordinates,Original*%
%TF.FileFunction,Soldermask,Bot*%
%TF.FilePolarity,Negative*%
%FSLAX46Y46*%
G04 Gerber Fmt 4.6, Leading zero omitted, Abs format (unit mm)*
G04 Created by KiCad (PCBNEW 9.0.4) date 2026-03-16 14:28:23*
%MOMM*%
%LPD*%
G01*
G04 APERTURE LIST*
G04 Aperture macros list*
%AMRoundRect*
0 Rectangle with rounded corners*
0 $1 Rounding radius*
0 $2 $3 $4 $5 $6 $7 $8 $9 X,Y pos of 4 corners*
0 Add a 4 corners polygon primitive as box body*
4,1,4,$2,$3,$4,$5,$6,$7,$8,$9,$2,$3,0*
0 Add four circle primitives for the rounded corners*
1,1,$1+$1,$2,$3*
1,1,$1+$1,$4,$5*
1,1,$1+$1,$6,$7*
1,1,$1+$1,$8,$9*
0 Add four rect primitives between the rounded corners*
20,1,$1+$1,$2,$3,$4,$5,0*
20,1,$1+$1,$4,$5,$6,$7,0*
20,1,$1+$1,$6,$7,$8,$9,0*
20,1,$1+$1,$8,$9,$2,$3,0*%
G04 Aperture macros list end*
%ADD10R,1.500000X1.050000*%
%ADD11O,1.500000X1.050000*%
%ADD12C,2.200000*%
%ADD13C,1.270000*%
%ADD14RoundRect,0.250001X-0.759999X0.499999X-0.759999X-0.499999X0.759999X-0.499999X0.759999X0.499999X0*%
%ADD15O,2.020000X1.500000*%
%ADD16RoundRect,0.250001X-0.499999X-0.759999X0.499999X-0.759999X0.499999X0.759999X-0.499999X0.759999X0*%
%ADD17O,1.500000X2.020000*%
%ADD18C,3.000000*%
%ADD19RoundRect,0.250001X-1.399999X1.099999X-1.399999X-1.099999X1.399999X-1.099999X1.399999X1.099999X0*%
%ADD20O,3.300000X2.700000*%
%ADD21RoundRect,0.250001X1.399999X-1.099999X1.399999X1.099999X-1.399999X1.099999X-1.399999X-1.099999X0*%
%ADD22RoundRect,0.250001X0.499999X-0.499999X0.499999X0.499999X-0.499999X0.499999X-0.499999X-0.499999X0*%
%ADD23C,1.500000*%
%ADD24RoundRect,0.250001X0.759999X-0.499999X0.759999X0.499999X-0.759999X0.499999X-0.759999X-0.499999X0*%
%ADD25RoundRect,0.200000X0.200000X0.275000X-0.200000X0.275000X-0.200000X-0.275000X0.200000X-0.275000X0*%
%ADD26RoundRect,0.200000X-0.200000X-0.275000X0.200000X-0.275000X0.200000X0.275000X-0.200000X0.275000X0*%
G04 APERTURE END LIST*
D10*
%TO.C,Q1*%
X56053401Y-52654200D03*
D11*
X56053401Y-53924201D03*
X56053401Y-55194200D03*
%TD*%
D12*
%TO.C,H4*%
X99060000Y-27940000D03*
%TD*%
D13*
%TO.C,J3*%
X65841000Y-37151200D03*
X65841000Y-49151200D03*
D14*
X63881000Y-40151200D03*
D15*
X63881000Y-43151200D03*
X63881000Y-46151200D03*
%TD*%
D13*
%TO.C,J5*%
X69644000Y-39619200D03*
X81644000Y-39619200D03*
D16*
X72644000Y-41579200D03*
D17*
X75644000Y-41579200D03*
X78644000Y-41579200D03*
%TD*%
D18*
%TO.C,J1*%
X37693600Y-48742000D03*
X37693600Y-32512000D03*
X31343600Y-48742000D03*
X31343600Y-32512000D03*
X44043600Y-48742000D03*
X44043600Y-32512000D03*
%TD*%
D13*
%TO.C,J7*%
X69644000Y-58584400D03*
X81644000Y-58584400D03*
D16*
X72644000Y-60544400D03*
D17*
X75644000Y-60544400D03*
X78644000Y-60544400D03*
%TD*%
D19*
%TO.C,J8*%
X93699400Y-32969200D03*
D20*
X88199400Y-32969200D03*
%TD*%
D21*
%TO.C,J4*%
X31838000Y-54634800D03*
D20*
X37338000Y-54634800D03*
%TD*%
D12*
%TO.C,H3*%
X99060000Y-63500000D03*
%TD*%
D22*
%TO.C,U2*%
X37104000Y-60111200D03*
D23*
X39644000Y-60111200D03*
X44724000Y-60111200D03*
X47264000Y-60111200D03*
X49804000Y-60111200D03*
%TD*%
D12*
%TO.C,H2*%
X27940000Y-63500000D03*
%TD*%
D13*
%TO.C,J6*%
X78201000Y-49542000D03*
X90201000Y-49542000D03*
D16*
X81201000Y-51502000D03*
D17*
X84201000Y-51502000D03*
X87201000Y-51502000D03*
%TD*%
D12*
%TO.C,H1*%
X27940000Y-27940000D03*
%TD*%
D13*
%TO.C,J2*%
X53361200Y-49151200D03*
X53361200Y-37151200D03*
D24*
X55321200Y-46151200D03*
D15*
X55321200Y-43151200D03*
X55321200Y-40151200D03*
%TD*%
D25*
%TO.C,C4*%
X84974400Y-54393800D03*
X83324400Y-54393800D03*
%TD*%
D26*
%TO.C,C7*%
X37578200Y-62915800D03*
X39228200Y-62915800D03*
%TD*%
M02*
