%TF.GenerationSoftware,KiCad,Pcbnew,9.0.4*%
%TF.CreationDate,2026-03-16T14:28:23-04:00*%
%TF.ProjectId,Pre Amp Stage,50726520-416d-4702-9053-746167652e6b,rev?*%
%TF.SameCoordinates,Original*%
%TF.FileFunction,Soldermask,Top*%
%TF.FilePolarity,Negative*%
%FSLAX46Y46*%
G04 Gerber Fmt 4.6, Leading zero omitted, Abs format (unit mm)*
G04 Created by KiCad (PCBNEW 9.0.4) date 2026-03-16 14:28:23*
%MOMM*%
%LPD*%
G01*
G04 APERTURE LIST*
G04 Aperture macros list*
%AMRoundRect*
0 Rectangle with rounded corners*
0 $1 Rounding radius*
0 $2 $3 $4 $5 $6 $7 $8 $9 X,Y pos of 4 corners*
0 Add a 4 corners polygon primitive as box body*
4,1,4,$2,$3,$4,$5,$6,$7,$8,$9,$2,$3,0*
0 Add four circle primitives for the rounded corners*
1,1,$1+$1,$2,$3*
1,1,$1+$1,$4,$5*
1,1,$1+$1,$6,$7*
1,1,$1+$1,$8,$9*
0 Add four rect primitives between the rounded corners*
20,1,$1+$1,$2,$3,$4,$5,0*
20,1,$1+$1,$4,$5,$6,$7,0*
20,1,$1+$1,$6,$7,$8,$9,0*
20,1,$1+$1,$8,$9,$2,$3,0*%
G04 Aperture macros list end*
%ADD10RoundRect,0.200000X-0.200000X-0.275000X0.200000X-0.275000X0.200000X0.275000X-0.200000X0.275000X0*%
%ADD11RoundRect,0.200000X0.200000X0.275000X-0.200000X0.275000X-0.200000X-0.275000X0.200000X-0.275000X0*%
%ADD12R,1.500000X1.050000*%
%ADD13O,1.500000X1.050000*%
%ADD14C,2.200000*%
%ADD15RoundRect,0.200000X-0.275000X0.200000X-0.275000X-0.200000X0.275000X-0.200000X0.275000X0.200000X0*%
%ADD16RoundRect,0.200000X0.275000X-0.200000X0.275000X0.200000X-0.275000X0.200000X-0.275000X-0.200000X0*%
%ADD17C,1.270000*%
%ADD18RoundRect,0.250001X-0.759999X0.499999X-0.759999X-0.499999X0.759999X-0.499999X0.759999X0.499999X0*%
%ADD19O,2.020000X1.500000*%
%ADD20RoundRect,0.250001X-0.499999X-0.759999X0.499999X-0.759999X0.499999X0.759999X-0.499999X0.759999X0*%
%ADD21O,1.500000X2.020000*%
%ADD22C,3.000000*%
%ADD23R,0.508000X0.977900*%
%ADD24RoundRect,0.250001X-1.399999X1.099999X-1.399999X-1.099999X1.399999X-1.099999X1.399999X1.099999X0*%
%ADD25O,3.300000X2.700000*%
%ADD26RoundRect,0.250001X1.399999X-1.099999X1.399999X1.099999X-1.399999X1.099999X-1.399999X-1.099999X0*%
%ADD27RoundRect,0.250001X0.499999X-0.499999X0.499999X0.499999X-0.499999X0.499999X-0.499999X-0.499999X0*%
%ADD28C,1.500000*%
%ADD29RoundRect,0.250000X0.350000X0.450000X-0.350000X0.450000X-0.350000X-0.450000X0.350000X-0.450000X0*%
%ADD30RoundRect,0.250001X0.759999X-0.499999X0.759999X0.499999X-0.759999X0.499999X-0.759999X-0.499999X0*%
G04 APERTURE END LIST*
D10*
%TO.C,C10*%
X68490800Y-50177400D03*
X70140800Y-50177400D03*
%TD*%
D11*
%TO.C,C5*%
X85864200Y-47268800D03*
X84214200Y-47268800D03*
%TD*%
D12*
%TO.C,Q1*%
X56053401Y-52654200D03*
D13*
X56053401Y-53924201D03*
X56053401Y-55194200D03*
%TD*%
D14*
%TO.C,H4*%
X99060000Y-27940000D03*
%TD*%
D15*
%TO.C,R7*%
X83794600Y-41567000D03*
X83794600Y-43217000D03*
%TD*%
D11*
%TO.C,C8*%
X67600800Y-57162400D03*
X65950800Y-57162400D03*
%TD*%
D16*
%TO.C,R1*%
X52946800Y-55181000D03*
X52946800Y-53531000D03*
%TD*%
D17*
%TO.C,J3*%
X65841000Y-37151200D03*
X65841000Y-49151200D03*
D18*
X63881000Y-40151200D03*
D19*
X63881000Y-43151200D03*
X63881000Y-46151200D03*
%TD*%
D17*
%TO.C,J5*%
X69644000Y-39619200D03*
X81644000Y-39619200D03*
D20*
X72644000Y-41579200D03*
D21*
X75644000Y-41579200D03*
X78644000Y-41579200D03*
%TD*%
D10*
%TO.C,R2*%
X61659000Y-55219600D03*
X63309000Y-55219600D03*
%TD*%
%TO.C,R10*%
X84214200Y-45262200D03*
X85864200Y-45262200D03*
%TD*%
D11*
%TO.C,C13*%
X45605200Y-57581800D03*
X43955200Y-57581800D03*
%TD*%
D22*
%TO.C,J1*%
X37693600Y-48742000D03*
X37693600Y-32512000D03*
X31343600Y-48742000D03*
X31343600Y-32512000D03*
X44043600Y-48742000D03*
X44043600Y-32512000D03*
%TD*%
D10*
%TO.C,C2*%
X49619400Y-55194200D03*
X51269400Y-55194200D03*
%TD*%
%TO.C,R3*%
X62993000Y-52120800D03*
X64643000Y-52120800D03*
%TD*%
D17*
%TO.C,J7*%
X69644000Y-58584400D03*
X81644000Y-58584400D03*
D20*
X72644000Y-60544400D03*
D21*
X75644000Y-60544400D03*
X78644000Y-60544400D03*
%TD*%
D23*
%TO.C,U4*%
X45605201Y-53016150D03*
X44655200Y-53016150D03*
X43705199Y-53016150D03*
X43705199Y-55746650D03*
X45605201Y-55746650D03*
%TD*%
D10*
%TO.C,C14*%
X47079400Y-51612800D03*
X48729400Y-51612800D03*
%TD*%
D24*
%TO.C,J8*%
X93699400Y-32969200D03*
D25*
X88199400Y-32969200D03*
%TD*%
D10*
%TO.C,R6*%
X71919800Y-51874600D03*
X73569800Y-51874600D03*
%TD*%
D23*
%TO.C,U1*%
X69124801Y-52520550D03*
X68174800Y-52520550D03*
X67224799Y-52520550D03*
X67224799Y-55251050D03*
X69124801Y-55251050D03*
%TD*%
D11*
%TO.C,C12*%
X51269400Y-57048400D03*
X49619400Y-57048400D03*
%TD*%
D26*
%TO.C,J4*%
X31838000Y-54634800D03*
D25*
X37338000Y-54634800D03*
%TD*%
D14*
%TO.C,H3*%
X99060000Y-63500000D03*
%TD*%
D10*
%TO.C,C1*%
X49543200Y-53289200D03*
X51193200Y-53289200D03*
%TD*%
D27*
%TO.C,U2*%
X37104000Y-60111200D03*
D28*
X39644000Y-60111200D03*
X44724000Y-60111200D03*
X47264000Y-60111200D03*
X49804000Y-60111200D03*
%TD*%
D11*
%TO.C,R11*%
X89877400Y-45262200D03*
X88227400Y-45262200D03*
%TD*%
D10*
%TO.C,R4*%
X71919800Y-46926200D03*
X73569800Y-46926200D03*
%TD*%
%TO.C,R8*%
X92037400Y-52018600D03*
X93687400Y-52018600D03*
%TD*%
D11*
%TO.C,C9*%
X95820200Y-48196200D03*
X94170200Y-48196200D03*
%TD*%
D10*
%TO.C,R5*%
X71919800Y-49364600D03*
X73569800Y-49364600D03*
%TD*%
D14*
%TO.C,H2*%
X27940000Y-63500000D03*
%TD*%
D17*
%TO.C,J6*%
X78201000Y-49542000D03*
X90201000Y-49542000D03*
D20*
X81201000Y-51502000D03*
D21*
X84201000Y-51502000D03*
X87201000Y-51502000D03*
%TD*%
D23*
%TO.C,U3*%
X95821001Y-43338150D03*
X94871000Y-43338150D03*
X93920999Y-43338150D03*
X93920999Y-46068650D03*
X95821001Y-46068650D03*
%TD*%
D14*
%TO.C,H1*%
X27940000Y-27940000D03*
%TD*%
D11*
%TO.C,C6*%
X89877400Y-47268800D03*
X88227400Y-47268800D03*
%TD*%
D29*
%TO.C,C15*%
X90204800Y-37465000D03*
X88204800Y-37465000D03*
%TD*%
D16*
%TO.C,R9*%
X83769200Y-60539800D03*
X83769200Y-58889800D03*
%TD*%
D11*
%TO.C,C11*%
X92683600Y-41529000D03*
X91033600Y-41529000D03*
%TD*%
D10*
%TO.C,C3*%
X59691000Y-52120800D03*
X61341000Y-52120800D03*
%TD*%
D17*
%TO.C,J2*%
X53361200Y-49151200D03*
X53361200Y-37151200D03*
D30*
X55321200Y-46151200D03*
D19*
X55321200Y-43151200D03*
X55321200Y-40151200D03*
%TD*%
M02*
