%TF.GenerationSoftware,KiCad,Pcbnew,9.0.4*%
%TF.CreationDate,2026-03-16T14:28:23-04:00*%
%TF.ProjectId,Pre Amp Stage,50726520-416d-4702-9053-746167652e6b,rev?*%
%TF.SameCoordinates,Original*%
%TF.FileFunction,Copper,L3,Inr*%
%TF.FilePolarity,Positive*%
%FSLAX46Y46*%
G04 Gerber Fmt 4.6, Leading zero omitted, Abs format (unit mm)*
G04 Created by KiCad (PCBNEW 9.0.4) date 2026-03-16 14:28:23*
%MOMM*%
%LPD*%
G01*
G04 APERTURE LIST*
G04 Aperture macros list*
%AMRoundRect*
0 Rectangle with rounded corners*
0 $1 Rounding radius*
0 $2 $3 $4 $5 $6 $7 $8 $9 X,Y pos of 4 corners*
0 Add a 4 corners polygon primitive as box body*
4,1,4,$2,$3,$4,$5,$6,$7,$8,$9,$2,$3,0*
0 Add four circle primitives for the rounded corners*
1,1,$1+$1,$2,$3*
1,1,$1+$1,$4,$5*
1,1,$1+$1,$6,$7*
1,1,$1+$1,$8,$9*
0 Add four rect primitives between the rounded corners*
20,1,$1+$1,$2,$3,$4,$5,0*
20,1,$1+$1,$4,$5,$6,$7,0*
20,1,$1+$1,$6,$7,$8,$9,0*
20,1,$1+$1,$8,$9,$2,$3,0*%
G04 Aperture macros list end*
%TA.AperFunction,ComponentPad*%
%ADD10R,1.500000X1.050000*%
%TD*%
%TA.AperFunction,ComponentPad*%
%ADD11O,1.500000X1.050000*%
%TD*%
%TA.AperFunction,ComponentPad*%
%ADD12RoundRect,0.250001X-0.759999X0.499999X-0.759999X-0.499999X0.759999X-0.499999X0.759999X0.499999X0*%
%TD*%
%TA.AperFunction,ComponentPad*%
%ADD13O,2.020000X1.500000*%
%TD*%
%TA.AperFunction,ComponentPad*%
%ADD14RoundRect,0.250001X-0.499999X-0.759999X0.499999X-0.759999X0.499999X0.759999X-0.499999X0.759999X0*%
%TD*%
%TA.AperFunction,ComponentPad*%
%ADD15O,1.500000X2.020000*%
%TD*%
%TA.AperFunction,ComponentPad*%
%ADD16C,3.000000*%
%TD*%
%TA.AperFunction,ComponentPad*%
%ADD17RoundRect,0.250001X-1.399999X1.099999X-1.399999X-1.099999X1.399999X-1.099999X1.399999X1.099999X0*%
%TD*%
%TA.AperFunction,ComponentPad*%
%ADD18O,3.300000X2.700000*%
%TD*%
%TA.AperFunction,ComponentPad*%
%ADD19RoundRect,0.250001X1.399999X-1.099999X1.399999X1.099999X-1.399999X1.099999X-1.399999X-1.099999X0*%
%TD*%
%TA.AperFunction,ComponentPad*%
%ADD20RoundRect,0.250001X0.499999X-0.499999X0.499999X0.499999X-0.499999X0.499999X-0.499999X-0.499999X0*%
%TD*%
%TA.AperFunction,ComponentPad*%
%ADD21C,1.500000*%
%TD*%
%TA.AperFunction,ComponentPad*%
%ADD22RoundRect,0.250001X0.759999X-0.499999X0.759999X0.499999X-0.759999X0.499999X-0.759999X-0.499999X0*%
%TD*%
%TA.AperFunction,ViaPad*%
%ADD23C,0.600000*%
%TD*%
G04 APERTURE END LIST*
D10*
%TO.N,Net-(J2-Pin_1)*%
%TO.C,Q1*%
X56053401Y-52654200D03*
D11*
%TO.N,Net-(Q1-S)*%
X56053401Y-53924201D03*
%TO.N,Net-(Q1-G)*%
X56053401Y-55194200D03*
%TD*%
D12*
%TO.N,GND*%
%TO.C,J3*%
X63881000Y-40151200D03*
D13*
%TO.N,Net-(J3-Pin_2)*%
X63881000Y-43151200D03*
%TO.N,Net-(J3-Pin_3)*%
X63881000Y-46151200D03*
%TD*%
D14*
%TO.N,Net-(J5-Pin_1)*%
%TO.C,J5*%
X72644000Y-41579200D03*
D15*
%TO.N,Net-(J5-Pin_2)*%
X75644000Y-41579200D03*
%TO.N,Net-(J5-Pin_3)*%
X78644000Y-41579200D03*
%TD*%
D16*
%TO.N,GND*%
%TO.C,J1*%
X37693600Y-48742000D03*
X37693600Y-32512000D03*
X31343600Y-48742000D03*
X31343600Y-32512000D03*
%TO.N,Net-(U4-IN+)*%
X44043600Y-48742000D03*
%TO.N,GND*%
X44043600Y-32512000D03*
%TD*%
D14*
%TO.N,Net-(J7-Pin_1)*%
%TO.C,J7*%
X72644000Y-60544400D03*
D15*
%TO.N,Net-(J7-Pin_2)*%
X75644000Y-60544400D03*
%TO.N,Net-(J7-Pin_3)*%
X78644000Y-60544400D03*
%TD*%
D17*
%TO.N,GND*%
%TO.C,J8*%
X93699400Y-32969200D03*
D18*
%TO.N,Net-(C15-Pad2)*%
X88199400Y-32969200D03*
%TD*%
D19*
%TO.N,GND*%
%TO.C,J4*%
X31838000Y-54634800D03*
D18*
%TO.N,+12V*%
X37338000Y-54634800D03*
%TD*%
D20*
%TO.N,+12V*%
%TO.C,U2*%
X37104000Y-60111200D03*
D21*
%TO.N,GND*%
X39644000Y-60111200D03*
%TO.N,-15V*%
X44724000Y-60111200D03*
%TO.N,GND*%
X47264000Y-60111200D03*
%TO.N,+15V*%
X49804000Y-60111200D03*
%TD*%
D14*
%TO.N,Net-(J6-Pin_1)*%
%TO.C,J6*%
X81201000Y-51502000D03*
D15*
%TO.N,Net-(J6-Pin_2)*%
X84201000Y-51502000D03*
%TO.N,Net-(J6-Pin_3)*%
X87201000Y-51502000D03*
%TD*%
D22*
%TO.N,Net-(J2-Pin_1)*%
%TO.C,J2*%
X55321200Y-46151200D03*
D13*
%TO.N,+15V*%
X55321200Y-43151200D03*
X55321200Y-40151200D03*
%TD*%
D23*
%TO.N,GND*%
X49276000Y-58115200D03*
X89801200Y-42087800D03*
X64616800Y-56578200D03*
X92963200Y-48526400D03*
X70001600Y-49059800D03*
X64591400Y-54826200D03*
X92861600Y-42862200D03*
X49936400Y-51358800D03*
X51561200Y-52057600D03*
X52514200Y-52260800D03*
X42646600Y-58064400D03*
%TO.N,+15V*%
X70154000Y-55638400D03*
X45605200Y-56642000D03*
X95821001Y-47104000D03*
X68353525Y-56022325D03*
%TO.N,-15V*%
X68174800Y-51244200D03*
X94202042Y-42119758D03*
X45618400Y-51612800D03*
%TD*%
%TA.AperFunction,Conductor*%
%TO.N,+15V*%
G36*
X96530310Y-25920185D02*
G01*
X96576065Y-25972989D01*
X96586009Y-26042147D01*
X96560218Y-26101813D01*
X96527369Y-26143004D01*
X96342092Y-26437869D01*
X96190999Y-26751617D01*
X96075985Y-27080307D01*
X96075982Y-27080315D01*
X95998491Y-27419829D01*
X95998489Y-27419841D01*
X95959500Y-27765875D01*
X95959500Y-28114124D01*
X95998489Y-28460158D01*
X95998491Y-28460170D01*
X96075982Y-28799684D01*
X96075985Y-28799692D01*
X96190999Y-29128382D01*
X96342092Y-29442130D01*
X96527371Y-29736999D01*
X96527372Y-29737001D01*
X96744487Y-30009256D01*
X96990743Y-30255512D01*
X97262998Y-30472627D01*
X97263001Y-30472628D01*
X97263003Y-30472630D01*
X97557867Y-30657906D01*
X97871621Y-30809002D01*
X98118488Y-30895384D01*
X98200307Y-30924014D01*
X98200315Y-30924017D01*
X98200318Y-30924017D01*
X98200319Y-30924018D01*
X98539829Y-31001509D01*
X98885876Y-31040499D01*
X98885877Y-31040500D01*
X98885880Y-31040500D01*
X99234123Y-31040500D01*
X99234123Y-31040499D01*
X99580171Y-31001509D01*
X99919681Y-30924018D01*
X100248379Y-30809002D01*
X100562133Y-30657906D01*
X100856997Y-30472630D01*
X100898187Y-30439781D01*
X100962874Y-30413373D01*
X101031569Y-30426130D01*
X101082463Y-30474000D01*
X101099500Y-30536729D01*
X101099500Y-60903271D01*
X101079815Y-60970310D01*
X101027011Y-61016065D01*
X100957853Y-61026009D01*
X100898189Y-61000219D01*
X100856997Y-60967370D01*
X100856993Y-60967367D01*
X100856990Y-60967365D01*
X100562130Y-60782092D01*
X100248382Y-60630999D01*
X99919692Y-60515985D01*
X99919684Y-60515982D01*
X99665048Y-60457863D01*
X99580171Y-60438491D01*
X99580167Y-60438490D01*
X99580158Y-60438489D01*
X99234124Y-60399500D01*
X99234120Y-60399500D01*
X98885880Y-60399500D01*
X98885875Y-60399500D01*
X98539841Y-60438489D01*
X98539829Y-60438491D01*
X98200315Y-60515982D01*
X98200307Y-60515985D01*
X97871617Y-60630999D01*
X97557869Y-60782092D01*
X97263000Y-60967371D01*
X97262998Y-60967372D01*
X96990743Y-61184487D01*
X96744487Y-61430743D01*
X96527372Y-61702998D01*
X96527371Y-61703000D01*
X96342092Y-61997869D01*
X96190999Y-62311617D01*
X96075985Y-62640307D01*
X96075982Y-62640315D01*
X95998491Y-62979829D01*
X95998489Y-62979841D01*
X95959500Y-63325875D01*
X95959500Y-63674124D01*
X95998489Y-64020158D01*
X95998491Y-64020170D01*
X96075982Y-64359684D01*
X96075985Y-64359692D01*
X96190999Y-64688382D01*
X96342092Y-65002130D01*
X96342094Y-65002133D01*
X96527370Y-65296997D01*
X96560218Y-65338187D01*
X96586627Y-65402874D01*
X96573870Y-65471569D01*
X96526000Y-65522463D01*
X96463271Y-65539500D01*
X30536729Y-65539500D01*
X30469690Y-65519815D01*
X30423935Y-65467011D01*
X30413991Y-65397853D01*
X30439782Y-65338187D01*
X30472630Y-65296997D01*
X30657906Y-65002133D01*
X30809002Y-64688379D01*
X30924018Y-64359681D01*
X31001509Y-64020171D01*
X31040500Y-63674120D01*
X31040500Y-63325880D01*
X31001509Y-62979829D01*
X30924018Y-62640319D01*
X30809002Y-62311621D01*
X30680314Y-62044398D01*
X30657907Y-61997869D01*
X30652467Y-61989212D01*
X30472630Y-61703003D01*
X30472628Y-61703000D01*
X30472627Y-61702998D01*
X30255512Y-61430743D01*
X30009256Y-61184487D01*
X29737001Y-60967372D01*
X29736999Y-60967371D01*
X29442130Y-60782092D01*
X29128382Y-60630999D01*
X28799692Y-60515985D01*
X28799684Y-60515982D01*
X28545048Y-60457863D01*
X28460171Y-60438491D01*
X28460167Y-60438490D01*
X28460158Y-60438489D01*
X28114124Y-60399500D01*
X28114120Y-60399500D01*
X27765880Y-60399500D01*
X27765875Y-60399500D01*
X27419841Y-60438489D01*
X27419829Y-60438491D01*
X27080315Y-60515982D01*
X27080307Y-60515985D01*
X26751617Y-60630999D01*
X26437869Y-60782092D01*
X26143009Y-60967365D01*
X26143000Y-60967372D01*
X26101810Y-61000219D01*
X26037125Y-61026627D01*
X25968429Y-61013870D01*
X25917536Y-60965999D01*
X25900500Y-60903271D01*
X25900500Y-59561184D01*
X35853500Y-59561184D01*
X35853500Y-60661215D01*
X35864000Y-60763995D01*
X35864001Y-60763997D01*
X35869997Y-60782092D01*
X35919186Y-60930535D01*
X35919187Y-60930537D01*
X36011286Y-61079851D01*
X36011289Y-61079855D01*
X36135344Y-61203910D01*
X36135348Y-61203913D01*
X36284662Y-61296012D01*
X36284664Y-61296013D01*
X36284666Y-61296014D01*
X36451203Y-61351199D01*
X36553992Y-61361700D01*
X36553997Y-61361700D01*
X37654003Y-61361700D01*
X37654008Y-61361700D01*
X37756797Y-61351199D01*
X37923334Y-61296014D01*
X38072655Y-61203911D01*
X38196711Y-61079855D01*
X38288814Y-60930534D01*
X38340905Y-60773333D01*
X38380676Y-60715890D01*
X38445192Y-60689067D01*
X38513968Y-60701382D01*
X38565168Y-60748925D01*
X38569094Y-60756042D01*
X38574476Y-60766605D01*
X38690172Y-60925846D01*
X38829354Y-61065028D01*
X38988595Y-61180724D01*
X39071455Y-61222943D01*
X39163970Y-61270082D01*
X39163972Y-61270082D01*
X39163975Y-61270084D01*
X39243773Y-61296012D01*
X39351173Y-61330909D01*
X39545578Y-61361700D01*
X39545583Y-61361700D01*
X39742422Y-61361700D01*
X39936826Y-61330909D01*
X39938328Y-61330421D01*
X40124025Y-61270084D01*
X40299405Y-61180724D01*
X40458646Y-61065028D01*
X40597828Y-60925846D01*
X40713524Y-60766605D01*
X40802884Y-60591225D01*
X40863709Y-60404026D01*
X40879521Y-60304193D01*
X40894500Y-60209622D01*
X40894500Y-60012777D01*
X43473500Y-60012777D01*
X43473500Y-60209622D01*
X43504290Y-60404026D01*
X43565117Y-60591229D01*
X43645468Y-60748925D01*
X43654476Y-60766605D01*
X43770172Y-60925846D01*
X43909354Y-61065028D01*
X44068595Y-61180724D01*
X44151455Y-61222943D01*
X44243970Y-61270082D01*
X44243972Y-61270082D01*
X44243975Y-61270084D01*
X44323773Y-61296012D01*
X44431173Y-61330909D01*
X44625578Y-61361700D01*
X44625583Y-61361700D01*
X44822422Y-61361700D01*
X45016826Y-61330909D01*
X45018328Y-61330421D01*
X45204025Y-61270084D01*
X45379405Y-61180724D01*
X45538646Y-61065028D01*
X45677828Y-60925846D01*
X45793524Y-60766605D01*
X45882884Y-60591225D01*
X45883515Y-60589987D01*
X45931489Y-60539190D01*
X45999310Y-60522395D01*
X46065445Y-60544932D01*
X46104485Y-60589987D01*
X46194474Y-60766603D01*
X46205728Y-60782092D01*
X46310172Y-60925846D01*
X46449354Y-61065028D01*
X46608595Y-61180724D01*
X46691455Y-61222943D01*
X46783970Y-61270082D01*
X46783972Y-61270082D01*
X46783975Y-61270084D01*
X46863773Y-61296012D01*
X46971173Y-61330909D01*
X47165578Y-61361700D01*
X47165583Y-61361700D01*
X47362422Y-61361700D01*
X47556826Y-61330909D01*
X47558328Y-61330421D01*
X47744025Y-61270084D01*
X47919405Y-61180724D01*
X48078646Y-61065028D01*
X48217828Y-60925846D01*
X48333524Y-60766605D01*
X48422884Y-60591225D01*
X48422884Y-60591222D01*
X48423795Y-60589436D01*
X48471769Y-60538640D01*
X48539590Y-60521844D01*
X48605725Y-60544381D01*
X48644765Y-60589435D01*
X48734905Y-60766345D01*
X48760319Y-60801325D01*
X48760320Y-60801325D01*
X49321037Y-60240608D01*
X49338075Y-60304193D01*
X49403901Y-60418207D01*
X49496993Y-60511299D01*
X49611007Y-60577125D01*
X49674590Y-60594162D01*
X49113873Y-61154877D01*
X49113873Y-61154878D01*
X49148858Y-61180296D01*
X49324164Y-61269618D01*
X49511294Y-61330421D01*
X49705618Y-61361200D01*
X49902382Y-61361200D01*
X50096705Y-61330421D01*
X50283835Y-61269618D01*
X50459143Y-61180295D01*
X50494125Y-61154878D01*
X50494126Y-61154878D01*
X49933410Y-60594162D01*
X49996993Y-60577125D01*
X50111007Y-60511299D01*
X50204099Y-60418207D01*
X50269925Y-60304193D01*
X50286962Y-60240610D01*
X50847678Y-60801326D01*
X50847678Y-60801325D01*
X50873095Y-60766343D01*
X50962418Y-60591035D01*
X51023221Y-60403905D01*
X51054000Y-60209582D01*
X51054000Y-60012817D01*
X51023221Y-59818494D01*
X51023221Y-59818493D01*
X51007320Y-59769553D01*
X50995893Y-59734384D01*
X71393500Y-59734384D01*
X71393500Y-61354415D01*
X71404000Y-61457195D01*
X71404001Y-61457197D01*
X71431593Y-61540465D01*
X71459186Y-61623735D01*
X71459187Y-61623737D01*
X71551286Y-61773051D01*
X71551289Y-61773055D01*
X71675344Y-61897110D01*
X71675348Y-61897113D01*
X71824662Y-61989212D01*
X71824664Y-61989213D01*
X71824666Y-61989214D01*
X71991203Y-62044399D01*
X72093992Y-62054900D01*
X72093997Y-62054900D01*
X73194003Y-62054900D01*
X73194008Y-62054900D01*
X73296797Y-62044399D01*
X73463334Y-61989214D01*
X73612655Y-61897111D01*
X73736711Y-61773055D01*
X73828814Y-61623734D01*
X73883999Y-61457197D01*
X73894500Y-61354408D01*
X73894500Y-60185977D01*
X74393500Y-60185977D01*
X74393500Y-60902822D01*
X74424290Y-61097226D01*
X74485117Y-61284429D01*
X74524489Y-61361700D01*
X74574476Y-61459805D01*
X74690172Y-61619046D01*
X74829354Y-61758228D01*
X74988595Y-61873924D01*
X75071455Y-61916143D01*
X75163970Y-61963282D01*
X75163972Y-61963282D01*
X75163975Y-61963284D01*
X75243773Y-61989212D01*
X75351173Y-62024109D01*
X75545578Y-62054900D01*
X75545583Y-62054900D01*
X75742422Y-62054900D01*
X75936826Y-62024109D01*
X76124025Y-61963284D01*
X76299405Y-61873924D01*
X76458646Y-61758228D01*
X76597828Y-61619046D01*
X76713524Y-61459805D01*
X76802884Y-61284425D01*
X76863709Y-61097226D01*
X76875950Y-61019938D01*
X76894500Y-60902822D01*
X76894500Y-60185977D01*
X77393500Y-60185977D01*
X77393500Y-60902822D01*
X77424290Y-61097226D01*
X77485117Y-61284429D01*
X77524489Y-61361700D01*
X77574476Y-61459805D01*
X77690172Y-61619046D01*
X77829354Y-61758228D01*
X77988595Y-61873924D01*
X78071455Y-61916143D01*
X78163970Y-61963282D01*
X78163972Y-61963282D01*
X78163975Y-61963284D01*
X78243773Y-61989212D01*
X78351173Y-62024109D01*
X78545578Y-62054900D01*
X78545583Y-62054900D01*
X78742422Y-62054900D01*
X78936826Y-62024109D01*
X79124025Y-61963284D01*
X79299405Y-61873924D01*
X79458646Y-61758228D01*
X79597828Y-61619046D01*
X79713524Y-61459805D01*
X79802884Y-61284425D01*
X79863709Y-61097226D01*
X79875950Y-61019938D01*
X79894500Y-60902822D01*
X79894500Y-60185977D01*
X79863709Y-59991573D01*
X79835487Y-59904717D01*
X79802884Y-59804375D01*
X79802882Y-59804372D01*
X79802882Y-59804370D01*
X79738502Y-59678018D01*
X79713524Y-59628995D01*
X79597828Y-59469754D01*
X79458646Y-59330572D01*
X79299405Y-59214876D01*
X79253892Y-59191686D01*
X79124029Y-59125517D01*
X78936826Y-59064690D01*
X78742422Y-59033900D01*
X78742417Y-59033900D01*
X78545583Y-59033900D01*
X78545578Y-59033900D01*
X78351173Y-59064690D01*
X78163970Y-59125517D01*
X77988594Y-59214876D01*
X77909682Y-59272210D01*
X77829354Y-59330572D01*
X77829352Y-59330574D01*
X77829351Y-59330574D01*
X77690174Y-59469751D01*
X77690174Y-59469752D01*
X77690172Y-59469754D01*
X77643534Y-59533946D01*
X77574476Y-59628994D01*
X77485117Y-59804370D01*
X77424290Y-59991573D01*
X77393500Y-60185977D01*
X76894500Y-60185977D01*
X76863709Y-59991573D01*
X76835487Y-59904717D01*
X76802884Y-59804375D01*
X76802882Y-59804372D01*
X76802882Y-59804370D01*
X76738502Y-59678018D01*
X76713524Y-59628995D01*
X76597828Y-59469754D01*
X76458646Y-59330572D01*
X76299405Y-59214876D01*
X76253892Y-59191686D01*
X76124029Y-59125517D01*
X75936826Y-59064690D01*
X75742422Y-59033900D01*
X75742417Y-59033900D01*
X75545583Y-59033900D01*
X75545578Y-59033900D01*
X75351173Y-59064690D01*
X75163970Y-59125517D01*
X74988594Y-59214876D01*
X74909682Y-59272210D01*
X74829354Y-59330572D01*
X74829352Y-59330574D01*
X74829351Y-59330574D01*
X74690174Y-59469751D01*
X74690174Y-59469752D01*
X74690172Y-59469754D01*
X74643534Y-59533946D01*
X74574476Y-59628994D01*
X74485117Y-59804370D01*
X74424290Y-59991573D01*
X74393500Y-60185977D01*
X73894500Y-60185977D01*
X73894500Y-59734392D01*
X73883999Y-59631603D01*
X73828814Y-59465066D01*
X73824704Y-59458403D01*
X73736713Y-59315748D01*
X73736710Y-59315744D01*
X73612655Y-59191689D01*
X73612651Y-59191686D01*
X73463337Y-59099587D01*
X73463335Y-59099586D01*
X73358025Y-59064690D01*
X73296797Y-59044401D01*
X73296795Y-59044400D01*
X73194015Y-59033900D01*
X73194008Y-59033900D01*
X72093992Y-59033900D01*
X72093984Y-59033900D01*
X71991204Y-59044400D01*
X71991203Y-59044401D01*
X71824664Y-59099586D01*
X71824662Y-59099587D01*
X71675348Y-59191686D01*
X71675344Y-59191689D01*
X71551289Y-59315744D01*
X71551286Y-59315748D01*
X71459187Y-59465062D01*
X71459186Y-59465064D01*
X71404001Y-59631603D01*
X71404000Y-59631604D01*
X71393500Y-59734384D01*
X50995893Y-59734384D01*
X50962418Y-59631362D01*
X50873096Y-59456058D01*
X50847678Y-59421073D01*
X50847677Y-59421073D01*
X50286962Y-59981789D01*
X50269925Y-59918207D01*
X50204099Y-59804193D01*
X50111007Y-59711101D01*
X49996993Y-59645275D01*
X49933409Y-59628237D01*
X50494125Y-59067520D01*
X50494125Y-59067519D01*
X50459145Y-59042105D01*
X50283835Y-58952781D01*
X50096705Y-58891978D01*
X49935301Y-58866414D01*
X49872166Y-58836485D01*
X49835235Y-58777173D01*
X49836233Y-58707311D01*
X49867019Y-58656259D01*
X49897786Y-58625492D01*
X49897789Y-58625489D01*
X49983522Y-58497181D01*
X68758500Y-58497181D01*
X68758500Y-58671618D01*
X68792527Y-58842683D01*
X68792529Y-58842691D01*
X68859278Y-59003839D01*
X68859283Y-59003848D01*
X68956186Y-59148873D01*
X68956189Y-59148877D01*
X69079522Y-59272210D01*
X69079526Y-59272213D01*
X69224551Y-59369116D01*
X69224557Y-59369119D01*
X69224558Y-59369120D01*
X69385709Y-59435871D01*
X69532474Y-59465064D01*
X69556781Y-59469899D01*
X69556785Y-59469900D01*
X69556786Y-59469900D01*
X69731215Y-59469900D01*
X69731216Y-59469899D01*
X69902291Y-59435871D01*
X70063442Y-59369120D01*
X70208474Y-59272213D01*
X70331813Y-59148874D01*
X70428720Y-59003842D01*
X70495471Y-58842691D01*
X70529500Y-58671614D01*
X70529500Y-58497186D01*
X70529499Y-58497181D01*
X80758500Y-58497181D01*
X80758500Y-58671618D01*
X80792527Y-58842683D01*
X80792529Y-58842691D01*
X80859278Y-59003839D01*
X80859283Y-59003848D01*
X80956186Y-59148873D01*
X80956189Y-59148877D01*
X81079522Y-59272210D01*
X81079526Y-59272213D01*
X81224551Y-59369116D01*
X81224557Y-59369119D01*
X81224558Y-59369120D01*
X81385709Y-59435871D01*
X81532474Y-59465064D01*
X81556781Y-59469899D01*
X81556785Y-59469900D01*
X81556786Y-59469900D01*
X81731215Y-59469900D01*
X81731216Y-59469899D01*
X81902291Y-59435871D01*
X82063442Y-59369120D01*
X82208474Y-59272213D01*
X82331813Y-59148874D01*
X82428720Y-59003842D01*
X82495471Y-58842691D01*
X82529500Y-58671614D01*
X82529500Y-58497186D01*
X82495471Y-58326109D01*
X82428720Y-58164958D01*
X82428719Y-58164957D01*
X82428716Y-58164951D01*
X82331813Y-58019926D01*
X82331810Y-58019922D01*
X82208477Y-57896589D01*
X82208473Y-57896586D01*
X82063448Y-57799683D01*
X82063439Y-57799678D01*
X81902291Y-57732929D01*
X81902283Y-57732927D01*
X81731218Y-57698900D01*
X81731214Y-57698900D01*
X81556786Y-57698900D01*
X81556781Y-57698900D01*
X81385716Y-57732927D01*
X81385708Y-57732929D01*
X81224560Y-57799678D01*
X81224551Y-57799683D01*
X81079526Y-57896586D01*
X81079522Y-57896589D01*
X80956189Y-58019922D01*
X80956186Y-58019926D01*
X80859283Y-58164951D01*
X80859278Y-58164960D01*
X80792529Y-58326108D01*
X80792527Y-58326116D01*
X80758500Y-58497181D01*
X70529499Y-58497181D01*
X70495471Y-58326109D01*
X70428720Y-58164958D01*
X70428719Y-58164957D01*
X70428716Y-58164951D01*
X70331813Y-58019926D01*
X70331810Y-58019922D01*
X70208477Y-57896589D01*
X70208473Y-57896586D01*
X70063448Y-57799683D01*
X70063439Y-57799678D01*
X69902291Y-57732929D01*
X69902283Y-57732927D01*
X69731218Y-57698900D01*
X69731214Y-57698900D01*
X69556786Y-57698900D01*
X69556781Y-57698900D01*
X69385716Y-57732927D01*
X69385708Y-57732929D01*
X69224560Y-57799678D01*
X69224551Y-57799683D01*
X69079526Y-57896586D01*
X69079522Y-57896589D01*
X68956189Y-58019922D01*
X68956186Y-58019926D01*
X68859283Y-58164951D01*
X68859278Y-58164960D01*
X68792529Y-58326108D01*
X68792527Y-58326116D01*
X68758500Y-58497181D01*
X49983522Y-58497181D01*
X49985394Y-58494379D01*
X49985395Y-58494376D01*
X49985397Y-58494373D01*
X50006410Y-58443642D01*
X50045735Y-58348701D01*
X50045737Y-58348697D01*
X50076500Y-58194042D01*
X50076500Y-58036358D01*
X50076500Y-58036355D01*
X50076499Y-58036353D01*
X50066395Y-57985558D01*
X50045737Y-57881703D01*
X50024693Y-57830898D01*
X49985397Y-57736027D01*
X49985390Y-57736014D01*
X49897789Y-57604911D01*
X49897786Y-57604907D01*
X49786292Y-57493413D01*
X49786288Y-57493410D01*
X49655185Y-57405809D01*
X49655172Y-57405802D01*
X49509501Y-57345464D01*
X49509489Y-57345461D01*
X49354845Y-57314700D01*
X49354842Y-57314700D01*
X49197158Y-57314700D01*
X49197155Y-57314700D01*
X49042510Y-57345461D01*
X49042498Y-57345464D01*
X48896827Y-57405802D01*
X48896814Y-57405809D01*
X48765711Y-57493410D01*
X48765707Y-57493413D01*
X48654213Y-57604907D01*
X48654210Y-57604911D01*
X48566609Y-57736014D01*
X48566602Y-57736027D01*
X48506264Y-57881698D01*
X48506261Y-57881710D01*
X48475500Y-58036353D01*
X48475500Y-58194046D01*
X48506261Y-58348689D01*
X48506264Y-58348701D01*
X48566602Y-58494372D01*
X48566609Y-58494385D01*
X48654210Y-58625488D01*
X48654213Y-58625492D01*
X48765707Y-58736986D01*
X48765711Y-58736989D01*
X48896814Y-58824590D01*
X48896827Y-58824597D01*
X49043446Y-58885328D01*
X49097850Y-58929169D01*
X49119915Y-58995463D01*
X49116114Y-59010354D01*
X49118359Y-59010531D01*
X49113872Y-59067520D01*
X49674590Y-59628237D01*
X49611007Y-59645275D01*
X49496993Y-59711101D01*
X49403901Y-59804193D01*
X49338075Y-59918207D01*
X49321037Y-59981790D01*
X48760320Y-59421072D01*
X48760320Y-59421073D01*
X48734902Y-59456059D01*
X48644765Y-59632964D01*
X48596790Y-59683760D01*
X48528969Y-59700555D01*
X48462835Y-59678018D01*
X48423795Y-59632963D01*
X48333525Y-59455796D01*
X48270551Y-59369121D01*
X48217828Y-59296554D01*
X48078646Y-59157372D01*
X47919405Y-59041676D01*
X47873892Y-59018486D01*
X47744029Y-58952317D01*
X47556826Y-58891490D01*
X47362422Y-58860700D01*
X47362417Y-58860700D01*
X47165583Y-58860700D01*
X47165578Y-58860700D01*
X46971173Y-58891490D01*
X46783970Y-58952317D01*
X46608594Y-59041676D01*
X46528889Y-59099586D01*
X46449354Y-59157372D01*
X46449352Y-59157374D01*
X46449351Y-59157374D01*
X46310174Y-59296551D01*
X46310174Y-59296552D01*
X46310172Y-59296554D01*
X46285455Y-59330574D01*
X46194476Y-59455794D01*
X46104485Y-59632413D01*
X46056511Y-59683209D01*
X45988690Y-59700004D01*
X45922555Y-59677467D01*
X45883515Y-59632413D01*
X45847222Y-59561184D01*
X45793524Y-59455795D01*
X45677828Y-59296554D01*
X45538646Y-59157372D01*
X45379405Y-59041676D01*
X45333892Y-59018486D01*
X45204029Y-58952317D01*
X45016826Y-58891490D01*
X44822422Y-58860700D01*
X44822417Y-58860700D01*
X44625583Y-58860700D01*
X44625578Y-58860700D01*
X44431173Y-58891490D01*
X44243970Y-58952317D01*
X44068594Y-59041676D01*
X43988889Y-59099586D01*
X43909354Y-59157372D01*
X43909352Y-59157374D01*
X43909351Y-59157374D01*
X43770174Y-59296551D01*
X43770174Y-59296552D01*
X43770172Y-59296554D01*
X43745455Y-59330574D01*
X43654476Y-59455794D01*
X43565117Y-59631170D01*
X43504290Y-59818373D01*
X43473500Y-60012777D01*
X40894500Y-60012777D01*
X40863709Y-59818373D01*
X40803023Y-59631603D01*
X40802884Y-59631175D01*
X40802882Y-59631172D01*
X40802882Y-59631170D01*
X40744787Y-59517153D01*
X40713524Y-59455795D01*
X40597828Y-59296554D01*
X40458646Y-59157372D01*
X40299405Y-59041676D01*
X40253892Y-59018486D01*
X40124029Y-58952317D01*
X39936826Y-58891490D01*
X39742422Y-58860700D01*
X39742417Y-58860700D01*
X39545583Y-58860700D01*
X39545578Y-58860700D01*
X39351173Y-58891490D01*
X39163970Y-58952317D01*
X38988594Y-59041676D01*
X38908889Y-59099586D01*
X38829354Y-59157372D01*
X38829352Y-59157374D01*
X38829351Y-59157374D01*
X38690174Y-59296551D01*
X38690174Y-59296552D01*
X38690172Y-59296554D01*
X38665455Y-59330574D01*
X38574474Y-59455797D01*
X38569093Y-59466358D01*
X38521117Y-59517153D01*
X38453296Y-59533946D01*
X38387162Y-59511407D01*
X38343712Y-59456690D01*
X38340904Y-59449064D01*
X38336532Y-59435871D01*
X38288814Y-59291866D01*
X38205856Y-59157372D01*
X38196713Y-59142548D01*
X38196710Y-59142544D01*
X38072655Y-59018489D01*
X38072651Y-59018486D01*
X37923337Y-58926387D01*
X37923335Y-58926386D01*
X37840065Y-58898793D01*
X37756797Y-58871201D01*
X37756795Y-58871200D01*
X37654015Y-58860700D01*
X37654008Y-58860700D01*
X36553992Y-58860700D01*
X36553984Y-58860700D01*
X36451204Y-58871200D01*
X36451203Y-58871201D01*
X36284664Y-58926386D01*
X36284662Y-58926387D01*
X36135348Y-59018486D01*
X36135344Y-59018489D01*
X36011289Y-59142544D01*
X36011286Y-59142548D01*
X35919187Y-59291862D01*
X35919186Y-59291864D01*
X35864001Y-59458403D01*
X35864000Y-59458404D01*
X35853500Y-59561184D01*
X25900500Y-59561184D01*
X25900500Y-57985553D01*
X41846100Y-57985553D01*
X41846100Y-58143246D01*
X41876861Y-58297889D01*
X41876864Y-58297901D01*
X41937202Y-58443572D01*
X41937209Y-58443585D01*
X42024810Y-58574688D01*
X42024813Y-58574692D01*
X42136307Y-58686186D01*
X42136311Y-58686189D01*
X42267414Y-58773790D01*
X42267427Y-58773797D01*
X42390054Y-58824590D01*
X42413103Y-58834137D01*
X42567753Y-58864899D01*
X42567756Y-58864900D01*
X42567758Y-58864900D01*
X42725444Y-58864900D01*
X42725445Y-58864899D01*
X42880097Y-58834137D01*
X43025779Y-58773794D01*
X43156889Y-58686189D01*
X43268389Y-58574689D01*
X43355994Y-58443579D01*
X43416337Y-58297897D01*
X43447100Y-58143242D01*
X43447100Y-57985558D01*
X43447100Y-57985555D01*
X43447099Y-57985553D01*
X43416338Y-57830910D01*
X43416337Y-57830903D01*
X43416335Y-57830898D01*
X43355997Y-57685227D01*
X43355990Y-57685214D01*
X43268389Y-57554111D01*
X43268386Y-57554107D01*
X43156892Y-57442613D01*
X43156888Y-57442610D01*
X43025785Y-57355009D01*
X43025772Y-57355002D01*
X42880101Y-57294664D01*
X42880089Y-57294661D01*
X42725445Y-57263900D01*
X42725442Y-57263900D01*
X42567758Y-57263900D01*
X42567755Y-57263900D01*
X42413110Y-57294661D01*
X42413098Y-57294664D01*
X42267427Y-57355002D01*
X42267414Y-57355009D01*
X42136311Y-57442610D01*
X42136307Y-57442613D01*
X42024813Y-57554107D01*
X42024810Y-57554111D01*
X41937209Y-57685214D01*
X41937202Y-57685227D01*
X41876864Y-57830898D01*
X41876861Y-57830910D01*
X41846100Y-57985553D01*
X25900500Y-57985553D01*
X25900500Y-53484784D01*
X29687500Y-53484784D01*
X29687500Y-55784815D01*
X29698000Y-55887595D01*
X29698001Y-55887596D01*
X29753186Y-56054135D01*
X29753187Y-56054137D01*
X29845286Y-56203451D01*
X29845289Y-56203455D01*
X29969344Y-56327510D01*
X29969348Y-56327513D01*
X30118662Y-56419612D01*
X30118664Y-56419613D01*
X30118666Y-56419614D01*
X30285203Y-56474799D01*
X30387992Y-56485300D01*
X30387997Y-56485300D01*
X33288003Y-56485300D01*
X33288008Y-56485300D01*
X33390797Y-56474799D01*
X33557334Y-56419614D01*
X33706655Y-56327511D01*
X33830711Y-56203455D01*
X33922814Y-56054134D01*
X33977999Y-55887597D01*
X33988500Y-55784808D01*
X33988500Y-54513511D01*
X35187500Y-54513511D01*
X35187500Y-54756088D01*
X35219161Y-54996585D01*
X35281947Y-55230904D01*
X35371866Y-55447986D01*
X35374776Y-55455012D01*
X35496064Y-55665089D01*
X35496066Y-55665092D01*
X35496067Y-55665093D01*
X35643733Y-55857536D01*
X35643739Y-55857543D01*
X35815256Y-56029060D01*
X35815263Y-56029066D01*
X35865882Y-56067907D01*
X36007711Y-56176736D01*
X36217788Y-56298024D01*
X36441900Y-56390854D01*
X36676211Y-56453638D01*
X36836940Y-56474798D01*
X36916711Y-56485300D01*
X36916712Y-56485300D01*
X37759289Y-56485300D01*
X37839052Y-56474799D01*
X37999789Y-56453638D01*
X38234100Y-56390854D01*
X38458212Y-56298024D01*
X38668289Y-56176736D01*
X38860738Y-56029065D01*
X39032265Y-55857538D01*
X39179936Y-55665089D01*
X39301224Y-55455012D01*
X39394054Y-55230900D01*
X39456838Y-54996589D01*
X39488500Y-54756088D01*
X39488500Y-54513512D01*
X39456838Y-54273011D01*
X39394054Y-54038700D01*
X39301224Y-53814588D01*
X39179936Y-53604511D01*
X39088073Y-53484792D01*
X39032266Y-53412063D01*
X39032260Y-53412056D01*
X38860743Y-53240539D01*
X38860736Y-53240533D01*
X38668293Y-53092867D01*
X38668292Y-53092866D01*
X38668289Y-53092864D01*
X38458212Y-52971576D01*
X38454866Y-52970190D01*
X38234104Y-52878747D01*
X37999785Y-52815961D01*
X37759289Y-52784300D01*
X37759288Y-52784300D01*
X36916712Y-52784300D01*
X36916711Y-52784300D01*
X36676214Y-52815961D01*
X36441895Y-52878747D01*
X36217794Y-52971573D01*
X36217785Y-52971577D01*
X36007706Y-53092867D01*
X35815263Y-53240533D01*
X35815256Y-53240539D01*
X35643739Y-53412056D01*
X35643733Y-53412063D01*
X35496067Y-53604506D01*
X35374777Y-53814585D01*
X35374773Y-53814594D01*
X35281947Y-54038695D01*
X35219161Y-54273014D01*
X35187500Y-54513511D01*
X33988500Y-54513511D01*
X33988500Y-53484792D01*
X33977999Y-53382003D01*
X33922814Y-53215466D01*
X33847193Y-53092867D01*
X33830713Y-53066148D01*
X33830710Y-53066144D01*
X33706655Y-52942089D01*
X33706651Y-52942086D01*
X33557337Y-52849987D01*
X33557335Y-52849986D01*
X33474065Y-52822393D01*
X33390797Y-52794801D01*
X33390795Y-52794800D01*
X33288015Y-52784300D01*
X33288008Y-52784300D01*
X30387992Y-52784300D01*
X30387984Y-52784300D01*
X30285204Y-52794800D01*
X30285203Y-52794801D01*
X30118664Y-52849986D01*
X30118662Y-52849987D01*
X29969348Y-52942086D01*
X29969344Y-52942089D01*
X29845289Y-53066144D01*
X29845286Y-53066148D01*
X29753187Y-53215462D01*
X29753186Y-53215464D01*
X29698001Y-53382003D01*
X29698000Y-53382004D01*
X29687500Y-53484784D01*
X25900500Y-53484784D01*
X25900500Y-51533953D01*
X44817900Y-51533953D01*
X44817900Y-51691646D01*
X44848661Y-51846289D01*
X44848664Y-51846301D01*
X44909002Y-51991972D01*
X44909009Y-51991985D01*
X44996610Y-52123088D01*
X44996613Y-52123092D01*
X45108107Y-52234586D01*
X45108111Y-52234589D01*
X45239214Y-52322190D01*
X45239227Y-52322197D01*
X45384898Y-52382535D01*
X45384903Y-52382537D01*
X45539553Y-52413299D01*
X45539556Y-52413300D01*
X45539558Y-52413300D01*
X45697244Y-52413300D01*
X45697245Y-52413299D01*
X45851897Y-52382537D01*
X45997579Y-52322194D01*
X46128689Y-52234589D01*
X46240189Y-52123089D01*
X46327794Y-51991979D01*
X46332512Y-51980590D01*
X46371331Y-51886871D01*
X46388137Y-51846297D01*
X46418900Y-51691642D01*
X46418900Y-51533958D01*
X46418900Y-51533955D01*
X46418899Y-51533953D01*
X46410368Y-51491064D01*
X46388137Y-51379303D01*
X46349929Y-51287060D01*
X46346985Y-51279953D01*
X49135900Y-51279953D01*
X49135900Y-51437646D01*
X49166661Y-51592289D01*
X49166664Y-51592301D01*
X49227002Y-51737972D01*
X49227009Y-51737985D01*
X49314610Y-51869088D01*
X49314613Y-51869092D01*
X49426107Y-51980586D01*
X49426111Y-51980589D01*
X49557214Y-52068190D01*
X49557227Y-52068197D01*
X49702898Y-52128535D01*
X49702903Y-52128537D01*
X49857553Y-52159299D01*
X49857556Y-52159300D01*
X49857558Y-52159300D01*
X50015244Y-52159300D01*
X50015245Y-52159299D01*
X50169897Y-52128537D01*
X50315579Y-52068194D01*
X50446689Y-51980589D01*
X50549754Y-51877523D01*
X50611075Y-51844040D01*
X50680767Y-51849024D01*
X50736701Y-51890895D01*
X50761118Y-51956359D01*
X50760838Y-51977348D01*
X50760700Y-51978750D01*
X50760700Y-52136446D01*
X50791461Y-52291089D01*
X50791464Y-52291101D01*
X50851802Y-52436772D01*
X50851809Y-52436785D01*
X50939410Y-52567888D01*
X50939413Y-52567892D01*
X51050907Y-52679386D01*
X51050911Y-52679389D01*
X51182014Y-52766990D01*
X51182027Y-52766997D01*
X51300241Y-52815962D01*
X51327703Y-52827337D01*
X51465331Y-52854713D01*
X51482353Y-52858099D01*
X51482356Y-52858100D01*
X51482358Y-52858100D01*
X51640044Y-52858100D01*
X51640045Y-52858099D01*
X51794697Y-52827337D01*
X51827016Y-52813949D01*
X51896483Y-52806480D01*
X51958963Y-52837753D01*
X51962150Y-52840829D01*
X52003907Y-52882586D01*
X52003911Y-52882589D01*
X52135014Y-52970190D01*
X52135027Y-52970197D01*
X52237155Y-53012499D01*
X52280703Y-53030537D01*
X52435353Y-53061299D01*
X52435356Y-53061300D01*
X52435358Y-53061300D01*
X52593044Y-53061300D01*
X52593045Y-53061299D01*
X52747697Y-53030537D01*
X52893379Y-52970194D01*
X53024489Y-52882589D01*
X53135989Y-52771089D01*
X53223594Y-52639979D01*
X53283937Y-52494297D01*
X53314700Y-52339642D01*
X53314700Y-52181958D01*
X53314700Y-52181955D01*
X53298835Y-52102198D01*
X53298835Y-52102197D01*
X53294685Y-52081335D01*
X54802901Y-52081335D01*
X54802901Y-53227070D01*
X54802902Y-53227076D01*
X54809309Y-53286683D01*
X54859603Y-53421528D01*
X54859604Y-53421530D01*
X54859605Y-53421531D01*
X54860429Y-53422632D01*
X54860910Y-53423921D01*
X54863855Y-53429314D01*
X54863079Y-53429737D01*
X54884849Y-53488095D01*
X54875726Y-53544398D01*
X54842311Y-53625069D01*
X54842308Y-53625081D01*
X54802901Y-53823193D01*
X54802901Y-54025208D01*
X54842308Y-54223320D01*
X54842310Y-54223328D01*
X54919615Y-54409957D01*
X54973304Y-54490311D01*
X54994181Y-54556988D01*
X54975696Y-54624368D01*
X54973304Y-54628089D01*
X54919615Y-54708442D01*
X54842310Y-54895072D01*
X54842308Y-54895080D01*
X54802901Y-55093192D01*
X54802901Y-55295207D01*
X54842308Y-55493319D01*
X54842310Y-55493327D01*
X54919613Y-55679952D01*
X54919618Y-55679962D01*
X55031842Y-55847918D01*
X55174682Y-55990758D01*
X55342638Y-56102982D01*
X55342642Y-56102984D01*
X55342645Y-56102986D01*
X55529274Y-56180291D01*
X55727393Y-56219699D01*
X55727397Y-56219700D01*
X55727398Y-56219700D01*
X56379405Y-56219700D01*
X56379406Y-56219699D01*
X56577528Y-56180291D01*
X56764157Y-56102986D01*
X56932119Y-55990758D01*
X57074959Y-55847918D01*
X57187187Y-55679956D01*
X57264492Y-55493327D01*
X57303901Y-55295203D01*
X57303901Y-55093197D01*
X57264492Y-54895073D01*
X57203304Y-54747353D01*
X63790900Y-54747353D01*
X63790900Y-54905046D01*
X63821661Y-55059689D01*
X63821664Y-55059701D01*
X63882002Y-55205372D01*
X63882009Y-55205385D01*
X63969610Y-55336488D01*
X63969613Y-55336492D01*
X64081107Y-55447986D01*
X64081111Y-55447989D01*
X64212214Y-55535590D01*
X64212227Y-55535597D01*
X64350568Y-55592899D01*
X64404972Y-55636740D01*
X64427037Y-55703034D01*
X64409758Y-55770733D01*
X64358621Y-55818344D01*
X64350569Y-55822021D01*
X64237624Y-55868804D01*
X64237614Y-55868809D01*
X64106511Y-55956410D01*
X64106507Y-55956413D01*
X63995013Y-56067907D01*
X63995010Y-56067911D01*
X63907409Y-56199014D01*
X63907402Y-56199027D01*
X63847064Y-56344698D01*
X63847061Y-56344710D01*
X63816300Y-56499353D01*
X63816300Y-56657046D01*
X63847061Y-56811689D01*
X63847064Y-56811701D01*
X63907402Y-56957372D01*
X63907409Y-56957385D01*
X63995010Y-57088488D01*
X63995013Y-57088492D01*
X64106507Y-57199986D01*
X64106511Y-57199989D01*
X64237614Y-57287590D01*
X64237627Y-57287597D01*
X64383298Y-57347935D01*
X64383303Y-57347937D01*
X64537953Y-57378699D01*
X64537956Y-57378700D01*
X64537958Y-57378700D01*
X64695644Y-57378700D01*
X64695645Y-57378699D01*
X64850297Y-57347937D01*
X64995979Y-57287594D01*
X65127089Y-57199989D01*
X65238589Y-57088489D01*
X65326194Y-56957379D01*
X65386537Y-56811697D01*
X65417300Y-56657042D01*
X65417300Y-56499358D01*
X65417300Y-56499355D01*
X65417299Y-56499353D01*
X65401438Y-56419614D01*
X65386537Y-56344703D01*
X65379416Y-56327511D01*
X65326197Y-56199027D01*
X65326190Y-56199014D01*
X65238589Y-56067911D01*
X65238586Y-56067907D01*
X65127092Y-55956413D01*
X65127088Y-55956410D01*
X64995985Y-55868809D01*
X64995976Y-55868804D01*
X64857630Y-55811500D01*
X64803227Y-55767659D01*
X64781162Y-55701365D01*
X64798441Y-55633666D01*
X64849578Y-55586055D01*
X64857625Y-55582380D01*
X64893202Y-55567644D01*
X64970573Y-55535597D01*
X64970576Y-55535595D01*
X64970579Y-55535594D01*
X65101689Y-55447989D01*
X65213189Y-55336489D01*
X65300794Y-55205379D01*
X65361137Y-55059697D01*
X65391900Y-54905042D01*
X65391900Y-54747358D01*
X65391900Y-54747355D01*
X65391899Y-54747353D01*
X65384159Y-54708442D01*
X65361137Y-54592703D01*
X65359783Y-54589434D01*
X65300797Y-54447027D01*
X65300790Y-54447014D01*
X65213189Y-54315911D01*
X65213186Y-54315907D01*
X65101692Y-54204413D01*
X65101688Y-54204410D01*
X64970585Y-54116809D01*
X64970572Y-54116802D01*
X64824901Y-54056464D01*
X64824889Y-54056461D01*
X64670245Y-54025700D01*
X64670242Y-54025700D01*
X64512558Y-54025700D01*
X64512555Y-54025700D01*
X64357910Y-54056461D01*
X64357898Y-54056464D01*
X64212227Y-54116802D01*
X64212214Y-54116809D01*
X64081111Y-54204410D01*
X64081107Y-54204413D01*
X63969613Y-54315907D01*
X63969610Y-54315911D01*
X63882009Y-54447014D01*
X63882002Y-54447027D01*
X63821664Y-54592698D01*
X63821661Y-54592710D01*
X63790900Y-54747353D01*
X57203304Y-54747353D01*
X57187187Y-54708444D01*
X57130270Y-54623261D01*
X57127512Y-54618158D01*
X57121392Y-54589434D01*
X57112619Y-54561413D01*
X57114197Y-54555658D01*
X57112954Y-54549821D01*
X57123335Y-54522348D01*
X57131104Y-54494033D01*
X57133467Y-54490353D01*
X57187187Y-54409957D01*
X57264492Y-54223328D01*
X57303901Y-54025204D01*
X57303901Y-53823198D01*
X57264492Y-53625074D01*
X57231074Y-53544398D01*
X57223606Y-53474931D01*
X57243365Y-53429539D01*
X57242948Y-53429312D01*
X57245492Y-53424652D01*
X57246370Y-53422634D01*
X57247197Y-53421531D01*
X57297492Y-53286683D01*
X57303901Y-53227073D01*
X57303900Y-52081328D01*
X57298093Y-52027310D01*
X57297492Y-52021716D01*
X57247198Y-51886871D01*
X57247194Y-51886864D01*
X57160948Y-51771655D01*
X57160945Y-51771652D01*
X57045736Y-51685406D01*
X57045729Y-51685402D01*
X56910883Y-51635108D01*
X56910884Y-51635108D01*
X56851284Y-51628701D01*
X56851282Y-51628700D01*
X56851274Y-51628700D01*
X56851265Y-51628700D01*
X55255530Y-51628700D01*
X55255524Y-51628701D01*
X55195917Y-51635108D01*
X55061072Y-51685402D01*
X55061065Y-51685406D01*
X54945856Y-51771652D01*
X54945853Y-51771655D01*
X54859607Y-51886864D01*
X54859603Y-51886871D01*
X54809309Y-52021717D01*
X54802902Y-52081316D01*
X54802902Y-52081323D01*
X54802901Y-52081335D01*
X53294685Y-52081335D01*
X53289412Y-52054826D01*
X53283937Y-52027303D01*
X53269308Y-51991985D01*
X53223597Y-51881627D01*
X53223590Y-51881614D01*
X53135989Y-51750511D01*
X53135986Y-51750507D01*
X53024492Y-51639013D01*
X53024488Y-51639010D01*
X52893385Y-51551409D01*
X52893372Y-51551402D01*
X52747701Y-51491064D01*
X52747689Y-51491061D01*
X52593045Y-51460300D01*
X52593042Y-51460300D01*
X52435358Y-51460300D01*
X52435355Y-51460300D01*
X52280711Y-51491060D01*
X52280702Y-51491063D01*
X52248380Y-51504451D01*
X52178911Y-51511918D01*
X52116432Y-51480642D01*
X52113249Y-51477570D01*
X52071492Y-51435813D01*
X52071488Y-51435810D01*
X51940385Y-51348209D01*
X51940372Y-51348202D01*
X51794701Y-51287864D01*
X51794689Y-51287861D01*
X51759609Y-51280883D01*
X51759608Y-51280883D01*
X51640044Y-51257100D01*
X51640042Y-51257100D01*
X51482358Y-51257100D01*
X51482355Y-51257100D01*
X51327710Y-51287861D01*
X51327698Y-51287864D01*
X51182027Y-51348202D01*
X51182014Y-51348209D01*
X51050911Y-51435810D01*
X50947846Y-51538875D01*
X50886523Y-51572359D01*
X50816831Y-51567375D01*
X50760898Y-51525503D01*
X50736481Y-51460038D01*
X50736763Y-51439033D01*
X50736900Y-51437642D01*
X50736900Y-51279955D01*
X50736899Y-51279953D01*
X50727683Y-51233621D01*
X50714104Y-51165353D01*
X67374300Y-51165353D01*
X67374300Y-51323046D01*
X67405061Y-51477689D01*
X67405064Y-51477701D01*
X67465402Y-51623372D01*
X67465409Y-51623385D01*
X67553010Y-51754488D01*
X67553013Y-51754492D01*
X67664507Y-51865986D01*
X67664511Y-51865989D01*
X67795614Y-51953590D01*
X67795627Y-51953597D01*
X67941298Y-52013935D01*
X67941303Y-52013937D01*
X68095953Y-52044699D01*
X68095956Y-52044700D01*
X68095958Y-52044700D01*
X68253644Y-52044700D01*
X68253645Y-52044699D01*
X68408297Y-52013937D01*
X68553979Y-51953594D01*
X68685089Y-51865989D01*
X68796589Y-51754489D01*
X68884194Y-51623379D01*
X68944537Y-51477697D01*
X68975300Y-51323042D01*
X68975300Y-51165358D01*
X68975300Y-51165355D01*
X68975299Y-51165353D01*
X68967334Y-51125310D01*
X68944537Y-51010703D01*
X68900095Y-50903409D01*
X68884197Y-50865027D01*
X68884190Y-50865014D01*
X68812502Y-50757726D01*
X68796589Y-50733911D01*
X68796586Y-50733907D01*
X68754663Y-50691984D01*
X79950500Y-50691984D01*
X79950500Y-52312015D01*
X79961000Y-52414795D01*
X79961001Y-52414797D01*
X79968283Y-52436772D01*
X80016186Y-52581335D01*
X80016187Y-52581337D01*
X80108286Y-52730651D01*
X80108289Y-52730655D01*
X80232344Y-52854710D01*
X80232348Y-52854713D01*
X80381662Y-52946812D01*
X80381664Y-52946813D01*
X80381666Y-52946814D01*
X80548203Y-53001999D01*
X80650992Y-53012500D01*
X80650997Y-53012500D01*
X81751003Y-53012500D01*
X81751008Y-53012500D01*
X81853797Y-53001999D01*
X82020334Y-52946814D01*
X82169655Y-52854711D01*
X82293711Y-52730655D01*
X82385814Y-52581334D01*
X82440999Y-52414797D01*
X82451500Y-52312008D01*
X82451500Y-51143577D01*
X82950500Y-51143577D01*
X82950500Y-51860422D01*
X82981290Y-52054826D01*
X83042117Y-52242029D01*
X83082965Y-52322197D01*
X83131476Y-52417405D01*
X83247172Y-52576646D01*
X83386354Y-52715828D01*
X83545595Y-52831524D01*
X83597752Y-52858099D01*
X83720970Y-52920882D01*
X83720972Y-52920882D01*
X83720975Y-52920884D01*
X83786228Y-52942086D01*
X83908173Y-52981709D01*
X84102578Y-53012500D01*
X84102583Y-53012500D01*
X84299422Y-53012500D01*
X84493826Y-52981709D01*
X84529265Y-52970194D01*
X84681025Y-52920884D01*
X84856405Y-52831524D01*
X85015646Y-52715828D01*
X85154828Y-52576646D01*
X85270524Y-52417405D01*
X85359884Y-52242025D01*
X85420709Y-52054826D01*
X85427185Y-52013937D01*
X85451500Y-51860422D01*
X85451500Y-51143577D01*
X85950500Y-51143577D01*
X85950500Y-51860422D01*
X85981290Y-52054826D01*
X86042117Y-52242029D01*
X86082965Y-52322197D01*
X86131476Y-52417405D01*
X86247172Y-52576646D01*
X86386354Y-52715828D01*
X86545595Y-52831524D01*
X86597752Y-52858099D01*
X86720970Y-52920882D01*
X86720972Y-52920882D01*
X86720975Y-52920884D01*
X86786228Y-52942086D01*
X86908173Y-52981709D01*
X87102578Y-53012500D01*
X87102583Y-53012500D01*
X87299422Y-53012500D01*
X87493826Y-52981709D01*
X87529265Y-52970194D01*
X87681025Y-52920884D01*
X87856405Y-52831524D01*
X88015646Y-52715828D01*
X88154828Y-52576646D01*
X88270524Y-52417405D01*
X88359884Y-52242025D01*
X88420709Y-52054826D01*
X88427185Y-52013937D01*
X88451500Y-51860422D01*
X88451500Y-51143577D01*
X88420709Y-50949173D01*
X88388000Y-50848507D01*
X88359884Y-50761975D01*
X88359882Y-50761972D01*
X88359882Y-50761970D01*
X88302529Y-50649409D01*
X88270524Y-50586595D01*
X88154828Y-50427354D01*
X88015646Y-50288172D01*
X87856405Y-50172476D01*
X87810892Y-50149286D01*
X87681029Y-50083117D01*
X87493826Y-50022290D01*
X87299422Y-49991500D01*
X87299417Y-49991500D01*
X87102583Y-49991500D01*
X87102578Y-49991500D01*
X86908173Y-50022290D01*
X86720970Y-50083117D01*
X86545594Y-50172476D01*
X86466682Y-50229810D01*
X86386354Y-50288172D01*
X86386352Y-50288174D01*
X86386351Y-50288174D01*
X86247174Y-50427351D01*
X86247174Y-50427352D01*
X86247172Y-50427354D01*
X86197485Y-50495741D01*
X86131476Y-50586594D01*
X86042117Y-50761970D01*
X85981290Y-50949173D01*
X85950500Y-51143577D01*
X85451500Y-51143577D01*
X85420709Y-50949173D01*
X85388000Y-50848507D01*
X85359884Y-50761975D01*
X85359882Y-50761972D01*
X85359882Y-50761970D01*
X85302529Y-50649409D01*
X85270524Y-50586595D01*
X85154828Y-50427354D01*
X85015646Y-50288172D01*
X84856405Y-50172476D01*
X84810892Y-50149286D01*
X84681029Y-50083117D01*
X84493826Y-50022290D01*
X84299422Y-49991500D01*
X84299417Y-49991500D01*
X84102583Y-49991500D01*
X84102578Y-49991500D01*
X83908173Y-50022290D01*
X83720970Y-50083117D01*
X83545594Y-50172476D01*
X83466682Y-50229810D01*
X83386354Y-50288172D01*
X83386352Y-50288174D01*
X83386351Y-50288174D01*
X83247174Y-50427351D01*
X83247174Y-50427352D01*
X83247172Y-50427354D01*
X83197485Y-50495741D01*
X83131476Y-50586594D01*
X83042117Y-50761970D01*
X82981290Y-50949173D01*
X82950500Y-51143577D01*
X82451500Y-51143577D01*
X82451500Y-50691992D01*
X82440999Y-50589203D01*
X82385814Y-50422666D01*
X82367806Y-50393471D01*
X82293713Y-50273348D01*
X82293710Y-50273344D01*
X82169655Y-50149289D01*
X82169651Y-50149286D01*
X82020337Y-50057187D01*
X82020335Y-50057186D01*
X81915025Y-50022290D01*
X81853797Y-50002001D01*
X81853795Y-50002000D01*
X81751015Y-49991500D01*
X81751008Y-49991500D01*
X80650992Y-49991500D01*
X80650984Y-49991500D01*
X80548204Y-50002000D01*
X80548203Y-50002001D01*
X80381664Y-50057186D01*
X80381662Y-50057187D01*
X80232348Y-50149286D01*
X80232344Y-50149289D01*
X80108289Y-50273344D01*
X80108286Y-50273348D01*
X80016187Y-50422662D01*
X80016186Y-50422664D01*
X79961001Y-50589203D01*
X79961000Y-50589204D01*
X79950500Y-50691984D01*
X68754663Y-50691984D01*
X68685092Y-50622413D01*
X68685088Y-50622410D01*
X68553985Y-50534809D01*
X68553972Y-50534802D01*
X68408301Y-50474464D01*
X68408289Y-50474461D01*
X68253645Y-50443700D01*
X68253642Y-50443700D01*
X68095958Y-50443700D01*
X68095955Y-50443700D01*
X67941310Y-50474461D01*
X67941298Y-50474464D01*
X67795627Y-50534802D01*
X67795614Y-50534809D01*
X67664511Y-50622410D01*
X67664507Y-50622413D01*
X67553013Y-50733907D01*
X67553010Y-50733911D01*
X67465409Y-50865014D01*
X67465402Y-50865027D01*
X67405064Y-51010698D01*
X67405061Y-51010710D01*
X67374300Y-51165353D01*
X50714104Y-51165353D01*
X50706137Y-51125303D01*
X50696695Y-51102507D01*
X50645797Y-50979627D01*
X50645790Y-50979614D01*
X50558189Y-50848511D01*
X50558186Y-50848507D01*
X50446692Y-50737013D01*
X50446688Y-50737010D01*
X50315585Y-50649409D01*
X50315572Y-50649402D01*
X50169901Y-50589064D01*
X50169889Y-50589061D01*
X50015245Y-50558300D01*
X50015242Y-50558300D01*
X49857558Y-50558300D01*
X49857555Y-50558300D01*
X49702910Y-50589061D01*
X49702898Y-50589064D01*
X49557227Y-50649402D01*
X49557214Y-50649409D01*
X49426111Y-50737010D01*
X49426107Y-50737013D01*
X49314613Y-50848507D01*
X49314610Y-50848511D01*
X49227009Y-50979614D01*
X49227002Y-50979627D01*
X49166664Y-51125298D01*
X49166661Y-51125310D01*
X49135900Y-51279953D01*
X46346985Y-51279953D01*
X46327797Y-51233626D01*
X46327790Y-51233614D01*
X46240189Y-51102511D01*
X46240186Y-51102507D01*
X46128692Y-50991013D01*
X46128688Y-50991010D01*
X45997585Y-50903409D01*
X45997572Y-50903402D01*
X45851901Y-50843064D01*
X45851889Y-50843061D01*
X45697245Y-50812300D01*
X45697242Y-50812300D01*
X45539558Y-50812300D01*
X45539555Y-50812300D01*
X45384910Y-50843061D01*
X45384898Y-50843064D01*
X45239227Y-50903402D01*
X45239214Y-50903409D01*
X45108111Y-50991010D01*
X45108107Y-50991013D01*
X44996613Y-51102507D01*
X44996610Y-51102511D01*
X44909009Y-51233614D01*
X44909002Y-51233627D01*
X44848664Y-51379298D01*
X44848661Y-51379310D01*
X44817900Y-51533953D01*
X25900500Y-51533953D01*
X25900500Y-48610872D01*
X29343100Y-48610872D01*
X29343100Y-48873127D01*
X29365296Y-49041709D01*
X29377330Y-49133116D01*
X29429254Y-49326899D01*
X29445202Y-49386418D01*
X29445205Y-49386428D01*
X29545553Y-49628690D01*
X29545558Y-49628700D01*
X29676675Y-49855803D01*
X29836318Y-50063851D01*
X29836326Y-50063860D01*
X30021740Y-50249274D01*
X30021748Y-50249281D01*
X30229796Y-50408924D01*
X30456899Y-50540041D01*
X30456909Y-50540046D01*
X30655761Y-50622413D01*
X30699181Y-50640398D01*
X30952484Y-50708270D01*
X31212480Y-50742500D01*
X31212487Y-50742500D01*
X31474713Y-50742500D01*
X31474720Y-50742500D01*
X31734716Y-50708270D01*
X31988019Y-50640398D01*
X32230297Y-50540043D01*
X32457403Y-50408924D01*
X32665451Y-50249282D01*
X32665455Y-50249277D01*
X32665460Y-50249274D01*
X32850874Y-50063860D01*
X32850877Y-50063855D01*
X32850882Y-50063851D01*
X33010524Y-49855803D01*
X33141643Y-49628697D01*
X33241998Y-49386419D01*
X33309870Y-49133116D01*
X33344100Y-48873120D01*
X33344100Y-48610880D01*
X33344099Y-48610872D01*
X35693100Y-48610872D01*
X35693100Y-48873127D01*
X35715296Y-49041709D01*
X35727330Y-49133116D01*
X35779254Y-49326899D01*
X35795202Y-49386418D01*
X35795205Y-49386428D01*
X35895553Y-49628690D01*
X35895558Y-49628700D01*
X36026675Y-49855803D01*
X36186318Y-50063851D01*
X36186326Y-50063860D01*
X36371740Y-50249274D01*
X36371748Y-50249281D01*
X36579796Y-50408924D01*
X36806899Y-50540041D01*
X36806909Y-50540046D01*
X37005761Y-50622413D01*
X37049181Y-50640398D01*
X37302484Y-50708270D01*
X37562480Y-50742500D01*
X37562487Y-50742500D01*
X37824713Y-50742500D01*
X37824720Y-50742500D01*
X38084716Y-50708270D01*
X38338019Y-50640398D01*
X38580297Y-50540043D01*
X38807403Y-50408924D01*
X39015451Y-50249282D01*
X39015455Y-50249277D01*
X39015460Y-50249274D01*
X39200874Y-50063860D01*
X39200877Y-50063855D01*
X39200882Y-50063851D01*
X39360524Y-49855803D01*
X39491643Y-49628697D01*
X39591998Y-49386419D01*
X39659870Y-49133116D01*
X39694100Y-48873120D01*
X39694100Y-48610880D01*
X39694099Y-48610872D01*
X42043100Y-48610872D01*
X42043100Y-48873127D01*
X42065296Y-49041709D01*
X42077330Y-49133116D01*
X42129254Y-49326899D01*
X42145202Y-49386418D01*
X42145205Y-49386428D01*
X42245553Y-49628690D01*
X42245558Y-49628700D01*
X42376675Y-49855803D01*
X42536318Y-50063851D01*
X42536326Y-50063860D01*
X42721740Y-50249274D01*
X42721748Y-50249281D01*
X42929796Y-50408924D01*
X43156899Y-50540041D01*
X43156909Y-50540046D01*
X43355761Y-50622413D01*
X43399181Y-50640398D01*
X43652484Y-50708270D01*
X43912480Y-50742500D01*
X43912487Y-50742500D01*
X44174713Y-50742500D01*
X44174720Y-50742500D01*
X44434716Y-50708270D01*
X44688019Y-50640398D01*
X44930297Y-50540043D01*
X45157403Y-50408924D01*
X45365451Y-50249282D01*
X45365455Y-50249277D01*
X45365460Y-50249274D01*
X45550874Y-50063860D01*
X45550877Y-50063855D01*
X45550882Y-50063851D01*
X45710524Y-49855803D01*
X45841643Y-49628697D01*
X45941998Y-49386419D01*
X46009870Y-49133116D01*
X46018972Y-49063981D01*
X52475700Y-49063981D01*
X52475700Y-49238418D01*
X52509727Y-49409483D01*
X52509729Y-49409491D01*
X52576478Y-49570639D01*
X52576483Y-49570648D01*
X52673386Y-49715673D01*
X52673389Y-49715677D01*
X52796722Y-49839010D01*
X52796726Y-49839013D01*
X52941751Y-49935916D01*
X52941757Y-49935919D01*
X52941758Y-49935920D01*
X53102909Y-50002671D01*
X53273981Y-50036699D01*
X53273985Y-50036700D01*
X53273986Y-50036700D01*
X53448415Y-50036700D01*
X53448416Y-50036699D01*
X53619491Y-50002671D01*
X53780642Y-49935920D01*
X53925674Y-49839013D01*
X54049013Y-49715674D01*
X54145920Y-49570642D01*
X54212671Y-49409491D01*
X54246700Y-49238414D01*
X54246700Y-49063986D01*
X54246699Y-49063981D01*
X64955500Y-49063981D01*
X64955500Y-49238418D01*
X64989527Y-49409483D01*
X64989529Y-49409491D01*
X65056278Y-49570639D01*
X65056283Y-49570648D01*
X65153186Y-49715673D01*
X65153189Y-49715677D01*
X65276522Y-49839010D01*
X65276526Y-49839013D01*
X65421551Y-49935916D01*
X65421557Y-49935919D01*
X65421558Y-49935920D01*
X65582709Y-50002671D01*
X65753781Y-50036699D01*
X65753785Y-50036700D01*
X65753786Y-50036700D01*
X65928215Y-50036700D01*
X65928216Y-50036699D01*
X66099291Y-50002671D01*
X66260442Y-49935920D01*
X66405474Y-49839013D01*
X66528813Y-49715674D01*
X66625720Y-49570642D01*
X66692471Y-49409491D01*
X66726500Y-49238414D01*
X66726500Y-49063986D01*
X66709984Y-48980953D01*
X69201100Y-48980953D01*
X69201100Y-49138646D01*
X69231861Y-49293289D01*
X69231864Y-49293301D01*
X69292202Y-49438972D01*
X69292209Y-49438985D01*
X69379810Y-49570088D01*
X69379813Y-49570092D01*
X69491307Y-49681586D01*
X69491311Y-49681589D01*
X69622414Y-49769190D01*
X69622427Y-49769197D01*
X69697496Y-49800291D01*
X69768103Y-49829537D01*
X69922753Y-49860299D01*
X69922756Y-49860300D01*
X69922758Y-49860300D01*
X70080444Y-49860300D01*
X70080445Y-49860299D01*
X70235097Y-49829537D01*
X70380779Y-49769194D01*
X70511889Y-49681589D01*
X70623389Y-49570089D01*
X70700435Y-49454781D01*
X77315500Y-49454781D01*
X77315500Y-49629218D01*
X77349527Y-49800283D01*
X77349529Y-49800291D01*
X77416278Y-49961439D01*
X77416283Y-49961448D01*
X77513186Y-50106473D01*
X77513189Y-50106477D01*
X77636522Y-50229810D01*
X77636526Y-50229813D01*
X77781551Y-50326716D01*
X77781557Y-50326719D01*
X77781558Y-50326720D01*
X77942709Y-50393471D01*
X78089474Y-50422664D01*
X78113781Y-50427499D01*
X78113785Y-50427500D01*
X78113786Y-50427500D01*
X78288215Y-50427500D01*
X78288216Y-50427499D01*
X78459291Y-50393471D01*
X78620442Y-50326720D01*
X78765474Y-50229813D01*
X78888813Y-50106474D01*
X78985720Y-49961442D01*
X79052471Y-49800291D01*
X79086500Y-49629214D01*
X79086500Y-49454786D01*
X79086499Y-49454781D01*
X89315500Y-49454781D01*
X89315500Y-49629218D01*
X89349527Y-49800283D01*
X89349529Y-49800291D01*
X89416278Y-49961439D01*
X89416283Y-49961448D01*
X89513186Y-50106473D01*
X89513189Y-50106477D01*
X89636522Y-50229810D01*
X89636526Y-50229813D01*
X89781551Y-50326716D01*
X89781557Y-50326719D01*
X89781558Y-50326720D01*
X89942709Y-50393471D01*
X90089474Y-50422664D01*
X90113781Y-50427499D01*
X90113785Y-50427500D01*
X90113786Y-50427500D01*
X90288215Y-50427500D01*
X90288216Y-50427499D01*
X90459291Y-50393471D01*
X90620442Y-50326720D01*
X90765474Y-50229813D01*
X90888813Y-50106474D01*
X90985720Y-49961442D01*
X91052471Y-49800291D01*
X91086500Y-49629214D01*
X91086500Y-49454786D01*
X91052471Y-49283709D01*
X90996337Y-49148189D01*
X90985721Y-49122560D01*
X90985716Y-49122551D01*
X90888813Y-48977526D01*
X90888810Y-48977522D01*
X90765477Y-48854189D01*
X90765473Y-48854186D01*
X90620448Y-48757283D01*
X90620439Y-48757278D01*
X90459291Y-48690529D01*
X90459283Y-48690527D01*
X90288218Y-48656500D01*
X90288214Y-48656500D01*
X90113786Y-48656500D01*
X90113781Y-48656500D01*
X89942716Y-48690527D01*
X89942708Y-48690529D01*
X89781560Y-48757278D01*
X89781551Y-48757283D01*
X89636526Y-48854186D01*
X89636522Y-48854189D01*
X89513189Y-48977522D01*
X89513186Y-48977526D01*
X89416283Y-49122551D01*
X89416278Y-49122560D01*
X89349529Y-49283708D01*
X89349527Y-49283716D01*
X89315500Y-49454781D01*
X79086499Y-49454781D01*
X79052471Y-49283709D01*
X78996337Y-49148189D01*
X78985721Y-49122560D01*
X78985716Y-49122551D01*
X78888813Y-48977526D01*
X78888810Y-48977522D01*
X78765477Y-48854189D01*
X78765473Y-48854186D01*
X78620448Y-48757283D01*
X78620439Y-48757278D01*
X78459291Y-48690529D01*
X78459283Y-48690527D01*
X78288218Y-48656500D01*
X78288214Y-48656500D01*
X78113786Y-48656500D01*
X78113781Y-48656500D01*
X77942716Y-48690527D01*
X77942708Y-48690529D01*
X77781560Y-48757278D01*
X77781551Y-48757283D01*
X77636526Y-48854186D01*
X77636522Y-48854189D01*
X77513189Y-48977522D01*
X77513186Y-48977526D01*
X77416283Y-49122551D01*
X77416278Y-49122560D01*
X77349529Y-49283708D01*
X77349527Y-49283716D01*
X77315500Y-49454781D01*
X70700435Y-49454781D01*
X70710994Y-49438979D01*
X70719661Y-49418052D01*
X70726626Y-49401241D01*
X70726626Y-49401239D01*
X70757418Y-49326900D01*
X70771337Y-49293297D01*
X70802100Y-49138642D01*
X70802100Y-48980958D01*
X70802100Y-48980955D01*
X70802099Y-48980953D01*
X70787106Y-48905579D01*
X70771337Y-48826303D01*
X70742746Y-48757278D01*
X70710997Y-48680627D01*
X70710990Y-48680614D01*
X70623389Y-48549511D01*
X70623386Y-48549507D01*
X70521432Y-48447553D01*
X92162700Y-48447553D01*
X92162700Y-48605246D01*
X92193461Y-48759889D01*
X92193464Y-48759901D01*
X92253802Y-48905572D01*
X92253809Y-48905585D01*
X92341410Y-49036688D01*
X92341413Y-49036692D01*
X92452907Y-49148186D01*
X92452911Y-49148189D01*
X92584014Y-49235790D01*
X92584027Y-49235797D01*
X92722856Y-49293301D01*
X92729703Y-49296137D01*
X92884353Y-49326899D01*
X92884356Y-49326900D01*
X92884358Y-49326900D01*
X93042044Y-49326900D01*
X93042045Y-49326899D01*
X93196697Y-49296137D01*
X93342379Y-49235794D01*
X93473489Y-49148189D01*
X93584989Y-49036689D01*
X93672594Y-48905579D01*
X93677843Y-48892908D01*
X93693881Y-48854187D01*
X93732937Y-48759897D01*
X93763700Y-48605242D01*
X93763700Y-48447558D01*
X93763700Y-48447555D01*
X93763699Y-48447553D01*
X93744470Y-48350884D01*
X93732937Y-48292903D01*
X93719018Y-48259300D01*
X93672597Y-48147227D01*
X93672590Y-48147214D01*
X93584989Y-48016111D01*
X93584986Y-48016107D01*
X93473492Y-47904613D01*
X93473488Y-47904610D01*
X93342385Y-47817009D01*
X93342372Y-47817002D01*
X93196701Y-47756664D01*
X93196689Y-47756661D01*
X93042045Y-47725900D01*
X93042042Y-47725900D01*
X92884358Y-47725900D01*
X92884355Y-47725900D01*
X92729710Y-47756661D01*
X92729698Y-47756664D01*
X92584027Y-47817002D01*
X92584014Y-47817009D01*
X92452911Y-47904610D01*
X92452907Y-47904613D01*
X92341413Y-48016107D01*
X92341410Y-48016111D01*
X92253809Y-48147214D01*
X92253802Y-48147227D01*
X92193464Y-48292898D01*
X92193461Y-48292910D01*
X92162700Y-48447553D01*
X70521432Y-48447553D01*
X70511892Y-48438013D01*
X70511888Y-48438010D01*
X70380785Y-48350409D01*
X70380772Y-48350402D01*
X70235101Y-48290064D01*
X70235089Y-48290061D01*
X70080445Y-48259300D01*
X70080442Y-48259300D01*
X69922758Y-48259300D01*
X69922755Y-48259300D01*
X69768110Y-48290061D01*
X69768098Y-48290064D01*
X69622427Y-48350402D01*
X69622414Y-48350409D01*
X69491311Y-48438010D01*
X69491307Y-48438013D01*
X69379813Y-48549507D01*
X69379810Y-48549511D01*
X69292209Y-48680614D01*
X69292202Y-48680627D01*
X69231864Y-48826298D01*
X69231861Y-48826310D01*
X69201100Y-48980953D01*
X66709984Y-48980953D01*
X66692471Y-48892909D01*
X66625720Y-48731758D01*
X66625719Y-48731757D01*
X66625716Y-48731751D01*
X66528813Y-48586726D01*
X66528810Y-48586722D01*
X66405477Y-48463389D01*
X66405473Y-48463386D01*
X66260448Y-48366483D01*
X66260439Y-48366478D01*
X66099291Y-48299729D01*
X66099283Y-48299727D01*
X65928218Y-48265700D01*
X65928214Y-48265700D01*
X65753786Y-48265700D01*
X65753781Y-48265700D01*
X65582716Y-48299727D01*
X65582708Y-48299729D01*
X65421560Y-48366478D01*
X65421551Y-48366483D01*
X65276526Y-48463386D01*
X65276522Y-48463389D01*
X65153189Y-48586722D01*
X65153186Y-48586726D01*
X65056283Y-48731751D01*
X65056278Y-48731760D01*
X64989529Y-48892908D01*
X64989527Y-48892916D01*
X64955500Y-49063981D01*
X54246699Y-49063981D01*
X54212671Y-48892909D01*
X54145920Y-48731758D01*
X54145919Y-48731757D01*
X54145916Y-48731751D01*
X54049013Y-48586726D01*
X54049010Y-48586722D01*
X53925677Y-48463389D01*
X53925673Y-48463386D01*
X53780648Y-48366483D01*
X53780639Y-48366478D01*
X53619491Y-48299729D01*
X53619483Y-48299727D01*
X53448418Y-48265700D01*
X53448414Y-48265700D01*
X53273986Y-48265700D01*
X53273981Y-48265700D01*
X53102916Y-48299727D01*
X53102908Y-48299729D01*
X52941760Y-48366478D01*
X52941751Y-48366483D01*
X52796726Y-48463386D01*
X52796722Y-48463389D01*
X52673389Y-48586722D01*
X52673386Y-48586726D01*
X52576483Y-48731751D01*
X52576478Y-48731760D01*
X52509729Y-48892908D01*
X52509727Y-48892916D01*
X52475700Y-49063981D01*
X46018972Y-49063981D01*
X46044100Y-48873120D01*
X46044100Y-48610880D01*
X46009870Y-48350884D01*
X45941998Y-48097581D01*
X45908252Y-48016111D01*
X45841646Y-47855309D01*
X45841641Y-47855299D01*
X45710524Y-47628196D01*
X45550881Y-47420148D01*
X45550874Y-47420140D01*
X45365460Y-47234726D01*
X45365451Y-47234718D01*
X45157403Y-47075075D01*
X44930300Y-46943958D01*
X44930290Y-46943953D01*
X44688028Y-46843605D01*
X44688021Y-46843603D01*
X44688019Y-46843602D01*
X44434716Y-46775730D01*
X44376939Y-46768123D01*
X44174727Y-46741500D01*
X44174720Y-46741500D01*
X43912480Y-46741500D01*
X43912472Y-46741500D01*
X43681372Y-46771926D01*
X43652484Y-46775730D01*
X43399181Y-46843602D01*
X43399171Y-46843605D01*
X43156909Y-46943953D01*
X43156899Y-46943958D01*
X42929796Y-47075075D01*
X42721748Y-47234718D01*
X42536318Y-47420148D01*
X42376675Y-47628196D01*
X42245558Y-47855299D01*
X42245553Y-47855309D01*
X42145205Y-48097571D01*
X42145202Y-48097581D01*
X42077458Y-48350409D01*
X42077330Y-48350885D01*
X42043100Y-48610872D01*
X39694099Y-48610872D01*
X39659870Y-48350884D01*
X39591998Y-48097581D01*
X39558252Y-48016111D01*
X39491646Y-47855309D01*
X39491641Y-47855299D01*
X39360524Y-47628196D01*
X39200881Y-47420148D01*
X39200874Y-47420140D01*
X39015460Y-47234726D01*
X39015451Y-47234718D01*
X38807403Y-47075075D01*
X38580300Y-46943958D01*
X38580290Y-46943953D01*
X38338028Y-46843605D01*
X38338021Y-46843603D01*
X38338019Y-46843602D01*
X38084716Y-46775730D01*
X38026939Y-46768123D01*
X37824727Y-46741500D01*
X37824720Y-46741500D01*
X37562480Y-46741500D01*
X37562472Y-46741500D01*
X37331372Y-46771926D01*
X37302484Y-46775730D01*
X37049181Y-46843602D01*
X37049171Y-46843605D01*
X36806909Y-46943953D01*
X36806899Y-46943958D01*
X36579796Y-47075075D01*
X36371748Y-47234718D01*
X36186318Y-47420148D01*
X36026675Y-47628196D01*
X35895558Y-47855299D01*
X35895553Y-47855309D01*
X35795205Y-48097571D01*
X35795202Y-48097581D01*
X35727458Y-48350409D01*
X35727330Y-48350885D01*
X35693100Y-48610872D01*
X33344099Y-48610872D01*
X33309870Y-48350884D01*
X33241998Y-48097581D01*
X33208252Y-48016111D01*
X33141646Y-47855309D01*
X33141641Y-47855299D01*
X33010524Y-47628196D01*
X32850881Y-47420148D01*
X32850874Y-47420140D01*
X32665460Y-47234726D01*
X32665451Y-47234718D01*
X32457403Y-47075075D01*
X32230300Y-46943958D01*
X32230290Y-46943953D01*
X31988028Y-46843605D01*
X31988021Y-46843603D01*
X31988019Y-46843602D01*
X31734716Y-46775730D01*
X31676939Y-46768123D01*
X31474727Y-46741500D01*
X31474720Y-46741500D01*
X31212480Y-46741500D01*
X31212472Y-46741500D01*
X30981372Y-46771926D01*
X30952484Y-46775730D01*
X30699181Y-46843602D01*
X30699171Y-46843605D01*
X30456909Y-46943953D01*
X30456899Y-46943958D01*
X30229796Y-47075075D01*
X30021748Y-47234718D01*
X29836318Y-47420148D01*
X29676675Y-47628196D01*
X29545558Y-47855299D01*
X29545553Y-47855309D01*
X29445205Y-48097571D01*
X29445202Y-48097581D01*
X29377458Y-48350409D01*
X29377330Y-48350885D01*
X29343100Y-48610872D01*
X25900500Y-48610872D01*
X25900500Y-45601184D01*
X53810700Y-45601184D01*
X53810700Y-46701215D01*
X53821200Y-46803995D01*
X53821201Y-46803997D01*
X53834325Y-46843602D01*
X53876386Y-46970535D01*
X53876387Y-46970537D01*
X53968486Y-47119851D01*
X53968489Y-47119855D01*
X54092544Y-47243910D01*
X54092548Y-47243913D01*
X54241862Y-47336012D01*
X54241864Y-47336013D01*
X54241866Y-47336014D01*
X54408403Y-47391199D01*
X54511192Y-47401700D01*
X54511197Y-47401700D01*
X56131203Y-47401700D01*
X56131208Y-47401700D01*
X56233997Y-47391199D01*
X56400534Y-47336014D01*
X56549855Y-47243911D01*
X56673911Y-47119855D01*
X56766014Y-46970534D01*
X56821199Y-46803997D01*
X56831700Y-46701208D01*
X56831700Y-46052777D01*
X62370500Y-46052777D01*
X62370500Y-46249622D01*
X62401290Y-46444026D01*
X62462117Y-46631229D01*
X62550146Y-46803995D01*
X62551476Y-46806605D01*
X62667172Y-46965846D01*
X62806354Y-47105028D01*
X62965595Y-47220724D01*
X63048455Y-47262943D01*
X63140970Y-47310082D01*
X63140972Y-47310082D01*
X63140975Y-47310084D01*
X63220773Y-47336012D01*
X63328173Y-47370909D01*
X63522578Y-47401700D01*
X63522583Y-47401700D01*
X64239422Y-47401700D01*
X64433826Y-47370909D01*
X64621025Y-47310084D01*
X64796405Y-47220724D01*
X64955646Y-47105028D01*
X65094828Y-46965846D01*
X65210524Y-46806605D01*
X65299884Y-46631225D01*
X65360709Y-46444026D01*
X65391500Y-46249622D01*
X65391500Y-46052777D01*
X65360709Y-45858373D01*
X65299882Y-45671170D01*
X65211853Y-45498404D01*
X65210524Y-45495795D01*
X65094828Y-45336554D01*
X64955646Y-45197372D01*
X64796405Y-45081676D01*
X64750892Y-45058486D01*
X64621029Y-44992317D01*
X64433826Y-44931490D01*
X64239422Y-44900700D01*
X64239417Y-44900700D01*
X63522583Y-44900700D01*
X63522578Y-44900700D01*
X63328173Y-44931490D01*
X63140970Y-44992317D01*
X62965594Y-45081676D01*
X62874741Y-45147685D01*
X62806354Y-45197372D01*
X62806352Y-45197374D01*
X62806351Y-45197374D01*
X62667174Y-45336551D01*
X62667174Y-45336552D01*
X62667172Y-45336554D01*
X62617485Y-45404941D01*
X62551476Y-45495794D01*
X62462117Y-45671170D01*
X62401290Y-45858373D01*
X62370500Y-46052777D01*
X56831700Y-46052777D01*
X56831700Y-45601192D01*
X56821199Y-45498403D01*
X56766014Y-45331866D01*
X56683056Y-45197372D01*
X56673913Y-45182548D01*
X56673910Y-45182544D01*
X56549855Y-45058489D01*
X56549851Y-45058486D01*
X56400537Y-44966387D01*
X56400535Y-44966386D01*
X56295225Y-44931490D01*
X56233997Y-44911201D01*
X56233995Y-44911200D01*
X56131215Y-44900700D01*
X56131208Y-44900700D01*
X54511192Y-44900700D01*
X54511184Y-44900700D01*
X54408404Y-44911200D01*
X54408403Y-44911201D01*
X54241864Y-44966386D01*
X54241862Y-44966387D01*
X54092548Y-45058486D01*
X54092544Y-45058489D01*
X53968489Y-45182544D01*
X53968486Y-45182548D01*
X53876387Y-45331862D01*
X53876386Y-45331864D01*
X53821201Y-45498403D01*
X53821200Y-45498404D01*
X53810700Y-45601184D01*
X25900500Y-45601184D01*
X25900500Y-42901200D01*
X53835216Y-42901200D01*
X54876640Y-42901200D01*
X54845955Y-42954347D01*
X54811200Y-43084057D01*
X54811200Y-43218343D01*
X54845955Y-43348053D01*
X54876640Y-43401200D01*
X53835216Y-43401200D01*
X53841981Y-43443916D01*
X53902781Y-43631037D01*
X53992104Y-43806343D01*
X54107755Y-43965521D01*
X54246878Y-44104644D01*
X54406056Y-44220295D01*
X54581364Y-44309618D01*
X54768494Y-44370421D01*
X54962818Y-44401200D01*
X55071200Y-44401200D01*
X55071200Y-43595760D01*
X55124347Y-43626445D01*
X55254057Y-43661200D01*
X55388343Y-43661200D01*
X55518053Y-43626445D01*
X55571200Y-43595760D01*
X55571200Y-44401200D01*
X55679582Y-44401200D01*
X55873905Y-44370421D01*
X56061035Y-44309618D01*
X56236343Y-44220295D01*
X56395521Y-44104644D01*
X56534644Y-43965521D01*
X56650295Y-43806343D01*
X56739618Y-43631037D01*
X56800418Y-43443916D01*
X56807184Y-43401200D01*
X55765760Y-43401200D01*
X55796445Y-43348053D01*
X55831200Y-43218343D01*
X55831200Y-43084057D01*
X55822819Y-43052777D01*
X62370500Y-43052777D01*
X62370500Y-43249622D01*
X62401290Y-43444026D01*
X62462117Y-43631229D01*
X62551343Y-43806343D01*
X62551476Y-43806605D01*
X62667172Y-43965846D01*
X62806354Y-44105028D01*
X62965595Y-44220724D01*
X63048455Y-44262943D01*
X63140970Y-44310082D01*
X63140972Y-44310082D01*
X63140975Y-44310084D01*
X63241317Y-44342687D01*
X63328173Y-44370909D01*
X63522578Y-44401700D01*
X63522583Y-44401700D01*
X64239422Y-44401700D01*
X64433826Y-44370909D01*
X64435328Y-44370421D01*
X64621025Y-44310084D01*
X64796405Y-44220724D01*
X64955646Y-44105028D01*
X65094828Y-43965846D01*
X65210524Y-43806605D01*
X65299884Y-43631225D01*
X65360709Y-43444026D01*
X65372039Y-43372492D01*
X65391500Y-43249622D01*
X65391500Y-43052777D01*
X65360709Y-42858373D01*
X65322748Y-42741544D01*
X65299884Y-42671175D01*
X65299882Y-42671172D01*
X65299882Y-42671170D01*
X65212128Y-42498943D01*
X65210524Y-42495795D01*
X65094828Y-42336554D01*
X64955646Y-42197372D01*
X64796405Y-42081676D01*
X64757200Y-42061700D01*
X64621029Y-41992317D01*
X64433826Y-41931490D01*
X64239422Y-41900700D01*
X64239417Y-41900700D01*
X63522583Y-41900700D01*
X63522578Y-41900700D01*
X63328173Y-41931490D01*
X63140970Y-41992317D01*
X62965594Y-42081676D01*
X62874741Y-42147685D01*
X62806354Y-42197372D01*
X62806352Y-42197374D01*
X62806351Y-42197374D01*
X62667174Y-42336551D01*
X62667174Y-42336552D01*
X62667172Y-42336554D01*
X62628911Y-42389215D01*
X62551476Y-42495794D01*
X62462117Y-42671170D01*
X62401290Y-42858373D01*
X62370500Y-43052777D01*
X55822819Y-43052777D01*
X55796445Y-42954347D01*
X55765760Y-42901200D01*
X56807184Y-42901200D01*
X56800418Y-42858483D01*
X56739618Y-42671362D01*
X56650295Y-42496056D01*
X56534644Y-42336878D01*
X56395521Y-42197755D01*
X56236343Y-42082104D01*
X56061035Y-41992781D01*
X55873905Y-41931978D01*
X55679582Y-41901200D01*
X55571200Y-41901200D01*
X55571200Y-42706639D01*
X55518053Y-42675955D01*
X55388343Y-42641200D01*
X55254057Y-42641200D01*
X55124347Y-42675955D01*
X55071200Y-42706639D01*
X55071200Y-41901200D01*
X54962818Y-41901200D01*
X54768494Y-41931978D01*
X54581364Y-41992781D01*
X54406056Y-42082104D01*
X54246878Y-42197755D01*
X54107755Y-42336878D01*
X53992104Y-42496056D01*
X53902781Y-42671362D01*
X53841981Y-42858483D01*
X53835216Y-42901200D01*
X25900500Y-42901200D01*
X25900500Y-39901200D01*
X53835216Y-39901200D01*
X54876640Y-39901200D01*
X54845955Y-39954347D01*
X54811200Y-40084057D01*
X54811200Y-40218343D01*
X54845955Y-40348053D01*
X54876640Y-40401200D01*
X53835216Y-40401200D01*
X53841981Y-40443916D01*
X53902781Y-40631037D01*
X53992104Y-40806343D01*
X54107755Y-40965521D01*
X54246878Y-41104644D01*
X54406056Y-41220295D01*
X54581364Y-41309618D01*
X54768494Y-41370421D01*
X54962818Y-41401200D01*
X55071200Y-41401200D01*
X55071200Y-40595760D01*
X55124347Y-40626445D01*
X55254057Y-40661200D01*
X55388343Y-40661200D01*
X55518053Y-40626445D01*
X55571200Y-40595760D01*
X55571200Y-41401200D01*
X55679582Y-41401200D01*
X55873905Y-41370421D01*
X56061035Y-41309618D01*
X56236343Y-41220295D01*
X56395521Y-41104644D01*
X56534644Y-40965521D01*
X56650295Y-40806343D01*
X56739618Y-40631037D01*
X56800418Y-40443916D01*
X56807184Y-40401200D01*
X55765760Y-40401200D01*
X55796445Y-40348053D01*
X55831200Y-40218343D01*
X55831200Y-40084057D01*
X55796445Y-39954347D01*
X55765760Y-39901200D01*
X56807184Y-39901200D01*
X56800418Y-39858483D01*
X56739617Y-39671360D01*
X56730940Y-39654331D01*
X56730939Y-39654329D01*
X56703861Y-39601184D01*
X62370500Y-39601184D01*
X62370500Y-40701215D01*
X62381000Y-40803995D01*
X62381001Y-40803997D01*
X62392656Y-40839170D01*
X62436186Y-40970535D01*
X62436187Y-40970537D01*
X62528286Y-41119851D01*
X62528289Y-41119855D01*
X62652344Y-41243910D01*
X62652348Y-41243913D01*
X62801662Y-41336012D01*
X62801664Y-41336013D01*
X62801666Y-41336014D01*
X62968203Y-41391199D01*
X63070992Y-41401700D01*
X63070997Y-41401700D01*
X64691003Y-41401700D01*
X64691008Y-41401700D01*
X64793797Y-41391199D01*
X64960334Y-41336014D01*
X65109655Y-41243911D01*
X65233711Y-41119855D01*
X65325814Y-40970534D01*
X65380999Y-40803997D01*
X65384556Y-40769184D01*
X71393500Y-40769184D01*
X71393500Y-42389215D01*
X71404000Y-42491995D01*
X71404001Y-42491997D01*
X71406301Y-42498937D01*
X71459186Y-42658535D01*
X71459187Y-42658537D01*
X71551286Y-42807851D01*
X71551289Y-42807855D01*
X71675344Y-42931910D01*
X71675348Y-42931913D01*
X71824662Y-43024012D01*
X71824664Y-43024013D01*
X71824666Y-43024014D01*
X71991203Y-43079199D01*
X72093992Y-43089700D01*
X72093997Y-43089700D01*
X73194003Y-43089700D01*
X73194008Y-43089700D01*
X73296797Y-43079199D01*
X73463334Y-43024014D01*
X73612655Y-42931911D01*
X73736711Y-42807855D01*
X73828814Y-42658534D01*
X73883999Y-42491997D01*
X73894500Y-42389208D01*
X73894500Y-41220777D01*
X74393500Y-41220777D01*
X74393500Y-41937622D01*
X74424290Y-42132026D01*
X74485117Y-42319229D01*
X74520777Y-42389215D01*
X74574476Y-42494605D01*
X74690172Y-42653846D01*
X74829354Y-42793028D01*
X74988595Y-42908724D01*
X75042043Y-42935957D01*
X75163970Y-42998082D01*
X75163972Y-42998082D01*
X75163975Y-42998084D01*
X75243773Y-43024012D01*
X75351173Y-43058909D01*
X75545578Y-43089700D01*
X75545583Y-43089700D01*
X75742422Y-43089700D01*
X75936826Y-43058909D01*
X75955698Y-43052777D01*
X76124025Y-42998084D01*
X76299405Y-42908724D01*
X76458646Y-42793028D01*
X76597828Y-42653846D01*
X76713524Y-42494605D01*
X76802884Y-42319225D01*
X76863709Y-42132026D01*
X76869975Y-42092463D01*
X76894500Y-41937622D01*
X76894500Y-41220777D01*
X77393500Y-41220777D01*
X77393500Y-41937622D01*
X77424290Y-42132026D01*
X77485117Y-42319229D01*
X77520777Y-42389215D01*
X77574476Y-42494605D01*
X77690172Y-42653846D01*
X77829354Y-42793028D01*
X77988595Y-42908724D01*
X78042043Y-42935957D01*
X78163970Y-42998082D01*
X78163972Y-42998082D01*
X78163975Y-42998084D01*
X78243773Y-43024012D01*
X78351173Y-43058909D01*
X78545578Y-43089700D01*
X78545583Y-43089700D01*
X78742422Y-43089700D01*
X78936826Y-43058909D01*
X78955698Y-43052777D01*
X79124025Y-42998084D01*
X79299405Y-42908724D01*
X79458646Y-42793028D01*
X79597828Y-42653846D01*
X79713524Y-42494605D01*
X79802884Y-42319225D01*
X79863709Y-42132026D01*
X79869975Y-42092463D01*
X79883202Y-42008953D01*
X89000700Y-42008953D01*
X89000700Y-42166646D01*
X89031461Y-42321289D01*
X89031464Y-42321301D01*
X89091802Y-42466972D01*
X89091809Y-42466985D01*
X89179410Y-42598088D01*
X89179413Y-42598092D01*
X89290907Y-42709586D01*
X89290911Y-42709589D01*
X89422014Y-42797190D01*
X89422027Y-42797197D01*
X89520664Y-42838053D01*
X89567703Y-42857537D01*
X89722353Y-42888299D01*
X89722356Y-42888300D01*
X89722358Y-42888300D01*
X89880044Y-42888300D01*
X89880045Y-42888299D01*
X90034697Y-42857537D01*
X90180379Y-42797194D01*
X90201093Y-42783353D01*
X92061100Y-42783353D01*
X92061100Y-42941046D01*
X92091861Y-43095689D01*
X92091864Y-43095701D01*
X92152202Y-43241372D01*
X92152209Y-43241385D01*
X92239810Y-43372488D01*
X92239813Y-43372492D01*
X92351307Y-43483986D01*
X92351311Y-43483989D01*
X92482414Y-43571590D01*
X92482427Y-43571597D01*
X92614844Y-43626445D01*
X92628103Y-43631937D01*
X92775217Y-43661200D01*
X92782753Y-43662699D01*
X92782756Y-43662700D01*
X92782758Y-43662700D01*
X92940444Y-43662700D01*
X92940445Y-43662699D01*
X93095097Y-43631937D01*
X93240779Y-43571594D01*
X93371889Y-43483989D01*
X93483389Y-43372489D01*
X93570994Y-43241379D01*
X93631337Y-43095697D01*
X93662100Y-42941042D01*
X93662100Y-42941031D01*
X93662600Y-42935957D01*
X93688755Y-42871168D01*
X93745786Y-42830804D01*
X93815586Y-42827681D01*
X93833456Y-42833540D01*
X93965660Y-42888300D01*
X93968545Y-42889495D01*
X94123195Y-42920257D01*
X94123198Y-42920258D01*
X94123200Y-42920258D01*
X94280886Y-42920258D01*
X94280887Y-42920257D01*
X94435539Y-42889495D01*
X94559732Y-42838053D01*
X94581214Y-42829155D01*
X94581214Y-42829154D01*
X94581221Y-42829152D01*
X94712331Y-42741547D01*
X94823831Y-42630047D01*
X94911436Y-42498937D01*
X94912738Y-42495795D01*
X94971777Y-42353259D01*
X94971779Y-42353255D01*
X95002542Y-42198600D01*
X95002542Y-42040916D01*
X95002542Y-42040913D01*
X95002541Y-42040911D01*
X94996185Y-42008958D01*
X94971779Y-41886261D01*
X94958540Y-41854298D01*
X94911439Y-41740585D01*
X94911432Y-41740572D01*
X94823831Y-41609469D01*
X94823828Y-41609465D01*
X94712334Y-41497971D01*
X94712330Y-41497968D01*
X94581227Y-41410367D01*
X94581214Y-41410360D01*
X94435543Y-41350022D01*
X94435531Y-41350019D01*
X94280887Y-41319258D01*
X94280884Y-41319258D01*
X94123200Y-41319258D01*
X94123197Y-41319258D01*
X93968552Y-41350019D01*
X93968540Y-41350022D01*
X93822869Y-41410360D01*
X93822856Y-41410367D01*
X93691753Y-41497968D01*
X93691749Y-41497971D01*
X93580255Y-41609465D01*
X93580252Y-41609469D01*
X93492651Y-41740572D01*
X93492644Y-41740585D01*
X93432306Y-41886256D01*
X93432303Y-41886268D01*
X93401542Y-42040909D01*
X93401040Y-42046012D01*
X93374878Y-42110798D01*
X93317843Y-42151157D01*
X93248043Y-42154273D01*
X93230185Y-42148417D01*
X93095101Y-42092464D01*
X93095089Y-42092461D01*
X92940445Y-42061700D01*
X92940442Y-42061700D01*
X92782758Y-42061700D01*
X92782755Y-42061700D01*
X92628110Y-42092461D01*
X92628098Y-42092464D01*
X92482427Y-42152802D01*
X92482414Y-42152809D01*
X92351311Y-42240410D01*
X92351307Y-42240413D01*
X92239813Y-42351907D01*
X92239810Y-42351911D01*
X92152209Y-42483014D01*
X92152202Y-42483027D01*
X92091864Y-42628698D01*
X92091861Y-42628710D01*
X92061100Y-42783353D01*
X90201093Y-42783353D01*
X90311489Y-42709589D01*
X90311492Y-42709586D01*
X90331494Y-42689585D01*
X90422986Y-42598092D01*
X90422989Y-42598089D01*
X90510594Y-42466979D01*
X90570937Y-42321297D01*
X90601700Y-42166642D01*
X90601700Y-42008958D01*
X90601700Y-42008955D01*
X90601699Y-42008953D01*
X90587509Y-41937617D01*
X90570937Y-41854303D01*
X90523834Y-41740585D01*
X90510597Y-41708627D01*
X90510590Y-41708614D01*
X90422989Y-41577511D01*
X90422986Y-41577507D01*
X90311492Y-41466013D01*
X90311488Y-41466010D01*
X90180385Y-41378409D01*
X90180372Y-41378402D01*
X90034701Y-41318064D01*
X90034689Y-41318061D01*
X89880045Y-41287300D01*
X89880042Y-41287300D01*
X89722358Y-41287300D01*
X89722355Y-41287300D01*
X89567710Y-41318061D01*
X89567698Y-41318064D01*
X89422027Y-41378402D01*
X89422014Y-41378409D01*
X89290911Y-41466010D01*
X89290907Y-41466013D01*
X89179413Y-41577507D01*
X89179410Y-41577511D01*
X89091809Y-41708614D01*
X89091802Y-41708627D01*
X89031464Y-41854298D01*
X89031461Y-41854310D01*
X89000700Y-42008953D01*
X79883202Y-42008953D01*
X79887239Y-41983468D01*
X79887239Y-41983467D01*
X79894500Y-41937623D01*
X79894500Y-41220777D01*
X79863709Y-41026373D01*
X79802882Y-40839170D01*
X79732590Y-40701215D01*
X79713524Y-40663795D01*
X79597828Y-40504554D01*
X79458646Y-40365372D01*
X79299405Y-40249676D01*
X79253892Y-40226486D01*
X79124029Y-40160317D01*
X78936826Y-40099490D01*
X78742422Y-40068700D01*
X78742417Y-40068700D01*
X78545583Y-40068700D01*
X78545578Y-40068700D01*
X78351173Y-40099490D01*
X78163970Y-40160317D01*
X77988594Y-40249676D01*
X77909682Y-40307010D01*
X77829354Y-40365372D01*
X77829352Y-40365374D01*
X77829351Y-40365374D01*
X77690174Y-40504551D01*
X77690174Y-40504552D01*
X77690172Y-40504554D01*
X77690067Y-40504699D01*
X77574476Y-40663794D01*
X77485117Y-40839170D01*
X77424290Y-41026373D01*
X77393500Y-41220777D01*
X76894500Y-41220777D01*
X76863709Y-41026373D01*
X76802882Y-40839170D01*
X76732590Y-40701215D01*
X76713524Y-40663795D01*
X76597828Y-40504554D01*
X76458646Y-40365372D01*
X76299405Y-40249676D01*
X76253892Y-40226486D01*
X76124029Y-40160317D01*
X75936826Y-40099490D01*
X75742422Y-40068700D01*
X75742417Y-40068700D01*
X75545583Y-40068700D01*
X75545578Y-40068700D01*
X75351173Y-40099490D01*
X75163970Y-40160317D01*
X74988594Y-40249676D01*
X74909682Y-40307010D01*
X74829354Y-40365372D01*
X74829352Y-40365374D01*
X74829351Y-40365374D01*
X74690174Y-40504551D01*
X74690174Y-40504552D01*
X74690172Y-40504554D01*
X74690067Y-40504699D01*
X74574476Y-40663794D01*
X74485117Y-40839170D01*
X74424290Y-41026373D01*
X74393500Y-41220777D01*
X73894500Y-41220777D01*
X73894500Y-40769192D01*
X73883999Y-40666403D01*
X73828814Y-40499866D01*
X73810806Y-40470671D01*
X73736713Y-40350548D01*
X73736710Y-40350544D01*
X73612655Y-40226489D01*
X73612651Y-40226486D01*
X73463337Y-40134387D01*
X73463335Y-40134386D01*
X73311451Y-40084057D01*
X73296797Y-40079201D01*
X73296795Y-40079200D01*
X73194015Y-40068700D01*
X73194008Y-40068700D01*
X72093992Y-40068700D01*
X72093984Y-40068700D01*
X71991204Y-40079200D01*
X71991203Y-40079201D01*
X71824664Y-40134386D01*
X71824662Y-40134387D01*
X71675348Y-40226486D01*
X71675344Y-40226489D01*
X71551289Y-40350544D01*
X71551286Y-40350548D01*
X71459187Y-40499862D01*
X71459186Y-40499864D01*
X71404001Y-40666403D01*
X71404000Y-40666404D01*
X71393500Y-40769184D01*
X65384556Y-40769184D01*
X65391500Y-40701208D01*
X65391500Y-39601192D01*
X65384429Y-39531981D01*
X68758500Y-39531981D01*
X68758500Y-39706418D01*
X68792527Y-39877483D01*
X68792529Y-39877491D01*
X68859278Y-40038639D01*
X68859283Y-40038648D01*
X68956186Y-40183673D01*
X68956189Y-40183677D01*
X69079522Y-40307010D01*
X69079526Y-40307013D01*
X69224551Y-40403916D01*
X69224557Y-40403919D01*
X69224558Y-40403920D01*
X69385709Y-40470671D01*
X69532474Y-40499864D01*
X69556781Y-40504699D01*
X69556785Y-40504700D01*
X69556786Y-40504700D01*
X69731215Y-40504700D01*
X69731216Y-40504699D01*
X69902291Y-40470671D01*
X70063442Y-40403920D01*
X70208474Y-40307013D01*
X70331813Y-40183674D01*
X70428720Y-40038642D01*
X70495471Y-39877491D01*
X70529500Y-39706414D01*
X70529500Y-39531986D01*
X70529499Y-39531981D01*
X80758500Y-39531981D01*
X80758500Y-39706418D01*
X80792527Y-39877483D01*
X80792529Y-39877491D01*
X80859278Y-40038639D01*
X80859283Y-40038648D01*
X80956186Y-40183673D01*
X80956189Y-40183677D01*
X81079522Y-40307010D01*
X81079526Y-40307013D01*
X81224551Y-40403916D01*
X81224557Y-40403919D01*
X81224558Y-40403920D01*
X81385709Y-40470671D01*
X81532474Y-40499864D01*
X81556781Y-40504699D01*
X81556785Y-40504700D01*
X81556786Y-40504700D01*
X81731215Y-40504700D01*
X81731216Y-40504699D01*
X81902291Y-40470671D01*
X82063442Y-40403920D01*
X82208474Y-40307013D01*
X82331813Y-40183674D01*
X82428720Y-40038642D01*
X82495471Y-39877491D01*
X82529500Y-39706414D01*
X82529500Y-39531986D01*
X82495471Y-39360909D01*
X82428720Y-39199758D01*
X82428719Y-39199757D01*
X82428716Y-39199751D01*
X82331813Y-39054726D01*
X82331810Y-39054722D01*
X82208477Y-38931389D01*
X82208473Y-38931386D01*
X82063448Y-38834483D01*
X82063439Y-38834478D01*
X81902291Y-38767729D01*
X81902283Y-38767727D01*
X81731218Y-38733700D01*
X81731214Y-38733700D01*
X81556786Y-38733700D01*
X81556781Y-38733700D01*
X81385716Y-38767727D01*
X81385708Y-38767729D01*
X81224560Y-38834478D01*
X81224551Y-38834483D01*
X81079526Y-38931386D01*
X81079522Y-38931389D01*
X80956189Y-39054722D01*
X80956186Y-39054726D01*
X80859283Y-39199751D01*
X80859278Y-39199760D01*
X80792529Y-39360908D01*
X80792527Y-39360916D01*
X80758500Y-39531981D01*
X70529499Y-39531981D01*
X70495471Y-39360909D01*
X70428720Y-39199758D01*
X70428719Y-39199757D01*
X70428716Y-39199751D01*
X70331813Y-39054726D01*
X70331810Y-39054722D01*
X70208477Y-38931389D01*
X70208473Y-38931386D01*
X70063448Y-38834483D01*
X70063439Y-38834478D01*
X69902291Y-38767729D01*
X69902283Y-38767727D01*
X69731218Y-38733700D01*
X69731214Y-38733700D01*
X69556786Y-38733700D01*
X69556781Y-38733700D01*
X69385716Y-38767727D01*
X69385708Y-38767729D01*
X69224560Y-38834478D01*
X69224551Y-38834483D01*
X69079526Y-38931386D01*
X69079522Y-38931389D01*
X68956189Y-39054722D01*
X68956186Y-39054726D01*
X68859283Y-39199751D01*
X68859278Y-39199760D01*
X68792529Y-39360908D01*
X68792527Y-39360916D01*
X68758500Y-39531981D01*
X65384429Y-39531981D01*
X65380999Y-39498403D01*
X65325814Y-39331866D01*
X65244329Y-39199760D01*
X65233713Y-39182548D01*
X65233710Y-39182544D01*
X65109655Y-39058489D01*
X65109651Y-39058486D01*
X64960337Y-38966387D01*
X64960335Y-38966386D01*
X64877065Y-38938793D01*
X64793797Y-38911201D01*
X64793795Y-38911200D01*
X64691015Y-38900700D01*
X64691008Y-38900700D01*
X63070992Y-38900700D01*
X63070984Y-38900700D01*
X62968204Y-38911200D01*
X62968203Y-38911201D01*
X62801664Y-38966386D01*
X62801662Y-38966387D01*
X62652348Y-39058486D01*
X62652344Y-39058489D01*
X62528289Y-39182544D01*
X62528286Y-39182548D01*
X62436187Y-39331862D01*
X62436186Y-39331864D01*
X62381001Y-39498403D01*
X62381000Y-39498404D01*
X62370500Y-39601184D01*
X56703861Y-39601184D01*
X56650297Y-39496058D01*
X56534644Y-39336878D01*
X56395521Y-39197755D01*
X56236343Y-39082104D01*
X56061035Y-38992781D01*
X55873905Y-38931978D01*
X55679582Y-38901200D01*
X55571200Y-38901200D01*
X55571200Y-39706639D01*
X55518053Y-39675955D01*
X55388343Y-39641200D01*
X55254057Y-39641200D01*
X55124347Y-39675955D01*
X55071200Y-39706639D01*
X55071200Y-38901200D01*
X54962818Y-38901200D01*
X54768494Y-38931978D01*
X54581364Y-38992781D01*
X54406056Y-39082104D01*
X54246878Y-39197755D01*
X54107755Y-39336878D01*
X53992104Y-39496056D01*
X53902781Y-39671362D01*
X53841981Y-39858483D01*
X53835216Y-39901200D01*
X25900500Y-39901200D01*
X25900500Y-37063981D01*
X52475700Y-37063981D01*
X52475700Y-37238418D01*
X52509727Y-37409483D01*
X52509729Y-37409491D01*
X52576478Y-37570639D01*
X52576483Y-37570648D01*
X52673386Y-37715673D01*
X52673389Y-37715677D01*
X52796722Y-37839010D01*
X52796726Y-37839013D01*
X52941751Y-37935916D01*
X52941757Y-37935919D01*
X52941758Y-37935920D01*
X53102909Y-38002671D01*
X53273981Y-38036699D01*
X53273985Y-38036700D01*
X53273986Y-38036700D01*
X53448415Y-38036700D01*
X53448416Y-38036699D01*
X53619491Y-38002671D01*
X53780642Y-37935920D01*
X53925674Y-37839013D01*
X54049013Y-37715674D01*
X54145920Y-37570642D01*
X54212671Y-37409491D01*
X54246700Y-37238414D01*
X54246700Y-37063986D01*
X54246699Y-37063981D01*
X64955500Y-37063981D01*
X64955500Y-37238418D01*
X64989527Y-37409483D01*
X64989529Y-37409491D01*
X65056278Y-37570639D01*
X65056283Y-37570648D01*
X65153186Y-37715673D01*
X65153189Y-37715677D01*
X65276522Y-37839010D01*
X65276526Y-37839013D01*
X65421551Y-37935916D01*
X65421557Y-37935919D01*
X65421558Y-37935920D01*
X65582709Y-38002671D01*
X65753781Y-38036699D01*
X65753785Y-38036700D01*
X65753786Y-38036700D01*
X65928215Y-38036700D01*
X65928216Y-38036699D01*
X66099291Y-38002671D01*
X66260442Y-37935920D01*
X66405474Y-37839013D01*
X66528813Y-37715674D01*
X66625720Y-37570642D01*
X66692471Y-37409491D01*
X66726500Y-37238414D01*
X66726500Y-37063986D01*
X66692471Y-36892909D01*
X66625720Y-36731758D01*
X66625719Y-36731757D01*
X66625716Y-36731751D01*
X66528813Y-36586726D01*
X66528810Y-36586722D01*
X66405477Y-36463389D01*
X66405473Y-36463386D01*
X66260448Y-36366483D01*
X66260439Y-36366478D01*
X66099291Y-36299729D01*
X66099283Y-36299727D01*
X65928218Y-36265700D01*
X65928214Y-36265700D01*
X65753786Y-36265700D01*
X65753781Y-36265700D01*
X65582716Y-36299727D01*
X65582708Y-36299729D01*
X65421560Y-36366478D01*
X65421551Y-36366483D01*
X65276526Y-36463386D01*
X65276522Y-36463389D01*
X65153189Y-36586722D01*
X65153186Y-36586726D01*
X65056283Y-36731751D01*
X65056278Y-36731760D01*
X64989529Y-36892908D01*
X64989527Y-36892916D01*
X64955500Y-37063981D01*
X54246699Y-37063981D01*
X54212671Y-36892909D01*
X54145920Y-36731758D01*
X54145919Y-36731757D01*
X54145916Y-36731751D01*
X54049013Y-36586726D01*
X54049010Y-36586722D01*
X53925677Y-36463389D01*
X53925673Y-36463386D01*
X53780648Y-36366483D01*
X53780639Y-36366478D01*
X53619491Y-36299729D01*
X53619483Y-36299727D01*
X53448418Y-36265700D01*
X53448414Y-36265700D01*
X53273986Y-36265700D01*
X53273981Y-36265700D01*
X53102916Y-36299727D01*
X53102908Y-36299729D01*
X52941760Y-36366478D01*
X52941751Y-36366483D01*
X52796726Y-36463386D01*
X52796722Y-36463389D01*
X52673389Y-36586722D01*
X52673386Y-36586726D01*
X52576483Y-36731751D01*
X52576478Y-36731760D01*
X52509729Y-36892908D01*
X52509727Y-36892916D01*
X52475700Y-37063981D01*
X25900500Y-37063981D01*
X25900500Y-32380872D01*
X29343100Y-32380872D01*
X29343100Y-32643127D01*
X29367397Y-32827667D01*
X29377330Y-32903116D01*
X29427536Y-33090488D01*
X29445202Y-33156418D01*
X29445205Y-33156428D01*
X29545553Y-33398690D01*
X29545558Y-33398700D01*
X29676675Y-33625803D01*
X29836318Y-33833851D01*
X29836326Y-33833860D01*
X30021740Y-34019274D01*
X30021748Y-34019281D01*
X30229796Y-34178924D01*
X30456899Y-34310041D01*
X30456909Y-34310046D01*
X30699171Y-34410394D01*
X30699181Y-34410398D01*
X30952484Y-34478270D01*
X31212480Y-34512500D01*
X31212487Y-34512500D01*
X31474713Y-34512500D01*
X31474720Y-34512500D01*
X31734716Y-34478270D01*
X31988019Y-34410398D01*
X32230297Y-34310043D01*
X32457403Y-34178924D01*
X32665451Y-34019282D01*
X32665455Y-34019277D01*
X32665460Y-34019274D01*
X32850874Y-33833860D01*
X32850877Y-33833855D01*
X32850882Y-33833851D01*
X33010524Y-33625803D01*
X33141643Y-33398697D01*
X33241998Y-33156419D01*
X33309870Y-32903116D01*
X33344100Y-32643120D01*
X33344100Y-32380880D01*
X33344099Y-32380872D01*
X35693100Y-32380872D01*
X35693100Y-32643127D01*
X35717397Y-32827667D01*
X35727330Y-32903116D01*
X35777536Y-33090488D01*
X35795202Y-33156418D01*
X35795205Y-33156428D01*
X35895553Y-33398690D01*
X35895558Y-33398700D01*
X36026675Y-33625803D01*
X36186318Y-33833851D01*
X36186326Y-33833860D01*
X36371740Y-34019274D01*
X36371748Y-34019281D01*
X36579796Y-34178924D01*
X36806899Y-34310041D01*
X36806909Y-34310046D01*
X37049171Y-34410394D01*
X37049181Y-34410398D01*
X37302484Y-34478270D01*
X37562480Y-34512500D01*
X37562487Y-34512500D01*
X37824713Y-34512500D01*
X37824720Y-34512500D01*
X38084716Y-34478270D01*
X38338019Y-34410398D01*
X38580297Y-34310043D01*
X38807403Y-34178924D01*
X39015451Y-34019282D01*
X39015455Y-34019277D01*
X39015460Y-34019274D01*
X39200874Y-33833860D01*
X39200877Y-33833855D01*
X39200882Y-33833851D01*
X39360524Y-33625803D01*
X39491643Y-33398697D01*
X39591998Y-33156419D01*
X39659870Y-32903116D01*
X39694100Y-32643120D01*
X39694100Y-32380880D01*
X39694099Y-32380872D01*
X42043100Y-32380872D01*
X42043100Y-32643127D01*
X42067397Y-32827667D01*
X42077330Y-32903116D01*
X42127536Y-33090488D01*
X42145202Y-33156418D01*
X42145205Y-33156428D01*
X42245553Y-33398690D01*
X42245558Y-33398700D01*
X42376675Y-33625803D01*
X42536318Y-33833851D01*
X42536326Y-33833860D01*
X42721740Y-34019274D01*
X42721748Y-34019281D01*
X42929796Y-34178924D01*
X43156899Y-34310041D01*
X43156909Y-34310046D01*
X43399171Y-34410394D01*
X43399181Y-34410398D01*
X43652484Y-34478270D01*
X43912480Y-34512500D01*
X43912487Y-34512500D01*
X44174713Y-34512500D01*
X44174720Y-34512500D01*
X44434716Y-34478270D01*
X44688019Y-34410398D01*
X44930297Y-34310043D01*
X45157403Y-34178924D01*
X45365451Y-34019282D01*
X45365455Y-34019277D01*
X45365460Y-34019274D01*
X45550874Y-33833860D01*
X45550877Y-33833855D01*
X45550882Y-33833851D01*
X45710524Y-33625803D01*
X45841643Y-33398697D01*
X45941998Y-33156419D01*
X46009870Y-32903116D01*
X46017138Y-32847911D01*
X86048900Y-32847911D01*
X86048900Y-33090488D01*
X86080561Y-33330985D01*
X86143347Y-33565304D01*
X86168407Y-33625803D01*
X86236176Y-33789412D01*
X86357464Y-33999489D01*
X86357466Y-33999492D01*
X86357467Y-33999493D01*
X86505133Y-34191936D01*
X86505139Y-34191943D01*
X86676656Y-34363460D01*
X86676663Y-34363466D01*
X86737821Y-34410394D01*
X86869111Y-34511136D01*
X87079188Y-34632424D01*
X87303300Y-34725254D01*
X87537611Y-34788038D01*
X87698340Y-34809198D01*
X87778111Y-34819700D01*
X87778112Y-34819700D01*
X88620689Y-34819700D01*
X88700452Y-34809199D01*
X88861189Y-34788038D01*
X89095500Y-34725254D01*
X89319612Y-34632424D01*
X89529689Y-34511136D01*
X89722138Y-34363465D01*
X89893665Y-34191938D01*
X90041336Y-33999489D01*
X90162624Y-33789412D01*
X90255454Y-33565300D01*
X90318238Y-33330989D01*
X90349900Y-33090488D01*
X90349900Y-32847912D01*
X90318238Y-32607411D01*
X90255454Y-32373100D01*
X90162624Y-32148988D01*
X90041336Y-31938911D01*
X90032996Y-31928042D01*
X90004973Y-31891521D01*
X89949467Y-31819184D01*
X91548900Y-31819184D01*
X91548900Y-34119215D01*
X91559400Y-34221995D01*
X91559401Y-34221996D01*
X91614586Y-34388535D01*
X91614587Y-34388537D01*
X91706686Y-34537851D01*
X91706689Y-34537855D01*
X91830744Y-34661910D01*
X91830748Y-34661913D01*
X91980062Y-34754012D01*
X91980064Y-34754013D01*
X91980066Y-34754014D01*
X92146603Y-34809199D01*
X92249392Y-34819700D01*
X92249397Y-34819700D01*
X95149403Y-34819700D01*
X95149408Y-34819700D01*
X95252197Y-34809199D01*
X95418734Y-34754014D01*
X95568055Y-34661911D01*
X95692111Y-34537855D01*
X95784214Y-34388534D01*
X95839399Y-34221997D01*
X95849900Y-34119208D01*
X95849900Y-31819192D01*
X95839399Y-31716403D01*
X95784214Y-31549866D01*
X95708593Y-31427267D01*
X95692113Y-31400548D01*
X95692110Y-31400544D01*
X95568055Y-31276489D01*
X95568051Y-31276486D01*
X95418737Y-31184387D01*
X95418735Y-31184386D01*
X95335465Y-31156793D01*
X95252197Y-31129201D01*
X95252195Y-31129200D01*
X95149415Y-31118700D01*
X95149408Y-31118700D01*
X92249392Y-31118700D01*
X92249384Y-31118700D01*
X92146604Y-31129200D01*
X92146603Y-31129201D01*
X91980064Y-31184386D01*
X91980062Y-31184387D01*
X91830748Y-31276486D01*
X91830744Y-31276489D01*
X91706689Y-31400544D01*
X91706686Y-31400548D01*
X91614587Y-31549862D01*
X91614586Y-31549864D01*
X91559401Y-31716403D01*
X91559400Y-31716404D01*
X91548900Y-31819184D01*
X89949467Y-31819184D01*
X89893666Y-31746463D01*
X89893660Y-31746456D01*
X89722143Y-31574939D01*
X89722136Y-31574933D01*
X89529693Y-31427267D01*
X89529692Y-31427266D01*
X89529689Y-31427264D01*
X89319612Y-31305976D01*
X89319605Y-31305973D01*
X89095504Y-31213147D01*
X88861185Y-31150361D01*
X88620689Y-31118700D01*
X88620688Y-31118700D01*
X87778112Y-31118700D01*
X87778111Y-31118700D01*
X87537614Y-31150361D01*
X87303295Y-31213147D01*
X87079194Y-31305973D01*
X87079185Y-31305977D01*
X86869106Y-31427267D01*
X86676663Y-31574933D01*
X86676656Y-31574939D01*
X86505139Y-31746456D01*
X86505133Y-31746463D01*
X86357467Y-31938906D01*
X86236177Y-32148985D01*
X86236173Y-32148994D01*
X86143347Y-32373095D01*
X86080561Y-32607414D01*
X86048900Y-32847911D01*
X46017138Y-32847911D01*
X46044100Y-32643120D01*
X46044100Y-32380880D01*
X46009870Y-32120884D01*
X45941998Y-31867581D01*
X45921951Y-31819184D01*
X45841646Y-31625309D01*
X45841641Y-31625299D01*
X45710524Y-31398196D01*
X45550881Y-31190148D01*
X45550874Y-31190140D01*
X45365460Y-31004726D01*
X45365451Y-31004718D01*
X45157403Y-30845075D01*
X44930300Y-30713958D01*
X44930290Y-30713953D01*
X44688028Y-30613605D01*
X44688021Y-30613603D01*
X44688019Y-30613602D01*
X44434716Y-30545730D01*
X44376939Y-30538123D01*
X44174727Y-30511500D01*
X44174720Y-30511500D01*
X43912480Y-30511500D01*
X43912472Y-30511500D01*
X43681372Y-30541926D01*
X43652484Y-30545730D01*
X43399181Y-30613602D01*
X43399171Y-30613605D01*
X43156909Y-30713953D01*
X43156899Y-30713958D01*
X42929796Y-30845075D01*
X42721748Y-31004718D01*
X42536318Y-31190148D01*
X42376675Y-31398196D01*
X42245558Y-31625299D01*
X42245553Y-31625309D01*
X42145205Y-31867571D01*
X42145202Y-31867581D01*
X42077330Y-32120885D01*
X42043100Y-32380872D01*
X39694099Y-32380872D01*
X39659870Y-32120884D01*
X39591998Y-31867581D01*
X39571951Y-31819184D01*
X39491646Y-31625309D01*
X39491641Y-31625299D01*
X39360524Y-31398196D01*
X39200881Y-31190148D01*
X39200874Y-31190140D01*
X39015460Y-31004726D01*
X39015451Y-31004718D01*
X38807403Y-30845075D01*
X38580300Y-30713958D01*
X38580290Y-30713953D01*
X38338028Y-30613605D01*
X38338021Y-30613603D01*
X38338019Y-30613602D01*
X38084716Y-30545730D01*
X38026939Y-30538123D01*
X37824727Y-30511500D01*
X37824720Y-30511500D01*
X37562480Y-30511500D01*
X37562472Y-30511500D01*
X37331372Y-30541926D01*
X37302484Y-30545730D01*
X37049181Y-30613602D01*
X37049171Y-30613605D01*
X36806909Y-30713953D01*
X36806899Y-30713958D01*
X36579796Y-30845075D01*
X36371748Y-31004718D01*
X36186318Y-31190148D01*
X36026675Y-31398196D01*
X35895558Y-31625299D01*
X35895553Y-31625309D01*
X35795205Y-31867571D01*
X35795202Y-31867581D01*
X35727330Y-32120885D01*
X35693100Y-32380872D01*
X33344099Y-32380872D01*
X33309870Y-32120884D01*
X33241998Y-31867581D01*
X33221951Y-31819184D01*
X33141646Y-31625309D01*
X33141641Y-31625299D01*
X33010524Y-31398196D01*
X32850881Y-31190148D01*
X32850874Y-31190140D01*
X32665460Y-31004726D01*
X32665451Y-31004718D01*
X32457403Y-30845075D01*
X32230300Y-30713958D01*
X32230290Y-30713953D01*
X31988028Y-30613605D01*
X31988021Y-30613603D01*
X31988019Y-30613602D01*
X31734716Y-30545730D01*
X31676939Y-30538123D01*
X31474727Y-30511500D01*
X31474720Y-30511500D01*
X31212480Y-30511500D01*
X31212472Y-30511500D01*
X30981372Y-30541926D01*
X30952484Y-30545730D01*
X30699181Y-30613602D01*
X30699171Y-30613605D01*
X30456909Y-30713953D01*
X30456899Y-30713958D01*
X30229796Y-30845075D01*
X30021748Y-31004718D01*
X29836318Y-31190148D01*
X29676675Y-31398196D01*
X29545558Y-31625299D01*
X29545553Y-31625309D01*
X29445205Y-31867571D01*
X29445202Y-31867581D01*
X29377330Y-32120885D01*
X29343100Y-32380872D01*
X25900500Y-32380872D01*
X25900500Y-30536729D01*
X25920185Y-30469690D01*
X25972989Y-30423935D01*
X26042147Y-30413991D01*
X26101812Y-30439781D01*
X26143003Y-30472630D01*
X26437867Y-30657906D01*
X26751621Y-30809002D01*
X26998488Y-30895384D01*
X27080307Y-30924014D01*
X27080315Y-30924017D01*
X27080318Y-30924017D01*
X27080319Y-30924018D01*
X27419829Y-31001509D01*
X27765876Y-31040499D01*
X27765877Y-31040500D01*
X27765880Y-31040500D01*
X28114123Y-31040500D01*
X28114123Y-31040499D01*
X28460171Y-31001509D01*
X28799681Y-30924018D01*
X29128379Y-30809002D01*
X29442133Y-30657906D01*
X29736997Y-30472630D01*
X29740684Y-30469690D01*
X30009256Y-30255512D01*
X30009258Y-30255509D01*
X30009263Y-30255506D01*
X30255506Y-30009263D01*
X30472630Y-29736997D01*
X30657906Y-29442133D01*
X30809002Y-29128379D01*
X30924018Y-28799681D01*
X31001509Y-28460171D01*
X31040500Y-28114120D01*
X31040500Y-27765880D01*
X31001509Y-27419829D01*
X30924018Y-27080319D01*
X30809002Y-26751621D01*
X30657906Y-26437867D01*
X30472630Y-26143003D01*
X30439781Y-26101812D01*
X30413373Y-26037126D01*
X30426130Y-25968431D01*
X30474000Y-25917537D01*
X30536729Y-25900500D01*
X96463271Y-25900500D01*
X96530310Y-25920185D01*
G37*
%TD.AperFunction*%
%TD*%
M02*
