M48
; DRILL file {KiCad 9.0.4} date 2026-03-12T13:55:40-0400
; FORMAT={-:-/ absolute / metric / decimal}
; #@! TF.CreationDate,2026-03-12T13:55:40-04:00
; #@! TF.GenerationSoftware,Kicad,Pcbnew,9.0.4
; #@! TF.FileFunction,Plated,1,4,PTH
FMAT,2
METRIC
; #@! TA.AperFunction,Plated,PTH,ViaDrill
T1C0.300
; #@! TA.AperFunction,Plated,PTH,ComponentDrill
T2C0.750
; #@! TA.AperFunction,Plated,PTH,ComponentDrill
T3C1.000
; #@! TA.AperFunction,Plated,PTH,ComponentDrill
T4C1.020
; #@! TA.AperFunction,Plated,PTH,ComponentDrill
T5C1.400
%
G90
G05
T1
X42.647Y-58.064
X45.605Y-56.642
X45.618Y-51.613
X49.276Y-58.115
X49.936Y-51.359
X51.561Y-52.058
X52.514Y-52.261
X64.591Y-54.826
X64.617Y-56.578
X68.175Y-51.244
X68.354Y-56.022
X70.002Y-49.06
X70.154Y-55.638
X89.801Y-42.088
X92.862Y-42.862
X92.963Y-48.526
X94.202Y-42.12
X95.821Y-47.104
T2
X56.053Y-52.654
X56.053Y-53.924
X56.053Y-55.194
T3
X37.104Y-60.111
X39.644Y-60.111
X44.724Y-60.111
X47.264Y-60.111
X49.804Y-60.111
T4
X55.321Y-40.151
X55.321Y-43.151
X55.321Y-46.151
X63.881Y-40.151
X63.881Y-43.151
X63.881Y-46.151
X72.644Y-41.579
X72.644Y-60.544
X75.644Y-41.579
X75.644Y-60.544
X78.644Y-41.579
X78.644Y-60.544
X81.201Y-51.502
X84.201Y-51.502
X87.201Y-51.502
T5
X31.344Y-32.512
X31.344Y-48.742
X31.838Y-54.635
X37.338Y-54.635
X37.694Y-32.512
X37.694Y-48.742
X44.044Y-32.512
X44.044Y-48.742
X88.199Y-32.969
X93.699Y-32.969
M30
