%TF.GenerationSoftware,KiCad,Pcbnew,9.0.4*%
%TF.CreationDate,2026-03-16T14:28:23-04:00*%
%TF.ProjectId,Pre Amp Stage,50726520-416d-4702-9053-746167652e6b,rev?*%
%TF.SameCoordinates,Original*%
%TF.FileFunction,Paste,Top*%
%TF.FilePolarity,Positive*%
%FSLAX46Y46*%
G04 Gerber Fmt 4.6, Leading zero omitted, Abs format (unit mm)*
G04 Created by KiCad (PCBNEW 9.0.4) date 2026-03-16 14:28:23*
%MOMM*%
%LPD*%
G01*
G04 APERTURE LIST*
G04 Aperture macros list*
%AMRoundRect*
0 Rectangle with rounded corners*
0 $1 Rounding radius*
0 $2 $3 $4 $5 $6 $7 $8 $9 X,Y pos of 4 corners*
0 Add a 4 corners polygon primitive as box body*
4,1,4,$2,$3,$4,$5,$6,$7,$8,$9,$2,$3,0*
0 Add four circle primitives for the rounded corners*
1,1,$1+$1,$2,$3*
1,1,$1+$1,$4,$5*
1,1,$1+$1,$6,$7*
1,1,$1+$1,$8,$9*
0 Add four rect primitives between the rounded corners*
20,1,$1+$1,$2,$3,$4,$5,0*
20,1,$1+$1,$4,$5,$6,$7,0*
20,1,$1+$1,$6,$7,$8,$9,0*
20,1,$1+$1,$8,$9,$2,$3,0*%
G04 Aperture macros list end*
%ADD10RoundRect,0.200000X-0.200000X-0.275000X0.200000X-0.275000X0.200000X0.275000X-0.200000X0.275000X0*%
%ADD11RoundRect,0.200000X0.200000X0.275000X-0.200000X0.275000X-0.200000X-0.275000X0.200000X-0.275000X0*%
%ADD12RoundRect,0.200000X-0.275000X0.200000X-0.275000X-0.200000X0.275000X-0.200000X0.275000X0.200000X0*%
%ADD13RoundRect,0.200000X0.275000X-0.200000X0.275000X0.200000X-0.275000X0.200000X-0.275000X-0.200000X0*%
%ADD14R,0.508000X0.977900*%
%ADD15RoundRect,0.250000X0.350000X0.450000X-0.350000X0.450000X-0.350000X-0.450000X0.350000X-0.450000X0*%
G04 APERTURE END LIST*
D10*
%TO.C,C10*%
X68490800Y-50177400D03*
X70140800Y-50177400D03*
%TD*%
D11*
%TO.C,C5*%
X85864200Y-47268800D03*
X84214200Y-47268800D03*
%TD*%
D12*
%TO.C,R7*%
X83794600Y-41567000D03*
X83794600Y-43217000D03*
%TD*%
D11*
%TO.C,C8*%
X67600800Y-57162400D03*
X65950800Y-57162400D03*
%TD*%
D13*
%TO.C,R1*%
X52946800Y-55181000D03*
X52946800Y-53531000D03*
%TD*%
D10*
%TO.C,R2*%
X61659000Y-55219600D03*
X63309000Y-55219600D03*
%TD*%
%TO.C,R10*%
X84214200Y-45262200D03*
X85864200Y-45262200D03*
%TD*%
D11*
%TO.C,C13*%
X45605200Y-57581800D03*
X43955200Y-57581800D03*
%TD*%
D10*
%TO.C,C2*%
X49619400Y-55194200D03*
X51269400Y-55194200D03*
%TD*%
%TO.C,R3*%
X62993000Y-52120800D03*
X64643000Y-52120800D03*
%TD*%
D14*
%TO.C,U4*%
X45605201Y-53016150D03*
X44655200Y-53016150D03*
X43705199Y-53016150D03*
X43705199Y-55746650D03*
X45605201Y-55746650D03*
%TD*%
D10*
%TO.C,C14*%
X47079400Y-51612800D03*
X48729400Y-51612800D03*
%TD*%
%TO.C,R6*%
X71919800Y-51874600D03*
X73569800Y-51874600D03*
%TD*%
D14*
%TO.C,U1*%
X69124801Y-52520550D03*
X68174800Y-52520550D03*
X67224799Y-52520550D03*
X67224799Y-55251050D03*
X69124801Y-55251050D03*
%TD*%
D11*
%TO.C,C12*%
X51269400Y-57048400D03*
X49619400Y-57048400D03*
%TD*%
D10*
%TO.C,C1*%
X49543200Y-53289200D03*
X51193200Y-53289200D03*
%TD*%
D11*
%TO.C,R11*%
X89877400Y-45262200D03*
X88227400Y-45262200D03*
%TD*%
D10*
%TO.C,R4*%
X71919800Y-46926200D03*
X73569800Y-46926200D03*
%TD*%
%TO.C,R8*%
X92037400Y-52018600D03*
X93687400Y-52018600D03*
%TD*%
D11*
%TO.C,C9*%
X95820200Y-48196200D03*
X94170200Y-48196200D03*
%TD*%
D10*
%TO.C,R5*%
X71919800Y-49364600D03*
X73569800Y-49364600D03*
%TD*%
D14*
%TO.C,U3*%
X95821001Y-43338150D03*
X94871000Y-43338150D03*
X93920999Y-43338150D03*
X93920999Y-46068650D03*
X95821001Y-46068650D03*
%TD*%
D11*
%TO.C,C6*%
X89877400Y-47268800D03*
X88227400Y-47268800D03*
%TD*%
D15*
%TO.C,C15*%
X90204800Y-37465000D03*
X88204800Y-37465000D03*
%TD*%
D13*
%TO.C,R9*%
X83769200Y-60539800D03*
X83769200Y-58889800D03*
%TD*%
D11*
%TO.C,C11*%
X92683600Y-41529000D03*
X91033600Y-41529000D03*
%TD*%
D10*
%TO.C,C3*%
X59691000Y-52120800D03*
X61341000Y-52120800D03*
%TD*%
M02*
