%TF.GenerationSoftware,KiCad,Pcbnew,9.0.4*%
%TF.CreationDate,2026-03-12T13:54:12-04:00*%
%TF.ProjectId,Power Board,506f7765-7220-4426-9f61-72642e6b6963,rev?*%
%TF.SameCoordinates,Original*%
%TF.FileFunction,Copper,L2,Inr*%
%TF.FilePolarity,Positive*%
%FSLAX46Y46*%
G04 Gerber Fmt 4.6, Leading zero omitted, Abs format (unit mm)*
G04 Created by KiCad (PCBNEW 9.0.4) date 2026-03-12 13:54:12*
%MOMM*%
%LPD*%
G01*
G04 APERTURE LIST*
G04 Aperture macros list*
%AMRoundRect*
0 Rectangle with rounded corners*
0 $1 Rounding radius*
0 $2 $3 $4 $5 $6 $7 $8 $9 X,Y pos of 4 corners*
0 Add a 4 corners polygon primitive as box body*
4,1,4,$2,$3,$4,$5,$6,$7,$8,$9,$2,$3,0*
0 Add four circle primitives for the rounded corners*
1,1,$1+$1,$2,$3*
1,1,$1+$1,$4,$5*
1,1,$1+$1,$6,$7*
1,1,$1+$1,$8,$9*
0 Add four rect primitives between the rounded corners*
20,1,$1+$1,$2,$3,$4,$5,0*
20,1,$1+$1,$4,$5,$6,$7,0*
20,1,$1+$1,$6,$7,$8,$9,0*
20,1,$1+$1,$8,$9,$2,$3,0*%
G04 Aperture macros list end*
%TA.AperFunction,ComponentPad*%
%ADD10C,2.780000*%
%TD*%
%TA.AperFunction,ComponentPad*%
%ADD11RoundRect,0.250002X1.599998X1.599998X-1.599998X1.599998X-1.599998X-1.599998X1.599998X-1.599998X0*%
%TD*%
%TA.AperFunction,ComponentPad*%
%ADD12C,3.700000*%
%TD*%
%TA.AperFunction,ComponentPad*%
%ADD13C,2.500000*%
%TD*%
%TA.AperFunction,ComponentPad*%
%ADD14RoundRect,0.250001X-0.759999X0.499999X-0.759999X-0.499999X0.759999X-0.499999X0.759999X0.499999X0*%
%TD*%
%TA.AperFunction,ComponentPad*%
%ADD15O,2.020000X1.500000*%
%TD*%
%TA.AperFunction,ComponentPad*%
%ADD16RoundRect,0.250002X1.599998X-1.599998X1.599998X1.599998X-1.599998X1.599998X-1.599998X-1.599998X0*%
%TD*%
%TA.AperFunction,ComponentPad*%
%ADD17RoundRect,0.250001X1.099999X1.399999X-1.099999X1.399999X-1.099999X-1.399999X1.099999X-1.399999X0*%
%TD*%
%TA.AperFunction,ComponentPad*%
%ADD18O,2.700000X3.300000*%
%TD*%
%TA.AperFunction,ComponentPad*%
%ADD19R,2.500000X2.500000*%
%TD*%
%TA.AperFunction,ComponentPad*%
%ADD20C,4.000000*%
%TD*%
%TA.AperFunction,ComponentPad*%
%ADD21R,1.700000X1.700000*%
%TD*%
%TA.AperFunction,ComponentPad*%
%ADD22C,1.700000*%
%TD*%
G04 APERTURE END LIST*
D10*
%TO.N,Net-(F1-Pad1)*%
%TO.C,F1*%
X64483600Y-119127800D03*
X64483600Y-122527800D03*
%TO.N,+12V*%
X74403600Y-119127800D03*
X74403600Y-122527800D03*
%TD*%
D11*
%TO.N,/AC_Neutral*%
%TO.C,J4*%
X151815800Y-47381400D03*
D12*
%TO.N,/AC_Line*%
X151815800Y-41681400D03*
%TD*%
D13*
%TO.N,Net-(U1-Frame_GND)*%
%TO.C,U1*%
X100385800Y-30835600D03*
%TO.N,/AC_Neutral*%
X120385800Y-30835600D03*
%TO.N,/AC_Line*%
X140385800Y-30835600D03*
%TO.N,-24V*%
X108885800Y-99435600D03*
%TO.N,GND*%
X120385800Y-99435600D03*
%TO.N,+24V*%
X131885800Y-99435600D03*
%TD*%
D14*
%TO.N,/Earth_GND*%
%TO.C,J5*%
X153314400Y-64411600D03*
D15*
X153314400Y-67411600D03*
%TD*%
D16*
%TO.N,Net-(PS1-+Vout)*%
%TO.C,J1*%
X43163000Y-120853200D03*
D12*
%TO.N,Net-(F1-Pad1)*%
X48863000Y-120853200D03*
%TD*%
D17*
%TO.N,GND*%
%TO.C,J3*%
X116814600Y-117818800D03*
D18*
%TO.N,+12V*%
X116814600Y-112318800D03*
%TD*%
D11*
%TO.N,GND*%
%TO.C,J6*%
X144003000Y-119126000D03*
D12*
X138303000Y-119126000D03*
%TO.N,-24V*%
X144003000Y-113426000D03*
%TO.N,+24V*%
X138303000Y-113426000D03*
%TD*%
D17*
%TO.N,GND*%
%TO.C,J9*%
X99771200Y-117818800D03*
D18*
%TO.N,+12V*%
X99771200Y-112318800D03*
%TD*%
D19*
%TO.N,/AC_Line*%
%TO.C,PS1*%
X84404200Y-31800800D03*
D13*
%TO.N,/AC_Neutral*%
X77654200Y-31800800D03*
D20*
%TO.N,Net-(PS1-+Vout)*%
X43154200Y-107800800D03*
%TO.N,GND*%
X48654200Y-107800800D03*
%TD*%
D17*
%TO.N,GND*%
%TO.C,J2*%
X125481200Y-117732000D03*
D18*
%TO.N,+12V*%
X125481200Y-112232000D03*
%TD*%
D17*
%TO.N,GND*%
%TO.C,J7*%
X108127800Y-117818800D03*
D18*
%TO.N,+12V*%
X108127800Y-112318800D03*
%TD*%
D21*
%TO.N,/Earth_GND*%
%TO.C,J8*%
X153263600Y-57658000D03*
D22*
%TO.N,Net-(U1-Frame_GND)*%
X150723600Y-57658000D03*
%TD*%
%TA.AperFunction,Conductor*%
%TO.N,/AC_Neutral*%
G36*
X152402562Y-25425605D02*
G01*
X152812288Y-25442552D01*
X152822461Y-25443395D01*
X153226869Y-25493804D01*
X153236949Y-25495486D01*
X153635801Y-25579116D01*
X153645709Y-25581625D01*
X154036294Y-25697908D01*
X154045962Y-25701227D01*
X154425596Y-25849361D01*
X154434981Y-25853478D01*
X154801057Y-26032442D01*
X154810071Y-26037319D01*
X155160152Y-26245922D01*
X155168731Y-26251528D01*
X155500361Y-26488306D01*
X155508443Y-26494597D01*
X155819412Y-26757974D01*
X155826952Y-26764915D01*
X156115084Y-27053047D01*
X156122025Y-27060587D01*
X156385402Y-27371556D01*
X156391697Y-27379644D01*
X156628471Y-27711268D01*
X156634077Y-27719847D01*
X156842680Y-28069928D01*
X156847557Y-28078942D01*
X157026521Y-28445018D01*
X157030638Y-28454403D01*
X157178767Y-28834025D01*
X157182095Y-28843718D01*
X157298370Y-29234277D01*
X157300886Y-29244212D01*
X157384510Y-29643036D01*
X157386197Y-29653145D01*
X157436602Y-30057517D01*
X157437448Y-30067731D01*
X157454394Y-30477437D01*
X157454500Y-30482561D01*
X157454500Y-52707635D01*
X157434815Y-52774674D01*
X157382011Y-52820429D01*
X157312853Y-52830373D01*
X157304143Y-52828801D01*
X157184222Y-52802714D01*
X157184212Y-52802713D01*
X156898802Y-52782300D01*
X156898800Y-52782300D01*
X147977400Y-52782300D01*
X147834312Y-52787411D01*
X147740853Y-52800849D01*
X147551077Y-52828136D01*
X147499566Y-52839342D01*
X147360882Y-52874740D01*
X147360876Y-52874742D01*
X147360873Y-52874743D01*
X147200013Y-52934741D01*
X147092767Y-52974742D01*
X146841637Y-53111869D01*
X146841636Y-53111870D01*
X146612559Y-53283355D01*
X146559777Y-53329091D01*
X146559738Y-53329127D01*
X146381984Y-53506881D01*
X146320661Y-53540366D01*
X146294303Y-53543200D01*
X74139291Y-53543200D01*
X74072252Y-53523515D01*
X74026497Y-53470711D01*
X74015291Y-53419510D01*
X74013815Y-52828801D01*
X73993106Y-44537868D01*
X73978825Y-38820848D01*
X147185300Y-38820848D01*
X147185300Y-39001951D01*
X147213629Y-39180810D01*
X147269587Y-39353036D01*
X147269588Y-39353039D01*
X147351806Y-39514397D01*
X147458241Y-39660894D01*
X147458245Y-39660899D01*
X147586300Y-39788954D01*
X147586305Y-39788958D01*
X147714087Y-39881796D01*
X147732806Y-39895396D01*
X147838284Y-39949140D01*
X147894160Y-39977611D01*
X147894163Y-39977612D01*
X148066390Y-40033571D01*
X148118752Y-40041864D01*
X148158977Y-40048235D01*
X148222112Y-40078164D01*
X148259044Y-40137475D01*
X148258046Y-40207338D01*
X148254141Y-40218160D01*
X148186014Y-40382635D01*
X148076187Y-40744685D01*
X148076184Y-40744696D01*
X148002381Y-41115733D01*
X147965300Y-41492240D01*
X147965300Y-41870559D01*
X148002381Y-42247066D01*
X148076184Y-42618103D01*
X148076187Y-42618114D01*
X148186012Y-42980160D01*
X148330792Y-43329688D01*
X148330794Y-43329693D01*
X148509126Y-43663328D01*
X148509143Y-43663356D01*
X148719306Y-43977889D01*
X148719323Y-43977912D01*
X148959331Y-44270361D01*
X149226838Y-44537868D01*
X149226843Y-44537872D01*
X149226844Y-44537873D01*
X149519293Y-44777881D01*
X149519300Y-44777886D01*
X149519310Y-44777893D01*
X149833843Y-44988056D01*
X149833848Y-44988059D01*
X149833860Y-44988067D01*
X149833869Y-44988071D01*
X149833871Y-44988073D01*
X150167506Y-45166405D01*
X150167508Y-45166405D01*
X150167514Y-45166409D01*
X150517041Y-45311188D01*
X150879076Y-45421010D01*
X150879082Y-45421011D01*
X150879085Y-45421012D01*
X150879096Y-45421015D01*
X151250133Y-45494818D01*
X151626637Y-45531900D01*
X151626640Y-45531900D01*
X152004960Y-45531900D01*
X152004963Y-45531900D01*
X152381467Y-45494818D01*
X152453699Y-45480450D01*
X152752503Y-45421015D01*
X152752514Y-45421012D01*
X152752514Y-45421011D01*
X152752524Y-45421010D01*
X153114559Y-45311188D01*
X153464086Y-45166409D01*
X153797740Y-44988067D01*
X154112307Y-44777881D01*
X154404756Y-44537873D01*
X154672273Y-44270356D01*
X154912281Y-43977907D01*
X155122467Y-43663340D01*
X155300809Y-43329686D01*
X155445588Y-42980159D01*
X155555410Y-42618124D01*
X155555412Y-42618114D01*
X155555415Y-42618103D01*
X155629218Y-42247066D01*
X155666300Y-41870559D01*
X155666300Y-41492240D01*
X155629218Y-41115733D01*
X155555415Y-40744696D01*
X155555412Y-40744685D01*
X155555411Y-40744682D01*
X155555410Y-40744676D01*
X155445588Y-40382641D01*
X155300809Y-40033114D01*
X155122467Y-39699460D01*
X155096703Y-39660901D01*
X154912293Y-39384910D01*
X154912286Y-39384900D01*
X154912281Y-39384893D01*
X154672273Y-39092444D01*
X154672272Y-39092443D01*
X154672268Y-39092438D01*
X154404761Y-38824931D01*
X154112312Y-38584923D01*
X154112289Y-38584906D01*
X153797756Y-38374743D01*
X153797728Y-38374726D01*
X153464093Y-38196394D01*
X153464088Y-38196392D01*
X153380829Y-38161905D01*
X153361714Y-38153987D01*
X153114560Y-38051612D01*
X152752514Y-37941787D01*
X152752503Y-37941784D01*
X152381466Y-37867981D01*
X152097899Y-37840053D01*
X152004963Y-37830900D01*
X151626637Y-37830900D01*
X151540766Y-37839357D01*
X151250133Y-37867981D01*
X150879096Y-37941784D01*
X150879085Y-37941787D01*
X150517039Y-38051612D01*
X150167511Y-38196392D01*
X150167506Y-38196394D01*
X149833871Y-38374726D01*
X149833858Y-38374734D01*
X149589875Y-38537757D01*
X149523198Y-38558634D01*
X149455818Y-38540149D01*
X149409128Y-38488170D01*
X149403051Y-38472963D01*
X149402011Y-38469763D01*
X149402011Y-38469761D01*
X149319796Y-38308406D01*
X149238415Y-38196394D01*
X149213358Y-38161905D01*
X149213354Y-38161900D01*
X149085299Y-38033845D01*
X149085294Y-38033841D01*
X148938797Y-37927406D01*
X148938796Y-37927405D01*
X148938794Y-37927404D01*
X148887100Y-37901064D01*
X148777439Y-37845188D01*
X148777436Y-37845187D01*
X148605210Y-37789229D01*
X148426351Y-37760900D01*
X148426346Y-37760900D01*
X148245254Y-37760900D01*
X148245249Y-37760900D01*
X148066389Y-37789229D01*
X147894163Y-37845187D01*
X147894160Y-37845188D01*
X147732802Y-37927406D01*
X147586305Y-38033841D01*
X147586300Y-38033845D01*
X147458245Y-38161900D01*
X147458241Y-38161905D01*
X147351806Y-38308402D01*
X147269588Y-38469760D01*
X147269587Y-38469763D01*
X147213629Y-38641989D01*
X147185300Y-38820848D01*
X73978825Y-38820848D01*
X73978814Y-38816292D01*
X73957990Y-30479349D01*
X81153700Y-30479349D01*
X81153700Y-33122250D01*
X81169004Y-33336233D01*
X81229828Y-33615837D01*
X81229830Y-33615843D01*
X81229831Y-33615846D01*
X81326162Y-33874118D01*
X81329835Y-33883966D01*
X81466970Y-34135109D01*
X81466975Y-34135117D01*
X81638454Y-34364187D01*
X81638470Y-34364205D01*
X81840794Y-34566529D01*
X81840812Y-34566545D01*
X82069882Y-34738024D01*
X82069890Y-34738029D01*
X82321033Y-34875164D01*
X82321032Y-34875164D01*
X82321036Y-34875165D01*
X82321039Y-34875167D01*
X82589154Y-34975169D01*
X82589160Y-34975170D01*
X82589162Y-34975171D01*
X82868766Y-35035995D01*
X82868768Y-35035995D01*
X82868772Y-35035996D01*
X83082752Y-35051300D01*
X85725648Y-35051300D01*
X85939628Y-35035996D01*
X86219246Y-34975169D01*
X86487361Y-34875167D01*
X86738515Y-34738026D01*
X86967595Y-34566539D01*
X87169939Y-34364195D01*
X87341426Y-34135115D01*
X87478567Y-33883961D01*
X87578569Y-33615846D01*
X87639396Y-33336228D01*
X87654700Y-33122248D01*
X87654700Y-30675913D01*
X97135300Y-30675913D01*
X97135300Y-30995287D01*
X97144819Y-31091940D01*
X97166603Y-31313122D01*
X97228909Y-31626354D01*
X97321620Y-31931982D01*
X97443840Y-32227046D01*
X97443842Y-32227051D01*
X97594384Y-32508694D01*
X97594401Y-32508722D01*
X97771812Y-32774238D01*
X97771829Y-32774261D01*
X97974438Y-33021140D01*
X98200259Y-33246961D01*
X98200264Y-33246965D01*
X98200265Y-33246966D01*
X98447144Y-33449575D01*
X98447151Y-33449580D01*
X98447161Y-33449587D01*
X98712677Y-33626998D01*
X98712682Y-33627001D01*
X98712694Y-33627009D01*
X98712703Y-33627013D01*
X98712705Y-33627015D01*
X98994348Y-33777557D01*
X98994350Y-33777557D01*
X98994356Y-33777561D01*
X99289419Y-33899780D01*
X99595040Y-33992489D01*
X99908277Y-34054796D01*
X100226113Y-34086100D01*
X100226116Y-34086100D01*
X100545484Y-34086100D01*
X100545487Y-34086100D01*
X100863323Y-34054796D01*
X101176560Y-33992489D01*
X101482181Y-33899780D01*
X101777244Y-33777561D01*
X102058906Y-33627009D01*
X102324456Y-33449575D01*
X102571335Y-33246966D01*
X102797166Y-33021135D01*
X102999775Y-32774256D01*
X103177209Y-32508706D01*
X103327761Y-32227044D01*
X103449980Y-31931981D01*
X103542689Y-31626360D01*
X103604996Y-31313123D01*
X103636300Y-30995287D01*
X103636300Y-30675913D01*
X137135300Y-30675913D01*
X137135300Y-30995287D01*
X137144819Y-31091940D01*
X137166603Y-31313122D01*
X137228909Y-31626354D01*
X137321620Y-31931982D01*
X137443840Y-32227046D01*
X137443842Y-32227051D01*
X137594384Y-32508694D01*
X137594401Y-32508722D01*
X137771812Y-32774238D01*
X137771829Y-32774261D01*
X137974438Y-33021140D01*
X138200259Y-33246961D01*
X138200264Y-33246965D01*
X138200265Y-33246966D01*
X138447144Y-33449575D01*
X138447151Y-33449580D01*
X138447161Y-33449587D01*
X138712677Y-33626998D01*
X138712682Y-33627001D01*
X138712694Y-33627009D01*
X138712703Y-33627013D01*
X138712705Y-33627015D01*
X138994348Y-33777557D01*
X138994350Y-33777557D01*
X138994356Y-33777561D01*
X139289419Y-33899780D01*
X139595040Y-33992489D01*
X139908277Y-34054796D01*
X140226113Y-34086100D01*
X140226116Y-34086100D01*
X140545484Y-34086100D01*
X140545487Y-34086100D01*
X140863323Y-34054796D01*
X141176560Y-33992489D01*
X141482181Y-33899780D01*
X141777244Y-33777561D01*
X142058906Y-33627009D01*
X142324456Y-33449575D01*
X142571335Y-33246966D01*
X142797166Y-33021135D01*
X142999775Y-32774256D01*
X143177209Y-32508706D01*
X143327761Y-32227044D01*
X143449980Y-31931981D01*
X143542689Y-31626360D01*
X143604996Y-31313123D01*
X143636300Y-30995287D01*
X143636300Y-30675913D01*
X143604996Y-30358077D01*
X143594065Y-30303122D01*
X148799500Y-30303122D01*
X148799500Y-30656877D01*
X148834173Y-31008929D01*
X148834176Y-31008946D01*
X148903185Y-31355884D01*
X148903188Y-31355895D01*
X149005882Y-31694436D01*
X149141262Y-32021271D01*
X149141264Y-32021276D01*
X149308017Y-32333247D01*
X149308028Y-32333265D01*
X149504558Y-32627393D01*
X149504568Y-32627407D01*
X149728992Y-32900869D01*
X149979130Y-33151007D01*
X149979135Y-33151011D01*
X149979136Y-33151012D01*
X150252598Y-33375436D01*
X150546741Y-33571976D01*
X150546750Y-33571981D01*
X150546752Y-33571982D01*
X150858723Y-33738735D01*
X150858725Y-33738735D01*
X150858731Y-33738739D01*
X151185565Y-33874118D01*
X151524095Y-33976809D01*
X151524101Y-33976810D01*
X151524104Y-33976811D01*
X151524115Y-33976814D01*
X151741674Y-34020088D01*
X151871060Y-34045825D01*
X152223119Y-34080500D01*
X152223122Y-34080500D01*
X152576878Y-34080500D01*
X152576881Y-34080500D01*
X152928940Y-34045825D01*
X153100679Y-34011663D01*
X153275884Y-33976814D01*
X153275895Y-33976811D01*
X153275895Y-33976810D01*
X153275905Y-33976809D01*
X153614435Y-33874118D01*
X153941269Y-33738739D01*
X154253259Y-33571976D01*
X154547402Y-33375436D01*
X154820864Y-33151012D01*
X155071012Y-32900864D01*
X155295436Y-32627402D01*
X155491976Y-32333259D01*
X155658739Y-32021269D01*
X155794118Y-31694435D01*
X155896809Y-31355905D01*
X155896811Y-31355895D01*
X155896814Y-31355884D01*
X155931663Y-31180679D01*
X155965825Y-31008940D01*
X156000500Y-30656881D01*
X156000500Y-30303119D01*
X155965825Y-29951060D01*
X155923687Y-29739217D01*
X155896814Y-29604115D01*
X155896811Y-29604104D01*
X155896810Y-29604101D01*
X155896809Y-29604095D01*
X155794118Y-29265565D01*
X155658739Y-28938731D01*
X155636412Y-28896961D01*
X155491982Y-28626752D01*
X155491981Y-28626750D01*
X155491976Y-28626741D01*
X155295436Y-28332598D01*
X155071012Y-28059136D01*
X155071011Y-28059135D01*
X155071007Y-28059130D01*
X154820869Y-27808992D01*
X154547407Y-27584568D01*
X154547406Y-27584567D01*
X154547402Y-27584564D01*
X154253259Y-27388024D01*
X154253254Y-27388021D01*
X154253247Y-27388017D01*
X153941276Y-27221264D01*
X153941271Y-27221262D01*
X153614436Y-27085882D01*
X153275895Y-26983188D01*
X153275884Y-26983185D01*
X152928946Y-26914176D01*
X152928929Y-26914173D01*
X152662700Y-26887952D01*
X152576881Y-26879500D01*
X152223119Y-26879500D01*
X152143748Y-26887317D01*
X151871070Y-26914173D01*
X151871053Y-26914176D01*
X151524115Y-26983185D01*
X151524104Y-26983188D01*
X151185563Y-27085882D01*
X150858728Y-27221262D01*
X150858723Y-27221264D01*
X150546752Y-27388017D01*
X150546734Y-27388028D01*
X150252606Y-27584558D01*
X150252592Y-27584568D01*
X149979130Y-27808992D01*
X149728992Y-28059130D01*
X149504568Y-28332592D01*
X149504558Y-28332606D01*
X149308028Y-28626734D01*
X149308017Y-28626752D01*
X149141264Y-28938723D01*
X149141262Y-28938728D01*
X149005882Y-29265563D01*
X148903188Y-29604104D01*
X148903185Y-29604115D01*
X148834176Y-29951053D01*
X148834173Y-29951070D01*
X148807317Y-30223748D01*
X148803219Y-30265366D01*
X148799500Y-30303122D01*
X143594065Y-30303122D01*
X143594064Y-30303119D01*
X143546222Y-30062603D01*
X143542689Y-30044840D01*
X143449980Y-29739219D01*
X143327761Y-29444156D01*
X143320930Y-29431377D01*
X143177215Y-29162505D01*
X143177213Y-29162503D01*
X143177209Y-29162494D01*
X143177198Y-29162477D01*
X142999787Y-28896961D01*
X142999780Y-28896951D01*
X142999775Y-28896944D01*
X142797166Y-28650065D01*
X142797165Y-28650064D01*
X142797161Y-28650059D01*
X142571340Y-28424238D01*
X142324461Y-28221629D01*
X142324438Y-28221612D01*
X142058922Y-28044201D01*
X142058894Y-28044184D01*
X141777251Y-27893642D01*
X141777246Y-27893640D01*
X141482182Y-27771420D01*
X141176554Y-27678709D01*
X140863321Y-27616403D01*
X140863322Y-27616403D01*
X140623941Y-27592827D01*
X140545487Y-27585100D01*
X140226113Y-27585100D01*
X140153622Y-27592239D01*
X139908277Y-27616403D01*
X139595045Y-27678709D01*
X139289417Y-27771420D01*
X138994353Y-27893640D01*
X138994348Y-27893642D01*
X138712705Y-28044184D01*
X138712677Y-28044201D01*
X138447161Y-28221612D01*
X138447138Y-28221629D01*
X138200259Y-28424238D01*
X137974438Y-28650059D01*
X137771829Y-28896938D01*
X137771812Y-28896961D01*
X137594401Y-29162477D01*
X137594384Y-29162505D01*
X137443842Y-29444148D01*
X137443840Y-29444153D01*
X137321620Y-29739217D01*
X137228909Y-30044845D01*
X137166603Y-30358077D01*
X137154343Y-30482561D01*
X137135300Y-30675913D01*
X103636300Y-30675913D01*
X103604996Y-30358077D01*
X103542689Y-30044840D01*
X103449980Y-29739219D01*
X103327761Y-29444156D01*
X103320930Y-29431377D01*
X103177215Y-29162505D01*
X103177213Y-29162503D01*
X103177209Y-29162494D01*
X103177198Y-29162477D01*
X102999787Y-28896961D01*
X102999780Y-28896951D01*
X102999775Y-28896944D01*
X102797166Y-28650065D01*
X102797165Y-28650064D01*
X102797161Y-28650059D01*
X102571340Y-28424238D01*
X102324461Y-28221629D01*
X102324438Y-28221612D01*
X102058922Y-28044201D01*
X102058894Y-28044184D01*
X101777251Y-27893642D01*
X101777246Y-27893640D01*
X101482182Y-27771420D01*
X101176554Y-27678709D01*
X100863321Y-27616403D01*
X100863322Y-27616403D01*
X100623941Y-27592827D01*
X100545487Y-27585100D01*
X100226113Y-27585100D01*
X100153622Y-27592239D01*
X99908277Y-27616403D01*
X99595045Y-27678709D01*
X99289417Y-27771420D01*
X98994353Y-27893640D01*
X98994348Y-27893642D01*
X98712705Y-28044184D01*
X98712677Y-28044201D01*
X98447161Y-28221612D01*
X98447138Y-28221629D01*
X98200259Y-28424238D01*
X97974438Y-28650059D01*
X97771829Y-28896938D01*
X97771812Y-28896961D01*
X97594401Y-29162477D01*
X97594384Y-29162505D01*
X97443842Y-29444148D01*
X97443840Y-29444153D01*
X97321620Y-29739217D01*
X97228909Y-30044845D01*
X97166603Y-30358077D01*
X97154343Y-30482561D01*
X97135300Y-30675913D01*
X87654700Y-30675913D01*
X87654700Y-30479352D01*
X87639396Y-30265372D01*
X87595286Y-30062603D01*
X87578571Y-29985762D01*
X87578570Y-29985760D01*
X87578569Y-29985754D01*
X87478567Y-29717639D01*
X87443350Y-29653145D01*
X87341429Y-29466490D01*
X87341424Y-29466482D01*
X87169945Y-29237412D01*
X87169929Y-29237394D01*
X86967605Y-29035070D01*
X86967587Y-29035054D01*
X86738517Y-28863575D01*
X86738509Y-28863570D01*
X86487366Y-28726435D01*
X86487367Y-28726435D01*
X86380115Y-28686432D01*
X86219246Y-28626431D01*
X86219243Y-28626430D01*
X86219237Y-28626428D01*
X85939633Y-28565604D01*
X85725650Y-28550300D01*
X85725648Y-28550300D01*
X83082752Y-28550300D01*
X83082749Y-28550300D01*
X82868766Y-28565604D01*
X82589162Y-28626428D01*
X82321033Y-28726435D01*
X82069890Y-28863570D01*
X82069882Y-28863575D01*
X81840812Y-29035054D01*
X81840794Y-29035070D01*
X81638470Y-29237394D01*
X81638454Y-29237412D01*
X81466975Y-29466482D01*
X81466970Y-29466490D01*
X81329835Y-29717633D01*
X81229828Y-29985762D01*
X81169004Y-30265366D01*
X81153700Y-30479349D01*
X73957990Y-30479349D01*
X73957985Y-30477448D01*
X73945676Y-25549810D01*
X73965193Y-25482721D01*
X74017883Y-25436835D01*
X74069676Y-25425500D01*
X152391715Y-25425500D01*
X152397439Y-25425500D01*
X152402562Y-25425605D01*
G37*
%TD.AperFunction*%
%TD*%
%TA.AperFunction,Conductor*%
%TO.N,Net-(PS1-+Vout)*%
G36*
X46145516Y-104159685D02*
G01*
X46191271Y-104212489D01*
X46202477Y-104264123D01*
X46200730Y-106030175D01*
X46181724Y-106096024D01*
X46023952Y-106347116D01*
X45877732Y-106650745D01*
X45766427Y-106968834D01*
X45766423Y-106968846D01*
X45691433Y-107297402D01*
X45691431Y-107297418D01*
X45653700Y-107632291D01*
X45653700Y-107969308D01*
X45691431Y-108304181D01*
X45691433Y-108304197D01*
X45766423Y-108632753D01*
X45766427Y-108632765D01*
X45877732Y-108950854D01*
X46023952Y-109254483D01*
X46178226Y-109500008D01*
X46197232Y-109566103D01*
X46187061Y-119849065D01*
X46180103Y-119889896D01*
X46119590Y-120062836D01*
X46119589Y-120062838D01*
X46048347Y-120374971D01*
X46048345Y-120374983D01*
X46012500Y-120693114D01*
X46012500Y-121013285D01*
X46048345Y-121331416D01*
X46048347Y-121331428D01*
X46119589Y-121643561D01*
X46119590Y-121643563D01*
X46178122Y-121810841D01*
X46185080Y-121851918D01*
X46180137Y-126850623D01*
X46160386Y-126917643D01*
X46107537Y-126963345D01*
X46056137Y-126974500D01*
X36668728Y-126974500D01*
X36601689Y-126954815D01*
X36555934Y-126902011D01*
X36544728Y-126850745D01*
X36500046Y-104264245D01*
X36519598Y-104197167D01*
X36572312Y-104151308D01*
X36624046Y-104140000D01*
X46078477Y-104140000D01*
X46145516Y-104159685D01*
G37*
%TD.AperFunction*%
%TD*%
%TA.AperFunction,Conductor*%
%TO.N,/Earth_GND*%
G36*
X156965839Y-54807485D02*
G01*
X157011594Y-54860289D01*
X157022800Y-54911800D01*
X157022800Y-71935800D01*
X157003115Y-72002839D01*
X156950311Y-72048594D01*
X156898800Y-72059800D01*
X147977400Y-72059800D01*
X147910361Y-72040115D01*
X147864606Y-71987311D01*
X147853400Y-71935800D01*
X147853400Y-70324381D01*
X154388900Y-70324381D01*
X154388900Y-70498818D01*
X154422927Y-70669883D01*
X154422929Y-70669891D01*
X154489678Y-70831039D01*
X154489683Y-70831048D01*
X154586586Y-70976073D01*
X154586589Y-70976077D01*
X154709922Y-71099410D01*
X154709926Y-71099413D01*
X154854951Y-71196316D01*
X154854957Y-71196319D01*
X154854958Y-71196320D01*
X155016109Y-71263071D01*
X155187181Y-71297099D01*
X155187185Y-71297100D01*
X155187186Y-71297100D01*
X155361615Y-71297100D01*
X155361616Y-71297099D01*
X155532691Y-71263071D01*
X155693842Y-71196320D01*
X155838874Y-71099413D01*
X155962213Y-70976074D01*
X156059120Y-70831042D01*
X156125871Y-70669891D01*
X156159900Y-70498814D01*
X156159900Y-70324386D01*
X156125871Y-70153309D01*
X156059120Y-69992158D01*
X156059119Y-69992157D01*
X156059116Y-69992151D01*
X155962213Y-69847126D01*
X155962210Y-69847122D01*
X155838877Y-69723789D01*
X155838873Y-69723786D01*
X155693848Y-69626883D01*
X155693839Y-69626878D01*
X155532691Y-69560129D01*
X155532683Y-69560127D01*
X155361618Y-69526100D01*
X155361614Y-69526100D01*
X155187186Y-69526100D01*
X155187181Y-69526100D01*
X155016116Y-69560127D01*
X155016108Y-69560129D01*
X154854960Y-69626878D01*
X154854951Y-69626883D01*
X154709926Y-69723786D01*
X154709922Y-69723789D01*
X154586589Y-69847122D01*
X154586586Y-69847126D01*
X154489683Y-69992151D01*
X154489678Y-69992160D01*
X154422929Y-70153308D01*
X154422927Y-70153316D01*
X154388900Y-70324381D01*
X147853400Y-70324381D01*
X147853400Y-61324381D01*
X154388900Y-61324381D01*
X154388900Y-61498818D01*
X154422927Y-61669883D01*
X154422929Y-61669891D01*
X154489678Y-61831039D01*
X154489683Y-61831048D01*
X154586586Y-61976073D01*
X154586589Y-61976077D01*
X154709922Y-62099410D01*
X154709926Y-62099413D01*
X154854951Y-62196316D01*
X154854957Y-62196319D01*
X154854958Y-62196320D01*
X155016109Y-62263071D01*
X155187181Y-62297099D01*
X155187185Y-62297100D01*
X155187186Y-62297100D01*
X155361615Y-62297100D01*
X155361616Y-62297099D01*
X155532691Y-62263071D01*
X155693842Y-62196320D01*
X155838874Y-62099413D01*
X155962213Y-61976074D01*
X156059120Y-61831042D01*
X156125871Y-61669891D01*
X156159900Y-61498814D01*
X156159900Y-61324386D01*
X156125871Y-61153309D01*
X156059120Y-60992158D01*
X156059119Y-60992157D01*
X156059116Y-60992151D01*
X155962213Y-60847126D01*
X155962210Y-60847122D01*
X155838877Y-60723789D01*
X155838873Y-60723786D01*
X155693848Y-60626883D01*
X155693839Y-60626878D01*
X155532691Y-60560129D01*
X155532683Y-60560127D01*
X155361618Y-60526100D01*
X155361614Y-60526100D01*
X155187186Y-60526100D01*
X155187181Y-60526100D01*
X155016116Y-60560127D01*
X155016108Y-60560129D01*
X154854960Y-60626878D01*
X154854951Y-60626883D01*
X154709926Y-60723786D01*
X154709922Y-60723789D01*
X154586589Y-60847122D01*
X154586586Y-60847126D01*
X154489683Y-60992151D01*
X154489678Y-60992160D01*
X154422929Y-61153308D01*
X154422927Y-61153316D01*
X154388900Y-61324381D01*
X147853400Y-61324381D01*
X147853400Y-57543837D01*
X149273100Y-57543837D01*
X149273100Y-57772162D01*
X149308815Y-57997660D01*
X149379370Y-58214803D01*
X149483021Y-58418228D01*
X149617221Y-58602937D01*
X149778663Y-58764379D01*
X149963372Y-58898579D01*
X150059484Y-58947550D01*
X150166796Y-59002229D01*
X150166798Y-59002229D01*
X150166801Y-59002231D01*
X150283192Y-59040049D01*
X150383939Y-59072784D01*
X150609438Y-59108500D01*
X150609443Y-59108500D01*
X150837762Y-59108500D01*
X151063260Y-59072784D01*
X151280399Y-59002231D01*
X151483828Y-58898579D01*
X151668537Y-58764379D01*
X151829979Y-58602937D01*
X151964179Y-58418228D01*
X152067831Y-58214799D01*
X152138384Y-57997660D01*
X152174100Y-57772162D01*
X152174100Y-57543837D01*
X152138384Y-57318339D01*
X152067829Y-57101196D01*
X151964178Y-56897771D01*
X151829979Y-56713063D01*
X151668537Y-56551621D01*
X151483828Y-56417421D01*
X151280403Y-56313770D01*
X151063260Y-56243215D01*
X150837762Y-56207500D01*
X150837757Y-56207500D01*
X150609443Y-56207500D01*
X150609438Y-56207500D01*
X150383939Y-56243215D01*
X150166796Y-56313770D01*
X149963371Y-56417421D01*
X149778661Y-56551622D01*
X149617222Y-56713061D01*
X149483021Y-56897771D01*
X149379370Y-57101196D01*
X149308815Y-57318339D01*
X149273100Y-57543837D01*
X147853400Y-57543837D01*
X147853400Y-54911800D01*
X147873085Y-54844761D01*
X147925889Y-54799006D01*
X147977400Y-54787800D01*
X156898800Y-54787800D01*
X156965839Y-54807485D01*
G37*
%TD.AperFunction*%
%TD*%
%TA.AperFunction,Conductor*%
%TO.N,+12V*%
G36*
X129227255Y-106849023D02*
G01*
X129294274Y-106868774D01*
X129339976Y-106921623D01*
X129351131Y-106973023D01*
X129351131Y-125410251D01*
X129331446Y-125477290D01*
X129278642Y-125523045D01*
X129227376Y-125534251D01*
X71801376Y-125647854D01*
X71734298Y-125628302D01*
X71688439Y-125575588D01*
X71677131Y-125523854D01*
X71677131Y-116354578D01*
X97420700Y-116354578D01*
X97420700Y-119283021D01*
X97431104Y-119415212D01*
X97431105Y-119415219D01*
X97486102Y-119633478D01*
X97486103Y-119633481D01*
X97579191Y-119838422D01*
X97579197Y-119838432D01*
X97707374Y-120023445D01*
X97707378Y-120023450D01*
X97707381Y-120023454D01*
X97866546Y-120182619D01*
X97866550Y-120182622D01*
X97866554Y-120182625D01*
X97926286Y-120224007D01*
X98051574Y-120310807D01*
X98256517Y-120403896D01*
X98256521Y-120403897D01*
X98474780Y-120458894D01*
X98474782Y-120458894D01*
X98474789Y-120458896D01*
X98606984Y-120469300D01*
X98606992Y-120469300D01*
X100935408Y-120469300D01*
X100935416Y-120469300D01*
X101067611Y-120458896D01*
X101285883Y-120403896D01*
X101490826Y-120310807D01*
X101675854Y-120182619D01*
X101835019Y-120023454D01*
X101963207Y-119838426D01*
X102056296Y-119633483D01*
X102111296Y-119415211D01*
X102121700Y-119283016D01*
X102121700Y-116354584D01*
X102121700Y-116354578D01*
X105777300Y-116354578D01*
X105777300Y-119283021D01*
X105787704Y-119415212D01*
X105787705Y-119415219D01*
X105842702Y-119633478D01*
X105842703Y-119633481D01*
X105935791Y-119838422D01*
X105935797Y-119838432D01*
X106063974Y-120023445D01*
X106063978Y-120023450D01*
X106063981Y-120023454D01*
X106223146Y-120182619D01*
X106223150Y-120182622D01*
X106223154Y-120182625D01*
X106282886Y-120224007D01*
X106408174Y-120310807D01*
X106613117Y-120403896D01*
X106613121Y-120403897D01*
X106831380Y-120458894D01*
X106831382Y-120458894D01*
X106831389Y-120458896D01*
X106963584Y-120469300D01*
X106963592Y-120469300D01*
X109292008Y-120469300D01*
X109292016Y-120469300D01*
X109424211Y-120458896D01*
X109642483Y-120403896D01*
X109847426Y-120310807D01*
X110032454Y-120182619D01*
X110191619Y-120023454D01*
X110319807Y-119838426D01*
X110412896Y-119633483D01*
X110467896Y-119415211D01*
X110478300Y-119283016D01*
X110478300Y-116354584D01*
X110478300Y-116354578D01*
X114464100Y-116354578D01*
X114464100Y-119283021D01*
X114474504Y-119415212D01*
X114474505Y-119415219D01*
X114529502Y-119633478D01*
X114529503Y-119633481D01*
X114622591Y-119838422D01*
X114622597Y-119838432D01*
X114750774Y-120023445D01*
X114750778Y-120023450D01*
X114750781Y-120023454D01*
X114909946Y-120182619D01*
X114909950Y-120182622D01*
X114909954Y-120182625D01*
X114969686Y-120224007D01*
X115094974Y-120310807D01*
X115299917Y-120403896D01*
X115299921Y-120403897D01*
X115518180Y-120458894D01*
X115518182Y-120458894D01*
X115518189Y-120458896D01*
X115650384Y-120469300D01*
X115650392Y-120469300D01*
X117978808Y-120469300D01*
X117978816Y-120469300D01*
X118111011Y-120458896D01*
X118329283Y-120403896D01*
X118534226Y-120310807D01*
X118719254Y-120182619D01*
X118878419Y-120023454D01*
X119006607Y-119838426D01*
X119099696Y-119633483D01*
X119154696Y-119415211D01*
X119165100Y-119283016D01*
X119165100Y-116354584D01*
X119158268Y-116267778D01*
X123130700Y-116267778D01*
X123130700Y-119196221D01*
X123141104Y-119328412D01*
X123141105Y-119328419D01*
X123196102Y-119546678D01*
X123196103Y-119546681D01*
X123289191Y-119751622D01*
X123289197Y-119751632D01*
X123417374Y-119936645D01*
X123417378Y-119936650D01*
X123417381Y-119936654D01*
X123576546Y-120095819D01*
X123576550Y-120095822D01*
X123576554Y-120095825D01*
X123701828Y-120182615D01*
X123761574Y-120224007D01*
X123966517Y-120317096D01*
X123966521Y-120317097D01*
X124184780Y-120372094D01*
X124184782Y-120372094D01*
X124184789Y-120372096D01*
X124316984Y-120382500D01*
X124316992Y-120382500D01*
X126645408Y-120382500D01*
X126645416Y-120382500D01*
X126777611Y-120372096D01*
X126995883Y-120317096D01*
X127200826Y-120224007D01*
X127385854Y-120095819D01*
X127545019Y-119936654D01*
X127673207Y-119751626D01*
X127766296Y-119546683D01*
X127821296Y-119328411D01*
X127831700Y-119196216D01*
X127831700Y-116267784D01*
X127821296Y-116135589D01*
X127766296Y-115917317D01*
X127673207Y-115712374D01*
X127545019Y-115527346D01*
X127385854Y-115368181D01*
X127385850Y-115368178D01*
X127385845Y-115368174D01*
X127200832Y-115239997D01*
X127200830Y-115239995D01*
X127200826Y-115239993D01*
X127186980Y-115233704D01*
X126995881Y-115146903D01*
X126995878Y-115146902D01*
X126777619Y-115091905D01*
X126777612Y-115091904D01*
X126645421Y-115081500D01*
X126645416Y-115081500D01*
X124316984Y-115081500D01*
X124316978Y-115081500D01*
X124184787Y-115091904D01*
X124184780Y-115091905D01*
X123966521Y-115146902D01*
X123966518Y-115146903D01*
X123761577Y-115239991D01*
X123761567Y-115239997D01*
X123576554Y-115368174D01*
X123576542Y-115368184D01*
X123417384Y-115527342D01*
X123417374Y-115527354D01*
X123289197Y-115712367D01*
X123289191Y-115712377D01*
X123196103Y-115917318D01*
X123196102Y-115917321D01*
X123141105Y-116135580D01*
X123141104Y-116135587D01*
X123130700Y-116267778D01*
X119158268Y-116267778D01*
X119154696Y-116222389D01*
X119099696Y-116004117D01*
X119006607Y-115799174D01*
X118878419Y-115614146D01*
X118719254Y-115454981D01*
X118719250Y-115454978D01*
X118719245Y-115454974D01*
X118534232Y-115326797D01*
X118534230Y-115326795D01*
X118534226Y-115326793D01*
X118343124Y-115239991D01*
X118329281Y-115233703D01*
X118329278Y-115233702D01*
X118111019Y-115178705D01*
X118111012Y-115178704D01*
X117978821Y-115168300D01*
X117978816Y-115168300D01*
X115650384Y-115168300D01*
X115650378Y-115168300D01*
X115518187Y-115178704D01*
X115518180Y-115178705D01*
X115299921Y-115233702D01*
X115299918Y-115233703D01*
X115094977Y-115326791D01*
X115094967Y-115326797D01*
X114909954Y-115454974D01*
X114909942Y-115454984D01*
X114750784Y-115614142D01*
X114750774Y-115614154D01*
X114622597Y-115799167D01*
X114622591Y-115799177D01*
X114529503Y-116004118D01*
X114529502Y-116004121D01*
X114474505Y-116222380D01*
X114474504Y-116222387D01*
X114464100Y-116354578D01*
X110478300Y-116354578D01*
X110467896Y-116222389D01*
X110412896Y-116004117D01*
X110319807Y-115799174D01*
X110191619Y-115614146D01*
X110032454Y-115454981D01*
X110032450Y-115454978D01*
X110032445Y-115454974D01*
X109847432Y-115326797D01*
X109847430Y-115326795D01*
X109847426Y-115326793D01*
X109656324Y-115239991D01*
X109642481Y-115233703D01*
X109642478Y-115233702D01*
X109424219Y-115178705D01*
X109424212Y-115178704D01*
X109292021Y-115168300D01*
X109292016Y-115168300D01*
X106963584Y-115168300D01*
X106963578Y-115168300D01*
X106831387Y-115178704D01*
X106831380Y-115178705D01*
X106613121Y-115233702D01*
X106613118Y-115233703D01*
X106408177Y-115326791D01*
X106408167Y-115326797D01*
X106223154Y-115454974D01*
X106223142Y-115454984D01*
X106063984Y-115614142D01*
X106063974Y-115614154D01*
X105935797Y-115799167D01*
X105935791Y-115799177D01*
X105842703Y-116004118D01*
X105842702Y-116004121D01*
X105787705Y-116222380D01*
X105787704Y-116222387D01*
X105777300Y-116354578D01*
X102121700Y-116354578D01*
X102111296Y-116222389D01*
X102056296Y-116004117D01*
X101963207Y-115799174D01*
X101835019Y-115614146D01*
X101675854Y-115454981D01*
X101675850Y-115454978D01*
X101675845Y-115454974D01*
X101490832Y-115326797D01*
X101490830Y-115326795D01*
X101490826Y-115326793D01*
X101299724Y-115239991D01*
X101285881Y-115233703D01*
X101285878Y-115233702D01*
X101067619Y-115178705D01*
X101067612Y-115178704D01*
X100935421Y-115168300D01*
X100935416Y-115168300D01*
X98606984Y-115168300D01*
X98606978Y-115168300D01*
X98474787Y-115178704D01*
X98474780Y-115178705D01*
X98256521Y-115233702D01*
X98256518Y-115233703D01*
X98051577Y-115326791D01*
X98051567Y-115326797D01*
X97866554Y-115454974D01*
X97866542Y-115454984D01*
X97707384Y-115614142D01*
X97707374Y-115614154D01*
X97579197Y-115799167D01*
X97579191Y-115799177D01*
X97486103Y-116004118D01*
X97486102Y-116004121D01*
X97431105Y-116222380D01*
X97431104Y-116222387D01*
X97420700Y-116354578D01*
X71677131Y-116354578D01*
X71677131Y-106916222D01*
X71696816Y-106849183D01*
X71749620Y-106803428D01*
X71801250Y-106792222D01*
X129227255Y-106849023D01*
G37*
%TD.AperFunction*%
%TD*%
M02*
