M48
; DRILL file {KiCad 9.0.4} date 2026-03-12T13:54:09-0400
; FORMAT={-:-/ absolute / metric / decimal}
; #@! TF.CreationDate,2026-03-12T13:54:09-04:00
; #@! TF.GenerationSoftware,Kicad,Pcbnew,9.0.4
; #@! TF.FileFunction,Plated,1,4,PTH
FMAT,2
METRIC
; #@! TA.AperFunction,Plated,PTH,ComponentDrill
T1C1.000
; #@! TA.AperFunction,Plated,PTH,ComponentDrill
T2C1.020
; #@! TA.AperFunction,Plated,PTH,ComponentDrill
T3C1.200
; #@! TA.AperFunction,Plated,PTH,ComponentDrill
T4C1.400
; #@! TA.AperFunction,Plated,PTH,ComponentDrill
T5C1.780
; #@! TA.AperFunction,Plated,PTH,ComponentDrill
T6C1.800
; #@! TA.AperFunction,Plated,PTH,ComponentDrill
T7C2.200
%
G90
G05
T1
X150.724Y-57.658
X153.264Y-57.658
T2
X153.314Y-64.412
X153.314Y-67.412
T3
X77.654Y-31.801
X84.404Y-31.801
X100.386Y-30.836
X108.886Y-99.436
X120.386Y-30.836
X120.386Y-99.436
X131.886Y-99.436
X140.386Y-30.836
T4
X99.771Y-112.319
X99.771Y-117.819
X108.128Y-112.319
X108.128Y-117.819
X116.815Y-112.319
X116.815Y-117.819
X125.481Y-112.232
X125.481Y-117.732
T5
X64.484Y-119.128
X64.484Y-122.528
X74.404Y-119.128
X74.404Y-122.528
T6
X43.163Y-120.853
X48.863Y-120.853
X138.303Y-113.426
X138.303Y-119.126
X144.003Y-113.426
X144.003Y-119.126
X151.816Y-41.681
X151.816Y-47.381
T7
X43.154Y-107.801
X48.654Y-107.801
M30
