%TF.GenerationSoftware,KiCad,Pcbnew,9.0.4*%
%TF.CreationDate,2026-03-16T14:26:36-04:00*%
%TF.ProjectId,Power Board,506f7765-7220-4426-9f61-72642e6b6963,rev?*%
%TF.SameCoordinates,Original*%
%TF.FileFunction,Copper,L4,Bot*%
%TF.FilePolarity,Positive*%
%FSLAX46Y46*%
G04 Gerber Fmt 4.6, Leading zero omitted, Abs format (unit mm)*
G04 Created by KiCad (PCBNEW 9.0.4) date 2026-03-16 14:26:36*
%MOMM*%
%LPD*%
G01*
G04 APERTURE LIST*
G04 Aperture macros list*
%AMRoundRect*
0 Rectangle with rounded corners*
0 $1 Rounding radius*
0 $2 $3 $4 $5 $6 $7 $8 $9 X,Y pos of 4 corners*
0 Add a 4 corners polygon primitive as box body*
4,1,4,$2,$3,$4,$5,$6,$7,$8,$9,$2,$3,0*
0 Add four circle primitives for the rounded corners*
1,1,$1+$1,$2,$3*
1,1,$1+$1,$4,$5*
1,1,$1+$1,$6,$7*
1,1,$1+$1,$8,$9*
0 Add four rect primitives between the rounded corners*
20,1,$1+$1,$2,$3,$4,$5,0*
20,1,$1+$1,$4,$5,$6,$7,0*
20,1,$1+$1,$6,$7,$8,$9,0*
20,1,$1+$1,$8,$9,$2,$3,0*%
G04 Aperture macros list end*
%TA.AperFunction,ComponentPad*%
%ADD10C,2.780000*%
%TD*%
%TA.AperFunction,ComponentPad*%
%ADD11RoundRect,0.250002X1.599998X1.599998X-1.599998X1.599998X-1.599998X-1.599998X1.599998X-1.599998X0*%
%TD*%
%TA.AperFunction,ComponentPad*%
%ADD12C,3.700000*%
%TD*%
%TA.AperFunction,ComponentPad*%
%ADD13C,2.500000*%
%TD*%
%TA.AperFunction,ComponentPad*%
%ADD14RoundRect,0.250001X-0.759999X0.499999X-0.759999X-0.499999X0.759999X-0.499999X0.759999X0.499999X0*%
%TD*%
%TA.AperFunction,ComponentPad*%
%ADD15O,2.020000X1.500000*%
%TD*%
%TA.AperFunction,ComponentPad*%
%ADD16RoundRect,0.250002X1.599998X-1.599998X1.599998X1.599998X-1.599998X1.599998X-1.599998X-1.599998X0*%
%TD*%
%TA.AperFunction,ComponentPad*%
%ADD17RoundRect,0.250001X1.099999X1.399999X-1.099999X1.399999X-1.099999X-1.399999X1.099999X-1.399999X0*%
%TD*%
%TA.AperFunction,ComponentPad*%
%ADD18O,2.700000X3.300000*%
%TD*%
%TA.AperFunction,ComponentPad*%
%ADD19R,2.500000X2.500000*%
%TD*%
%TA.AperFunction,ComponentPad*%
%ADD20C,4.000000*%
%TD*%
%TA.AperFunction,ComponentPad*%
%ADD21R,1.700000X1.700000*%
%TD*%
%TA.AperFunction,ComponentPad*%
%ADD22C,1.700000*%
%TD*%
G04 APERTURE END LIST*
D10*
%TO.P,F1,1*%
%TO.N,Net-(F1-Pad1)*%
X64483600Y-119127800D03*
X64483600Y-122527800D03*
%TO.P,F1,2*%
%TO.N,+12V*%
X74403600Y-119127800D03*
X74403600Y-122527800D03*
%TD*%
D11*
%TO.P,J4,1,1*%
%TO.N,/AC_Neutral*%
X151815800Y-47381400D03*
D12*
%TO.P,J4,2,2*%
%TO.N,/AC_Line*%
X151815800Y-41681400D03*
%TD*%
D13*
%TO.P,U1,1,Frame_GND*%
%TO.N,Net-(U1-Frame_GND)*%
X100385800Y-30835600D03*
%TO.P,U1,2,AC_Neutral*%
%TO.N,/AC_Neutral*%
X120385800Y-30835600D03*
%TO.P,U1,3,AC_Line*%
%TO.N,/AC_Line*%
X140385800Y-30835600D03*
%TO.P,U1,4,-Vo*%
%TO.N,-24V*%
X108885800Y-99435600D03*
%TO.P,U1,5,Com*%
%TO.N,GND*%
X120385800Y-99435600D03*
%TO.P,U1,6,+Vo*%
%TO.N,+24V*%
X131885800Y-99435600D03*
%TD*%
D14*
%TO.P,J5,1,1*%
%TO.N,/Earth_GND*%
X153314400Y-64411600D03*
D15*
%TO.P,J5,2,2*%
X153314400Y-67411600D03*
%TD*%
D16*
%TO.P,J1,1,1*%
%TO.N,Net-(PS1-+Vout)*%
X43163000Y-120853200D03*
D12*
%TO.P,J1,2,2*%
%TO.N,Net-(F1-Pad1)*%
X48863000Y-120853200D03*
%TD*%
D17*
%TO.P,J3,1,1*%
%TO.N,GND*%
X116814600Y-117818800D03*
D18*
%TO.P,J3,2,2*%
%TO.N,+12V*%
X116814600Y-112318800D03*
%TD*%
D11*
%TO.P,J6,1,Pin_1*%
%TO.N,GND*%
X144003000Y-119126000D03*
D12*
%TO.P,J6,2,Pin_2*%
X138303000Y-119126000D03*
%TO.P,J6,3,Pin_3*%
%TO.N,-24V*%
X144003000Y-113426000D03*
%TO.P,J6,4,Pin_4*%
%TO.N,+24V*%
X138303000Y-113426000D03*
%TD*%
D17*
%TO.P,J9,1,1*%
%TO.N,GND*%
X99771200Y-117818800D03*
D18*
%TO.P,J9,2,2*%
%TO.N,+12V*%
X99771200Y-112318800D03*
%TD*%
D19*
%TO.P,PS1,1,AC/L*%
%TO.N,/AC_Line*%
X84404200Y-31800800D03*
D13*
%TO.P,PS1,2,AC/N*%
%TO.N,/AC_Neutral*%
X77654200Y-31800800D03*
D20*
%TO.P,PS1,3,+Vout*%
%TO.N,Net-(PS1-+Vout)*%
X43154200Y-107800800D03*
%TO.P,PS1,4,-Vout*%
%TO.N,GND*%
X48654200Y-107800800D03*
%TD*%
D17*
%TO.P,J2,1,1*%
%TO.N,GND*%
X125481200Y-117732000D03*
D18*
%TO.P,J2,2,2*%
%TO.N,+12V*%
X125481200Y-112232000D03*
%TD*%
D17*
%TO.P,J7,1,1*%
%TO.N,GND*%
X108127800Y-117818800D03*
D18*
%TO.P,J7,2,2*%
%TO.N,+12V*%
X108127800Y-112318800D03*
%TD*%
D21*
%TO.P,J8,1,1*%
%TO.N,/Earth_GND*%
X153263600Y-57658000D03*
D22*
%TO.P,J8,2,2*%
%TO.N,Net-(U1-Frame_GND)*%
X150723600Y-57658000D03*
%TD*%
%TA.AperFunction,Conductor*%
%TO.N,-24V*%
G36*
X151121299Y-95726885D02*
G01*
X151167054Y-95779689D01*
X151178260Y-95831016D01*
X151211842Y-118431959D01*
X151192257Y-118499027D01*
X151139521Y-118544861D01*
X151135295Y-118546704D01*
X150858728Y-118661262D01*
X150858723Y-118661264D01*
X150546752Y-118828017D01*
X150546734Y-118828028D01*
X150252606Y-119024558D01*
X150252592Y-119024568D01*
X149979130Y-119248992D01*
X149728992Y-119499130D01*
X149504568Y-119772592D01*
X149504558Y-119772606D01*
X149308028Y-120066734D01*
X149308017Y-120066752D01*
X149141264Y-120378723D01*
X149141262Y-120378728D01*
X149005882Y-120705563D01*
X148903188Y-121044104D01*
X148903185Y-121044115D01*
X148834176Y-121391053D01*
X148834173Y-121391070D01*
X148799500Y-121743122D01*
X148799500Y-122096877D01*
X148834173Y-122448929D01*
X148834176Y-122448946D01*
X148903185Y-122795884D01*
X148903188Y-122795895D01*
X149005882Y-123134436D01*
X149141262Y-123461271D01*
X149141264Y-123461276D01*
X149308017Y-123773247D01*
X149308028Y-123773265D01*
X149504558Y-124067393D01*
X149504568Y-124067407D01*
X149728992Y-124340869D01*
X149979130Y-124591007D01*
X149979135Y-124591011D01*
X149979136Y-124591012D01*
X150252598Y-124815436D01*
X150546741Y-125011976D01*
X150546750Y-125011981D01*
X150546752Y-125011982D01*
X150858723Y-125178735D01*
X150858725Y-125178735D01*
X150858731Y-125178739D01*
X151145666Y-125297591D01*
X151200069Y-125341432D01*
X151222134Y-125407726D01*
X151222213Y-125411968D01*
X151224351Y-126850316D01*
X151204766Y-126917384D01*
X151152030Y-126963218D01*
X151100351Y-126974500D01*
X132559600Y-126974500D01*
X132492561Y-126954815D01*
X132446806Y-126902011D01*
X132435600Y-126850500D01*
X132435600Y-114887983D01*
X132455285Y-114820944D01*
X132508089Y-114775189D01*
X132577247Y-114765245D01*
X132591689Y-114768207D01*
X132790762Y-114821548D01*
X133018266Y-114851500D01*
X133018273Y-114851500D01*
X133247727Y-114851500D01*
X133247734Y-114851500D01*
X133475238Y-114821548D01*
X133696887Y-114762158D01*
X133908888Y-114674344D01*
X134107612Y-114559611D01*
X134289661Y-114419919D01*
X134289665Y-114419914D01*
X134289670Y-114419911D01*
X134451911Y-114257670D01*
X134451914Y-114257665D01*
X134451919Y-114257661D01*
X134591611Y-114075612D01*
X134706344Y-113876888D01*
X134794158Y-113664887D01*
X134853548Y-113443238D01*
X134876894Y-113265914D01*
X135452500Y-113265914D01*
X135452500Y-113586085D01*
X135488345Y-113904216D01*
X135488347Y-113904228D01*
X135559589Y-114216362D01*
X135559590Y-114216364D01*
X135665332Y-114518559D01*
X135804243Y-114807010D01*
X135826406Y-114842282D01*
X135974581Y-115078101D01*
X136174198Y-115328413D01*
X136400587Y-115554802D01*
X136650899Y-115754419D01*
X136921987Y-115924755D01*
X137210442Y-116063668D01*
X137357610Y-116115164D01*
X137482766Y-116158958D01*
X137539543Y-116199680D01*
X137565290Y-116264633D01*
X137551834Y-116333194D01*
X137503447Y-116383597D01*
X137482766Y-116393042D01*
X137210440Y-116488332D01*
X136921989Y-116627243D01*
X136650900Y-116797580D01*
X136400587Y-116997197D01*
X136174197Y-117223587D01*
X135974580Y-117473900D01*
X135804243Y-117744989D01*
X135665332Y-118033440D01*
X135559590Y-118335635D01*
X135559589Y-118335637D01*
X135488347Y-118647771D01*
X135488345Y-118647783D01*
X135452500Y-118965914D01*
X135452500Y-119286085D01*
X135488345Y-119604216D01*
X135488347Y-119604228D01*
X135559589Y-119916362D01*
X135559590Y-119916364D01*
X135665332Y-120218559D01*
X135804243Y-120507010D01*
X135804245Y-120507013D01*
X135974581Y-120778101D01*
X136174198Y-121028413D01*
X136400587Y-121254802D01*
X136650899Y-121454419D01*
X136921987Y-121624755D01*
X137210442Y-121763668D01*
X137512637Y-121869410D01*
X137824771Y-121940653D01*
X138142915Y-121976499D01*
X138142916Y-121976500D01*
X138142919Y-121976500D01*
X138463084Y-121976500D01*
X138463084Y-121976499D01*
X138781229Y-121940653D01*
X139093363Y-121869410D01*
X139395558Y-121763668D01*
X139684013Y-121624755D01*
X139955101Y-121454419D01*
X140205413Y-121254802D01*
X140431802Y-121028413D01*
X140631419Y-120778101D01*
X140801755Y-120507013D01*
X140916780Y-120268162D01*
X140963602Y-120216303D01*
X141031029Y-120197990D01*
X141097653Y-120219038D01*
X141142322Y-120272764D01*
X141152500Y-120321964D01*
X141152500Y-120790233D01*
X141162903Y-120922411D01*
X141162904Y-120922418D01*
X141217901Y-121140677D01*
X141217902Y-121140680D01*
X141310990Y-121345623D01*
X141310996Y-121345632D01*
X141439173Y-121530645D01*
X141439177Y-121530650D01*
X141439180Y-121530654D01*
X141598346Y-121689820D01*
X141598350Y-121689823D01*
X141598354Y-121689826D01*
X141704939Y-121763668D01*
X141783374Y-121818008D01*
X141988318Y-121911097D01*
X141988322Y-121911098D01*
X142206581Y-121966095D01*
X142206583Y-121966095D01*
X142206590Y-121966097D01*
X142338772Y-121976500D01*
X142338780Y-121976500D01*
X145667220Y-121976500D01*
X145667228Y-121976500D01*
X145799410Y-121966097D01*
X146017682Y-121911097D01*
X146222626Y-121818008D01*
X146407654Y-121689820D01*
X146566820Y-121530654D01*
X146695008Y-121345626D01*
X146788097Y-121140682D01*
X146843097Y-120922410D01*
X146853500Y-120790228D01*
X146853500Y-117461772D01*
X146843097Y-117329590D01*
X146816386Y-117223587D01*
X146788098Y-117111322D01*
X146788097Y-117111319D01*
X146695009Y-116906376D01*
X146695003Y-116906367D01*
X146566826Y-116721354D01*
X146566823Y-116721350D01*
X146566820Y-116721346D01*
X146407654Y-116562180D01*
X146407650Y-116562177D01*
X146407645Y-116562173D01*
X146222632Y-116433996D01*
X146222623Y-116433990D01*
X146017680Y-116340902D01*
X146017677Y-116340901D01*
X145799418Y-116285904D01*
X145799411Y-116285903D01*
X145667233Y-116275500D01*
X145667228Y-116275500D01*
X142338772Y-116275500D01*
X142338766Y-116275500D01*
X142206588Y-116285903D01*
X142206581Y-116285904D01*
X141988322Y-116340901D01*
X141988319Y-116340902D01*
X141783376Y-116433990D01*
X141783367Y-116433996D01*
X141598354Y-116562173D01*
X141598342Y-116562183D01*
X141439183Y-116721342D01*
X141439173Y-116721354D01*
X141310996Y-116906367D01*
X141310990Y-116906376D01*
X141217902Y-117111319D01*
X141217901Y-117111322D01*
X141162904Y-117329581D01*
X141162903Y-117329588D01*
X141152500Y-117461766D01*
X141152500Y-117930035D01*
X141132815Y-117997074D01*
X141080011Y-118042829D01*
X141010853Y-118052773D01*
X140947297Y-118023748D01*
X140916780Y-117983837D01*
X140801756Y-117744989D01*
X140801755Y-117744987D01*
X140631419Y-117473899D01*
X140431802Y-117223587D01*
X140205413Y-116997198D01*
X139955101Y-116797581D01*
X139684013Y-116627245D01*
X139684010Y-116627243D01*
X139395559Y-116488332D01*
X139123233Y-116393042D01*
X139066457Y-116352320D01*
X139040709Y-116287367D01*
X139054165Y-116218806D01*
X139102552Y-116168403D01*
X139123233Y-116158958D01*
X139190018Y-116135589D01*
X139395558Y-116063668D01*
X139684013Y-115924755D01*
X139955101Y-115754419D01*
X140205413Y-115554802D01*
X140431802Y-115328413D01*
X140631419Y-115078101D01*
X140801755Y-114807013D01*
X140940668Y-114518558D01*
X141046410Y-114216363D01*
X141117653Y-113904229D01*
X141153500Y-113586081D01*
X141153500Y-113265919D01*
X141121990Y-112986267D01*
X141121989Y-112986259D01*
X147422500Y-112986259D01*
X147422500Y-113215742D01*
X147432167Y-113289164D01*
X147452452Y-113443239D01*
X147490726Y-113586081D01*
X147511842Y-113664888D01*
X147599650Y-113876877D01*
X147599656Y-113876889D01*
X147714388Y-114075612D01*
X147714392Y-114075618D01*
X147854081Y-114257662D01*
X147854089Y-114257671D01*
X148016330Y-114419912D01*
X148016338Y-114419919D01*
X148198382Y-114559608D01*
X148198385Y-114559609D01*
X148198388Y-114559612D01*
X148397112Y-114674345D01*
X148397117Y-114674347D01*
X148397123Y-114674350D01*
X148488480Y-114712191D01*
X148609113Y-114762159D01*
X148830762Y-114821549D01*
X149041814Y-114849335D01*
X149058250Y-114851499D01*
X149058266Y-114851501D01*
X149058273Y-114851501D01*
X149287727Y-114851501D01*
X149287734Y-114851501D01*
X149515238Y-114821549D01*
X149736887Y-114762159D01*
X149948888Y-114674345D01*
X150147612Y-114559612D01*
X150329661Y-114419920D01*
X150329665Y-114419915D01*
X150329670Y-114419912D01*
X150491911Y-114257671D01*
X150491914Y-114257666D01*
X150491919Y-114257662D01*
X150631611Y-114075613D01*
X150746344Y-113876889D01*
X150834158Y-113664888D01*
X150893548Y-113443239D01*
X150923500Y-113215735D01*
X150923500Y-112986267D01*
X150893548Y-112758763D01*
X150834158Y-112537114D01*
X150749794Y-112333442D01*
X150746349Y-112325124D01*
X150746346Y-112325118D01*
X150746344Y-112325113D01*
X150631611Y-112126389D01*
X150631608Y-112126386D01*
X150631607Y-112126383D01*
X150491918Y-111944339D01*
X150491911Y-111944331D01*
X150329670Y-111782090D01*
X150329661Y-111782082D01*
X150147617Y-111642393D01*
X149948890Y-111527658D01*
X149948876Y-111527651D01*
X149736887Y-111439843D01*
X149714304Y-111433792D01*
X149515238Y-111380453D01*
X149477215Y-111375447D01*
X149287741Y-111350501D01*
X149287734Y-111350501D01*
X149058266Y-111350501D01*
X149058258Y-111350501D01*
X148841715Y-111379010D01*
X148830762Y-111380453D01*
X148737076Y-111405555D01*
X148609112Y-111439843D01*
X148397123Y-111527651D01*
X148397109Y-111527658D01*
X148198382Y-111642393D01*
X148016338Y-111782082D01*
X147854081Y-111944339D01*
X147714392Y-112126383D01*
X147599657Y-112325110D01*
X147599650Y-112325124D01*
X147511842Y-112537113D01*
X147511842Y-112537114D01*
X147452453Y-112758762D01*
X147452451Y-112758771D01*
X147422500Y-112986259D01*
X141121989Y-112986259D01*
X141117654Y-112947783D01*
X141117653Y-112947771D01*
X141046410Y-112635637D01*
X140940668Y-112333442D01*
X140801755Y-112044987D01*
X140631419Y-111773899D01*
X140431802Y-111523587D01*
X140205413Y-111297198D01*
X139955101Y-111097581D01*
X139684013Y-110927245D01*
X139684010Y-110927243D01*
X139395559Y-110788332D01*
X139093364Y-110682590D01*
X139093362Y-110682589D01*
X138852471Y-110627607D01*
X138781229Y-110611347D01*
X138781225Y-110611346D01*
X138781216Y-110611345D01*
X138463085Y-110575500D01*
X138463081Y-110575500D01*
X138142919Y-110575500D01*
X138142914Y-110575500D01*
X137824783Y-110611345D01*
X137824771Y-110611347D01*
X137512637Y-110682589D01*
X137512635Y-110682590D01*
X137210440Y-110788332D01*
X136921989Y-110927243D01*
X136650900Y-111097580D01*
X136400587Y-111297197D01*
X136174197Y-111523587D01*
X135974580Y-111773900D01*
X135804243Y-112044989D01*
X135665332Y-112333440D01*
X135559590Y-112635635D01*
X135559589Y-112635637D01*
X135488347Y-112947771D01*
X135488345Y-112947783D01*
X135452500Y-113265914D01*
X134876894Y-113265914D01*
X134883500Y-113215734D01*
X134883500Y-112986266D01*
X134853548Y-112758762D01*
X134794158Y-112537113D01*
X134744190Y-112416480D01*
X134706349Y-112325123D01*
X134706344Y-112325113D01*
X134706344Y-112325112D01*
X134591611Y-112126388D01*
X134591608Y-112126385D01*
X134591607Y-112126382D01*
X134451918Y-111944338D01*
X134451911Y-111944330D01*
X134289670Y-111782089D01*
X134289661Y-111782081D01*
X134107617Y-111642392D01*
X133908890Y-111527657D01*
X133908876Y-111527650D01*
X133696887Y-111439842D01*
X133668101Y-111432129D01*
X133475238Y-111380452D01*
X133437215Y-111375446D01*
X133247741Y-111350500D01*
X133247734Y-111350500D01*
X133018266Y-111350500D01*
X133018258Y-111350500D01*
X132801715Y-111379009D01*
X132790762Y-111380452D01*
X132591692Y-111433791D01*
X132521843Y-111432129D01*
X132463981Y-111392966D01*
X132436477Y-111328738D01*
X132435600Y-111314017D01*
X132435600Y-106324400D01*
X106448400Y-106324400D01*
X106381361Y-106304715D01*
X106335606Y-106251911D01*
X106324400Y-106200400D01*
X106324400Y-99288086D01*
X118135300Y-99288086D01*
X118135300Y-99583113D01*
X118167371Y-99826713D01*
X118173807Y-99875593D01*
X118173808Y-99875595D01*
X118250161Y-100160551D01*
X118250164Y-100160561D01*
X118363054Y-100433100D01*
X118363058Y-100433110D01*
X118510561Y-100688593D01*
X118690152Y-100922640D01*
X118690158Y-100922647D01*
X118898752Y-101131241D01*
X118898759Y-101131247D01*
X119132806Y-101310838D01*
X119388289Y-101458341D01*
X119388290Y-101458341D01*
X119388293Y-101458343D01*
X119660848Y-101571239D01*
X119945807Y-101647593D01*
X120238294Y-101686100D01*
X120238301Y-101686100D01*
X120533299Y-101686100D01*
X120533306Y-101686100D01*
X120825793Y-101647593D01*
X121110752Y-101571239D01*
X121383307Y-101458343D01*
X121638794Y-101310838D01*
X121872842Y-101131246D01*
X122081446Y-100922642D01*
X122261038Y-100688594D01*
X122408543Y-100433107D01*
X122521439Y-100160552D01*
X122597793Y-99875593D01*
X122636300Y-99583106D01*
X122636300Y-99288094D01*
X122636299Y-99288086D01*
X129635300Y-99288086D01*
X129635300Y-99583113D01*
X129667371Y-99826713D01*
X129673807Y-99875593D01*
X129673808Y-99875595D01*
X129750161Y-100160551D01*
X129750164Y-100160561D01*
X129863054Y-100433100D01*
X129863058Y-100433110D01*
X130010561Y-100688593D01*
X130190152Y-100922640D01*
X130190158Y-100922647D01*
X130398752Y-101131241D01*
X130398759Y-101131247D01*
X130632806Y-101310838D01*
X130888289Y-101458341D01*
X130888290Y-101458341D01*
X130888293Y-101458343D01*
X131160848Y-101571239D01*
X131445807Y-101647593D01*
X131738294Y-101686100D01*
X131738301Y-101686100D01*
X132033299Y-101686100D01*
X132033306Y-101686100D01*
X132325793Y-101647593D01*
X132610752Y-101571239D01*
X132883307Y-101458343D01*
X133138794Y-101310838D01*
X133372842Y-101131246D01*
X133581446Y-100922642D01*
X133761038Y-100688594D01*
X133908543Y-100433107D01*
X134021439Y-100160552D01*
X134097793Y-99875593D01*
X134136300Y-99583106D01*
X134136300Y-99288094D01*
X134097793Y-98995607D01*
X134021439Y-98710648D01*
X133908543Y-98438093D01*
X133761038Y-98182606D01*
X133581446Y-97948558D01*
X133581441Y-97948552D01*
X133372847Y-97739958D01*
X133372840Y-97739952D01*
X133138793Y-97560361D01*
X132883310Y-97412858D01*
X132883300Y-97412854D01*
X132610761Y-97299964D01*
X132610754Y-97299962D01*
X132610752Y-97299961D01*
X132325793Y-97223607D01*
X132276913Y-97217171D01*
X132033313Y-97185100D01*
X132033306Y-97185100D01*
X131738294Y-97185100D01*
X131738286Y-97185100D01*
X131459885Y-97221753D01*
X131445807Y-97223607D01*
X131160848Y-97299961D01*
X131160838Y-97299964D01*
X130888299Y-97412854D01*
X130888289Y-97412858D01*
X130632806Y-97560361D01*
X130398759Y-97739952D01*
X130398752Y-97739958D01*
X130190158Y-97948552D01*
X130190152Y-97948559D01*
X130010561Y-98182606D01*
X129863058Y-98438089D01*
X129863054Y-98438099D01*
X129750164Y-98710638D01*
X129750161Y-98710648D01*
X129673808Y-98995604D01*
X129673806Y-98995615D01*
X129635300Y-99288086D01*
X122636299Y-99288086D01*
X122597793Y-98995607D01*
X122521439Y-98710648D01*
X122408543Y-98438093D01*
X122261038Y-98182606D01*
X122081446Y-97948558D01*
X122081441Y-97948552D01*
X121872847Y-97739958D01*
X121872840Y-97739952D01*
X121638793Y-97560361D01*
X121383310Y-97412858D01*
X121383300Y-97412854D01*
X121110761Y-97299964D01*
X121110754Y-97299962D01*
X121110752Y-97299961D01*
X120825793Y-97223607D01*
X120776913Y-97217171D01*
X120533313Y-97185100D01*
X120533306Y-97185100D01*
X120238294Y-97185100D01*
X120238286Y-97185100D01*
X119959885Y-97221753D01*
X119945807Y-97223607D01*
X119660848Y-97299961D01*
X119660838Y-97299964D01*
X119388299Y-97412854D01*
X119388289Y-97412858D01*
X119132806Y-97560361D01*
X118898759Y-97739952D01*
X118898752Y-97739958D01*
X118690158Y-97948552D01*
X118690152Y-97948559D01*
X118510561Y-98182606D01*
X118363058Y-98438089D01*
X118363054Y-98438099D01*
X118250164Y-98710638D01*
X118250161Y-98710648D01*
X118173808Y-98995604D01*
X118173806Y-98995615D01*
X118135300Y-99288086D01*
X106324400Y-99288086D01*
X106324400Y-95831200D01*
X106344085Y-95764161D01*
X106396889Y-95718406D01*
X106448400Y-95707200D01*
X151054260Y-95707200D01*
X151121299Y-95726885D01*
G37*
%TD.AperFunction*%
%TD*%
M02*
