%TF.GenerationSoftware,KiCad,Pcbnew,9.0.4*%
%TF.CreationDate,2026-03-12T13:54:12-04:00*%
%TF.ProjectId,Power Board,506f7765-7220-4426-9f61-72642e6b6963,rev?*%
%TF.SameCoordinates,Original*%
%TF.FileFunction,Copper,L3,Inr*%
%TF.FilePolarity,Positive*%
%FSLAX46Y46*%
G04 Gerber Fmt 4.6, Leading zero omitted, Abs format (unit mm)*
G04 Created by KiCad (PCBNEW 9.0.4) date 2026-03-12 13:54:12*
%MOMM*%
%LPD*%
G01*
G04 APERTURE LIST*
G04 Aperture macros list*
%AMRoundRect*
0 Rectangle with rounded corners*
0 $1 Rounding radius*
0 $2 $3 $4 $5 $6 $7 $8 $9 X,Y pos of 4 corners*
0 Add a 4 corners polygon primitive as box body*
4,1,4,$2,$3,$4,$5,$6,$7,$8,$9,$2,$3,0*
0 Add four circle primitives for the rounded corners*
1,1,$1+$1,$2,$3*
1,1,$1+$1,$4,$5*
1,1,$1+$1,$6,$7*
1,1,$1+$1,$8,$9*
0 Add four rect primitives between the rounded corners*
20,1,$1+$1,$2,$3,$4,$5,0*
20,1,$1+$1,$4,$5,$6,$7,0*
20,1,$1+$1,$6,$7,$8,$9,0*
20,1,$1+$1,$8,$9,$2,$3,0*%
G04 Aperture macros list end*
%TA.AperFunction,ComponentPad*%
%ADD10C,2.780000*%
%TD*%
%TA.AperFunction,ComponentPad*%
%ADD11RoundRect,0.250002X1.599998X1.599998X-1.599998X1.599998X-1.599998X-1.599998X1.599998X-1.599998X0*%
%TD*%
%TA.AperFunction,ComponentPad*%
%ADD12C,3.700000*%
%TD*%
%TA.AperFunction,ComponentPad*%
%ADD13C,2.500000*%
%TD*%
%TA.AperFunction,ComponentPad*%
%ADD14RoundRect,0.250001X-0.759999X0.499999X-0.759999X-0.499999X0.759999X-0.499999X0.759999X0.499999X0*%
%TD*%
%TA.AperFunction,ComponentPad*%
%ADD15O,2.020000X1.500000*%
%TD*%
%TA.AperFunction,ComponentPad*%
%ADD16RoundRect,0.250002X1.599998X-1.599998X1.599998X1.599998X-1.599998X1.599998X-1.599998X-1.599998X0*%
%TD*%
%TA.AperFunction,ComponentPad*%
%ADD17RoundRect,0.250001X1.099999X1.399999X-1.099999X1.399999X-1.099999X-1.399999X1.099999X-1.399999X0*%
%TD*%
%TA.AperFunction,ComponentPad*%
%ADD18O,2.700000X3.300000*%
%TD*%
%TA.AperFunction,ComponentPad*%
%ADD19R,2.500000X2.500000*%
%TD*%
%TA.AperFunction,ComponentPad*%
%ADD20C,4.000000*%
%TD*%
%TA.AperFunction,ComponentPad*%
%ADD21R,1.700000X1.700000*%
%TD*%
%TA.AperFunction,ComponentPad*%
%ADD22C,1.700000*%
%TD*%
G04 APERTURE END LIST*
D10*
%TO.N,Net-(F1-Pad1)*%
%TO.C,F1*%
X64483600Y-119127800D03*
X64483600Y-122527800D03*
%TO.N,+12V*%
X74403600Y-119127800D03*
X74403600Y-122527800D03*
%TD*%
D11*
%TO.N,/AC_Neutral*%
%TO.C,J4*%
X151815800Y-47381400D03*
D12*
%TO.N,/AC_Line*%
X151815800Y-41681400D03*
%TD*%
D13*
%TO.N,Net-(U1-Frame_GND)*%
%TO.C,U1*%
X100385800Y-30835600D03*
%TO.N,/AC_Neutral*%
X120385800Y-30835600D03*
%TO.N,/AC_Line*%
X140385800Y-30835600D03*
%TO.N,-24V*%
X108885800Y-99435600D03*
%TO.N,GND*%
X120385800Y-99435600D03*
%TO.N,+24V*%
X131885800Y-99435600D03*
%TD*%
D14*
%TO.N,/Earth_GND*%
%TO.C,J5*%
X153314400Y-64411600D03*
D15*
X153314400Y-67411600D03*
%TD*%
D16*
%TO.N,Net-(PS1-+Vout)*%
%TO.C,J1*%
X43163000Y-120853200D03*
D12*
%TO.N,Net-(F1-Pad1)*%
X48863000Y-120853200D03*
%TD*%
D17*
%TO.N,GND*%
%TO.C,J3*%
X116814600Y-117818800D03*
D18*
%TO.N,+12V*%
X116814600Y-112318800D03*
%TD*%
D11*
%TO.N,GND*%
%TO.C,J6*%
X144003000Y-119126000D03*
D12*
X138303000Y-119126000D03*
%TO.N,-24V*%
X144003000Y-113426000D03*
%TO.N,+24V*%
X138303000Y-113426000D03*
%TD*%
D17*
%TO.N,GND*%
%TO.C,J9*%
X99771200Y-117818800D03*
D18*
%TO.N,+12V*%
X99771200Y-112318800D03*
%TD*%
D19*
%TO.N,/AC_Line*%
%TO.C,PS1*%
X84404200Y-31800800D03*
D13*
%TO.N,/AC_Neutral*%
X77654200Y-31800800D03*
D20*
%TO.N,Net-(PS1-+Vout)*%
X43154200Y-107800800D03*
%TO.N,GND*%
X48654200Y-107800800D03*
%TD*%
D17*
%TO.N,GND*%
%TO.C,J2*%
X125481200Y-117732000D03*
D18*
%TO.N,+12V*%
X125481200Y-112232000D03*
%TD*%
D17*
%TO.N,GND*%
%TO.C,J7*%
X108127800Y-117818800D03*
D18*
%TO.N,+12V*%
X108127800Y-112318800D03*
%TD*%
D21*
%TO.N,/Earth_GND*%
%TO.C,J8*%
X153263600Y-57658000D03*
D22*
%TO.N,Net-(U1-Frame_GND)*%
X150723600Y-57658000D03*
%TD*%
%TA.AperFunction,Conductor*%
%TO.N,/AC_Line*%
G36*
X152402562Y-25425605D02*
G01*
X152812288Y-25442552D01*
X152822461Y-25443395D01*
X153226869Y-25493804D01*
X153236949Y-25495486D01*
X153635801Y-25579116D01*
X153645709Y-25581625D01*
X154036294Y-25697908D01*
X154045962Y-25701227D01*
X154425596Y-25849361D01*
X154434981Y-25853478D01*
X154801057Y-26032442D01*
X154810071Y-26037319D01*
X155160152Y-26245922D01*
X155168731Y-26251528D01*
X155500361Y-26488306D01*
X155508443Y-26494597D01*
X155819412Y-26757974D01*
X155826952Y-26764915D01*
X156115084Y-27053047D01*
X156122025Y-27060587D01*
X156385402Y-27371556D01*
X156391697Y-27379644D01*
X156628471Y-27711268D01*
X156634077Y-27719847D01*
X156842680Y-28069928D01*
X156847557Y-28078942D01*
X157026521Y-28445018D01*
X157030638Y-28454403D01*
X157178767Y-28834025D01*
X157182095Y-28843718D01*
X157298370Y-29234277D01*
X157300886Y-29244212D01*
X157384510Y-29643036D01*
X157386197Y-29653145D01*
X157436602Y-30057517D01*
X157437448Y-30067731D01*
X157454394Y-30477437D01*
X157454500Y-30482561D01*
X157454500Y-53419200D01*
X157434815Y-53486239D01*
X157382011Y-53531994D01*
X157330500Y-53543200D01*
X74139291Y-53543200D01*
X74072252Y-53523515D01*
X74026497Y-53470711D01*
X74015291Y-53419510D01*
X74006995Y-50098273D01*
X73995997Y-45695380D01*
X147965300Y-45695380D01*
X147965300Y-49067418D01*
X147975676Y-49244632D01*
X148030750Y-49540869D01*
X148030752Y-49540875D01*
X148124815Y-49827108D01*
X148124817Y-49827114D01*
X148256196Y-50098269D01*
X148256198Y-50098273D01*
X148422543Y-50349492D01*
X148620894Y-50576305D01*
X148847707Y-50774656D01*
X149098926Y-50941001D01*
X149098931Y-50941004D01*
X149370086Y-51072383D01*
X149656333Y-51166450D01*
X149952563Y-51221523D01*
X150129781Y-51231900D01*
X153501818Y-51231899D01*
X153679037Y-51221523D01*
X153975267Y-51166450D01*
X154261514Y-51072383D01*
X154532669Y-50941004D01*
X154783894Y-50774655D01*
X155010705Y-50576305D01*
X155209055Y-50349494D01*
X155375404Y-50098269D01*
X155506783Y-49827114D01*
X155600850Y-49540867D01*
X155655923Y-49244637D01*
X155666300Y-49067419D01*
X155666299Y-45695382D01*
X155655923Y-45518163D01*
X155600850Y-45221933D01*
X155506783Y-44935686D01*
X155375404Y-44664531D01*
X155209055Y-44413306D01*
X155010705Y-44186494D01*
X154783892Y-43988143D01*
X154532673Y-43821798D01*
X154532669Y-43821796D01*
X154261514Y-43690417D01*
X154261508Y-43690415D01*
X153975275Y-43596352D01*
X153975269Y-43596350D01*
X153679032Y-43541276D01*
X153501819Y-43530900D01*
X150129781Y-43530900D01*
X149952567Y-43541276D01*
X149656330Y-43596350D01*
X149656324Y-43596352D01*
X149370091Y-43690415D01*
X149370088Y-43690416D01*
X149370086Y-43690417D01*
X149234508Y-43756106D01*
X149098926Y-43821798D01*
X148847707Y-43988143D01*
X148620894Y-44186494D01*
X148422543Y-44413307D01*
X148256198Y-44664526D01*
X148124815Y-44935691D01*
X148030752Y-45221924D01*
X148030750Y-45221930D01*
X147975676Y-45518167D01*
X147965300Y-45695380D01*
X73995997Y-45695380D01*
X73981925Y-40061900D01*
X73978825Y-38820848D01*
X147185300Y-38820848D01*
X147185300Y-39001951D01*
X147213629Y-39180810D01*
X147269587Y-39353036D01*
X147269588Y-39353039D01*
X147351806Y-39514397D01*
X147458241Y-39660894D01*
X147458245Y-39660899D01*
X147586300Y-39788954D01*
X147586305Y-39788958D01*
X147714087Y-39881796D01*
X147732806Y-39895396D01*
X147838284Y-39949140D01*
X147894160Y-39977611D01*
X147894163Y-39977612D01*
X147980276Y-40005591D01*
X148066391Y-40033571D01*
X148149229Y-40046691D01*
X148245249Y-40061900D01*
X148245254Y-40061900D01*
X148426351Y-40061900D01*
X148513059Y-40048165D01*
X148605209Y-40033571D01*
X148777439Y-39977611D01*
X148938794Y-39895396D01*
X149085301Y-39788953D01*
X149213353Y-39660901D01*
X149319796Y-39514394D01*
X149402011Y-39353039D01*
X149457971Y-39180809D01*
X149472565Y-39088659D01*
X149486300Y-39001951D01*
X149486300Y-38820848D01*
X149469819Y-38716797D01*
X149457971Y-38641991D01*
X149402011Y-38469761D01*
X149402011Y-38469760D01*
X149373540Y-38413884D01*
X149319796Y-38308406D01*
X149306196Y-38289687D01*
X149213358Y-38161905D01*
X149213354Y-38161900D01*
X149085299Y-38033845D01*
X149085294Y-38033841D01*
X148938797Y-37927406D01*
X148938796Y-37927405D01*
X148938794Y-37927404D01*
X148887100Y-37901064D01*
X148777439Y-37845188D01*
X148777436Y-37845187D01*
X148605210Y-37789229D01*
X148426351Y-37760900D01*
X148426346Y-37760900D01*
X148245254Y-37760900D01*
X148245249Y-37760900D01*
X148066389Y-37789229D01*
X147894163Y-37845187D01*
X147894160Y-37845188D01*
X147732802Y-37927406D01*
X147586305Y-38033841D01*
X147586300Y-38033845D01*
X147458245Y-38161900D01*
X147458241Y-38161905D01*
X147351806Y-38308402D01*
X147269588Y-38469760D01*
X147269587Y-38469763D01*
X147213629Y-38641989D01*
X147185300Y-38820848D01*
X73978825Y-38820848D01*
X73978814Y-38816292D01*
X73960891Y-31641113D01*
X74403700Y-31641113D01*
X74403700Y-31960487D01*
X74409687Y-32021271D01*
X74435003Y-32278322D01*
X74497309Y-32591554D01*
X74590020Y-32897182D01*
X74712240Y-33192246D01*
X74712242Y-33192251D01*
X74862784Y-33473894D01*
X74862801Y-33473922D01*
X75040212Y-33739438D01*
X75040229Y-33739461D01*
X75242838Y-33986340D01*
X75468659Y-34212161D01*
X75468664Y-34212165D01*
X75468665Y-34212166D01*
X75715544Y-34414775D01*
X75715551Y-34414780D01*
X75715561Y-34414787D01*
X75981077Y-34592198D01*
X75981082Y-34592201D01*
X75981094Y-34592209D01*
X75981103Y-34592213D01*
X75981105Y-34592215D01*
X76262748Y-34742757D01*
X76262750Y-34742757D01*
X76262756Y-34742761D01*
X76557819Y-34864980D01*
X76863440Y-34957689D01*
X77176677Y-35019996D01*
X77494513Y-35051300D01*
X77494516Y-35051300D01*
X77813884Y-35051300D01*
X77813887Y-35051300D01*
X78131723Y-35019996D01*
X78444960Y-34957689D01*
X78750581Y-34864980D01*
X79045644Y-34742761D01*
X79327306Y-34592209D01*
X79592856Y-34414775D01*
X79839735Y-34212166D01*
X80065566Y-33986335D01*
X80268175Y-33739456D01*
X80445609Y-33473906D01*
X80596161Y-33192244D01*
X80718380Y-32897181D01*
X80811089Y-32591560D01*
X80873396Y-32278323D01*
X80904700Y-31960487D01*
X80904700Y-31641113D01*
X80873396Y-31323277D01*
X80811089Y-31010040D01*
X80718380Y-30704419D01*
X80706572Y-30675913D01*
X97135300Y-30675913D01*
X97135300Y-30995287D01*
X97136753Y-31010040D01*
X97166603Y-31313122D01*
X97228909Y-31626354D01*
X97321620Y-31931982D01*
X97443840Y-32227046D01*
X97443842Y-32227051D01*
X97594384Y-32508694D01*
X97594401Y-32508722D01*
X97771812Y-32774238D01*
X97771829Y-32774261D01*
X97974438Y-33021140D01*
X98200259Y-33246961D01*
X98200264Y-33246965D01*
X98200265Y-33246966D01*
X98447144Y-33449575D01*
X98447151Y-33449580D01*
X98447161Y-33449587D01*
X98712677Y-33626998D01*
X98712682Y-33627001D01*
X98712694Y-33627009D01*
X98712703Y-33627013D01*
X98712705Y-33627015D01*
X98994348Y-33777557D01*
X98994350Y-33777557D01*
X98994356Y-33777561D01*
X99289419Y-33899780D01*
X99595040Y-33992489D01*
X99908277Y-34054796D01*
X100226113Y-34086100D01*
X100226116Y-34086100D01*
X100545484Y-34086100D01*
X100545487Y-34086100D01*
X100863323Y-34054796D01*
X101176560Y-33992489D01*
X101482181Y-33899780D01*
X101777244Y-33777561D01*
X102058906Y-33627009D01*
X102324456Y-33449575D01*
X102571335Y-33246966D01*
X102797166Y-33021135D01*
X102999775Y-32774256D01*
X103177209Y-32508706D01*
X103327761Y-32227044D01*
X103449980Y-31931981D01*
X103542689Y-31626360D01*
X103604996Y-31313123D01*
X103636300Y-30995287D01*
X103636300Y-30675913D01*
X117135300Y-30675913D01*
X117135300Y-30995287D01*
X117136753Y-31010040D01*
X117166603Y-31313122D01*
X117228909Y-31626354D01*
X117321620Y-31931982D01*
X117443840Y-32227046D01*
X117443842Y-32227051D01*
X117594384Y-32508694D01*
X117594401Y-32508722D01*
X117771812Y-32774238D01*
X117771829Y-32774261D01*
X117974438Y-33021140D01*
X118200259Y-33246961D01*
X118200264Y-33246965D01*
X118200265Y-33246966D01*
X118447144Y-33449575D01*
X118447151Y-33449580D01*
X118447161Y-33449587D01*
X118712677Y-33626998D01*
X118712682Y-33627001D01*
X118712694Y-33627009D01*
X118712703Y-33627013D01*
X118712705Y-33627015D01*
X118994348Y-33777557D01*
X118994350Y-33777557D01*
X118994356Y-33777561D01*
X119289419Y-33899780D01*
X119595040Y-33992489D01*
X119908277Y-34054796D01*
X120226113Y-34086100D01*
X120226116Y-34086100D01*
X120545484Y-34086100D01*
X120545487Y-34086100D01*
X120863323Y-34054796D01*
X121176560Y-33992489D01*
X121482181Y-33899780D01*
X121777244Y-33777561D01*
X122058906Y-33627009D01*
X122324456Y-33449575D01*
X122571335Y-33246966D01*
X122797166Y-33021135D01*
X122999775Y-32774256D01*
X123177209Y-32508706D01*
X123327761Y-32227044D01*
X123449980Y-31931981D01*
X123542689Y-31626360D01*
X123604996Y-31313123D01*
X123636300Y-30995287D01*
X123636300Y-30675913D01*
X123604996Y-30358077D01*
X123594065Y-30303122D01*
X148799500Y-30303122D01*
X148799500Y-30656877D01*
X148834173Y-31008929D01*
X148834176Y-31008946D01*
X148903185Y-31355884D01*
X148903188Y-31355895D01*
X149005882Y-31694436D01*
X149141262Y-32021271D01*
X149141264Y-32021276D01*
X149308017Y-32333247D01*
X149308028Y-32333265D01*
X149504558Y-32627393D01*
X149504568Y-32627407D01*
X149728992Y-32900869D01*
X149979130Y-33151007D01*
X149979135Y-33151011D01*
X149979136Y-33151012D01*
X150252598Y-33375436D01*
X150546741Y-33571976D01*
X150546750Y-33571981D01*
X150546752Y-33571982D01*
X150858723Y-33738735D01*
X150858725Y-33738735D01*
X150858731Y-33738739D01*
X151185565Y-33874118D01*
X151524095Y-33976809D01*
X151524101Y-33976810D01*
X151524104Y-33976811D01*
X151524115Y-33976814D01*
X151741674Y-34020088D01*
X151871060Y-34045825D01*
X152223119Y-34080500D01*
X152223122Y-34080500D01*
X152576878Y-34080500D01*
X152576881Y-34080500D01*
X152928940Y-34045825D01*
X153100679Y-34011663D01*
X153275884Y-33976814D01*
X153275895Y-33976811D01*
X153275895Y-33976810D01*
X153275905Y-33976809D01*
X153614435Y-33874118D01*
X153941269Y-33738739D01*
X154253259Y-33571976D01*
X154547402Y-33375436D01*
X154820864Y-33151012D01*
X155071012Y-32900864D01*
X155295436Y-32627402D01*
X155491976Y-32333259D01*
X155658739Y-32021269D01*
X155794118Y-31694435D01*
X155896809Y-31355905D01*
X155896811Y-31355895D01*
X155896814Y-31355884D01*
X155931663Y-31180679D01*
X155965825Y-31008940D01*
X156000500Y-30656881D01*
X156000500Y-30303119D01*
X155965825Y-29951060D01*
X155905554Y-29648057D01*
X155896814Y-29604115D01*
X155896811Y-29604104D01*
X155896810Y-29604101D01*
X155896809Y-29604095D01*
X155794118Y-29265565D01*
X155658739Y-28938731D01*
X155636412Y-28896961D01*
X155491982Y-28626752D01*
X155491981Y-28626750D01*
X155491976Y-28626741D01*
X155295436Y-28332598D01*
X155071012Y-28059136D01*
X155071011Y-28059135D01*
X155071007Y-28059130D01*
X154820869Y-27808992D01*
X154547407Y-27584568D01*
X154547406Y-27584567D01*
X154547402Y-27584564D01*
X154253259Y-27388024D01*
X154253254Y-27388021D01*
X154253247Y-27388017D01*
X153941276Y-27221264D01*
X153941271Y-27221262D01*
X153614436Y-27085882D01*
X153275895Y-26983188D01*
X153275884Y-26983185D01*
X152928946Y-26914176D01*
X152928929Y-26914173D01*
X152662700Y-26887952D01*
X152576881Y-26879500D01*
X152223119Y-26879500D01*
X152143748Y-26887317D01*
X151871070Y-26914173D01*
X151871053Y-26914176D01*
X151524115Y-26983185D01*
X151524104Y-26983188D01*
X151185563Y-27085882D01*
X150858728Y-27221262D01*
X150858723Y-27221264D01*
X150546752Y-27388017D01*
X150546734Y-27388028D01*
X150252606Y-27584558D01*
X150252592Y-27584568D01*
X149979130Y-27808992D01*
X149728992Y-28059130D01*
X149504568Y-28332592D01*
X149504558Y-28332606D01*
X149308028Y-28626734D01*
X149308017Y-28626752D01*
X149141264Y-28938723D01*
X149141262Y-28938728D01*
X149005882Y-29265563D01*
X148903188Y-29604104D01*
X148903185Y-29604115D01*
X148834176Y-29951053D01*
X148834173Y-29951070D01*
X148799500Y-30303122D01*
X123594065Y-30303122D01*
X123594064Y-30303119D01*
X123559172Y-30127705D01*
X123542689Y-30044840D01*
X123449980Y-29739219D01*
X123327761Y-29444156D01*
X123320930Y-29431377D01*
X123177215Y-29162505D01*
X123177213Y-29162503D01*
X123177209Y-29162494D01*
X123177198Y-29162477D01*
X122999787Y-28896961D01*
X122999780Y-28896951D01*
X122999775Y-28896944D01*
X122797166Y-28650065D01*
X122797165Y-28650064D01*
X122797161Y-28650059D01*
X122571340Y-28424238D01*
X122324461Y-28221629D01*
X122324438Y-28221612D01*
X122058922Y-28044201D01*
X122058894Y-28044184D01*
X121777251Y-27893642D01*
X121777246Y-27893640D01*
X121482182Y-27771420D01*
X121176554Y-27678709D01*
X120863321Y-27616403D01*
X120863322Y-27616403D01*
X120623941Y-27592827D01*
X120545487Y-27585100D01*
X120226113Y-27585100D01*
X120153622Y-27592239D01*
X119908277Y-27616403D01*
X119595045Y-27678709D01*
X119289417Y-27771420D01*
X118994353Y-27893640D01*
X118994348Y-27893642D01*
X118712705Y-28044184D01*
X118712677Y-28044201D01*
X118447161Y-28221612D01*
X118447138Y-28221629D01*
X118200259Y-28424238D01*
X117974438Y-28650059D01*
X117771829Y-28896938D01*
X117771812Y-28896961D01*
X117594401Y-29162477D01*
X117594384Y-29162505D01*
X117443842Y-29444148D01*
X117443840Y-29444153D01*
X117321620Y-29739217D01*
X117228909Y-30044845D01*
X117166603Y-30358077D01*
X117154343Y-30482561D01*
X117135300Y-30675913D01*
X103636300Y-30675913D01*
X103604996Y-30358077D01*
X103542689Y-30044840D01*
X103449980Y-29739219D01*
X103327761Y-29444156D01*
X103320930Y-29431377D01*
X103177215Y-29162505D01*
X103177213Y-29162503D01*
X103177209Y-29162494D01*
X103177198Y-29162477D01*
X102999787Y-28896961D01*
X102999780Y-28896951D01*
X102999775Y-28896944D01*
X102797166Y-28650065D01*
X102797165Y-28650064D01*
X102797161Y-28650059D01*
X102571340Y-28424238D01*
X102324461Y-28221629D01*
X102324438Y-28221612D01*
X102058922Y-28044201D01*
X102058894Y-28044184D01*
X101777251Y-27893642D01*
X101777246Y-27893640D01*
X101482182Y-27771420D01*
X101176554Y-27678709D01*
X100863321Y-27616403D01*
X100863322Y-27616403D01*
X100623941Y-27592827D01*
X100545487Y-27585100D01*
X100226113Y-27585100D01*
X100153622Y-27592239D01*
X99908277Y-27616403D01*
X99595045Y-27678709D01*
X99289417Y-27771420D01*
X98994353Y-27893640D01*
X98994348Y-27893642D01*
X98712705Y-28044184D01*
X98712677Y-28044201D01*
X98447161Y-28221612D01*
X98447138Y-28221629D01*
X98200259Y-28424238D01*
X97974438Y-28650059D01*
X97771829Y-28896938D01*
X97771812Y-28896961D01*
X97594401Y-29162477D01*
X97594384Y-29162505D01*
X97443842Y-29444148D01*
X97443840Y-29444153D01*
X97321620Y-29739217D01*
X97228909Y-30044845D01*
X97166603Y-30358077D01*
X97154343Y-30482561D01*
X97135300Y-30675913D01*
X80706572Y-30675913D01*
X80596161Y-30409356D01*
X80550679Y-30324266D01*
X80445615Y-30127705D01*
X80445613Y-30127703D01*
X80445609Y-30127694D01*
X80445598Y-30127677D01*
X80268187Y-29862161D01*
X80268180Y-29862151D01*
X80268175Y-29862144D01*
X80065566Y-29615265D01*
X80065565Y-29615264D01*
X80065561Y-29615259D01*
X79839740Y-29389438D01*
X79592861Y-29186829D01*
X79592838Y-29186812D01*
X79327322Y-29009401D01*
X79327294Y-29009384D01*
X79045651Y-28858842D01*
X79045646Y-28858840D01*
X79009138Y-28843718D01*
X78959223Y-28823042D01*
X78750582Y-28736620D01*
X78444954Y-28643909D01*
X78131721Y-28581603D01*
X78131722Y-28581603D01*
X77892341Y-28558027D01*
X77813887Y-28550300D01*
X77494513Y-28550300D01*
X77422022Y-28557439D01*
X77176677Y-28581603D01*
X76863445Y-28643909D01*
X76557817Y-28736620D01*
X76262753Y-28858840D01*
X76262748Y-28858842D01*
X75981105Y-29009384D01*
X75981077Y-29009401D01*
X75715561Y-29186812D01*
X75715538Y-29186829D01*
X75468659Y-29389438D01*
X75242838Y-29615259D01*
X75040229Y-29862138D01*
X75040212Y-29862161D01*
X74862801Y-30127677D01*
X74862784Y-30127705D01*
X74712242Y-30409348D01*
X74712240Y-30409353D01*
X74590020Y-30704417D01*
X74497309Y-31010045D01*
X74435003Y-31323277D01*
X74431791Y-31355895D01*
X74403700Y-31641113D01*
X73960891Y-31641113D01*
X73960884Y-31638379D01*
X73945676Y-25549810D01*
X73965193Y-25482721D01*
X74017883Y-25436835D01*
X74069676Y-25425500D01*
X152391715Y-25425500D01*
X152397439Y-25425500D01*
X152402562Y-25425605D01*
G37*
%TD.AperFunction*%
%TD*%
%TA.AperFunction,Conductor*%
%TO.N,Net-(F1-Pad1)*%
G36*
X50898197Y-116207785D02*
G01*
X50965216Y-116227536D01*
X51010918Y-116280385D01*
X51020793Y-116349553D01*
X50991706Y-116413080D01*
X50970959Y-116432103D01*
X50883500Y-116495645D01*
X50755445Y-116623700D01*
X50755441Y-116623705D01*
X50649006Y-116770202D01*
X50566788Y-116931560D01*
X50566787Y-116931563D01*
X50510829Y-117103789D01*
X50482500Y-117282648D01*
X50482500Y-117463751D01*
X50510829Y-117642610D01*
X50566787Y-117814836D01*
X50566788Y-117814839D01*
X50649006Y-117976197D01*
X50755441Y-118122694D01*
X50755445Y-118122699D01*
X50883500Y-118250754D01*
X50883505Y-118250758D01*
X51011287Y-118343596D01*
X51030006Y-118357196D01*
X51135484Y-118410940D01*
X51191360Y-118439411D01*
X51191363Y-118439412D01*
X51277476Y-118467391D01*
X51363591Y-118495371D01*
X51446429Y-118508491D01*
X51542449Y-118523700D01*
X51542454Y-118523700D01*
X51723551Y-118523700D01*
X51810259Y-118509965D01*
X51902409Y-118495371D01*
X52074639Y-118439411D01*
X52235994Y-118357196D01*
X52382501Y-118250753D01*
X52510553Y-118122701D01*
X52616996Y-117976194D01*
X52699211Y-117814839D01*
X52755171Y-117642609D01*
X52769765Y-117550459D01*
X52783500Y-117463751D01*
X52783500Y-117282648D01*
X52767019Y-117178597D01*
X52755171Y-117103791D01*
X52699211Y-116931561D01*
X52699211Y-116931560D01*
X52670740Y-116875684D01*
X52616996Y-116770206D01*
X52603396Y-116751487D01*
X52510558Y-116623705D01*
X52510554Y-116623700D01*
X52382499Y-116495645D01*
X52382494Y-116495641D01*
X52297045Y-116433559D01*
X52254379Y-116378230D01*
X52248400Y-116308616D01*
X52281005Y-116246821D01*
X52341844Y-116212464D01*
X52370051Y-116209241D01*
X66907306Y-116223620D01*
X66974325Y-116243371D01*
X67020027Y-116296220D01*
X67031182Y-116347620D01*
X67031182Y-125741359D01*
X67011497Y-125808398D01*
X66958693Y-125854153D01*
X66907427Y-125865359D01*
X46454427Y-125905821D01*
X46387349Y-125886269D01*
X46341490Y-125833556D01*
X46330182Y-125781821D01*
X46330182Y-116327389D01*
X46349867Y-116260350D01*
X46402671Y-116214595D01*
X46454301Y-116203389D01*
X50898197Y-116207785D01*
G37*
%TD.AperFunction*%
%TD*%
%TA.AperFunction,Conductor*%
%TO.N,+24V*%
G36*
X151123186Y-95726885D02*
G01*
X151168941Y-95779689D01*
X151180147Y-95831016D01*
X151213727Y-118431178D01*
X151194142Y-118498246D01*
X151141406Y-118544080D01*
X151137180Y-118545923D01*
X150858728Y-118661262D01*
X150858723Y-118661264D01*
X150546752Y-118828017D01*
X150546734Y-118828028D01*
X150252606Y-119024558D01*
X150252592Y-119024568D01*
X149979130Y-119248992D01*
X149728992Y-119499130D01*
X149504568Y-119772592D01*
X149504558Y-119772606D01*
X149308028Y-120066734D01*
X149308017Y-120066752D01*
X149141264Y-120378723D01*
X149141262Y-120378728D01*
X149005882Y-120705563D01*
X148903188Y-121044104D01*
X148903185Y-121044115D01*
X148834176Y-121391053D01*
X148834173Y-121391070D01*
X148799500Y-121743122D01*
X148799500Y-122096877D01*
X148834173Y-122448929D01*
X148834176Y-122448946D01*
X148903185Y-122795884D01*
X148903188Y-122795895D01*
X149005882Y-123134436D01*
X149141262Y-123461271D01*
X149141264Y-123461276D01*
X149308017Y-123773247D01*
X149308028Y-123773265D01*
X149504558Y-124067393D01*
X149504568Y-124067407D01*
X149728992Y-124340869D01*
X149979130Y-124591007D01*
X149979135Y-124591011D01*
X149979136Y-124591012D01*
X150252598Y-124815436D01*
X150546741Y-125011976D01*
X150546750Y-125011981D01*
X150546752Y-125011982D01*
X150858723Y-125178735D01*
X150858725Y-125178735D01*
X150858731Y-125178739D01*
X151147554Y-125298373D01*
X151201957Y-125342214D01*
X151224022Y-125408508D01*
X151224101Y-125412750D01*
X151226237Y-126850316D01*
X151206652Y-126917384D01*
X151153916Y-126963218D01*
X151102237Y-126974500D01*
X132381800Y-126974500D01*
X132314761Y-126954815D01*
X132269006Y-126902011D01*
X132257800Y-126850500D01*
X132257800Y-118965914D01*
X135452500Y-118965914D01*
X135452500Y-119286085D01*
X135488345Y-119604216D01*
X135488347Y-119604228D01*
X135559589Y-119916362D01*
X135559590Y-119916364D01*
X135665332Y-120218559D01*
X135804243Y-120507010D01*
X135804245Y-120507013D01*
X135974581Y-120778101D01*
X136174198Y-121028413D01*
X136400587Y-121254802D01*
X136650899Y-121454419D01*
X136921987Y-121624755D01*
X137210442Y-121763668D01*
X137512637Y-121869410D01*
X137824771Y-121940653D01*
X138142915Y-121976499D01*
X138142916Y-121976500D01*
X138142919Y-121976500D01*
X138463084Y-121976500D01*
X138463084Y-121976499D01*
X138781229Y-121940653D01*
X139093363Y-121869410D01*
X139395558Y-121763668D01*
X139684013Y-121624755D01*
X139955101Y-121454419D01*
X140205413Y-121254802D01*
X140431802Y-121028413D01*
X140631419Y-120778101D01*
X140801755Y-120507013D01*
X140916780Y-120268162D01*
X140963602Y-120216303D01*
X141031029Y-120197990D01*
X141097653Y-120219038D01*
X141142322Y-120272764D01*
X141152500Y-120321964D01*
X141152500Y-120790233D01*
X141162903Y-120922411D01*
X141162904Y-120922418D01*
X141217901Y-121140677D01*
X141217902Y-121140680D01*
X141310990Y-121345623D01*
X141310996Y-121345632D01*
X141439173Y-121530645D01*
X141439177Y-121530650D01*
X141439180Y-121530654D01*
X141598346Y-121689820D01*
X141598350Y-121689823D01*
X141598354Y-121689826D01*
X141704939Y-121763668D01*
X141783374Y-121818008D01*
X141988318Y-121911097D01*
X141988322Y-121911098D01*
X142206581Y-121966095D01*
X142206583Y-121966095D01*
X142206590Y-121966097D01*
X142338772Y-121976500D01*
X142338780Y-121976500D01*
X145667220Y-121976500D01*
X145667228Y-121976500D01*
X145799410Y-121966097D01*
X146017682Y-121911097D01*
X146222626Y-121818008D01*
X146407654Y-121689820D01*
X146566820Y-121530654D01*
X146695008Y-121345626D01*
X146788097Y-121140682D01*
X146843097Y-120922410D01*
X146853500Y-120790228D01*
X146853500Y-117461772D01*
X146843097Y-117329590D01*
X146816386Y-117223587D01*
X146788098Y-117111322D01*
X146788097Y-117111319D01*
X146695009Y-116906376D01*
X146695003Y-116906367D01*
X146566826Y-116721354D01*
X146566823Y-116721350D01*
X146566820Y-116721346D01*
X146407654Y-116562180D01*
X146407650Y-116562177D01*
X146407645Y-116562173D01*
X146222632Y-116433996D01*
X146222623Y-116433990D01*
X146017680Y-116340902D01*
X146017677Y-116340901D01*
X145799418Y-116285904D01*
X145799411Y-116285903D01*
X145667233Y-116275500D01*
X145667228Y-116275500D01*
X145198964Y-116275500D01*
X145131925Y-116255815D01*
X145086170Y-116203011D01*
X145076226Y-116133853D01*
X145105251Y-116070297D01*
X145145162Y-116039780D01*
X145187213Y-116019528D01*
X145384013Y-115924755D01*
X145655101Y-115754419D01*
X145905413Y-115554802D01*
X146131802Y-115328413D01*
X146331419Y-115078101D01*
X146501755Y-114807013D01*
X146640668Y-114518558D01*
X146746410Y-114216363D01*
X146817653Y-113904229D01*
X146853500Y-113586081D01*
X146853500Y-113265919D01*
X146821990Y-112986267D01*
X146821989Y-112986259D01*
X147422500Y-112986259D01*
X147422500Y-113215742D01*
X147447446Y-113405216D01*
X147452452Y-113443239D01*
X147452453Y-113443241D01*
X147511842Y-113664888D01*
X147599650Y-113876877D01*
X147599656Y-113876889D01*
X147714388Y-114075612D01*
X147714392Y-114075618D01*
X147854081Y-114257662D01*
X147854089Y-114257671D01*
X148016330Y-114419912D01*
X148016338Y-114419919D01*
X148198382Y-114559608D01*
X148198385Y-114559609D01*
X148198388Y-114559612D01*
X148397112Y-114674345D01*
X148397117Y-114674347D01*
X148397123Y-114674350D01*
X148449507Y-114696048D01*
X148609113Y-114762159D01*
X148830762Y-114821549D01*
X149047312Y-114850058D01*
X149058250Y-114851499D01*
X149058266Y-114851501D01*
X149058273Y-114851501D01*
X149287727Y-114851501D01*
X149287734Y-114851501D01*
X149515238Y-114821549D01*
X149736887Y-114762159D01*
X149948888Y-114674345D01*
X150147612Y-114559612D01*
X150329661Y-114419920D01*
X150329665Y-114419915D01*
X150329670Y-114419912D01*
X150491911Y-114257671D01*
X150491914Y-114257666D01*
X150491919Y-114257662D01*
X150631611Y-114075613D01*
X150746344Y-113876889D01*
X150834158Y-113664888D01*
X150893548Y-113443239D01*
X150923500Y-113215735D01*
X150923500Y-112986267D01*
X150893548Y-112758763D01*
X150834158Y-112537114D01*
X150749794Y-112333442D01*
X150746349Y-112325124D01*
X150746346Y-112325118D01*
X150746344Y-112325113D01*
X150631611Y-112126389D01*
X150631608Y-112126386D01*
X150631607Y-112126383D01*
X150491918Y-111944339D01*
X150491911Y-111944331D01*
X150329670Y-111782090D01*
X150329661Y-111782082D01*
X150147617Y-111642393D01*
X149948890Y-111527658D01*
X149948876Y-111527651D01*
X149736887Y-111439843D01*
X149736883Y-111439842D01*
X149515238Y-111380453D01*
X149477215Y-111375447D01*
X149287741Y-111350501D01*
X149287734Y-111350501D01*
X149058266Y-111350501D01*
X149058258Y-111350501D01*
X148841715Y-111379010D01*
X148830762Y-111380453D01*
X148737076Y-111405555D01*
X148609112Y-111439843D01*
X148397123Y-111527651D01*
X148397109Y-111527658D01*
X148198382Y-111642393D01*
X148016338Y-111782082D01*
X147854081Y-111944339D01*
X147714392Y-112126383D01*
X147599657Y-112325110D01*
X147599650Y-112325124D01*
X147511842Y-112537113D01*
X147511842Y-112537114D01*
X147452453Y-112758762D01*
X147452451Y-112758771D01*
X147422500Y-112986259D01*
X146821989Y-112986259D01*
X146817654Y-112947783D01*
X146817653Y-112947771D01*
X146746410Y-112635637D01*
X146640668Y-112333442D01*
X146501755Y-112044987D01*
X146331419Y-111773899D01*
X146131802Y-111523587D01*
X145905413Y-111297198D01*
X145655101Y-111097581D01*
X145384013Y-110927245D01*
X145384010Y-110927243D01*
X145095559Y-110788332D01*
X144793364Y-110682590D01*
X144793362Y-110682589D01*
X144552471Y-110627607D01*
X144481229Y-110611347D01*
X144481225Y-110611346D01*
X144481216Y-110611345D01*
X144163085Y-110575500D01*
X144163081Y-110575500D01*
X143842919Y-110575500D01*
X143842914Y-110575500D01*
X143524783Y-110611345D01*
X143524771Y-110611347D01*
X143212637Y-110682589D01*
X143212635Y-110682590D01*
X142910440Y-110788332D01*
X142621989Y-110927243D01*
X142350900Y-111097580D01*
X142100587Y-111297197D01*
X141874197Y-111523587D01*
X141674580Y-111773900D01*
X141504243Y-112044989D01*
X141365332Y-112333440D01*
X141259590Y-112635635D01*
X141259589Y-112635637D01*
X141188347Y-112947771D01*
X141188345Y-112947783D01*
X141152500Y-113265914D01*
X141152500Y-113586085D01*
X141188345Y-113904216D01*
X141188347Y-113904228D01*
X141259589Y-114216362D01*
X141259590Y-114216364D01*
X141365332Y-114518559D01*
X141504243Y-114807010D01*
X141532197Y-114851499D01*
X141674581Y-115078101D01*
X141874198Y-115328413D01*
X142100587Y-115554802D01*
X142350899Y-115754419D01*
X142621987Y-115924755D01*
X142621989Y-115924756D01*
X142860838Y-116039780D01*
X142912697Y-116086602D01*
X142931010Y-116154029D01*
X142909962Y-116220653D01*
X142856236Y-116265322D01*
X142807036Y-116275500D01*
X142338766Y-116275500D01*
X142206588Y-116285903D01*
X142206581Y-116285904D01*
X141988322Y-116340901D01*
X141988319Y-116340902D01*
X141783376Y-116433990D01*
X141783367Y-116433996D01*
X141598354Y-116562173D01*
X141598342Y-116562183D01*
X141439183Y-116721342D01*
X141439173Y-116721354D01*
X141310996Y-116906367D01*
X141310990Y-116906376D01*
X141217902Y-117111319D01*
X141217901Y-117111322D01*
X141162904Y-117329581D01*
X141162903Y-117329588D01*
X141152500Y-117461766D01*
X141152500Y-117930035D01*
X141132815Y-117997074D01*
X141080011Y-118042829D01*
X141010853Y-118052773D01*
X140947297Y-118023748D01*
X140916780Y-117983837D01*
X140801756Y-117744989D01*
X140801755Y-117744987D01*
X140631419Y-117473899D01*
X140431802Y-117223587D01*
X140205413Y-116997198D01*
X139955101Y-116797581D01*
X139684013Y-116627245D01*
X139684010Y-116627243D01*
X139395559Y-116488332D01*
X139093364Y-116382590D01*
X139093362Y-116382589D01*
X138852471Y-116327607D01*
X138781229Y-116311347D01*
X138781225Y-116311346D01*
X138781216Y-116311345D01*
X138463085Y-116275500D01*
X138463081Y-116275500D01*
X138142919Y-116275500D01*
X138142914Y-116275500D01*
X137824783Y-116311345D01*
X137824771Y-116311347D01*
X137512637Y-116382589D01*
X137512635Y-116382590D01*
X137210440Y-116488332D01*
X136921989Y-116627243D01*
X136650900Y-116797580D01*
X136400587Y-116997197D01*
X136174197Y-117223587D01*
X135974580Y-117473900D01*
X135804243Y-117744989D01*
X135665332Y-118033440D01*
X135559590Y-118335635D01*
X135559589Y-118335637D01*
X135488347Y-118647771D01*
X135488345Y-118647783D01*
X135452500Y-118965914D01*
X132257800Y-118965914D01*
X132257800Y-114818786D01*
X132277485Y-114751747D01*
X132330289Y-114705992D01*
X132399447Y-114696048D01*
X132429246Y-114704223D01*
X132569113Y-114762158D01*
X132790762Y-114821548D01*
X133018266Y-114851500D01*
X133018273Y-114851500D01*
X133247727Y-114851500D01*
X133247734Y-114851500D01*
X133475238Y-114821548D01*
X133696887Y-114762158D01*
X133908888Y-114674344D01*
X134107612Y-114559611D01*
X134289661Y-114419919D01*
X134289665Y-114419914D01*
X134289670Y-114419911D01*
X134451911Y-114257670D01*
X134451914Y-114257665D01*
X134451919Y-114257661D01*
X134591611Y-114075612D01*
X134706344Y-113876888D01*
X134794158Y-113664887D01*
X134853548Y-113443238D01*
X134883500Y-113215734D01*
X134883500Y-112986266D01*
X134853548Y-112758762D01*
X134794158Y-112537113D01*
X134744190Y-112416480D01*
X134706349Y-112325123D01*
X134706344Y-112325113D01*
X134706344Y-112325112D01*
X134591611Y-112126388D01*
X134591608Y-112126385D01*
X134591607Y-112126382D01*
X134451918Y-111944338D01*
X134451911Y-111944330D01*
X134289670Y-111782089D01*
X134289661Y-111782081D01*
X134107617Y-111642392D01*
X133908890Y-111527657D01*
X133908876Y-111527650D01*
X133696887Y-111439842D01*
X133475238Y-111380452D01*
X133437215Y-111375446D01*
X133247741Y-111350500D01*
X133247734Y-111350500D01*
X133018266Y-111350500D01*
X133018258Y-111350500D01*
X132801715Y-111379009D01*
X132790762Y-111380452D01*
X132790755Y-111380454D01*
X132569112Y-111439842D01*
X132429252Y-111497774D01*
X132359783Y-111505243D01*
X132297304Y-111473968D01*
X132261652Y-111413879D01*
X132257800Y-111383213D01*
X132257800Y-106324400D01*
X129308400Y-106324400D01*
X129241361Y-106304715D01*
X129195606Y-106251911D01*
X129184400Y-106200400D01*
X129184400Y-95831200D01*
X129204085Y-95764161D01*
X129256889Y-95718406D01*
X129308400Y-95707200D01*
X151056147Y-95707200D01*
X151123186Y-95726885D01*
G37*
%TD.AperFunction*%
%TD*%
M02*
