%TF.GenerationSoftware,KiCad,Pcbnew,9.0.4*%
%TF.CreationDate,2026-03-16T14:26:36-04:00*%
%TF.ProjectId,Power Board,506f7765-7220-4426-9f61-72642e6b6963,rev?*%
%TF.SameCoordinates,Original*%
%TF.FileFunction,Legend,Top*%
%TF.FilePolarity,Positive*%
%FSLAX46Y46*%
G04 Gerber Fmt 4.6, Leading zero omitted, Abs format (unit mm)*
G04 Created by KiCad (PCBNEW 9.0.4) date 2026-03-16 14:26:36*
%MOMM*%
%LPD*%
G01*
G04 APERTURE LIST*
%ADD10C,0.200000*%
%ADD11C,0.150000*%
%ADD12C,0.100000*%
%ADD13C,0.120000*%
G04 APERTURE END LIST*
D10*
X114644273Y-122372219D02*
X114644273Y-121372219D01*
X114644273Y-121372219D02*
X114882368Y-121372219D01*
X114882368Y-121372219D02*
X115025225Y-121419838D01*
X115025225Y-121419838D02*
X115120463Y-121515076D01*
X115120463Y-121515076D02*
X115168082Y-121610314D01*
X115168082Y-121610314D02*
X115215701Y-121800790D01*
X115215701Y-121800790D02*
X115215701Y-121943647D01*
X115215701Y-121943647D02*
X115168082Y-122134123D01*
X115168082Y-122134123D02*
X115120463Y-122229361D01*
X115120463Y-122229361D02*
X115025225Y-122324600D01*
X115025225Y-122324600D02*
X114882368Y-122372219D01*
X114882368Y-122372219D02*
X114644273Y-122372219D01*
X115644273Y-122372219D02*
X115644273Y-121705552D01*
X115644273Y-121372219D02*
X115596654Y-121419838D01*
X115596654Y-121419838D02*
X115644273Y-121467457D01*
X115644273Y-121467457D02*
X115691892Y-121419838D01*
X115691892Y-121419838D02*
X115644273Y-121372219D01*
X115644273Y-121372219D02*
X115644273Y-121467457D01*
X116549034Y-121705552D02*
X116549034Y-122515076D01*
X116549034Y-122515076D02*
X116501415Y-122610314D01*
X116501415Y-122610314D02*
X116453796Y-122657933D01*
X116453796Y-122657933D02*
X116358558Y-122705552D01*
X116358558Y-122705552D02*
X116215701Y-122705552D01*
X116215701Y-122705552D02*
X116120463Y-122657933D01*
X116549034Y-122324600D02*
X116453796Y-122372219D01*
X116453796Y-122372219D02*
X116263320Y-122372219D01*
X116263320Y-122372219D02*
X116168082Y-122324600D01*
X116168082Y-122324600D02*
X116120463Y-122276980D01*
X116120463Y-122276980D02*
X116072844Y-122181742D01*
X116072844Y-122181742D02*
X116072844Y-121896028D01*
X116072844Y-121896028D02*
X116120463Y-121800790D01*
X116120463Y-121800790D02*
X116168082Y-121753171D01*
X116168082Y-121753171D02*
X116263320Y-121705552D01*
X116263320Y-121705552D02*
X116453796Y-121705552D01*
X116453796Y-121705552D02*
X116549034Y-121753171D01*
X117025225Y-122372219D02*
X117025225Y-121705552D01*
X117025225Y-121372219D02*
X116977606Y-121419838D01*
X116977606Y-121419838D02*
X117025225Y-121467457D01*
X117025225Y-121467457D02*
X117072844Y-121419838D01*
X117072844Y-121419838D02*
X117025225Y-121372219D01*
X117025225Y-121372219D02*
X117025225Y-121467457D01*
X117358558Y-121705552D02*
X117739510Y-121705552D01*
X117501415Y-121372219D02*
X117501415Y-122229361D01*
X117501415Y-122229361D02*
X117549034Y-122324600D01*
X117549034Y-122324600D02*
X117644272Y-122372219D01*
X117644272Y-122372219D02*
X117739510Y-122372219D01*
X118501415Y-122372219D02*
X118501415Y-121848409D01*
X118501415Y-121848409D02*
X118453796Y-121753171D01*
X118453796Y-121753171D02*
X118358558Y-121705552D01*
X118358558Y-121705552D02*
X118168082Y-121705552D01*
X118168082Y-121705552D02*
X118072844Y-121753171D01*
X118501415Y-122324600D02*
X118406177Y-122372219D01*
X118406177Y-122372219D02*
X118168082Y-122372219D01*
X118168082Y-122372219D02*
X118072844Y-122324600D01*
X118072844Y-122324600D02*
X118025225Y-122229361D01*
X118025225Y-122229361D02*
X118025225Y-122134123D01*
X118025225Y-122134123D02*
X118072844Y-122038885D01*
X118072844Y-122038885D02*
X118168082Y-121991266D01*
X118168082Y-121991266D02*
X118406177Y-121991266D01*
X118406177Y-121991266D02*
X118501415Y-121943647D01*
X119120463Y-122372219D02*
X119025225Y-122324600D01*
X119025225Y-122324600D02*
X118977606Y-122229361D01*
X118977606Y-122229361D02*
X118977606Y-121372219D01*
X144514673Y-108884866D02*
X145276578Y-108884866D01*
X145705149Y-108361057D02*
X145752768Y-108313438D01*
X145752768Y-108313438D02*
X145848006Y-108265819D01*
X145848006Y-108265819D02*
X146086101Y-108265819D01*
X146086101Y-108265819D02*
X146181339Y-108313438D01*
X146181339Y-108313438D02*
X146228958Y-108361057D01*
X146228958Y-108361057D02*
X146276577Y-108456295D01*
X146276577Y-108456295D02*
X146276577Y-108551533D01*
X146276577Y-108551533D02*
X146228958Y-108694390D01*
X146228958Y-108694390D02*
X145657530Y-109265819D01*
X145657530Y-109265819D02*
X146276577Y-109265819D01*
X147133720Y-108599152D02*
X147133720Y-109265819D01*
X146895625Y-108218200D02*
X146657530Y-108932485D01*
X146657530Y-108932485D02*
X147276577Y-108932485D01*
X147514673Y-108265819D02*
X147848006Y-109265819D01*
X147848006Y-109265819D02*
X148181339Y-108265819D01*
X96940473Y-122524619D02*
X96940473Y-121524619D01*
X96940473Y-121524619D02*
X97321425Y-121524619D01*
X97321425Y-121524619D02*
X97416663Y-121572238D01*
X97416663Y-121572238D02*
X97464282Y-121619857D01*
X97464282Y-121619857D02*
X97511901Y-121715095D01*
X97511901Y-121715095D02*
X97511901Y-121857952D01*
X97511901Y-121857952D02*
X97464282Y-121953190D01*
X97464282Y-121953190D02*
X97416663Y-122000809D01*
X97416663Y-122000809D02*
X97321425Y-122048428D01*
X97321425Y-122048428D02*
X96940473Y-122048428D01*
X97940473Y-122524619D02*
X97940473Y-121857952D01*
X97940473Y-122048428D02*
X97988092Y-121953190D01*
X97988092Y-121953190D02*
X98035711Y-121905571D01*
X98035711Y-121905571D02*
X98130949Y-121857952D01*
X98130949Y-121857952D02*
X98226187Y-121857952D01*
X98940473Y-122477000D02*
X98845235Y-122524619D01*
X98845235Y-122524619D02*
X98654759Y-122524619D01*
X98654759Y-122524619D02*
X98559521Y-122477000D01*
X98559521Y-122477000D02*
X98511902Y-122381761D01*
X98511902Y-122381761D02*
X98511902Y-122000809D01*
X98511902Y-122000809D02*
X98559521Y-121905571D01*
X98559521Y-121905571D02*
X98654759Y-121857952D01*
X98654759Y-121857952D02*
X98845235Y-121857952D01*
X98845235Y-121857952D02*
X98940473Y-121905571D01*
X98940473Y-121905571D02*
X98988092Y-122000809D01*
X98988092Y-122000809D02*
X98988092Y-122096047D01*
X98988092Y-122096047D02*
X98511902Y-122191285D01*
X99416664Y-122143666D02*
X100178569Y-122143666D01*
X100607140Y-122238904D02*
X101083330Y-122238904D01*
X100511902Y-122524619D02*
X100845235Y-121524619D01*
X100845235Y-121524619D02*
X101178568Y-122524619D01*
X101511902Y-122524619D02*
X101511902Y-121857952D01*
X101511902Y-121953190D02*
X101559521Y-121905571D01*
X101559521Y-121905571D02*
X101654759Y-121857952D01*
X101654759Y-121857952D02*
X101797616Y-121857952D01*
X101797616Y-121857952D02*
X101892854Y-121905571D01*
X101892854Y-121905571D02*
X101940473Y-122000809D01*
X101940473Y-122000809D02*
X101940473Y-122524619D01*
X101940473Y-122000809D02*
X101988092Y-121905571D01*
X101988092Y-121905571D02*
X102083330Y-121857952D01*
X102083330Y-121857952D02*
X102226187Y-121857952D01*
X102226187Y-121857952D02*
X102321426Y-121905571D01*
X102321426Y-121905571D02*
X102369045Y-122000809D01*
X102369045Y-122000809D02*
X102369045Y-122524619D01*
X102845235Y-121857952D02*
X102845235Y-122857952D01*
X102845235Y-121905571D02*
X102940473Y-121857952D01*
X102940473Y-121857952D02*
X103130949Y-121857952D01*
X103130949Y-121857952D02*
X103226187Y-121905571D01*
X103226187Y-121905571D02*
X103273806Y-121953190D01*
X103273806Y-121953190D02*
X103321425Y-122048428D01*
X103321425Y-122048428D02*
X103321425Y-122334142D01*
X103321425Y-122334142D02*
X103273806Y-122429380D01*
X103273806Y-122429380D02*
X103226187Y-122477000D01*
X103226187Y-122477000D02*
X103130949Y-122524619D01*
X103130949Y-122524619D02*
X102940473Y-122524619D01*
X102940473Y-122524619D02*
X102845235Y-122477000D01*
X147565854Y-52356904D02*
X148042044Y-52356904D01*
X147470616Y-52642619D02*
X147803949Y-51642619D01*
X147803949Y-51642619D02*
X148137282Y-52642619D01*
X149042044Y-52547380D02*
X148994425Y-52595000D01*
X148994425Y-52595000D02*
X148851568Y-52642619D01*
X148851568Y-52642619D02*
X148756330Y-52642619D01*
X148756330Y-52642619D02*
X148613473Y-52595000D01*
X148613473Y-52595000D02*
X148518235Y-52499761D01*
X148518235Y-52499761D02*
X148470616Y-52404523D01*
X148470616Y-52404523D02*
X148422997Y-52214047D01*
X148422997Y-52214047D02*
X148422997Y-52071190D01*
X148422997Y-52071190D02*
X148470616Y-51880714D01*
X148470616Y-51880714D02*
X148518235Y-51785476D01*
X148518235Y-51785476D02*
X148613473Y-51690238D01*
X148613473Y-51690238D02*
X148756330Y-51642619D01*
X148756330Y-51642619D02*
X148851568Y-51642619D01*
X148851568Y-51642619D02*
X148994425Y-51690238D01*
X148994425Y-51690238D02*
X149042044Y-51737857D01*
X149232521Y-52737857D02*
X149994425Y-52737857D01*
X150232521Y-52642619D02*
X150232521Y-51642619D01*
X150232521Y-51642619D02*
X150803949Y-52642619D01*
X150803949Y-52642619D02*
X150803949Y-51642619D01*
X151280140Y-52118809D02*
X151613473Y-52118809D01*
X151756330Y-52642619D02*
X151280140Y-52642619D01*
X151280140Y-52642619D02*
X151280140Y-51642619D01*
X151280140Y-51642619D02*
X151756330Y-51642619D01*
X152184902Y-51642619D02*
X152184902Y-52452142D01*
X152184902Y-52452142D02*
X152232521Y-52547380D01*
X152232521Y-52547380D02*
X152280140Y-52595000D01*
X152280140Y-52595000D02*
X152375378Y-52642619D01*
X152375378Y-52642619D02*
X152565854Y-52642619D01*
X152565854Y-52642619D02*
X152661092Y-52595000D01*
X152661092Y-52595000D02*
X152708711Y-52547380D01*
X152708711Y-52547380D02*
X152756330Y-52452142D01*
X152756330Y-52452142D02*
X152756330Y-51642619D01*
X153089664Y-51642619D02*
X153661092Y-51642619D01*
X153375378Y-52642619D02*
X153375378Y-51642619D01*
X154565854Y-52642619D02*
X154232521Y-52166428D01*
X153994426Y-52642619D02*
X153994426Y-51642619D01*
X153994426Y-51642619D02*
X154375378Y-51642619D01*
X154375378Y-51642619D02*
X154470616Y-51690238D01*
X154470616Y-51690238D02*
X154518235Y-51737857D01*
X154518235Y-51737857D02*
X154565854Y-51833095D01*
X154565854Y-51833095D02*
X154565854Y-51975952D01*
X154565854Y-51975952D02*
X154518235Y-52071190D01*
X154518235Y-52071190D02*
X154470616Y-52118809D01*
X154470616Y-52118809D02*
X154375378Y-52166428D01*
X154375378Y-52166428D02*
X153994426Y-52166428D01*
X154946807Y-52356904D02*
X155422997Y-52356904D01*
X154851569Y-52642619D02*
X155184902Y-51642619D01*
X155184902Y-51642619D02*
X155518235Y-52642619D01*
X156327759Y-52642619D02*
X155851569Y-52642619D01*
X155851569Y-52642619D02*
X155851569Y-51642619D01*
X150160809Y-69555126D02*
X150160809Y-69221793D01*
X150684619Y-69078936D02*
X150684619Y-69555126D01*
X150684619Y-69555126D02*
X149684619Y-69555126D01*
X149684619Y-69555126D02*
X149684619Y-69078936D01*
X150398904Y-68697983D02*
X150398904Y-68221793D01*
X150684619Y-68793221D02*
X149684619Y-68459888D01*
X149684619Y-68459888D02*
X150684619Y-68126555D01*
X150684619Y-67221793D02*
X150208428Y-67555126D01*
X150684619Y-67793221D02*
X149684619Y-67793221D01*
X149684619Y-67793221D02*
X149684619Y-67412269D01*
X149684619Y-67412269D02*
X149732238Y-67317031D01*
X149732238Y-67317031D02*
X149779857Y-67269412D01*
X149779857Y-67269412D02*
X149875095Y-67221793D01*
X149875095Y-67221793D02*
X150017952Y-67221793D01*
X150017952Y-67221793D02*
X150113190Y-67269412D01*
X150113190Y-67269412D02*
X150160809Y-67317031D01*
X150160809Y-67317031D02*
X150208428Y-67412269D01*
X150208428Y-67412269D02*
X150208428Y-67793221D01*
X149684619Y-66936078D02*
X149684619Y-66364650D01*
X150684619Y-66650364D02*
X149684619Y-66650364D01*
X150684619Y-66031316D02*
X149684619Y-66031316D01*
X150160809Y-66031316D02*
X150160809Y-65459888D01*
X150684619Y-65459888D02*
X149684619Y-65459888D01*
X150779857Y-65221793D02*
X150779857Y-64459888D01*
X149732238Y-63697983D02*
X149684619Y-63793221D01*
X149684619Y-63793221D02*
X149684619Y-63936078D01*
X149684619Y-63936078D02*
X149732238Y-64078935D01*
X149732238Y-64078935D02*
X149827476Y-64174173D01*
X149827476Y-64174173D02*
X149922714Y-64221792D01*
X149922714Y-64221792D02*
X150113190Y-64269411D01*
X150113190Y-64269411D02*
X150256047Y-64269411D01*
X150256047Y-64269411D02*
X150446523Y-64221792D01*
X150446523Y-64221792D02*
X150541761Y-64174173D01*
X150541761Y-64174173D02*
X150637000Y-64078935D01*
X150637000Y-64078935D02*
X150684619Y-63936078D01*
X150684619Y-63936078D02*
X150684619Y-63840840D01*
X150684619Y-63840840D02*
X150637000Y-63697983D01*
X150637000Y-63697983D02*
X150589380Y-63650364D01*
X150589380Y-63650364D02*
X150256047Y-63650364D01*
X150256047Y-63650364D02*
X150256047Y-63840840D01*
X150684619Y-63221792D02*
X149684619Y-63221792D01*
X149684619Y-63221792D02*
X150684619Y-62650364D01*
X150684619Y-62650364D02*
X149684619Y-62650364D01*
X150684619Y-62174173D02*
X149684619Y-62174173D01*
X149684619Y-62174173D02*
X149684619Y-61936078D01*
X149684619Y-61936078D02*
X149732238Y-61793221D01*
X149732238Y-61793221D02*
X149827476Y-61697983D01*
X149827476Y-61697983D02*
X149922714Y-61650364D01*
X149922714Y-61650364D02*
X150113190Y-61602745D01*
X150113190Y-61602745D02*
X150256047Y-61602745D01*
X150256047Y-61602745D02*
X150446523Y-61650364D01*
X150446523Y-61650364D02*
X150541761Y-61697983D01*
X150541761Y-61697983D02*
X150637000Y-61793221D01*
X150637000Y-61793221D02*
X150684619Y-61936078D01*
X150684619Y-61936078D02*
X150684619Y-62174173D01*
X38059399Y-118254254D02*
X38011779Y-118397111D01*
X38011779Y-118397111D02*
X38011779Y-118635206D01*
X38011779Y-118635206D02*
X38059399Y-118730444D01*
X38059399Y-118730444D02*
X38107018Y-118778063D01*
X38107018Y-118778063D02*
X38202256Y-118825682D01*
X38202256Y-118825682D02*
X38297494Y-118825682D01*
X38297494Y-118825682D02*
X38392732Y-118778063D01*
X38392732Y-118778063D02*
X38440351Y-118730444D01*
X38440351Y-118730444D02*
X38487970Y-118635206D01*
X38487970Y-118635206D02*
X38535589Y-118444730D01*
X38535589Y-118444730D02*
X38583208Y-118349492D01*
X38583208Y-118349492D02*
X38630827Y-118301873D01*
X38630827Y-118301873D02*
X38726065Y-118254254D01*
X38726065Y-118254254D02*
X38821303Y-118254254D01*
X38821303Y-118254254D02*
X38916541Y-118301873D01*
X38916541Y-118301873D02*
X38964160Y-118349492D01*
X38964160Y-118349492D02*
X39011779Y-118444730D01*
X39011779Y-118444730D02*
X39011779Y-118682825D01*
X39011779Y-118682825D02*
X38964160Y-118825682D01*
X39011779Y-119159016D02*
X38011779Y-119397111D01*
X38011779Y-119397111D02*
X38726065Y-119587587D01*
X38726065Y-119587587D02*
X38011779Y-119778063D01*
X38011779Y-119778063D02*
X39011779Y-120016159D01*
X37916541Y-120159016D02*
X37916541Y-120920920D01*
X39011779Y-121349492D02*
X39011779Y-121539968D01*
X39011779Y-121539968D02*
X38964160Y-121635206D01*
X38964160Y-121635206D02*
X38868922Y-121730444D01*
X38868922Y-121730444D02*
X38678446Y-121778063D01*
X38678446Y-121778063D02*
X38345113Y-121778063D01*
X38345113Y-121778063D02*
X38154637Y-121730444D01*
X38154637Y-121730444D02*
X38059399Y-121635206D01*
X38059399Y-121635206D02*
X38011779Y-121539968D01*
X38011779Y-121539968D02*
X38011779Y-121349492D01*
X38011779Y-121349492D02*
X38059399Y-121254254D01*
X38059399Y-121254254D02*
X38154637Y-121159016D01*
X38154637Y-121159016D02*
X38345113Y-121111397D01*
X38345113Y-121111397D02*
X38678446Y-121111397D01*
X38678446Y-121111397D02*
X38868922Y-121159016D01*
X38868922Y-121159016D02*
X38964160Y-121254254D01*
X38964160Y-121254254D02*
X39011779Y-121349492D01*
X39011779Y-122206635D02*
X38202256Y-122206635D01*
X38202256Y-122206635D02*
X38107018Y-122254254D01*
X38107018Y-122254254D02*
X38059399Y-122301873D01*
X38059399Y-122301873D02*
X38011779Y-122397111D01*
X38011779Y-122397111D02*
X38011779Y-122587587D01*
X38011779Y-122587587D02*
X38059399Y-122682825D01*
X38059399Y-122682825D02*
X38107018Y-122730444D01*
X38107018Y-122730444D02*
X38202256Y-122778063D01*
X38202256Y-122778063D02*
X39011779Y-122778063D01*
X39011779Y-123111397D02*
X39011779Y-123682825D01*
X38011779Y-123397111D02*
X39011779Y-123397111D01*
X149161093Y-35313504D02*
X149637283Y-35313504D01*
X149065855Y-35599219D02*
X149399188Y-34599219D01*
X149399188Y-34599219D02*
X149732521Y-35599219D01*
X150637283Y-35503980D02*
X150589664Y-35551600D01*
X150589664Y-35551600D02*
X150446807Y-35599219D01*
X150446807Y-35599219D02*
X150351569Y-35599219D01*
X150351569Y-35599219D02*
X150208712Y-35551600D01*
X150208712Y-35551600D02*
X150113474Y-35456361D01*
X150113474Y-35456361D02*
X150065855Y-35361123D01*
X150065855Y-35361123D02*
X150018236Y-35170647D01*
X150018236Y-35170647D02*
X150018236Y-35027790D01*
X150018236Y-35027790D02*
X150065855Y-34837314D01*
X150065855Y-34837314D02*
X150113474Y-34742076D01*
X150113474Y-34742076D02*
X150208712Y-34646838D01*
X150208712Y-34646838D02*
X150351569Y-34599219D01*
X150351569Y-34599219D02*
X150446807Y-34599219D01*
X150446807Y-34599219D02*
X150589664Y-34646838D01*
X150589664Y-34646838D02*
X150637283Y-34694457D01*
X150827760Y-35694457D02*
X151589664Y-35694457D01*
X152303950Y-35599219D02*
X151827760Y-35599219D01*
X151827760Y-35599219D02*
X151827760Y-34599219D01*
X152637284Y-35599219D02*
X152637284Y-34599219D01*
X153113474Y-35599219D02*
X153113474Y-34599219D01*
X153113474Y-34599219D02*
X153684902Y-35599219D01*
X153684902Y-35599219D02*
X153684902Y-34599219D01*
X154161093Y-35075409D02*
X154494426Y-35075409D01*
X154637283Y-35599219D02*
X154161093Y-35599219D01*
X154161093Y-35599219D02*
X154161093Y-34599219D01*
X154161093Y-34599219D02*
X154637283Y-34599219D01*
X54950400Y-118920922D02*
X54902780Y-119063779D01*
X54902780Y-119063779D02*
X54902780Y-119301874D01*
X54902780Y-119301874D02*
X54950400Y-119397112D01*
X54950400Y-119397112D02*
X54998019Y-119444731D01*
X54998019Y-119444731D02*
X55093257Y-119492350D01*
X55093257Y-119492350D02*
X55188495Y-119492350D01*
X55188495Y-119492350D02*
X55283733Y-119444731D01*
X55283733Y-119444731D02*
X55331352Y-119397112D01*
X55331352Y-119397112D02*
X55378971Y-119301874D01*
X55378971Y-119301874D02*
X55426590Y-119111398D01*
X55426590Y-119111398D02*
X55474209Y-119016160D01*
X55474209Y-119016160D02*
X55521828Y-118968541D01*
X55521828Y-118968541D02*
X55617066Y-118920922D01*
X55617066Y-118920922D02*
X55712304Y-118920922D01*
X55712304Y-118920922D02*
X55807542Y-118968541D01*
X55807542Y-118968541D02*
X55855161Y-119016160D01*
X55855161Y-119016160D02*
X55902780Y-119111398D01*
X55902780Y-119111398D02*
X55902780Y-119349493D01*
X55902780Y-119349493D02*
X55855161Y-119492350D01*
X55902780Y-119825684D02*
X54902780Y-120063779D01*
X54902780Y-120063779D02*
X55617066Y-120254255D01*
X55617066Y-120254255D02*
X54902780Y-120444731D01*
X54902780Y-120444731D02*
X55902780Y-120682827D01*
X54807542Y-120825684D02*
X54807542Y-121587588D01*
X54902780Y-121825684D02*
X55902780Y-121825684D01*
X54902780Y-122301874D02*
X55902780Y-122301874D01*
X55902780Y-122301874D02*
X54902780Y-122873302D01*
X54902780Y-122873302D02*
X55902780Y-122873302D01*
X105919876Y-121941932D02*
X106396066Y-121941932D01*
X105824638Y-122227647D02*
X106157971Y-121227647D01*
X106157971Y-121227647D02*
X106491304Y-122227647D01*
X106824638Y-121560980D02*
X106824638Y-122227647D01*
X106824638Y-121656218D02*
X106872257Y-121608599D01*
X106872257Y-121608599D02*
X106967495Y-121560980D01*
X106967495Y-121560980D02*
X107110352Y-121560980D01*
X107110352Y-121560980D02*
X107205590Y-121608599D01*
X107205590Y-121608599D02*
X107253209Y-121703837D01*
X107253209Y-121703837D02*
X107253209Y-122227647D01*
X108157971Y-122227647D02*
X108157971Y-121703837D01*
X108157971Y-121703837D02*
X108110352Y-121608599D01*
X108110352Y-121608599D02*
X108015114Y-121560980D01*
X108015114Y-121560980D02*
X107824638Y-121560980D01*
X107824638Y-121560980D02*
X107729400Y-121608599D01*
X108157971Y-122180028D02*
X108062733Y-122227647D01*
X108062733Y-122227647D02*
X107824638Y-122227647D01*
X107824638Y-122227647D02*
X107729400Y-122180028D01*
X107729400Y-122180028D02*
X107681781Y-122084789D01*
X107681781Y-122084789D02*
X107681781Y-121989551D01*
X107681781Y-121989551D02*
X107729400Y-121894313D01*
X107729400Y-121894313D02*
X107824638Y-121846694D01*
X107824638Y-121846694D02*
X108062733Y-121846694D01*
X108062733Y-121846694D02*
X108157971Y-121799075D01*
X108777019Y-122227647D02*
X108681781Y-122180028D01*
X108681781Y-122180028D02*
X108634162Y-122084789D01*
X108634162Y-122084789D02*
X108634162Y-121227647D01*
X109300829Y-122227647D02*
X109205591Y-122180028D01*
X109205591Y-122180028D02*
X109157972Y-122132408D01*
X109157972Y-122132408D02*
X109110353Y-122037170D01*
X109110353Y-122037170D02*
X109110353Y-121751456D01*
X109110353Y-121751456D02*
X109157972Y-121656218D01*
X109157972Y-121656218D02*
X109205591Y-121608599D01*
X109205591Y-121608599D02*
X109300829Y-121560980D01*
X109300829Y-121560980D02*
X109443686Y-121560980D01*
X109443686Y-121560980D02*
X109538924Y-121608599D01*
X109538924Y-121608599D02*
X109586543Y-121656218D01*
X109586543Y-121656218D02*
X109634162Y-121751456D01*
X109634162Y-121751456D02*
X109634162Y-122037170D01*
X109634162Y-122037170D02*
X109586543Y-122132408D01*
X109586543Y-122132408D02*
X109538924Y-122180028D01*
X109538924Y-122180028D02*
X109443686Y-122227647D01*
X109443686Y-122227647D02*
X109300829Y-122227647D01*
X110491305Y-121560980D02*
X110491305Y-122370504D01*
X110491305Y-122370504D02*
X110443686Y-122465742D01*
X110443686Y-122465742D02*
X110396067Y-122513361D01*
X110396067Y-122513361D02*
X110300829Y-122560980D01*
X110300829Y-122560980D02*
X110157972Y-122560980D01*
X110157972Y-122560980D02*
X110062734Y-122513361D01*
X110491305Y-122180028D02*
X110396067Y-122227647D01*
X110396067Y-122227647D02*
X110205591Y-122227647D01*
X110205591Y-122227647D02*
X110110353Y-122180028D01*
X110110353Y-122180028D02*
X110062734Y-122132408D01*
X110062734Y-122132408D02*
X110015115Y-122037170D01*
X110015115Y-122037170D02*
X110015115Y-121751456D01*
X110015115Y-121751456D02*
X110062734Y-121656218D01*
X110062734Y-121656218D02*
X110110353Y-121608599D01*
X110110353Y-121608599D02*
X110205591Y-121560980D01*
X110205591Y-121560980D02*
X110396067Y-121560980D01*
X110396067Y-121560980D02*
X110491305Y-121608599D01*
X105324636Y-123742352D02*
X105277017Y-123789972D01*
X105277017Y-123789972D02*
X105134160Y-123837591D01*
X105134160Y-123837591D02*
X105038922Y-123837591D01*
X105038922Y-123837591D02*
X104896065Y-123789972D01*
X104896065Y-123789972D02*
X104800827Y-123694733D01*
X104800827Y-123694733D02*
X104753208Y-123599495D01*
X104753208Y-123599495D02*
X104705589Y-123409019D01*
X104705589Y-123409019D02*
X104705589Y-123266162D01*
X104705589Y-123266162D02*
X104753208Y-123075686D01*
X104753208Y-123075686D02*
X104800827Y-122980448D01*
X104800827Y-122980448D02*
X104896065Y-122885210D01*
X104896065Y-122885210D02*
X105038922Y-122837591D01*
X105038922Y-122837591D02*
X105134160Y-122837591D01*
X105134160Y-122837591D02*
X105277017Y-122885210D01*
X105277017Y-122885210D02*
X105324636Y-122932829D01*
X105896065Y-123837591D02*
X105800827Y-123789972D01*
X105800827Y-123789972D02*
X105753208Y-123742352D01*
X105753208Y-123742352D02*
X105705589Y-123647114D01*
X105705589Y-123647114D02*
X105705589Y-123361400D01*
X105705589Y-123361400D02*
X105753208Y-123266162D01*
X105753208Y-123266162D02*
X105800827Y-123218543D01*
X105800827Y-123218543D02*
X105896065Y-123170924D01*
X105896065Y-123170924D02*
X106038922Y-123170924D01*
X106038922Y-123170924D02*
X106134160Y-123218543D01*
X106134160Y-123218543D02*
X106181779Y-123266162D01*
X106181779Y-123266162D02*
X106229398Y-123361400D01*
X106229398Y-123361400D02*
X106229398Y-123647114D01*
X106229398Y-123647114D02*
X106181779Y-123742352D01*
X106181779Y-123742352D02*
X106134160Y-123789972D01*
X106134160Y-123789972D02*
X106038922Y-123837591D01*
X106038922Y-123837591D02*
X105896065Y-123837591D01*
X106657970Y-123170924D02*
X106657970Y-123837591D01*
X106657970Y-123266162D02*
X106705589Y-123218543D01*
X106705589Y-123218543D02*
X106800827Y-123170924D01*
X106800827Y-123170924D02*
X106943684Y-123170924D01*
X106943684Y-123170924D02*
X107038922Y-123218543D01*
X107038922Y-123218543D02*
X107086541Y-123313781D01*
X107086541Y-123313781D02*
X107086541Y-123837591D01*
X107419875Y-123170924D02*
X107800827Y-123170924D01*
X107562732Y-122837591D02*
X107562732Y-123694733D01*
X107562732Y-123694733D02*
X107610351Y-123789972D01*
X107610351Y-123789972D02*
X107705589Y-123837591D01*
X107705589Y-123837591D02*
X107800827Y-123837591D01*
X108134161Y-123837591D02*
X108134161Y-123170924D01*
X108134161Y-123361400D02*
X108181780Y-123266162D01*
X108181780Y-123266162D02*
X108229399Y-123218543D01*
X108229399Y-123218543D02*
X108324637Y-123170924D01*
X108324637Y-123170924D02*
X108419875Y-123170924D01*
X108896066Y-123837591D02*
X108800828Y-123789972D01*
X108800828Y-123789972D02*
X108753209Y-123742352D01*
X108753209Y-123742352D02*
X108705590Y-123647114D01*
X108705590Y-123647114D02*
X108705590Y-123361400D01*
X108705590Y-123361400D02*
X108753209Y-123266162D01*
X108753209Y-123266162D02*
X108800828Y-123218543D01*
X108800828Y-123218543D02*
X108896066Y-123170924D01*
X108896066Y-123170924D02*
X109038923Y-123170924D01*
X109038923Y-123170924D02*
X109134161Y-123218543D01*
X109134161Y-123218543D02*
X109181780Y-123266162D01*
X109181780Y-123266162D02*
X109229399Y-123361400D01*
X109229399Y-123361400D02*
X109229399Y-123647114D01*
X109229399Y-123647114D02*
X109181780Y-123742352D01*
X109181780Y-123742352D02*
X109134161Y-123789972D01*
X109134161Y-123789972D02*
X109038923Y-123837591D01*
X109038923Y-123837591D02*
X108896066Y-123837591D01*
X109800828Y-123837591D02*
X109705590Y-123789972D01*
X109705590Y-123789972D02*
X109657971Y-123694733D01*
X109657971Y-123694733D02*
X109657971Y-122837591D01*
X110324638Y-123837591D02*
X110229400Y-123789972D01*
X110229400Y-123789972D02*
X110181781Y-123694733D01*
X110181781Y-123694733D02*
X110181781Y-122837591D01*
X111086543Y-123789972D02*
X110991305Y-123837591D01*
X110991305Y-123837591D02*
X110800829Y-123837591D01*
X110800829Y-123837591D02*
X110705591Y-123789972D01*
X110705591Y-123789972D02*
X110657972Y-123694733D01*
X110657972Y-123694733D02*
X110657972Y-123313781D01*
X110657972Y-123313781D02*
X110705591Y-123218543D01*
X110705591Y-123218543D02*
X110800829Y-123170924D01*
X110800829Y-123170924D02*
X110991305Y-123170924D01*
X110991305Y-123170924D02*
X111086543Y-123218543D01*
X111086543Y-123218543D02*
X111134162Y-123313781D01*
X111134162Y-123313781D02*
X111134162Y-123409019D01*
X111134162Y-123409019D02*
X110657972Y-123504257D01*
X111562734Y-123837591D02*
X111562734Y-123170924D01*
X111562734Y-123361400D02*
X111610353Y-123266162D01*
X111610353Y-123266162D02*
X111657972Y-123218543D01*
X111657972Y-123218543D02*
X111753210Y-123170924D01*
X111753210Y-123170924D02*
X111848448Y-123170924D01*
X94035282Y-113319219D02*
X93463854Y-113319219D01*
X93749568Y-113319219D02*
X93749568Y-112319219D01*
X93749568Y-112319219D02*
X93654330Y-112462076D01*
X93654330Y-112462076D02*
X93559092Y-112557314D01*
X93559092Y-112557314D02*
X93463854Y-112604933D01*
X94416235Y-112414457D02*
X94463854Y-112366838D01*
X94463854Y-112366838D02*
X94559092Y-112319219D01*
X94559092Y-112319219D02*
X94797187Y-112319219D01*
X94797187Y-112319219D02*
X94892425Y-112366838D01*
X94892425Y-112366838D02*
X94940044Y-112414457D01*
X94940044Y-112414457D02*
X94987663Y-112509695D01*
X94987663Y-112509695D02*
X94987663Y-112604933D01*
X94987663Y-112604933D02*
X94940044Y-112747790D01*
X94940044Y-112747790D02*
X94368616Y-113319219D01*
X94368616Y-113319219D02*
X94987663Y-113319219D01*
X95273378Y-112319219D02*
X95606711Y-113319219D01*
X95606711Y-113319219D02*
X95940044Y-112319219D01*
X139171609Y-124285047D02*
X139171609Y-123285047D01*
X139171609Y-123285047D02*
X139552561Y-123285047D01*
X139552561Y-123285047D02*
X139647799Y-123332666D01*
X139647799Y-123332666D02*
X139695418Y-123380285D01*
X139695418Y-123380285D02*
X139743037Y-123475523D01*
X139743037Y-123475523D02*
X139743037Y-123618380D01*
X139743037Y-123618380D02*
X139695418Y-123713618D01*
X139695418Y-123713618D02*
X139647799Y-123761237D01*
X139647799Y-123761237D02*
X139552561Y-123808856D01*
X139552561Y-123808856D02*
X139171609Y-123808856D01*
X140314466Y-124285047D02*
X140219228Y-124237428D01*
X140219228Y-124237428D02*
X140171609Y-124189808D01*
X140171609Y-124189808D02*
X140123990Y-124094570D01*
X140123990Y-124094570D02*
X140123990Y-123808856D01*
X140123990Y-123808856D02*
X140171609Y-123713618D01*
X140171609Y-123713618D02*
X140219228Y-123665999D01*
X140219228Y-123665999D02*
X140314466Y-123618380D01*
X140314466Y-123618380D02*
X140457323Y-123618380D01*
X140457323Y-123618380D02*
X140552561Y-123665999D01*
X140552561Y-123665999D02*
X140600180Y-123713618D01*
X140600180Y-123713618D02*
X140647799Y-123808856D01*
X140647799Y-123808856D02*
X140647799Y-124094570D01*
X140647799Y-124094570D02*
X140600180Y-124189808D01*
X140600180Y-124189808D02*
X140552561Y-124237428D01*
X140552561Y-124237428D02*
X140457323Y-124285047D01*
X140457323Y-124285047D02*
X140314466Y-124285047D01*
X140981133Y-123618380D02*
X141171609Y-124285047D01*
X141171609Y-124285047D02*
X141362085Y-123808856D01*
X141362085Y-123808856D02*
X141552561Y-124285047D01*
X141552561Y-124285047D02*
X141743037Y-123618380D01*
X142504942Y-124237428D02*
X142409704Y-124285047D01*
X142409704Y-124285047D02*
X142219228Y-124285047D01*
X142219228Y-124285047D02*
X142123990Y-124237428D01*
X142123990Y-124237428D02*
X142076371Y-124142189D01*
X142076371Y-124142189D02*
X142076371Y-123761237D01*
X142076371Y-123761237D02*
X142123990Y-123665999D01*
X142123990Y-123665999D02*
X142219228Y-123618380D01*
X142219228Y-123618380D02*
X142409704Y-123618380D01*
X142409704Y-123618380D02*
X142504942Y-123665999D01*
X142504942Y-123665999D02*
X142552561Y-123761237D01*
X142552561Y-123761237D02*
X142552561Y-123856475D01*
X142552561Y-123856475D02*
X142076371Y-123951713D01*
X142981133Y-124285047D02*
X142981133Y-123618380D01*
X142981133Y-123808856D02*
X143028752Y-123713618D01*
X143028752Y-123713618D02*
X143076371Y-123665999D01*
X143076371Y-123665999D02*
X143171609Y-123618380D01*
X143171609Y-123618380D02*
X143266847Y-123618380D01*
X139790657Y-125609276D02*
X140266847Y-125609276D01*
X139695419Y-125894991D02*
X140028752Y-124894991D01*
X140028752Y-124894991D02*
X140362085Y-125894991D01*
X140695419Y-125894991D02*
X140695419Y-125228324D01*
X140695419Y-125323562D02*
X140743038Y-125275943D01*
X140743038Y-125275943D02*
X140838276Y-125228324D01*
X140838276Y-125228324D02*
X140981133Y-125228324D01*
X140981133Y-125228324D02*
X141076371Y-125275943D01*
X141076371Y-125275943D02*
X141123990Y-125371181D01*
X141123990Y-125371181D02*
X141123990Y-125894991D01*
X141123990Y-125371181D02*
X141171609Y-125275943D01*
X141171609Y-125275943D02*
X141266847Y-125228324D01*
X141266847Y-125228324D02*
X141409704Y-125228324D01*
X141409704Y-125228324D02*
X141504943Y-125275943D01*
X141504943Y-125275943D02*
X141552562Y-125371181D01*
X141552562Y-125371181D02*
X141552562Y-125894991D01*
X142028752Y-125228324D02*
X142028752Y-126228324D01*
X142028752Y-125275943D02*
X142123990Y-125228324D01*
X142123990Y-125228324D02*
X142314466Y-125228324D01*
X142314466Y-125228324D02*
X142409704Y-125275943D01*
X142409704Y-125275943D02*
X142457323Y-125323562D01*
X142457323Y-125323562D02*
X142504942Y-125418800D01*
X142504942Y-125418800D02*
X142504942Y-125704514D01*
X142504942Y-125704514D02*
X142457323Y-125799752D01*
X142457323Y-125799752D02*
X142409704Y-125847372D01*
X142409704Y-125847372D02*
X142314466Y-125894991D01*
X142314466Y-125894991D02*
X142123990Y-125894991D01*
X142123990Y-125894991D02*
X142028752Y-125847372D01*
X93892425Y-117573838D02*
X93797187Y-117526219D01*
X93797187Y-117526219D02*
X93654330Y-117526219D01*
X93654330Y-117526219D02*
X93511473Y-117573838D01*
X93511473Y-117573838D02*
X93416235Y-117669076D01*
X93416235Y-117669076D02*
X93368616Y-117764314D01*
X93368616Y-117764314D02*
X93320997Y-117954790D01*
X93320997Y-117954790D02*
X93320997Y-118097647D01*
X93320997Y-118097647D02*
X93368616Y-118288123D01*
X93368616Y-118288123D02*
X93416235Y-118383361D01*
X93416235Y-118383361D02*
X93511473Y-118478600D01*
X93511473Y-118478600D02*
X93654330Y-118526219D01*
X93654330Y-118526219D02*
X93749568Y-118526219D01*
X93749568Y-118526219D02*
X93892425Y-118478600D01*
X93892425Y-118478600D02*
X93940044Y-118430980D01*
X93940044Y-118430980D02*
X93940044Y-118097647D01*
X93940044Y-118097647D02*
X93749568Y-118097647D01*
X94368616Y-118526219D02*
X94368616Y-117526219D01*
X94368616Y-117526219D02*
X94940044Y-118526219D01*
X94940044Y-118526219D02*
X94940044Y-117526219D01*
X95416235Y-118526219D02*
X95416235Y-117526219D01*
X95416235Y-117526219D02*
X95654330Y-117526219D01*
X95654330Y-117526219D02*
X95797187Y-117573838D01*
X95797187Y-117573838D02*
X95892425Y-117669076D01*
X95892425Y-117669076D02*
X95940044Y-117764314D01*
X95940044Y-117764314D02*
X95987663Y-117954790D01*
X95987663Y-117954790D02*
X95987663Y-118097647D01*
X95987663Y-118097647D02*
X95940044Y-118288123D01*
X95940044Y-118288123D02*
X95892425Y-118383361D01*
X95892425Y-118383361D02*
X95797187Y-118478600D01*
X95797187Y-118478600D02*
X95654330Y-118526219D01*
X95654330Y-118526219D02*
X95416235Y-118526219D01*
X133516473Y-108961066D02*
X134278378Y-108961066D01*
X133897425Y-109342019D02*
X133897425Y-108580114D01*
X134706949Y-108437257D02*
X134754568Y-108389638D01*
X134754568Y-108389638D02*
X134849806Y-108342019D01*
X134849806Y-108342019D02*
X135087901Y-108342019D01*
X135087901Y-108342019D02*
X135183139Y-108389638D01*
X135183139Y-108389638D02*
X135230758Y-108437257D01*
X135230758Y-108437257D02*
X135278377Y-108532495D01*
X135278377Y-108532495D02*
X135278377Y-108627733D01*
X135278377Y-108627733D02*
X135230758Y-108770590D01*
X135230758Y-108770590D02*
X134659330Y-109342019D01*
X134659330Y-109342019D02*
X135278377Y-109342019D01*
X136135520Y-108675352D02*
X136135520Y-109342019D01*
X135897425Y-108294400D02*
X135659330Y-109008685D01*
X135659330Y-109008685D02*
X136278377Y-109008685D01*
X136516473Y-108342019D02*
X136849806Y-109342019D01*
X136849806Y-109342019D02*
X137183139Y-108342019D01*
X123834733Y-121848409D02*
X124168066Y-121848409D01*
X124310923Y-122372219D02*
X123834733Y-122372219D01*
X123834733Y-122372219D02*
X123834733Y-121372219D01*
X123834733Y-121372219D02*
X124310923Y-121372219D01*
X124644257Y-122372219D02*
X125168066Y-121705552D01*
X124644257Y-121705552D02*
X125168066Y-122372219D01*
X125406162Y-121705552D02*
X125787114Y-121705552D01*
X125549019Y-121372219D02*
X125549019Y-122229361D01*
X125549019Y-122229361D02*
X125596638Y-122324600D01*
X125596638Y-122324600D02*
X125691876Y-122372219D01*
X125691876Y-122372219D02*
X125787114Y-122372219D01*
X126120448Y-122372219D02*
X126120448Y-121705552D01*
X126120448Y-121896028D02*
X126168067Y-121800790D01*
X126168067Y-121800790D02*
X126215686Y-121753171D01*
X126215686Y-121753171D02*
X126310924Y-121705552D01*
X126310924Y-121705552D02*
X126406162Y-121705552D01*
X127168067Y-122372219D02*
X127168067Y-121848409D01*
X127168067Y-121848409D02*
X127120448Y-121753171D01*
X127120448Y-121753171D02*
X127025210Y-121705552D01*
X127025210Y-121705552D02*
X126834734Y-121705552D01*
X126834734Y-121705552D02*
X126739496Y-121753171D01*
X127168067Y-122324600D02*
X127072829Y-122372219D01*
X127072829Y-122372219D02*
X126834734Y-122372219D01*
X126834734Y-122372219D02*
X126739496Y-122324600D01*
X126739496Y-122324600D02*
X126691877Y-122229361D01*
X126691877Y-122229361D02*
X126691877Y-122134123D01*
X126691877Y-122134123D02*
X126739496Y-122038885D01*
X126739496Y-122038885D02*
X126834734Y-121991266D01*
X126834734Y-121991266D02*
X127072829Y-121991266D01*
X127072829Y-121991266D02*
X127168067Y-121943647D01*
D11*
X69110266Y-116388809D02*
X68776933Y-116388809D01*
X68776933Y-116912619D02*
X68776933Y-115912619D01*
X68776933Y-115912619D02*
X69253123Y-115912619D01*
X70157885Y-116912619D02*
X69586457Y-116912619D01*
X69872171Y-116912619D02*
X69872171Y-115912619D01*
X69872171Y-115912619D02*
X69776933Y-116055476D01*
X69776933Y-116055476D02*
X69681695Y-116150714D01*
X69681695Y-116150714D02*
X69586457Y-116198333D01*
X29718095Y-126565819D02*
X29718095Y-125565819D01*
X29718095Y-126042009D02*
X30289523Y-126042009D01*
X30289523Y-126565819D02*
X30289523Y-125565819D01*
X30670476Y-125565819D02*
X31289523Y-125565819D01*
X31289523Y-125565819D02*
X30956190Y-125946771D01*
X30956190Y-125946771D02*
X31099047Y-125946771D01*
X31099047Y-125946771D02*
X31194285Y-125994390D01*
X31194285Y-125994390D02*
X31241904Y-126042009D01*
X31241904Y-126042009D02*
X31289523Y-126137247D01*
X31289523Y-126137247D02*
X31289523Y-126375342D01*
X31289523Y-126375342D02*
X31241904Y-126470580D01*
X31241904Y-126470580D02*
X31194285Y-126518200D01*
X31194285Y-126518200D02*
X31099047Y-126565819D01*
X31099047Y-126565819D02*
X30813333Y-126565819D01*
X30813333Y-126565819D02*
X30718095Y-126518200D01*
X30718095Y-126518200D02*
X30670476Y-126470580D01*
X151270619Y-44903733D02*
X151984904Y-44903733D01*
X151984904Y-44903733D02*
X152127761Y-44951352D01*
X152127761Y-44951352D02*
X152223000Y-45046590D01*
X152223000Y-45046590D02*
X152270619Y-45189447D01*
X152270619Y-45189447D02*
X152270619Y-45284685D01*
X151603952Y-43998971D02*
X152270619Y-43998971D01*
X151223000Y-44237066D02*
X151937285Y-44475161D01*
X151937285Y-44475161D02*
X151937285Y-43856114D01*
D12*
X147164980Y-64373695D02*
X146355457Y-64373695D01*
X146355457Y-64373695D02*
X146260219Y-64421314D01*
X146260219Y-64421314D02*
X146212600Y-64468933D01*
X146212600Y-64468933D02*
X146164980Y-64564171D01*
X146164980Y-64564171D02*
X146164980Y-64754647D01*
X146164980Y-64754647D02*
X146212600Y-64849885D01*
X146212600Y-64849885D02*
X146260219Y-64897504D01*
X146260219Y-64897504D02*
X146355457Y-64945123D01*
X146355457Y-64945123D02*
X147164980Y-64945123D01*
X146164980Y-65945123D02*
X146164980Y-65373695D01*
X146164980Y-65659409D02*
X147164980Y-65659409D01*
X147164980Y-65659409D02*
X147022123Y-65564171D01*
X147022123Y-65564171D02*
X146926885Y-65468933D01*
X146926885Y-65468933D02*
X146879266Y-65373695D01*
D11*
X155739219Y-66244933D02*
X156453504Y-66244933D01*
X156453504Y-66244933D02*
X156596361Y-66292552D01*
X156596361Y-66292552D02*
X156691600Y-66387790D01*
X156691600Y-66387790D02*
X156739219Y-66530647D01*
X156739219Y-66530647D02*
X156739219Y-66625885D01*
X155739219Y-65292552D02*
X155739219Y-65768742D01*
X155739219Y-65768742D02*
X156215409Y-65816361D01*
X156215409Y-65816361D02*
X156167790Y-65768742D01*
X156167790Y-65768742D02*
X156120171Y-65673504D01*
X156120171Y-65673504D02*
X156120171Y-65435409D01*
X156120171Y-65435409D02*
X156167790Y-65340171D01*
X156167790Y-65340171D02*
X156215409Y-65292552D01*
X156215409Y-65292552D02*
X156310647Y-65244933D01*
X156310647Y-65244933D02*
X156548742Y-65244933D01*
X156548742Y-65244933D02*
X156643980Y-65292552D01*
X156643980Y-65292552D02*
X156691600Y-65340171D01*
X156691600Y-65340171D02*
X156739219Y-65435409D01*
X156739219Y-65435409D02*
X156739219Y-65673504D01*
X156739219Y-65673504D02*
X156691600Y-65768742D01*
X156691600Y-65768742D02*
X156643980Y-65816361D01*
X45157819Y-121186533D02*
X45872104Y-121186533D01*
X45872104Y-121186533D02*
X46014961Y-121234152D01*
X46014961Y-121234152D02*
X46110200Y-121329390D01*
X46110200Y-121329390D02*
X46157819Y-121472247D01*
X46157819Y-121472247D02*
X46157819Y-121567485D01*
X46157819Y-120186533D02*
X46157819Y-120757961D01*
X46157819Y-120472247D02*
X45157819Y-120472247D01*
X45157819Y-120472247D02*
X45300676Y-120567485D01*
X45300676Y-120567485D02*
X45395914Y-120662723D01*
X45395914Y-120662723D02*
X45443533Y-120757961D01*
X116481266Y-114663619D02*
X116481266Y-115377904D01*
X116481266Y-115377904D02*
X116433647Y-115520761D01*
X116433647Y-115520761D02*
X116338409Y-115616000D01*
X116338409Y-115616000D02*
X116195552Y-115663619D01*
X116195552Y-115663619D02*
X116100314Y-115663619D01*
X116862219Y-114663619D02*
X117481266Y-114663619D01*
X117481266Y-114663619D02*
X117147933Y-115044571D01*
X117147933Y-115044571D02*
X117290790Y-115044571D01*
X117290790Y-115044571D02*
X117386028Y-115092190D01*
X117386028Y-115092190D02*
X117433647Y-115139809D01*
X117433647Y-115139809D02*
X117481266Y-115235047D01*
X117481266Y-115235047D02*
X117481266Y-115473142D01*
X117481266Y-115473142D02*
X117433647Y-115568380D01*
X117433647Y-115568380D02*
X117386028Y-115616000D01*
X117386028Y-115616000D02*
X117290790Y-115663619D01*
X117290790Y-115663619D02*
X117005076Y-115663619D01*
X117005076Y-115663619D02*
X116909838Y-115616000D01*
X116909838Y-115616000D02*
X116862219Y-115568380D01*
X29718095Y-26784819D02*
X29718095Y-25784819D01*
X29718095Y-26261009D02*
X30289523Y-26261009D01*
X30289523Y-26784819D02*
X30289523Y-25784819D01*
X31289523Y-26784819D02*
X30718095Y-26784819D01*
X31003809Y-26784819D02*
X31003809Y-25784819D01*
X31003809Y-25784819D02*
X30908571Y-25927676D01*
X30908571Y-25927676D02*
X30813333Y-26022914D01*
X30813333Y-26022914D02*
X30718095Y-26070533D01*
X140819666Y-115693618D02*
X140819666Y-116407903D01*
X140819666Y-116407903D02*
X140772047Y-116550760D01*
X140772047Y-116550760D02*
X140676809Y-116645999D01*
X140676809Y-116645999D02*
X140533952Y-116693618D01*
X140533952Y-116693618D02*
X140438714Y-116693618D01*
X141724428Y-115693618D02*
X141533952Y-115693618D01*
X141533952Y-115693618D02*
X141438714Y-115741237D01*
X141438714Y-115741237D02*
X141391095Y-115788856D01*
X141391095Y-115788856D02*
X141295857Y-115931713D01*
X141295857Y-115931713D02*
X141248238Y-116122189D01*
X141248238Y-116122189D02*
X141248238Y-116503141D01*
X141248238Y-116503141D02*
X141295857Y-116598379D01*
X141295857Y-116598379D02*
X141343476Y-116645999D01*
X141343476Y-116645999D02*
X141438714Y-116693618D01*
X141438714Y-116693618D02*
X141629190Y-116693618D01*
X141629190Y-116693618D02*
X141724428Y-116645999D01*
X141724428Y-116645999D02*
X141772047Y-116598379D01*
X141772047Y-116598379D02*
X141819666Y-116503141D01*
X141819666Y-116503141D02*
X141819666Y-116265046D01*
X141819666Y-116265046D02*
X141772047Y-116169808D01*
X141772047Y-116169808D02*
X141724428Y-116122189D01*
X141724428Y-116122189D02*
X141629190Y-116074570D01*
X141629190Y-116074570D02*
X141438714Y-116074570D01*
X141438714Y-116074570D02*
X141343476Y-116122189D01*
X141343476Y-116122189D02*
X141295857Y-116169808D01*
X141295857Y-116169808D02*
X141248238Y-116265046D01*
X99437866Y-114023619D02*
X99437866Y-114737904D01*
X99437866Y-114737904D02*
X99390247Y-114880761D01*
X99390247Y-114880761D02*
X99295009Y-114976000D01*
X99295009Y-114976000D02*
X99152152Y-115023619D01*
X99152152Y-115023619D02*
X99056914Y-115023619D01*
X99961676Y-115023619D02*
X100152152Y-115023619D01*
X100152152Y-115023619D02*
X100247390Y-114976000D01*
X100247390Y-114976000D02*
X100295009Y-114928380D01*
X100295009Y-114928380D02*
X100390247Y-114785523D01*
X100390247Y-114785523D02*
X100437866Y-114595047D01*
X100437866Y-114595047D02*
X100437866Y-114214095D01*
X100437866Y-114214095D02*
X100390247Y-114118857D01*
X100390247Y-114118857D02*
X100342628Y-114071238D01*
X100342628Y-114071238D02*
X100247390Y-114023619D01*
X100247390Y-114023619D02*
X100056914Y-114023619D01*
X100056914Y-114023619D02*
X99961676Y-114071238D01*
X99961676Y-114071238D02*
X99914057Y-114118857D01*
X99914057Y-114118857D02*
X99866438Y-114214095D01*
X99866438Y-114214095D02*
X99866438Y-114452190D01*
X99866438Y-114452190D02*
X99914057Y-114547428D01*
X99914057Y-114547428D02*
X99961676Y-114595047D01*
X99961676Y-114595047D02*
X100056914Y-114642666D01*
X100056914Y-114642666D02*
X100247390Y-114642666D01*
X100247390Y-114642666D02*
X100342628Y-114595047D01*
X100342628Y-114595047D02*
X100390247Y-114547428D01*
X100390247Y-114547428D02*
X100437866Y-114452190D01*
X151638095Y-126692819D02*
X151638095Y-125692819D01*
X151638095Y-126169009D02*
X152209523Y-126169009D01*
X152209523Y-126692819D02*
X152209523Y-125692819D01*
X153114285Y-126026152D02*
X153114285Y-126692819D01*
X152876190Y-125645200D02*
X152638095Y-126359485D01*
X152638095Y-126359485D02*
X153257142Y-126359485D01*
X62432414Y-28926619D02*
X62432414Y-27926619D01*
X62432414Y-27926619D02*
X62813366Y-27926619D01*
X62813366Y-27926619D02*
X62908604Y-27974238D01*
X62908604Y-27974238D02*
X62956223Y-28021857D01*
X62956223Y-28021857D02*
X63003842Y-28117095D01*
X63003842Y-28117095D02*
X63003842Y-28259952D01*
X63003842Y-28259952D02*
X62956223Y-28355190D01*
X62956223Y-28355190D02*
X62908604Y-28402809D01*
X62908604Y-28402809D02*
X62813366Y-28450428D01*
X62813366Y-28450428D02*
X62432414Y-28450428D01*
X63384795Y-28879000D02*
X63527652Y-28926619D01*
X63527652Y-28926619D02*
X63765747Y-28926619D01*
X63765747Y-28926619D02*
X63860985Y-28879000D01*
X63860985Y-28879000D02*
X63908604Y-28831380D01*
X63908604Y-28831380D02*
X63956223Y-28736142D01*
X63956223Y-28736142D02*
X63956223Y-28640904D01*
X63956223Y-28640904D02*
X63908604Y-28545666D01*
X63908604Y-28545666D02*
X63860985Y-28498047D01*
X63860985Y-28498047D02*
X63765747Y-28450428D01*
X63765747Y-28450428D02*
X63575271Y-28402809D01*
X63575271Y-28402809D02*
X63480033Y-28355190D01*
X63480033Y-28355190D02*
X63432414Y-28307571D01*
X63432414Y-28307571D02*
X63384795Y-28212333D01*
X63384795Y-28212333D02*
X63384795Y-28117095D01*
X63384795Y-28117095D02*
X63432414Y-28021857D01*
X63432414Y-28021857D02*
X63480033Y-27974238D01*
X63480033Y-27974238D02*
X63575271Y-27926619D01*
X63575271Y-27926619D02*
X63813366Y-27926619D01*
X63813366Y-27926619D02*
X63956223Y-27974238D01*
X64908604Y-28926619D02*
X64337176Y-28926619D01*
X64622890Y-28926619D02*
X64622890Y-27926619D01*
X64622890Y-27926619D02*
X64527652Y-28069476D01*
X64527652Y-28069476D02*
X64432414Y-28164714D01*
X64432414Y-28164714D02*
X64337176Y-28212333D01*
X125147866Y-114576819D02*
X125147866Y-115291104D01*
X125147866Y-115291104D02*
X125100247Y-115433961D01*
X125100247Y-115433961D02*
X125005009Y-115529200D01*
X125005009Y-115529200D02*
X124862152Y-115576819D01*
X124862152Y-115576819D02*
X124766914Y-115576819D01*
X125576438Y-114672057D02*
X125624057Y-114624438D01*
X125624057Y-114624438D02*
X125719295Y-114576819D01*
X125719295Y-114576819D02*
X125957390Y-114576819D01*
X125957390Y-114576819D02*
X126052628Y-114624438D01*
X126052628Y-114624438D02*
X126100247Y-114672057D01*
X126100247Y-114672057D02*
X126147866Y-114767295D01*
X126147866Y-114767295D02*
X126147866Y-114862533D01*
X126147866Y-114862533D02*
X126100247Y-115005390D01*
X126100247Y-115005390D02*
X125528819Y-115576819D01*
X125528819Y-115576819D02*
X126147866Y-115576819D01*
X107794466Y-114663619D02*
X107794466Y-115377904D01*
X107794466Y-115377904D02*
X107746847Y-115520761D01*
X107746847Y-115520761D02*
X107651609Y-115616000D01*
X107651609Y-115616000D02*
X107508752Y-115663619D01*
X107508752Y-115663619D02*
X107413514Y-115663619D01*
X108175419Y-114663619D02*
X108842085Y-114663619D01*
X108842085Y-114663619D02*
X108413514Y-115663619D01*
X155098419Y-57991333D02*
X155812704Y-57991333D01*
X155812704Y-57991333D02*
X155955561Y-58038952D01*
X155955561Y-58038952D02*
X156050800Y-58134190D01*
X156050800Y-58134190D02*
X156098419Y-58277047D01*
X156098419Y-58277047D02*
X156098419Y-58372285D01*
X155526990Y-57372285D02*
X155479371Y-57467523D01*
X155479371Y-57467523D02*
X155431752Y-57515142D01*
X155431752Y-57515142D02*
X155336514Y-57562761D01*
X155336514Y-57562761D02*
X155288895Y-57562761D01*
X155288895Y-57562761D02*
X155193657Y-57515142D01*
X155193657Y-57515142D02*
X155146038Y-57467523D01*
X155146038Y-57467523D02*
X155098419Y-57372285D01*
X155098419Y-57372285D02*
X155098419Y-57181809D01*
X155098419Y-57181809D02*
X155146038Y-57086571D01*
X155146038Y-57086571D02*
X155193657Y-57038952D01*
X155193657Y-57038952D02*
X155288895Y-56991333D01*
X155288895Y-56991333D02*
X155336514Y-56991333D01*
X155336514Y-56991333D02*
X155431752Y-57038952D01*
X155431752Y-57038952D02*
X155479371Y-57086571D01*
X155479371Y-57086571D02*
X155526990Y-57181809D01*
X155526990Y-57181809D02*
X155526990Y-57372285D01*
X155526990Y-57372285D02*
X155574609Y-57467523D01*
X155574609Y-57467523D02*
X155622228Y-57515142D01*
X155622228Y-57515142D02*
X155717466Y-57562761D01*
X155717466Y-57562761D02*
X155907942Y-57562761D01*
X155907942Y-57562761D02*
X156003180Y-57515142D01*
X156003180Y-57515142D02*
X156050800Y-57467523D01*
X156050800Y-57467523D02*
X156098419Y-57372285D01*
X156098419Y-57372285D02*
X156098419Y-57181809D01*
X156098419Y-57181809D02*
X156050800Y-57086571D01*
X156050800Y-57086571D02*
X156003180Y-57038952D01*
X156003180Y-57038952D02*
X155907942Y-56991333D01*
X155907942Y-56991333D02*
X155717466Y-56991333D01*
X155717466Y-56991333D02*
X155622228Y-57038952D01*
X155622228Y-57038952D02*
X155574609Y-57086571D01*
X155574609Y-57086571D02*
X155526990Y-57181809D01*
X151638095Y-26784819D02*
X151638095Y-25784819D01*
X151638095Y-26261009D02*
X152209523Y-26261009D01*
X152209523Y-26784819D02*
X152209523Y-25784819D01*
X152638095Y-25880057D02*
X152685714Y-25832438D01*
X152685714Y-25832438D02*
X152780952Y-25784819D01*
X152780952Y-25784819D02*
X153019047Y-25784819D01*
X153019047Y-25784819D02*
X153114285Y-25832438D01*
X153114285Y-25832438D02*
X153161904Y-25880057D01*
X153161904Y-25880057D02*
X153209523Y-25975295D01*
X153209523Y-25975295D02*
X153209523Y-26070533D01*
X153209523Y-26070533D02*
X153161904Y-26213390D01*
X153161904Y-26213390D02*
X152590476Y-26784819D01*
X152590476Y-26784819D02*
X153209523Y-26784819D01*
D13*
%TO.C,F1*%
X61343600Y-117357800D02*
X61343600Y-124297800D01*
X61343600Y-124297800D02*
X77543600Y-124297800D01*
X67843600Y-118827800D02*
X71043600Y-118827800D01*
X68693600Y-120827800D02*
X70193600Y-120827800D01*
X71043600Y-122827800D02*
X67843600Y-122827800D01*
X77543600Y-117357800D02*
X61343600Y-117357800D01*
X77543600Y-124297800D02*
X77543600Y-117357800D01*
%TO.C,J4*%
X147530800Y-50801400D02*
X147530800Y-40071400D01*
X149495800Y-38101400D02*
X150005800Y-38101400D01*
X150005800Y-36551400D02*
X151815800Y-36551400D01*
X150005800Y-38101400D02*
X150005800Y-36551400D01*
X151815800Y-50801400D02*
X147530800Y-50801400D01*
X151815800Y-50801400D02*
X156100800Y-50801400D01*
X153625800Y-36551400D02*
X151815800Y-36551400D01*
X153625800Y-38101400D02*
X153625800Y-36551400D01*
X156100800Y-38101400D02*
X153625800Y-38101400D01*
X156100800Y-50801400D02*
X156100800Y-38101400D01*
X156400800Y-48691400D02*
X156400800Y-51101400D01*
X156400800Y-51101400D02*
X153990800Y-51101400D01*
D12*
%TO.C,U1*%
X145785800Y-103235600D02*
X94985800Y-103235600D01*
X94985801Y-27035600D01*
X145785800Y-27035600D01*
X145785800Y-103235600D01*
D13*
%TO.C,J5*%
X151304400Y-60976600D02*
X151304400Y-70846600D01*
X151304400Y-70846600D02*
X154379400Y-70846600D01*
X154379400Y-60976600D02*
X151304400Y-60976600D01*
X155394400Y-62396600D02*
X155394400Y-69426600D01*
X155394400Y-69426600D02*
X155894400Y-69426600D01*
X155894400Y-62396600D02*
X155394400Y-62396600D01*
X155894400Y-62416600D02*
X155894400Y-62396600D01*
X155894400Y-69426600D02*
X155894400Y-69406600D01*
%TO.C,J1*%
X39443000Y-125438200D02*
X39443000Y-123028200D01*
X39743000Y-116568200D02*
X50473000Y-116568200D01*
X39743000Y-120853200D02*
X39743000Y-116568200D01*
X39743000Y-120853200D02*
X39743000Y-125138200D01*
X39743000Y-125138200D02*
X52442999Y-125138200D01*
X41853001Y-125438200D02*
X39443000Y-125438200D01*
X52442999Y-125138200D02*
X52443000Y-122663200D01*
X52443000Y-118533200D02*
X52443000Y-119043200D01*
X52443000Y-119043200D02*
X53993000Y-119043200D01*
X52443000Y-122663200D02*
X53993000Y-122663200D01*
X53993000Y-119043200D02*
X53992999Y-120853200D01*
X53993000Y-122663200D02*
X53992999Y-120853200D01*
%TO.C,J3*%
X114004600Y-110358799D02*
X115004600Y-110358800D01*
X114004600Y-120178800D02*
X114004600Y-110358799D01*
X115004600Y-108958800D02*
X116814600Y-108958800D01*
X115004600Y-110358800D02*
X115004600Y-108958800D01*
X116814600Y-120178800D02*
X114004600Y-120178800D01*
X116814600Y-120178800D02*
X119624600Y-120178800D01*
X117014600Y-120418800D02*
X119864600Y-120418800D01*
X118624600Y-108958800D02*
X116814600Y-108958800D01*
X118624600Y-110358800D02*
X118624600Y-108958800D01*
X119624600Y-110358799D02*
X118624600Y-110358800D01*
X119624600Y-120178800D02*
X119624600Y-110358799D01*
X119864600Y-120418800D02*
X119864600Y-117568800D01*
%TO.C,J6*%
X133133000Y-111341000D02*
X135018000Y-111341000D01*
X133133000Y-114861000D02*
X135018000Y-114861000D01*
X135018000Y-122546000D02*
X135018001Y-109846000D01*
X135018001Y-109846000D02*
X139342999Y-109846000D01*
X139342999Y-109846000D02*
X139343000Y-108296000D01*
X139343000Y-108296000D02*
X141153000Y-108296000D01*
X141153000Y-122546000D02*
X135018000Y-122546000D01*
X141153000Y-122546000D02*
X147288000Y-122546000D01*
X142963000Y-108296001D02*
X141153000Y-108296000D01*
X142963000Y-109846000D02*
X142963000Y-108296001D01*
X147288000Y-109846000D02*
X142963000Y-109846000D01*
X147288000Y-122546000D02*
X147288000Y-109846000D01*
X147588000Y-120436000D02*
X147588000Y-122846000D01*
X147588000Y-122846000D02*
X145178000Y-122846000D01*
X149173000Y-111341000D02*
X147288000Y-111341000D01*
X149173000Y-114861001D02*
X147288000Y-114861000D01*
X133133000Y-114861000D02*
G75*
G02*
X133133000Y-111341000I0J1760000D01*
G01*
X149173000Y-111341000D02*
G75*
G02*
X149173000Y-114861000I0J-1760000D01*
G01*
%TO.C,J9*%
X96961200Y-110358799D02*
X97961200Y-110358800D01*
X96961200Y-120178800D02*
X96961200Y-110358799D01*
X97961200Y-108958800D02*
X99771200Y-108958800D01*
X97961200Y-110358800D02*
X97961200Y-108958800D01*
X99771200Y-120178800D02*
X96961200Y-120178800D01*
X99771200Y-120178800D02*
X102581200Y-120178800D01*
X99971200Y-120418800D02*
X102821200Y-120418800D01*
X101581200Y-108958800D02*
X99771200Y-108958800D01*
X101581200Y-110358800D02*
X101581200Y-108958800D01*
X102581200Y-110358799D02*
X101581200Y-110358800D01*
X102581200Y-120178800D02*
X102581200Y-110358799D01*
X102821200Y-120418800D02*
X102821200Y-117568800D01*
%TO.C,PS1*%
X37204200Y-26300800D02*
X37204200Y-113700800D01*
X37204200Y-113700800D02*
X89604200Y-113700800D01*
X89604200Y-26300800D02*
X37204200Y-26300800D01*
X89604200Y-113700800D02*
X89604200Y-26300800D01*
X90104200Y-30500800D02*
X90104200Y-33000800D01*
%TO.C,J2*%
X122671200Y-110271999D02*
X123671200Y-110272000D01*
X122671200Y-120092000D02*
X122671200Y-110271999D01*
X123671200Y-108872000D02*
X125481200Y-108872000D01*
X123671200Y-110272000D02*
X123671200Y-108872000D01*
X125481200Y-120092000D02*
X122671200Y-120092000D01*
X125481200Y-120092000D02*
X128291200Y-120092000D01*
X125681200Y-120332000D02*
X128531200Y-120332000D01*
X127291200Y-108872000D02*
X125481200Y-108872000D01*
X127291200Y-110272000D02*
X127291200Y-108872000D01*
X128291200Y-110271999D02*
X127291200Y-110272000D01*
X128291200Y-120092000D02*
X128291200Y-110271999D01*
X128531200Y-120332000D02*
X128531200Y-117482000D01*
%TO.C,J7*%
X105317800Y-110358799D02*
X106317800Y-110358800D01*
X105317800Y-120178800D02*
X105317800Y-110358799D01*
X106317800Y-108958800D02*
X108127800Y-108958800D01*
X106317800Y-110358800D02*
X106317800Y-108958800D01*
X108127800Y-120178800D02*
X105317800Y-120178800D01*
X108127800Y-120178800D02*
X110937800Y-120178800D01*
X108327800Y-120418800D02*
X111177800Y-120418800D01*
X109937800Y-108958800D02*
X108127800Y-108958800D01*
X109937800Y-110358800D02*
X109937800Y-108958800D01*
X110937800Y-110358799D02*
X109937800Y-110358800D01*
X110937800Y-120178800D02*
X110937800Y-110358799D01*
X111177800Y-120418800D02*
X111177800Y-117568800D01*
%TO.C,J8*%
X149343600Y-56278000D02*
X149343600Y-59038000D01*
X151993600Y-56278000D02*
X149343600Y-56278000D01*
X151993600Y-56278000D02*
X151993600Y-59038000D01*
X151993600Y-59038000D02*
X149343600Y-59038000D01*
X153263600Y-56278001D02*
X154643600Y-56278000D01*
X154643600Y-56278000D02*
X154643599Y-57658000D01*
%TD*%
M02*
