%TF.GenerationSoftware,KiCad,Pcbnew,9.0.4*%
%TF.CreationDate,2026-03-16T14:26:36-04:00*%
%TF.ProjectId,Power Board,506f7765-7220-4426-9f61-72642e6b6963,rev?*%
%TF.SameCoordinates,Original*%
%TF.FileFunction,Copper,L1,Top*%
%TF.FilePolarity,Positive*%
%FSLAX46Y46*%
G04 Gerber Fmt 4.6, Leading zero omitted, Abs format (unit mm)*
G04 Created by KiCad (PCBNEW 9.0.4) date 2026-03-16 14:26:36*
%MOMM*%
%LPD*%
G01*
G04 APERTURE LIST*
G04 Aperture macros list*
%AMRoundRect*
0 Rectangle with rounded corners*
0 $1 Rounding radius*
0 $2 $3 $4 $5 $6 $7 $8 $9 X,Y pos of 4 corners*
0 Add a 4 corners polygon primitive as box body*
4,1,4,$2,$3,$4,$5,$6,$7,$8,$9,$2,$3,0*
0 Add four circle primitives for the rounded corners*
1,1,$1+$1,$2,$3*
1,1,$1+$1,$4,$5*
1,1,$1+$1,$6,$7*
1,1,$1+$1,$8,$9*
0 Add four rect primitives between the rounded corners*
20,1,$1+$1,$2,$3,$4,$5,0*
20,1,$1+$1,$4,$5,$6,$7,0*
20,1,$1+$1,$6,$7,$8,$9,0*
20,1,$1+$1,$8,$9,$2,$3,0*%
G04 Aperture macros list end*
%TA.AperFunction,ComponentPad*%
%ADD10C,2.780000*%
%TD*%
%TA.AperFunction,ComponentPad*%
%ADD11RoundRect,0.250002X1.599998X1.599998X-1.599998X1.599998X-1.599998X-1.599998X1.599998X-1.599998X0*%
%TD*%
%TA.AperFunction,ComponentPad*%
%ADD12C,3.700000*%
%TD*%
%TA.AperFunction,ComponentPad*%
%ADD13C,2.500000*%
%TD*%
%TA.AperFunction,ComponentPad*%
%ADD14RoundRect,0.250001X-0.759999X0.499999X-0.759999X-0.499999X0.759999X-0.499999X0.759999X0.499999X0*%
%TD*%
%TA.AperFunction,ComponentPad*%
%ADD15O,2.020000X1.500000*%
%TD*%
%TA.AperFunction,ComponentPad*%
%ADD16RoundRect,0.250002X1.599998X-1.599998X1.599998X1.599998X-1.599998X1.599998X-1.599998X-1.599998X0*%
%TD*%
%TA.AperFunction,ComponentPad*%
%ADD17RoundRect,0.250001X1.099999X1.399999X-1.099999X1.399999X-1.099999X-1.399999X1.099999X-1.399999X0*%
%TD*%
%TA.AperFunction,ComponentPad*%
%ADD18O,2.700000X3.300000*%
%TD*%
%TA.AperFunction,ComponentPad*%
%ADD19R,2.500000X2.500000*%
%TD*%
%TA.AperFunction,ComponentPad*%
%ADD20C,4.000000*%
%TD*%
%TA.AperFunction,ComponentPad*%
%ADD21R,1.700000X1.700000*%
%TD*%
%TA.AperFunction,ComponentPad*%
%ADD22C,1.700000*%
%TD*%
G04 APERTURE END LIST*
D10*
%TO.P,F1,1*%
%TO.N,Net-(F1-Pad1)*%
X64483600Y-119127800D03*
X64483600Y-122527800D03*
%TO.P,F1,2*%
%TO.N,+12V*%
X74403600Y-119127800D03*
X74403600Y-122527800D03*
%TD*%
D11*
%TO.P,J4,1,1*%
%TO.N,/AC_Neutral*%
X151815800Y-47381400D03*
D12*
%TO.P,J4,2,2*%
%TO.N,/AC_Line*%
X151815800Y-41681400D03*
%TD*%
D13*
%TO.P,U1,1,Frame_GND*%
%TO.N,Net-(U1-Frame_GND)*%
X100385800Y-30835600D03*
%TO.P,U1,2,AC_Neutral*%
%TO.N,/AC_Neutral*%
X120385800Y-30835600D03*
%TO.P,U1,3,AC_Line*%
%TO.N,/AC_Line*%
X140385800Y-30835600D03*
%TO.P,U1,4,-Vo*%
%TO.N,-24V*%
X108885800Y-99435600D03*
%TO.P,U1,5,Com*%
%TO.N,GND*%
X120385800Y-99435600D03*
%TO.P,U1,6,+Vo*%
%TO.N,+24V*%
X131885800Y-99435600D03*
%TD*%
D14*
%TO.P,J5,1,1*%
%TO.N,/Earth_GND*%
X153314400Y-64411600D03*
D15*
%TO.P,J5,2,2*%
X153314400Y-67411600D03*
%TD*%
D16*
%TO.P,J1,1,1*%
%TO.N,Net-(PS1-+Vout)*%
X43163000Y-120853200D03*
D12*
%TO.P,J1,2,2*%
%TO.N,Net-(F1-Pad1)*%
X48863000Y-120853200D03*
%TD*%
D17*
%TO.P,J3,1,1*%
%TO.N,GND*%
X116814600Y-117818800D03*
D18*
%TO.P,J3,2,2*%
%TO.N,+12V*%
X116814600Y-112318800D03*
%TD*%
D11*
%TO.P,J6,1,Pin_1*%
%TO.N,GND*%
X144003000Y-119126000D03*
D12*
%TO.P,J6,2,Pin_2*%
X138303000Y-119126000D03*
%TO.P,J6,3,Pin_3*%
%TO.N,-24V*%
X144003000Y-113426000D03*
%TO.P,J6,4,Pin_4*%
%TO.N,+24V*%
X138303000Y-113426000D03*
%TD*%
D17*
%TO.P,J9,1,1*%
%TO.N,GND*%
X99771200Y-117818800D03*
D18*
%TO.P,J9,2,2*%
%TO.N,+12V*%
X99771200Y-112318800D03*
%TD*%
D19*
%TO.P,PS1,1,AC/L*%
%TO.N,/AC_Line*%
X84404200Y-31800800D03*
D13*
%TO.P,PS1,2,AC/N*%
%TO.N,/AC_Neutral*%
X77654200Y-31800800D03*
D20*
%TO.P,PS1,3,+Vout*%
%TO.N,Net-(PS1-+Vout)*%
X43154200Y-107800800D03*
%TO.P,PS1,4,-Vout*%
%TO.N,GND*%
X48654200Y-107800800D03*
%TD*%
D17*
%TO.P,J2,1,1*%
%TO.N,GND*%
X125481200Y-117732000D03*
D18*
%TO.P,J2,2,2*%
%TO.N,+12V*%
X125481200Y-112232000D03*
%TD*%
D17*
%TO.P,J7,1,1*%
%TO.N,GND*%
X108127800Y-117818800D03*
D18*
%TO.P,J7,2,2*%
%TO.N,+12V*%
X108127800Y-112318800D03*
%TD*%
D21*
%TO.P,J8,1,1*%
%TO.N,/Earth_GND*%
X153263600Y-57658000D03*
D22*
%TO.P,J8,2,2*%
%TO.N,Net-(U1-Frame_GND)*%
X150723600Y-57658000D03*
%TD*%
%TA.AperFunction,Conductor*%
%TO.N,Net-(U1-Frame_GND)*%
G36*
X103479649Y-25445185D02*
G01*
X103525404Y-25497989D01*
X103536601Y-25548033D01*
X103861554Y-53009798D01*
X103861555Y-53009800D01*
X157330500Y-53009800D01*
X157397539Y-53029485D01*
X157443294Y-53082289D01*
X157454500Y-53133800D01*
X157454500Y-59870800D01*
X157434815Y-59937839D01*
X157382011Y-59983594D01*
X157330500Y-59994800D01*
X95293245Y-59994800D01*
X95226206Y-59975115D01*
X95180451Y-59922311D01*
X95169245Y-59871110D01*
X95167074Y-59002091D01*
X95161474Y-56760135D01*
X151913100Y-56760135D01*
X151913100Y-58555870D01*
X151913101Y-58555876D01*
X151919508Y-58615483D01*
X151969802Y-58750328D01*
X151969806Y-58750335D01*
X152056052Y-58865544D01*
X152056055Y-58865547D01*
X152171264Y-58951793D01*
X152171271Y-58951797D01*
X152306117Y-59002091D01*
X152306116Y-59002091D01*
X152313044Y-59002835D01*
X152365727Y-59008500D01*
X154161472Y-59008499D01*
X154221083Y-59002091D01*
X154355931Y-58951796D01*
X154471146Y-58865546D01*
X154557396Y-58750331D01*
X154607691Y-58615483D01*
X154614100Y-58555873D01*
X154614099Y-56760128D01*
X154607691Y-56700517D01*
X154557396Y-56565669D01*
X154557395Y-56565668D01*
X154557393Y-56565664D01*
X154471147Y-56450455D01*
X154471144Y-56450452D01*
X154355935Y-56364206D01*
X154355928Y-56364202D01*
X154221082Y-56313908D01*
X154221083Y-56313908D01*
X154161483Y-56307501D01*
X154161481Y-56307500D01*
X154161473Y-56307500D01*
X154161464Y-56307500D01*
X152365729Y-56307500D01*
X152365723Y-56307501D01*
X152306116Y-56313908D01*
X152171271Y-56364202D01*
X152171264Y-56364206D01*
X152056055Y-56450452D01*
X152056052Y-56450455D01*
X151969806Y-56565664D01*
X151969802Y-56565671D01*
X151919508Y-56700517D01*
X151913101Y-56760116D01*
X151913101Y-56760123D01*
X151913100Y-56760135D01*
X95161474Y-56760135D01*
X95133621Y-45609981D01*
X95083513Y-25549810D01*
X95103030Y-25482721D01*
X95155720Y-25436835D01*
X95207513Y-25425500D01*
X103412610Y-25425500D01*
X103479649Y-25445185D01*
G37*
%TD.AperFunction*%
%TD*%
%TA.AperFunction,Conductor*%
%TO.N,GND*%
G36*
X157330661Y-95777238D02*
G01*
X157397671Y-95797006D01*
X157443359Y-95849868D01*
X157454500Y-95901237D01*
X157454500Y-121917438D01*
X157454394Y-121922562D01*
X157437448Y-122332268D01*
X157436602Y-122342482D01*
X157386197Y-122746854D01*
X157384510Y-122756963D01*
X157300886Y-123155787D01*
X157298370Y-123165722D01*
X157182095Y-123556281D01*
X157178767Y-123565974D01*
X157030638Y-123945596D01*
X157026521Y-123954981D01*
X156847557Y-124321057D01*
X156842680Y-124330071D01*
X156634077Y-124680152D01*
X156628471Y-124688731D01*
X156391697Y-125020355D01*
X156385402Y-125028443D01*
X156122025Y-125339412D01*
X156115084Y-125346952D01*
X155826952Y-125635084D01*
X155819412Y-125642025D01*
X155508443Y-125905402D01*
X155500355Y-125911697D01*
X155168731Y-126148471D01*
X155160152Y-126154077D01*
X154810071Y-126362680D01*
X154801057Y-126367557D01*
X154434981Y-126546521D01*
X154425596Y-126550638D01*
X154045974Y-126698767D01*
X154036281Y-126702095D01*
X153645722Y-126818370D01*
X153635787Y-126820886D01*
X153236963Y-126904510D01*
X153226854Y-126906197D01*
X152822482Y-126956602D01*
X152812268Y-126957448D01*
X152402563Y-126974394D01*
X152397439Y-126974500D01*
X30482561Y-126974500D01*
X30477437Y-126974394D01*
X30067731Y-126957448D01*
X30057517Y-126956602D01*
X29653145Y-126906197D01*
X29643036Y-126904510D01*
X29244212Y-126820886D01*
X29234277Y-126818370D01*
X28843718Y-126702095D01*
X28834025Y-126698767D01*
X28454403Y-126550638D01*
X28445018Y-126546521D01*
X28078942Y-126367557D01*
X28069928Y-126362680D01*
X27719847Y-126154077D01*
X27711268Y-126148471D01*
X27379644Y-125911697D01*
X27371556Y-125905402D01*
X27060587Y-125642025D01*
X27053047Y-125635084D01*
X26764915Y-125346952D01*
X26757974Y-125339412D01*
X26494597Y-125028443D01*
X26488302Y-125020355D01*
X26415436Y-124918300D01*
X26251528Y-124688731D01*
X26245922Y-124680152D01*
X26037319Y-124330071D01*
X26032442Y-124321057D01*
X25853478Y-123954981D01*
X25849361Y-123945596D01*
X25783761Y-123777477D01*
X25701227Y-123565962D01*
X25697908Y-123556294D01*
X25581625Y-123165709D01*
X25579116Y-123155801D01*
X25495486Y-122756949D01*
X25493804Y-122746869D01*
X25443395Y-122342461D01*
X25442552Y-122332288D01*
X25425606Y-121922562D01*
X25425500Y-121917438D01*
X25425500Y-121743119D01*
X26879500Y-121743119D01*
X26879500Y-122096881D01*
X26882442Y-122126751D01*
X26914173Y-122448929D01*
X26914176Y-122448946D01*
X26983185Y-122795884D01*
X26983188Y-122795895D01*
X27085882Y-123134436D01*
X27109158Y-123190629D01*
X27202932Y-123417020D01*
X27221262Y-123461271D01*
X27221264Y-123461276D01*
X27388017Y-123773247D01*
X27388028Y-123773265D01*
X27584558Y-124067393D01*
X27584568Y-124067407D01*
X27808992Y-124340869D01*
X28059130Y-124591007D01*
X28059135Y-124591011D01*
X28059136Y-124591012D01*
X28332598Y-124815436D01*
X28626741Y-125011976D01*
X28626750Y-125011981D01*
X28626752Y-125011982D01*
X28938723Y-125178735D01*
X28938725Y-125178735D01*
X28938731Y-125178739D01*
X29265565Y-125314118D01*
X29604095Y-125416809D01*
X29604101Y-125416810D01*
X29604104Y-125416811D01*
X29604115Y-125416814D01*
X29821674Y-125460088D01*
X29951060Y-125485825D01*
X30303119Y-125520500D01*
X30303122Y-125520500D01*
X30656878Y-125520500D01*
X30656881Y-125520500D01*
X31008940Y-125485825D01*
X31180679Y-125451663D01*
X31355884Y-125416814D01*
X31355895Y-125416811D01*
X31355895Y-125416810D01*
X31355905Y-125416809D01*
X31694435Y-125314118D01*
X32021269Y-125178739D01*
X32333259Y-125011976D01*
X32627402Y-124815436D01*
X32900864Y-124591012D01*
X33151012Y-124340864D01*
X33375436Y-124067402D01*
X33571976Y-123773259D01*
X33738739Y-123461269D01*
X33874118Y-123134435D01*
X33976809Y-122795905D01*
X33976811Y-122795895D01*
X33976814Y-122795884D01*
X34025314Y-122552053D01*
X34045825Y-122448940D01*
X34080500Y-122096881D01*
X34080500Y-121743119D01*
X34045825Y-121391060D01*
X33996345Y-121142307D01*
X33976814Y-121044115D01*
X33976811Y-121044104D01*
X33976810Y-121044101D01*
X33976809Y-121044095D01*
X33874118Y-120705565D01*
X33738739Y-120378731D01*
X33736729Y-120374971D01*
X33571982Y-120066752D01*
X33571981Y-120066750D01*
X33571976Y-120066741D01*
X33375436Y-119772598D01*
X33151012Y-119499136D01*
X33151011Y-119499135D01*
X33151007Y-119499130D01*
X32900869Y-119248992D01*
X32827727Y-119188966D01*
X40312500Y-119188966D01*
X40312500Y-122517433D01*
X40322903Y-122649611D01*
X40322904Y-122649618D01*
X40377901Y-122867877D01*
X40377902Y-122867880D01*
X40470990Y-123072823D01*
X40470996Y-123072832D01*
X40599173Y-123257845D01*
X40599177Y-123257850D01*
X40599180Y-123257854D01*
X40758346Y-123417020D01*
X40758350Y-123417023D01*
X40758354Y-123417026D01*
X40864939Y-123490868D01*
X40943374Y-123545208D01*
X41148318Y-123638297D01*
X41148322Y-123638298D01*
X41366581Y-123693295D01*
X41366583Y-123693295D01*
X41366590Y-123693297D01*
X41498772Y-123703700D01*
X41498780Y-123703700D01*
X44827220Y-123703700D01*
X44827228Y-123703700D01*
X44959410Y-123693297D01*
X45177682Y-123638297D01*
X45382626Y-123545208D01*
X45567654Y-123417020D01*
X45726820Y-123257854D01*
X45855008Y-123072826D01*
X45948097Y-122867882D01*
X46003097Y-122649610D01*
X46013500Y-122517428D01*
X46013500Y-122049164D01*
X46033185Y-121982125D01*
X46085989Y-121936370D01*
X46155147Y-121926426D01*
X46218703Y-121955451D01*
X46249220Y-121995362D01*
X46364243Y-122234210D01*
X46364245Y-122234213D01*
X46534581Y-122505301D01*
X46734198Y-122755613D01*
X46960587Y-122982002D01*
X47210899Y-123181619D01*
X47481987Y-123351955D01*
X47770442Y-123490868D01*
X48072637Y-123596610D01*
X48384771Y-123667853D01*
X48702915Y-123703699D01*
X48702916Y-123703700D01*
X48702919Y-123703700D01*
X49023084Y-123703700D01*
X49023084Y-123703699D01*
X49341229Y-123667853D01*
X49653363Y-123596610D01*
X49955558Y-123490868D01*
X50244013Y-123351955D01*
X50515101Y-123181619D01*
X50765413Y-122982002D01*
X50991802Y-122755613D01*
X51191419Y-122505301D01*
X51361755Y-122234213D01*
X51500668Y-121945758D01*
X51606410Y-121643563D01*
X51677653Y-121331429D01*
X51713500Y-121013281D01*
X51713500Y-120693119D01*
X51677653Y-120374971D01*
X51606410Y-120062837D01*
X51500668Y-119760642D01*
X51361755Y-119472187D01*
X51191419Y-119201099D01*
X51191417Y-119201096D01*
X51191416Y-119201094D01*
X51084789Y-119067388D01*
X51084787Y-119067386D01*
X51025902Y-118993547D01*
X62093100Y-118993547D01*
X62093100Y-119262052D01*
X62123160Y-119528848D01*
X62182906Y-119790617D01*
X62182910Y-119790629D01*
X62271583Y-120044039D01*
X62271592Y-120044061D01*
X62388077Y-120285946D01*
X62388081Y-120285952D01*
X62530930Y-120513294D01*
X62655819Y-120669899D01*
X62698333Y-120723211D01*
X62715241Y-120740119D01*
X62748726Y-120801442D01*
X62743742Y-120871134D01*
X62715241Y-120915481D01*
X62698333Y-120932388D01*
X62530929Y-121142307D01*
X62388077Y-121369653D01*
X62271592Y-121611538D01*
X62271583Y-121611560D01*
X62182910Y-121864970D01*
X62182906Y-121864982D01*
X62123160Y-122126751D01*
X62093100Y-122393547D01*
X62093100Y-122662052D01*
X62123160Y-122928848D01*
X62182906Y-123190617D01*
X62182910Y-123190629D01*
X62271583Y-123444039D01*
X62271592Y-123444061D01*
X62388077Y-123685946D01*
X62392696Y-123693297D01*
X62530930Y-123913294D01*
X62698334Y-124123212D01*
X62888188Y-124313066D01*
X63098106Y-124480470D01*
X63274024Y-124591007D01*
X63325453Y-124623322D01*
X63567338Y-124739807D01*
X63567347Y-124739810D01*
X63567354Y-124739814D01*
X63567360Y-124739816D01*
X63820770Y-124828489D01*
X63820782Y-124828493D01*
X64082545Y-124888238D01*
X64082548Y-124888238D01*
X64082551Y-124888239D01*
X64082550Y-124888239D01*
X64215948Y-124903269D01*
X64349348Y-124918299D01*
X64349349Y-124918300D01*
X64349352Y-124918300D01*
X64617851Y-124918300D01*
X64617851Y-124918299D01*
X64810534Y-124896589D01*
X64884648Y-124888239D01*
X64884649Y-124888238D01*
X64884655Y-124888238D01*
X65146418Y-124828493D01*
X65399846Y-124739814D01*
X65523737Y-124680152D01*
X65641746Y-124623322D01*
X65641746Y-124623321D01*
X65641752Y-124623319D01*
X65869094Y-124480470D01*
X66079012Y-124313066D01*
X66268866Y-124123212D01*
X66436270Y-123913294D01*
X66579119Y-123685952D01*
X66579122Y-123685946D01*
X66695607Y-123444061D01*
X66695608Y-123444057D01*
X66695614Y-123444046D01*
X66784293Y-123190618D01*
X66844038Y-122928855D01*
X66874100Y-122662048D01*
X66874100Y-122393552D01*
X66844038Y-122126745D01*
X66784293Y-121864982D01*
X66695614Y-121611554D01*
X66695610Y-121611547D01*
X66695607Y-121611538D01*
X66579122Y-121369653D01*
X66555104Y-121331429D01*
X66436270Y-121142306D01*
X66268866Y-120932388D01*
X66251959Y-120915481D01*
X66218474Y-120854158D01*
X66223458Y-120784466D01*
X66251959Y-120740119D01*
X66268866Y-120723212D01*
X66436270Y-120513294D01*
X66579119Y-120285952D01*
X66579122Y-120285946D01*
X66695607Y-120044061D01*
X66695608Y-120044057D01*
X66695614Y-120044046D01*
X66784293Y-119790618D01*
X66844038Y-119528855D01*
X66874100Y-119262048D01*
X66874100Y-118993552D01*
X66874099Y-118993547D01*
X72013100Y-118993547D01*
X72013100Y-119262052D01*
X72043160Y-119528848D01*
X72102906Y-119790617D01*
X72102910Y-119790629D01*
X72191583Y-120044039D01*
X72191592Y-120044061D01*
X72308077Y-120285946D01*
X72308081Y-120285952D01*
X72450930Y-120513294D01*
X72575819Y-120669899D01*
X72618333Y-120723211D01*
X72635241Y-120740119D01*
X72668726Y-120801442D01*
X72663742Y-120871134D01*
X72635241Y-120915481D01*
X72618333Y-120932388D01*
X72450929Y-121142307D01*
X72308077Y-121369653D01*
X72191592Y-121611538D01*
X72191583Y-121611560D01*
X72102910Y-121864970D01*
X72102906Y-121864982D01*
X72043160Y-122126751D01*
X72013100Y-122393547D01*
X72013100Y-122662052D01*
X72043160Y-122928848D01*
X72102906Y-123190617D01*
X72102910Y-123190629D01*
X72191583Y-123444039D01*
X72191592Y-123444061D01*
X72308077Y-123685946D01*
X72312696Y-123693297D01*
X72450930Y-123913294D01*
X72618334Y-124123212D01*
X72808188Y-124313066D01*
X73018106Y-124480470D01*
X73194024Y-124591007D01*
X73245453Y-124623322D01*
X73487338Y-124739807D01*
X73487347Y-124739810D01*
X73487354Y-124739814D01*
X73487360Y-124739816D01*
X73740770Y-124828489D01*
X73740782Y-124828493D01*
X74002545Y-124888238D01*
X74002548Y-124888238D01*
X74002551Y-124888239D01*
X74002550Y-124888239D01*
X74135948Y-124903269D01*
X74269348Y-124918299D01*
X74269349Y-124918300D01*
X74269352Y-124918300D01*
X74537851Y-124918300D01*
X74537851Y-124918299D01*
X74730534Y-124896589D01*
X74804648Y-124888239D01*
X74804649Y-124888238D01*
X74804655Y-124888238D01*
X75066418Y-124828493D01*
X75319846Y-124739814D01*
X75443737Y-124680152D01*
X75561746Y-124623322D01*
X75561746Y-124623321D01*
X75561752Y-124623319D01*
X75789094Y-124480470D01*
X75999012Y-124313066D01*
X76188866Y-124123212D01*
X76356270Y-123913294D01*
X76499119Y-123685952D01*
X76499122Y-123685946D01*
X76615607Y-123444061D01*
X76615608Y-123444057D01*
X76615614Y-123444046D01*
X76704293Y-123190618D01*
X76764038Y-122928855D01*
X76794100Y-122662048D01*
X76794100Y-122393552D01*
X76764038Y-122126745D01*
X76704293Y-121864982D01*
X76661651Y-121743119D01*
X148799500Y-121743119D01*
X148799500Y-122096881D01*
X148802442Y-122126751D01*
X148834173Y-122448929D01*
X148834176Y-122448946D01*
X148903185Y-122795884D01*
X148903188Y-122795895D01*
X149005882Y-123134436D01*
X149029158Y-123190629D01*
X149122932Y-123417020D01*
X149141262Y-123461271D01*
X149141264Y-123461276D01*
X149308017Y-123773247D01*
X149308028Y-123773265D01*
X149504558Y-124067393D01*
X149504568Y-124067407D01*
X149728992Y-124340869D01*
X149979130Y-124591007D01*
X149979135Y-124591011D01*
X149979136Y-124591012D01*
X150252598Y-124815436D01*
X150546741Y-125011976D01*
X150546750Y-125011981D01*
X150546752Y-125011982D01*
X150858723Y-125178735D01*
X150858725Y-125178735D01*
X150858731Y-125178739D01*
X151185565Y-125314118D01*
X151524095Y-125416809D01*
X151524101Y-125416810D01*
X151524104Y-125416811D01*
X151524115Y-125416814D01*
X151741674Y-125460088D01*
X151871060Y-125485825D01*
X152223119Y-125520500D01*
X152223122Y-125520500D01*
X152576878Y-125520500D01*
X152576881Y-125520500D01*
X152928940Y-125485825D01*
X153100679Y-125451663D01*
X153275884Y-125416814D01*
X153275895Y-125416811D01*
X153275895Y-125416810D01*
X153275905Y-125416809D01*
X153614435Y-125314118D01*
X153941269Y-125178739D01*
X154253259Y-125011976D01*
X154547402Y-124815436D01*
X154820864Y-124591012D01*
X155071012Y-124340864D01*
X155295436Y-124067402D01*
X155491976Y-123773259D01*
X155658739Y-123461269D01*
X155794118Y-123134435D01*
X155896809Y-122795905D01*
X155896811Y-122795895D01*
X155896814Y-122795884D01*
X155945314Y-122552053D01*
X155965825Y-122448940D01*
X156000500Y-122096881D01*
X156000500Y-121743119D01*
X155965825Y-121391060D01*
X155916345Y-121142307D01*
X155896814Y-121044115D01*
X155896811Y-121044104D01*
X155896810Y-121044101D01*
X155896809Y-121044095D01*
X155794118Y-120705565D01*
X155658739Y-120378731D01*
X155656729Y-120374971D01*
X155491982Y-120066752D01*
X155491981Y-120066750D01*
X155491976Y-120066741D01*
X155295436Y-119772598D01*
X155071012Y-119499136D01*
X155071011Y-119499135D01*
X155071007Y-119499130D01*
X154820869Y-119248992D01*
X154547407Y-119024568D01*
X154547406Y-119024567D01*
X154547402Y-119024564D01*
X154253259Y-118828024D01*
X154253254Y-118828021D01*
X154253247Y-118828017D01*
X153941276Y-118661264D01*
X153941271Y-118661262D01*
X153614436Y-118525882D01*
X153275895Y-118423188D01*
X153275884Y-118423185D01*
X152928946Y-118354176D01*
X152928929Y-118354173D01*
X152662700Y-118327952D01*
X152576881Y-118319500D01*
X152223119Y-118319500D01*
X152143748Y-118327317D01*
X151871070Y-118354173D01*
X151871053Y-118354176D01*
X151524115Y-118423185D01*
X151524104Y-118423188D01*
X151185563Y-118525882D01*
X150858728Y-118661262D01*
X150858723Y-118661264D01*
X150546752Y-118828017D01*
X150546734Y-118828028D01*
X150252606Y-119024558D01*
X150252592Y-119024568D01*
X149979130Y-119248992D01*
X149728992Y-119499130D01*
X149504568Y-119772592D01*
X149504558Y-119772606D01*
X149308028Y-120066734D01*
X149308017Y-120066752D01*
X149141264Y-120378723D01*
X149141262Y-120378728D01*
X149005882Y-120705563D01*
X148903188Y-121044104D01*
X148903185Y-121044115D01*
X148834176Y-121391053D01*
X148834173Y-121391070D01*
X148809305Y-121643563D01*
X148799500Y-121743119D01*
X76661651Y-121743119D01*
X76615614Y-121611554D01*
X76615610Y-121611547D01*
X76615607Y-121611538D01*
X76499122Y-121369653D01*
X76475104Y-121331429D01*
X76356270Y-121142306D01*
X76188866Y-120932388D01*
X76171959Y-120915481D01*
X76138474Y-120854158D01*
X76143458Y-120784466D01*
X76171959Y-120740119D01*
X76188866Y-120723212D01*
X76356270Y-120513294D01*
X76499119Y-120285952D01*
X76499122Y-120285946D01*
X76615607Y-120044061D01*
X76615608Y-120044057D01*
X76615614Y-120044046D01*
X76704293Y-119790618D01*
X76764038Y-119528855D01*
X76794100Y-119262048D01*
X76794100Y-118993552D01*
X76764038Y-118726745D01*
X76704293Y-118464982D01*
X76698540Y-118448542D01*
X76615616Y-118211560D01*
X76615607Y-118211538D01*
X76499122Y-117969653D01*
X76499119Y-117969648D01*
X76356270Y-117742306D01*
X76188866Y-117532388D01*
X75999012Y-117342534D01*
X75789094Y-117175130D01*
X75561752Y-117032281D01*
X75561753Y-117032281D01*
X75561746Y-117032277D01*
X75319861Y-116915792D01*
X75319839Y-116915783D01*
X75066429Y-116827110D01*
X75066417Y-116827106D01*
X74804648Y-116767360D01*
X74804649Y-116767360D01*
X74537852Y-116737300D01*
X74537848Y-116737300D01*
X74269352Y-116737300D01*
X74269347Y-116737300D01*
X74002551Y-116767360D01*
X73740782Y-116827106D01*
X73740770Y-116827110D01*
X73487360Y-116915783D01*
X73487338Y-116915792D01*
X73245453Y-117032277D01*
X73018107Y-117175129D01*
X72808188Y-117342533D01*
X72618333Y-117532388D01*
X72450929Y-117742307D01*
X72308077Y-117969653D01*
X72191592Y-118211538D01*
X72191583Y-118211560D01*
X72102910Y-118464970D01*
X72102906Y-118464982D01*
X72043160Y-118726751D01*
X72013100Y-118993547D01*
X66874099Y-118993547D01*
X66844038Y-118726745D01*
X66784293Y-118464982D01*
X66778540Y-118448542D01*
X66695616Y-118211560D01*
X66695607Y-118211538D01*
X66579122Y-117969653D01*
X66579119Y-117969648D01*
X66436270Y-117742306D01*
X66268866Y-117532388D01*
X66079012Y-117342534D01*
X65869094Y-117175130D01*
X65641752Y-117032281D01*
X65641753Y-117032281D01*
X65641746Y-117032277D01*
X65399861Y-116915792D01*
X65399839Y-116915783D01*
X65146429Y-116827110D01*
X65146417Y-116827106D01*
X64884648Y-116767360D01*
X64884649Y-116767360D01*
X64617852Y-116737300D01*
X64617848Y-116737300D01*
X64349352Y-116737300D01*
X64349347Y-116737300D01*
X64082551Y-116767360D01*
X63820782Y-116827106D01*
X63820770Y-116827110D01*
X63567360Y-116915783D01*
X63567338Y-116915792D01*
X63325453Y-117032277D01*
X63098107Y-117175129D01*
X62888188Y-117342533D01*
X62698333Y-117532388D01*
X62530929Y-117742307D01*
X62388077Y-117969653D01*
X62271592Y-118211538D01*
X62271583Y-118211560D01*
X62182910Y-118464970D01*
X62182906Y-118464982D01*
X62123160Y-118726751D01*
X62093100Y-118993547D01*
X51025902Y-118993547D01*
X50991802Y-118950787D01*
X50765412Y-118724397D01*
X50651514Y-118633567D01*
X50515101Y-118524781D01*
X50248391Y-118357196D01*
X50244010Y-118354443D01*
X49955559Y-118215532D01*
X49653364Y-118109790D01*
X49653362Y-118109789D01*
X49412471Y-118054807D01*
X49341229Y-118038547D01*
X49341225Y-118038546D01*
X49341216Y-118038545D01*
X49023085Y-118002700D01*
X49023081Y-118002700D01*
X48702919Y-118002700D01*
X48702914Y-118002700D01*
X48384783Y-118038545D01*
X48384771Y-118038547D01*
X48072637Y-118109789D01*
X48072635Y-118109790D01*
X47770440Y-118215532D01*
X47481989Y-118354443D01*
X47210900Y-118524780D01*
X46960587Y-118724397D01*
X46734197Y-118950787D01*
X46534580Y-119201100D01*
X46364243Y-119472189D01*
X46249220Y-119711037D01*
X46202397Y-119762896D01*
X46134970Y-119781209D01*
X46068346Y-119760161D01*
X46023678Y-119706435D01*
X46013500Y-119657235D01*
X46013500Y-119188979D01*
X46013500Y-119188972D01*
X46003097Y-119056790D01*
X45987162Y-118993552D01*
X45948098Y-118838522D01*
X45948097Y-118838519D01*
X45897330Y-118726751D01*
X45855008Y-118633574D01*
X45726820Y-118448546D01*
X45567654Y-118289380D01*
X45567650Y-118289377D01*
X45567645Y-118289373D01*
X45382632Y-118161196D01*
X45382623Y-118161190D01*
X45177680Y-118068102D01*
X45177677Y-118068101D01*
X44959418Y-118013104D01*
X44959411Y-118013103D01*
X44827233Y-118002700D01*
X44827228Y-118002700D01*
X41498772Y-118002700D01*
X41498766Y-118002700D01*
X41366588Y-118013103D01*
X41366581Y-118013104D01*
X41148322Y-118068101D01*
X41148319Y-118068102D01*
X40943376Y-118161190D01*
X40943367Y-118161196D01*
X40758354Y-118289373D01*
X40758342Y-118289383D01*
X40599183Y-118448542D01*
X40599173Y-118448554D01*
X40470996Y-118633567D01*
X40470990Y-118633576D01*
X40377902Y-118838519D01*
X40377901Y-118838522D01*
X40322904Y-119056781D01*
X40322903Y-119056788D01*
X40312500Y-119188966D01*
X32827727Y-119188966D01*
X32627407Y-119024568D01*
X32627406Y-119024567D01*
X32627402Y-119024564D01*
X32333259Y-118828024D01*
X32333254Y-118828021D01*
X32333247Y-118828017D01*
X32021276Y-118661264D01*
X32021271Y-118661262D01*
X31694436Y-118525882D01*
X31355895Y-118423188D01*
X31355884Y-118423185D01*
X31008946Y-118354176D01*
X31008929Y-118354173D01*
X30742700Y-118327952D01*
X30656881Y-118319500D01*
X30303119Y-118319500D01*
X30223748Y-118327317D01*
X29951070Y-118354173D01*
X29951053Y-118354176D01*
X29604115Y-118423185D01*
X29604104Y-118423188D01*
X29265563Y-118525882D01*
X28938728Y-118661262D01*
X28938723Y-118661264D01*
X28626752Y-118828017D01*
X28626734Y-118828028D01*
X28332606Y-119024558D01*
X28332592Y-119024568D01*
X28059130Y-119248992D01*
X27808992Y-119499130D01*
X27584568Y-119772592D01*
X27584558Y-119772606D01*
X27388028Y-120066734D01*
X27388017Y-120066752D01*
X27221264Y-120378723D01*
X27221262Y-120378728D01*
X27085882Y-120705563D01*
X26983188Y-121044104D01*
X26983185Y-121044115D01*
X26914176Y-121391053D01*
X26914173Y-121391070D01*
X26889305Y-121643563D01*
X26879500Y-121743119D01*
X25425500Y-121743119D01*
X25425500Y-117282648D01*
X50482500Y-117282648D01*
X50482500Y-117463751D01*
X50510829Y-117642610D01*
X50566787Y-117814836D01*
X50566788Y-117814839D01*
X50622664Y-117924500D01*
X50645671Y-117969653D01*
X50649006Y-117976197D01*
X50755441Y-118122694D01*
X50755445Y-118122699D01*
X50883500Y-118250754D01*
X50883505Y-118250758D01*
X51011287Y-118343596D01*
X51030006Y-118357196D01*
X51135484Y-118410940D01*
X51191360Y-118439411D01*
X51191363Y-118439412D01*
X51270025Y-118464970D01*
X51363591Y-118495371D01*
X51446429Y-118508491D01*
X51542449Y-118523700D01*
X51542454Y-118523700D01*
X51723551Y-118523700D01*
X51810259Y-118509965D01*
X51902409Y-118495371D01*
X52074639Y-118439411D01*
X52235994Y-118357196D01*
X52382501Y-118250753D01*
X52510553Y-118122701D01*
X52616996Y-117976194D01*
X52699211Y-117814839D01*
X52755171Y-117642609D01*
X52772628Y-117532388D01*
X52783500Y-117463751D01*
X52783500Y-117282648D01*
X52766470Y-117175129D01*
X52755171Y-117103791D01*
X52699211Y-116931561D01*
X52699211Y-116931560D01*
X52645990Y-116827110D01*
X52616996Y-116770206D01*
X52593089Y-116737300D01*
X52510558Y-116623705D01*
X52510554Y-116623700D01*
X52382499Y-116495645D01*
X52382494Y-116495641D01*
X52235997Y-116389206D01*
X52235996Y-116389205D01*
X52235994Y-116389204D01*
X52184300Y-116362864D01*
X52074639Y-116306988D01*
X52074636Y-116306987D01*
X51902410Y-116251029D01*
X51723551Y-116222700D01*
X51723546Y-116222700D01*
X51542454Y-116222700D01*
X51542449Y-116222700D01*
X51363589Y-116251029D01*
X51191363Y-116306987D01*
X51191360Y-116306988D01*
X51030002Y-116389206D01*
X50883505Y-116495641D01*
X50883500Y-116495645D01*
X50755445Y-116623700D01*
X50755441Y-116623705D01*
X50649006Y-116770202D01*
X50566788Y-116931560D01*
X50566787Y-116931563D01*
X50510829Y-117103789D01*
X50482500Y-117282648D01*
X25425500Y-117282648D01*
X25425500Y-111864746D01*
X97420700Y-111864746D01*
X97420700Y-112772853D01*
X97420701Y-112772869D01*
X97460917Y-113078342D01*
X97540664Y-113375962D01*
X97658576Y-113660626D01*
X97658581Y-113660637D01*
X97751214Y-113821080D01*
X97812638Y-113927470D01*
X97812640Y-113927473D01*
X97812641Y-113927474D01*
X98000207Y-114171915D01*
X98000213Y-114171922D01*
X98218077Y-114389786D01*
X98218084Y-114389792D01*
X98257348Y-114419920D01*
X98462530Y-114577362D01*
X98579028Y-114644622D01*
X98729362Y-114731418D01*
X98729367Y-114731420D01*
X98729370Y-114731422D01*
X99014036Y-114849335D01*
X99311656Y-114929082D01*
X99617140Y-114969300D01*
X99617147Y-114969300D01*
X99925253Y-114969300D01*
X99925260Y-114969300D01*
X100230744Y-114929082D01*
X100528364Y-114849335D01*
X100813030Y-114731422D01*
X101079870Y-114577362D01*
X101324317Y-114389791D01*
X101542191Y-114171917D01*
X101729762Y-113927470D01*
X101883822Y-113660630D01*
X102001735Y-113375964D01*
X102081482Y-113078344D01*
X102121700Y-112772860D01*
X102121700Y-111864746D01*
X105777300Y-111864746D01*
X105777300Y-112772853D01*
X105777301Y-112772869D01*
X105817517Y-113078342D01*
X105897264Y-113375962D01*
X106015176Y-113660626D01*
X106015181Y-113660637D01*
X106107814Y-113821080D01*
X106169238Y-113927470D01*
X106169240Y-113927473D01*
X106169241Y-113927474D01*
X106356807Y-114171915D01*
X106356813Y-114171922D01*
X106574677Y-114389786D01*
X106574684Y-114389792D01*
X106613948Y-114419920D01*
X106819130Y-114577362D01*
X106935628Y-114644622D01*
X107085962Y-114731418D01*
X107085967Y-114731420D01*
X107085970Y-114731422D01*
X107370636Y-114849335D01*
X107668256Y-114929082D01*
X107973740Y-114969300D01*
X107973747Y-114969300D01*
X108281853Y-114969300D01*
X108281860Y-114969300D01*
X108587344Y-114929082D01*
X108884964Y-114849335D01*
X109169630Y-114731422D01*
X109436470Y-114577362D01*
X109680917Y-114389791D01*
X109898791Y-114171917D01*
X110086362Y-113927470D01*
X110240422Y-113660630D01*
X110358335Y-113375964D01*
X110438082Y-113078344D01*
X110478300Y-112772860D01*
X110478300Y-111864746D01*
X114464100Y-111864746D01*
X114464100Y-112772853D01*
X114464101Y-112772869D01*
X114504317Y-113078342D01*
X114584064Y-113375962D01*
X114701976Y-113660626D01*
X114701981Y-113660637D01*
X114794614Y-113821080D01*
X114856038Y-113927470D01*
X114856040Y-113927473D01*
X114856041Y-113927474D01*
X115043607Y-114171915D01*
X115043613Y-114171922D01*
X115261477Y-114389786D01*
X115261484Y-114389792D01*
X115300748Y-114419920D01*
X115505930Y-114577362D01*
X115622428Y-114644622D01*
X115772762Y-114731418D01*
X115772767Y-114731420D01*
X115772770Y-114731422D01*
X116057436Y-114849335D01*
X116355056Y-114929082D01*
X116660540Y-114969300D01*
X116660547Y-114969300D01*
X116968653Y-114969300D01*
X116968660Y-114969300D01*
X117274144Y-114929082D01*
X117571764Y-114849335D01*
X117856430Y-114731422D01*
X118123270Y-114577362D01*
X118367717Y-114389791D01*
X118585591Y-114171917D01*
X118773162Y-113927470D01*
X118927222Y-113660630D01*
X119045135Y-113375964D01*
X119124882Y-113078344D01*
X119165100Y-112772860D01*
X119165100Y-111864740D01*
X119153673Y-111777946D01*
X123130700Y-111777946D01*
X123130700Y-112686053D01*
X123130701Y-112686069D01*
X123170917Y-112991542D01*
X123250664Y-113289162D01*
X123368576Y-113573826D01*
X123368581Y-113573837D01*
X123421150Y-113664888D01*
X123522638Y-113840670D01*
X123522640Y-113840673D01*
X123522641Y-113840674D01*
X123710207Y-114085115D01*
X123710213Y-114085122D01*
X123928077Y-114302986D01*
X123928083Y-114302991D01*
X124172530Y-114490562D01*
X124322865Y-114577358D01*
X124439362Y-114644618D01*
X124439367Y-114644620D01*
X124439370Y-114644622D01*
X124724036Y-114762535D01*
X125021656Y-114842282D01*
X125327140Y-114882500D01*
X125327147Y-114882500D01*
X125635253Y-114882500D01*
X125635260Y-114882500D01*
X125940744Y-114842282D01*
X126238364Y-114762535D01*
X126523030Y-114644622D01*
X126789870Y-114490562D01*
X127034317Y-114302991D01*
X127252191Y-114085117D01*
X127439762Y-113840670D01*
X127593822Y-113573830D01*
X127711735Y-113289164D01*
X127791482Y-112991544D01*
X127792178Y-112986258D01*
X131382500Y-112986258D01*
X131382500Y-113215741D01*
X131392167Y-113289162D01*
X131412452Y-113443238D01*
X131412453Y-113443240D01*
X131471842Y-113664887D01*
X131559650Y-113876876D01*
X131559657Y-113876890D01*
X131674392Y-114075617D01*
X131814081Y-114257661D01*
X131814089Y-114257670D01*
X131976330Y-114419911D01*
X131976338Y-114419918D01*
X131976339Y-114419919D01*
X132026962Y-114458764D01*
X132158382Y-114559607D01*
X132158385Y-114559608D01*
X132158388Y-114559611D01*
X132357112Y-114674344D01*
X132357117Y-114674346D01*
X132357123Y-114674349D01*
X132448480Y-114712190D01*
X132569113Y-114762158D01*
X132790762Y-114821548D01*
X133018266Y-114851500D01*
X133018273Y-114851500D01*
X133247727Y-114851500D01*
X133247734Y-114851500D01*
X133475238Y-114821548D01*
X133696887Y-114762158D01*
X133908888Y-114674344D01*
X134107612Y-114559611D01*
X134289661Y-114419919D01*
X134289665Y-114419914D01*
X134289670Y-114419911D01*
X134451911Y-114257670D01*
X134451914Y-114257665D01*
X134451919Y-114257661D01*
X134591611Y-114075612D01*
X134706344Y-113876888D01*
X134794158Y-113664887D01*
X134853548Y-113443238D01*
X134876894Y-113265914D01*
X135452500Y-113265914D01*
X135452500Y-113586085D01*
X135488345Y-113904216D01*
X135488347Y-113904228D01*
X135559589Y-114216362D01*
X135559590Y-114216364D01*
X135665332Y-114518559D01*
X135804243Y-114807010D01*
X135826406Y-114842282D01*
X135974581Y-115078101D01*
X136174198Y-115328413D01*
X136400587Y-115554802D01*
X136650899Y-115754419D01*
X136921987Y-115924755D01*
X137210442Y-116063668D01*
X137512637Y-116169410D01*
X137824771Y-116240653D01*
X138142915Y-116276499D01*
X138142916Y-116276500D01*
X138142919Y-116276500D01*
X138463084Y-116276500D01*
X138463084Y-116276499D01*
X138781229Y-116240653D01*
X139093363Y-116169410D01*
X139395558Y-116063668D01*
X139684013Y-115924755D01*
X139955101Y-115754419D01*
X140205413Y-115554802D01*
X140431802Y-115328413D01*
X140631419Y-115078101D01*
X140801755Y-114807013D01*
X140940668Y-114518558D01*
X141035958Y-114246232D01*
X141076680Y-114189457D01*
X141141633Y-114163709D01*
X141210194Y-114177165D01*
X141260597Y-114225552D01*
X141270042Y-114246233D01*
X141365332Y-114518559D01*
X141504243Y-114807010D01*
X141526406Y-114842282D01*
X141674581Y-115078101D01*
X141874198Y-115328413D01*
X142100587Y-115554802D01*
X142350899Y-115754419D01*
X142621987Y-115924755D01*
X142910442Y-116063668D01*
X143212637Y-116169410D01*
X143524771Y-116240653D01*
X143842915Y-116276499D01*
X143842916Y-116276500D01*
X143842919Y-116276500D01*
X144163084Y-116276500D01*
X144163084Y-116276499D01*
X144481229Y-116240653D01*
X144793363Y-116169410D01*
X145095558Y-116063668D01*
X145384013Y-115924755D01*
X145655101Y-115754419D01*
X145905413Y-115554802D01*
X146131802Y-115328413D01*
X146331419Y-115078101D01*
X146501755Y-114807013D01*
X146640668Y-114518558D01*
X146746410Y-114216363D01*
X146817653Y-113904229D01*
X146853500Y-113586081D01*
X146853500Y-113265919D01*
X146821990Y-112986267D01*
X146821989Y-112986259D01*
X147422500Y-112986259D01*
X147422500Y-113215742D01*
X147432167Y-113289164D01*
X147452452Y-113443239D01*
X147487445Y-113573837D01*
X147511842Y-113664888D01*
X147599650Y-113876877D01*
X147599656Y-113876889D01*
X147714388Y-114075612D01*
X147714392Y-114075618D01*
X147854081Y-114257662D01*
X147854089Y-114257671D01*
X148016330Y-114419912D01*
X148016338Y-114419919D01*
X148198382Y-114559608D01*
X148198385Y-114559609D01*
X148198388Y-114559612D01*
X148397112Y-114674345D01*
X148397117Y-114674347D01*
X148397123Y-114674350D01*
X148488480Y-114712191D01*
X148609113Y-114762159D01*
X148830762Y-114821549D01*
X149041814Y-114849335D01*
X149058250Y-114851499D01*
X149058266Y-114851501D01*
X149058273Y-114851501D01*
X149287727Y-114851501D01*
X149287734Y-114851501D01*
X149515238Y-114821549D01*
X149736887Y-114762159D01*
X149948888Y-114674345D01*
X150147612Y-114559612D01*
X150329661Y-114419920D01*
X150329665Y-114419915D01*
X150329670Y-114419912D01*
X150491911Y-114257671D01*
X150491914Y-114257666D01*
X150491919Y-114257662D01*
X150631611Y-114075613D01*
X150746344Y-113876889D01*
X150834158Y-113664888D01*
X150893548Y-113443239D01*
X150923500Y-113215735D01*
X150923500Y-112986267D01*
X150893548Y-112758763D01*
X150834158Y-112537114D01*
X150749794Y-112333442D01*
X150746349Y-112325124D01*
X150746346Y-112325118D01*
X150746344Y-112325113D01*
X150631611Y-112126389D01*
X150631608Y-112126386D01*
X150631607Y-112126383D01*
X150491918Y-111944339D01*
X150491911Y-111944331D01*
X150329670Y-111782090D01*
X150329661Y-111782082D01*
X150147617Y-111642393D01*
X149948890Y-111527658D01*
X149948876Y-111527651D01*
X149736887Y-111439843D01*
X149736883Y-111439842D01*
X149515238Y-111380453D01*
X149477215Y-111375447D01*
X149287741Y-111350501D01*
X149287734Y-111350501D01*
X149058266Y-111350501D01*
X149058258Y-111350501D01*
X148841715Y-111379010D01*
X148830762Y-111380453D01*
X148737076Y-111405555D01*
X148609112Y-111439843D01*
X148397123Y-111527651D01*
X148397109Y-111527658D01*
X148198382Y-111642393D01*
X148016338Y-111782082D01*
X147854081Y-111944339D01*
X147714392Y-112126383D01*
X147599657Y-112325110D01*
X147599650Y-112325124D01*
X147511842Y-112537113D01*
X147485444Y-112635635D01*
X147452453Y-112758762D01*
X147452451Y-112758771D01*
X147422500Y-112986259D01*
X146821989Y-112986259D01*
X146817654Y-112947783D01*
X146817653Y-112947771D01*
X146746410Y-112635637D01*
X146640668Y-112333442D01*
X146501755Y-112044987D01*
X146331419Y-111773899D01*
X146131802Y-111523587D01*
X145905413Y-111297198D01*
X145655101Y-111097581D01*
X145384013Y-110927245D01*
X145384010Y-110927243D01*
X145095559Y-110788332D01*
X144793364Y-110682590D01*
X144793362Y-110682589D01*
X144552471Y-110627607D01*
X144481229Y-110611347D01*
X144481225Y-110611346D01*
X144481216Y-110611345D01*
X144163085Y-110575500D01*
X144163081Y-110575500D01*
X143842919Y-110575500D01*
X143842914Y-110575500D01*
X143524783Y-110611345D01*
X143524771Y-110611347D01*
X143212637Y-110682589D01*
X143212635Y-110682590D01*
X142910440Y-110788332D01*
X142621989Y-110927243D01*
X142350900Y-111097580D01*
X142100587Y-111297197D01*
X141874197Y-111523587D01*
X141674580Y-111773900D01*
X141504243Y-112044989D01*
X141365332Y-112333440D01*
X141270042Y-112605766D01*
X141229320Y-112662543D01*
X141164367Y-112688290D01*
X141095806Y-112674834D01*
X141045403Y-112626447D01*
X141035958Y-112605766D01*
X140940667Y-112333440D01*
X140936655Y-112325110D01*
X140801755Y-112044987D01*
X140631419Y-111773899D01*
X140431802Y-111523587D01*
X140205413Y-111297198D01*
X139955101Y-111097581D01*
X139684013Y-110927245D01*
X139684010Y-110927243D01*
X139395559Y-110788332D01*
X139093364Y-110682590D01*
X139093362Y-110682589D01*
X138852471Y-110627607D01*
X138781229Y-110611347D01*
X138781225Y-110611346D01*
X138781216Y-110611345D01*
X138463085Y-110575500D01*
X138463081Y-110575500D01*
X138142919Y-110575500D01*
X138142914Y-110575500D01*
X137824783Y-110611345D01*
X137824771Y-110611347D01*
X137512637Y-110682589D01*
X137512635Y-110682590D01*
X137210440Y-110788332D01*
X136921989Y-110927243D01*
X136650900Y-111097580D01*
X136400587Y-111297197D01*
X136174197Y-111523587D01*
X135974580Y-111773900D01*
X135804243Y-112044989D01*
X135665332Y-112333440D01*
X135559590Y-112635635D01*
X135559589Y-112635637D01*
X135488347Y-112947771D01*
X135488345Y-112947783D01*
X135452500Y-113265914D01*
X134876894Y-113265914D01*
X134883500Y-113215734D01*
X134883500Y-112986266D01*
X134853548Y-112758762D01*
X134794158Y-112537113D01*
X134744190Y-112416480D01*
X134706349Y-112325123D01*
X134706344Y-112325113D01*
X134706344Y-112325112D01*
X134591611Y-112126388D01*
X134591608Y-112126385D01*
X134591607Y-112126382D01*
X134451918Y-111944338D01*
X134451911Y-111944330D01*
X134289670Y-111782089D01*
X134289661Y-111782081D01*
X134107617Y-111642392D01*
X133908890Y-111527657D01*
X133908876Y-111527650D01*
X133696887Y-111439842D01*
X133475238Y-111380452D01*
X133437215Y-111375446D01*
X133247741Y-111350500D01*
X133247734Y-111350500D01*
X133018266Y-111350500D01*
X133018258Y-111350500D01*
X132801715Y-111379009D01*
X132790762Y-111380452D01*
X132790755Y-111380454D01*
X132569112Y-111439842D01*
X132357123Y-111527650D01*
X132357109Y-111527657D01*
X132158382Y-111642392D01*
X131976338Y-111782081D01*
X131814081Y-111944338D01*
X131674392Y-112126382D01*
X131559657Y-112325109D01*
X131559650Y-112325123D01*
X131471842Y-112537112D01*
X131412453Y-112758759D01*
X131412451Y-112758770D01*
X131382500Y-112986258D01*
X127792178Y-112986258D01*
X127831700Y-112686060D01*
X127831700Y-111777940D01*
X127791482Y-111472456D01*
X127711735Y-111174836D01*
X127593822Y-110890170D01*
X127593820Y-110890167D01*
X127593818Y-110890162D01*
X127520727Y-110763566D01*
X127439762Y-110623330D01*
X127318795Y-110465683D01*
X127252192Y-110378884D01*
X127252186Y-110378877D01*
X127034322Y-110161013D01*
X127034315Y-110161007D01*
X126789874Y-109973441D01*
X126789873Y-109973440D01*
X126789870Y-109973438D01*
X126673369Y-109906176D01*
X126523037Y-109819381D01*
X126523026Y-109819376D01*
X126238362Y-109701464D01*
X125940742Y-109621717D01*
X125635269Y-109581501D01*
X125635266Y-109581500D01*
X125635260Y-109581500D01*
X125327140Y-109581500D01*
X125327134Y-109581500D01*
X125327130Y-109581501D01*
X125021657Y-109621717D01*
X124724037Y-109701464D01*
X124439373Y-109819376D01*
X124439362Y-109819381D01*
X124172525Y-109973441D01*
X123928084Y-110161007D01*
X123928077Y-110161013D01*
X123710213Y-110378877D01*
X123710207Y-110378884D01*
X123522641Y-110623325D01*
X123368581Y-110890162D01*
X123368576Y-110890173D01*
X123250664Y-111174837D01*
X123170917Y-111472457D01*
X123130701Y-111777930D01*
X123130700Y-111777946D01*
X119153673Y-111777946D01*
X119153672Y-111777940D01*
X119124882Y-111559257D01*
X119115325Y-111523587D01*
X119045135Y-111261636D01*
X118927222Y-110976970D01*
X118927220Y-110976967D01*
X118927218Y-110976962D01*
X118872178Y-110881630D01*
X118773162Y-110710130D01*
X118585591Y-110465683D01*
X118585586Y-110465677D01*
X118367722Y-110247813D01*
X118367715Y-110247807D01*
X118123274Y-110060241D01*
X118123273Y-110060240D01*
X118123270Y-110060238D01*
X118016880Y-109998814D01*
X117856437Y-109906181D01*
X117856426Y-109906176D01*
X117571762Y-109788264D01*
X117274142Y-109708517D01*
X116968669Y-109668301D01*
X116968666Y-109668300D01*
X116968660Y-109668300D01*
X116660540Y-109668300D01*
X116660534Y-109668300D01*
X116660530Y-109668301D01*
X116355057Y-109708517D01*
X116057437Y-109788264D01*
X115772773Y-109906176D01*
X115772762Y-109906181D01*
X115505925Y-110060241D01*
X115261484Y-110247807D01*
X115261477Y-110247813D01*
X115043613Y-110465677D01*
X115043607Y-110465684D01*
X114856041Y-110710125D01*
X114701981Y-110976962D01*
X114701976Y-110976973D01*
X114584064Y-111261637D01*
X114504317Y-111559257D01*
X114464101Y-111864730D01*
X114464100Y-111864746D01*
X110478300Y-111864746D01*
X110478300Y-111864740D01*
X110438082Y-111559256D01*
X110358335Y-111261636D01*
X110240422Y-110976970D01*
X110240420Y-110976967D01*
X110240418Y-110976962D01*
X110185378Y-110881630D01*
X110086362Y-110710130D01*
X109898791Y-110465683D01*
X109898786Y-110465677D01*
X109680922Y-110247813D01*
X109680915Y-110247807D01*
X109436474Y-110060241D01*
X109436473Y-110060240D01*
X109436470Y-110060238D01*
X109330080Y-109998814D01*
X109169637Y-109906181D01*
X109169626Y-109906176D01*
X108884962Y-109788264D01*
X108587342Y-109708517D01*
X108281869Y-109668301D01*
X108281866Y-109668300D01*
X108281860Y-109668300D01*
X107973740Y-109668300D01*
X107973734Y-109668300D01*
X107973730Y-109668301D01*
X107668257Y-109708517D01*
X107370637Y-109788264D01*
X107085973Y-109906176D01*
X107085962Y-109906181D01*
X106819125Y-110060241D01*
X106574684Y-110247807D01*
X106574677Y-110247813D01*
X106356813Y-110465677D01*
X106356807Y-110465684D01*
X106169241Y-110710125D01*
X106015181Y-110976962D01*
X106015176Y-110976973D01*
X105897264Y-111261637D01*
X105817517Y-111559257D01*
X105777301Y-111864730D01*
X105777300Y-111864746D01*
X102121700Y-111864746D01*
X102121700Y-111864740D01*
X102081482Y-111559256D01*
X102001735Y-111261636D01*
X101883822Y-110976970D01*
X101883820Y-110976967D01*
X101883818Y-110976962D01*
X101828778Y-110881630D01*
X101729762Y-110710130D01*
X101542191Y-110465683D01*
X101542186Y-110465677D01*
X101324322Y-110247813D01*
X101324315Y-110247807D01*
X101079874Y-110060241D01*
X101079873Y-110060240D01*
X101079870Y-110060238D01*
X100973480Y-109998814D01*
X100813037Y-109906181D01*
X100813026Y-109906176D01*
X100528362Y-109788264D01*
X100230742Y-109708517D01*
X99925269Y-109668301D01*
X99925266Y-109668300D01*
X99925260Y-109668300D01*
X99617140Y-109668300D01*
X99617134Y-109668300D01*
X99617130Y-109668301D01*
X99311657Y-109708517D01*
X99014037Y-109788264D01*
X98729373Y-109906176D01*
X98729362Y-109906181D01*
X98462525Y-110060241D01*
X98218084Y-110247807D01*
X98218077Y-110247813D01*
X98000213Y-110465677D01*
X98000207Y-110465684D01*
X97812641Y-110710125D01*
X97658581Y-110976962D01*
X97658576Y-110976973D01*
X97540664Y-111261637D01*
X97460917Y-111559257D01*
X97420701Y-111864730D01*
X97420700Y-111864746D01*
X25425500Y-111864746D01*
X25425500Y-107632291D01*
X40153700Y-107632291D01*
X40153700Y-107969308D01*
X40191431Y-108304181D01*
X40191433Y-108304197D01*
X40266423Y-108632753D01*
X40266427Y-108632765D01*
X40377732Y-108950854D01*
X40523952Y-109254483D01*
X40523954Y-109254486D01*
X40703254Y-109539839D01*
X40913375Y-109803323D01*
X41151677Y-110041625D01*
X41415161Y-110251746D01*
X41700514Y-110431046D01*
X41700516Y-110431047D01*
X41801725Y-110479787D01*
X42004149Y-110577269D01*
X42135784Y-110623330D01*
X42322234Y-110688572D01*
X42322246Y-110688576D01*
X42650806Y-110763567D01*
X42985692Y-110801299D01*
X42985693Y-110801300D01*
X42985696Y-110801300D01*
X43322707Y-110801300D01*
X43322707Y-110801299D01*
X43657594Y-110763567D01*
X43986154Y-110688576D01*
X44304251Y-110577269D01*
X44607886Y-110431046D01*
X44893239Y-110251746D01*
X45156723Y-110041625D01*
X45395025Y-109803323D01*
X45605146Y-109539839D01*
X45784446Y-109254486D01*
X45930669Y-108950851D01*
X46041976Y-108632754D01*
X46116967Y-108304194D01*
X46154700Y-107969304D01*
X46154700Y-107632296D01*
X46116967Y-107297406D01*
X46041976Y-106968846D01*
X45930669Y-106650749D01*
X45784446Y-106347114D01*
X45605146Y-106061761D01*
X45395025Y-105798277D01*
X45156723Y-105559975D01*
X44893239Y-105349854D01*
X44607886Y-105170554D01*
X44607883Y-105170552D01*
X44304254Y-105024332D01*
X43986165Y-104913027D01*
X43986153Y-104913023D01*
X43657597Y-104838033D01*
X43657581Y-104838031D01*
X43322708Y-104800300D01*
X43322704Y-104800300D01*
X42985696Y-104800300D01*
X42985691Y-104800300D01*
X42650818Y-104838031D01*
X42650802Y-104838033D01*
X42322246Y-104913023D01*
X42322234Y-104913027D01*
X42004145Y-105024332D01*
X41700516Y-105170552D01*
X41415162Y-105349853D01*
X41151677Y-105559974D01*
X40913374Y-105798277D01*
X40703253Y-106061762D01*
X40523952Y-106347116D01*
X40377732Y-106650745D01*
X40266427Y-106968834D01*
X40266423Y-106968846D01*
X40191433Y-107297402D01*
X40191431Y-107297418D01*
X40153700Y-107632291D01*
X25425500Y-107632291D01*
X25425500Y-99288086D01*
X106635300Y-99288086D01*
X106635300Y-99583113D01*
X106667371Y-99826713D01*
X106673807Y-99875593D01*
X106673808Y-99875595D01*
X106750161Y-100160551D01*
X106750164Y-100160561D01*
X106863054Y-100433100D01*
X106863058Y-100433110D01*
X107010561Y-100688593D01*
X107190152Y-100922640D01*
X107190158Y-100922647D01*
X107398752Y-101131241D01*
X107398759Y-101131247D01*
X107632806Y-101310838D01*
X107888289Y-101458341D01*
X107888290Y-101458341D01*
X107888293Y-101458343D01*
X108160848Y-101571239D01*
X108445807Y-101647593D01*
X108738294Y-101686100D01*
X108738301Y-101686100D01*
X109033299Y-101686100D01*
X109033306Y-101686100D01*
X109325793Y-101647593D01*
X109610752Y-101571239D01*
X109883307Y-101458343D01*
X110138794Y-101310838D01*
X110372842Y-101131246D01*
X110581446Y-100922642D01*
X110761038Y-100688594D01*
X110908543Y-100433107D01*
X111021439Y-100160552D01*
X111097793Y-99875593D01*
X111136300Y-99583106D01*
X111136300Y-99288094D01*
X111136299Y-99288086D01*
X129635300Y-99288086D01*
X129635300Y-99583113D01*
X129667371Y-99826713D01*
X129673807Y-99875593D01*
X129673808Y-99875595D01*
X129750161Y-100160551D01*
X129750164Y-100160561D01*
X129863054Y-100433100D01*
X129863058Y-100433110D01*
X130010561Y-100688593D01*
X130190152Y-100922640D01*
X130190158Y-100922647D01*
X130398752Y-101131241D01*
X130398759Y-101131247D01*
X130632806Y-101310838D01*
X130888289Y-101458341D01*
X130888290Y-101458341D01*
X130888293Y-101458343D01*
X131160848Y-101571239D01*
X131445807Y-101647593D01*
X131738294Y-101686100D01*
X131738301Y-101686100D01*
X132033299Y-101686100D01*
X132033306Y-101686100D01*
X132325793Y-101647593D01*
X132610752Y-101571239D01*
X132883307Y-101458343D01*
X133138794Y-101310838D01*
X133372842Y-101131246D01*
X133581446Y-100922642D01*
X133761038Y-100688594D01*
X133908543Y-100433107D01*
X134021439Y-100160552D01*
X134097793Y-99875593D01*
X134136300Y-99583106D01*
X134136300Y-99288094D01*
X134097793Y-98995607D01*
X134021439Y-98710648D01*
X133908543Y-98438093D01*
X133761038Y-98182606D01*
X133581446Y-97948558D01*
X133581441Y-97948552D01*
X133372847Y-97739958D01*
X133372840Y-97739952D01*
X133138793Y-97560361D01*
X132883310Y-97412858D01*
X132883300Y-97412854D01*
X132610761Y-97299964D01*
X132610754Y-97299962D01*
X132610752Y-97299961D01*
X132325793Y-97223607D01*
X132276913Y-97217171D01*
X132033313Y-97185100D01*
X132033306Y-97185100D01*
X131738294Y-97185100D01*
X131738286Y-97185100D01*
X131459885Y-97221753D01*
X131445807Y-97223607D01*
X131160848Y-97299961D01*
X131160838Y-97299964D01*
X130888299Y-97412854D01*
X130888289Y-97412858D01*
X130632806Y-97560361D01*
X130398759Y-97739952D01*
X130398752Y-97739958D01*
X130190158Y-97948552D01*
X130190152Y-97948559D01*
X130010561Y-98182606D01*
X129863058Y-98438089D01*
X129863054Y-98438099D01*
X129750164Y-98710638D01*
X129750161Y-98710648D01*
X129673808Y-98995604D01*
X129673806Y-98995615D01*
X129635300Y-99288086D01*
X111136299Y-99288086D01*
X111097793Y-98995607D01*
X111021439Y-98710648D01*
X110908543Y-98438093D01*
X110761038Y-98182606D01*
X110581446Y-97948558D01*
X110581441Y-97948552D01*
X110372847Y-97739958D01*
X110372840Y-97739952D01*
X110138793Y-97560361D01*
X109883310Y-97412858D01*
X109883300Y-97412854D01*
X109610761Y-97299964D01*
X109610754Y-97299962D01*
X109610752Y-97299961D01*
X109325793Y-97223607D01*
X109276913Y-97217171D01*
X109033313Y-97185100D01*
X109033306Y-97185100D01*
X108738294Y-97185100D01*
X108738286Y-97185100D01*
X108459885Y-97221753D01*
X108445807Y-97223607D01*
X108160848Y-97299961D01*
X108160838Y-97299964D01*
X107888299Y-97412854D01*
X107888289Y-97412858D01*
X107632806Y-97560361D01*
X107398759Y-97739952D01*
X107398752Y-97739958D01*
X107190158Y-97948552D01*
X107190152Y-97948559D01*
X107010561Y-98182606D01*
X106863058Y-98438089D01*
X106863054Y-98438099D01*
X106750164Y-98710638D01*
X106750161Y-98710648D01*
X106673808Y-98995604D01*
X106673806Y-98995615D01*
X106635300Y-99288086D01*
X25425500Y-99288086D01*
X25425500Y-95734636D01*
X25445185Y-95667597D01*
X25497989Y-95621842D01*
X25549651Y-95610637D01*
X157330661Y-95777238D01*
G37*
%TD.AperFunction*%
%TD*%
M02*
