%TF.GenerationSoftware,KiCad,Pcbnew,9.0.4*%
%TF.CreationDate,2026-03-16T14:26:36-04:00*%
%TF.ProjectId,Power Board,506f7765-7220-4426-9f61-72642e6b6963,rev?*%
%TF.SameCoordinates,Original*%
%TF.FileFunction,Soldermask,Bot*%
%TF.FilePolarity,Negative*%
%FSLAX46Y46*%
G04 Gerber Fmt 4.6, Leading zero omitted, Abs format (unit mm)*
G04 Created by KiCad (PCBNEW 9.0.4) date 2026-03-16 14:26:36*
%MOMM*%
%LPD*%
G01*
G04 APERTURE LIST*
G04 Aperture macros list*
%AMRoundRect*
0 Rectangle with rounded corners*
0 $1 Rounding radius*
0 $2 $3 $4 $5 $6 $7 $8 $9 X,Y pos of 4 corners*
0 Add a 4 corners polygon primitive as box body*
4,1,4,$2,$3,$4,$5,$6,$7,$8,$9,$2,$3,0*
0 Add four circle primitives for the rounded corners*
1,1,$1+$1,$2,$3*
1,1,$1+$1,$4,$5*
1,1,$1+$1,$6,$7*
1,1,$1+$1,$8,$9*
0 Add four rect primitives between the rounded corners*
20,1,$1+$1,$2,$3,$4,$5,0*
20,1,$1+$1,$4,$5,$6,$7,0*
20,1,$1+$1,$6,$7,$8,$9,0*
20,1,$1+$1,$8,$9,$2,$3,0*%
G04 Aperture macros list end*
%ADD10C,2.780000*%
%ADD11C,3.200000*%
%ADD12C,1.800000*%
%ADD13RoundRect,0.250002X1.599998X1.599998X-1.599998X1.599998X-1.599998X-1.599998X1.599998X-1.599998X0*%
%ADD14C,3.700000*%
%ADD15C,2.500000*%
%ADD16C,1.270000*%
%ADD17RoundRect,0.250001X-0.759999X0.499999X-0.759999X-0.499999X0.759999X-0.499999X0.759999X0.499999X0*%
%ADD18O,2.020000X1.500000*%
%ADD19RoundRect,0.250002X1.599998X-1.599998X1.599998X1.599998X-1.599998X1.599998X-1.599998X-1.599998X0*%
%ADD20RoundRect,0.250001X1.099999X1.399999X-1.099999X1.399999X-1.099999X-1.399999X1.099999X-1.399999X0*%
%ADD21O,2.700000X3.300000*%
%ADD22C,3.000000*%
%ADD23R,2.500000X2.500000*%
%ADD24C,4.000000*%
%ADD25R,1.700000X1.700000*%
%ADD26C,1.700000*%
G04 APERTURE END LIST*
D10*
%TO.C,F1*%
X64483600Y-119127800D03*
X64483600Y-122527800D03*
X74403600Y-119127800D03*
X74403600Y-122527800D03*
%TD*%
D11*
%TO.C,H3*%
X30480000Y-121920000D03*
%TD*%
D12*
%TO.C,J4*%
X148335800Y-38911400D03*
D13*
X151815800Y-47381400D03*
D14*
X151815800Y-41681400D03*
%TD*%
D15*
%TO.C,U1*%
X100385800Y-30835600D03*
X120385800Y-30835600D03*
X140385800Y-30835600D03*
X108885800Y-99435600D03*
X120385800Y-99435600D03*
X131885800Y-99435600D03*
%TD*%
D16*
%TO.C,J5*%
X155274400Y-61411600D03*
X155274400Y-70411600D03*
D17*
X153314400Y-64411600D03*
D18*
X153314400Y-67411600D03*
%TD*%
D12*
%TO.C,J1*%
X51633000Y-117373200D03*
D19*
X43163000Y-120853200D03*
D14*
X48863000Y-120853200D03*
%TD*%
D20*
%TO.C,J3*%
X116814600Y-117818800D03*
D21*
X116814600Y-112318800D03*
%TD*%
D11*
%TO.C,H1*%
X30480000Y-30480000D03*
%TD*%
D22*
%TO.C,J6*%
X149173000Y-113101001D03*
X133133000Y-113101000D03*
D13*
X144003000Y-119126000D03*
D14*
X138303000Y-119126000D03*
X144003000Y-113426000D03*
X138303000Y-113426000D03*
%TD*%
D20*
%TO.C,J9*%
X99771200Y-117818800D03*
D21*
X99771200Y-112318800D03*
%TD*%
D11*
%TO.C,H4*%
X152400000Y-121920000D03*
%TD*%
D23*
%TO.C,PS1*%
X84404200Y-31800800D03*
D15*
X77654200Y-31800800D03*
D24*
X43154200Y-107800800D03*
X48654200Y-107800800D03*
%TD*%
D20*
%TO.C,J2*%
X125481200Y-117732000D03*
D21*
X125481200Y-112232000D03*
%TD*%
D20*
%TO.C,J7*%
X108127800Y-117818800D03*
D21*
X108127800Y-112318800D03*
%TD*%
D25*
%TO.C,J8*%
X153263600Y-57658000D03*
D26*
X150723600Y-57658000D03*
%TD*%
D11*
%TO.C,H2*%
X152400000Y-30480000D03*
%TD*%
M02*
