%TF.GenerationSoftware,KiCad,Pcbnew,9.0.4*%
%TF.CreationDate,2026-03-12T14:42:41-04:00*%
%TF.ProjectId,Power Board,506f7765-7220-4426-9f61-72642e6b6963,rev?*%
%TF.SameCoordinates,Original*%
%TF.FileFunction,Copper,L3,Inr*%
%TF.FilePolarity,Positive*%
%FSLAX46Y46*%
G04 Gerber Fmt 4.6, Leading zero omitted, Abs format (unit mm)*
G04 Created by KiCad (PCBNEW 9.0.4) date 2026-03-12 14:42:41*
%MOMM*%
%LPD*%
G01*
G04 APERTURE LIST*
G04 Aperture macros list*
%AMRoundRect*
0 Rectangle with rounded corners*
0 $1 Rounding radius*
0 $2 $3 $4 $5 $6 $7 $8 $9 X,Y pos of 4 corners*
0 Add a 4 corners polygon primitive as box body*
4,1,4,$2,$3,$4,$5,$6,$7,$8,$9,$2,$3,0*
0 Add four circle primitives for the rounded corners*
1,1,$1+$1,$2,$3*
1,1,$1+$1,$4,$5*
1,1,$1+$1,$6,$7*
1,1,$1+$1,$8,$9*
0 Add four rect primitives between the rounded corners*
20,1,$1+$1,$2,$3,$4,$5,0*
20,1,$1+$1,$4,$5,$6,$7,0*
20,1,$1+$1,$6,$7,$8,$9,0*
20,1,$1+$1,$8,$9,$2,$3,0*%
G04 Aperture macros list end*
%TA.AperFunction,ComponentPad*%
%ADD10RoundRect,0.250002X1.599998X1.599998X-1.599998X1.599998X-1.599998X-1.599998X1.599998X-1.599998X0*%
%TD*%
%TA.AperFunction,ComponentPad*%
%ADD11C,3.700000*%
%TD*%
%TA.AperFunction,ComponentPad*%
%ADD12C,2.500000*%
%TD*%
%TA.AperFunction,ComponentPad*%
%ADD13RoundRect,0.250001X-0.759999X0.499999X-0.759999X-0.499999X0.759999X-0.499999X0.759999X0.499999X0*%
%TD*%
%TA.AperFunction,ComponentPad*%
%ADD14O,2.020000X1.500000*%
%TD*%
%TA.AperFunction,ComponentPad*%
%ADD15R,2.500000X2.500000*%
%TD*%
%TA.AperFunction,ComponentPad*%
%ADD16C,4.000000*%
%TD*%
%TA.AperFunction,ComponentPad*%
%ADD17R,1.700000X1.700000*%
%TD*%
%TA.AperFunction,ComponentPad*%
%ADD18C,1.700000*%
%TD*%
G04 APERTURE END LIST*
D10*
%TO.N,/AC_Neutral*%
%TO.C,J4*%
X145135600Y-38126800D03*
D11*
%TO.N,/AC_Line*%
X145135600Y-32426800D03*
%TD*%
D12*
%TO.N,Net-(U1-Frame_GND)*%
%TO.C,U1*%
X93692000Y-30341400D03*
%TO.N,/AC_Neutral*%
X113692000Y-30341400D03*
%TO.N,/AC_Line*%
X133692000Y-30341400D03*
%TO.N,-24V*%
X102192000Y-98941400D03*
%TO.N,GND*%
X113692000Y-98941400D03*
%TO.N,+24V*%
X125192000Y-98941400D03*
%TD*%
D13*
%TO.N,/Earth_GND*%
%TO.C,J5*%
X159800000Y-32571200D03*
D14*
X159800000Y-35571200D03*
%TD*%
D15*
%TO.N,/AC_Line*%
%TO.C,PS1*%
X81495000Y-31814600D03*
D12*
%TO.N,/AC_Neutral*%
X74745000Y-31814600D03*
D16*
%TO.N,unconnected-(PS1-+Vout-Pad3)*%
X40245000Y-107814600D03*
%TO.N,unconnected-(PS1--Vout-Pad4)*%
X45745000Y-107814600D03*
%TD*%
D17*
%TO.N,/Earth_GND*%
%TO.C,J8*%
X153416000Y-34350600D03*
D18*
%TO.N,Net-(U1-Frame_GND)*%
X153416000Y-36890600D03*
%TD*%
%TA.AperFunction,Conductor*%
%TO.N,/AC_Line*%
G36*
X168744639Y-25445185D02*
G01*
X168790394Y-25497989D01*
X168801600Y-25549500D01*
X168801600Y-27070944D01*
X168781915Y-27137983D01*
X168729111Y-27183738D01*
X168725053Y-27185505D01*
X168638728Y-27221262D01*
X168638723Y-27221264D01*
X168326752Y-27388017D01*
X168326734Y-27388028D01*
X168032606Y-27584558D01*
X168032592Y-27584568D01*
X167759130Y-27808992D01*
X167508992Y-28059130D01*
X167284568Y-28332592D01*
X167284558Y-28332606D01*
X167088028Y-28626734D01*
X167088017Y-28626752D01*
X166921264Y-28938723D01*
X166921262Y-28938728D01*
X166785882Y-29265563D01*
X166683188Y-29604104D01*
X166683185Y-29604115D01*
X166614176Y-29951053D01*
X166614173Y-29951070D01*
X166591457Y-30181716D01*
X166579500Y-30303119D01*
X166579500Y-30656881D01*
X166589923Y-30762707D01*
X166614173Y-31008929D01*
X166614176Y-31008946D01*
X166683185Y-31355884D01*
X166683188Y-31355895D01*
X166785882Y-31694436D01*
X166881610Y-31925543D01*
X166906312Y-31985180D01*
X166921262Y-32021271D01*
X166921264Y-32021276D01*
X167088017Y-32333247D01*
X167088028Y-32333265D01*
X167284558Y-32627393D01*
X167284568Y-32627407D01*
X167508992Y-32900869D01*
X167759130Y-33151007D01*
X167759135Y-33151011D01*
X167759136Y-33151012D01*
X168032598Y-33375436D01*
X168326741Y-33571976D01*
X168326750Y-33571981D01*
X168326752Y-33571982D01*
X168638723Y-33738735D01*
X168638725Y-33738735D01*
X168638731Y-33738739D01*
X168725052Y-33774494D01*
X168779456Y-33818334D01*
X168801521Y-33884629D01*
X168801600Y-33889055D01*
X168801600Y-37230944D01*
X168781915Y-37297983D01*
X168729111Y-37343738D01*
X168725053Y-37345505D01*
X168638728Y-37381262D01*
X168638723Y-37381264D01*
X168326752Y-37548017D01*
X168326734Y-37548028D01*
X168032606Y-37744558D01*
X168032592Y-37744568D01*
X167759130Y-37968992D01*
X167508992Y-38219130D01*
X167284568Y-38492592D01*
X167284558Y-38492606D01*
X167088028Y-38786734D01*
X167088017Y-38786752D01*
X166921264Y-39098723D01*
X166921262Y-39098728D01*
X166785882Y-39425563D01*
X166683188Y-39764104D01*
X166683185Y-39764115D01*
X166614176Y-40111053D01*
X166614173Y-40111070D01*
X166587317Y-40383748D01*
X166579500Y-40463119D01*
X166579500Y-40816881D01*
X166582139Y-40843673D01*
X166614173Y-41168929D01*
X166614176Y-41168946D01*
X166683185Y-41515884D01*
X166683188Y-41515895D01*
X166785882Y-41854436D01*
X166921262Y-42181271D01*
X166921264Y-42181276D01*
X167088017Y-42493247D01*
X167088028Y-42493265D01*
X167284558Y-42787393D01*
X167284568Y-42787407D01*
X167508992Y-43060869D01*
X167759130Y-43311007D01*
X167759135Y-43311011D01*
X167759136Y-43311012D01*
X168032598Y-43535436D01*
X168326741Y-43731976D01*
X168326750Y-43731981D01*
X168326752Y-43731982D01*
X168638723Y-43898735D01*
X168638725Y-43898735D01*
X168638731Y-43898739D01*
X168725052Y-43934494D01*
X168779456Y-43978334D01*
X168801521Y-44044629D01*
X168801600Y-44049055D01*
X168801600Y-45570500D01*
X168781915Y-45637539D01*
X168729111Y-45683294D01*
X168677600Y-45694500D01*
X67427120Y-45694500D01*
X67360081Y-45674815D01*
X67314326Y-45622011D01*
X67303120Y-45570810D01*
X67303119Y-45570500D01*
X67294654Y-42181276D01*
X67280315Y-36440780D01*
X141285100Y-36440780D01*
X141285100Y-39812818D01*
X141295476Y-39990032D01*
X141350550Y-40286269D01*
X141350552Y-40286275D01*
X141408667Y-40463119D01*
X141444617Y-40572514D01*
X141563015Y-40816877D01*
X141575998Y-40843673D01*
X141742343Y-41094892D01*
X141940694Y-41321705D01*
X142167507Y-41520056D01*
X142418726Y-41686401D01*
X142418731Y-41686404D01*
X142689886Y-41817783D01*
X142976133Y-41911850D01*
X143272363Y-41966923D01*
X143449581Y-41977300D01*
X146821618Y-41977299D01*
X146998837Y-41966923D01*
X147295067Y-41911850D01*
X147581314Y-41817783D01*
X147852469Y-41686404D01*
X148103694Y-41520055D01*
X148330505Y-41321705D01*
X148528855Y-41094894D01*
X148695204Y-40843669D01*
X148826583Y-40572514D01*
X148920650Y-40286267D01*
X148975723Y-39990037D01*
X148986100Y-39812819D01*
X148986099Y-36440782D01*
X148975723Y-36263563D01*
X148920650Y-35967333D01*
X148826583Y-35681086D01*
X148695204Y-35409931D01*
X148528855Y-35158706D01*
X148486053Y-35109762D01*
X148330505Y-34931894D01*
X148103692Y-34733543D01*
X147852473Y-34567198D01*
X147852469Y-34567196D01*
X147581314Y-34435817D01*
X147559277Y-34428575D01*
X147295075Y-34341752D01*
X147295069Y-34341750D01*
X146998832Y-34286676D01*
X146821619Y-34276300D01*
X143449581Y-34276300D01*
X143272367Y-34286676D01*
X142976130Y-34341750D01*
X142976124Y-34341752D01*
X142689891Y-34435815D01*
X142689888Y-34435816D01*
X142689886Y-34435817D01*
X142554308Y-34501506D01*
X142418726Y-34567198D01*
X142167507Y-34733543D01*
X141940694Y-34931894D01*
X141742343Y-35158707D01*
X141575998Y-35409926D01*
X141444615Y-35681091D01*
X141350552Y-35967324D01*
X141350550Y-35967330D01*
X141295476Y-36263567D01*
X141285100Y-36440780D01*
X67280315Y-36440780D01*
X67280311Y-36439278D01*
X67268360Y-31654913D01*
X71494500Y-31654913D01*
X71494500Y-31974287D01*
X71499128Y-32021271D01*
X71525803Y-32292122D01*
X71588109Y-32605354D01*
X71680820Y-32910982D01*
X71767242Y-33119623D01*
X71782815Y-33157220D01*
X71803040Y-33206046D01*
X71803042Y-33206051D01*
X71953584Y-33487694D01*
X71953601Y-33487722D01*
X72131012Y-33753238D01*
X72131029Y-33753261D01*
X72333638Y-34000140D01*
X72559459Y-34225961D01*
X72559464Y-34225965D01*
X72559465Y-34225966D01*
X72806344Y-34428575D01*
X72806351Y-34428580D01*
X72806361Y-34428587D01*
X73071877Y-34605998D01*
X73071882Y-34606001D01*
X73071894Y-34606009D01*
X73071903Y-34606013D01*
X73071905Y-34606015D01*
X73353548Y-34756557D01*
X73353550Y-34756557D01*
X73353556Y-34756561D01*
X73648619Y-34878780D01*
X73954240Y-34971489D01*
X74267477Y-35033796D01*
X74585313Y-35065100D01*
X74585316Y-35065100D01*
X74904684Y-35065100D01*
X74904687Y-35065100D01*
X75222523Y-35033796D01*
X75535760Y-34971489D01*
X75841381Y-34878780D01*
X76136444Y-34756561D01*
X76418106Y-34606009D01*
X76683656Y-34428575D01*
X76930535Y-34225966D01*
X77156366Y-34000135D01*
X77358975Y-33753256D01*
X77536409Y-33487706D01*
X77686961Y-33206044D01*
X77809180Y-32910981D01*
X77901889Y-32605360D01*
X77964196Y-32292123D01*
X77995500Y-31974287D01*
X77995500Y-31654913D01*
X77964196Y-31337077D01*
X77901889Y-31023840D01*
X77809180Y-30718219D01*
X77686961Y-30423156D01*
X77675389Y-30401506D01*
X77587525Y-30237124D01*
X77587524Y-30237123D01*
X77557908Y-30181716D01*
X77557906Y-30181713D01*
X90441500Y-30181713D01*
X90441500Y-30501087D01*
X90444777Y-30534354D01*
X90472803Y-30818922D01*
X90535109Y-31132154D01*
X90627820Y-31437782D01*
X90685168Y-31576231D01*
X90734129Y-31694435D01*
X90750040Y-31732846D01*
X90750042Y-31732851D01*
X90900584Y-32014494D01*
X90900601Y-32014522D01*
X91078012Y-32280038D01*
X91078029Y-32280061D01*
X91280638Y-32526940D01*
X91506459Y-32752761D01*
X91506464Y-32752765D01*
X91506465Y-32752766D01*
X91753344Y-32955375D01*
X91753351Y-32955380D01*
X91753361Y-32955387D01*
X92018877Y-33132798D01*
X92018882Y-33132801D01*
X92018894Y-33132809D01*
X92018903Y-33132813D01*
X92018905Y-33132815D01*
X92300548Y-33283357D01*
X92300550Y-33283357D01*
X92300556Y-33283361D01*
X92595619Y-33405580D01*
X92901240Y-33498289D01*
X93214477Y-33560596D01*
X93532313Y-33591900D01*
X93532316Y-33591900D01*
X93851684Y-33591900D01*
X93851687Y-33591900D01*
X94169523Y-33560596D01*
X94482760Y-33498289D01*
X94788381Y-33405580D01*
X95083444Y-33283361D01*
X95365106Y-33132809D01*
X95630656Y-32955375D01*
X95877535Y-32752766D01*
X96103366Y-32526935D01*
X96305975Y-32280056D01*
X96483409Y-32014506D01*
X96633961Y-31732844D01*
X96756180Y-31437781D01*
X96848889Y-31132160D01*
X96911196Y-30818923D01*
X96942500Y-30501087D01*
X96942500Y-30181713D01*
X110441500Y-30181713D01*
X110441500Y-30501087D01*
X110444777Y-30534354D01*
X110472803Y-30818922D01*
X110535109Y-31132154D01*
X110627820Y-31437782D01*
X110685168Y-31576231D01*
X110734129Y-31694435D01*
X110750040Y-31732846D01*
X110750042Y-31732851D01*
X110900584Y-32014494D01*
X110900601Y-32014522D01*
X111078012Y-32280038D01*
X111078029Y-32280061D01*
X111280638Y-32526940D01*
X111506459Y-32752761D01*
X111506464Y-32752765D01*
X111506465Y-32752766D01*
X111753344Y-32955375D01*
X111753351Y-32955380D01*
X111753361Y-32955387D01*
X112018877Y-33132798D01*
X112018882Y-33132801D01*
X112018894Y-33132809D01*
X112018903Y-33132813D01*
X112018905Y-33132815D01*
X112300548Y-33283357D01*
X112300550Y-33283357D01*
X112300556Y-33283361D01*
X112595619Y-33405580D01*
X112901240Y-33498289D01*
X113214477Y-33560596D01*
X113532313Y-33591900D01*
X113532316Y-33591900D01*
X113851684Y-33591900D01*
X113851687Y-33591900D01*
X114169523Y-33560596D01*
X114482760Y-33498289D01*
X114710684Y-33429149D01*
X150565500Y-33429149D01*
X150565500Y-35272050D01*
X150580804Y-35486033D01*
X150641629Y-35765641D01*
X150702350Y-35928441D01*
X150707334Y-35998133D01*
X150703210Y-36012728D01*
X150672590Y-36100236D01*
X150672589Y-36100238D01*
X150601347Y-36412371D01*
X150601345Y-36412383D01*
X150565500Y-36730514D01*
X150565500Y-37050685D01*
X150601345Y-37368816D01*
X150601347Y-37368828D01*
X150672589Y-37680962D01*
X150672590Y-37680964D01*
X150778332Y-37983159D01*
X150917243Y-38271610D01*
X150917245Y-38271613D01*
X151087581Y-38542701D01*
X151179859Y-38658414D01*
X151282190Y-38786734D01*
X151287198Y-38793013D01*
X151513587Y-39019402D01*
X151763899Y-39219019D01*
X152034987Y-39389355D01*
X152323442Y-39528268D01*
X152625637Y-39634010D01*
X152937771Y-39705253D01*
X153255915Y-39741099D01*
X153255916Y-39741100D01*
X153255919Y-39741100D01*
X153576084Y-39741100D01*
X153576084Y-39741099D01*
X153894229Y-39705253D01*
X154206363Y-39634010D01*
X154508558Y-39528268D01*
X154797013Y-39389355D01*
X155068101Y-39219019D01*
X155318413Y-39019402D01*
X155544802Y-38793013D01*
X155744419Y-38542701D01*
X155914755Y-38271613D01*
X156053668Y-37983158D01*
X156159410Y-37680963D01*
X156230653Y-37368829D01*
X156266500Y-37050681D01*
X156266500Y-36730519D01*
X156230653Y-36412371D01*
X156159410Y-36100237D01*
X156128788Y-36012727D01*
X156125226Y-35942952D01*
X156129642Y-35928458D01*
X156190369Y-35765646D01*
X156251196Y-35486028D01*
X156266500Y-35272048D01*
X156266500Y-33429152D01*
X156251196Y-33215172D01*
X156249210Y-33206044D01*
X156190371Y-32935562D01*
X156190370Y-32935560D01*
X156190369Y-32935554D01*
X156090367Y-32667439D01*
X156013648Y-32526940D01*
X155953229Y-32416290D01*
X155953224Y-32416282D01*
X155781745Y-32187212D01*
X155781729Y-32187194D01*
X155579714Y-31985179D01*
X156789500Y-31985179D01*
X156789500Y-33157220D01*
X156799876Y-33334432D01*
X156854950Y-33630668D01*
X156854952Y-33630678D01*
X156949013Y-33916907D01*
X156949018Y-33916919D01*
X157080393Y-34188066D01*
X157083664Y-34193005D01*
X157104266Y-34259768D01*
X157091998Y-34315270D01*
X156994869Y-34516959D01*
X156994866Y-34516967D01*
X156892835Y-34808552D01*
X156892831Y-34808564D01*
X156824089Y-35109744D01*
X156824086Y-35109762D01*
X156789500Y-35416728D01*
X156789500Y-35725671D01*
X156824086Y-36032637D01*
X156824089Y-36032655D01*
X156892831Y-36333835D01*
X156892835Y-36333847D01*
X156994862Y-36625422D01*
X156994868Y-36625436D01*
X157128903Y-36903762D01*
X157128905Y-36903765D01*
X157293265Y-37165343D01*
X157485880Y-37406874D01*
X157704326Y-37625320D01*
X157945857Y-37817935D01*
X158207435Y-37982295D01*
X158485771Y-38116335D01*
X158485777Y-38116337D01*
X158777352Y-38218364D01*
X158777364Y-38218368D01*
X159078548Y-38287111D01*
X159078554Y-38287111D01*
X159078562Y-38287113D01*
X159283206Y-38310170D01*
X159385529Y-38321699D01*
X159385532Y-38321700D01*
X159385535Y-38321700D01*
X160214468Y-38321700D01*
X160214469Y-38321699D01*
X160371356Y-38304022D01*
X160521437Y-38287113D01*
X160521440Y-38287112D01*
X160521452Y-38287111D01*
X160745778Y-38235910D01*
X160815514Y-38240183D01*
X160871872Y-38281482D01*
X160896955Y-38346694D01*
X160894986Y-38380991D01*
X160874500Y-38483987D01*
X160874500Y-38658418D01*
X160908527Y-38829483D01*
X160908529Y-38829491D01*
X160975278Y-38990639D01*
X160975283Y-38990648D01*
X161072186Y-39135673D01*
X161072189Y-39135677D01*
X161195522Y-39259010D01*
X161195526Y-39259013D01*
X161340551Y-39355916D01*
X161340557Y-39355919D01*
X161340558Y-39355920D01*
X161501709Y-39422671D01*
X161672781Y-39456699D01*
X161672785Y-39456700D01*
X161672786Y-39456700D01*
X161847215Y-39456700D01*
X161847216Y-39456699D01*
X162018291Y-39422671D01*
X162179442Y-39355920D01*
X162324474Y-39259013D01*
X162447813Y-39135674D01*
X162544720Y-38990642D01*
X162611471Y-38829491D01*
X162645500Y-38658414D01*
X162645500Y-38483986D01*
X162611471Y-38312909D01*
X162544720Y-38151758D01*
X162544719Y-38151757D01*
X162544716Y-38151751D01*
X162447813Y-38006726D01*
X162447810Y-38006722D01*
X162324477Y-37883389D01*
X162324473Y-37883386D01*
X162179448Y-37786483D01*
X162179439Y-37786478D01*
X162036282Y-37727181D01*
X161981879Y-37683340D01*
X161959814Y-37617046D01*
X161977093Y-37549347D01*
X161996047Y-37524946D01*
X162114120Y-37406874D01*
X162306735Y-37165343D01*
X162471095Y-36903765D01*
X162605135Y-36625429D01*
X162707168Y-36333836D01*
X162775911Y-36032652D01*
X162779801Y-35998133D01*
X162810499Y-35725671D01*
X162810500Y-35725667D01*
X162810500Y-35416732D01*
X162810499Y-35416728D01*
X162775913Y-35109762D01*
X162775910Y-35109744D01*
X162758575Y-35033796D01*
X162707168Y-34808564D01*
X162605135Y-34516971D01*
X162508000Y-34315270D01*
X162496649Y-34246330D01*
X162516337Y-34193003D01*
X162519604Y-34188070D01*
X162650984Y-33916915D01*
X162745050Y-33630668D01*
X162800123Y-33334437D01*
X162810500Y-33157220D01*
X162810500Y-31985180D01*
X162800123Y-31807963D01*
X162745050Y-31511732D01*
X162745047Y-31511725D01*
X162745047Y-31511721D01*
X162650986Y-31225492D01*
X162650984Y-31225485D01*
X162519604Y-30954330D01*
X162353255Y-30703106D01*
X162298761Y-30640793D01*
X162190460Y-30516951D01*
X162161146Y-30453528D01*
X162170774Y-30384325D01*
X162214910Y-30332220D01*
X162324474Y-30259013D01*
X162447813Y-30135674D01*
X162544720Y-29990642D01*
X162611471Y-29829491D01*
X162645500Y-29658414D01*
X162645500Y-29483986D01*
X162611471Y-29312909D01*
X162544720Y-29151758D01*
X162544719Y-29151757D01*
X162544716Y-29151751D01*
X162447813Y-29006726D01*
X162447810Y-29006722D01*
X162324477Y-28883389D01*
X162324473Y-28883386D01*
X162179448Y-28786483D01*
X162179439Y-28786478D01*
X162018291Y-28719729D01*
X162018283Y-28719727D01*
X161847218Y-28685700D01*
X161847214Y-28685700D01*
X161672786Y-28685700D01*
X161672781Y-28685700D01*
X161501716Y-28719727D01*
X161501708Y-28719729D01*
X161340560Y-28786478D01*
X161340551Y-28786483D01*
X161195526Y-28883386D01*
X161195522Y-28883389D01*
X161072189Y-29006722D01*
X161072186Y-29006726D01*
X160975283Y-29151751D01*
X160975278Y-29151760D01*
X160908529Y-29312908D01*
X160908527Y-29312916D01*
X160874500Y-29483981D01*
X160874500Y-29658415D01*
X160878553Y-29678794D01*
X160872324Y-29748385D01*
X160829459Y-29803562D01*
X160763569Y-29826804D01*
X160749687Y-29826770D01*
X160646020Y-29820700D01*
X158953980Y-29820700D01*
X158776767Y-29831076D01*
X158480531Y-29886150D01*
X158480521Y-29886152D01*
X158194292Y-29980213D01*
X158194280Y-29980218D01*
X157923134Y-30111593D01*
X157671904Y-30277946D01*
X157445094Y-30476294D01*
X157246746Y-30703104D01*
X157080393Y-30954334D01*
X156949018Y-31225480D01*
X156949013Y-31225492D01*
X156854952Y-31511721D01*
X156854950Y-31511731D01*
X156799876Y-31807967D01*
X156789500Y-31985179D01*
X155579714Y-31985179D01*
X155579405Y-31984870D01*
X155579387Y-31984854D01*
X155350317Y-31813375D01*
X155350309Y-31813370D01*
X155099166Y-31676235D01*
X155099167Y-31676235D01*
X154991915Y-31636232D01*
X154831046Y-31576231D01*
X154831043Y-31576230D01*
X154831037Y-31576228D01*
X154551433Y-31515404D01*
X154337450Y-31500100D01*
X154337448Y-31500100D01*
X152494552Y-31500100D01*
X152494549Y-31500100D01*
X152280566Y-31515404D01*
X152000962Y-31576228D01*
X151732833Y-31676235D01*
X151481690Y-31813370D01*
X151481682Y-31813375D01*
X151252612Y-31984854D01*
X151252594Y-31984870D01*
X151050270Y-32187194D01*
X151050254Y-32187212D01*
X150878775Y-32416282D01*
X150878770Y-32416290D01*
X150741635Y-32667433D01*
X150641628Y-32935562D01*
X150580804Y-33215166D01*
X150565500Y-33429149D01*
X114710684Y-33429149D01*
X114788381Y-33405580D01*
X115083444Y-33283361D01*
X115365106Y-33132809D01*
X115630656Y-32955375D01*
X115877535Y-32752766D01*
X116103366Y-32526935D01*
X116305975Y-32280056D01*
X116483409Y-32014506D01*
X116633961Y-31732844D01*
X116756180Y-31437781D01*
X116848889Y-31132160D01*
X116911196Y-30818923D01*
X116942500Y-30501087D01*
X116942500Y-30181713D01*
X116911196Y-29863877D01*
X116888223Y-29748385D01*
X116855838Y-29585573D01*
X116851994Y-29566248D01*
X140505100Y-29566248D01*
X140505100Y-29747351D01*
X140533429Y-29926210D01*
X140589387Y-30098436D01*
X140589388Y-30098439D01*
X140611328Y-30141497D01*
X140671206Y-30259013D01*
X140671606Y-30259797D01*
X140778041Y-30406294D01*
X140778045Y-30406299D01*
X140906100Y-30534354D01*
X140906105Y-30534358D01*
X141033887Y-30627196D01*
X141052606Y-30640796D01*
X141158084Y-30694540D01*
X141213960Y-30723011D01*
X141213963Y-30723012D01*
X141300076Y-30750991D01*
X141386191Y-30778971D01*
X141469029Y-30792091D01*
X141565049Y-30807300D01*
X141565054Y-30807300D01*
X141746151Y-30807300D01*
X141832859Y-30793565D01*
X141925009Y-30778971D01*
X142097239Y-30723011D01*
X142258594Y-30640796D01*
X142405101Y-30534353D01*
X142533153Y-30406301D01*
X142639596Y-30259794D01*
X142721811Y-30098439D01*
X142777771Y-29926209D01*
X142794482Y-29820700D01*
X142806100Y-29747351D01*
X142806100Y-29566248D01*
X142789619Y-29462197D01*
X142777771Y-29387391D01*
X142738187Y-29265563D01*
X142721812Y-29215163D01*
X142721811Y-29215160D01*
X142689502Y-29151751D01*
X142639596Y-29053806D01*
X142564143Y-28949953D01*
X142533158Y-28907305D01*
X142533154Y-28907300D01*
X142405099Y-28779245D01*
X142405094Y-28779241D01*
X142258597Y-28672806D01*
X142258596Y-28672805D01*
X142258594Y-28672804D01*
X142206900Y-28646464D01*
X142097239Y-28590588D01*
X142097236Y-28590587D01*
X141925010Y-28534629D01*
X141746151Y-28506300D01*
X141746146Y-28506300D01*
X141565054Y-28506300D01*
X141565049Y-28506300D01*
X141386189Y-28534629D01*
X141213963Y-28590587D01*
X141213960Y-28590588D01*
X141052602Y-28672806D01*
X140906105Y-28779241D01*
X140906100Y-28779245D01*
X140778045Y-28907300D01*
X140778041Y-28907305D01*
X140671606Y-29053802D01*
X140589388Y-29215160D01*
X140589387Y-29215163D01*
X140533429Y-29387389D01*
X140505100Y-29566248D01*
X116851994Y-29566248D01*
X116848889Y-29550642D01*
X116848889Y-29550640D01*
X116756180Y-29245019D01*
X116633961Y-28949956D01*
X116627959Y-28938728D01*
X116483415Y-28668305D01*
X116483413Y-28668303D01*
X116483409Y-28668294D01*
X116476338Y-28657711D01*
X116305987Y-28402761D01*
X116305980Y-28402751D01*
X116305975Y-28402744D01*
X116103366Y-28155865D01*
X116103365Y-28155864D01*
X116103361Y-28155859D01*
X115877540Y-27930038D01*
X115630661Y-27727429D01*
X115630638Y-27727412D01*
X115365122Y-27550001D01*
X115365094Y-27549984D01*
X115083451Y-27399442D01*
X115083446Y-27399440D01*
X115055885Y-27388024D01*
X114997023Y-27363642D01*
X114788382Y-27277220D01*
X114482754Y-27184509D01*
X114169521Y-27122203D01*
X114169522Y-27122203D01*
X113930141Y-27098627D01*
X113851687Y-27090900D01*
X113532313Y-27090900D01*
X113459822Y-27098039D01*
X113214477Y-27122203D01*
X112901245Y-27184509D01*
X112595617Y-27277220D01*
X112300553Y-27399440D01*
X112300548Y-27399442D01*
X112018905Y-27549984D01*
X112018877Y-27550001D01*
X111753361Y-27727412D01*
X111753338Y-27727429D01*
X111506459Y-27930038D01*
X111280638Y-28155859D01*
X111078029Y-28402738D01*
X111078012Y-28402761D01*
X110900601Y-28668277D01*
X110900584Y-28668305D01*
X110750042Y-28949948D01*
X110750040Y-28949953D01*
X110627820Y-29245017D01*
X110535109Y-29550645D01*
X110472803Y-29863877D01*
X110460318Y-29990648D01*
X110441500Y-30181713D01*
X96942500Y-30181713D01*
X96911196Y-29863877D01*
X96848889Y-29550640D01*
X96756180Y-29245019D01*
X96633961Y-28949956D01*
X96627959Y-28938728D01*
X96483415Y-28668305D01*
X96483413Y-28668303D01*
X96483409Y-28668294D01*
X96476338Y-28657711D01*
X96305987Y-28402761D01*
X96305980Y-28402751D01*
X96305975Y-28402744D01*
X96103366Y-28155865D01*
X96103365Y-28155864D01*
X96103361Y-28155859D01*
X95877540Y-27930038D01*
X95630661Y-27727429D01*
X95630638Y-27727412D01*
X95365122Y-27550001D01*
X95365094Y-27549984D01*
X95083451Y-27399442D01*
X95083446Y-27399440D01*
X95055885Y-27388024D01*
X94997023Y-27363642D01*
X94788382Y-27277220D01*
X94482754Y-27184509D01*
X94169521Y-27122203D01*
X94169522Y-27122203D01*
X93930141Y-27098627D01*
X93851687Y-27090900D01*
X93532313Y-27090900D01*
X93459822Y-27098039D01*
X93214477Y-27122203D01*
X92901245Y-27184509D01*
X92595617Y-27277220D01*
X92300553Y-27399440D01*
X92300548Y-27399442D01*
X92018905Y-27549984D01*
X92018877Y-27550001D01*
X91753361Y-27727412D01*
X91753338Y-27727429D01*
X91506459Y-27930038D01*
X91280638Y-28155859D01*
X91078029Y-28402738D01*
X91078012Y-28402761D01*
X90900601Y-28668277D01*
X90900584Y-28668305D01*
X90750042Y-28949948D01*
X90750040Y-28949953D01*
X90627820Y-29245017D01*
X90535109Y-29550645D01*
X90472803Y-29863877D01*
X90460318Y-29990648D01*
X90441500Y-30181713D01*
X77557906Y-30181713D01*
X77536409Y-30141494D01*
X77536398Y-30141477D01*
X77358987Y-29875961D01*
X77358980Y-29875951D01*
X77358975Y-29875944D01*
X77156366Y-29629065D01*
X77156365Y-29629064D01*
X77156361Y-29629059D01*
X76930540Y-29403238D01*
X76683661Y-29200629D01*
X76683638Y-29200612D01*
X76418122Y-29023201D01*
X76418094Y-29023184D01*
X76136451Y-28872642D01*
X76136446Y-28872640D01*
X75841382Y-28750420D01*
X75535754Y-28657709D01*
X75222521Y-28595403D01*
X75222522Y-28595403D01*
X74983141Y-28571827D01*
X74904687Y-28564100D01*
X74585313Y-28564100D01*
X74512822Y-28571239D01*
X74267477Y-28595403D01*
X73954245Y-28657709D01*
X73648617Y-28750420D01*
X73353553Y-28872640D01*
X73353548Y-28872642D01*
X73071905Y-29023184D01*
X73071877Y-29023201D01*
X72806361Y-29200612D01*
X72806338Y-29200629D01*
X72559459Y-29403238D01*
X72333638Y-29629059D01*
X72131029Y-29875938D01*
X72131012Y-29875961D01*
X71953601Y-30141477D01*
X71953584Y-30141505D01*
X71803042Y-30423148D01*
X71803040Y-30423153D01*
X71680820Y-30718217D01*
X71588109Y-31023845D01*
X71525803Y-31337077D01*
X71508603Y-31511721D01*
X71494500Y-31654913D01*
X67268360Y-31654913D01*
X67268353Y-31652179D01*
X67253110Y-25549810D01*
X67272627Y-25482721D01*
X67325317Y-25436835D01*
X67377110Y-25425500D01*
X168677600Y-25425500D01*
X168744639Y-25445185D01*
G37*
%TD.AperFunction*%
%TD*%
M02*
