%TF.GenerationSoftware,KiCad,Pcbnew,9.0.4*%
%TF.CreationDate,2026-03-12T14:42:41-04:00*%
%TF.ProjectId,Power Board,506f7765-7220-4426-9f61-72642e6b6963,rev?*%
%TF.SameCoordinates,Original*%
%TF.FileFunction,Copper,L2,Inr*%
%TF.FilePolarity,Positive*%
%FSLAX46Y46*%
G04 Gerber Fmt 4.6, Leading zero omitted, Abs format (unit mm)*
G04 Created by KiCad (PCBNEW 9.0.4) date 2026-03-12 14:42:41*
%MOMM*%
%LPD*%
G01*
G04 APERTURE LIST*
G04 Aperture macros list*
%AMRoundRect*
0 Rectangle with rounded corners*
0 $1 Rounding radius*
0 $2 $3 $4 $5 $6 $7 $8 $9 X,Y pos of 4 corners*
0 Add a 4 corners polygon primitive as box body*
4,1,4,$2,$3,$4,$5,$6,$7,$8,$9,$2,$3,0*
0 Add four circle primitives for the rounded corners*
1,1,$1+$1,$2,$3*
1,1,$1+$1,$4,$5*
1,1,$1+$1,$6,$7*
1,1,$1+$1,$8,$9*
0 Add four rect primitives between the rounded corners*
20,1,$1+$1,$2,$3,$4,$5,0*
20,1,$1+$1,$4,$5,$6,$7,0*
20,1,$1+$1,$6,$7,$8,$9,0*
20,1,$1+$1,$8,$9,$2,$3,0*%
G04 Aperture macros list end*
%TA.AperFunction,ComponentPad*%
%ADD10RoundRect,0.250002X1.599998X1.599998X-1.599998X1.599998X-1.599998X-1.599998X1.599998X-1.599998X0*%
%TD*%
%TA.AperFunction,ComponentPad*%
%ADD11C,3.700000*%
%TD*%
%TA.AperFunction,ComponentPad*%
%ADD12C,2.500000*%
%TD*%
%TA.AperFunction,ComponentPad*%
%ADD13RoundRect,0.250001X-0.759999X0.499999X-0.759999X-0.499999X0.759999X-0.499999X0.759999X0.499999X0*%
%TD*%
%TA.AperFunction,ComponentPad*%
%ADD14O,2.020000X1.500000*%
%TD*%
%TA.AperFunction,ComponentPad*%
%ADD15R,2.500000X2.500000*%
%TD*%
%TA.AperFunction,ComponentPad*%
%ADD16C,4.000000*%
%TD*%
%TA.AperFunction,ComponentPad*%
%ADD17R,1.700000X1.700000*%
%TD*%
%TA.AperFunction,ComponentPad*%
%ADD18C,1.700000*%
%TD*%
G04 APERTURE END LIST*
D10*
%TO.N,/AC_Neutral*%
%TO.C,J4*%
X145135600Y-38126800D03*
D11*
%TO.N,/AC_Line*%
X145135600Y-32426800D03*
%TD*%
D12*
%TO.N,Net-(U1-Frame_GND)*%
%TO.C,U1*%
X93692000Y-30341400D03*
%TO.N,/AC_Neutral*%
X113692000Y-30341400D03*
%TO.N,/AC_Line*%
X133692000Y-30341400D03*
%TO.N,-24V*%
X102192000Y-98941400D03*
%TO.N,GND*%
X113692000Y-98941400D03*
%TO.N,+24V*%
X125192000Y-98941400D03*
%TD*%
D13*
%TO.N,/Earth_GND*%
%TO.C,J5*%
X159800000Y-32571200D03*
D14*
X159800000Y-35571200D03*
%TD*%
D15*
%TO.N,/AC_Line*%
%TO.C,PS1*%
X81495000Y-31814600D03*
D12*
%TO.N,/AC_Neutral*%
X74745000Y-31814600D03*
D16*
%TO.N,unconnected-(PS1-+Vout-Pad3)*%
X40245000Y-107814600D03*
%TO.N,unconnected-(PS1--Vout-Pad4)*%
X45745000Y-107814600D03*
%TD*%
D17*
%TO.N,/Earth_GND*%
%TO.C,J8*%
X153416000Y-34350600D03*
D18*
%TO.N,Net-(U1-Frame_GND)*%
X153416000Y-36890600D03*
%TD*%
%TA.AperFunction,Conductor*%
%TO.N,/AC_Neutral*%
G36*
X167881039Y-25445185D02*
G01*
X167926794Y-25497989D01*
X167938000Y-25549500D01*
X167938000Y-27603550D01*
X167918315Y-27670589D01*
X167892665Y-27699403D01*
X167759130Y-27808992D01*
X167508992Y-28059130D01*
X167284568Y-28332592D01*
X167284558Y-28332606D01*
X167088028Y-28626734D01*
X167088017Y-28626752D01*
X166921264Y-28938723D01*
X166921262Y-28938728D01*
X166785882Y-29265563D01*
X166742655Y-29408066D01*
X166704357Y-29466505D01*
X166640545Y-29494961D01*
X166571478Y-29484401D01*
X166524727Y-29446382D01*
X166480567Y-29387391D01*
X166426649Y-29315365D01*
X166413184Y-29299826D01*
X166380908Y-29262577D01*
X166380905Y-29262574D01*
X166380894Y-29262561D01*
X166380883Y-29262550D01*
X166380872Y-29262538D01*
X166178580Y-29060246D01*
X166178579Y-29060245D01*
X166178574Y-29060240D01*
X166178570Y-29060237D01*
X166178560Y-29060228D01*
X165949515Y-28888765D01*
X165949510Y-28888762D01*
X165949507Y-28888760D01*
X165698368Y-28751625D01*
X165698366Y-28751624D01*
X165698362Y-28751622D01*
X165698360Y-28751621D01*
X165430278Y-28651628D01*
X165363242Y-28631944D01*
X165363212Y-28631936D01*
X165083617Y-28571113D01*
X164798202Y-28550700D01*
X164798200Y-28550700D01*
X150847600Y-28550700D01*
X150704512Y-28555811D01*
X150611053Y-28569249D01*
X150421277Y-28596536D01*
X150369766Y-28607742D01*
X150231082Y-28643140D01*
X150231076Y-28643142D01*
X150231073Y-28643143D01*
X150070213Y-28703141D01*
X149962967Y-28743142D01*
X149711837Y-28880269D01*
X149711836Y-28880270D01*
X149482759Y-29051755D01*
X149429977Y-29097491D01*
X149429938Y-29097527D01*
X149227646Y-29299819D01*
X149227628Y-29299839D01*
X149056165Y-29528884D01*
X148919022Y-29780037D01*
X148919021Y-29780039D01*
X148819028Y-30048121D01*
X148799344Y-30115157D01*
X148799336Y-30115187D01*
X148738513Y-30394782D01*
X148731024Y-30499490D01*
X148706607Y-30564954D01*
X148650673Y-30606825D01*
X148580981Y-30611809D01*
X148519658Y-30578324D01*
X148497982Y-30549096D01*
X148490104Y-30534358D01*
X148442267Y-30444860D01*
X148416503Y-30406301D01*
X148232093Y-30130310D01*
X148232086Y-30130300D01*
X148232081Y-30130293D01*
X147992073Y-29837844D01*
X147992072Y-29837843D01*
X147992068Y-29837838D01*
X147724561Y-29570331D01*
X147432112Y-29330323D01*
X147432089Y-29330306D01*
X147117556Y-29120143D01*
X147117528Y-29120126D01*
X146783893Y-28941794D01*
X146783888Y-28941792D01*
X146776498Y-28938731D01*
X146635369Y-28880273D01*
X146434360Y-28797012D01*
X146072314Y-28687187D01*
X146072303Y-28687184D01*
X145701266Y-28613381D01*
X145417699Y-28585453D01*
X145324763Y-28576300D01*
X144946437Y-28576300D01*
X144860566Y-28584757D01*
X144569933Y-28613381D01*
X144198896Y-28687184D01*
X144198885Y-28687187D01*
X143836839Y-28797012D01*
X143487311Y-28941792D01*
X143487306Y-28941794D01*
X143153671Y-29120126D01*
X143153658Y-29120134D01*
X142909675Y-29283157D01*
X142842998Y-29304034D01*
X142775618Y-29285549D01*
X142728928Y-29233570D01*
X142722851Y-29218363D01*
X142721811Y-29215163D01*
X142721811Y-29215161D01*
X142639596Y-29053806D01*
X142564143Y-28949953D01*
X142533158Y-28907305D01*
X142533154Y-28907300D01*
X142405099Y-28779245D01*
X142405094Y-28779241D01*
X142258597Y-28672806D01*
X142258596Y-28672805D01*
X142258594Y-28672804D01*
X142200381Y-28643143D01*
X142097239Y-28590588D01*
X142097236Y-28590587D01*
X141925010Y-28534629D01*
X141746151Y-28506300D01*
X141746146Y-28506300D01*
X141565054Y-28506300D01*
X141565049Y-28506300D01*
X141386189Y-28534629D01*
X141213963Y-28590587D01*
X141213960Y-28590588D01*
X141052602Y-28672806D01*
X140906105Y-28779241D01*
X140906100Y-28779245D01*
X140778045Y-28907300D01*
X140778041Y-28907305D01*
X140671606Y-29053802D01*
X140589388Y-29215160D01*
X140589387Y-29215163D01*
X140533429Y-29387389D01*
X140505100Y-29566248D01*
X140505100Y-29747351D01*
X140533429Y-29926210D01*
X140589387Y-30098436D01*
X140589388Y-30098439D01*
X140671606Y-30259797D01*
X140778041Y-30406294D01*
X140778045Y-30406299D01*
X140906100Y-30534354D01*
X140906105Y-30534358D01*
X141033887Y-30627196D01*
X141052606Y-30640796D01*
X141158084Y-30694540D01*
X141213960Y-30723011D01*
X141213963Y-30723012D01*
X141386190Y-30778971D01*
X141438552Y-30787264D01*
X141478777Y-30793635D01*
X141541912Y-30823564D01*
X141578844Y-30882875D01*
X141577846Y-30952738D01*
X141573941Y-30963560D01*
X141505814Y-31128035D01*
X141505812Y-31128041D01*
X141504563Y-31132160D01*
X141395987Y-31490085D01*
X141395984Y-31490096D01*
X141322181Y-31861133D01*
X141285100Y-32237640D01*
X141285100Y-32615959D01*
X141322181Y-32992466D01*
X141395984Y-33363503D01*
X141395987Y-33363514D01*
X141505812Y-33725560D01*
X141650592Y-34075088D01*
X141650594Y-34075093D01*
X141828926Y-34408728D01*
X141828943Y-34408756D01*
X142039106Y-34723289D01*
X142039123Y-34723312D01*
X142279131Y-35015761D01*
X142546638Y-35283268D01*
X142546643Y-35283272D01*
X142546644Y-35283273D01*
X142839093Y-35523281D01*
X142839100Y-35523286D01*
X142839110Y-35523293D01*
X143153643Y-35733456D01*
X143153648Y-35733459D01*
X143153660Y-35733467D01*
X143153669Y-35733471D01*
X143153671Y-35733473D01*
X143487306Y-35911805D01*
X143487308Y-35911805D01*
X143487314Y-35911809D01*
X143836841Y-36056588D01*
X144198876Y-36166410D01*
X144198882Y-36166411D01*
X144198885Y-36166412D01*
X144198896Y-36166415D01*
X144569933Y-36240218D01*
X144946437Y-36277300D01*
X144946440Y-36277300D01*
X145324760Y-36277300D01*
X145324763Y-36277300D01*
X145701267Y-36240218D01*
X145773499Y-36225850D01*
X146072303Y-36166415D01*
X146072314Y-36166412D01*
X146072314Y-36166411D01*
X146072324Y-36166410D01*
X146434359Y-36056588D01*
X146783886Y-35911809D01*
X147117540Y-35733467D01*
X147432107Y-35523281D01*
X147724556Y-35283273D01*
X147992073Y-35015756D01*
X148232081Y-34723307D01*
X148442267Y-34408740D01*
X148484742Y-34329275D01*
X148533704Y-34279431D01*
X148601842Y-34263970D01*
X148667521Y-34287802D01*
X148709890Y-34343359D01*
X148718100Y-34387728D01*
X148718100Y-39601600D01*
X148723211Y-39744688D01*
X148741197Y-39869774D01*
X148763936Y-40027922D01*
X148775142Y-40079433D01*
X148810540Y-40218117D01*
X148810543Y-40218127D01*
X148901921Y-40463119D01*
X148910542Y-40486232D01*
X149047669Y-40737362D01*
X149047670Y-40737363D01*
X149047673Y-40737368D01*
X149107196Y-40816881D01*
X149219155Y-40966440D01*
X149264745Y-41019053D01*
X149264906Y-41019239D01*
X149264915Y-41019248D01*
X149264927Y-41019261D01*
X149414595Y-41168929D01*
X149467226Y-41221560D01*
X149467230Y-41221563D01*
X149467239Y-41221571D01*
X149696284Y-41393034D01*
X149696287Y-41393035D01*
X149696293Y-41393040D01*
X149947432Y-41530175D01*
X149947436Y-41530176D01*
X149947437Y-41530177D01*
X149947439Y-41530178D01*
X150215521Y-41630171D01*
X150215530Y-41630173D01*
X150215531Y-41630174D01*
X150282570Y-41649859D01*
X150282585Y-41649863D01*
X150445316Y-41685263D01*
X150562182Y-41710686D01*
X150562184Y-41710686D01*
X150562188Y-41710687D01*
X150847600Y-41731100D01*
X164798199Y-41731100D01*
X164798200Y-41731100D01*
X164941288Y-41725989D01*
X165224517Y-41685264D01*
X165276028Y-41674058D01*
X165276025Y-41674058D01*
X165276033Y-41674057D01*
X165322261Y-41662257D01*
X165414727Y-41638657D01*
X165682827Y-41538660D01*
X165933968Y-41401527D01*
X166163035Y-41230049D01*
X166215839Y-41184294D01*
X166394451Y-41005681D01*
X166455773Y-40972198D01*
X166525464Y-40977182D01*
X166581398Y-41019053D01*
X166605534Y-41081210D01*
X166614173Y-41168929D01*
X166614176Y-41168946D01*
X166683185Y-41515884D01*
X166683188Y-41515895D01*
X166785882Y-41854436D01*
X166921262Y-42181271D01*
X166921264Y-42181276D01*
X167088017Y-42493247D01*
X167088028Y-42493265D01*
X167284558Y-42787393D01*
X167284568Y-42787407D01*
X167508992Y-43060869D01*
X167759129Y-43311006D01*
X167759134Y-43311010D01*
X167759136Y-43311012D01*
X167892666Y-43420597D01*
X167931999Y-43478340D01*
X167938000Y-43516448D01*
X167938000Y-45570500D01*
X167918315Y-45637539D01*
X167865511Y-45683294D01*
X167814000Y-45694500D01*
X67427120Y-45694500D01*
X67360081Y-45674815D01*
X67314326Y-45622011D01*
X67303120Y-45570810D01*
X67303119Y-45570500D01*
X67279629Y-36166412D01*
X67265458Y-30493149D01*
X78244500Y-30493149D01*
X78244500Y-33136050D01*
X78259804Y-33350033D01*
X78320628Y-33629637D01*
X78420635Y-33897766D01*
X78557770Y-34148909D01*
X78557775Y-34148917D01*
X78729254Y-34377987D01*
X78729270Y-34378005D01*
X78931594Y-34580329D01*
X78931612Y-34580345D01*
X79160682Y-34751824D01*
X79160690Y-34751829D01*
X79411833Y-34888964D01*
X79411832Y-34888964D01*
X79411836Y-34888965D01*
X79411839Y-34888967D01*
X79679954Y-34988969D01*
X79679960Y-34988970D01*
X79679962Y-34988971D01*
X79959566Y-35049795D01*
X79959568Y-35049795D01*
X79959572Y-35049796D01*
X80173552Y-35065100D01*
X82816448Y-35065100D01*
X83030428Y-35049796D01*
X83310046Y-34988969D01*
X83578161Y-34888967D01*
X83829315Y-34751826D01*
X84058395Y-34580339D01*
X84260739Y-34377995D01*
X84432226Y-34148915D01*
X84569367Y-33897761D01*
X84669369Y-33629646D01*
X84697944Y-33498289D01*
X84730195Y-33350033D01*
X84730195Y-33350032D01*
X84730196Y-33350028D01*
X84745500Y-33136048D01*
X84745500Y-30493152D01*
X84730196Y-30279172D01*
X84708995Y-30181713D01*
X90441500Y-30181713D01*
X90441500Y-30501087D01*
X90447790Y-30564954D01*
X90472803Y-30818922D01*
X90535109Y-31132154D01*
X90627820Y-31437782D01*
X90714242Y-31646423D01*
X90734129Y-31694435D01*
X90750040Y-31732846D01*
X90750042Y-31732851D01*
X90900584Y-32014494D01*
X90900601Y-32014522D01*
X91078012Y-32280038D01*
X91078029Y-32280061D01*
X91280638Y-32526940D01*
X91506459Y-32752761D01*
X91506464Y-32752765D01*
X91506465Y-32752766D01*
X91753344Y-32955375D01*
X91753351Y-32955380D01*
X91753361Y-32955387D01*
X92018877Y-33132798D01*
X92018882Y-33132801D01*
X92018894Y-33132809D01*
X92018903Y-33132813D01*
X92018905Y-33132815D01*
X92300548Y-33283357D01*
X92300550Y-33283357D01*
X92300556Y-33283361D01*
X92595619Y-33405580D01*
X92901240Y-33498289D01*
X93214477Y-33560596D01*
X93532313Y-33591900D01*
X93532316Y-33591900D01*
X93851684Y-33591900D01*
X93851687Y-33591900D01*
X94169523Y-33560596D01*
X94482760Y-33498289D01*
X94788381Y-33405580D01*
X95083444Y-33283361D01*
X95365106Y-33132809D01*
X95630656Y-32955375D01*
X95877535Y-32752766D01*
X96103366Y-32526935D01*
X96305975Y-32280056D01*
X96483409Y-32014506D01*
X96633961Y-31732844D01*
X96756180Y-31437781D01*
X96848889Y-31132160D01*
X96911196Y-30818923D01*
X96942500Y-30501087D01*
X96942500Y-30181713D01*
X130441500Y-30181713D01*
X130441500Y-30501087D01*
X130447790Y-30564954D01*
X130472803Y-30818922D01*
X130535109Y-31132154D01*
X130627820Y-31437782D01*
X130714242Y-31646423D01*
X130734129Y-31694435D01*
X130750040Y-31732846D01*
X130750042Y-31732851D01*
X130900584Y-32014494D01*
X130900601Y-32014522D01*
X131078012Y-32280038D01*
X131078029Y-32280061D01*
X131280638Y-32526940D01*
X131506459Y-32752761D01*
X131506464Y-32752765D01*
X131506465Y-32752766D01*
X131753344Y-32955375D01*
X131753351Y-32955380D01*
X131753361Y-32955387D01*
X132018877Y-33132798D01*
X132018882Y-33132801D01*
X132018894Y-33132809D01*
X132018903Y-33132813D01*
X132018905Y-33132815D01*
X132300548Y-33283357D01*
X132300550Y-33283357D01*
X132300556Y-33283361D01*
X132595619Y-33405580D01*
X132901240Y-33498289D01*
X133214477Y-33560596D01*
X133532313Y-33591900D01*
X133532316Y-33591900D01*
X133851684Y-33591900D01*
X133851687Y-33591900D01*
X134169523Y-33560596D01*
X134482760Y-33498289D01*
X134788381Y-33405580D01*
X135083444Y-33283361D01*
X135365106Y-33132809D01*
X135630656Y-32955375D01*
X135877535Y-32752766D01*
X136103366Y-32526935D01*
X136305975Y-32280056D01*
X136483409Y-32014506D01*
X136633961Y-31732844D01*
X136756180Y-31437781D01*
X136848889Y-31132160D01*
X136911196Y-30818923D01*
X136942500Y-30501087D01*
X136942500Y-30181713D01*
X136911196Y-29863877D01*
X136848889Y-29550640D01*
X136756180Y-29245019D01*
X136633961Y-28949956D01*
X136629598Y-28941794D01*
X136483415Y-28668305D01*
X136483413Y-28668303D01*
X136483409Y-28668294D01*
X136483398Y-28668277D01*
X136305987Y-28402761D01*
X136305980Y-28402751D01*
X136305975Y-28402744D01*
X136103366Y-28155865D01*
X136103365Y-28155864D01*
X136103361Y-28155859D01*
X135877540Y-27930038D01*
X135630661Y-27727429D01*
X135630638Y-27727412D01*
X135365122Y-27550001D01*
X135365094Y-27549984D01*
X135083451Y-27399442D01*
X135083446Y-27399440D01*
X135055885Y-27388024D01*
X134997023Y-27363642D01*
X134788382Y-27277220D01*
X134482754Y-27184509D01*
X134169521Y-27122203D01*
X134169522Y-27122203D01*
X133930141Y-27098627D01*
X133851687Y-27090900D01*
X133532313Y-27090900D01*
X133459822Y-27098039D01*
X133214477Y-27122203D01*
X132901245Y-27184509D01*
X132595617Y-27277220D01*
X132300553Y-27399440D01*
X132300548Y-27399442D01*
X132018905Y-27549984D01*
X132018877Y-27550001D01*
X131753361Y-27727412D01*
X131753338Y-27727429D01*
X131506459Y-27930038D01*
X131280638Y-28155859D01*
X131078029Y-28402738D01*
X131078012Y-28402761D01*
X130900601Y-28668277D01*
X130900584Y-28668305D01*
X130750042Y-28949948D01*
X130750040Y-28949953D01*
X130627820Y-29245017D01*
X130535109Y-29550645D01*
X130472803Y-29863877D01*
X130449702Y-30098436D01*
X130441500Y-30181713D01*
X96942500Y-30181713D01*
X96911196Y-29863877D01*
X96848889Y-29550640D01*
X96756180Y-29245019D01*
X96633961Y-28949956D01*
X96629598Y-28941794D01*
X96483415Y-28668305D01*
X96483413Y-28668303D01*
X96483409Y-28668294D01*
X96483398Y-28668277D01*
X96305987Y-28402761D01*
X96305980Y-28402751D01*
X96305975Y-28402744D01*
X96103366Y-28155865D01*
X96103365Y-28155864D01*
X96103361Y-28155859D01*
X95877540Y-27930038D01*
X95630661Y-27727429D01*
X95630638Y-27727412D01*
X95365122Y-27550001D01*
X95365094Y-27549984D01*
X95083451Y-27399442D01*
X95083446Y-27399440D01*
X95055885Y-27388024D01*
X94997023Y-27363642D01*
X94788382Y-27277220D01*
X94482754Y-27184509D01*
X94169521Y-27122203D01*
X94169522Y-27122203D01*
X93930141Y-27098627D01*
X93851687Y-27090900D01*
X93532313Y-27090900D01*
X93459822Y-27098039D01*
X93214477Y-27122203D01*
X92901245Y-27184509D01*
X92595617Y-27277220D01*
X92300553Y-27399440D01*
X92300548Y-27399442D01*
X92018905Y-27549984D01*
X92018877Y-27550001D01*
X91753361Y-27727412D01*
X91753338Y-27727429D01*
X91506459Y-27930038D01*
X91280638Y-28155859D01*
X91078029Y-28402738D01*
X91078012Y-28402761D01*
X90900601Y-28668277D01*
X90900584Y-28668305D01*
X90750042Y-28949948D01*
X90750040Y-28949953D01*
X90627820Y-29245017D01*
X90535109Y-29550645D01*
X90472803Y-29863877D01*
X90449702Y-30098436D01*
X90441500Y-30181713D01*
X84708995Y-30181713D01*
X84697813Y-30130310D01*
X84669371Y-29999562D01*
X84669370Y-29999560D01*
X84669369Y-29999554D01*
X84569367Y-29731439D01*
X84432226Y-29480285D01*
X84432224Y-29480282D01*
X84260745Y-29251212D01*
X84260729Y-29251194D01*
X84058405Y-29048870D01*
X84058387Y-29048854D01*
X83829317Y-28877375D01*
X83829309Y-28877370D01*
X83578166Y-28740235D01*
X83578167Y-28740235D01*
X83470915Y-28700232D01*
X83310046Y-28640231D01*
X83310043Y-28640230D01*
X83310037Y-28640228D01*
X83030433Y-28579404D01*
X82816450Y-28564100D01*
X82816448Y-28564100D01*
X80173552Y-28564100D01*
X80173549Y-28564100D01*
X79959566Y-28579404D01*
X79679962Y-28640228D01*
X79411833Y-28740235D01*
X79160690Y-28877370D01*
X79160682Y-28877375D01*
X78931612Y-29048854D01*
X78931594Y-29048870D01*
X78729270Y-29251194D01*
X78729254Y-29251212D01*
X78557775Y-29480282D01*
X78557770Y-29480290D01*
X78420635Y-29731433D01*
X78320628Y-29999562D01*
X78259804Y-30279166D01*
X78244500Y-30493149D01*
X67265458Y-30493149D01*
X67265453Y-30491248D01*
X67253110Y-25549810D01*
X67272627Y-25482721D01*
X67325317Y-25436835D01*
X67377110Y-25425500D01*
X167814000Y-25425500D01*
X167881039Y-25445185D01*
G37*
%TD.AperFunction*%
%TD*%
%TA.AperFunction,Conductor*%
%TO.N,/Earth_GND*%
G36*
X164865239Y-30575885D02*
G01*
X164910994Y-30628689D01*
X164922200Y-30680200D01*
X164922200Y-39601600D01*
X164902515Y-39668639D01*
X164849711Y-39714394D01*
X164798200Y-39725600D01*
X150847600Y-39725600D01*
X150780561Y-39705915D01*
X150734806Y-39653111D01*
X150723600Y-39601600D01*
X150723600Y-38483981D01*
X160874500Y-38483981D01*
X160874500Y-38658418D01*
X160908527Y-38829483D01*
X160908529Y-38829491D01*
X160975278Y-38990639D01*
X160975283Y-38990648D01*
X161072186Y-39135673D01*
X161072189Y-39135677D01*
X161195522Y-39259010D01*
X161195526Y-39259013D01*
X161340551Y-39355916D01*
X161340557Y-39355919D01*
X161340558Y-39355920D01*
X161501709Y-39422671D01*
X161672781Y-39456699D01*
X161672785Y-39456700D01*
X161672786Y-39456700D01*
X161847215Y-39456700D01*
X161847216Y-39456699D01*
X162018291Y-39422671D01*
X162179442Y-39355920D01*
X162324474Y-39259013D01*
X162447813Y-39135674D01*
X162544720Y-38990642D01*
X162611471Y-38829491D01*
X162645500Y-38658414D01*
X162645500Y-38483986D01*
X162611471Y-38312909D01*
X162544720Y-38151758D01*
X162544719Y-38151757D01*
X162544716Y-38151751D01*
X162447813Y-38006726D01*
X162447810Y-38006722D01*
X162324477Y-37883389D01*
X162324473Y-37883386D01*
X162179448Y-37786483D01*
X162179439Y-37786478D01*
X162018291Y-37719729D01*
X162018283Y-37719727D01*
X161847218Y-37685700D01*
X161847214Y-37685700D01*
X161672786Y-37685700D01*
X161672781Y-37685700D01*
X161501716Y-37719727D01*
X161501708Y-37719729D01*
X161340560Y-37786478D01*
X161340551Y-37786483D01*
X161195526Y-37883386D01*
X161195522Y-37883389D01*
X161072189Y-38006722D01*
X161072186Y-38006726D01*
X160975283Y-38151751D01*
X160975278Y-38151760D01*
X160908529Y-38312908D01*
X160908527Y-38312916D01*
X160874500Y-38483981D01*
X150723600Y-38483981D01*
X150723600Y-36776437D01*
X151965500Y-36776437D01*
X151965500Y-37004762D01*
X152001215Y-37230260D01*
X152071770Y-37447403D01*
X152175421Y-37650828D01*
X152309621Y-37835537D01*
X152471063Y-37996979D01*
X152655772Y-38131179D01*
X152696147Y-38151751D01*
X152859196Y-38234829D01*
X152859198Y-38234829D01*
X152859201Y-38234831D01*
X152975592Y-38272649D01*
X153076339Y-38305384D01*
X153301838Y-38341100D01*
X153301843Y-38341100D01*
X153530162Y-38341100D01*
X153755660Y-38305384D01*
X153972799Y-38234831D01*
X154176228Y-38131179D01*
X154360937Y-37996979D01*
X154522379Y-37835537D01*
X154656579Y-37650828D01*
X154760231Y-37447399D01*
X154830784Y-37230260D01*
X154866500Y-37004762D01*
X154866500Y-36776437D01*
X154830784Y-36550939D01*
X154760229Y-36333796D01*
X154656578Y-36130371D01*
X154522379Y-35945663D01*
X154360937Y-35784221D01*
X154176228Y-35650021D01*
X153972803Y-35546370D01*
X153755660Y-35475815D01*
X153530162Y-35440100D01*
X153530157Y-35440100D01*
X153301843Y-35440100D01*
X153301838Y-35440100D01*
X153076339Y-35475815D01*
X152859196Y-35546370D01*
X152655771Y-35650021D01*
X152471061Y-35784222D01*
X152309622Y-35945661D01*
X152175421Y-36130371D01*
X152071770Y-36333796D01*
X152001215Y-36550939D01*
X151965500Y-36776437D01*
X150723600Y-36776437D01*
X150723600Y-30680200D01*
X150743285Y-30613161D01*
X150796089Y-30567406D01*
X150847600Y-30556200D01*
X164798200Y-30556200D01*
X164865239Y-30575885D01*
G37*
%TD.AperFunction*%
%TD*%
M02*
