%TF.GenerationSoftware,KiCad,Pcbnew,9.0.4*%
%TF.CreationDate,2026-03-12T14:42:41-04:00*%
%TF.ProjectId,Power Board,506f7765-7220-4426-9f61-72642e6b6963,rev?*%
%TF.SameCoordinates,Original*%
%TF.FileFunction,Legend,Top*%
%TF.FilePolarity,Positive*%
%FSLAX46Y46*%
G04 Gerber Fmt 4.6, Leading zero omitted, Abs format (unit mm)*
G04 Created by KiCad (PCBNEW 9.0.4) date 2026-03-12 14:42:41*
%MOMM*%
%LPD*%
G01*
G04 APERTURE LIST*
%ADD10C,0.200000*%
%ADD11C,0.150000*%
%ADD12C,0.100000*%
%ADD13C,0.120000*%
G04 APERTURE END LIST*
D10*
X140885654Y-43102304D02*
X141361844Y-43102304D01*
X140790416Y-43388019D02*
X141123749Y-42388019D01*
X141123749Y-42388019D02*
X141457082Y-43388019D01*
X142361844Y-43292780D02*
X142314225Y-43340400D01*
X142314225Y-43340400D02*
X142171368Y-43388019D01*
X142171368Y-43388019D02*
X142076130Y-43388019D01*
X142076130Y-43388019D02*
X141933273Y-43340400D01*
X141933273Y-43340400D02*
X141838035Y-43245161D01*
X141838035Y-43245161D02*
X141790416Y-43149923D01*
X141790416Y-43149923D02*
X141742797Y-42959447D01*
X141742797Y-42959447D02*
X141742797Y-42816590D01*
X141742797Y-42816590D02*
X141790416Y-42626114D01*
X141790416Y-42626114D02*
X141838035Y-42530876D01*
X141838035Y-42530876D02*
X141933273Y-42435638D01*
X141933273Y-42435638D02*
X142076130Y-42388019D01*
X142076130Y-42388019D02*
X142171368Y-42388019D01*
X142171368Y-42388019D02*
X142314225Y-42435638D01*
X142314225Y-42435638D02*
X142361844Y-42483257D01*
X142552321Y-43483257D02*
X143314225Y-43483257D01*
X143552321Y-43388019D02*
X143552321Y-42388019D01*
X143552321Y-42388019D02*
X144123749Y-43388019D01*
X144123749Y-43388019D02*
X144123749Y-42388019D01*
X144599940Y-42864209D02*
X144933273Y-42864209D01*
X145076130Y-43388019D02*
X144599940Y-43388019D01*
X144599940Y-43388019D02*
X144599940Y-42388019D01*
X144599940Y-42388019D02*
X145076130Y-42388019D01*
X145504702Y-42388019D02*
X145504702Y-43197542D01*
X145504702Y-43197542D02*
X145552321Y-43292780D01*
X145552321Y-43292780D02*
X145599940Y-43340400D01*
X145599940Y-43340400D02*
X145695178Y-43388019D01*
X145695178Y-43388019D02*
X145885654Y-43388019D01*
X145885654Y-43388019D02*
X145980892Y-43340400D01*
X145980892Y-43340400D02*
X146028511Y-43292780D01*
X146028511Y-43292780D02*
X146076130Y-43197542D01*
X146076130Y-43197542D02*
X146076130Y-42388019D01*
X146409464Y-42388019D02*
X146980892Y-42388019D01*
X146695178Y-43388019D02*
X146695178Y-42388019D01*
X147885654Y-43388019D02*
X147552321Y-42911828D01*
X147314226Y-43388019D02*
X147314226Y-42388019D01*
X147314226Y-42388019D02*
X147695178Y-42388019D01*
X147695178Y-42388019D02*
X147790416Y-42435638D01*
X147790416Y-42435638D02*
X147838035Y-42483257D01*
X147838035Y-42483257D02*
X147885654Y-42578495D01*
X147885654Y-42578495D02*
X147885654Y-42721352D01*
X147885654Y-42721352D02*
X147838035Y-42816590D01*
X147838035Y-42816590D02*
X147790416Y-42864209D01*
X147790416Y-42864209D02*
X147695178Y-42911828D01*
X147695178Y-42911828D02*
X147314226Y-42911828D01*
X148266607Y-43102304D02*
X148742797Y-43102304D01*
X148171369Y-43388019D02*
X148504702Y-42388019D01*
X148504702Y-42388019D02*
X148838035Y-43388019D01*
X149647559Y-43388019D02*
X149171369Y-43388019D01*
X149171369Y-43388019D02*
X149171369Y-42388019D01*
X156773409Y-38023580D02*
X156773409Y-37690247D01*
X157297219Y-37547390D02*
X157297219Y-38023580D01*
X157297219Y-38023580D02*
X156297219Y-38023580D01*
X156297219Y-38023580D02*
X156297219Y-37547390D01*
X157011504Y-37166437D02*
X157011504Y-36690247D01*
X157297219Y-37261675D02*
X156297219Y-36928342D01*
X156297219Y-36928342D02*
X157297219Y-36595009D01*
X157297219Y-35690247D02*
X156821028Y-36023580D01*
X157297219Y-36261675D02*
X156297219Y-36261675D01*
X156297219Y-36261675D02*
X156297219Y-35880723D01*
X156297219Y-35880723D02*
X156344838Y-35785485D01*
X156344838Y-35785485D02*
X156392457Y-35737866D01*
X156392457Y-35737866D02*
X156487695Y-35690247D01*
X156487695Y-35690247D02*
X156630552Y-35690247D01*
X156630552Y-35690247D02*
X156725790Y-35737866D01*
X156725790Y-35737866D02*
X156773409Y-35785485D01*
X156773409Y-35785485D02*
X156821028Y-35880723D01*
X156821028Y-35880723D02*
X156821028Y-36261675D01*
X156297219Y-35404532D02*
X156297219Y-34833104D01*
X157297219Y-35118818D02*
X156297219Y-35118818D01*
X157297219Y-34499770D02*
X156297219Y-34499770D01*
X156773409Y-34499770D02*
X156773409Y-33928342D01*
X157297219Y-33928342D02*
X156297219Y-33928342D01*
X157392457Y-33690247D02*
X157392457Y-32928342D01*
X156344838Y-32166437D02*
X156297219Y-32261675D01*
X156297219Y-32261675D02*
X156297219Y-32404532D01*
X156297219Y-32404532D02*
X156344838Y-32547389D01*
X156344838Y-32547389D02*
X156440076Y-32642627D01*
X156440076Y-32642627D02*
X156535314Y-32690246D01*
X156535314Y-32690246D02*
X156725790Y-32737865D01*
X156725790Y-32737865D02*
X156868647Y-32737865D01*
X156868647Y-32737865D02*
X157059123Y-32690246D01*
X157059123Y-32690246D02*
X157154361Y-32642627D01*
X157154361Y-32642627D02*
X157249600Y-32547389D01*
X157249600Y-32547389D02*
X157297219Y-32404532D01*
X157297219Y-32404532D02*
X157297219Y-32309294D01*
X157297219Y-32309294D02*
X157249600Y-32166437D01*
X157249600Y-32166437D02*
X157201980Y-32118818D01*
X157201980Y-32118818D02*
X156868647Y-32118818D01*
X156868647Y-32118818D02*
X156868647Y-32309294D01*
X157297219Y-31690246D02*
X156297219Y-31690246D01*
X156297219Y-31690246D02*
X157297219Y-31118818D01*
X157297219Y-31118818D02*
X156297219Y-31118818D01*
X157297219Y-30642627D02*
X156297219Y-30642627D01*
X156297219Y-30642627D02*
X156297219Y-30404532D01*
X156297219Y-30404532D02*
X156344838Y-30261675D01*
X156344838Y-30261675D02*
X156440076Y-30166437D01*
X156440076Y-30166437D02*
X156535314Y-30118818D01*
X156535314Y-30118818D02*
X156725790Y-30071199D01*
X156725790Y-30071199D02*
X156868647Y-30071199D01*
X156868647Y-30071199D02*
X157059123Y-30118818D01*
X157059123Y-30118818D02*
X157154361Y-30166437D01*
X157154361Y-30166437D02*
X157249600Y-30261675D01*
X157249600Y-30261675D02*
X157297219Y-30404532D01*
X157297219Y-30404532D02*
X157297219Y-30642627D01*
X142480893Y-26058904D02*
X142957083Y-26058904D01*
X142385655Y-26344619D02*
X142718988Y-25344619D01*
X142718988Y-25344619D02*
X143052321Y-26344619D01*
X143957083Y-26249380D02*
X143909464Y-26297000D01*
X143909464Y-26297000D02*
X143766607Y-26344619D01*
X143766607Y-26344619D02*
X143671369Y-26344619D01*
X143671369Y-26344619D02*
X143528512Y-26297000D01*
X143528512Y-26297000D02*
X143433274Y-26201761D01*
X143433274Y-26201761D02*
X143385655Y-26106523D01*
X143385655Y-26106523D02*
X143338036Y-25916047D01*
X143338036Y-25916047D02*
X143338036Y-25773190D01*
X143338036Y-25773190D02*
X143385655Y-25582714D01*
X143385655Y-25582714D02*
X143433274Y-25487476D01*
X143433274Y-25487476D02*
X143528512Y-25392238D01*
X143528512Y-25392238D02*
X143671369Y-25344619D01*
X143671369Y-25344619D02*
X143766607Y-25344619D01*
X143766607Y-25344619D02*
X143909464Y-25392238D01*
X143909464Y-25392238D02*
X143957083Y-25439857D01*
X144147560Y-26439857D02*
X144909464Y-26439857D01*
X145623750Y-26344619D02*
X145147560Y-26344619D01*
X145147560Y-26344619D02*
X145147560Y-25344619D01*
X145957084Y-26344619D02*
X145957084Y-25344619D01*
X146433274Y-26344619D02*
X146433274Y-25344619D01*
X146433274Y-25344619D02*
X147004702Y-26344619D01*
X147004702Y-26344619D02*
X147004702Y-25344619D01*
X147480893Y-25820809D02*
X147814226Y-25820809D01*
X147957083Y-26344619D02*
X147480893Y-26344619D01*
X147480893Y-26344619D02*
X147480893Y-25344619D01*
X147480893Y-25344619D02*
X147957083Y-25344619D01*
D11*
X29718095Y-45285819D02*
X29718095Y-44285819D01*
X29718095Y-44762009D02*
X30289523Y-44762009D01*
X30289523Y-45285819D02*
X30289523Y-44285819D01*
X30670476Y-44285819D02*
X31289523Y-44285819D01*
X31289523Y-44285819D02*
X30956190Y-44666771D01*
X30956190Y-44666771D02*
X31099047Y-44666771D01*
X31099047Y-44666771D02*
X31194285Y-44714390D01*
X31194285Y-44714390D02*
X31241904Y-44762009D01*
X31241904Y-44762009D02*
X31289523Y-44857247D01*
X31289523Y-44857247D02*
X31289523Y-45095342D01*
X31289523Y-45095342D02*
X31241904Y-45190580D01*
X31241904Y-45190580D02*
X31194285Y-45238200D01*
X31194285Y-45238200D02*
X31099047Y-45285819D01*
X31099047Y-45285819D02*
X30813333Y-45285819D01*
X30813333Y-45285819D02*
X30718095Y-45238200D01*
X30718095Y-45238200D02*
X30670476Y-45190580D01*
X144590419Y-35649133D02*
X145304704Y-35649133D01*
X145304704Y-35649133D02*
X145447561Y-35696752D01*
X145447561Y-35696752D02*
X145542800Y-35791990D01*
X145542800Y-35791990D02*
X145590419Y-35934847D01*
X145590419Y-35934847D02*
X145590419Y-36030085D01*
X144923752Y-34744371D02*
X145590419Y-34744371D01*
X144542800Y-34982466D02*
X145257085Y-35220561D01*
X145257085Y-35220561D02*
X145257085Y-34601514D01*
D12*
X140471180Y-63879495D02*
X139661657Y-63879495D01*
X139661657Y-63879495D02*
X139566419Y-63927114D01*
X139566419Y-63927114D02*
X139518800Y-63974733D01*
X139518800Y-63974733D02*
X139471180Y-64069971D01*
X139471180Y-64069971D02*
X139471180Y-64260447D01*
X139471180Y-64260447D02*
X139518800Y-64355685D01*
X139518800Y-64355685D02*
X139566419Y-64403304D01*
X139566419Y-64403304D02*
X139661657Y-64450923D01*
X139661657Y-64450923D02*
X140471180Y-64450923D01*
X139471180Y-65450923D02*
X139471180Y-64879495D01*
X139471180Y-65165209D02*
X140471180Y-65165209D01*
X140471180Y-65165209D02*
X140328323Y-65069971D01*
X140328323Y-65069971D02*
X140233085Y-64974733D01*
X140233085Y-64974733D02*
X140185466Y-64879495D01*
D11*
X162224819Y-34404533D02*
X162939104Y-34404533D01*
X162939104Y-34404533D02*
X163081961Y-34452152D01*
X163081961Y-34452152D02*
X163177200Y-34547390D01*
X163177200Y-34547390D02*
X163224819Y-34690247D01*
X163224819Y-34690247D02*
X163224819Y-34785485D01*
X162224819Y-33452152D02*
X162224819Y-33928342D01*
X162224819Y-33928342D02*
X162701009Y-33975961D01*
X162701009Y-33975961D02*
X162653390Y-33928342D01*
X162653390Y-33928342D02*
X162605771Y-33833104D01*
X162605771Y-33833104D02*
X162605771Y-33595009D01*
X162605771Y-33595009D02*
X162653390Y-33499771D01*
X162653390Y-33499771D02*
X162701009Y-33452152D01*
X162701009Y-33452152D02*
X162796247Y-33404533D01*
X162796247Y-33404533D02*
X163034342Y-33404533D01*
X163034342Y-33404533D02*
X163129580Y-33452152D01*
X163129580Y-33452152D02*
X163177200Y-33499771D01*
X163177200Y-33499771D02*
X163224819Y-33595009D01*
X163224819Y-33595009D02*
X163224819Y-33833104D01*
X163224819Y-33833104D02*
X163177200Y-33928342D01*
X163177200Y-33928342D02*
X163129580Y-33975961D01*
X29718095Y-26784819D02*
X29718095Y-25784819D01*
X29718095Y-26261009D02*
X30289523Y-26261009D01*
X30289523Y-26784819D02*
X30289523Y-25784819D01*
X31289523Y-26784819D02*
X30718095Y-26784819D01*
X31003809Y-26784819D02*
X31003809Y-25784819D01*
X31003809Y-25784819D02*
X30908571Y-25927676D01*
X30908571Y-25927676D02*
X30813333Y-26022914D01*
X30813333Y-26022914D02*
X30718095Y-26070533D01*
X169418095Y-45412819D02*
X169418095Y-44412819D01*
X169418095Y-44889009D02*
X169989523Y-44889009D01*
X169989523Y-45412819D02*
X169989523Y-44412819D01*
X170894285Y-44746152D02*
X170894285Y-45412819D01*
X170656190Y-44365200D02*
X170418095Y-45079485D01*
X170418095Y-45079485D02*
X171037142Y-45079485D01*
X59523214Y-28940419D02*
X59523214Y-27940419D01*
X59523214Y-27940419D02*
X59904166Y-27940419D01*
X59904166Y-27940419D02*
X59999404Y-27988038D01*
X59999404Y-27988038D02*
X60047023Y-28035657D01*
X60047023Y-28035657D02*
X60094642Y-28130895D01*
X60094642Y-28130895D02*
X60094642Y-28273752D01*
X60094642Y-28273752D02*
X60047023Y-28368990D01*
X60047023Y-28368990D02*
X59999404Y-28416609D01*
X59999404Y-28416609D02*
X59904166Y-28464228D01*
X59904166Y-28464228D02*
X59523214Y-28464228D01*
X60475595Y-28892800D02*
X60618452Y-28940419D01*
X60618452Y-28940419D02*
X60856547Y-28940419D01*
X60856547Y-28940419D02*
X60951785Y-28892800D01*
X60951785Y-28892800D02*
X60999404Y-28845180D01*
X60999404Y-28845180D02*
X61047023Y-28749942D01*
X61047023Y-28749942D02*
X61047023Y-28654704D01*
X61047023Y-28654704D02*
X60999404Y-28559466D01*
X60999404Y-28559466D02*
X60951785Y-28511847D01*
X60951785Y-28511847D02*
X60856547Y-28464228D01*
X60856547Y-28464228D02*
X60666071Y-28416609D01*
X60666071Y-28416609D02*
X60570833Y-28368990D01*
X60570833Y-28368990D02*
X60523214Y-28321371D01*
X60523214Y-28321371D02*
X60475595Y-28226133D01*
X60475595Y-28226133D02*
X60475595Y-28130895D01*
X60475595Y-28130895D02*
X60523214Y-28035657D01*
X60523214Y-28035657D02*
X60570833Y-27988038D01*
X60570833Y-27988038D02*
X60666071Y-27940419D01*
X60666071Y-27940419D02*
X60904166Y-27940419D01*
X60904166Y-27940419D02*
X61047023Y-27988038D01*
X61999404Y-28940419D02*
X61427976Y-28940419D01*
X61713690Y-28940419D02*
X61713690Y-27940419D01*
X61713690Y-27940419D02*
X61618452Y-28083276D01*
X61618452Y-28083276D02*
X61523214Y-28178514D01*
X61523214Y-28178514D02*
X61427976Y-28226133D01*
X153082666Y-31425419D02*
X153082666Y-32139704D01*
X153082666Y-32139704D02*
X153035047Y-32282561D01*
X153035047Y-32282561D02*
X152939809Y-32377800D01*
X152939809Y-32377800D02*
X152796952Y-32425419D01*
X152796952Y-32425419D02*
X152701714Y-32425419D01*
X153701714Y-31853990D02*
X153606476Y-31806371D01*
X153606476Y-31806371D02*
X153558857Y-31758752D01*
X153558857Y-31758752D02*
X153511238Y-31663514D01*
X153511238Y-31663514D02*
X153511238Y-31615895D01*
X153511238Y-31615895D02*
X153558857Y-31520657D01*
X153558857Y-31520657D02*
X153606476Y-31473038D01*
X153606476Y-31473038D02*
X153701714Y-31425419D01*
X153701714Y-31425419D02*
X153892190Y-31425419D01*
X153892190Y-31425419D02*
X153987428Y-31473038D01*
X153987428Y-31473038D02*
X154035047Y-31520657D01*
X154035047Y-31520657D02*
X154082666Y-31615895D01*
X154082666Y-31615895D02*
X154082666Y-31663514D01*
X154082666Y-31663514D02*
X154035047Y-31758752D01*
X154035047Y-31758752D02*
X153987428Y-31806371D01*
X153987428Y-31806371D02*
X153892190Y-31853990D01*
X153892190Y-31853990D02*
X153701714Y-31853990D01*
X153701714Y-31853990D02*
X153606476Y-31901609D01*
X153606476Y-31901609D02*
X153558857Y-31949228D01*
X153558857Y-31949228D02*
X153511238Y-32044466D01*
X153511238Y-32044466D02*
X153511238Y-32234942D01*
X153511238Y-32234942D02*
X153558857Y-32330180D01*
X153558857Y-32330180D02*
X153606476Y-32377800D01*
X153606476Y-32377800D02*
X153701714Y-32425419D01*
X153701714Y-32425419D02*
X153892190Y-32425419D01*
X153892190Y-32425419D02*
X153987428Y-32377800D01*
X153987428Y-32377800D02*
X154035047Y-32330180D01*
X154035047Y-32330180D02*
X154082666Y-32234942D01*
X154082666Y-32234942D02*
X154082666Y-32044466D01*
X154082666Y-32044466D02*
X154035047Y-31949228D01*
X154035047Y-31949228D02*
X153987428Y-31901609D01*
X153987428Y-31901609D02*
X153892190Y-31853990D01*
X169418095Y-26784819D02*
X169418095Y-25784819D01*
X169418095Y-26261009D02*
X169989523Y-26261009D01*
X169989523Y-26784819D02*
X169989523Y-25784819D01*
X170418095Y-25880057D02*
X170465714Y-25832438D01*
X170465714Y-25832438D02*
X170560952Y-25784819D01*
X170560952Y-25784819D02*
X170799047Y-25784819D01*
X170799047Y-25784819D02*
X170894285Y-25832438D01*
X170894285Y-25832438D02*
X170941904Y-25880057D01*
X170941904Y-25880057D02*
X170989523Y-25975295D01*
X170989523Y-25975295D02*
X170989523Y-26070533D01*
X170989523Y-26070533D02*
X170941904Y-26213390D01*
X170941904Y-26213390D02*
X170370476Y-26784819D01*
X170370476Y-26784819D02*
X170989523Y-26784819D01*
D13*
%TO.C,J4*%
X140850600Y-41546800D02*
X140850600Y-30816800D01*
X142815600Y-28846800D02*
X143325600Y-28846800D01*
X143325600Y-27296800D02*
X145135600Y-27296800D01*
X143325600Y-28846800D02*
X143325600Y-27296800D01*
X145135600Y-41546800D02*
X140850600Y-41546800D01*
X145135600Y-41546800D02*
X149420600Y-41546800D01*
X146945600Y-27296800D02*
X145135600Y-27296800D01*
X146945600Y-28846800D02*
X146945600Y-27296800D01*
X149420600Y-28846800D02*
X146945600Y-28846800D01*
X149420600Y-41546800D02*
X149420600Y-28846800D01*
X149720600Y-39436800D02*
X149720600Y-41846800D01*
X149720600Y-41846800D02*
X147310600Y-41846800D01*
D12*
%TO.C,U1*%
X139092000Y-102741400D02*
X88292000Y-102741400D01*
X88292001Y-26541400D01*
X139092000Y-26541400D01*
X139092000Y-102741400D01*
D13*
%TO.C,J5*%
X157790000Y-29136200D02*
X157790000Y-39006200D01*
X157790000Y-39006200D02*
X160865000Y-39006200D01*
X160865000Y-29136200D02*
X157790000Y-29136200D01*
X161880000Y-30556200D02*
X161880000Y-37586200D01*
X161880000Y-37586200D02*
X162380000Y-37586200D01*
X162380000Y-30556200D02*
X161880000Y-30556200D01*
X162380000Y-30576200D02*
X162380000Y-30556200D01*
X162380000Y-37586200D02*
X162380000Y-37566200D01*
%TO.C,PS1*%
X34295000Y-26314600D02*
X34295000Y-113714600D01*
X34295000Y-113714600D02*
X86695000Y-113714600D01*
X86695000Y-26314600D02*
X34295000Y-26314600D01*
X86695000Y-113714600D02*
X86695000Y-26314600D01*
X87195000Y-30514600D02*
X87195000Y-33014600D01*
%TO.C,J8*%
X152036000Y-32970600D02*
X153416000Y-32970601D01*
X152036000Y-35620600D02*
X152036000Y-38270600D01*
X152036000Y-35620600D02*
X154796000Y-35620600D01*
X152036000Y-38270600D02*
X154796000Y-38270600D01*
X152036001Y-34350600D02*
X152036000Y-32970600D01*
X154796000Y-35620600D02*
X154796000Y-38270600D01*
%TD*%
M02*
