M48
; DRILL file {KiCad 9.0.4} date 2026-03-12T13:47:59-0400
; FORMAT={-:-/ absolute / metric / decimal}
; #@! TF.CreationDate,2026-03-12T13:47:59-04:00
; #@! TF.GenerationSoftware,Kicad,Pcbnew,9.0.4
; #@! TF.FileFunction,Plated,1,4,PTH
FMAT,2
METRIC
; #@! TA.AperFunction,Plated,PTH,ViaDrill
T1C0.300
; #@! TA.AperFunction,Plated,PTH,ComponentDrill
T2C0.500
; #@! TA.AperFunction,Plated,PTH,ComponentDrill
T3C0.710
; #@! TA.AperFunction,Plated,PTH,ComponentDrill
T4C1.020
; #@! TA.AperFunction,Plated,PTH,ComponentDrill
T5C1.070
; #@! TA.AperFunction,Plated,PTH,ComponentDrill
T6C1.100
; #@! TA.AperFunction,Plated,PTH,ComponentDrill
T7C1.400
; #@! TA.AperFunction,Plated,PTH,ComponentDrill
T8C1.448
; #@! TA.AperFunction,Plated,PTH,ComponentDrill
T9C1.800
%
G90
G05
T1
X133.5Y-103.25
X134.25Y-117.25
X134.5Y-82.25
X134.5Y-89.5
X134.5Y-97.25
X134.5Y-110.5
X135.25Y-64.25
X135.25Y-65.75
X135.25Y-67.25
X136.25Y-100.75
X137.0Y-128.75
X137.5Y-113.75
X138.25Y-72.25
X139.0Y-131.25
X139.3Y-136.75
X140.0Y-128.75
X140.0Y-129.75
X140.5Y-72.25
X140.5Y-136.25
X140.75Y-110.5
X140.75Y-117.25
X140.75Y-123.0
X142.0Y-138.75
X142.25Y-89.75
X142.25Y-103.25
X142.5Y-97.5
X144.0Y-131.25
X144.0Y-136.75
X144.0Y-138.75
X144.75Y-73.75
X145.25Y-129.75
X145.5Y-136.25
X145.75Y-73.5
X146.75Y-73.75
X147.015Y-128.95
X148.0Y-87.0
X149.0Y-72.5
X149.0Y-76.75
X149.0Y-131.25
X149.0Y-138.75
X149.25Y-136.5
X149.75Y-114.0
X149.75Y-119.5
X150.25Y-129.5
X150.5Y-136.25
X150.75Y-114.75
X150.75Y-120.0
X151.25Y-61.25
X151.25Y-64.25
X151.25Y-72.5
X151.25Y-76.75
X151.25Y-89.0
X151.75Y-110.25
X152.0Y-67.25
X152.0Y-70.0
X152.0Y-86.25
X152.0Y-94.5
X152.0Y-97.5
X152.0Y-105.0
X152.25Y-88.25
X152.5Y-84.75
X156.25Y-112.0
X157.25Y-112.0
X161.25Y-132.0
X161.25Y-134.5
X161.5Y-122.5
X163.75Y-112.75
X163.75Y-115.75
X163.75Y-118.5
X170.0Y-67.5
X170.0Y-69.25
X170.25Y-56.0
X171.5Y-55.5
X172.5Y-56.0
X173.0Y-129.0
X173.0Y-131.0
X173.0Y-132.75
X173.0Y-135.0
T2
X154.75Y-113.75
X155.75Y-113.75
X156.75Y-113.75
X157.75Y-113.75
T3
X157.175Y-120.6
X157.175Y-123.14
X157.175Y-130.76
X157.175Y-133.3
X157.175Y-135.84
T4
X146.75Y-59.75
X146.75Y-62.75
X146.75Y-65.75
X146.75Y-68.75
X149.75Y-59.75
X149.75Y-62.75
X149.75Y-65.75
X149.75Y-68.75
X165.6Y-112.75
X165.6Y-115.75
X165.6Y-118.75
X165.6Y-121.75
X168.6Y-112.75
X168.6Y-115.75
X168.6Y-118.75
X168.6Y-121.75
T5
X132.731Y-62.525
X135.271Y-62.525
X137.811Y-62.525
X168.25Y-129.75
X168.25Y-132.29
X168.25Y-134.83
T6
X130.596Y-75.82
X130.596Y-78.36
X130.596Y-80.9
X130.596Y-83.44
X130.596Y-85.98
X130.596Y-88.52
X130.596Y-91.06
X130.596Y-93.6
X130.596Y-96.14
X130.596Y-98.68
X130.596Y-101.22
X130.596Y-103.76
X130.596Y-106.3
X130.596Y-108.84
X130.596Y-111.38
X130.596Y-113.92
X130.596Y-116.46
X130.596Y-119.0
X130.596Y-121.54
X130.596Y-124.08
X145.836Y-75.82
X145.836Y-78.36
X145.836Y-80.9
X145.836Y-83.44
X145.836Y-85.98
X145.836Y-88.52
X145.836Y-91.06
X145.836Y-93.6
X145.836Y-96.14
X145.836Y-98.68
X145.836Y-101.22
X145.836Y-103.76
X145.836Y-106.3
X145.836Y-108.84
X145.836Y-111.38
X145.836Y-113.92
X145.836Y-116.46
X145.836Y-119.0
X145.836Y-121.54
X145.836Y-124.08
X156.21Y-58.07
X156.21Y-60.61
X156.21Y-63.15
X156.21Y-65.69
X156.21Y-68.23
X156.21Y-70.77
X156.21Y-73.31
X156.21Y-75.85
X156.21Y-78.39
X156.21Y-80.93
X156.21Y-83.47
X156.21Y-86.01
X156.21Y-88.55
X156.21Y-91.09
X156.21Y-93.63
X156.21Y-96.17
X156.21Y-98.71
X156.21Y-101.25
X156.21Y-103.79
X156.21Y-106.33
X171.45Y-58.07
X171.45Y-60.61
X171.45Y-63.15
X171.45Y-65.69
X171.45Y-68.23
X171.45Y-70.77
X171.45Y-73.31
X171.45Y-75.85
X171.45Y-78.39
X171.45Y-80.93
X171.45Y-83.47
X171.45Y-86.01
X171.45Y-88.55
X171.45Y-91.09
X171.45Y-93.63
X171.45Y-96.17
X171.45Y-98.71
X171.45Y-101.25
X171.45Y-103.79
X171.45Y-106.33
T7
X132.5Y-143.75
X138.0Y-143.75
X148.0Y-143.75
X153.5Y-143.75
T8
X132.25Y-131.5
X132.25Y-137.0
T9
X162.8Y-143.75
X168.5Y-143.75
M30
