M48
; DRILL file {KiCad 9.0.4} date 2026-03-12T13:52:16-0400
; FORMAT={-:-/ absolute / metric / decimal}
; #@! TF.CreationDate,2026-03-12T13:52:16-04:00
; #@! TF.GenerationSoftware,Kicad,Pcbnew,9.0.4
; #@! TF.FileFunction,Plated,1,4,PTH
FMAT,2
METRIC
; #@! TA.AperFunction,Plated,PTH,ViaDrill
T1C0.300
; #@! TA.AperFunction,Plated,PTH,ComponentDrill
T2C0.750
; #@! TA.AperFunction,Plated,PTH,ComponentDrill
T3C1.400
; #@! TA.AperFunction,Plated,PTH,ComponentDrill
T4C1.800
; #@! TA.AperFunction,Plated,PTH,ComponentDrill
T5C2.500
; #@! TA.AperFunction,Plated,PTH,ComponentDrill
T6C4.300
%
G90
G05
T1
X119.8Y-96.6
X121.24Y-90.895
X125.4Y-86.2
X126.44Y-96.695
X126.6Y-105.4
X126.64Y-91.895
X127.64Y-102.895
X128.4Y-106.4
X128.64Y-90.495
X130.0Y-106.4
X131.8Y-105.4
X132.2Y-82.6
X133.04Y-97.695
X135.8Y-90.0
X145.0Y-92.2
X146.2Y-71.2
X154.8Y-71.2
X159.8Y-82.6
X164.0Y-71.4
X173.8Y-105.0
X175.6Y-90.0
X178.6Y-105.0
X179.6Y-90.0
X187.6Y-69.0
X187.6Y-70.0
X187.6Y-71.0
X188.0Y-123.8
X188.0Y-124.8
X188.0Y-125.8
X188.0Y-126.8
X188.6Y-69.0
X188.6Y-70.0
X188.6Y-71.0
X189.0Y-124.8
X189.0Y-125.8
X189.0Y-126.8
X189.6Y-69.0
X189.6Y-70.0
X190.0Y-125.8
X190.0Y-126.8
X190.6Y-69.0
X201.2Y-122.0
X201.6Y-98.0
X205.6Y-71.6
X209.0Y-114.6
X210.8Y-81.0
X215.6Y-103.2
X215.6Y-104.2
X215.6Y-105.2
X216.0Y-90.8
X216.0Y-91.8
X216.0Y-92.8
X216.6Y-103.2
X216.6Y-104.2
X216.6Y-105.2
X217.0Y-90.8
X217.0Y-91.8
X217.0Y-92.8
X217.6Y-103.2
X217.6Y-104.2
X217.6Y-105.2
X218.0Y-90.8
X218.0Y-91.8
X218.0Y-92.8
X219.2Y-80.8
T2
X132.88Y-92.475
X132.88Y-93.745
X132.88Y-95.015
X133.6Y-100.6
X133.6Y-101.87
X133.6Y-103.14
T3
X123.6Y-76.7
X123.6Y-82.2
X127.8Y-76.7
X127.8Y-82.2
X140.0Y-76.7
X140.0Y-82.2
X144.328Y-111.702
X148.217Y-115.591
T4
X126.5Y-113.5
X126.5Y-119.2
X132.2Y-113.5
X132.2Y-119.2
T5
X160.784Y-116.528
X164.248Y-76.635
X166.244Y-107.072
X169.708Y-86.092
X196.502Y-116.528
X199.966Y-76.635
X201.962Y-107.072
X205.426Y-86.092
T6
X152.083Y-105.2
X152.343Y-89.813
X178.15Y-120.25
X178.41Y-74.763
X187.801Y-105.2
X188.06Y-89.813
X213.868Y-120.25
X214.128Y-74.763
M30
