%TF.GenerationSoftware,KiCad,Pcbnew,9.0.4*%
%TF.CreationDate,2026-03-16T14:24:38-04:00*%
%TF.ProjectId,Power Amp Board,506f7765-7220-4416-9d70-20426f617264,rev?*%
%TF.SameCoordinates,Original*%
%TF.FileFunction,Copper,L4,Bot*%
%TF.FilePolarity,Positive*%
%FSLAX46Y46*%
G04 Gerber Fmt 4.6, Leading zero omitted, Abs format (unit mm)*
G04 Created by KiCad (PCBNEW 9.0.4) date 2026-03-16 14:24:38*
%MOMM*%
%LPD*%
G01*
G04 APERTURE LIST*
G04 Aperture macros list*
%AMRoundRect*
0 Rectangle with rounded corners*
0 $1 Rounding radius*
0 $2 $3 $4 $5 $6 $7 $8 $9 X,Y pos of 4 corners*
0 Add a 4 corners polygon primitive as box body*
4,1,4,$2,$3,$4,$5,$6,$7,$8,$9,$2,$3,0*
0 Add four circle primitives for the rounded corners*
1,1,$1+$1,$2,$3*
1,1,$1+$1,$4,$5*
1,1,$1+$1,$6,$7*
1,1,$1+$1,$8,$9*
0 Add four rect primitives between the rounded corners*
20,1,$1+$1,$2,$3,$4,$5,0*
20,1,$1+$1,$4,$5,$6,$7,0*
20,1,$1+$1,$6,$7,$8,$9,0*
20,1,$1+$1,$8,$9,$2,$3,0*%
G04 Aperture macros list end*
%TA.AperFunction,ComponentPad*%
%ADD10RoundRect,0.250001X-1.099999X-1.399999X1.099999X-1.399999X1.099999X1.399999X-1.099999X1.399999X0*%
%TD*%
%TA.AperFunction,ComponentPad*%
%ADD11O,2.700000X3.300000*%
%TD*%
%TA.AperFunction,ComponentPad*%
%ADD12RoundRect,0.250002X1.599998X1.599998X-1.599998X1.599998X-1.599998X-1.599998X1.599998X-1.599998X0*%
%TD*%
%TA.AperFunction,ComponentPad*%
%ADD13C,3.700000*%
%TD*%
%TA.AperFunction,ComponentPad*%
%ADD14R,1.500000X1.050000*%
%TD*%
%TA.AperFunction,ComponentPad*%
%ADD15O,1.500000X1.050000*%
%TD*%
%TA.AperFunction,ComponentPad*%
%ADD16RoundRect,0.250001X-1.399999X1.099999X-1.399999X-1.099999X1.399999X-1.099999X1.399999X1.099999X0*%
%TD*%
%TA.AperFunction,ComponentPad*%
%ADD17O,3.300000X2.700000*%
%TD*%
%TA.AperFunction,ComponentPad*%
%ADD18C,5.000000*%
%TD*%
%TA.AperFunction,ComponentPad*%
%ADD19C,7.000000*%
%TD*%
%TA.AperFunction,ViaPad*%
%ADD20C,0.700000*%
%TD*%
%TA.AperFunction,Conductor*%
%ADD21C,1.600000*%
%TD*%
G04 APERTURE END LIST*
D10*
%TO.P,J2,1,Pin_1*%
%TO.N,GND*%
X140000000Y-75750000D03*
D11*
%TO.P,J2,2,Pin_2*%
%TO.N,/audio_in+*%
X140000000Y-81250000D03*
%TD*%
D12*
%TO.P,J1,1,Pin_1*%
%TO.N,GND*%
X132250000Y-123300000D03*
D13*
%TO.P,J1,2,Pin_2*%
X126550000Y-123300000D03*
%TO.P,J1,3,Pin_3*%
%TO.N,24V*%
X132250000Y-117600000D03*
%TO.P,J1,4,Pin_4*%
%TO.N,-24V*%
X126550000Y-117600000D03*
%TD*%
D10*
%TO.P,P1,1,GND*%
%TO.N,GND*%
X123500000Y-75750000D03*
D11*
%TO.P,P1,2,L*%
X127700000Y-75750000D03*
%TO.P,P1,3,W*%
%TO.N,/post_pot*%
X123500000Y-81250000D03*
%TO.P,P1,4,H*%
%TO.N,/buffer*%
X127700000Y-81250000D03*
%TD*%
D14*
%TO.P,Q1,1,C*%
%TO.N,Net-(Q1-C)*%
X132880000Y-92475000D03*
D15*
%TO.P,Q1,2,B*%
%TO.N,Net-(D1-A)*%
X132880000Y-93745000D03*
%TO.P,Q1,3,E*%
%TO.N,Net-(Q1-E)*%
X132880000Y-95015000D03*
%TD*%
D16*
%TO.P,J3,1,Pin_1*%
%TO.N,GND*%
X217400000Y-98000000D03*
D17*
%TO.P,J3,2,Pin_2*%
%TO.N,/audio_out+*%
X211900000Y-98000000D03*
%TD*%
D14*
%TO.P,Q2,1,C*%
%TO.N,Net-(Q2-C)*%
X133600000Y-103140000D03*
D15*
%TO.P,Q2,2,B*%
%TO.N,Net-(D2-K)*%
X133600000Y-101870000D03*
%TO.P,Q2,3,E*%
%TO.N,Net-(Q2-E)*%
X133600000Y-100600000D03*
%TD*%
D18*
%TO.P,Q3,1,E*%
%TO.N,Net-(Q3-E)*%
X160600000Y-78330718D03*
%TO.P,Q3,2,B*%
%TO.N,Net-(Q1-C)*%
X166060000Y-87787716D03*
D19*
%TO.P,Q3,3,C*%
%TO.N,/audio_out+*%
X177965829Y-74609217D03*
X151898465Y-89659217D03*
%TD*%
D18*
%TO.P,Q4,1,E*%
%TO.N,Net-(Q4-E)*%
X164064102Y-118363140D03*
%TO.P,Q4,2,B*%
%TO.N,Net-(Q2-C)*%
X169524102Y-108906142D03*
D19*
%TO.P,Q4,3,C*%
%TO.N,/audio_out+*%
X152158273Y-105184641D03*
X178225637Y-120234641D03*
%TD*%
D18*
%TO.P,Q6,1,E*%
%TO.N,Net-(Q6-E)*%
X199782051Y-118363140D03*
%TO.P,Q6,2,B*%
%TO.N,Net-(Q2-C)*%
X205242051Y-108906142D03*
D19*
%TO.P,Q6,3,C*%
%TO.N,/audio_out+*%
X187876222Y-105184641D03*
X213943586Y-120234641D03*
%TD*%
D18*
%TO.P,Q5,1,E*%
%TO.N,Net-(Q5-E)*%
X196317949Y-78330718D03*
%TO.P,Q5,2,B*%
%TO.N,Net-(Q1-C)*%
X201777949Y-87787716D03*
D19*
%TO.P,Q5,3,C*%
%TO.N,/audio_out+*%
X213683778Y-74609217D03*
X187616414Y-89659217D03*
%TD*%
D20*
%TO.N,GND*%
X218400000Y-93000000D03*
X176600000Y-93600000D03*
X128600000Y-108800000D03*
X171800000Y-93600000D03*
X210800000Y-81000000D03*
X175600000Y-90000000D03*
X128000000Y-88000000D03*
X166800000Y-102600000D03*
X130200000Y-108800000D03*
X126000000Y-70800000D03*
X162000000Y-102600000D03*
X123800000Y-103000000D03*
X125800000Y-100400000D03*
X145000000Y-92200000D03*
X179600000Y-90000000D03*
X178400000Y-125531961D03*
X126800000Y-107800000D03*
X219200000Y-80800000D03*
X169400000Y-69600000D03*
X163400000Y-125531961D03*
X156400000Y-71200000D03*
X218400000Y-103200000D03*
X213600000Y-93000000D03*
X208200000Y-103200000D03*
X146200000Y-71200000D03*
X203400000Y-103200000D03*
X156000000Y-81200000D03*
X164000000Y-69600000D03*
X208200000Y-93000000D03*
X177000000Y-102600000D03*
X174200000Y-69600000D03*
X205600000Y-71600000D03*
X203400000Y-93000000D03*
X136200000Y-70800000D03*
X159200000Y-69600000D03*
X168200000Y-125531961D03*
X161600000Y-93600000D03*
X172200000Y-102600000D03*
X125400000Y-85600000D03*
X209000000Y-114600000D03*
X166400000Y-93600000D03*
X164000000Y-71400000D03*
X130800000Y-70800000D03*
X133040000Y-97695000D03*
X141000000Y-70800000D03*
X173600000Y-125531961D03*
X213600000Y-103200000D03*
X201200000Y-122000000D03*
X132000000Y-107800000D03*
%TO.N,-24V*%
X186600000Y-122800000D03*
X189600000Y-126800000D03*
X150600000Y-125800000D03*
X149600000Y-124800000D03*
X150600000Y-126800000D03*
X187600000Y-126800000D03*
X149600000Y-125800000D03*
X190600000Y-125800000D03*
X152600000Y-125800000D03*
X151600000Y-125800000D03*
X188600000Y-124800000D03*
X153600000Y-123800000D03*
X189600000Y-125800000D03*
X151600000Y-124800000D03*
X149600000Y-122800000D03*
X190600000Y-123800000D03*
X153600000Y-126800000D03*
X127640000Y-102895000D03*
X187600000Y-124800000D03*
X186600000Y-126800000D03*
X126440000Y-96695000D03*
X186600000Y-124800000D03*
X186600000Y-125800000D03*
X187600000Y-123800000D03*
X187600000Y-125800000D03*
X149600000Y-123800000D03*
X189600000Y-124800000D03*
X132200000Y-82600000D03*
X151600000Y-126800000D03*
X150600000Y-123800000D03*
X188600000Y-125800000D03*
X190600000Y-124800000D03*
X150600000Y-124800000D03*
X190600000Y-126800000D03*
X153600000Y-124800000D03*
X186600000Y-123800000D03*
X153600000Y-125800000D03*
X188600000Y-126800000D03*
X149600000Y-126800000D03*
X152600000Y-126800000D03*
X152600000Y-124800000D03*
%TO.N,24V*%
X135800000Y-90000000D03*
X152400000Y-72000000D03*
X185401980Y-70911738D03*
X187400000Y-68909557D03*
X184401980Y-68911738D03*
X186401980Y-70911738D03*
X149400000Y-71000000D03*
X188400000Y-68909557D03*
X185401980Y-71911738D03*
X186400000Y-68909557D03*
X185401980Y-69911738D03*
X150400000Y-70000000D03*
X149400000Y-69000000D03*
X148400000Y-73000000D03*
X121240000Y-90895000D03*
X149400000Y-70000000D03*
X152400000Y-70000000D03*
X187400000Y-70909557D03*
X184401980Y-69911738D03*
X148400000Y-70000000D03*
X152400000Y-71000000D03*
X184401980Y-71911738D03*
X152400000Y-69000000D03*
X151400000Y-71000000D03*
X188400000Y-71909557D03*
X128640000Y-90495000D03*
X188400000Y-70909557D03*
X151400000Y-69000000D03*
X188400000Y-69909557D03*
X184401980Y-72911738D03*
X187400000Y-69909557D03*
X186400000Y-69909557D03*
X148400000Y-69000000D03*
X149400000Y-72000000D03*
X148400000Y-72000000D03*
X150400000Y-69000000D03*
X184401980Y-70911738D03*
X151400000Y-70000000D03*
X150400000Y-71000000D03*
X185401980Y-68911738D03*
X148400000Y-71000000D03*
%TD*%
D21*
%TO.N,/audio_out+*%
X209190783Y-74609217D02*
X201968282Y-81831718D01*
X158225890Y-105184641D02*
X152158273Y-105184641D01*
X162600000Y-83000000D02*
X155940783Y-89659217D01*
X209234641Y-120234641D02*
X194184641Y-105184641D01*
X171790783Y-74609217D02*
X163400000Y-83000000D01*
X194184641Y-105184641D02*
X187876222Y-105184641D01*
X177965829Y-74609217D02*
X171790783Y-74609217D01*
X173275890Y-120234641D02*
X158225890Y-105184641D01*
X213943586Y-120234641D02*
X209234641Y-120234641D01*
X201968282Y-81831718D02*
X200368282Y-81831718D01*
X200368282Y-81831718D02*
X192540783Y-89659217D01*
X155940783Y-89659217D02*
X151898465Y-89659217D01*
X192540783Y-89659217D02*
X187616414Y-89659217D01*
X178225637Y-120234641D02*
X173275890Y-120234641D01*
X213683778Y-74609217D02*
X209190783Y-74609217D01*
X163400000Y-83000000D02*
X162600000Y-83000000D01*
%TD*%
%TA.AperFunction,Conductor*%
%TO.N,-24V*%
G36*
X137592537Y-81099757D02*
G01*
X137638293Y-81152559D01*
X137649500Y-81204074D01*
X137649500Y-81704053D01*
X137649501Y-81704069D01*
X137689717Y-82009542D01*
X137769464Y-82307162D01*
X137887376Y-82591826D01*
X137887381Y-82591837D01*
X137899999Y-82613691D01*
X138041438Y-82858670D01*
X138041440Y-82858673D01*
X138041441Y-82858674D01*
X138229007Y-83103115D01*
X138229013Y-83103122D01*
X138446877Y-83320986D01*
X138446884Y-83320992D01*
X138691328Y-83508561D01*
X138691330Y-83508562D01*
X138838001Y-83593242D01*
X138886215Y-83643807D01*
X138900000Y-83700628D01*
X138900000Y-97760254D01*
X209125713Y-97878883D01*
X209192716Y-97898680D01*
X209238381Y-97951561D01*
X209249500Y-98002882D01*
X209249500Y-98154053D01*
X209249501Y-98154069D01*
X209289717Y-98459542D01*
X209369464Y-98757162D01*
X209487376Y-99041826D01*
X209487381Y-99041837D01*
X209580014Y-99202280D01*
X209641438Y-99308670D01*
X209641440Y-99308673D01*
X209641441Y-99308674D01*
X209829007Y-99553115D01*
X209829013Y-99553122D01*
X210046877Y-99770986D01*
X210046884Y-99770992D01*
X210085293Y-99800464D01*
X210291330Y-99958562D01*
X210462830Y-100057578D01*
X210558162Y-100112618D01*
X210558167Y-100112620D01*
X210558170Y-100112622D01*
X210842836Y-100230535D01*
X211140456Y-100310282D01*
X211445940Y-100350500D01*
X211445947Y-100350500D01*
X212354053Y-100350500D01*
X212354060Y-100350500D01*
X212659544Y-100310282D01*
X212957164Y-100230535D01*
X213241830Y-100112622D01*
X213508670Y-99958562D01*
X213753117Y-99770991D01*
X213970991Y-99553117D01*
X214158562Y-99308670D01*
X214312622Y-99041830D01*
X214430535Y-98757164D01*
X214505725Y-98476547D01*
X214542090Y-98416888D01*
X214604937Y-98386359D01*
X214674312Y-98394654D01*
X214728190Y-98439139D01*
X214749465Y-98505691D01*
X214749500Y-98508642D01*
X214749500Y-99164221D01*
X214759904Y-99296412D01*
X214759905Y-99296419D01*
X214814902Y-99514678D01*
X214814903Y-99514681D01*
X214907991Y-99719622D01*
X214907997Y-99719632D01*
X215036174Y-99904645D01*
X215036178Y-99904650D01*
X215036181Y-99904654D01*
X215195346Y-100063819D01*
X215195350Y-100063822D01*
X215195354Y-100063825D01*
X215265790Y-100112623D01*
X215380374Y-100192007D01*
X215585317Y-100285096D01*
X215585321Y-100285097D01*
X215803580Y-100340094D01*
X215803582Y-100340094D01*
X215803589Y-100340096D01*
X215935784Y-100350500D01*
X215935792Y-100350500D01*
X218864208Y-100350500D01*
X218864216Y-100350500D01*
X218996411Y-100340096D01*
X219214683Y-100285096D01*
X219419626Y-100192007D01*
X219604654Y-100063819D01*
X219763819Y-99904654D01*
X219892007Y-99719626D01*
X219985096Y-99514683D01*
X220040096Y-99296411D01*
X220050500Y-99164216D01*
X220050500Y-98021547D01*
X220070185Y-97954508D01*
X220122989Y-97908753D01*
X220174705Y-97897547D01*
X221002023Y-97898945D01*
X221069026Y-97918742D01*
X221114691Y-97971623D01*
X221125810Y-98022944D01*
X221125810Y-123197293D01*
X221125692Y-123202702D01*
X221108924Y-123586752D01*
X221107981Y-123597528D01*
X221058160Y-123975956D01*
X221056282Y-123986610D01*
X220973663Y-124359276D01*
X220970863Y-124369724D01*
X220856085Y-124733756D01*
X220852385Y-124743922D01*
X220706312Y-125096574D01*
X220701740Y-125106378D01*
X220525493Y-125444944D01*
X220520085Y-125454312D01*
X220314991Y-125776247D01*
X220308786Y-125785108D01*
X220076426Y-126087926D01*
X220069473Y-126096213D01*
X219811589Y-126377645D01*
X219803939Y-126385294D01*
X219522532Y-126643156D01*
X219514246Y-126650110D01*
X219211402Y-126882491D01*
X219202540Y-126888695D01*
X218880629Y-127093776D01*
X218871261Y-127099185D01*
X218532686Y-127275436D01*
X218522882Y-127280008D01*
X218170233Y-127426081D01*
X218160068Y-127429781D01*
X217796031Y-127544562D01*
X217785582Y-127547362D01*
X217412919Y-127629980D01*
X217402266Y-127631858D01*
X217023837Y-127681680D01*
X217013060Y-127682623D01*
X216629240Y-127699382D01*
X216623831Y-127699500D01*
X123029014Y-127699500D01*
X123023607Y-127699382D01*
X122639557Y-127682615D01*
X122628781Y-127681672D01*
X122250349Y-127631851D01*
X122239696Y-127629973D01*
X121867034Y-127547356D01*
X121856585Y-127544556D01*
X121492547Y-127429776D01*
X121482382Y-127426076D01*
X121129738Y-127280007D01*
X121119933Y-127275435D01*
X120781362Y-127099186D01*
X120771994Y-127093778D01*
X120450059Y-126888684D01*
X120441198Y-126882479D01*
X120138380Y-126650119D01*
X120130093Y-126643166D01*
X120041592Y-126562070D01*
X119848655Y-126385276D01*
X119841018Y-126377638D01*
X119583145Y-126096219D01*
X119576196Y-126087939D01*
X119574015Y-126085097D01*
X119343814Y-125785094D01*
X119337611Y-125776233D01*
X119292004Y-125704645D01*
X119132522Y-125454308D01*
X119127129Y-125444968D01*
X118950867Y-125106372D01*
X118946298Y-125096574D01*
X118800220Y-124743911D01*
X118796531Y-124733776D01*
X118681738Y-124369702D01*
X118678949Y-124359290D01*
X118596325Y-123986599D01*
X118594452Y-123975972D01*
X118544626Y-123597507D01*
X118543686Y-123586772D01*
X118526928Y-123202931D01*
X118526810Y-123197522D01*
X118526810Y-123139914D01*
X123699500Y-123139914D01*
X123699500Y-123460085D01*
X123735345Y-123778216D01*
X123735347Y-123778228D01*
X123806589Y-124090362D01*
X123806590Y-124090364D01*
X123912332Y-124392559D01*
X124051243Y-124681010D01*
X124072660Y-124715095D01*
X124221581Y-124952101D01*
X124336664Y-125096411D01*
X124420219Y-125201186D01*
X124421198Y-125202413D01*
X124647587Y-125428802D01*
X124897899Y-125628419D01*
X125168987Y-125798755D01*
X125457442Y-125937668D01*
X125759637Y-126043410D01*
X126071771Y-126114653D01*
X126389915Y-126150499D01*
X126389916Y-126150500D01*
X126389919Y-126150500D01*
X126710084Y-126150500D01*
X126710084Y-126150499D01*
X127028229Y-126114653D01*
X127340363Y-126043410D01*
X127642558Y-125937668D01*
X127931013Y-125798755D01*
X128202101Y-125628419D01*
X128452413Y-125428802D01*
X128678802Y-125202413D01*
X128878419Y-124952101D01*
X129048755Y-124681013D01*
X129163780Y-124442162D01*
X129210602Y-124390303D01*
X129278029Y-124371990D01*
X129344653Y-124393038D01*
X129389322Y-124446764D01*
X129399500Y-124495964D01*
X129399500Y-124964233D01*
X129409903Y-125096411D01*
X129409904Y-125096418D01*
X129464901Y-125314677D01*
X129464902Y-125314680D01*
X129557990Y-125519623D01*
X129557996Y-125519632D01*
X129686173Y-125704645D01*
X129686177Y-125704650D01*
X129686180Y-125704654D01*
X129845346Y-125863820D01*
X129845350Y-125863823D01*
X129845354Y-125863826D01*
X129951939Y-125937668D01*
X130030374Y-125992008D01*
X130235318Y-126085097D01*
X130235322Y-126085098D01*
X130453581Y-126140095D01*
X130453583Y-126140095D01*
X130453590Y-126140097D01*
X130585772Y-126150500D01*
X130585780Y-126150500D01*
X133914220Y-126150500D01*
X133914228Y-126150500D01*
X134046410Y-126140097D01*
X134264682Y-126085097D01*
X134469626Y-125992008D01*
X134654654Y-125863820D01*
X134813820Y-125704654D01*
X134942008Y-125519626D01*
X134984683Y-125425674D01*
X162049500Y-125425674D01*
X162049500Y-125638247D01*
X162072760Y-125785108D01*
X162082754Y-125848204D01*
X162146180Y-126043409D01*
X162148444Y-126050375D01*
X162244951Y-126239781D01*
X162369890Y-126411747D01*
X162520213Y-126562070D01*
X162692179Y-126687009D01*
X162692181Y-126687010D01*
X162692184Y-126687012D01*
X162881588Y-126783518D01*
X163083757Y-126849207D01*
X163293713Y-126882461D01*
X163293714Y-126882461D01*
X163506286Y-126882461D01*
X163506287Y-126882461D01*
X163716243Y-126849207D01*
X163918412Y-126783518D01*
X164107816Y-126687012D01*
X164168179Y-126643156D01*
X164279786Y-126562070D01*
X164279788Y-126562067D01*
X164279792Y-126562065D01*
X164430104Y-126411753D01*
X164430106Y-126411749D01*
X164430109Y-126411747D01*
X164555048Y-126239781D01*
X164555047Y-126239781D01*
X164555051Y-126239777D01*
X164651557Y-126050373D01*
X164717246Y-125848204D01*
X164750500Y-125638248D01*
X164750500Y-125425674D01*
X166849500Y-125425674D01*
X166849500Y-125638247D01*
X166872760Y-125785108D01*
X166882754Y-125848204D01*
X166946180Y-126043409D01*
X166948444Y-126050375D01*
X167044951Y-126239781D01*
X167169890Y-126411747D01*
X167320213Y-126562070D01*
X167492179Y-126687009D01*
X167492181Y-126687010D01*
X167492184Y-126687012D01*
X167681588Y-126783518D01*
X167883757Y-126849207D01*
X168093713Y-126882461D01*
X168093714Y-126882461D01*
X168306286Y-126882461D01*
X168306287Y-126882461D01*
X168516243Y-126849207D01*
X168718412Y-126783518D01*
X168907816Y-126687012D01*
X168968179Y-126643156D01*
X169079786Y-126562070D01*
X169079788Y-126562067D01*
X169079792Y-126562065D01*
X169230104Y-126411753D01*
X169230106Y-126411749D01*
X169230109Y-126411747D01*
X169355048Y-126239781D01*
X169355047Y-126239781D01*
X169355051Y-126239777D01*
X169451557Y-126050373D01*
X169517246Y-125848204D01*
X169550500Y-125638248D01*
X169550500Y-125425674D01*
X172249500Y-125425674D01*
X172249500Y-125638247D01*
X172272760Y-125785108D01*
X172282754Y-125848204D01*
X172346180Y-126043409D01*
X172348444Y-126050375D01*
X172444951Y-126239781D01*
X172569890Y-126411747D01*
X172720213Y-126562070D01*
X172892179Y-126687009D01*
X172892181Y-126687010D01*
X172892184Y-126687012D01*
X173081588Y-126783518D01*
X173283757Y-126849207D01*
X173493713Y-126882461D01*
X173493714Y-126882461D01*
X173706286Y-126882461D01*
X173706287Y-126882461D01*
X173916243Y-126849207D01*
X174118412Y-126783518D01*
X174307816Y-126687012D01*
X174368179Y-126643156D01*
X174479786Y-126562070D01*
X174479788Y-126562067D01*
X174479792Y-126562065D01*
X174630104Y-126411753D01*
X174630106Y-126411749D01*
X174630109Y-126411747D01*
X174755048Y-126239781D01*
X174755047Y-126239781D01*
X174755051Y-126239777D01*
X174851557Y-126050373D01*
X174917246Y-125848204D01*
X174950500Y-125638248D01*
X174950500Y-125425674D01*
X174917246Y-125215718D01*
X174851557Y-125013549D01*
X174755051Y-124824145D01*
X174755049Y-124824142D01*
X174755048Y-124824140D01*
X174630109Y-124652174D01*
X174479786Y-124501851D01*
X174307820Y-124376912D01*
X174118414Y-124280405D01*
X174118413Y-124280404D01*
X174118412Y-124280404D01*
X173916243Y-124214715D01*
X173916241Y-124214714D01*
X173916240Y-124214714D01*
X173754957Y-124189169D01*
X173706287Y-124181461D01*
X173493713Y-124181461D01*
X173445042Y-124189169D01*
X173283760Y-124214714D01*
X173081585Y-124280405D01*
X172892179Y-124376912D01*
X172720213Y-124501851D01*
X172569890Y-124652174D01*
X172444951Y-124824140D01*
X172348444Y-125013546D01*
X172282753Y-125215721D01*
X172249500Y-125425674D01*
X169550500Y-125425674D01*
X169517246Y-125215718D01*
X169451557Y-125013549D01*
X169355051Y-124824145D01*
X169355049Y-124824142D01*
X169355048Y-124824140D01*
X169230109Y-124652174D01*
X169079786Y-124501851D01*
X168907820Y-124376912D01*
X168718414Y-124280405D01*
X168718413Y-124280404D01*
X168718412Y-124280404D01*
X168516243Y-124214715D01*
X168516241Y-124214714D01*
X168516240Y-124214714D01*
X168354957Y-124189169D01*
X168306287Y-124181461D01*
X168093713Y-124181461D01*
X168045042Y-124189169D01*
X167883760Y-124214714D01*
X167681585Y-124280405D01*
X167492179Y-124376912D01*
X167320213Y-124501851D01*
X167169890Y-124652174D01*
X167044951Y-124824140D01*
X166948444Y-125013546D01*
X166882753Y-125215721D01*
X166849500Y-125425674D01*
X164750500Y-125425674D01*
X164717246Y-125215718D01*
X164651557Y-125013549D01*
X164555051Y-124824145D01*
X164555049Y-124824142D01*
X164555048Y-124824140D01*
X164430109Y-124652174D01*
X164279786Y-124501851D01*
X164107820Y-124376912D01*
X163918414Y-124280405D01*
X163918413Y-124280404D01*
X163918412Y-124280404D01*
X163716243Y-124214715D01*
X163716241Y-124214714D01*
X163716240Y-124214714D01*
X163554957Y-124189169D01*
X163506287Y-124181461D01*
X163293713Y-124181461D01*
X163245042Y-124189169D01*
X163083760Y-124214714D01*
X162881585Y-124280405D01*
X162692179Y-124376912D01*
X162520213Y-124501851D01*
X162369890Y-124652174D01*
X162244951Y-124824140D01*
X162148444Y-125013546D01*
X162082753Y-125215721D01*
X162049500Y-125425674D01*
X134984683Y-125425674D01*
X135035097Y-125314682D01*
X135090097Y-125096410D01*
X135100500Y-124964228D01*
X135100500Y-121635772D01*
X135090097Y-121503590D01*
X135063386Y-121397587D01*
X135035098Y-121285322D01*
X135035097Y-121285319D01*
X135000730Y-121209657D01*
X134942008Y-121080374D01*
X134866635Y-120971580D01*
X134813826Y-120895354D01*
X134813823Y-120895350D01*
X134813820Y-120895346D01*
X134654654Y-120736180D01*
X134654650Y-120736177D01*
X134654645Y-120736173D01*
X134469632Y-120607996D01*
X134469623Y-120607990D01*
X134264680Y-120514902D01*
X134264677Y-120514901D01*
X134046418Y-120459904D01*
X134046411Y-120459903D01*
X133914233Y-120449500D01*
X133914228Y-120449500D01*
X133445964Y-120449500D01*
X133378925Y-120429815D01*
X133333170Y-120377011D01*
X133323226Y-120307853D01*
X133352251Y-120244297D01*
X133392162Y-120213780D01*
X133493606Y-120164927D01*
X133631013Y-120098755D01*
X133902101Y-119928419D01*
X134152413Y-119728802D01*
X134378802Y-119502413D01*
X134578419Y-119252101D01*
X134748755Y-118981013D01*
X134887668Y-118692558D01*
X134993410Y-118390363D01*
X135064653Y-118078229D01*
X135100500Y-117760081D01*
X135100500Y-117439919D01*
X135088554Y-117333902D01*
X135068502Y-117155925D01*
X135067486Y-117146907D01*
X135792500Y-117146907D01*
X135792500Y-117403092D01*
X135832574Y-117656107D01*
X135911736Y-117899743D01*
X136028037Y-118127996D01*
X136178612Y-118335245D01*
X136359755Y-118516388D01*
X136567004Y-118666963D01*
X136795257Y-118783264D01*
X137038893Y-118862426D01*
X137169249Y-118883072D01*
X137291908Y-118902500D01*
X137291913Y-118902500D01*
X137548092Y-118902500D01*
X137659908Y-118884789D01*
X137801107Y-118862426D01*
X138044743Y-118783264D01*
X138272996Y-118666963D01*
X138480245Y-118516388D01*
X138661388Y-118335245D01*
X138811963Y-118127996D01*
X138928264Y-117899743D01*
X139007426Y-117656107D01*
X139040707Y-117445979D01*
X139047500Y-117403092D01*
X139047500Y-117146907D01*
X139026247Y-117012726D01*
X139007426Y-116893893D01*
X138928264Y-116650257D01*
X138811963Y-116422004D01*
X138661388Y-116214755D01*
X138480245Y-116033612D01*
X138272996Y-115883037D01*
X138044743Y-115766736D01*
X137801107Y-115687574D01*
X137548092Y-115647500D01*
X137548087Y-115647500D01*
X137291913Y-115647500D01*
X137291908Y-115647500D01*
X137038892Y-115687574D01*
X136795254Y-115766737D01*
X136567003Y-115883037D01*
X136359752Y-116033614D01*
X136178614Y-116214752D01*
X136028037Y-116422003D01*
X135911737Y-116650254D01*
X135832574Y-116893892D01*
X135792500Y-117146907D01*
X135067486Y-117146907D01*
X135064654Y-117121783D01*
X135064653Y-117121771D01*
X134993410Y-116809637D01*
X134887668Y-116507442D01*
X134748755Y-116218987D01*
X134578419Y-115947899D01*
X134378802Y-115697587D01*
X134152413Y-115471198D01*
X133902101Y-115271581D01*
X133631013Y-115101245D01*
X133631010Y-115101243D01*
X133342559Y-114962332D01*
X133040364Y-114856590D01*
X133040362Y-114856589D01*
X132799471Y-114801607D01*
X132728229Y-114785347D01*
X132728225Y-114785346D01*
X132728216Y-114785345D01*
X132410085Y-114749500D01*
X132410081Y-114749500D01*
X132089919Y-114749500D01*
X132089914Y-114749500D01*
X131771783Y-114785345D01*
X131771771Y-114785347D01*
X131459637Y-114856589D01*
X131459635Y-114856590D01*
X131157440Y-114962332D01*
X130868989Y-115101243D01*
X130597900Y-115271580D01*
X130347587Y-115471197D01*
X130121197Y-115697587D01*
X129921580Y-115947900D01*
X129751243Y-116218989D01*
X129612332Y-116507440D01*
X129506590Y-116809635D01*
X129506589Y-116809637D01*
X129435347Y-117121771D01*
X129435345Y-117121783D01*
X129399500Y-117439914D01*
X129399500Y-117760085D01*
X129435345Y-118078216D01*
X129435347Y-118078228D01*
X129506589Y-118390362D01*
X129506590Y-118390364D01*
X129612332Y-118692559D01*
X129751243Y-118981010D01*
X129751245Y-118981013D01*
X129921581Y-119252101D01*
X130121198Y-119502413D01*
X130347587Y-119728802D01*
X130597899Y-119928419D01*
X130772527Y-120038145D01*
X130868989Y-120098756D01*
X131107838Y-120213780D01*
X131159697Y-120260602D01*
X131178010Y-120328029D01*
X131156962Y-120394653D01*
X131103236Y-120439322D01*
X131054036Y-120449500D01*
X130585766Y-120449500D01*
X130453588Y-120459903D01*
X130453581Y-120459904D01*
X130235322Y-120514901D01*
X130235319Y-120514902D01*
X130030376Y-120607990D01*
X130030367Y-120607996D01*
X129845354Y-120736173D01*
X129845342Y-120736183D01*
X129686183Y-120895342D01*
X129686173Y-120895354D01*
X129557996Y-121080367D01*
X129557990Y-121080376D01*
X129464902Y-121285319D01*
X129464901Y-121285322D01*
X129409904Y-121503581D01*
X129409903Y-121503588D01*
X129399500Y-121635766D01*
X129399500Y-122104035D01*
X129379815Y-122171074D01*
X129327011Y-122216829D01*
X129257853Y-122226773D01*
X129194297Y-122197748D01*
X129163780Y-122157837D01*
X129048756Y-121918989D01*
X129030753Y-121890337D01*
X128878419Y-121647899D01*
X128678802Y-121397587D01*
X128452413Y-121171198D01*
X128202101Y-120971581D01*
X127931013Y-120801245D01*
X127931010Y-120801243D01*
X127642559Y-120662332D01*
X127340364Y-120556590D01*
X127340362Y-120556589D01*
X127099471Y-120501607D01*
X127028229Y-120485347D01*
X127028225Y-120485346D01*
X127028216Y-120485345D01*
X126710085Y-120449500D01*
X126710081Y-120449500D01*
X126389919Y-120449500D01*
X126389914Y-120449500D01*
X126071783Y-120485345D01*
X126071771Y-120485347D01*
X125759637Y-120556589D01*
X125759635Y-120556590D01*
X125457440Y-120662332D01*
X125168989Y-120801243D01*
X124897900Y-120971580D01*
X124647587Y-121171197D01*
X124421197Y-121397587D01*
X124221580Y-121647900D01*
X124051243Y-121918989D01*
X123912332Y-122207440D01*
X123806590Y-122509635D01*
X123806589Y-122509637D01*
X123735347Y-122821771D01*
X123735345Y-122821783D01*
X123699500Y-123139914D01*
X118526810Y-123139914D01*
X118526810Y-117146907D01*
X119752500Y-117146907D01*
X119752500Y-117403092D01*
X119792574Y-117656107D01*
X119871736Y-117899743D01*
X119988037Y-118127996D01*
X120138612Y-118335245D01*
X120319755Y-118516388D01*
X120527004Y-118666963D01*
X120755257Y-118783264D01*
X120998893Y-118862426D01*
X121129249Y-118883072D01*
X121251908Y-118902500D01*
X121251913Y-118902500D01*
X121508092Y-118902500D01*
X121619908Y-118884789D01*
X121761107Y-118862426D01*
X122004743Y-118783264D01*
X122232996Y-118666963D01*
X122440245Y-118516388D01*
X122621388Y-118335245D01*
X122771963Y-118127996D01*
X122888264Y-117899743D01*
X122967426Y-117656107D01*
X123000708Y-117445979D01*
X124200000Y-117445979D01*
X124200000Y-117754020D01*
X124200001Y-117754037D01*
X124240208Y-118059442D01*
X124319940Y-118357003D01*
X124437821Y-118641596D01*
X124437828Y-118641611D01*
X124570861Y-118872030D01*
X124570862Y-118872031D01*
X125667296Y-117775596D01*
X125684586Y-117862520D01*
X125752430Y-118026310D01*
X125850924Y-118173717D01*
X125976283Y-118299076D01*
X126123690Y-118397570D01*
X126287480Y-118465414D01*
X126374402Y-118482703D01*
X125277968Y-119579137D01*
X125508389Y-119712171D01*
X125508403Y-119712178D01*
X125792996Y-119830059D01*
X126090557Y-119909791D01*
X126395962Y-119949998D01*
X126395980Y-119950000D01*
X126704020Y-119950000D01*
X126704037Y-119949998D01*
X127009442Y-119909791D01*
X127307003Y-119830059D01*
X127591599Y-119712177D01*
X127591615Y-119712169D01*
X127822030Y-119579138D01*
X127822031Y-119579136D01*
X126725598Y-118482703D01*
X126812520Y-118465414D01*
X126976310Y-118397570D01*
X127123717Y-118299076D01*
X127249076Y-118173717D01*
X127347570Y-118026310D01*
X127415414Y-117862520D01*
X127432703Y-117775597D01*
X128529136Y-118872031D01*
X128529138Y-118872030D01*
X128662169Y-118641615D01*
X128662177Y-118641599D01*
X128780059Y-118357003D01*
X128859791Y-118059442D01*
X128899998Y-117754037D01*
X128900000Y-117754020D01*
X128900000Y-117445979D01*
X128899998Y-117445962D01*
X128859791Y-117140557D01*
X128780059Y-116842996D01*
X128662178Y-116558403D01*
X128662171Y-116558389D01*
X128529137Y-116327968D01*
X127432703Y-117424401D01*
X127415414Y-117337480D01*
X127347570Y-117173690D01*
X127249076Y-117026283D01*
X127123717Y-116900924D01*
X126976310Y-116802430D01*
X126812520Y-116734586D01*
X126725597Y-116717296D01*
X127822031Y-115620862D01*
X127822030Y-115620861D01*
X127591611Y-115487828D01*
X127591596Y-115487821D01*
X127307003Y-115369940D01*
X127009442Y-115290208D01*
X126704037Y-115250001D01*
X126704020Y-115250000D01*
X126395980Y-115250000D01*
X126395962Y-115250001D01*
X126090557Y-115290208D01*
X125792996Y-115369940D01*
X125508403Y-115487821D01*
X125508381Y-115487832D01*
X125277968Y-115620859D01*
X125277967Y-115620861D01*
X126374403Y-116717296D01*
X126287480Y-116734586D01*
X126123690Y-116802430D01*
X125976283Y-116900924D01*
X125850924Y-117026283D01*
X125752430Y-117173690D01*
X125684586Y-117337480D01*
X125667296Y-117424402D01*
X124570861Y-116327967D01*
X124570859Y-116327968D01*
X124437832Y-116558381D01*
X124437821Y-116558403D01*
X124319940Y-116842996D01*
X124240208Y-117140557D01*
X124200001Y-117445962D01*
X124200000Y-117445979D01*
X123000708Y-117445979D01*
X123004409Y-117422609D01*
X123004423Y-117422518D01*
X123007500Y-117403088D01*
X123007500Y-117146907D01*
X122986247Y-117012726D01*
X122967426Y-116893893D01*
X122888264Y-116650257D01*
X122771963Y-116422004D01*
X122621388Y-116214755D01*
X122440245Y-116033612D01*
X122232996Y-115883037D01*
X122004743Y-115766736D01*
X121761107Y-115687574D01*
X121508092Y-115647500D01*
X121508087Y-115647500D01*
X121251913Y-115647500D01*
X121251908Y-115647500D01*
X120998892Y-115687574D01*
X120755254Y-115766737D01*
X120527003Y-115883037D01*
X120319752Y-116033614D01*
X120138614Y-116214752D01*
X119988037Y-116422003D01*
X119871737Y-116650254D01*
X119792574Y-116893892D01*
X119752500Y-117146907D01*
X118526810Y-117146907D01*
X118526810Y-107693713D01*
X125449500Y-107693713D01*
X125449500Y-107906287D01*
X125482754Y-108116243D01*
X125519077Y-108228034D01*
X125548444Y-108318414D01*
X125644951Y-108507820D01*
X125769890Y-108679786D01*
X125920213Y-108830109D01*
X126092179Y-108955048D01*
X126092181Y-108955049D01*
X126092184Y-108955051D01*
X126281588Y-109051557D01*
X126483757Y-109117246D01*
X126693713Y-109150500D01*
X126693714Y-109150500D01*
X126906286Y-109150500D01*
X126906287Y-109150500D01*
X127116243Y-109117246D01*
X127149216Y-109106531D01*
X127219056Y-109104535D01*
X127278889Y-109140615D01*
X127305466Y-109186143D01*
X127348444Y-109318416D01*
X127444951Y-109507820D01*
X127569890Y-109679786D01*
X127720213Y-109830109D01*
X127892179Y-109955048D01*
X127892181Y-109955049D01*
X127892184Y-109955051D01*
X128081588Y-110051557D01*
X128283757Y-110117246D01*
X128493713Y-110150500D01*
X128493714Y-110150500D01*
X128706286Y-110150500D01*
X128706287Y-110150500D01*
X128916243Y-110117246D01*
X129118412Y-110051557D01*
X129307816Y-109955051D01*
X129327114Y-109941029D01*
X129392920Y-109917550D01*
X129460974Y-109933375D01*
X129472884Y-109941029D01*
X129492184Y-109955051D01*
X129681588Y-110051557D01*
X129883757Y-110117246D01*
X130093713Y-110150500D01*
X130093714Y-110150500D01*
X130306286Y-110150500D01*
X130306287Y-110150500D01*
X130516243Y-110117246D01*
X130718412Y-110051557D01*
X130907816Y-109955051D01*
X130959432Y-109917550D01*
X131079786Y-109830109D01*
X131079788Y-109830106D01*
X131079792Y-109830104D01*
X131230104Y-109679792D01*
X131230106Y-109679788D01*
X131230109Y-109679786D01*
X131355048Y-109507820D01*
X131355047Y-109507820D01*
X131355051Y-109507816D01*
X131451557Y-109318412D01*
X131494534Y-109186142D01*
X131533970Y-109128469D01*
X131598329Y-109101270D01*
X131650779Y-109106530D01*
X131683757Y-109117246D01*
X131893713Y-109150500D01*
X131893714Y-109150500D01*
X132106286Y-109150500D01*
X132106287Y-109150500D01*
X132316243Y-109117246D01*
X132518412Y-109051557D01*
X132707816Y-108955051D01*
X132729789Y-108939086D01*
X132879786Y-108830109D01*
X132879788Y-108830106D01*
X132879792Y-108830104D01*
X133030104Y-108679792D01*
X133030106Y-108679788D01*
X133030109Y-108679786D01*
X133155048Y-108507820D01*
X133155047Y-108507820D01*
X133155051Y-108507816D01*
X133251557Y-108318412D01*
X133317246Y-108116243D01*
X133350500Y-107906287D01*
X133350500Y-107693713D01*
X133317246Y-107483757D01*
X133251557Y-107281588D01*
X133155051Y-107092184D01*
X133155049Y-107092181D01*
X133155048Y-107092179D01*
X133030109Y-106920213D01*
X132879786Y-106769890D01*
X132707820Y-106644951D01*
X132518414Y-106548444D01*
X132518413Y-106548443D01*
X132518412Y-106548443D01*
X132316243Y-106482754D01*
X132316241Y-106482753D01*
X132316240Y-106482753D01*
X132154957Y-106457208D01*
X132106287Y-106449500D01*
X131893713Y-106449500D01*
X131845042Y-106457208D01*
X131683760Y-106482753D01*
X131683757Y-106482754D01*
X131509860Y-106539257D01*
X131481585Y-106548444D01*
X131292179Y-106644951D01*
X131120213Y-106769890D01*
X130969890Y-106920213D01*
X130844951Y-107092179D01*
X130748444Y-107281583D01*
X130705466Y-107413856D01*
X130666028Y-107471531D01*
X130601669Y-107498729D01*
X130549218Y-107493468D01*
X130516244Y-107482754D01*
X130516240Y-107482753D01*
X130354957Y-107457208D01*
X130306287Y-107449500D01*
X130093713Y-107449500D01*
X130045042Y-107457208D01*
X129883760Y-107482753D01*
X129681585Y-107548444D01*
X129492181Y-107644950D01*
X129472883Y-107658971D01*
X129407076Y-107682449D01*
X129339023Y-107666622D01*
X129327117Y-107658971D01*
X129307818Y-107644950D01*
X129118414Y-107548444D01*
X129118413Y-107548443D01*
X129118412Y-107548443D01*
X128916243Y-107482754D01*
X128916241Y-107482753D01*
X128916240Y-107482753D01*
X128754957Y-107457208D01*
X128706287Y-107449500D01*
X128493713Y-107449500D01*
X128431334Y-107459380D01*
X128283755Y-107482754D01*
X128250780Y-107493468D01*
X128180939Y-107495462D01*
X128121107Y-107459380D01*
X128094533Y-107413854D01*
X128092524Y-107407672D01*
X128051557Y-107281588D01*
X127955051Y-107092184D01*
X127955049Y-107092181D01*
X127955048Y-107092179D01*
X127830109Y-106920213D01*
X127679786Y-106769890D01*
X127507820Y-106644951D01*
X127318414Y-106548444D01*
X127318413Y-106548443D01*
X127318412Y-106548443D01*
X127116243Y-106482754D01*
X127116241Y-106482753D01*
X127116240Y-106482753D01*
X126954957Y-106457208D01*
X126906287Y-106449500D01*
X126693713Y-106449500D01*
X126645042Y-106457208D01*
X126483760Y-106482753D01*
X126483757Y-106482754D01*
X126309860Y-106539257D01*
X126281585Y-106548444D01*
X126092179Y-106644951D01*
X125920213Y-106769890D01*
X125769890Y-106920213D01*
X125644951Y-107092179D01*
X125548444Y-107281585D01*
X125482753Y-107483760D01*
X125457223Y-107644950D01*
X125449500Y-107693713D01*
X118526810Y-107693713D01*
X118526810Y-104988140D01*
X147657773Y-104988140D01*
X147657773Y-105381141D01*
X147692024Y-105772636D01*
X147692024Y-105772640D01*
X147760264Y-106159646D01*
X147760266Y-106159656D01*
X147861980Y-106539257D01*
X147861981Y-106539259D01*
X147861981Y-106539260D01*
X147996397Y-106908562D01*
X148162468Y-107264703D01*
X148162480Y-107264727D01*
X148358968Y-107605053D01*
X148358977Y-107605068D01*
X148584388Y-107926988D01*
X148743193Y-108116243D01*
X148836995Y-108228032D01*
X149114882Y-108505919D01*
X149117143Y-108507816D01*
X149415925Y-108758525D01*
X149415931Y-108758529D01*
X149415932Y-108758530D01*
X149737852Y-108983941D01*
X150078193Y-109180437D01*
X150078207Y-109180443D01*
X150078210Y-109180445D01*
X150434351Y-109346516D01*
X150434356Y-109346517D01*
X150434365Y-109346522D01*
X150803657Y-109480934D01*
X151183258Y-109582648D01*
X151570280Y-109650890D01*
X151961775Y-109685140D01*
X151961776Y-109685141D01*
X151961777Y-109685141D01*
X152354770Y-109685141D01*
X152354770Y-109685140D01*
X152746266Y-109650890D01*
X153133288Y-109582648D01*
X153512889Y-109480934D01*
X153882181Y-109346522D01*
X154238353Y-109180437D01*
X154578694Y-108983941D01*
X154900614Y-108758530D01*
X155201664Y-108505919D01*
X155479551Y-108228032D01*
X155732162Y-107926982D01*
X155957573Y-107605062D01*
X156154069Y-107264721D01*
X156154073Y-107264711D01*
X156154078Y-107264703D01*
X156251054Y-107056737D01*
X156297226Y-107004297D01*
X156363436Y-106985141D01*
X157428737Y-106985141D01*
X157495776Y-107004826D01*
X157516418Y-107021460D01*
X165344688Y-114849730D01*
X165378173Y-114911053D01*
X165373189Y-114980745D01*
X165331317Y-115036678D01*
X165265853Y-115061095D01*
X165221012Y-115056072D01*
X164972694Y-114980745D01*
X164915674Y-114963448D01*
X164578350Y-114896350D01*
X164578351Y-114896350D01*
X164320558Y-114870961D01*
X164236071Y-114862640D01*
X163892133Y-114862640D01*
X163814068Y-114870328D01*
X163549852Y-114896350D01*
X163212529Y-114963448D01*
X162883395Y-115063290D01*
X162565637Y-115194910D01*
X162565632Y-115194912D01*
X162262326Y-115357033D01*
X162262308Y-115357044D01*
X161976350Y-115548115D01*
X161976336Y-115548125D01*
X161710469Y-115766316D01*
X161467278Y-116009507D01*
X161249087Y-116275374D01*
X161249077Y-116275388D01*
X161058006Y-116561346D01*
X161057995Y-116561364D01*
X160895874Y-116864670D01*
X160895872Y-116864675D01*
X160764252Y-117182433D01*
X160664410Y-117511567D01*
X160597312Y-117848890D01*
X160571290Y-118113106D01*
X160567209Y-118154554D01*
X160563602Y-118191174D01*
X160563602Y-118535105D01*
X160597312Y-118877389D01*
X160664410Y-119214712D01*
X160764252Y-119543846D01*
X160857321Y-119768534D01*
X160882805Y-119830059D01*
X160895872Y-119861604D01*
X160895874Y-119861609D01*
X161057995Y-120164915D01*
X161057999Y-120164922D01*
X161058002Y-120164927D01*
X161177260Y-120343410D01*
X161249077Y-120450891D01*
X161249087Y-120450905D01*
X161467278Y-120716772D01*
X161710469Y-120959963D01*
X161710474Y-120959967D01*
X161710475Y-120959968D01*
X161976342Y-121178159D01*
X162262315Y-121369240D01*
X162262324Y-121369245D01*
X162262326Y-121369246D01*
X162565632Y-121531367D01*
X162565634Y-121531367D01*
X162565640Y-121531371D01*
X162883397Y-121662990D01*
X163212524Y-121762830D01*
X163549852Y-121829929D01*
X163892133Y-121863640D01*
X163892136Y-121863640D01*
X164236068Y-121863640D01*
X164236071Y-121863640D01*
X164578352Y-121829929D01*
X164915680Y-121762830D01*
X165244807Y-121662990D01*
X165562564Y-121531371D01*
X165865889Y-121369240D01*
X166151862Y-121178159D01*
X166417729Y-120959968D01*
X166660930Y-120716767D01*
X166879121Y-120450900D01*
X167070202Y-120164927D01*
X167232333Y-119861602D01*
X167363952Y-119543845D01*
X167463792Y-119214718D01*
X167530891Y-118877390D01*
X167564602Y-118535109D01*
X167564602Y-118191171D01*
X167530891Y-117848890D01*
X167463792Y-117511562D01*
X167371168Y-117206226D01*
X167370546Y-117136363D01*
X167407794Y-117077250D01*
X167471088Y-117047659D01*
X167540333Y-117056984D01*
X167577511Y-117082553D01*
X172086185Y-121591228D01*
X172086192Y-121591234D01*
X172179705Y-121662989D01*
X172273439Y-121734914D01*
X172477840Y-121852925D01*
X172568162Y-121890337D01*
X172695897Y-121943247D01*
X172923876Y-122004334D01*
X173157879Y-122035141D01*
X174020474Y-122035141D01*
X174087513Y-122054826D01*
X174132856Y-122106737D01*
X174229831Y-122314703D01*
X174229844Y-122314727D01*
X174426332Y-122655053D01*
X174426341Y-122655068D01*
X174651752Y-122976988D01*
X174841150Y-123202702D01*
X174904359Y-123278032D01*
X175182246Y-123555919D01*
X175231834Y-123597528D01*
X175483289Y-123808525D01*
X175483295Y-123808529D01*
X175483296Y-123808530D01*
X175805216Y-124033941D01*
X176145557Y-124230437D01*
X176145571Y-124230443D01*
X176145574Y-124230445D01*
X176501715Y-124396516D01*
X176501720Y-124396517D01*
X176501729Y-124396522D01*
X176871021Y-124530934D01*
X177188060Y-124615884D01*
X177247719Y-124652248D01*
X177278248Y-124715095D01*
X177269953Y-124784471D01*
X177256287Y-124808538D01*
X177244950Y-124824143D01*
X177244948Y-124824146D01*
X177148444Y-125013546D01*
X177082753Y-125215721D01*
X177049500Y-125425674D01*
X177049500Y-125638247D01*
X177072760Y-125785108D01*
X177082754Y-125848204D01*
X177146180Y-126043409D01*
X177148444Y-126050375D01*
X177244951Y-126239781D01*
X177369890Y-126411747D01*
X177520213Y-126562070D01*
X177692179Y-126687009D01*
X177692181Y-126687010D01*
X177692184Y-126687012D01*
X177881588Y-126783518D01*
X178083757Y-126849207D01*
X178293713Y-126882461D01*
X178293714Y-126882461D01*
X178506286Y-126882461D01*
X178506287Y-126882461D01*
X178716243Y-126849207D01*
X178918412Y-126783518D01*
X179107816Y-126687012D01*
X179168179Y-126643156D01*
X179279786Y-126562070D01*
X179279788Y-126562067D01*
X179279792Y-126562065D01*
X179430104Y-126411753D01*
X179430106Y-126411749D01*
X179430109Y-126411747D01*
X179555048Y-126239781D01*
X179555047Y-126239781D01*
X179555051Y-126239777D01*
X179651557Y-126050373D01*
X179717246Y-125848204D01*
X179750500Y-125638248D01*
X179750500Y-125425674D01*
X179717246Y-125215718D01*
X179651557Y-125013549D01*
X179555051Y-124824145D01*
X179543712Y-124808538D01*
X179486891Y-124730329D01*
X179463411Y-124664523D01*
X179479237Y-124596469D01*
X179529343Y-124547774D01*
X179555114Y-124537669D01*
X179580253Y-124530934D01*
X179949545Y-124396522D01*
X179957017Y-124393038D01*
X180092732Y-124329753D01*
X180305717Y-124230437D01*
X180646058Y-124033941D01*
X180967978Y-123808530D01*
X181269028Y-123555919D01*
X181546915Y-123278032D01*
X181799526Y-122976982D01*
X182024937Y-122655062D01*
X182221433Y-122314721D01*
X182387518Y-121958549D01*
X182521930Y-121589257D01*
X182623644Y-121209656D01*
X182691886Y-120822634D01*
X182726137Y-120431137D01*
X182726137Y-120038145D01*
X182691886Y-119646648D01*
X182623644Y-119259626D01*
X182521930Y-118880025D01*
X182387518Y-118510733D01*
X182387513Y-118510724D01*
X182387512Y-118510719D01*
X182221441Y-118154578D01*
X182221429Y-118154554D01*
X182147387Y-118026310D01*
X182024937Y-117814220D01*
X181799526Y-117492300D01*
X181799525Y-117492299D01*
X181799521Y-117492293D01*
X181636807Y-117298379D01*
X181546915Y-117191250D01*
X181269028Y-116913363D01*
X181145410Y-116809635D01*
X180967984Y-116660756D01*
X180646064Y-116435345D01*
X180646061Y-116435343D01*
X180646058Y-116435341D01*
X180460081Y-116327967D01*
X180305723Y-116238848D01*
X180305699Y-116238836D01*
X179949558Y-116072765D01*
X179949547Y-116072761D01*
X179949545Y-116072760D01*
X179580253Y-115938348D01*
X179339597Y-115873864D01*
X179200653Y-115836634D01*
X179200642Y-115836632D01*
X178813634Y-115768392D01*
X178422137Y-115734141D01*
X178422133Y-115734141D01*
X178029141Y-115734141D01*
X178029136Y-115734141D01*
X177637641Y-115768392D01*
X177637637Y-115768392D01*
X177250631Y-115836632D01*
X177250620Y-115836634D01*
X177077444Y-115883037D01*
X176871021Y-115938348D01*
X176871018Y-115938349D01*
X176871017Y-115938349D01*
X176501715Y-116072765D01*
X176145574Y-116238836D01*
X176145550Y-116238848D01*
X175805224Y-116435336D01*
X175805209Y-116435345D01*
X175483289Y-116660756D01*
X175182243Y-116913365D01*
X174904361Y-117191247D01*
X174651752Y-117492293D01*
X174426341Y-117814213D01*
X174426332Y-117814228D01*
X174229844Y-118154554D01*
X174229836Y-118154570D01*
X174149573Y-118326694D01*
X174103400Y-118379133D01*
X174036207Y-118398285D01*
X173969326Y-118378069D01*
X173949510Y-118361970D01*
X167835351Y-112247811D01*
X167801866Y-112186488D01*
X167806850Y-112116796D01*
X167848722Y-112060863D01*
X167914186Y-112036446D01*
X167981485Y-112050772D01*
X168025632Y-112074369D01*
X168025634Y-112074369D01*
X168025640Y-112074373D01*
X168343397Y-112205992D01*
X168672524Y-112305832D01*
X169009852Y-112372931D01*
X169352133Y-112406642D01*
X169352136Y-112406642D01*
X169696068Y-112406642D01*
X169696071Y-112406642D01*
X170038352Y-112372931D01*
X170375680Y-112305832D01*
X170704807Y-112205992D01*
X171022564Y-112074373D01*
X171325889Y-111912242D01*
X171611862Y-111721161D01*
X171877729Y-111502970D01*
X172120930Y-111259769D01*
X172339121Y-110993902D01*
X172530202Y-110707929D01*
X172692333Y-110404604D01*
X172823952Y-110086847D01*
X172923792Y-109757720D01*
X172990891Y-109420392D01*
X173024602Y-109078111D01*
X173024602Y-108734173D01*
X172990891Y-108391892D01*
X172923792Y-108054564D01*
X172823952Y-107725437D01*
X172692333Y-107407680D01*
X172530202Y-107104355D01*
X172339121Y-106818382D01*
X172120930Y-106552515D01*
X172120929Y-106552514D01*
X172120925Y-106552509D01*
X171877734Y-106309318D01*
X171611867Y-106091127D01*
X171611866Y-106091126D01*
X171611862Y-106091123D01*
X171325889Y-105900042D01*
X171325884Y-105900039D01*
X171325877Y-105900035D01*
X171022571Y-105737914D01*
X171022566Y-105737912D01*
X170704808Y-105606292D01*
X170375674Y-105506450D01*
X170038350Y-105439352D01*
X170038351Y-105439352D01*
X169780558Y-105413963D01*
X169696071Y-105405642D01*
X169352133Y-105405642D01*
X169274068Y-105413330D01*
X169009852Y-105439352D01*
X168672529Y-105506450D01*
X168343395Y-105606292D01*
X168025637Y-105737912D01*
X168025632Y-105737914D01*
X167722326Y-105900035D01*
X167722308Y-105900046D01*
X167436350Y-106091117D01*
X167436336Y-106091127D01*
X167170469Y-106309318D01*
X166927278Y-106552509D01*
X166709087Y-106818376D01*
X166709077Y-106818390D01*
X166518006Y-107104348D01*
X166517995Y-107104366D01*
X166355874Y-107407672D01*
X166355872Y-107407677D01*
X166224252Y-107725435D01*
X166124410Y-108054569D01*
X166057312Y-108391892D01*
X166045895Y-108507820D01*
X166023602Y-108734173D01*
X166023602Y-109078111D01*
X166028562Y-109128469D01*
X166057312Y-109420391D01*
X166124410Y-109757714D01*
X166224252Y-110086848D01*
X166355872Y-110404606D01*
X166355874Y-110404611D01*
X166379471Y-110448757D01*
X166393713Y-110517159D01*
X166368713Y-110582403D01*
X166312408Y-110623774D01*
X166242675Y-110628136D01*
X166182432Y-110594891D01*
X160575681Y-104988140D01*
X183375722Y-104988140D01*
X183375722Y-105381141D01*
X183409973Y-105772636D01*
X183409973Y-105772640D01*
X183478213Y-106159646D01*
X183478215Y-106159656D01*
X183579929Y-106539257D01*
X183579930Y-106539259D01*
X183579930Y-106539260D01*
X183714346Y-106908562D01*
X183880417Y-107264703D01*
X183880429Y-107264727D01*
X184076917Y-107605053D01*
X184076926Y-107605068D01*
X184302337Y-107926988D01*
X184461142Y-108116243D01*
X184554944Y-108228032D01*
X184832831Y-108505919D01*
X184835092Y-108507816D01*
X185133874Y-108758525D01*
X185133880Y-108758529D01*
X185133881Y-108758530D01*
X185455801Y-108983941D01*
X185796142Y-109180437D01*
X185796156Y-109180443D01*
X185796159Y-109180445D01*
X186152300Y-109346516D01*
X186152305Y-109346517D01*
X186152314Y-109346522D01*
X186521606Y-109480934D01*
X186901207Y-109582648D01*
X187288229Y-109650890D01*
X187679724Y-109685140D01*
X187679725Y-109685141D01*
X187679726Y-109685141D01*
X188072719Y-109685141D01*
X188072719Y-109685140D01*
X188464215Y-109650890D01*
X188851237Y-109582648D01*
X189230838Y-109480934D01*
X189600130Y-109346522D01*
X189956302Y-109180437D01*
X190296643Y-108983941D01*
X190618563Y-108758530D01*
X190919613Y-108505919D01*
X191197500Y-108228032D01*
X191450111Y-107926982D01*
X191675522Y-107605062D01*
X191872018Y-107264721D01*
X191872022Y-107264711D01*
X191872027Y-107264703D01*
X191969003Y-107056737D01*
X192015175Y-107004297D01*
X192081385Y-106985141D01*
X193387488Y-106985141D01*
X193454527Y-107004826D01*
X193475169Y-107021460D01*
X201480206Y-115026497D01*
X201513691Y-115087820D01*
X201508707Y-115157512D01*
X201466835Y-115213445D01*
X201401371Y-115237862D01*
X201334073Y-115223537D01*
X201280514Y-115194909D01*
X200962757Y-115063290D01*
X200633623Y-114963448D01*
X200296299Y-114896350D01*
X200296300Y-114896350D01*
X200038507Y-114870961D01*
X199954020Y-114862640D01*
X199610082Y-114862640D01*
X199532017Y-114870328D01*
X199267801Y-114896350D01*
X198930478Y-114963448D01*
X198601344Y-115063290D01*
X198283586Y-115194910D01*
X198283581Y-115194912D01*
X197980275Y-115357033D01*
X197980257Y-115357044D01*
X197694299Y-115548115D01*
X197694285Y-115548125D01*
X197428418Y-115766316D01*
X197185227Y-116009507D01*
X196967036Y-116275374D01*
X196967026Y-116275388D01*
X196775955Y-116561346D01*
X196775944Y-116561364D01*
X196613823Y-116864670D01*
X196613821Y-116864675D01*
X196482201Y-117182433D01*
X196382359Y-117511567D01*
X196315261Y-117848890D01*
X196289239Y-118113106D01*
X196285158Y-118154554D01*
X196281551Y-118191174D01*
X196281551Y-118535105D01*
X196315261Y-118877389D01*
X196382359Y-119214712D01*
X196482201Y-119543846D01*
X196575270Y-119768534D01*
X196600754Y-119830059D01*
X196613821Y-119861604D01*
X196613823Y-119861609D01*
X196775944Y-120164915D01*
X196775948Y-120164922D01*
X196775951Y-120164927D01*
X196895209Y-120343410D01*
X196967026Y-120450891D01*
X196967036Y-120450905D01*
X197185227Y-120716772D01*
X197428418Y-120959963D01*
X197428423Y-120959967D01*
X197428424Y-120959968D01*
X197694291Y-121178159D01*
X197980264Y-121369240D01*
X197980273Y-121369245D01*
X197980275Y-121369246D01*
X198283581Y-121531367D01*
X198283583Y-121531367D01*
X198283589Y-121531371D01*
X198601346Y-121662990D01*
X198930473Y-121762830D01*
X199267801Y-121829929D01*
X199610082Y-121863640D01*
X199725500Y-121863640D01*
X199792539Y-121883325D01*
X199838294Y-121936129D01*
X199849500Y-121987640D01*
X199849500Y-122106287D01*
X199882754Y-122316243D01*
X199945591Y-122509635D01*
X199948444Y-122518414D01*
X200044951Y-122707820D01*
X200169890Y-122879786D01*
X200320213Y-123030109D01*
X200492179Y-123155048D01*
X200492181Y-123155049D01*
X200492184Y-123155051D01*
X200681588Y-123251557D01*
X200883757Y-123317246D01*
X201093713Y-123350500D01*
X201093714Y-123350500D01*
X201306286Y-123350500D01*
X201306287Y-123350500D01*
X201516243Y-123317246D01*
X201718412Y-123251557D01*
X201907816Y-123155051D01*
X201940860Y-123131043D01*
X202079786Y-123030109D01*
X202079788Y-123030106D01*
X202079792Y-123030104D01*
X202230104Y-122879792D01*
X202230106Y-122879788D01*
X202230109Y-122879786D01*
X202355048Y-122707820D01*
X202355047Y-122707820D01*
X202355051Y-122707816D01*
X202451557Y-122518412D01*
X202517246Y-122316243D01*
X202550500Y-122106287D01*
X202550500Y-121893713D01*
X202517246Y-121683757D01*
X202451557Y-121481588D01*
X202355051Y-121292184D01*
X202355049Y-121292181D01*
X202355048Y-121292179D01*
X202230109Y-121120213D01*
X202190452Y-121080556D01*
X202156967Y-121019233D01*
X202161951Y-120949541D01*
X202190452Y-120905194D01*
X202378874Y-120716772D01*
X202378879Y-120716767D01*
X202597070Y-120450900D01*
X202788151Y-120164927D01*
X202950282Y-119861602D01*
X203081901Y-119543845D01*
X203181741Y-119214718D01*
X203248840Y-118877390D01*
X203282551Y-118535109D01*
X203282551Y-118191171D01*
X203248840Y-117848890D01*
X203181741Y-117511562D01*
X203081901Y-117182435D01*
X202950282Y-116864678D01*
X202921653Y-116811118D01*
X202907412Y-116742717D01*
X202932412Y-116677473D01*
X202988716Y-116636102D01*
X203058450Y-116631740D01*
X203118693Y-116664985D01*
X208044936Y-121591228D01*
X208044943Y-121591234D01*
X208138456Y-121662989D01*
X208232190Y-121734914D01*
X208436591Y-121852925D01*
X208526913Y-121890337D01*
X208654648Y-121943247D01*
X208882627Y-122004334D01*
X209116630Y-122035141D01*
X209738423Y-122035141D01*
X209805462Y-122054826D01*
X209850805Y-122106737D01*
X209947780Y-122314703D01*
X209947793Y-122314727D01*
X210144281Y-122655053D01*
X210144290Y-122655068D01*
X210369701Y-122976988D01*
X210559099Y-123202702D01*
X210622308Y-123278032D01*
X210900195Y-123555919D01*
X210949783Y-123597528D01*
X211201238Y-123808525D01*
X211201244Y-123808529D01*
X211201245Y-123808530D01*
X211523165Y-124033941D01*
X211863506Y-124230437D01*
X211863520Y-124230443D01*
X211863523Y-124230445D01*
X212219664Y-124396516D01*
X212219669Y-124396517D01*
X212219678Y-124396522D01*
X212588970Y-124530934D01*
X212968571Y-124632648D01*
X213355593Y-124700890D01*
X213747088Y-124735140D01*
X213747089Y-124735141D01*
X213747090Y-124735141D01*
X214140083Y-124735141D01*
X214140083Y-124735140D01*
X214531579Y-124700890D01*
X214918601Y-124632648D01*
X215298202Y-124530934D01*
X215667494Y-124396522D01*
X215674966Y-124393038D01*
X215810681Y-124329753D01*
X216023666Y-124230437D01*
X216364007Y-124033941D01*
X216685927Y-123808530D01*
X216986977Y-123555919D01*
X217264864Y-123278032D01*
X217517475Y-122976982D01*
X217742886Y-122655062D01*
X217939382Y-122314721D01*
X218105467Y-121958549D01*
X218239879Y-121589257D01*
X218341593Y-121209656D01*
X218409835Y-120822634D01*
X218444086Y-120431137D01*
X218444086Y-120038145D01*
X218409835Y-119646648D01*
X218341593Y-119259626D01*
X218239879Y-118880025D01*
X218105467Y-118510733D01*
X218105462Y-118510724D01*
X218105461Y-118510719D01*
X217939390Y-118154578D01*
X217939378Y-118154554D01*
X217865336Y-118026310D01*
X217742886Y-117814220D01*
X217517475Y-117492300D01*
X217517474Y-117492299D01*
X217517470Y-117492293D01*
X217354756Y-117298379D01*
X217264864Y-117191250D01*
X216986977Y-116913363D01*
X216863359Y-116809635D01*
X216685933Y-116660756D01*
X216364013Y-116435345D01*
X216364010Y-116435343D01*
X216364007Y-116435341D01*
X216178030Y-116327967D01*
X216023672Y-116238848D01*
X216023648Y-116238836D01*
X215667507Y-116072765D01*
X215667496Y-116072761D01*
X215667494Y-116072760D01*
X215298202Y-115938348D01*
X215057546Y-115873864D01*
X214918602Y-115836634D01*
X214918591Y-115836632D01*
X214531583Y-115768392D01*
X214140086Y-115734141D01*
X214140082Y-115734141D01*
X213747090Y-115734141D01*
X213747085Y-115734141D01*
X213355590Y-115768392D01*
X213355586Y-115768392D01*
X212968580Y-115836632D01*
X212968569Y-115836634D01*
X212795393Y-115883037D01*
X212588970Y-115938348D01*
X212588967Y-115938349D01*
X212588966Y-115938349D01*
X212219664Y-116072765D01*
X211863523Y-116238836D01*
X211863499Y-116238848D01*
X211523173Y-116435336D01*
X211523158Y-116435345D01*
X211201238Y-116660756D01*
X210900192Y-116913365D01*
X210622310Y-117191247D01*
X210369701Y-117492293D01*
X210144290Y-117814213D01*
X210144281Y-117814228D01*
X209947793Y-118154554D01*
X209947789Y-118154561D01*
X209944101Y-118162472D01*
X209897928Y-118214911D01*
X209830734Y-118234062D01*
X209763853Y-118213846D01*
X209744038Y-118197747D01*
X206040004Y-114493713D01*
X207649500Y-114493713D01*
X207649500Y-114706286D01*
X207673305Y-114856589D01*
X207682754Y-114916243D01*
X207742864Y-115101243D01*
X207748444Y-115118414D01*
X207844951Y-115307820D01*
X207969890Y-115479786D01*
X208120213Y-115630109D01*
X208292179Y-115755048D01*
X208292181Y-115755049D01*
X208292184Y-115755051D01*
X208481588Y-115851557D01*
X208683757Y-115917246D01*
X208893713Y-115950500D01*
X208893714Y-115950500D01*
X209106286Y-115950500D01*
X209106287Y-115950500D01*
X209316243Y-115917246D01*
X209518412Y-115851557D01*
X209707816Y-115755051D01*
X209800691Y-115687574D01*
X209879786Y-115630109D01*
X209879788Y-115630106D01*
X209879792Y-115630104D01*
X210030104Y-115479792D01*
X210030106Y-115479788D01*
X210030109Y-115479786D01*
X210155048Y-115307820D01*
X210155047Y-115307820D01*
X210155051Y-115307816D01*
X210251557Y-115118412D01*
X210317246Y-114916243D01*
X210350500Y-114706287D01*
X210350500Y-114493713D01*
X210317246Y-114283757D01*
X210251557Y-114081588D01*
X210155051Y-113892184D01*
X210155049Y-113892181D01*
X210155048Y-113892179D01*
X210030109Y-113720213D01*
X209879786Y-113569890D01*
X209707820Y-113444951D01*
X209518414Y-113348444D01*
X209518413Y-113348443D01*
X209518412Y-113348443D01*
X209316243Y-113282754D01*
X209316241Y-113282753D01*
X209316240Y-113282753D01*
X209154957Y-113257208D01*
X209106287Y-113249500D01*
X208893713Y-113249500D01*
X208845042Y-113257208D01*
X208683760Y-113282753D01*
X208481585Y-113348444D01*
X208292179Y-113444951D01*
X208120213Y-113569890D01*
X207969890Y-113720213D01*
X207844951Y-113892179D01*
X207748444Y-114081585D01*
X207682753Y-114283760D01*
X207649500Y-114493713D01*
X206040004Y-114493713D01*
X203967749Y-112421458D01*
X203934264Y-112360135D01*
X203939248Y-112290443D01*
X203981120Y-112234510D01*
X204046584Y-112210093D01*
X204091422Y-112215115D01*
X204390473Y-112305832D01*
X204727801Y-112372931D01*
X205070082Y-112406642D01*
X205070085Y-112406642D01*
X205414017Y-112406642D01*
X205414020Y-112406642D01*
X205756301Y-112372931D01*
X206093629Y-112305832D01*
X206422756Y-112205992D01*
X206740513Y-112074373D01*
X207043838Y-111912242D01*
X207329811Y-111721161D01*
X207595678Y-111502970D01*
X207838879Y-111259769D01*
X208057070Y-110993902D01*
X208248151Y-110707929D01*
X208410282Y-110404604D01*
X208541901Y-110086847D01*
X208641741Y-109757720D01*
X208708840Y-109420392D01*
X208742551Y-109078111D01*
X208742551Y-108734173D01*
X208708840Y-108391892D01*
X208641741Y-108054564D01*
X208541901Y-107725437D01*
X208410282Y-107407680D01*
X208248151Y-107104355D01*
X208057070Y-106818382D01*
X207838879Y-106552515D01*
X207838878Y-106552514D01*
X207838874Y-106552509D01*
X207595683Y-106309318D01*
X207329816Y-106091127D01*
X207329815Y-106091126D01*
X207329811Y-106091123D01*
X207043838Y-105900042D01*
X207043833Y-105900039D01*
X207043826Y-105900035D01*
X206740520Y-105737914D01*
X206740515Y-105737912D01*
X206422757Y-105606292D01*
X206093623Y-105506450D01*
X205756299Y-105439352D01*
X205756300Y-105439352D01*
X205498507Y-105413963D01*
X205414020Y-105405642D01*
X205070082Y-105405642D01*
X204992017Y-105413330D01*
X204727801Y-105439352D01*
X204390478Y-105506450D01*
X204061344Y-105606292D01*
X203743586Y-105737912D01*
X203743581Y-105737914D01*
X203440275Y-105900035D01*
X203440257Y-105900046D01*
X203154299Y-106091117D01*
X203154285Y-106091127D01*
X202888418Y-106309318D01*
X202645227Y-106552509D01*
X202427036Y-106818376D01*
X202427026Y-106818390D01*
X202235955Y-107104348D01*
X202235944Y-107104366D01*
X202073823Y-107407672D01*
X202073821Y-107407677D01*
X201942201Y-107725435D01*
X201842359Y-108054569D01*
X201775261Y-108391892D01*
X201763844Y-108507820D01*
X201741551Y-108734173D01*
X201741551Y-109078111D01*
X201746511Y-109128469D01*
X201775261Y-109420391D01*
X201842359Y-109757714D01*
X201933076Y-110056767D01*
X201933699Y-110126634D01*
X201896451Y-110185747D01*
X201833157Y-110215338D01*
X201763912Y-110206012D01*
X201726734Y-110180443D01*
X195374345Y-103828053D01*
X195374338Y-103828047D01*
X195187099Y-103684374D01*
X195187097Y-103684372D01*
X195187091Y-103684368D01*
X195187086Y-103684365D01*
X195187083Y-103684363D01*
X194982698Y-103566360D01*
X194982682Y-103566352D01*
X194861704Y-103516243D01*
X194764634Y-103476035D01*
X194536651Y-103414947D01*
X194302661Y-103384142D01*
X194302658Y-103384141D01*
X194302652Y-103384141D01*
X194302645Y-103384141D01*
X192081385Y-103384141D01*
X192064740Y-103379253D01*
X192047395Y-103379391D01*
X192031913Y-103369614D01*
X192014346Y-103364456D01*
X192002783Y-103351218D01*
X191988319Y-103342084D01*
X191969003Y-103312545D01*
X191889125Y-103141245D01*
X191872022Y-103104570D01*
X191872014Y-103104554D01*
X191865755Y-103093713D01*
X202049500Y-103093713D01*
X202049500Y-103306286D01*
X202076980Y-103479792D01*
X202082754Y-103516243D01*
X202145001Y-103707820D01*
X202148444Y-103718414D01*
X202244951Y-103907820D01*
X202369890Y-104079786D01*
X202520213Y-104230109D01*
X202692179Y-104355048D01*
X202692181Y-104355049D01*
X202692184Y-104355051D01*
X202881588Y-104451557D01*
X203083757Y-104517246D01*
X203293713Y-104550500D01*
X203293714Y-104550500D01*
X203506286Y-104550500D01*
X203506287Y-104550500D01*
X203716243Y-104517246D01*
X203918412Y-104451557D01*
X204107816Y-104355051D01*
X204129789Y-104339086D01*
X204279786Y-104230109D01*
X204279788Y-104230106D01*
X204279792Y-104230104D01*
X204430104Y-104079792D01*
X204430106Y-104079788D01*
X204430109Y-104079786D01*
X204555048Y-103907820D01*
X204555047Y-103907820D01*
X204555051Y-103907816D01*
X204651557Y-103718412D01*
X204717246Y-103516243D01*
X204750500Y-103306287D01*
X204750500Y-103093713D01*
X206849500Y-103093713D01*
X206849500Y-103306286D01*
X206876980Y-103479792D01*
X206882754Y-103516243D01*
X206945001Y-103707820D01*
X206948444Y-103718414D01*
X207044951Y-103907820D01*
X207169890Y-104079786D01*
X207320213Y-104230109D01*
X207492179Y-104355048D01*
X207492181Y-104355049D01*
X207492184Y-104355051D01*
X207681588Y-104451557D01*
X207883757Y-104517246D01*
X208093713Y-104550500D01*
X208093714Y-104550500D01*
X208306286Y-104550500D01*
X208306287Y-104550500D01*
X208516243Y-104517246D01*
X208718412Y-104451557D01*
X208907816Y-104355051D01*
X208929789Y-104339086D01*
X209079786Y-104230109D01*
X209079788Y-104230106D01*
X209079792Y-104230104D01*
X209230104Y-104079792D01*
X209230106Y-104079788D01*
X209230109Y-104079786D01*
X209355048Y-103907820D01*
X209355047Y-103907820D01*
X209355051Y-103907816D01*
X209451557Y-103718412D01*
X209517246Y-103516243D01*
X209550500Y-103306287D01*
X209550500Y-103093713D01*
X212249500Y-103093713D01*
X212249500Y-103306286D01*
X212276980Y-103479792D01*
X212282754Y-103516243D01*
X212345001Y-103707820D01*
X212348444Y-103718414D01*
X212444951Y-103907820D01*
X212569890Y-104079786D01*
X212720213Y-104230109D01*
X212892179Y-104355048D01*
X212892181Y-104355049D01*
X212892184Y-104355051D01*
X213081588Y-104451557D01*
X213283757Y-104517246D01*
X213493713Y-104550500D01*
X213493714Y-104550500D01*
X213706286Y-104550500D01*
X213706287Y-104550500D01*
X213916243Y-104517246D01*
X214118412Y-104451557D01*
X214307816Y-104355051D01*
X214329789Y-104339086D01*
X214479786Y-104230109D01*
X214479788Y-104230106D01*
X214479792Y-104230104D01*
X214630104Y-104079792D01*
X214630106Y-104079788D01*
X214630109Y-104079786D01*
X214755048Y-103907820D01*
X214755047Y-103907820D01*
X214755051Y-103907816D01*
X214851557Y-103718412D01*
X214917246Y-103516243D01*
X214950500Y-103306287D01*
X214950500Y-103093713D01*
X217049500Y-103093713D01*
X217049500Y-103306286D01*
X217076980Y-103479792D01*
X217082754Y-103516243D01*
X217145001Y-103707820D01*
X217148444Y-103718414D01*
X217244951Y-103907820D01*
X217369890Y-104079786D01*
X217520213Y-104230109D01*
X217692179Y-104355048D01*
X217692181Y-104355049D01*
X217692184Y-104355051D01*
X217881588Y-104451557D01*
X218083757Y-104517246D01*
X218293713Y-104550500D01*
X218293714Y-104550500D01*
X218506286Y-104550500D01*
X218506287Y-104550500D01*
X218716243Y-104517246D01*
X218918412Y-104451557D01*
X219107816Y-104355051D01*
X219129789Y-104339086D01*
X219279786Y-104230109D01*
X219279788Y-104230106D01*
X219279792Y-104230104D01*
X219430104Y-104079792D01*
X219430106Y-104079788D01*
X219430109Y-104079786D01*
X219555048Y-103907820D01*
X219555047Y-103907820D01*
X219555051Y-103907816D01*
X219651557Y-103718412D01*
X219717246Y-103516243D01*
X219750500Y-103306287D01*
X219750500Y-103093713D01*
X219717246Y-102883757D01*
X219651557Y-102681588D01*
X219555051Y-102492184D01*
X219555049Y-102492181D01*
X219555048Y-102492179D01*
X219430109Y-102320213D01*
X219279786Y-102169890D01*
X219107820Y-102044951D01*
X218918414Y-101948444D01*
X218918413Y-101948443D01*
X218918412Y-101948443D01*
X218716243Y-101882754D01*
X218716241Y-101882753D01*
X218716240Y-101882753D01*
X218554957Y-101857208D01*
X218506287Y-101849500D01*
X218293713Y-101849500D01*
X218245042Y-101857208D01*
X218083760Y-101882753D01*
X217881585Y-101948444D01*
X217692179Y-102044951D01*
X217520213Y-102169890D01*
X217369890Y-102320213D01*
X217244951Y-102492179D01*
X217148444Y-102681585D01*
X217082753Y-102883760D01*
X217049500Y-103093713D01*
X214950500Y-103093713D01*
X214917246Y-102883757D01*
X214851557Y-102681588D01*
X214755051Y-102492184D01*
X214755049Y-102492181D01*
X214755048Y-102492179D01*
X214630109Y-102320213D01*
X214479786Y-102169890D01*
X214307820Y-102044951D01*
X214118414Y-101948444D01*
X214118413Y-101948443D01*
X214118412Y-101948443D01*
X213916243Y-101882754D01*
X213916241Y-101882753D01*
X213916240Y-101882753D01*
X213754957Y-101857208D01*
X213706287Y-101849500D01*
X213493713Y-101849500D01*
X213445042Y-101857208D01*
X213283760Y-101882753D01*
X213081585Y-101948444D01*
X212892179Y-102044951D01*
X212720213Y-102169890D01*
X212569890Y-102320213D01*
X212444951Y-102492179D01*
X212348444Y-102681585D01*
X212282753Y-102883760D01*
X212249500Y-103093713D01*
X209550500Y-103093713D01*
X209517246Y-102883757D01*
X209451557Y-102681588D01*
X209355051Y-102492184D01*
X209355049Y-102492181D01*
X209355048Y-102492179D01*
X209230109Y-102320213D01*
X209079786Y-102169890D01*
X208907820Y-102044951D01*
X208718414Y-101948444D01*
X208718413Y-101948443D01*
X208718412Y-101948443D01*
X208516243Y-101882754D01*
X208516241Y-101882753D01*
X208516240Y-101882753D01*
X208354957Y-101857208D01*
X208306287Y-101849500D01*
X208093713Y-101849500D01*
X208045042Y-101857208D01*
X207883760Y-101882753D01*
X207681585Y-101948444D01*
X207492179Y-102044951D01*
X207320213Y-102169890D01*
X207169890Y-102320213D01*
X207044951Y-102492179D01*
X206948444Y-102681585D01*
X206882753Y-102883760D01*
X206849500Y-103093713D01*
X204750500Y-103093713D01*
X204717246Y-102883757D01*
X204651557Y-102681588D01*
X204555051Y-102492184D01*
X204555049Y-102492181D01*
X204555048Y-102492179D01*
X204430109Y-102320213D01*
X204279786Y-102169890D01*
X204107820Y-102044951D01*
X203918414Y-101948444D01*
X203918413Y-101948443D01*
X203918412Y-101948443D01*
X203716243Y-101882754D01*
X203716241Y-101882753D01*
X203716240Y-101882753D01*
X203554957Y-101857208D01*
X203506287Y-101849500D01*
X203293713Y-101849500D01*
X203245042Y-101857208D01*
X203083760Y-101882753D01*
X202881585Y-101948444D01*
X202692179Y-102044951D01*
X202520213Y-102169890D01*
X202369890Y-102320213D01*
X202244951Y-102492179D01*
X202148444Y-102681585D01*
X202082753Y-102883760D01*
X202049500Y-103093713D01*
X191865755Y-103093713D01*
X191859677Y-103083187D01*
X191675522Y-102764220D01*
X191450111Y-102442300D01*
X191450110Y-102442299D01*
X191450106Y-102442293D01*
X191269635Y-102227217D01*
X191197500Y-102141250D01*
X190919613Y-101863363D01*
X190704372Y-101682754D01*
X190618569Y-101610756D01*
X190296649Y-101385345D01*
X190296646Y-101385343D01*
X190296643Y-101385341D01*
X190195527Y-101326961D01*
X189956308Y-101188848D01*
X189956284Y-101188836D01*
X189600143Y-101022765D01*
X189600132Y-101022761D01*
X189600130Y-101022760D01*
X189230838Y-100888348D01*
X188990182Y-100823864D01*
X188851238Y-100786634D01*
X188851227Y-100786632D01*
X188464219Y-100718392D01*
X188072722Y-100684141D01*
X188072718Y-100684141D01*
X187679726Y-100684141D01*
X187679721Y-100684141D01*
X187288226Y-100718392D01*
X187288222Y-100718392D01*
X186901216Y-100786632D01*
X186901205Y-100786634D01*
X186697777Y-100841143D01*
X186521606Y-100888348D01*
X186521603Y-100888349D01*
X186521602Y-100888349D01*
X186152300Y-101022765D01*
X185796159Y-101188836D01*
X185796135Y-101188848D01*
X185455809Y-101385336D01*
X185455794Y-101385345D01*
X185133874Y-101610756D01*
X184832828Y-101863365D01*
X184554946Y-102141247D01*
X184302337Y-102442293D01*
X184076926Y-102764213D01*
X184076917Y-102764228D01*
X183880429Y-103104554D01*
X183880417Y-103104578D01*
X183714346Y-103460719D01*
X183580647Y-103828053D01*
X183579929Y-103830025D01*
X183574160Y-103851555D01*
X183478215Y-104209624D01*
X183478213Y-104209635D01*
X183409973Y-104596641D01*
X183409973Y-104596645D01*
X183375722Y-104988140D01*
X160575681Y-104988140D01*
X159415594Y-103828053D01*
X159415587Y-103828047D01*
X159228348Y-103684374D01*
X159228346Y-103684372D01*
X159228340Y-103684368D01*
X159228335Y-103684365D01*
X159228332Y-103684363D01*
X159023947Y-103566360D01*
X159023931Y-103566352D01*
X158902953Y-103516243D01*
X158805883Y-103476035D01*
X158577900Y-103414947D01*
X158343910Y-103384142D01*
X158343907Y-103384141D01*
X158343901Y-103384141D01*
X158343894Y-103384141D01*
X156363436Y-103384141D01*
X156296397Y-103364456D01*
X156251054Y-103312545D01*
X156154078Y-103104578D01*
X156154065Y-103104554D01*
X156141728Y-103083187D01*
X155957573Y-102764220D01*
X155957565Y-102764209D01*
X155957561Y-102764202D01*
X155814554Y-102559967D01*
X155814552Y-102559965D01*
X155768162Y-102493713D01*
X160649500Y-102493713D01*
X160649500Y-102706286D01*
X160679185Y-102893713D01*
X160682754Y-102916243D01*
X160744503Y-103106287D01*
X160748444Y-103118414D01*
X160844951Y-103307820D01*
X160969890Y-103479786D01*
X161120213Y-103630109D01*
X161292179Y-103755048D01*
X161292181Y-103755049D01*
X161292184Y-103755051D01*
X161481588Y-103851557D01*
X161683757Y-103917246D01*
X161893713Y-103950500D01*
X161893714Y-103950500D01*
X162106286Y-103950500D01*
X162106287Y-103950500D01*
X162316243Y-103917246D01*
X162518412Y-103851557D01*
X162707816Y-103755051D01*
X162758246Y-103718412D01*
X162879786Y-103630109D01*
X162879788Y-103630106D01*
X162879792Y-103630104D01*
X163030104Y-103479792D01*
X163030106Y-103479788D01*
X163030109Y-103479786D01*
X163155048Y-103307820D01*
X163155047Y-103307820D01*
X163155051Y-103307816D01*
X163251557Y-103118412D01*
X163317246Y-102916243D01*
X163350500Y-102706287D01*
X163350500Y-102493713D01*
X165449500Y-102493713D01*
X165449500Y-102706286D01*
X165479185Y-102893713D01*
X165482754Y-102916243D01*
X165544503Y-103106287D01*
X165548444Y-103118414D01*
X165644951Y-103307820D01*
X165769890Y-103479786D01*
X165920213Y-103630109D01*
X166092179Y-103755048D01*
X166092181Y-103755049D01*
X166092184Y-103755051D01*
X166281588Y-103851557D01*
X166483757Y-103917246D01*
X166693713Y-103950500D01*
X166693714Y-103950500D01*
X166906286Y-103950500D01*
X166906287Y-103950500D01*
X167116243Y-103917246D01*
X167318412Y-103851557D01*
X167507816Y-103755051D01*
X167558246Y-103718412D01*
X167679786Y-103630109D01*
X167679788Y-103630106D01*
X167679792Y-103630104D01*
X167830104Y-103479792D01*
X167830106Y-103479788D01*
X167830109Y-103479786D01*
X167955048Y-103307820D01*
X167955047Y-103307820D01*
X167955051Y-103307816D01*
X168051557Y-103118412D01*
X168117246Y-102916243D01*
X168150500Y-102706287D01*
X168150500Y-102493713D01*
X170849500Y-102493713D01*
X170849500Y-102706286D01*
X170879185Y-102893713D01*
X170882754Y-102916243D01*
X170944503Y-103106287D01*
X170948444Y-103118414D01*
X171044951Y-103307820D01*
X171169890Y-103479786D01*
X171320213Y-103630109D01*
X171492179Y-103755048D01*
X171492181Y-103755049D01*
X171492184Y-103755051D01*
X171681588Y-103851557D01*
X171883757Y-103917246D01*
X172093713Y-103950500D01*
X172093714Y-103950500D01*
X172306286Y-103950500D01*
X172306287Y-103950500D01*
X172516243Y-103917246D01*
X172718412Y-103851557D01*
X172907816Y-103755051D01*
X172958246Y-103718412D01*
X173079786Y-103630109D01*
X173079788Y-103630106D01*
X173079792Y-103630104D01*
X173230104Y-103479792D01*
X173230106Y-103479788D01*
X173230109Y-103479786D01*
X173355048Y-103307820D01*
X173355047Y-103307820D01*
X173355051Y-103307816D01*
X173451557Y-103118412D01*
X173517246Y-102916243D01*
X173550500Y-102706287D01*
X173550500Y-102493713D01*
X175649500Y-102493713D01*
X175649500Y-102706286D01*
X175679185Y-102893713D01*
X175682754Y-102916243D01*
X175744503Y-103106287D01*
X175748444Y-103118414D01*
X175844951Y-103307820D01*
X175969890Y-103479786D01*
X176120213Y-103630109D01*
X176292179Y-103755048D01*
X176292181Y-103755049D01*
X176292184Y-103755051D01*
X176481588Y-103851557D01*
X176683757Y-103917246D01*
X176893713Y-103950500D01*
X176893714Y-103950500D01*
X177106286Y-103950500D01*
X177106287Y-103950500D01*
X177316243Y-103917246D01*
X177518412Y-103851557D01*
X177707816Y-103755051D01*
X177758246Y-103718412D01*
X177879786Y-103630109D01*
X177879788Y-103630106D01*
X177879792Y-103630104D01*
X178030104Y-103479792D01*
X178030106Y-103479788D01*
X178030109Y-103479786D01*
X178155048Y-103307820D01*
X178155047Y-103307820D01*
X178155051Y-103307816D01*
X178251557Y-103118412D01*
X178317246Y-102916243D01*
X178350500Y-102706287D01*
X178350500Y-102493713D01*
X178317246Y-102283757D01*
X178251557Y-102081588D01*
X178155051Y-101892184D01*
X178155049Y-101892181D01*
X178155048Y-101892179D01*
X178030109Y-101720213D01*
X177879786Y-101569890D01*
X177707820Y-101444951D01*
X177518414Y-101348444D01*
X177518413Y-101348443D01*
X177518412Y-101348443D01*
X177316243Y-101282754D01*
X177316241Y-101282753D01*
X177316240Y-101282753D01*
X177153785Y-101257023D01*
X177106287Y-101249500D01*
X176893713Y-101249500D01*
X176846215Y-101257023D01*
X176683760Y-101282753D01*
X176481585Y-101348444D01*
X176292179Y-101444951D01*
X176120213Y-101569890D01*
X175969890Y-101720213D01*
X175844951Y-101892179D01*
X175748444Y-102081585D01*
X175682753Y-102283760D01*
X175649500Y-102493713D01*
X173550500Y-102493713D01*
X173517246Y-102283757D01*
X173451557Y-102081588D01*
X173355051Y-101892184D01*
X173355049Y-101892181D01*
X173355048Y-101892179D01*
X173230109Y-101720213D01*
X173079786Y-101569890D01*
X172907820Y-101444951D01*
X172718414Y-101348444D01*
X172718413Y-101348443D01*
X172718412Y-101348443D01*
X172516243Y-101282754D01*
X172516241Y-101282753D01*
X172516240Y-101282753D01*
X172353785Y-101257023D01*
X172306287Y-101249500D01*
X172093713Y-101249500D01*
X172046215Y-101257023D01*
X171883760Y-101282753D01*
X171681585Y-101348444D01*
X171492179Y-101444951D01*
X171320213Y-101569890D01*
X171169890Y-101720213D01*
X171044951Y-101892179D01*
X170948444Y-102081585D01*
X170882753Y-102283760D01*
X170849500Y-102493713D01*
X168150500Y-102493713D01*
X168117246Y-102283757D01*
X168051557Y-102081588D01*
X167955051Y-101892184D01*
X167955049Y-101892181D01*
X167955048Y-101892179D01*
X167830109Y-101720213D01*
X167679786Y-101569890D01*
X167507820Y-101444951D01*
X167318414Y-101348444D01*
X167318413Y-101348443D01*
X167318412Y-101348443D01*
X167116243Y-101282754D01*
X167116241Y-101282753D01*
X167116240Y-101282753D01*
X166953785Y-101257023D01*
X166906287Y-101249500D01*
X166693713Y-101249500D01*
X166646215Y-101257023D01*
X166483760Y-101282753D01*
X166281585Y-101348444D01*
X166092179Y-101444951D01*
X165920213Y-101569890D01*
X165769890Y-101720213D01*
X165644951Y-101892179D01*
X165548444Y-102081585D01*
X165482753Y-102283760D01*
X165449500Y-102493713D01*
X163350500Y-102493713D01*
X163317246Y-102283757D01*
X163251557Y-102081588D01*
X163155051Y-101892184D01*
X163155049Y-101892181D01*
X163155048Y-101892179D01*
X163030109Y-101720213D01*
X162879786Y-101569890D01*
X162707820Y-101444951D01*
X162518414Y-101348444D01*
X162518413Y-101348443D01*
X162518412Y-101348443D01*
X162316243Y-101282754D01*
X162316241Y-101282753D01*
X162316240Y-101282753D01*
X162153785Y-101257023D01*
X162106287Y-101249500D01*
X161893713Y-101249500D01*
X161846215Y-101257023D01*
X161683760Y-101282753D01*
X161481585Y-101348444D01*
X161292179Y-101444951D01*
X161120213Y-101569890D01*
X160969890Y-101720213D01*
X160844951Y-101892179D01*
X160748444Y-102081585D01*
X160682753Y-102283760D01*
X160649500Y-102493713D01*
X155768162Y-102493713D01*
X155732157Y-102442293D01*
X155551686Y-102227217D01*
X155479551Y-102141250D01*
X155201664Y-101863363D01*
X154986423Y-101682754D01*
X154900620Y-101610756D01*
X154578700Y-101385345D01*
X154578697Y-101385343D01*
X154578694Y-101385341D01*
X154477578Y-101326961D01*
X154238359Y-101188848D01*
X154238335Y-101188836D01*
X153882194Y-101022765D01*
X153882183Y-101022761D01*
X153882181Y-101022760D01*
X153512889Y-100888348D01*
X153272233Y-100823864D01*
X153133289Y-100786634D01*
X153133278Y-100786632D01*
X152746270Y-100718392D01*
X152354773Y-100684141D01*
X152354769Y-100684141D01*
X151961777Y-100684141D01*
X151961772Y-100684141D01*
X151570277Y-100718392D01*
X151570273Y-100718392D01*
X151183267Y-100786632D01*
X151183256Y-100786634D01*
X150979828Y-100841143D01*
X150803657Y-100888348D01*
X150803654Y-100888349D01*
X150803653Y-100888349D01*
X150434351Y-101022765D01*
X150078210Y-101188836D01*
X150078186Y-101188848D01*
X149737860Y-101385336D01*
X149737845Y-101385345D01*
X149415925Y-101610756D01*
X149114879Y-101863365D01*
X148836997Y-102141247D01*
X148584388Y-102442293D01*
X148358977Y-102764213D01*
X148358968Y-102764228D01*
X148162480Y-103104554D01*
X148162468Y-103104578D01*
X147996397Y-103460719D01*
X147862698Y-103828053D01*
X147861980Y-103830025D01*
X147856211Y-103851555D01*
X147760266Y-104209624D01*
X147760264Y-104209635D01*
X147692024Y-104596641D01*
X147692024Y-104596645D01*
X147657773Y-104988140D01*
X118526810Y-104988140D01*
X118526810Y-102893713D01*
X122449500Y-102893713D01*
X122449500Y-103106287D01*
X122482754Y-103316243D01*
X122547738Y-103516243D01*
X122548444Y-103518414D01*
X122644951Y-103707820D01*
X122769890Y-103879786D01*
X122920213Y-104030109D01*
X123092179Y-104155048D01*
X123092181Y-104155049D01*
X123092184Y-104155051D01*
X123281588Y-104251557D01*
X123483757Y-104317246D01*
X123693713Y-104350500D01*
X123693714Y-104350500D01*
X123906286Y-104350500D01*
X123906287Y-104350500D01*
X124116243Y-104317246D01*
X124318412Y-104251557D01*
X124507816Y-104155051D01*
X124611402Y-104079792D01*
X124679786Y-104030109D01*
X124679788Y-104030106D01*
X124679792Y-104030104D01*
X124830104Y-103879792D01*
X124830106Y-103879788D01*
X124830109Y-103879786D01*
X124955048Y-103707820D01*
X124955047Y-103707820D01*
X124955051Y-103707816D01*
X125051557Y-103518412D01*
X125117246Y-103316243D01*
X125150500Y-103106287D01*
X125150500Y-102893713D01*
X125117246Y-102683757D01*
X125051557Y-102481588D01*
X124955051Y-102292184D01*
X124955049Y-102292181D01*
X124955048Y-102292179D01*
X124830109Y-102120213D01*
X124679786Y-101969890D01*
X124507820Y-101844951D01*
X124318414Y-101748444D01*
X124318413Y-101748443D01*
X124318412Y-101748443D01*
X124116243Y-101682754D01*
X124116241Y-101682753D01*
X124116240Y-101682753D01*
X123919274Y-101651557D01*
X123906287Y-101649500D01*
X123693713Y-101649500D01*
X123680726Y-101651557D01*
X123483760Y-101682753D01*
X123281585Y-101748444D01*
X123092179Y-101844951D01*
X122920213Y-101969890D01*
X122769890Y-102120213D01*
X122644951Y-102292179D01*
X122548444Y-102481585D01*
X122482753Y-102683760D01*
X122451077Y-102883757D01*
X122449500Y-102893713D01*
X118526810Y-102893713D01*
X118526810Y-100293713D01*
X124449500Y-100293713D01*
X124449500Y-100506286D01*
X124477669Y-100684141D01*
X124482754Y-100716243D01*
X124483452Y-100718392D01*
X124548444Y-100918414D01*
X124644951Y-101107820D01*
X124769890Y-101279786D01*
X124920213Y-101430109D01*
X125092179Y-101555048D01*
X125092181Y-101555049D01*
X125092184Y-101555051D01*
X125281588Y-101651557D01*
X125483757Y-101717246D01*
X125693713Y-101750500D01*
X125693714Y-101750500D01*
X125906286Y-101750500D01*
X125906287Y-101750500D01*
X126116243Y-101717246D01*
X126318412Y-101651557D01*
X126507816Y-101555051D01*
X126659357Y-101444951D01*
X126679786Y-101430109D01*
X126679788Y-101430106D01*
X126679792Y-101430104D01*
X126830104Y-101279792D01*
X126830106Y-101279788D01*
X126830109Y-101279786D01*
X126955048Y-101107820D01*
X126955047Y-101107820D01*
X126955051Y-101107816D01*
X127051557Y-100918412D01*
X127117246Y-100716243D01*
X127150500Y-100506287D01*
X127150500Y-100293713D01*
X127117246Y-100083757D01*
X127051557Y-99881588D01*
X126955051Y-99692184D01*
X126955049Y-99692181D01*
X126955048Y-99692179D01*
X126830109Y-99520213D01*
X126679786Y-99369890D01*
X126507820Y-99244951D01*
X126318414Y-99148444D01*
X126318413Y-99148443D01*
X126318412Y-99148443D01*
X126116243Y-99082754D01*
X126116241Y-99082753D01*
X126116240Y-99082753D01*
X125939844Y-99054815D01*
X125906287Y-99049500D01*
X125693713Y-99049500D01*
X125660156Y-99054815D01*
X125483760Y-99082753D01*
X125281585Y-99148444D01*
X125092179Y-99244951D01*
X124920213Y-99369890D01*
X124769890Y-99520213D01*
X124644951Y-99692179D01*
X124548444Y-99881585D01*
X124482753Y-100083760D01*
X124449500Y-100293713D01*
X118526810Y-100293713D01*
X118526810Y-90788713D01*
X119889500Y-90788713D01*
X119889500Y-91001287D01*
X119891845Y-91016091D01*
X119918978Y-91187406D01*
X119922754Y-91211243D01*
X119982977Y-91396590D01*
X119988444Y-91413414D01*
X120084951Y-91602820D01*
X120209890Y-91774786D01*
X120360213Y-91925109D01*
X120532179Y-92050048D01*
X120532181Y-92050049D01*
X120532184Y-92050051D01*
X120721588Y-92146557D01*
X120923757Y-92212246D01*
X121133713Y-92245500D01*
X121133714Y-92245500D01*
X121346286Y-92245500D01*
X121346287Y-92245500D01*
X121556243Y-92212246D01*
X121758412Y-92146557D01*
X121947816Y-92050051D01*
X122058141Y-91969896D01*
X122119786Y-91925109D01*
X122119788Y-91925106D01*
X122119792Y-91925104D01*
X122152930Y-91891966D01*
X131129500Y-91891966D01*
X131129500Y-93058028D01*
X131129501Y-93058034D01*
X131140113Y-93177415D01*
X131174320Y-93296965D01*
X131173837Y-93366833D01*
X131173037Y-93369389D01*
X131167062Y-93387777D01*
X131141290Y-93550500D01*
X131129500Y-93624941D01*
X131129500Y-93865059D01*
X131137607Y-93916243D01*
X131167063Y-94102223D01*
X131167063Y-94102226D01*
X131241262Y-94330585D01*
X131242077Y-94332553D01*
X131242163Y-94333360D01*
X131242769Y-94335223D01*
X131242377Y-94335350D01*
X131249542Y-94402023D01*
X131242077Y-94427447D01*
X131241262Y-94429414D01*
X131167063Y-94657773D01*
X131167063Y-94657776D01*
X131129500Y-94894941D01*
X131129500Y-95135058D01*
X131167063Y-95372222D01*
X131241265Y-95600593D01*
X131327311Y-95769465D01*
X131350276Y-95814536D01*
X131491414Y-96008796D01*
X131661204Y-96178586D01*
X131855464Y-96319724D01*
X132069411Y-96428736D01*
X132125298Y-96446894D01*
X132182973Y-96486331D01*
X132210172Y-96550689D01*
X132198258Y-96619536D01*
X132163332Y-96661034D01*
X132163921Y-96661724D01*
X132160209Y-96664894D01*
X132009890Y-96815213D01*
X131884951Y-96987179D01*
X131788444Y-97176585D01*
X131722753Y-97378760D01*
X131689500Y-97588713D01*
X131689500Y-97801286D01*
X131721429Y-98002882D01*
X131722754Y-98011243D01*
X131769161Y-98154069D01*
X131788444Y-98213414D01*
X131884951Y-98402820D01*
X132009890Y-98574786D01*
X132160213Y-98725109D01*
X132332179Y-98850048D01*
X132332181Y-98850049D01*
X132332184Y-98850051D01*
X132521588Y-98946557D01*
X132687680Y-99000523D01*
X132745355Y-99039960D01*
X132772553Y-99104319D01*
X132760638Y-99173165D01*
X132713394Y-99224641D01*
X132705656Y-99228938D01*
X132575468Y-99295272D01*
X132381201Y-99436416D01*
X132211416Y-99606201D01*
X132070276Y-99800463D01*
X131961265Y-100014406D01*
X131903559Y-100192008D01*
X131887063Y-100242778D01*
X131849500Y-100479941D01*
X131849500Y-100720059D01*
X131868281Y-100838640D01*
X131887063Y-100957223D01*
X131887063Y-100957226D01*
X131961262Y-101185585D01*
X131962077Y-101187553D01*
X131962163Y-101188360D01*
X131962769Y-101190223D01*
X131962377Y-101190350D01*
X131969542Y-101257023D01*
X131962077Y-101282447D01*
X131961262Y-101284414D01*
X131887063Y-101512773D01*
X131887063Y-101512776D01*
X131849500Y-101749941D01*
X131849500Y-101990058D01*
X131887063Y-102227223D01*
X131887063Y-102227226D01*
X131893035Y-102245604D01*
X131895030Y-102315445D01*
X131894320Y-102318032D01*
X131860114Y-102437579D01*
X131860113Y-102437586D01*
X131849500Y-102556966D01*
X131849500Y-103723028D01*
X131849501Y-103723034D01*
X131860113Y-103842415D01*
X131916089Y-104038045D01*
X131916090Y-104038048D01*
X131916091Y-104038049D01*
X132010302Y-104218407D01*
X132010304Y-104218409D01*
X132138890Y-104376109D01*
X132231418Y-104451555D01*
X132296593Y-104504698D01*
X132476951Y-104598909D01*
X132672582Y-104654886D01*
X132791963Y-104665500D01*
X134408036Y-104665499D01*
X134527418Y-104654886D01*
X134723049Y-104598909D01*
X134903407Y-104504698D01*
X135061109Y-104376109D01*
X135189698Y-104218407D01*
X135283909Y-104038049D01*
X135339886Y-103842418D01*
X135350500Y-103723037D01*
X135350499Y-102556964D01*
X135339886Y-102437582D01*
X135305678Y-102318031D01*
X135306161Y-102248166D01*
X135306940Y-102245675D01*
X135312937Y-102227222D01*
X135350500Y-101990059D01*
X135350500Y-101749941D01*
X135312937Y-101512778D01*
X135238736Y-101284411D01*
X135238729Y-101284398D01*
X135237928Y-101282462D01*
X135237841Y-101281660D01*
X135237230Y-101279778D01*
X135237625Y-101279649D01*
X135230453Y-101212993D01*
X135237928Y-101187538D01*
X135238727Y-101185605D01*
X135238736Y-101185589D01*
X135312937Y-100957222D01*
X135350500Y-100720059D01*
X135350500Y-100479941D01*
X135312937Y-100242778D01*
X135238736Y-100014411D01*
X135238734Y-100014408D01*
X135238734Y-100014406D01*
X135129723Y-99800463D01*
X135108311Y-99770992D01*
X134988586Y-99606204D01*
X134818796Y-99436414D01*
X134624536Y-99295276D01*
X134624528Y-99295272D01*
X134410593Y-99186265D01*
X134182222Y-99112063D01*
X134133328Y-99104319D01*
X133945059Y-99074500D01*
X133820522Y-99074500D01*
X133753483Y-99054815D01*
X133707728Y-99002011D01*
X133697784Y-98932853D01*
X133726809Y-98869297D01*
X133747637Y-98850182D01*
X133919785Y-98725109D01*
X133919783Y-98725109D01*
X133919792Y-98725104D01*
X134070104Y-98574792D01*
X134070106Y-98574788D01*
X134070109Y-98574786D01*
X134195048Y-98402820D01*
X134195047Y-98402820D01*
X134195051Y-98402816D01*
X134291557Y-98213412D01*
X134357246Y-98011243D01*
X134390500Y-97801287D01*
X134390500Y-97588713D01*
X134357246Y-97378757D01*
X134291557Y-97176588D01*
X134195051Y-96987184D01*
X134195049Y-96987181D01*
X134195048Y-96987179D01*
X134070109Y-96815213D01*
X133919790Y-96664894D01*
X133919785Y-96664890D01*
X133797958Y-96576378D01*
X133755292Y-96521049D01*
X133749313Y-96451435D01*
X133781918Y-96389640D01*
X133814546Y-96365576D01*
X133904536Y-96319724D01*
X134098796Y-96178586D01*
X134268586Y-96008796D01*
X134409724Y-95814536D01*
X134518736Y-95600589D01*
X134592937Y-95372222D01*
X134630500Y-95135059D01*
X134630500Y-94894941D01*
X134592937Y-94657778D01*
X134518736Y-94429411D01*
X134518729Y-94429398D01*
X134517928Y-94427462D01*
X134517841Y-94426660D01*
X134517230Y-94424778D01*
X134517625Y-94424649D01*
X134510453Y-94357993D01*
X134517928Y-94332538D01*
X134518727Y-94330605D01*
X134518736Y-94330589D01*
X134592937Y-94102222D01*
X134630500Y-93865059D01*
X134630500Y-93624941D01*
X134592937Y-93387778D01*
X134586963Y-93369395D01*
X134584967Y-93299556D01*
X134585672Y-93296985D01*
X134619886Y-93177418D01*
X134630500Y-93058037D01*
X134630499Y-91891964D01*
X134619886Y-91772582D01*
X134563909Y-91576951D01*
X134469698Y-91396593D01*
X134403097Y-91314913D01*
X134341109Y-91238890D01*
X134183409Y-91110304D01*
X134183410Y-91110304D01*
X134183407Y-91110302D01*
X134003049Y-91016091D01*
X134003048Y-91016090D01*
X134003045Y-91016089D01*
X133885829Y-90982550D01*
X133807418Y-90960114D01*
X133807415Y-90960113D01*
X133807413Y-90960113D01*
X133741102Y-90954217D01*
X133688037Y-90949500D01*
X133688032Y-90949500D01*
X132071971Y-90949500D01*
X132071965Y-90949500D01*
X132071964Y-90949501D01*
X132060316Y-90950536D01*
X131952584Y-90960113D01*
X131756954Y-91016089D01*
X131701705Y-91044949D01*
X131576593Y-91110302D01*
X131576591Y-91110303D01*
X131576590Y-91110304D01*
X131418890Y-91238890D01*
X131290304Y-91396590D01*
X131290302Y-91396593D01*
X131273421Y-91428910D01*
X131196089Y-91576954D01*
X131140114Y-91772583D01*
X131140113Y-91772586D01*
X131129500Y-91891966D01*
X122152930Y-91891966D01*
X122270104Y-91774792D01*
X122270106Y-91774788D01*
X122270109Y-91774786D01*
X122395048Y-91602820D01*
X122395047Y-91602820D01*
X122395051Y-91602816D01*
X122491557Y-91413412D01*
X122557246Y-91211243D01*
X122590500Y-91001287D01*
X122590500Y-90788713D01*
X122557246Y-90578757D01*
X122491557Y-90376588D01*
X122395051Y-90187184D01*
X122395049Y-90187181D01*
X122395048Y-90187179D01*
X122270109Y-90015213D01*
X122119786Y-89864890D01*
X121947820Y-89739951D01*
X121758414Y-89643444D01*
X121758413Y-89643443D01*
X121758412Y-89643443D01*
X121556243Y-89577754D01*
X121556241Y-89577753D01*
X121556240Y-89577753D01*
X121394957Y-89552208D01*
X121346287Y-89544500D01*
X121133713Y-89544500D01*
X121085042Y-89552208D01*
X120923760Y-89577753D01*
X120721585Y-89643444D01*
X120532179Y-89739951D01*
X120360213Y-89864890D01*
X120209890Y-90015213D01*
X120084951Y-90187179D01*
X119988444Y-90376585D01*
X119922753Y-90578760D01*
X119902313Y-90707816D01*
X119889500Y-90788713D01*
X118526810Y-90788713D01*
X118526810Y-87893713D01*
X126649500Y-87893713D01*
X126649500Y-88106286D01*
X126682753Y-88316239D01*
X126748444Y-88518414D01*
X126844951Y-88707820D01*
X126969890Y-88879786D01*
X127120213Y-89030109D01*
X127292179Y-89155048D01*
X127292181Y-89155049D01*
X127292184Y-89155051D01*
X127481588Y-89251557D01*
X127660455Y-89309674D01*
X127718130Y-89349112D01*
X127745328Y-89413470D01*
X127733413Y-89482317D01*
X127709818Y-89515286D01*
X127609889Y-89615215D01*
X127484951Y-89787179D01*
X127388444Y-89976585D01*
X127322753Y-90178760D01*
X127289500Y-90388713D01*
X127289500Y-90601286D01*
X127319993Y-90793816D01*
X127322754Y-90811243D01*
X127384503Y-91001287D01*
X127388444Y-91013414D01*
X127484951Y-91202820D01*
X127609890Y-91374786D01*
X127760213Y-91525109D01*
X127932179Y-91650048D01*
X127932181Y-91650049D01*
X127932184Y-91650051D01*
X128121588Y-91746557D01*
X128323757Y-91812246D01*
X128533713Y-91845500D01*
X128533714Y-91845500D01*
X128746286Y-91845500D01*
X128746287Y-91845500D01*
X128956243Y-91812246D01*
X129158412Y-91746557D01*
X129347816Y-91650051D01*
X129369789Y-91634086D01*
X129519786Y-91525109D01*
X129519788Y-91525106D01*
X129519792Y-91525104D01*
X129670104Y-91374792D01*
X129670106Y-91374788D01*
X129670109Y-91374786D01*
X129795048Y-91202820D01*
X129795047Y-91202820D01*
X129795051Y-91202816D01*
X129891557Y-91013412D01*
X129957246Y-90811243D01*
X129990500Y-90601287D01*
X129990500Y-90388713D01*
X129957246Y-90178757D01*
X129891557Y-89976588D01*
X129891554Y-89976582D01*
X129875533Y-89945137D01*
X129875532Y-89945136D01*
X129849330Y-89893713D01*
X134449500Y-89893713D01*
X134449500Y-90106287D01*
X134482754Y-90316243D01*
X134504946Y-90384544D01*
X134548444Y-90518414D01*
X134644951Y-90707820D01*
X134769890Y-90879786D01*
X134920213Y-91030109D01*
X135092179Y-91155048D01*
X135092181Y-91155049D01*
X135092184Y-91155051D01*
X135281588Y-91251557D01*
X135483757Y-91317246D01*
X135693713Y-91350500D01*
X135693714Y-91350500D01*
X135906286Y-91350500D01*
X135906287Y-91350500D01*
X136116243Y-91317246D01*
X136318412Y-91251557D01*
X136507816Y-91155051D01*
X136529789Y-91139086D01*
X136679786Y-91030109D01*
X136679788Y-91030106D01*
X136679792Y-91030104D01*
X136830104Y-90879792D01*
X136830106Y-90879788D01*
X136830109Y-90879786D01*
X136955048Y-90707820D01*
X136955047Y-90707820D01*
X136955051Y-90707816D01*
X137051557Y-90518412D01*
X137117246Y-90316243D01*
X137150500Y-90106287D01*
X137150500Y-89893713D01*
X137117246Y-89683757D01*
X137051557Y-89481588D01*
X136955051Y-89292184D01*
X136955049Y-89292181D01*
X136955048Y-89292179D01*
X136830109Y-89120213D01*
X136679786Y-88969890D01*
X136507820Y-88844951D01*
X136318414Y-88748444D01*
X136318413Y-88748443D01*
X136318412Y-88748443D01*
X136116243Y-88682754D01*
X136116241Y-88682753D01*
X136116240Y-88682753D01*
X135954957Y-88657208D01*
X135906287Y-88649500D01*
X135693713Y-88649500D01*
X135645042Y-88657208D01*
X135483760Y-88682753D01*
X135281585Y-88748444D01*
X135092179Y-88844951D01*
X134920213Y-88969890D01*
X134769890Y-89120213D01*
X134644951Y-89292179D01*
X134548444Y-89481585D01*
X134482753Y-89683760D01*
X134455519Y-89855713D01*
X134449500Y-89893713D01*
X129849330Y-89893713D01*
X129829968Y-89855713D01*
X129795051Y-89787184D01*
X129787023Y-89776134D01*
X129670109Y-89615213D01*
X129519786Y-89464890D01*
X129347820Y-89339951D01*
X129158416Y-89243444D01*
X128979544Y-89185325D01*
X128921869Y-89145887D01*
X128894671Y-89081528D01*
X128906586Y-89012682D01*
X128930176Y-88979719D01*
X129030104Y-88879792D01*
X129155051Y-88707816D01*
X129251557Y-88518412D01*
X129317246Y-88316243D01*
X129350500Y-88106287D01*
X129350500Y-87893713D01*
X129317246Y-87683757D01*
X129251557Y-87481588D01*
X129155051Y-87292184D01*
X129155049Y-87292181D01*
X129155048Y-87292179D01*
X129030109Y-87120213D01*
X128879786Y-86969890D01*
X128707820Y-86844951D01*
X128518414Y-86748444D01*
X128518413Y-86748443D01*
X128518412Y-86748443D01*
X128316243Y-86682754D01*
X128316241Y-86682753D01*
X128316240Y-86682753D01*
X128154957Y-86657208D01*
X128106287Y-86649500D01*
X127893713Y-86649500D01*
X127845042Y-86657208D01*
X127683760Y-86682753D01*
X127481585Y-86748444D01*
X127292179Y-86844951D01*
X127120213Y-86969890D01*
X126969890Y-87120213D01*
X126844951Y-87292179D01*
X126748444Y-87481585D01*
X126682753Y-87683760D01*
X126649500Y-87893713D01*
X118526810Y-87893713D01*
X118526810Y-85493713D01*
X124049500Y-85493713D01*
X124049500Y-85706287D01*
X124082754Y-85916243D01*
X124137693Y-86085328D01*
X124148444Y-86118414D01*
X124244951Y-86307820D01*
X124369890Y-86479786D01*
X124520213Y-86630109D01*
X124692179Y-86755048D01*
X124692181Y-86755049D01*
X124692184Y-86755051D01*
X124881588Y-86851557D01*
X125083757Y-86917246D01*
X125293713Y-86950500D01*
X125293714Y-86950500D01*
X125506286Y-86950500D01*
X125506287Y-86950500D01*
X125716243Y-86917246D01*
X125918412Y-86851557D01*
X126107816Y-86755051D01*
X126207325Y-86682754D01*
X126279786Y-86630109D01*
X126279788Y-86630106D01*
X126279792Y-86630104D01*
X126430104Y-86479792D01*
X126430106Y-86479788D01*
X126430109Y-86479786D01*
X126555048Y-86307820D01*
X126555047Y-86307820D01*
X126555051Y-86307816D01*
X126651557Y-86118412D01*
X126717246Y-85916243D01*
X126750500Y-85706287D01*
X126750500Y-85493713D01*
X126717246Y-85283757D01*
X126651557Y-85081588D01*
X126555051Y-84892184D01*
X126555049Y-84892181D01*
X126555048Y-84892179D01*
X126430109Y-84720213D01*
X126279786Y-84569890D01*
X126107820Y-84444951D01*
X125918414Y-84348444D01*
X125918413Y-84348443D01*
X125918412Y-84348443D01*
X125716243Y-84282754D01*
X125716241Y-84282753D01*
X125716240Y-84282753D01*
X125554957Y-84257208D01*
X125506287Y-84249500D01*
X125293713Y-84249500D01*
X125245042Y-84257208D01*
X125083760Y-84282753D01*
X124881585Y-84348444D01*
X124692179Y-84444951D01*
X124520213Y-84569890D01*
X124369890Y-84720213D01*
X124244951Y-84892179D01*
X124148444Y-85081585D01*
X124082753Y-85283760D01*
X124049500Y-85493713D01*
X118526810Y-85493713D01*
X118526810Y-81204599D01*
X118546495Y-81137560D01*
X118599299Y-81091805D01*
X118650804Y-81080599D01*
X121025499Y-81080533D01*
X121092537Y-81100216D01*
X121138293Y-81153018D01*
X121149500Y-81204533D01*
X121149500Y-81704053D01*
X121149501Y-81704069D01*
X121189717Y-82009542D01*
X121269464Y-82307162D01*
X121387376Y-82591826D01*
X121387381Y-82591837D01*
X121399999Y-82613691D01*
X121541438Y-82858670D01*
X121541440Y-82858673D01*
X121541441Y-82858674D01*
X121729007Y-83103115D01*
X121729013Y-83103122D01*
X121946877Y-83320986D01*
X121946883Y-83320991D01*
X122191330Y-83508562D01*
X122337997Y-83593240D01*
X122458162Y-83662618D01*
X122458167Y-83662620D01*
X122458170Y-83662622D01*
X122742836Y-83780535D01*
X123040456Y-83860282D01*
X123345940Y-83900500D01*
X123345947Y-83900500D01*
X123654053Y-83900500D01*
X123654060Y-83900500D01*
X123959544Y-83860282D01*
X124257164Y-83780535D01*
X124541830Y-83662622D01*
X124808670Y-83508562D01*
X125053117Y-83320991D01*
X125270991Y-83103117D01*
X125458562Y-82858670D01*
X125492613Y-82799692D01*
X125543179Y-82751477D01*
X125611786Y-82738253D01*
X125676651Y-82764221D01*
X125707387Y-82799692D01*
X125741437Y-82858669D01*
X125929007Y-83103115D01*
X125929013Y-83103122D01*
X126146877Y-83320986D01*
X126146883Y-83320991D01*
X126391330Y-83508562D01*
X126537997Y-83593240D01*
X126658162Y-83662618D01*
X126658167Y-83662620D01*
X126658170Y-83662622D01*
X126942836Y-83780535D01*
X127240456Y-83860282D01*
X127545940Y-83900500D01*
X127545947Y-83900500D01*
X127854053Y-83900500D01*
X127854060Y-83900500D01*
X128159544Y-83860282D01*
X128457164Y-83780535D01*
X128741830Y-83662622D01*
X129008670Y-83508562D01*
X129253117Y-83320991D01*
X129470991Y-83103117D01*
X129658562Y-82858670D01*
X129812622Y-82591830D01*
X129930535Y-82307164D01*
X130010282Y-82009544D01*
X130050500Y-81704060D01*
X130050500Y-81204278D01*
X130070185Y-81137239D01*
X130122989Y-81091484D01*
X130174490Y-81080279D01*
X137525501Y-81080075D01*
X137592537Y-81099757D01*
G37*
%TD.AperFunction*%
%TD*%
%TA.AperFunction,Conductor*%
%TO.N,GND*%
G36*
X147208034Y-68120185D02*
G01*
X147253789Y-68172989D01*
X147263733Y-68242147D01*
X147246723Y-68289290D01*
X147244947Y-68292188D01*
X147148444Y-68481585D01*
X147082753Y-68683760D01*
X147049500Y-68893713D01*
X147049500Y-69106286D01*
X147082754Y-69316244D01*
X147130009Y-69461682D01*
X147132004Y-69531524D01*
X147130009Y-69538318D01*
X147082754Y-69683755D01*
X147049500Y-69893713D01*
X147049500Y-70106286D01*
X147082754Y-70316244D01*
X147130009Y-70461682D01*
X147132004Y-70531524D01*
X147130009Y-70538318D01*
X147082754Y-70683755D01*
X147049500Y-70893713D01*
X147049500Y-71106286D01*
X147082754Y-71316244D01*
X147130009Y-71461682D01*
X147132004Y-71531524D01*
X147130009Y-71538318D01*
X147082754Y-71683755D01*
X147049500Y-71893713D01*
X147049500Y-72106286D01*
X147082754Y-72316244D01*
X147130009Y-72461682D01*
X147132004Y-72531524D01*
X147130009Y-72538318D01*
X147082754Y-72683755D01*
X147065684Y-72791530D01*
X147049500Y-72893713D01*
X147049500Y-73106287D01*
X147058184Y-73161114D01*
X147078411Y-73288826D01*
X147082754Y-73316243D01*
X147119765Y-73430152D01*
X147148444Y-73518414D01*
X147244951Y-73707820D01*
X147369890Y-73879786D01*
X147520213Y-74030109D01*
X147692179Y-74155048D01*
X147692181Y-74155049D01*
X147692184Y-74155051D01*
X147881588Y-74251557D01*
X148083757Y-74317246D01*
X148293713Y-74350500D01*
X148293714Y-74350500D01*
X148506286Y-74350500D01*
X148506287Y-74350500D01*
X148716243Y-74317246D01*
X148918412Y-74251557D01*
X149107816Y-74155051D01*
X149129789Y-74139086D01*
X149279786Y-74030109D01*
X149279788Y-74030106D01*
X149279792Y-74030104D01*
X149430104Y-73879792D01*
X149430106Y-73879788D01*
X149430109Y-73879786D01*
X149555048Y-73707820D01*
X149555047Y-73707820D01*
X149555051Y-73707816D01*
X149651557Y-73518412D01*
X149697477Y-73377084D01*
X149736912Y-73319413D01*
X149777082Y-73297477D01*
X149918412Y-73251557D01*
X150107816Y-73155051D01*
X150171269Y-73108950D01*
X150279786Y-73030109D01*
X150279788Y-73030106D01*
X150279792Y-73030104D01*
X150430104Y-72879792D01*
X150430106Y-72879788D01*
X150430109Y-72879786D01*
X150555048Y-72707820D01*
X150555047Y-72707820D01*
X150555051Y-72707816D01*
X150651557Y-72518412D01*
X150697476Y-72377086D01*
X150700562Y-72372573D01*
X150701186Y-72367139D01*
X150720072Y-72344041D01*
X150736912Y-72319414D01*
X150742869Y-72316160D01*
X150745414Y-72313049D01*
X150777085Y-72297476D01*
X150861683Y-72269988D01*
X150931521Y-72267993D01*
X150938311Y-72269987D01*
X151022911Y-72297476D01*
X151080586Y-72336913D01*
X151102522Y-72377086D01*
X151113782Y-72411738D01*
X151148444Y-72518416D01*
X151244951Y-72707820D01*
X151369890Y-72879786D01*
X151520213Y-73030109D01*
X151692179Y-73155048D01*
X151692181Y-73155049D01*
X151692184Y-73155051D01*
X151881588Y-73251557D01*
X152083757Y-73317246D01*
X152293713Y-73350500D01*
X152293714Y-73350500D01*
X152506286Y-73350500D01*
X152506287Y-73350500D01*
X152716243Y-73317246D01*
X152918412Y-73251557D01*
X153107816Y-73155051D01*
X153171269Y-73108950D01*
X153279786Y-73030109D01*
X153279788Y-73030106D01*
X153279792Y-73030104D01*
X153430104Y-72879792D01*
X153430106Y-72879788D01*
X153430109Y-72879786D01*
X153555048Y-72707820D01*
X153555047Y-72707820D01*
X153555051Y-72707816D01*
X153651557Y-72518412D01*
X153717246Y-72316243D01*
X153750500Y-72106287D01*
X153750500Y-71893713D01*
X153717246Y-71683757D01*
X153669988Y-71538316D01*
X153667994Y-71468477D01*
X153669989Y-71461682D01*
X153717246Y-71316243D01*
X153750500Y-71106287D01*
X153750500Y-70893713D01*
X153717246Y-70683757D01*
X153669988Y-70538316D01*
X153667994Y-70468477D01*
X153669989Y-70461682D01*
X153717246Y-70316243D01*
X153750500Y-70106287D01*
X153750500Y-69893713D01*
X153717246Y-69683757D01*
X153669988Y-69538316D01*
X153667994Y-69468477D01*
X153669989Y-69461682D01*
X153717246Y-69316243D01*
X153750500Y-69106287D01*
X153750500Y-68893713D01*
X153717246Y-68683757D01*
X153651557Y-68481588D01*
X153555051Y-68292184D01*
X153555041Y-68292171D01*
X153553277Y-68289290D01*
X153552938Y-68288037D01*
X153552839Y-68287843D01*
X153552879Y-68287822D01*
X153535033Y-68221844D01*
X153556150Y-68155241D01*
X153609921Y-68110628D01*
X153659005Y-68100500D01*
X183097275Y-68100500D01*
X183164314Y-68120185D01*
X183210069Y-68172989D01*
X183220013Y-68242147D01*
X183207760Y-68280795D01*
X183150424Y-68393323D01*
X183084733Y-68595498D01*
X183051480Y-68805451D01*
X183051480Y-69018024D01*
X183084734Y-69227982D01*
X183131989Y-69373420D01*
X183133984Y-69443262D01*
X183131989Y-69450056D01*
X183084734Y-69595493D01*
X183066270Y-69712072D01*
X183051480Y-69805451D01*
X183051480Y-70018025D01*
X183052388Y-70023758D01*
X183084734Y-70227982D01*
X183131989Y-70373420D01*
X183133984Y-70443262D01*
X183131989Y-70450056D01*
X183084734Y-70595493D01*
X183051480Y-70805451D01*
X183051480Y-71018024D01*
X183084734Y-71227982D01*
X183131989Y-71373420D01*
X183133984Y-71443262D01*
X183131989Y-71450056D01*
X183084734Y-71595493D01*
X183051480Y-71805451D01*
X183051480Y-72018024D01*
X183084734Y-72227982D01*
X183131989Y-72373420D01*
X183133984Y-72443262D01*
X183131989Y-72450056D01*
X183084734Y-72595493D01*
X183051480Y-72805451D01*
X183051480Y-73018024D01*
X183074488Y-73163295D01*
X183084734Y-73227981D01*
X183114442Y-73319413D01*
X183150424Y-73430152D01*
X183246931Y-73619558D01*
X183371870Y-73791524D01*
X183522193Y-73941847D01*
X183694159Y-74066786D01*
X183694161Y-74066787D01*
X183694164Y-74066789D01*
X183883568Y-74163295D01*
X184085737Y-74228984D01*
X184295693Y-74262238D01*
X184295694Y-74262238D01*
X184508266Y-74262238D01*
X184508267Y-74262238D01*
X184718223Y-74228984D01*
X184920392Y-74163295D01*
X185109796Y-74066789D01*
X185131769Y-74050824D01*
X185281766Y-73941847D01*
X185281768Y-73941844D01*
X185281772Y-73941842D01*
X185432084Y-73791530D01*
X185432086Y-73791526D01*
X185432089Y-73791524D01*
X185557028Y-73619558D01*
X185557027Y-73619558D01*
X185557031Y-73619554D01*
X185653537Y-73430150D01*
X185699457Y-73288822D01*
X185738892Y-73231151D01*
X185779062Y-73209215D01*
X185920392Y-73163295D01*
X186109796Y-73066789D01*
X186160289Y-73030104D01*
X186281766Y-72941847D01*
X186281772Y-72941842D01*
X186343828Y-72879786D01*
X186432084Y-72791530D01*
X186432086Y-72791526D01*
X186432089Y-72791524D01*
X186557028Y-72619558D01*
X186557027Y-72619558D01*
X186557031Y-72619554D01*
X186653537Y-72430150D01*
X186699456Y-72288824D01*
X186702542Y-72284311D01*
X186703166Y-72278877D01*
X186722052Y-72255779D01*
X186738892Y-72231152D01*
X186744849Y-72227898D01*
X186747394Y-72224787D01*
X186779066Y-72209215D01*
X186841882Y-72188804D01*
X186866026Y-72180958D01*
X186935866Y-72178962D01*
X186942656Y-72180956D01*
X187022911Y-72207032D01*
X187080586Y-72246470D01*
X187102522Y-72286643D01*
X187111103Y-72313049D01*
X187148444Y-72427973D01*
X187244951Y-72617377D01*
X187369890Y-72789343D01*
X187520213Y-72939666D01*
X187692179Y-73064605D01*
X187692181Y-73064606D01*
X187692184Y-73064608D01*
X187881588Y-73161114D01*
X188083757Y-73226803D01*
X188293713Y-73260057D01*
X188293714Y-73260057D01*
X188506286Y-73260057D01*
X188506287Y-73260057D01*
X188716243Y-73226803D01*
X188918412Y-73161114D01*
X189107816Y-73064608D01*
X189155307Y-73030104D01*
X189279786Y-72939666D01*
X189279788Y-72939663D01*
X189279792Y-72939661D01*
X189430104Y-72789349D01*
X189430106Y-72789345D01*
X189430109Y-72789343D01*
X189539086Y-72639346D01*
X189555051Y-72617373D01*
X189651557Y-72427969D01*
X189717246Y-72225800D01*
X189750500Y-72015844D01*
X189750500Y-71803270D01*
X189717246Y-71593314D01*
X189669988Y-71447873D01*
X189667994Y-71378034D01*
X189669981Y-71371261D01*
X189717246Y-71225800D01*
X189750500Y-71015844D01*
X189750500Y-70803270D01*
X189717246Y-70593314D01*
X189669988Y-70447873D01*
X189667994Y-70378034D01*
X189669981Y-70371261D01*
X189717246Y-70225800D01*
X189750500Y-70015844D01*
X189750500Y-69803270D01*
X189717246Y-69593314D01*
X189669988Y-69447873D01*
X189667994Y-69378034D01*
X189669981Y-69371261D01*
X189717246Y-69225800D01*
X189750500Y-69015844D01*
X189750500Y-68803270D01*
X189717246Y-68593314D01*
X189651557Y-68391145D01*
X189595331Y-68280795D01*
X189582435Y-68212126D01*
X189608711Y-68147385D01*
X189665818Y-68107128D01*
X189705816Y-68100500D01*
X216560417Y-68100500D01*
X216623602Y-68100500D01*
X216629011Y-68100618D01*
X217013079Y-68117387D01*
X217023813Y-68118327D01*
X217402275Y-68168152D01*
X217412909Y-68170027D01*
X217785591Y-68252650D01*
X217796023Y-68255445D01*
X218160072Y-68370230D01*
X218170215Y-68373921D01*
X218430136Y-68481585D01*
X218522877Y-68520000D01*
X218532681Y-68524572D01*
X218871269Y-68700830D01*
X218880610Y-68706224D01*
X219174908Y-68893713D01*
X219202541Y-68911317D01*
X219211402Y-68917521D01*
X219514234Y-69149892D01*
X219522521Y-69156846D01*
X219803938Y-69414718D01*
X219811587Y-69422367D01*
X220069459Y-69703785D01*
X220076413Y-69712072D01*
X220308778Y-70014897D01*
X220314983Y-70023758D01*
X220520077Y-70345692D01*
X220525485Y-70355060D01*
X220701731Y-70693625D01*
X220706303Y-70703429D01*
X220852376Y-71056080D01*
X220856076Y-71066246D01*
X220970855Y-71430279D01*
X220973654Y-71440726D01*
X221027534Y-71683762D01*
X221056272Y-71813388D01*
X221058150Y-71824042D01*
X221107971Y-72202473D01*
X221108914Y-72213249D01*
X221125603Y-72595495D01*
X221125692Y-72597517D01*
X221125810Y-72602926D01*
X221125810Y-94474583D01*
X221106125Y-94541622D01*
X221053321Y-94587377D01*
X221001529Y-94598583D01*
X140913719Y-94417032D01*
X140846724Y-94397195D01*
X140801089Y-94344288D01*
X140790000Y-94293032D01*
X140790000Y-89462716D01*
X147397965Y-89462716D01*
X147397965Y-89855717D01*
X147432216Y-90247212D01*
X147432216Y-90247216D01*
X147490676Y-90578757D01*
X147500458Y-90634232D01*
X147602172Y-91013833D01*
X147602173Y-91013835D01*
X147602173Y-91013836D01*
X147602994Y-91016091D01*
X147731014Y-91367823D01*
X147736589Y-91383138D01*
X147902660Y-91739279D01*
X147902672Y-91739303D01*
X148099160Y-92079629D01*
X148099169Y-92079644D01*
X148324580Y-92401564D01*
X148517258Y-92631188D01*
X148577187Y-92702608D01*
X148855074Y-92980495D01*
X148947484Y-93058036D01*
X149156117Y-93233101D01*
X149156123Y-93233105D01*
X149156124Y-93233106D01*
X149478044Y-93458517D01*
X149818385Y-93655013D01*
X149818399Y-93655019D01*
X149818402Y-93655021D01*
X150174543Y-93821092D01*
X150174548Y-93821093D01*
X150174557Y-93821098D01*
X150543849Y-93955510D01*
X150923450Y-94057224D01*
X151310472Y-94125466D01*
X151701967Y-94159716D01*
X151701968Y-94159717D01*
X151701969Y-94159717D01*
X152094962Y-94159717D01*
X152094962Y-94159716D01*
X152486458Y-94125466D01*
X152873480Y-94057224D01*
X153253081Y-93955510D01*
X153622373Y-93821098D01*
X153978545Y-93655013D01*
X154318886Y-93458517D01*
X154640806Y-93233106D01*
X154941856Y-92980495D01*
X155219743Y-92702608D01*
X155472354Y-92401558D01*
X155697765Y-92079638D01*
X155894261Y-91739297D01*
X155993646Y-91526163D01*
X156039818Y-91473724D01*
X156089841Y-91455629D01*
X156292797Y-91428910D01*
X156520776Y-91367823D01*
X156648511Y-91314913D01*
X156738833Y-91277501D01*
X156943233Y-91159490D01*
X157130482Y-91015809D01*
X163309472Y-84836819D01*
X163370795Y-84803334D01*
X163397153Y-84800500D01*
X163518004Y-84800500D01*
X163518011Y-84800500D01*
X163752014Y-84769693D01*
X163901436Y-84729655D01*
X163971282Y-84731318D01*
X164029144Y-84770480D01*
X164056649Y-84834708D01*
X164045063Y-84903610D01*
X164002419Y-84952530D01*
X163972258Y-84972683D01*
X163972234Y-84972701D01*
X163706367Y-85190892D01*
X163463176Y-85434083D01*
X163244985Y-85699950D01*
X163244975Y-85699964D01*
X163053904Y-85985922D01*
X163053893Y-85985940D01*
X162891772Y-86289246D01*
X162891770Y-86289251D01*
X162760150Y-86607009D01*
X162660308Y-86936143D01*
X162593210Y-87273466D01*
X162567188Y-87537682D01*
X162563107Y-87579130D01*
X162559500Y-87615750D01*
X162559500Y-87959681D01*
X162593210Y-88301965D01*
X162660308Y-88639288D01*
X162760150Y-88968422D01*
X162891770Y-89286180D01*
X162891772Y-89286185D01*
X163053893Y-89589491D01*
X163053904Y-89589509D01*
X163244975Y-89875467D01*
X163244985Y-89875481D01*
X163463176Y-90141348D01*
X163706367Y-90384539D01*
X163706372Y-90384543D01*
X163706373Y-90384544D01*
X163972240Y-90602735D01*
X164258213Y-90793816D01*
X164258222Y-90793821D01*
X164258224Y-90793822D01*
X164561530Y-90955943D01*
X164561532Y-90955943D01*
X164561538Y-90955947D01*
X164879295Y-91087566D01*
X165208422Y-91187406D01*
X165545750Y-91254505D01*
X165888031Y-91288216D01*
X165888034Y-91288216D01*
X166231966Y-91288216D01*
X166231969Y-91288216D01*
X166574250Y-91254505D01*
X166911578Y-91187406D01*
X167240705Y-91087566D01*
X167558462Y-90955947D01*
X167861787Y-90793816D01*
X168147760Y-90602735D01*
X168413627Y-90384544D01*
X168656828Y-90141343D01*
X168875019Y-89875476D01*
X169066100Y-89589503D01*
X169133869Y-89462716D01*
X183115914Y-89462716D01*
X183115914Y-89855717D01*
X183150165Y-90247212D01*
X183150165Y-90247216D01*
X183208625Y-90578757D01*
X183218407Y-90634232D01*
X183320121Y-91013833D01*
X183320122Y-91013835D01*
X183320122Y-91013836D01*
X183320943Y-91016091D01*
X183448963Y-91367823D01*
X183454538Y-91383138D01*
X183620609Y-91739279D01*
X183620621Y-91739303D01*
X183817109Y-92079629D01*
X183817118Y-92079644D01*
X184042529Y-92401564D01*
X184235207Y-92631188D01*
X184295136Y-92702608D01*
X184573023Y-92980495D01*
X184665433Y-93058036D01*
X184874066Y-93233101D01*
X184874072Y-93233105D01*
X184874073Y-93233106D01*
X185195993Y-93458517D01*
X185536334Y-93655013D01*
X185536348Y-93655019D01*
X185536351Y-93655021D01*
X185892492Y-93821092D01*
X185892497Y-93821093D01*
X185892506Y-93821098D01*
X186261798Y-93955510D01*
X186641399Y-94057224D01*
X187028421Y-94125466D01*
X187419916Y-94159716D01*
X187419917Y-94159717D01*
X187419918Y-94159717D01*
X187812911Y-94159717D01*
X187812911Y-94159716D01*
X188204407Y-94125466D01*
X188591429Y-94057224D01*
X188971030Y-93955510D01*
X189340322Y-93821098D01*
X189696494Y-93655013D01*
X190036835Y-93458517D01*
X190358755Y-93233106D01*
X190659805Y-92980495D01*
X190937692Y-92702608D01*
X191190303Y-92401558D01*
X191415714Y-92079638D01*
X191612210Y-91739297D01*
X191612214Y-91739287D01*
X191612219Y-91739279D01*
X191709195Y-91531313D01*
X191755367Y-91478873D01*
X191821577Y-91459717D01*
X192658787Y-91459717D01*
X192658794Y-91459717D01*
X192892797Y-91428910D01*
X193120776Y-91367823D01*
X193248511Y-91314913D01*
X193338833Y-91277501D01*
X193543233Y-91159490D01*
X193730482Y-91015809D01*
X198276880Y-86469409D01*
X198338201Y-86435926D01*
X198407893Y-86440910D01*
X198463826Y-86482782D01*
X198488243Y-86548246D01*
X198479125Y-86604533D01*
X198478100Y-86607006D01*
X198378257Y-86936143D01*
X198311159Y-87273466D01*
X198285137Y-87537682D01*
X198281056Y-87579130D01*
X198277449Y-87615750D01*
X198277449Y-87959681D01*
X198311159Y-88301965D01*
X198378257Y-88639288D01*
X198478099Y-88968422D01*
X198609719Y-89286180D01*
X198609721Y-89286185D01*
X198771842Y-89589491D01*
X198771853Y-89589509D01*
X198962924Y-89875467D01*
X198962934Y-89875481D01*
X199181125Y-90141348D01*
X199424316Y-90384539D01*
X199424321Y-90384543D01*
X199424322Y-90384544D01*
X199690189Y-90602735D01*
X199976162Y-90793816D01*
X199976171Y-90793821D01*
X199976173Y-90793822D01*
X200279479Y-90955943D01*
X200279481Y-90955943D01*
X200279487Y-90955947D01*
X200597244Y-91087566D01*
X200926371Y-91187406D01*
X201263699Y-91254505D01*
X201605980Y-91288216D01*
X201605983Y-91288216D01*
X201949915Y-91288216D01*
X201949918Y-91288216D01*
X202292199Y-91254505D01*
X202629527Y-91187406D01*
X202958654Y-91087566D01*
X203276411Y-90955947D01*
X203579736Y-90793816D01*
X203865709Y-90602735D01*
X204131576Y-90384544D01*
X204374777Y-90141343D01*
X204592968Y-89875476D01*
X204784049Y-89589503D01*
X204946180Y-89286178D01*
X205077799Y-88968421D01*
X205177639Y-88639294D01*
X205244738Y-88301966D01*
X205278449Y-87959685D01*
X205278449Y-87615747D01*
X205244738Y-87273466D01*
X205177639Y-86936138D01*
X205077799Y-86607011D01*
X204946180Y-86289254D01*
X204784049Y-85985929D01*
X204592968Y-85699956D01*
X204374777Y-85434089D01*
X204374776Y-85434088D01*
X204374772Y-85434083D01*
X204131581Y-85190892D01*
X203865714Y-84972701D01*
X203865713Y-84972700D01*
X203865709Y-84972697D01*
X203579736Y-84781616D01*
X203579731Y-84781613D01*
X203579724Y-84781609D01*
X203276418Y-84619488D01*
X203276413Y-84619486D01*
X203273511Y-84618284D01*
X203183343Y-84580935D01*
X202958655Y-84487866D01*
X202629521Y-84388024D01*
X202292197Y-84320926D01*
X202292198Y-84320926D01*
X202034405Y-84295537D01*
X201949918Y-84287216D01*
X201605980Y-84287216D01*
X201527915Y-84294904D01*
X201263699Y-84320926D01*
X200926376Y-84388024D01*
X200597241Y-84487867D01*
X200594774Y-84488889D01*
X200525304Y-84496353D01*
X200462826Y-84465075D01*
X200427178Y-84404983D01*
X200429676Y-84335158D01*
X200459647Y-84286644D01*
X201077755Y-83668537D01*
X201139078Y-83635052D01*
X201165436Y-83632218D01*
X202086286Y-83632218D01*
X202086293Y-83632218D01*
X202320296Y-83601411D01*
X202548275Y-83540324D01*
X202699817Y-83477553D01*
X202766332Y-83450002D01*
X202970732Y-83331991D01*
X203157981Y-83188310D01*
X209562372Y-76783917D01*
X209623693Y-76750434D01*
X209693385Y-76755418D01*
X209749318Y-76797290D01*
X209757438Y-76809600D01*
X209884473Y-77029629D01*
X209884482Y-77029644D01*
X210109893Y-77351564D01*
X210216943Y-77479140D01*
X210362500Y-77652608D01*
X210640387Y-77930495D01*
X210747516Y-78020387D01*
X210941430Y-78183101D01*
X210941436Y-78183105D01*
X210941437Y-78183106D01*
X211263357Y-78408517D01*
X211603698Y-78605013D01*
X211603712Y-78605019D01*
X211603715Y-78605021D01*
X211959856Y-78771092D01*
X211959861Y-78771093D01*
X211959870Y-78771098D01*
X212329162Y-78905510D01*
X212708763Y-79007224D01*
X213095785Y-79075466D01*
X213487280Y-79109716D01*
X213487281Y-79109717D01*
X213487282Y-79109717D01*
X213880275Y-79109717D01*
X213880275Y-79109716D01*
X214271771Y-79075466D01*
X214658793Y-79007224D01*
X215038394Y-78905510D01*
X215407686Y-78771098D01*
X215763858Y-78605013D01*
X216104199Y-78408517D01*
X216426119Y-78183106D01*
X216727169Y-77930495D01*
X217005056Y-77652608D01*
X217257667Y-77351558D01*
X217483078Y-77029638D01*
X217679574Y-76689297D01*
X217845659Y-76333125D01*
X217980071Y-75963833D01*
X218081785Y-75584232D01*
X218150027Y-75197210D01*
X218184278Y-74805713D01*
X218184278Y-74412721D01*
X218150027Y-74021224D01*
X218081785Y-73634202D01*
X217980071Y-73254601D01*
X217845659Y-72885309D01*
X217845654Y-72885300D01*
X217845653Y-72885295D01*
X217679582Y-72529154D01*
X217679570Y-72529130D01*
X217640629Y-72461682D01*
X217483078Y-72188796D01*
X217257667Y-71866876D01*
X217257666Y-71866875D01*
X217257662Y-71866869D01*
X217029951Y-71595495D01*
X217005056Y-71565826D01*
X216727169Y-71287939D01*
X216653115Y-71225800D01*
X216426125Y-71035332D01*
X216104205Y-70809921D01*
X216104202Y-70809919D01*
X216104199Y-70809917D01*
X216003083Y-70751537D01*
X215763864Y-70613424D01*
X215763840Y-70613412D01*
X215407699Y-70447341D01*
X215407688Y-70447337D01*
X215407686Y-70447336D01*
X215038394Y-70312924D01*
X214721387Y-70227982D01*
X214658794Y-70211210D01*
X214658783Y-70211208D01*
X214271775Y-70142968D01*
X213880278Y-70108717D01*
X213880274Y-70108717D01*
X213487282Y-70108717D01*
X213487277Y-70108717D01*
X213095782Y-70142968D01*
X213095778Y-70142968D01*
X212708772Y-70211208D01*
X212708761Y-70211210D01*
X212505333Y-70265719D01*
X212329162Y-70312924D01*
X212329159Y-70312925D01*
X212329158Y-70312925D01*
X211959856Y-70447341D01*
X211603715Y-70613412D01*
X211603691Y-70613424D01*
X211263365Y-70809912D01*
X211263350Y-70809921D01*
X210941430Y-71035332D01*
X210640384Y-71287941D01*
X210362502Y-71565823D01*
X210109893Y-71866869D01*
X209884482Y-72188789D01*
X209884473Y-72188804D01*
X209687985Y-72529130D01*
X209687972Y-72529154D01*
X209590997Y-72737121D01*
X209544825Y-72789561D01*
X209478615Y-72808717D01*
X209072772Y-72808717D01*
X209072766Y-72808717D01*
X209072762Y-72808718D01*
X208838770Y-72839523D01*
X208667897Y-72885308D01*
X208667898Y-72885309D01*
X208610789Y-72900611D01*
X208610787Y-72900611D01*
X208610786Y-72900612D01*
X208610779Y-72900614D01*
X208392739Y-72990929D01*
X208392729Y-72990934D01*
X208188332Y-73108942D01*
X208001083Y-73252625D01*
X208001075Y-73252632D01*
X201258810Y-79994899D01*
X201197487Y-80028384D01*
X201171129Y-80031218D01*
X200250271Y-80031218D01*
X200250265Y-80031218D01*
X200250261Y-80031219D01*
X200016271Y-80062024D01*
X199788284Y-80123113D01*
X199660554Y-80176020D01*
X199660554Y-80176021D01*
X199570232Y-80213434D01*
X199570227Y-80213436D01*
X199570224Y-80213438D01*
X199527652Y-80238017D01*
X199459752Y-80254489D01*
X199393725Y-80231636D01*
X199350535Y-80176714D01*
X199343894Y-80107161D01*
X199356292Y-80072181D01*
X199486180Y-79829180D01*
X199617799Y-79511423D01*
X199717639Y-79182296D01*
X199784738Y-78844968D01*
X199818449Y-78502687D01*
X199818449Y-78158749D01*
X199784738Y-77816468D01*
X199717639Y-77479140D01*
X199617799Y-77150013D01*
X199486180Y-76832256D01*
X199460343Y-76783919D01*
X199324055Y-76528942D01*
X199324054Y-76528940D01*
X199324049Y-76528931D01*
X199132968Y-76242958D01*
X198914777Y-75977091D01*
X198914776Y-75977090D01*
X198914772Y-75977085D01*
X198671581Y-75733894D01*
X198405714Y-75515703D01*
X198405713Y-75515702D01*
X198405709Y-75515699D01*
X198119736Y-75324618D01*
X198119731Y-75324615D01*
X198119724Y-75324611D01*
X197816418Y-75162490D01*
X197816413Y-75162488D01*
X197498655Y-75030868D01*
X197169521Y-74931026D01*
X196832197Y-74863928D01*
X196832198Y-74863928D01*
X196574405Y-74838539D01*
X196489918Y-74830218D01*
X196145980Y-74830218D01*
X196067915Y-74837906D01*
X195803699Y-74863928D01*
X195466376Y-74931026D01*
X195137242Y-75030868D01*
X194819484Y-75162488D01*
X194819479Y-75162490D01*
X194516173Y-75324611D01*
X194516155Y-75324622D01*
X194230197Y-75515693D01*
X194230183Y-75515703D01*
X193964316Y-75733894D01*
X193721125Y-75977085D01*
X193502934Y-76242952D01*
X193502924Y-76242966D01*
X193311853Y-76528924D01*
X193311842Y-76528942D01*
X193149721Y-76832248D01*
X193149719Y-76832253D01*
X193018099Y-77150011D01*
X192918257Y-77479145D01*
X192851159Y-77816468D01*
X192817449Y-78158752D01*
X192817449Y-78502683D01*
X192851159Y-78844967D01*
X192918257Y-79182290D01*
X193018099Y-79511424D01*
X193149719Y-79829182D01*
X193149721Y-79829187D01*
X193311842Y-80132493D01*
X193311853Y-80132511D01*
X193502924Y-80418469D01*
X193502934Y-80418483D01*
X193721125Y-80684350D01*
X193964316Y-80927541D01*
X193964321Y-80927545D01*
X193964322Y-80927546D01*
X194230189Y-81145737D01*
X194516162Y-81336818D01*
X194516171Y-81336823D01*
X194516173Y-81336824D01*
X194819479Y-81498945D01*
X194819481Y-81498945D01*
X194819487Y-81498949D01*
X195137244Y-81630568D01*
X195466371Y-81730408D01*
X195803699Y-81797507D01*
X196145980Y-81831218D01*
X196145983Y-81831218D01*
X196489915Y-81831218D01*
X196489918Y-81831218D01*
X196832199Y-81797507D01*
X197169527Y-81730408D01*
X197498654Y-81630568D01*
X197816411Y-81498949D01*
X197816421Y-81498943D01*
X197818069Y-81498261D01*
X197887538Y-81490792D01*
X197950018Y-81522067D01*
X197985670Y-81582156D01*
X197983176Y-81651981D01*
X197953203Y-81700503D01*
X191884469Y-87769239D01*
X191823146Y-87802724D01*
X191753454Y-87797740D01*
X191697521Y-87755868D01*
X191684406Y-87733962D01*
X191612218Y-87579154D01*
X191612206Y-87579130D01*
X191599869Y-87557763D01*
X191415714Y-87238796D01*
X191190303Y-86916876D01*
X191190302Y-86916875D01*
X191190298Y-86916869D01*
X190937689Y-86615823D01*
X190659807Y-86337941D01*
X190358761Y-86085332D01*
X190036841Y-85859921D01*
X190036838Y-85859919D01*
X190036835Y-85859917D01*
X189935719Y-85801537D01*
X189696500Y-85663424D01*
X189696476Y-85663412D01*
X189340335Y-85497341D01*
X189340324Y-85497337D01*
X189340322Y-85497336D01*
X188971030Y-85362924D01*
X188730374Y-85298440D01*
X188591430Y-85261210D01*
X188591419Y-85261208D01*
X188204411Y-85192968D01*
X187812914Y-85158717D01*
X187812910Y-85158717D01*
X187419918Y-85158717D01*
X187419913Y-85158717D01*
X187028418Y-85192968D01*
X187028414Y-85192968D01*
X186641408Y-85261208D01*
X186641397Y-85261210D01*
X186437969Y-85315719D01*
X186261798Y-85362924D01*
X186261795Y-85362925D01*
X186261794Y-85362925D01*
X185892492Y-85497341D01*
X185536351Y-85663412D01*
X185536327Y-85663424D01*
X185196001Y-85859912D01*
X185195986Y-85859921D01*
X184874066Y-86085332D01*
X184573020Y-86337941D01*
X184295138Y-86615823D01*
X184042529Y-86916869D01*
X183817118Y-87238789D01*
X183817109Y-87238804D01*
X183620621Y-87579130D01*
X183620609Y-87579154D01*
X183454538Y-87935295D01*
X183320122Y-88304597D01*
X183320122Y-88304599D01*
X183218407Y-88684200D01*
X183218405Y-88684211D01*
X183150165Y-89071217D01*
X183150165Y-89071221D01*
X183115914Y-89462716D01*
X169133869Y-89462716D01*
X169228231Y-89286178D01*
X169359850Y-88968421D01*
X169459690Y-88639294D01*
X169526789Y-88301966D01*
X169560500Y-87959685D01*
X169560500Y-87615747D01*
X169526789Y-87273466D01*
X169459690Y-86936138D01*
X169359850Y-86607011D01*
X169228231Y-86289254D01*
X169066100Y-85985929D01*
X168875019Y-85699956D01*
X168656828Y-85434089D01*
X168656827Y-85434088D01*
X168656823Y-85434083D01*
X168413632Y-85190892D01*
X168147765Y-84972701D01*
X168147764Y-84972700D01*
X168147760Y-84972697D01*
X167861787Y-84781616D01*
X167861782Y-84781613D01*
X167861775Y-84781609D01*
X167558469Y-84619488D01*
X167558464Y-84619486D01*
X167555562Y-84618284D01*
X167465394Y-84580935D01*
X167240706Y-84487866D01*
X166911572Y-84388024D01*
X166574248Y-84320926D01*
X166574249Y-84320926D01*
X166316456Y-84295537D01*
X166231969Y-84287216D01*
X165888031Y-84287216D01*
X165809966Y-84294904D01*
X165545750Y-84320926D01*
X165208427Y-84388024D01*
X164879289Y-84487867D01*
X164736762Y-84546904D01*
X164667293Y-84554373D01*
X164604814Y-84523097D01*
X164569162Y-84463008D01*
X164571656Y-84393183D01*
X164601629Y-84344662D01*
X172500255Y-76446036D01*
X172561578Y-76412551D01*
X172587936Y-76409717D01*
X173760666Y-76409717D01*
X173827705Y-76429402D01*
X173873048Y-76481313D01*
X173970023Y-76689279D01*
X173970036Y-76689303D01*
X174166524Y-77029629D01*
X174166533Y-77029644D01*
X174391944Y-77351564D01*
X174498994Y-77479140D01*
X174644551Y-77652608D01*
X174922438Y-77930495D01*
X175029567Y-78020387D01*
X175223481Y-78183101D01*
X175223487Y-78183105D01*
X175223488Y-78183106D01*
X175545408Y-78408517D01*
X175885749Y-78605013D01*
X175885763Y-78605019D01*
X175885766Y-78605021D01*
X176241907Y-78771092D01*
X176241912Y-78771093D01*
X176241921Y-78771098D01*
X176611213Y-78905510D01*
X176990814Y-79007224D01*
X177377836Y-79075466D01*
X177769331Y-79109716D01*
X177769332Y-79109717D01*
X177769333Y-79109717D01*
X178162326Y-79109717D01*
X178162326Y-79109716D01*
X178553822Y-79075466D01*
X178940844Y-79007224D01*
X179320445Y-78905510D01*
X179689737Y-78771098D01*
X180045909Y-78605013D01*
X180386250Y-78408517D01*
X180708170Y-78183106D01*
X181009220Y-77930495D01*
X181287107Y-77652608D01*
X181539718Y-77351558D01*
X181765129Y-77029638D01*
X181961625Y-76689297D01*
X182127710Y-76333125D01*
X182262122Y-75963833D01*
X182363836Y-75584232D01*
X182432078Y-75197210D01*
X182466329Y-74805713D01*
X182466329Y-74412721D01*
X182432078Y-74021224D01*
X182363836Y-73634202D01*
X182262122Y-73254601D01*
X182127710Y-72885309D01*
X182127705Y-72885300D01*
X182127704Y-72885295D01*
X181961633Y-72529154D01*
X181961621Y-72529130D01*
X181922680Y-72461682D01*
X181765129Y-72188796D01*
X181539718Y-71866876D01*
X181539717Y-71866875D01*
X181539713Y-71866869D01*
X181312002Y-71595495D01*
X181287107Y-71565826D01*
X181009220Y-71287939D01*
X180935166Y-71225800D01*
X180708176Y-71035332D01*
X180386256Y-70809921D01*
X180386253Y-70809919D01*
X180386250Y-70809917D01*
X180285134Y-70751537D01*
X180045915Y-70613424D01*
X180045891Y-70613412D01*
X179689750Y-70447341D01*
X179689739Y-70447337D01*
X179689737Y-70447336D01*
X179320445Y-70312924D01*
X179003438Y-70227982D01*
X178940845Y-70211210D01*
X178940834Y-70211208D01*
X178553826Y-70142968D01*
X178162329Y-70108717D01*
X178162325Y-70108717D01*
X177769333Y-70108717D01*
X177769328Y-70108717D01*
X177377833Y-70142968D01*
X177377829Y-70142968D01*
X176990823Y-70211208D01*
X176990812Y-70211210D01*
X176787384Y-70265719D01*
X176611213Y-70312924D01*
X176611210Y-70312925D01*
X176611209Y-70312925D01*
X176241907Y-70447341D01*
X175885766Y-70613412D01*
X175885742Y-70613424D01*
X175545416Y-70809912D01*
X175545401Y-70809921D01*
X175223481Y-71035332D01*
X174922435Y-71287941D01*
X174644553Y-71565823D01*
X174391944Y-71866869D01*
X174166533Y-72188789D01*
X174166524Y-72188804D01*
X173970036Y-72529130D01*
X173970023Y-72529154D01*
X173873048Y-72737121D01*
X173826876Y-72789561D01*
X173760666Y-72808717D01*
X171672772Y-72808717D01*
X171672766Y-72808717D01*
X171672762Y-72808718D01*
X171438772Y-72839523D01*
X171210789Y-72900611D01*
X171111250Y-72941842D01*
X171111249Y-72941842D01*
X170992744Y-72990927D01*
X170992730Y-72990934D01*
X170788338Y-73108940D01*
X170788323Y-73108950D01*
X170601085Y-73252623D01*
X170601078Y-73252629D01*
X164027804Y-79825902D01*
X163966481Y-79859387D01*
X163896789Y-79854403D01*
X163840856Y-79812531D01*
X163816439Y-79747067D01*
X163825561Y-79690772D01*
X163899850Y-79511423D01*
X163999690Y-79182296D01*
X164066789Y-78844968D01*
X164100500Y-78502687D01*
X164100500Y-78158749D01*
X164066789Y-77816468D01*
X163999690Y-77479140D01*
X163899850Y-77150013D01*
X163768231Y-76832256D01*
X163742394Y-76783919D01*
X163606106Y-76528942D01*
X163606105Y-76528940D01*
X163606100Y-76528931D01*
X163415019Y-76242958D01*
X163196828Y-75977091D01*
X163196827Y-75977090D01*
X163196823Y-75977085D01*
X162953632Y-75733894D01*
X162687765Y-75515703D01*
X162687764Y-75515702D01*
X162687760Y-75515699D01*
X162401787Y-75324618D01*
X162401782Y-75324615D01*
X162401775Y-75324611D01*
X162098469Y-75162490D01*
X162098464Y-75162488D01*
X161780706Y-75030868D01*
X161451572Y-74931026D01*
X161114248Y-74863928D01*
X161114249Y-74863928D01*
X160856456Y-74838539D01*
X160771969Y-74830218D01*
X160428031Y-74830218D01*
X160349966Y-74837906D01*
X160085750Y-74863928D01*
X159748427Y-74931026D01*
X159419293Y-75030868D01*
X159101535Y-75162488D01*
X159101530Y-75162490D01*
X158798224Y-75324611D01*
X158798206Y-75324622D01*
X158512248Y-75515693D01*
X158512234Y-75515703D01*
X158246367Y-75733894D01*
X158003176Y-75977085D01*
X157784985Y-76242952D01*
X157784975Y-76242966D01*
X157593904Y-76528924D01*
X157593893Y-76528942D01*
X157431772Y-76832248D01*
X157431770Y-76832253D01*
X157300150Y-77150011D01*
X157200308Y-77479145D01*
X157133210Y-77816468D01*
X157099500Y-78158752D01*
X157099500Y-78502683D01*
X157133210Y-78844967D01*
X157200308Y-79182290D01*
X157300150Y-79511424D01*
X157431770Y-79829182D01*
X157431772Y-79829187D01*
X157593893Y-80132493D01*
X157593904Y-80132511D01*
X157784975Y-80418469D01*
X157784985Y-80418483D01*
X158003176Y-80684350D01*
X158246367Y-80927541D01*
X158246372Y-80927545D01*
X158246373Y-80927546D01*
X158512240Y-81145737D01*
X158798213Y-81336818D01*
X158798222Y-81336823D01*
X158798224Y-81336824D01*
X159101530Y-81498945D01*
X159101532Y-81498945D01*
X159101538Y-81498949D01*
X159419295Y-81630568D01*
X159748422Y-81730408D01*
X160085750Y-81797507D01*
X160428031Y-81831218D01*
X160428034Y-81831218D01*
X160771966Y-81831218D01*
X160771969Y-81831218D01*
X160926824Y-81815966D01*
X160995468Y-81828985D01*
X161046178Y-81877050D01*
X161062853Y-81944901D01*
X161040197Y-82010995D01*
X161026657Y-82027050D01*
X155850504Y-87203203D01*
X155789181Y-87236688D01*
X155719489Y-87231704D01*
X155663556Y-87189832D01*
X155661248Y-87186645D01*
X155472353Y-86916874D01*
X155219740Y-86615823D01*
X154941858Y-86337941D01*
X154640812Y-86085332D01*
X154318892Y-85859921D01*
X154318889Y-85859919D01*
X154318886Y-85859917D01*
X154217770Y-85801537D01*
X153978551Y-85663424D01*
X153978527Y-85663412D01*
X153622386Y-85497341D01*
X153622375Y-85497337D01*
X153622373Y-85497336D01*
X153253081Y-85362924D01*
X153012425Y-85298440D01*
X152873481Y-85261210D01*
X152873470Y-85261208D01*
X152486462Y-85192968D01*
X152094965Y-85158717D01*
X152094961Y-85158717D01*
X151701969Y-85158717D01*
X151701964Y-85158717D01*
X151310469Y-85192968D01*
X151310465Y-85192968D01*
X150923459Y-85261208D01*
X150923448Y-85261210D01*
X150720020Y-85315719D01*
X150543849Y-85362924D01*
X150543846Y-85362925D01*
X150543845Y-85362925D01*
X150174543Y-85497341D01*
X149818402Y-85663412D01*
X149818378Y-85663424D01*
X149478052Y-85859912D01*
X149478037Y-85859921D01*
X149156117Y-86085332D01*
X148855071Y-86337941D01*
X148577189Y-86615823D01*
X148324580Y-86916869D01*
X148099169Y-87238789D01*
X148099160Y-87238804D01*
X147902672Y-87579130D01*
X147902660Y-87579154D01*
X147736589Y-87935295D01*
X147602173Y-88304597D01*
X147602173Y-88304599D01*
X147500458Y-88684200D01*
X147500456Y-88684211D01*
X147432216Y-89071217D01*
X147432216Y-89071221D01*
X147397965Y-89462716D01*
X140790000Y-89462716D01*
X140790000Y-83849787D01*
X140809685Y-83782748D01*
X140862489Y-83736993D01*
X140866525Y-83735235D01*
X141041830Y-83662622D01*
X141308670Y-83508562D01*
X141553117Y-83320991D01*
X141770991Y-83103117D01*
X141958562Y-82858670D01*
X142112622Y-82591830D01*
X142230535Y-82307164D01*
X142310282Y-82009544D01*
X142350500Y-81704060D01*
X142350500Y-80795940D01*
X142310282Y-80490456D01*
X142230535Y-80192836D01*
X142112622Y-79908170D01*
X142112620Y-79908167D01*
X142112618Y-79908162D01*
X142019609Y-79747067D01*
X141958562Y-79641330D01*
X141770991Y-79396883D01*
X141770986Y-79396877D01*
X141553122Y-79179013D01*
X141553115Y-79179007D01*
X141308674Y-78991441D01*
X141308673Y-78991440D01*
X141308670Y-78991438D01*
X141202280Y-78930014D01*
X141041837Y-78837381D01*
X141041826Y-78837376D01*
X140757162Y-78719464D01*
X140459542Y-78639717D01*
X140154069Y-78599501D01*
X140154066Y-78599500D01*
X140154060Y-78599500D01*
X139845940Y-78599500D01*
X139845934Y-78599500D01*
X139845930Y-78599501D01*
X139540457Y-78639717D01*
X139242837Y-78719464D01*
X138958173Y-78837376D01*
X138958162Y-78837381D01*
X138691325Y-78991441D01*
X138446884Y-79179007D01*
X138446877Y-79179013D01*
X138229013Y-79396877D01*
X138229008Y-79396883D01*
X138225480Y-79401482D01*
X138169054Y-79442687D01*
X138127101Y-79450000D01*
X129572899Y-79450000D01*
X129505860Y-79430315D01*
X129474520Y-79401482D01*
X129470991Y-79396883D01*
X129470986Y-79396877D01*
X129253122Y-79179013D01*
X129253115Y-79179007D01*
X129008674Y-78991441D01*
X129008673Y-78991440D01*
X129008670Y-78991438D01*
X128902280Y-78930014D01*
X128741837Y-78837381D01*
X128741826Y-78837376D01*
X128457162Y-78719464D01*
X128159542Y-78639717D01*
X127854069Y-78599501D01*
X127854066Y-78599500D01*
X127854060Y-78599500D01*
X127545940Y-78599500D01*
X127545934Y-78599500D01*
X127545930Y-78599501D01*
X127240457Y-78639717D01*
X126942837Y-78719464D01*
X126658173Y-78837376D01*
X126658162Y-78837381D01*
X126391325Y-78991441D01*
X126146884Y-79179007D01*
X126146877Y-79179013D01*
X125929013Y-79396877D01*
X125929008Y-79396883D01*
X125925480Y-79401482D01*
X125869054Y-79442687D01*
X125827101Y-79450000D01*
X125372899Y-79450000D01*
X125305860Y-79430315D01*
X125274520Y-79401482D01*
X125270991Y-79396883D01*
X125270986Y-79396877D01*
X125053122Y-79179013D01*
X125053115Y-79179007D01*
X124808674Y-78991441D01*
X124808673Y-78991440D01*
X124808670Y-78991438D01*
X124702280Y-78930014D01*
X124541837Y-78837381D01*
X124541826Y-78837376D01*
X124257162Y-78719464D01*
X123959542Y-78639717D01*
X123654069Y-78599501D01*
X123654066Y-78599500D01*
X123654060Y-78599500D01*
X123345940Y-78599500D01*
X123345934Y-78599500D01*
X123345930Y-78599501D01*
X123040457Y-78639717D01*
X122742837Y-78719464D01*
X122458173Y-78837376D01*
X122458162Y-78837381D01*
X122191325Y-78991441D01*
X121946884Y-79179007D01*
X121946877Y-79179013D01*
X121729013Y-79396877D01*
X121729008Y-79396883D01*
X121725480Y-79401482D01*
X121669054Y-79442687D01*
X121627101Y-79450000D01*
X118650810Y-79450000D01*
X118583771Y-79430315D01*
X118538016Y-79377511D01*
X118526810Y-79326000D01*
X118526810Y-77199985D01*
X121650000Y-77199985D01*
X121660493Y-77302689D01*
X121660494Y-77302696D01*
X121715641Y-77469118D01*
X121715643Y-77469123D01*
X121807684Y-77618344D01*
X121931655Y-77742315D01*
X122080876Y-77834356D01*
X122080881Y-77834358D01*
X122247303Y-77889505D01*
X122247310Y-77889506D01*
X122350014Y-77899999D01*
X122350027Y-77900000D01*
X123000000Y-77900000D01*
X124000000Y-77900000D01*
X124649973Y-77900000D01*
X124649985Y-77899999D01*
X124752689Y-77889506D01*
X124752696Y-77889505D01*
X124919118Y-77834358D01*
X124919123Y-77834356D01*
X125068344Y-77742315D01*
X125192315Y-77618344D01*
X125284356Y-77469123D01*
X125284358Y-77469118D01*
X125339505Y-77302696D01*
X125339506Y-77302689D01*
X125349999Y-77199985D01*
X125350000Y-77199972D01*
X125350000Y-76250000D01*
X125860367Y-76250000D01*
X125881653Y-76411687D01*
X125944421Y-76645939D01*
X126037220Y-76869978D01*
X126037227Y-76869993D01*
X126158480Y-77080009D01*
X126306110Y-77272405D01*
X126306116Y-77272412D01*
X126477587Y-77443883D01*
X126477594Y-77443889D01*
X126669990Y-77591519D01*
X126880006Y-77712772D01*
X126880016Y-77712776D01*
X127104051Y-77805575D01*
X127104061Y-77805578D01*
X127199999Y-77831284D01*
X127200000Y-77831284D01*
X128200000Y-77831284D01*
X128295938Y-77805578D01*
X128295948Y-77805575D01*
X128519983Y-77712776D01*
X128519993Y-77712772D01*
X128730009Y-77591519D01*
X128922405Y-77443889D01*
X128922412Y-77443883D01*
X129093883Y-77272412D01*
X129093889Y-77272405D01*
X129149459Y-77199985D01*
X138150000Y-77199985D01*
X138160493Y-77302689D01*
X138160494Y-77302696D01*
X138215641Y-77469118D01*
X138215643Y-77469123D01*
X138307684Y-77618344D01*
X138431655Y-77742315D01*
X138580876Y-77834356D01*
X138580881Y-77834358D01*
X138747303Y-77889505D01*
X138747310Y-77889506D01*
X138850014Y-77899999D01*
X138850027Y-77900000D01*
X139500000Y-77900000D01*
X140500000Y-77900000D01*
X141149973Y-77900000D01*
X141149985Y-77899999D01*
X141252689Y-77889506D01*
X141252696Y-77889505D01*
X141419118Y-77834358D01*
X141419123Y-77834356D01*
X141568344Y-77742315D01*
X141692315Y-77618344D01*
X141784356Y-77469123D01*
X141784358Y-77469118D01*
X141839505Y-77302696D01*
X141839506Y-77302689D01*
X141849999Y-77199985D01*
X141850000Y-77199972D01*
X141850000Y-76250000D01*
X140500000Y-76250000D01*
X140500000Y-77900000D01*
X139500000Y-77900000D01*
X139500000Y-76250000D01*
X138150000Y-76250000D01*
X138150000Y-77199985D01*
X129149459Y-77199985D01*
X129241519Y-77080009D01*
X129362772Y-76869993D01*
X129362779Y-76869978D01*
X129455578Y-76645939D01*
X129518346Y-76411687D01*
X129539633Y-76250000D01*
X128200000Y-76250000D01*
X128200000Y-77831284D01*
X127200000Y-77831284D01*
X127200000Y-76250000D01*
X125860367Y-76250000D01*
X125350000Y-76250000D01*
X124000000Y-76250000D01*
X124000000Y-77900000D01*
X123000000Y-77900000D01*
X123000000Y-76250000D01*
X121650000Y-76250000D01*
X121650000Y-77199985D01*
X118526810Y-77199985D01*
X118526810Y-75681056D01*
X122800000Y-75681056D01*
X122800000Y-75818944D01*
X122826901Y-75954182D01*
X122879668Y-76081574D01*
X122956274Y-76196224D01*
X123053776Y-76293726D01*
X123168426Y-76370332D01*
X123295818Y-76423099D01*
X123431056Y-76450000D01*
X123568944Y-76450000D01*
X123704182Y-76423099D01*
X123831574Y-76370332D01*
X123946224Y-76293726D01*
X124043726Y-76196224D01*
X124120332Y-76081574D01*
X124173099Y-75954182D01*
X124200000Y-75818944D01*
X124200000Y-75681056D01*
X127000000Y-75681056D01*
X127000000Y-75818944D01*
X127026901Y-75954182D01*
X127079668Y-76081574D01*
X127156274Y-76196224D01*
X127253776Y-76293726D01*
X127368426Y-76370332D01*
X127495818Y-76423099D01*
X127631056Y-76450000D01*
X127768944Y-76450000D01*
X127904182Y-76423099D01*
X128031574Y-76370332D01*
X128146224Y-76293726D01*
X128243726Y-76196224D01*
X128320332Y-76081574D01*
X128373099Y-75954182D01*
X128400000Y-75818944D01*
X128400000Y-75681056D01*
X139300000Y-75681056D01*
X139300000Y-75818944D01*
X139326901Y-75954182D01*
X139379668Y-76081574D01*
X139456274Y-76196224D01*
X139553776Y-76293726D01*
X139668426Y-76370332D01*
X139795818Y-76423099D01*
X139931056Y-76450000D01*
X140068944Y-76450000D01*
X140204182Y-76423099D01*
X140331574Y-76370332D01*
X140446224Y-76293726D01*
X140543726Y-76196224D01*
X140620332Y-76081574D01*
X140673099Y-75954182D01*
X140700000Y-75818944D01*
X140700000Y-75681056D01*
X140673099Y-75545818D01*
X140620332Y-75418426D01*
X140543726Y-75303776D01*
X140489950Y-75250000D01*
X140500000Y-75250000D01*
X141850000Y-75250000D01*
X141850000Y-74300027D01*
X141849999Y-74300014D01*
X141839506Y-74197310D01*
X141839505Y-74197303D01*
X141784358Y-74030881D01*
X141784356Y-74030876D01*
X141692315Y-73881655D01*
X141568344Y-73757684D01*
X141419123Y-73665643D01*
X141419118Y-73665641D01*
X141252696Y-73610494D01*
X141252689Y-73610493D01*
X141149985Y-73600000D01*
X140500000Y-73600000D01*
X140500000Y-75250000D01*
X140489950Y-75250000D01*
X140446224Y-75206274D01*
X140331574Y-75129668D01*
X140204182Y-75076901D01*
X140068944Y-75050000D01*
X139931056Y-75050000D01*
X139795818Y-75076901D01*
X139668426Y-75129668D01*
X139553776Y-75206274D01*
X139456274Y-75303776D01*
X139379668Y-75418426D01*
X139326901Y-75545818D01*
X139300000Y-75681056D01*
X128400000Y-75681056D01*
X128373099Y-75545818D01*
X128320332Y-75418426D01*
X128243726Y-75303776D01*
X128189950Y-75250000D01*
X128200000Y-75250000D01*
X129539633Y-75250000D01*
X129518346Y-75088312D01*
X129455578Y-74854060D01*
X129362779Y-74630021D01*
X129362772Y-74630006D01*
X129241519Y-74419990D01*
X129204965Y-74372351D01*
X129149459Y-74300014D01*
X138150000Y-74300014D01*
X138150000Y-75250000D01*
X139500000Y-75250000D01*
X139500000Y-73600000D01*
X138850014Y-73600000D01*
X138747310Y-73610493D01*
X138747303Y-73610494D01*
X138580881Y-73665641D01*
X138580876Y-73665643D01*
X138431655Y-73757684D01*
X138307684Y-73881655D01*
X138215643Y-74030876D01*
X138215641Y-74030881D01*
X138160494Y-74197303D01*
X138160493Y-74197310D01*
X138150000Y-74300014D01*
X129149459Y-74300014D01*
X129093889Y-74227594D01*
X129093883Y-74227587D01*
X128922412Y-74056116D01*
X128922405Y-74056110D01*
X128730009Y-73908480D01*
X128519993Y-73787227D01*
X128519978Y-73787220D01*
X128295939Y-73694421D01*
X128200000Y-73668714D01*
X128200000Y-75250000D01*
X128189950Y-75250000D01*
X128146224Y-75206274D01*
X128031574Y-75129668D01*
X127904182Y-75076901D01*
X127768944Y-75050000D01*
X127631056Y-75050000D01*
X127495818Y-75076901D01*
X127368426Y-75129668D01*
X127253776Y-75206274D01*
X127156274Y-75303776D01*
X127079668Y-75418426D01*
X127026901Y-75545818D01*
X127000000Y-75681056D01*
X124200000Y-75681056D01*
X124173099Y-75545818D01*
X124120332Y-75418426D01*
X124043726Y-75303776D01*
X123989950Y-75250000D01*
X124000000Y-75250000D01*
X125350000Y-75250000D01*
X125860366Y-75250000D01*
X127200000Y-75250000D01*
X127200000Y-73668714D01*
X127199999Y-73668714D01*
X127104060Y-73694421D01*
X126880021Y-73787220D01*
X126880006Y-73787227D01*
X126669990Y-73908480D01*
X126477594Y-74056110D01*
X126477587Y-74056116D01*
X126306116Y-74227587D01*
X126306110Y-74227594D01*
X126158480Y-74419990D01*
X126037227Y-74630006D01*
X126037220Y-74630021D01*
X125944421Y-74854060D01*
X125881653Y-75088312D01*
X125860366Y-75250000D01*
X125350000Y-75250000D01*
X125350000Y-74300027D01*
X125349999Y-74300014D01*
X125339506Y-74197310D01*
X125339505Y-74197303D01*
X125284358Y-74030881D01*
X125284356Y-74030876D01*
X125192315Y-73881655D01*
X125068344Y-73757684D01*
X124919123Y-73665643D01*
X124919118Y-73665641D01*
X124752696Y-73610494D01*
X124752689Y-73610493D01*
X124649985Y-73600000D01*
X124000000Y-73600000D01*
X124000000Y-75250000D01*
X123989950Y-75250000D01*
X123946224Y-75206274D01*
X123831574Y-75129668D01*
X123704182Y-75076901D01*
X123568944Y-75050000D01*
X123431056Y-75050000D01*
X123295818Y-75076901D01*
X123168426Y-75129668D01*
X123053776Y-75206274D01*
X122956274Y-75303776D01*
X122879668Y-75418426D01*
X122826901Y-75545818D01*
X122800000Y-75681056D01*
X118526810Y-75681056D01*
X118526810Y-74300014D01*
X121650000Y-74300014D01*
X121650000Y-75250000D01*
X123000000Y-75250000D01*
X123000000Y-73600000D01*
X122350014Y-73600000D01*
X122247310Y-73610493D01*
X122247303Y-73610494D01*
X122080881Y-73665641D01*
X122080876Y-73665643D01*
X121931655Y-73757684D01*
X121807684Y-73881655D01*
X121715643Y-74030876D01*
X121715641Y-74030881D01*
X121660494Y-74197303D01*
X121660493Y-74197310D01*
X121650000Y-74300014D01*
X118526810Y-74300014D01*
X118526810Y-72602706D01*
X118526928Y-72597297D01*
X118529687Y-72534108D01*
X118543696Y-72213226D01*
X118544636Y-72202495D01*
X118594462Y-71824026D01*
X118596335Y-71813406D01*
X118678959Y-71440710D01*
X118681750Y-71430296D01*
X118796539Y-71066229D01*
X118800227Y-71056097D01*
X118946313Y-70703414D01*
X118950871Y-70693640D01*
X119127143Y-70355026D01*
X119132519Y-70345715D01*
X119337637Y-70023745D01*
X119343821Y-70014913D01*
X119576206Y-69712064D01*
X119583144Y-69703795D01*
X119841036Y-69422356D01*
X119848662Y-69414730D01*
X120130101Y-69156838D01*
X120138370Y-69149900D01*
X120441214Y-68917520D01*
X120450054Y-68911330D01*
X120772010Y-68706222D01*
X120781364Y-68700823D01*
X121119950Y-68524566D01*
X121129719Y-68520010D01*
X121482414Y-68373920D01*
X121492528Y-68370239D01*
X121856605Y-68255447D01*
X121867019Y-68252656D01*
X122239719Y-68170032D01*
X122250330Y-68168161D01*
X122628805Y-68118334D01*
X122639535Y-68117395D01*
X122907693Y-68105688D01*
X123023845Y-68100618D01*
X123029253Y-68100500D01*
X123092201Y-68100500D01*
X147140995Y-68100500D01*
X147208034Y-68120185D01*
G37*
%TD.AperFunction*%
%TD*%
M02*
