%TF.GenerationSoftware,KiCad,Pcbnew,9.0.4*%
%TF.CreationDate,2026-03-12T13:52:19-04:00*%
%TF.ProjectId,Power Amp Board,506f7765-7220-4416-9d70-20426f617264,rev?*%
%TF.SameCoordinates,Original*%
%TF.FileFunction,Copper,L4,Bot*%
%TF.FilePolarity,Positive*%
%FSLAX46Y46*%
G04 Gerber Fmt 4.6, Leading zero omitted, Abs format (unit mm)*
G04 Created by KiCad (PCBNEW 9.0.4) date 2026-03-12 13:52:19*
%MOMM*%
%LPD*%
G01*
G04 APERTURE LIST*
G04 Aperture macros list*
%AMRoundRect*
0 Rectangle with rounded corners*
0 $1 Rounding radius*
0 $2 $3 $4 $5 $6 $7 $8 $9 X,Y pos of 4 corners*
0 Add a 4 corners polygon primitive as box body*
4,1,4,$2,$3,$4,$5,$6,$7,$8,$9,$2,$3,0*
0 Add four circle primitives for the rounded corners*
1,1,$1+$1,$2,$3*
1,1,$1+$1,$4,$5*
1,1,$1+$1,$6,$7*
1,1,$1+$1,$8,$9*
0 Add four rect primitives between the rounded corners*
20,1,$1+$1,$2,$3,$4,$5,0*
20,1,$1+$1,$4,$5,$6,$7,0*
20,1,$1+$1,$6,$7,$8,$9,0*
20,1,$1+$1,$8,$9,$2,$3,0*%
%AMHorizOval*
0 Thick line with rounded ends*
0 $1 width*
0 $2 $3 position (X,Y) of the first rounded end (center of the circle)*
0 $4 $5 position (X,Y) of the second rounded end (center of the circle)*
0 Add line between two ends*
20,1,$1,$2,$3,$4,$5,0*
0 Add two circle primitives to create the rounded ends*
1,1,$1,$2,$3*
1,1,$1,$4,$5*%
G04 Aperture macros list end*
%TA.AperFunction,ComponentPad*%
%ADD10RoundRect,0.250001X1.099999X1.399999X-1.099999X1.399999X-1.099999X-1.399999X1.099999X-1.399999X0*%
%TD*%
%TA.AperFunction,ComponentPad*%
%ADD11O,2.700000X3.300000*%
%TD*%
%TA.AperFunction,ComponentPad*%
%ADD12RoundRect,0.250002X-1.599998X-1.599998X1.599998X-1.599998X1.599998X1.599998X-1.599998X1.599998X0*%
%TD*%
%TA.AperFunction,ComponentPad*%
%ADD13C,3.700000*%
%TD*%
%TA.AperFunction,ComponentPad*%
%ADD14R,1.500000X1.050000*%
%TD*%
%TA.AperFunction,ComponentPad*%
%ADD15O,1.500000X1.050000*%
%TD*%
%TA.AperFunction,ComponentPad*%
%ADD16RoundRect,0.250001X0.212132X-1.767766X1.767766X-0.212132X-0.212132X1.767766X-1.767766X0.212132X0*%
%TD*%
%TA.AperFunction,ComponentPad*%
%ADD17HorizOval,2.700000X-0.212132X0.212132X0.212132X-0.212132X0*%
%TD*%
%TA.AperFunction,ComponentPad*%
%ADD18C,7.000000*%
%TD*%
%TA.AperFunction,ComponentPad*%
%ADD19C,5.000000*%
%TD*%
%TA.AperFunction,ViaPad*%
%ADD20C,0.700000*%
%TD*%
%TA.AperFunction,Conductor*%
%ADD21C,0.800000*%
%TD*%
G04 APERTURE END LIST*
D10*
%TO.P,J2,1,Pin_1*%
%TO.N,/audio_in+*%
X140000000Y-82200000D03*
D11*
%TO.P,J2,2,Pin_2*%
%TO.N,GND*%
X140000000Y-76700000D03*
%TD*%
D12*
%TO.P,J1,1,Pin_1*%
%TO.N,24V*%
X126500000Y-113500000D03*
D13*
%TO.P,J1,2,Pin_2*%
%TO.N,-24V*%
X132200000Y-113500000D03*
%TO.P,J1,3,Pin_3*%
%TO.N,GND*%
X126500000Y-119200000D03*
%TO.P,J1,4,Pin_4*%
X132200000Y-119200000D03*
%TD*%
D10*
%TO.P,P1,1,H*%
%TO.N,/buffer*%
X127800000Y-82200000D03*
D11*
%TO.P,P1,2,W*%
%TO.N,/post_pot*%
X123600000Y-82200000D03*
%TO.P,P1,3,L*%
%TO.N,GND*%
X127800000Y-76700000D03*
%TO.P,P1,4,GND*%
X123600000Y-76700000D03*
%TD*%
D14*
%TO.P,Q1,1,C*%
%TO.N,Net-(Q1-C)*%
X132880000Y-92475000D03*
D15*
%TO.P,Q1,2,B*%
%TO.N,Net-(D1-A)*%
X132880000Y-93745000D03*
%TO.P,Q1,3,E*%
%TO.N,Net-(Q1-E)*%
X132880000Y-95015000D03*
%TD*%
D16*
%TO.P,J3,1,Pin_1*%
%TO.N,/audio_out+*%
X144328213Y-111701903D03*
D17*
%TO.P,J3,2,Pin_2*%
%TO.N,GND*%
X148217300Y-115590990D03*
%TD*%
D14*
%TO.P,Q2,1,C*%
%TO.N,Net-(Q2-C)*%
X133600000Y-103140000D03*
D15*
%TO.P,Q2,2,B*%
%TO.N,Net-(D2-K)*%
X133600000Y-101870000D03*
%TO.P,Q2,3,E*%
%TO.N,Net-(Q2-E)*%
X133600000Y-100600000D03*
%TD*%
D18*
%TO.P,Q3,1,E*%
%TO.N,Net-(Q3-E)*%
X152342532Y-89813140D03*
X178409896Y-74763140D03*
D19*
%TO.P,Q3,2,B*%
%TO.N,Net-(Q1-C)*%
X164248361Y-76634641D03*
%TO.P,Q3,3,C*%
%TO.N,/audio_out+*%
X169708361Y-86091639D03*
%TD*%
D18*
%TO.P,Q4,1,E*%
%TO.N,Net-(Q4-E)*%
X178150088Y-120250000D03*
X152082724Y-105200000D03*
D19*
%TO.P,Q4,2,B*%
%TO.N,Net-(Q2-C)*%
X160784259Y-116528499D03*
%TO.P,Q4,3,C*%
%TO.N,/audio_out+*%
X166244259Y-107071501D03*
%TD*%
D18*
%TO.P,Q6,1,E*%
%TO.N,Net-(Q6-E)*%
X213868037Y-120250000D03*
X187800673Y-105200000D03*
D19*
%TO.P,Q6,2,B*%
%TO.N,Net-(Q2-C)*%
X196502208Y-116528499D03*
%TO.P,Q6,3,C*%
%TO.N,/audio_out+*%
X201962208Y-107071501D03*
%TD*%
D18*
%TO.P,Q5,1,E*%
%TO.N,Net-(Q5-E)*%
X188060481Y-89813140D03*
X214127845Y-74763140D03*
D19*
%TO.P,Q5,2,B*%
%TO.N,Net-(Q1-C)*%
X199966310Y-76634641D03*
%TO.P,Q5,3,C*%
%TO.N,/audio_out+*%
X205426310Y-86091639D03*
%TD*%
D20*
%TO.N,GND*%
X126640000Y-91895000D03*
X128400000Y-106400000D03*
X210800000Y-81000000D03*
X175600000Y-90000000D03*
X130000000Y-106400000D03*
X119800000Y-96600000D03*
X145000000Y-92200000D03*
X179600000Y-90000000D03*
X126600000Y-105400000D03*
X219200000Y-80800000D03*
X154800000Y-71200000D03*
X146200000Y-71200000D03*
X159800000Y-82600000D03*
X178600000Y-105000000D03*
X205600000Y-71600000D03*
X173800000Y-105000000D03*
X125400000Y-86200000D03*
X201600000Y-98000000D03*
X209000000Y-114600000D03*
X164000000Y-71400000D03*
X133040000Y-97695000D03*
X201200000Y-122000000D03*
X131800000Y-105400000D03*
%TO.N,-24V*%
X217600000Y-104200000D03*
X217600000Y-103200000D03*
X215600000Y-105200000D03*
X189000000Y-125800000D03*
X190000000Y-125800000D03*
X215600000Y-104200000D03*
X188000000Y-123800000D03*
X216600000Y-105200000D03*
X216600000Y-104200000D03*
X188000000Y-126800000D03*
X127640000Y-102895000D03*
X126440000Y-96695000D03*
X215600000Y-103200000D03*
X216600000Y-103200000D03*
X132200000Y-82600000D03*
X190000000Y-126800000D03*
X188000000Y-124800000D03*
X188000000Y-125800000D03*
X217600000Y-105200000D03*
X189000000Y-126800000D03*
X189000000Y-124800000D03*
%TO.N,24V*%
X135800000Y-90000000D03*
X218000000Y-91800000D03*
X217000000Y-92800000D03*
X188600000Y-70000000D03*
X187600000Y-69000000D03*
X189600000Y-70000000D03*
X216000000Y-92800000D03*
X190600000Y-69000000D03*
X121240000Y-90895000D03*
X187600000Y-71000000D03*
X188600000Y-69000000D03*
X216000000Y-91800000D03*
X218000000Y-90800000D03*
X128640000Y-90495000D03*
X216000000Y-90800000D03*
X217000000Y-91800000D03*
X217000000Y-90800000D03*
X188600000Y-71000000D03*
X218000000Y-92800000D03*
X187600000Y-70000000D03*
X189600000Y-69000000D03*
%TD*%
D21*
%TO.N,Net-(Q3-E)*%
X173636860Y-74763140D02*
X178409896Y-74763140D01*
X158586860Y-89813140D02*
X173636860Y-74763140D01*
X152342532Y-89813140D02*
X158586860Y-89813140D01*
%TO.N,Net-(Q5-E)*%
X193386860Y-89813140D02*
X202000000Y-81200000D01*
X204000000Y-81200000D02*
X210436860Y-74763140D01*
X188060481Y-89813140D02*
X193386860Y-89813140D01*
X202000000Y-81200000D02*
X204000000Y-81200000D01*
X210436860Y-74763140D02*
X214127845Y-74763140D01*
%TD*%
%TA.AperFunction,Conductor*%
%TO.N,-24V*%
G36*
X137592537Y-81099757D02*
G01*
X137638293Y-81152559D01*
X137649500Y-81204074D01*
X137649500Y-83664221D01*
X137659904Y-83796412D01*
X137659905Y-83796419D01*
X137714902Y-84014678D01*
X137714903Y-84014681D01*
X137807991Y-84219622D01*
X137807997Y-84219632D01*
X137936174Y-84404645D01*
X137936178Y-84404650D01*
X137936181Y-84404654D01*
X138095346Y-84563819D01*
X138095350Y-84563822D01*
X138095354Y-84563825D01*
X138165790Y-84612623D01*
X138280374Y-84692007D01*
X138485317Y-84785096D01*
X138485321Y-84785097D01*
X138703580Y-84840094D01*
X138703583Y-84840094D01*
X138703589Y-84840096D01*
X138785730Y-84846560D01*
X138851017Y-84871444D01*
X138892488Y-84927675D01*
X138900000Y-84970178D01*
X138900000Y-97760254D01*
X200125712Y-97863679D01*
X200192716Y-97883477D01*
X200238381Y-97936358D01*
X200249500Y-97987679D01*
X200249500Y-98106287D01*
X200282754Y-98316243D01*
X200310883Y-98402816D01*
X200348444Y-98518414D01*
X200444951Y-98707820D01*
X200569890Y-98879786D01*
X200720213Y-99030109D01*
X200892179Y-99155048D01*
X200892181Y-99155049D01*
X200892184Y-99155051D01*
X201081588Y-99251557D01*
X201283757Y-99317246D01*
X201493713Y-99350500D01*
X201493714Y-99350500D01*
X201706286Y-99350500D01*
X201706287Y-99350500D01*
X201916243Y-99317246D01*
X202118412Y-99251557D01*
X202307816Y-99155051D01*
X202329789Y-99139086D01*
X202479786Y-99030109D01*
X202479788Y-99030106D01*
X202479792Y-99030104D01*
X202630104Y-98879792D01*
X202630106Y-98879788D01*
X202630109Y-98879786D01*
X202755048Y-98707820D01*
X202755047Y-98707820D01*
X202755051Y-98707816D01*
X202851557Y-98518412D01*
X202917246Y-98316243D01*
X202950500Y-98106287D01*
X202950500Y-97992660D01*
X202970185Y-97925621D01*
X203022989Y-97879866D01*
X203074701Y-97868661D01*
X221002023Y-97898945D01*
X221069026Y-97918742D01*
X221114691Y-97971623D01*
X221125810Y-98022944D01*
X221125810Y-123197293D01*
X221125692Y-123202702D01*
X221108924Y-123586752D01*
X221107981Y-123597528D01*
X221058160Y-123975956D01*
X221056282Y-123986610D01*
X220973663Y-124359276D01*
X220970863Y-124369724D01*
X220856085Y-124733756D01*
X220852385Y-124743922D01*
X220706312Y-125096574D01*
X220701740Y-125106378D01*
X220525493Y-125444944D01*
X220520085Y-125454312D01*
X220314991Y-125776247D01*
X220308786Y-125785108D01*
X220076426Y-126087926D01*
X220069473Y-126096213D01*
X219811589Y-126377645D01*
X219803939Y-126385294D01*
X219522532Y-126643156D01*
X219514246Y-126650110D01*
X219211402Y-126882491D01*
X219202540Y-126888695D01*
X218880629Y-127093776D01*
X218871261Y-127099185D01*
X218532686Y-127275436D01*
X218522882Y-127280008D01*
X218170233Y-127426081D01*
X218160068Y-127429781D01*
X217796031Y-127544562D01*
X217785582Y-127547362D01*
X217412919Y-127629980D01*
X217402266Y-127631858D01*
X217023837Y-127681680D01*
X217013060Y-127682623D01*
X216629240Y-127699382D01*
X216623831Y-127699500D01*
X123029014Y-127699500D01*
X123023607Y-127699382D01*
X122639557Y-127682615D01*
X122628781Y-127681672D01*
X122250349Y-127631851D01*
X122239696Y-127629973D01*
X121867034Y-127547356D01*
X121856585Y-127544556D01*
X121492547Y-127429776D01*
X121482382Y-127426076D01*
X121129738Y-127280007D01*
X121119933Y-127275435D01*
X120781362Y-127099186D01*
X120771994Y-127093778D01*
X120450059Y-126888684D01*
X120441198Y-126882479D01*
X120138380Y-126650119D01*
X120130093Y-126643166D01*
X119863575Y-126398948D01*
X119848655Y-126385276D01*
X119841018Y-126377638D01*
X119583145Y-126096219D01*
X119576196Y-126087939D01*
X119343815Y-125785095D01*
X119337611Y-125776233D01*
X119132522Y-125454308D01*
X119127129Y-125444968D01*
X118950867Y-125106372D01*
X118946298Y-125096574D01*
X118811373Y-124770836D01*
X118800220Y-124743911D01*
X118796531Y-124733776D01*
X118681738Y-124369702D01*
X118678949Y-124359290D01*
X118596325Y-123986599D01*
X118594452Y-123975972D01*
X118544626Y-123597507D01*
X118543686Y-123586772D01*
X118526928Y-123202931D01*
X118526810Y-123197522D01*
X118526810Y-119396907D01*
X119702500Y-119396907D01*
X119702500Y-119653092D01*
X119709412Y-119696730D01*
X119742574Y-119906107D01*
X119821736Y-120149743D01*
X119938037Y-120377996D01*
X120088612Y-120585245D01*
X120269755Y-120766388D01*
X120477004Y-120916963D01*
X120705257Y-121033264D01*
X120948893Y-121112426D01*
X121079249Y-121133072D01*
X121201908Y-121152500D01*
X121201913Y-121152500D01*
X121458092Y-121152500D01*
X121569908Y-121134789D01*
X121711107Y-121112426D01*
X121954743Y-121033264D01*
X122182996Y-120916963D01*
X122390245Y-120766388D01*
X122571388Y-120585245D01*
X122721963Y-120377996D01*
X122838264Y-120149743D01*
X122917426Y-119906107D01*
X122950588Y-119696730D01*
X122957500Y-119653092D01*
X122957500Y-119396907D01*
X122936247Y-119262726D01*
X122917426Y-119143893D01*
X122838264Y-118900257D01*
X122721963Y-118672004D01*
X122571388Y-118464755D01*
X122390245Y-118283612D01*
X122182996Y-118133037D01*
X121954743Y-118016736D01*
X121711107Y-117937574D01*
X121458092Y-117897500D01*
X121458087Y-117897500D01*
X121201913Y-117897500D01*
X121201908Y-117897500D01*
X120948892Y-117937574D01*
X120705254Y-118016737D01*
X120477003Y-118133037D01*
X120269752Y-118283614D01*
X120088614Y-118464752D01*
X119938037Y-118672003D01*
X119821737Y-118900254D01*
X119742574Y-119143892D01*
X119702500Y-119396907D01*
X118526810Y-119396907D01*
X118526810Y-111835766D01*
X123649500Y-111835766D01*
X123649500Y-115164233D01*
X123659903Y-115296411D01*
X123659904Y-115296418D01*
X123714901Y-115514677D01*
X123714902Y-115514680D01*
X123807990Y-115719623D01*
X123807996Y-115719632D01*
X123936173Y-115904645D01*
X123936177Y-115904650D01*
X123936180Y-115904654D01*
X124095346Y-116063820D01*
X124095350Y-116063823D01*
X124095354Y-116063826D01*
X124199563Y-116136022D01*
X124280374Y-116192008D01*
X124485318Y-116285097D01*
X124485322Y-116285098D01*
X124703581Y-116340095D01*
X124703583Y-116340095D01*
X124703590Y-116340097D01*
X124835772Y-116350500D01*
X125304036Y-116350500D01*
X125371075Y-116370185D01*
X125416830Y-116422989D01*
X125426774Y-116492147D01*
X125397749Y-116555703D01*
X125357838Y-116586220D01*
X125118989Y-116701243D01*
X124847900Y-116871580D01*
X124597587Y-117071197D01*
X124371197Y-117297587D01*
X124171580Y-117547900D01*
X124001243Y-117818989D01*
X123862332Y-118107440D01*
X123756590Y-118409635D01*
X123756589Y-118409637D01*
X123685347Y-118721771D01*
X123685345Y-118721783D01*
X123649500Y-119039914D01*
X123649500Y-119360085D01*
X123685345Y-119678216D01*
X123685347Y-119678228D01*
X123756589Y-119990362D01*
X123756590Y-119990364D01*
X123862332Y-120292559D01*
X124001243Y-120581010D01*
X124001245Y-120581013D01*
X124171581Y-120852101D01*
X124371198Y-121102413D01*
X124597587Y-121328802D01*
X124847899Y-121528419D01*
X125118987Y-121698755D01*
X125407442Y-121837668D01*
X125709637Y-121943410D01*
X126021771Y-122014653D01*
X126339915Y-122050499D01*
X126339916Y-122050500D01*
X126339919Y-122050500D01*
X126660084Y-122050500D01*
X126660084Y-122050499D01*
X126978229Y-122014653D01*
X127290363Y-121943410D01*
X127592558Y-121837668D01*
X127881013Y-121698755D01*
X128152101Y-121528419D01*
X128402413Y-121328802D01*
X128628802Y-121102413D01*
X128828419Y-120852101D01*
X128998755Y-120581013D01*
X129137668Y-120292558D01*
X129232958Y-120020232D01*
X129273680Y-119963457D01*
X129338633Y-119937709D01*
X129407194Y-119951165D01*
X129457597Y-119999552D01*
X129467042Y-120020233D01*
X129562332Y-120292559D01*
X129701243Y-120581010D01*
X129701245Y-120581013D01*
X129871581Y-120852101D01*
X130071198Y-121102413D01*
X130297587Y-121328802D01*
X130547899Y-121528419D01*
X130818987Y-121698755D01*
X131107442Y-121837668D01*
X131409637Y-121943410D01*
X131721771Y-122014653D01*
X132039915Y-122050499D01*
X132039916Y-122050500D01*
X132039919Y-122050500D01*
X132360084Y-122050500D01*
X132360084Y-122050499D01*
X132678229Y-122014653D01*
X132990363Y-121943410D01*
X133292558Y-121837668D01*
X133581013Y-121698755D01*
X133852101Y-121528419D01*
X134102413Y-121328802D01*
X134328802Y-121102413D01*
X134528419Y-120852101D01*
X134698755Y-120581013D01*
X134837668Y-120292558D01*
X134943410Y-119990363D01*
X135014653Y-119678229D01*
X135046351Y-119396907D01*
X135742500Y-119396907D01*
X135742500Y-119653092D01*
X135749412Y-119696730D01*
X135782574Y-119906107D01*
X135861736Y-120149743D01*
X135978037Y-120377996D01*
X136128612Y-120585245D01*
X136309755Y-120766388D01*
X136517004Y-120916963D01*
X136745257Y-121033264D01*
X136988893Y-121112426D01*
X137119249Y-121133072D01*
X137241908Y-121152500D01*
X137241913Y-121152500D01*
X137498092Y-121152500D01*
X137609908Y-121134789D01*
X137751107Y-121112426D01*
X137994743Y-121033264D01*
X138222996Y-120916963D01*
X138430245Y-120766388D01*
X138611388Y-120585245D01*
X138761963Y-120377996D01*
X138878264Y-120149743D01*
X138909536Y-120053499D01*
X173649588Y-120053499D01*
X173649588Y-120446500D01*
X173683839Y-120837995D01*
X173683839Y-120837999D01*
X173752079Y-121225005D01*
X173752081Y-121225016D01*
X173770079Y-121292184D01*
X173853795Y-121604616D01*
X173938619Y-121837668D01*
X173988212Y-121973921D01*
X174154283Y-122330062D01*
X174154295Y-122330086D01*
X174350783Y-122670412D01*
X174350792Y-122670427D01*
X174576203Y-122992347D01*
X174712726Y-123155048D01*
X174828810Y-123293391D01*
X175106697Y-123571278D01*
X175137981Y-123597528D01*
X175407740Y-123823884D01*
X175407746Y-123823888D01*
X175407747Y-123823889D01*
X175729667Y-124049300D01*
X176070008Y-124245796D01*
X176070022Y-124245802D01*
X176070025Y-124245804D01*
X176426166Y-124411875D01*
X176426171Y-124411876D01*
X176426180Y-124411881D01*
X176795472Y-124546293D01*
X177175073Y-124648007D01*
X177562095Y-124716249D01*
X177953590Y-124750499D01*
X177953591Y-124750500D01*
X177953592Y-124750500D01*
X178346585Y-124750500D01*
X178346585Y-124750499D01*
X178738081Y-124716249D01*
X179125103Y-124648007D01*
X179504704Y-124546293D01*
X179873996Y-124411881D01*
X180230168Y-124245796D01*
X180570509Y-124049300D01*
X180892429Y-123823889D01*
X181193479Y-123571278D01*
X181471366Y-123293391D01*
X181723977Y-122992341D01*
X181949388Y-122670421D01*
X182145884Y-122330080D01*
X182311969Y-121973908D01*
X182341158Y-121893713D01*
X199849500Y-121893713D01*
X199849500Y-122106286D01*
X199882753Y-122316239D01*
X199948444Y-122518414D01*
X200044951Y-122707820D01*
X200169890Y-122879786D01*
X200320213Y-123030109D01*
X200492179Y-123155048D01*
X200492181Y-123155049D01*
X200492184Y-123155051D01*
X200681588Y-123251557D01*
X200883757Y-123317246D01*
X201093713Y-123350500D01*
X201093714Y-123350500D01*
X201306286Y-123350500D01*
X201306287Y-123350500D01*
X201516243Y-123317246D01*
X201718412Y-123251557D01*
X201907816Y-123155051D01*
X201936642Y-123134108D01*
X202079786Y-123030109D01*
X202079788Y-123030106D01*
X202079792Y-123030104D01*
X202230104Y-122879792D01*
X202230106Y-122879788D01*
X202230109Y-122879786D01*
X202355048Y-122707820D01*
X202355047Y-122707820D01*
X202355051Y-122707816D01*
X202451557Y-122518412D01*
X202517246Y-122316243D01*
X202550500Y-122106287D01*
X202550500Y-121893713D01*
X202517246Y-121683757D01*
X202451557Y-121481588D01*
X202355051Y-121292184D01*
X202355049Y-121292181D01*
X202355048Y-121292179D01*
X202230109Y-121120213D01*
X202079786Y-120969890D01*
X201907820Y-120844951D01*
X201718414Y-120748444D01*
X201718413Y-120748443D01*
X201718412Y-120748443D01*
X201516243Y-120682754D01*
X201516241Y-120682753D01*
X201516240Y-120682753D01*
X201354957Y-120657208D01*
X201306287Y-120649500D01*
X201093713Y-120649500D01*
X201045042Y-120657208D01*
X200883760Y-120682753D01*
X200681585Y-120748444D01*
X200492179Y-120844951D01*
X200320213Y-120969890D01*
X200169890Y-121120213D01*
X200044951Y-121292179D01*
X199948444Y-121481585D01*
X199882753Y-121683760D01*
X199849500Y-121893713D01*
X182341158Y-121893713D01*
X182446381Y-121604616D01*
X182548095Y-121225015D01*
X182615110Y-120844951D01*
X182616336Y-120837999D01*
X182616336Y-120837998D01*
X182616337Y-120837993D01*
X182650588Y-120446496D01*
X182650588Y-120053504D01*
X182650588Y-120053499D01*
X209367537Y-120053499D01*
X209367537Y-120446500D01*
X209401788Y-120837995D01*
X209401788Y-120837999D01*
X209470028Y-121225005D01*
X209470030Y-121225016D01*
X209488028Y-121292184D01*
X209571744Y-121604616D01*
X209656568Y-121837668D01*
X209706161Y-121973921D01*
X209872232Y-122330062D01*
X209872244Y-122330086D01*
X210068732Y-122670412D01*
X210068741Y-122670427D01*
X210294152Y-122992347D01*
X210430675Y-123155048D01*
X210546759Y-123293391D01*
X210824646Y-123571278D01*
X210855930Y-123597528D01*
X211125689Y-123823884D01*
X211125695Y-123823888D01*
X211125696Y-123823889D01*
X211447616Y-124049300D01*
X211787957Y-124245796D01*
X211787971Y-124245802D01*
X211787974Y-124245804D01*
X212144115Y-124411875D01*
X212144120Y-124411876D01*
X212144129Y-124411881D01*
X212513421Y-124546293D01*
X212893022Y-124648007D01*
X213280044Y-124716249D01*
X213671539Y-124750499D01*
X213671540Y-124750500D01*
X213671541Y-124750500D01*
X214064534Y-124750500D01*
X214064534Y-124750499D01*
X214456030Y-124716249D01*
X214843052Y-124648007D01*
X215222653Y-124546293D01*
X215591945Y-124411881D01*
X215948117Y-124245796D01*
X216288458Y-124049300D01*
X216610378Y-123823889D01*
X216911428Y-123571278D01*
X217189315Y-123293391D01*
X217441926Y-122992341D01*
X217667337Y-122670421D01*
X217863833Y-122330080D01*
X218029918Y-121973908D01*
X218164330Y-121604616D01*
X218266044Y-121225015D01*
X218333059Y-120844951D01*
X218334285Y-120837999D01*
X218334285Y-120837998D01*
X218334286Y-120837993D01*
X218368537Y-120446496D01*
X218368537Y-120053504D01*
X218334286Y-119662007D01*
X218266044Y-119274985D01*
X218164330Y-118895384D01*
X218029918Y-118526092D01*
X218029913Y-118526083D01*
X218029912Y-118526078D01*
X217863841Y-118169937D01*
X217863829Y-118169913D01*
X217785159Y-118033653D01*
X217667337Y-117829579D01*
X217441926Y-117507659D01*
X217441925Y-117507658D01*
X217441921Y-117507652D01*
X217189312Y-117206606D01*
X216911430Y-116928724D01*
X216610384Y-116676115D01*
X216288464Y-116450704D01*
X216288461Y-116450702D01*
X216288458Y-116450700D01*
X216149002Y-116370185D01*
X215948123Y-116254207D01*
X215948099Y-116254195D01*
X215591958Y-116088124D01*
X215591947Y-116088120D01*
X215591945Y-116088119D01*
X215222653Y-115953707D01*
X214981997Y-115889223D01*
X214843053Y-115851993D01*
X214843042Y-115851991D01*
X214456034Y-115783751D01*
X214064537Y-115749500D01*
X214064533Y-115749500D01*
X213671541Y-115749500D01*
X213671536Y-115749500D01*
X213280041Y-115783751D01*
X213280037Y-115783751D01*
X212893031Y-115851991D01*
X212893020Y-115851993D01*
X212696522Y-115904645D01*
X212513421Y-115953707D01*
X212513418Y-115953708D01*
X212513417Y-115953708D01*
X212144115Y-116088124D01*
X211787974Y-116254195D01*
X211787950Y-116254207D01*
X211447624Y-116450695D01*
X211447609Y-116450704D01*
X211125689Y-116676115D01*
X210824643Y-116928724D01*
X210546761Y-117206606D01*
X210294152Y-117507652D01*
X210068741Y-117829572D01*
X210068732Y-117829587D01*
X209872244Y-118169913D01*
X209872232Y-118169937D01*
X209706161Y-118526078D01*
X209576568Y-118882131D01*
X209571744Y-118895384D01*
X209534205Y-119035481D01*
X209470030Y-119274983D01*
X209470028Y-119274994D01*
X209401788Y-119662000D01*
X209401788Y-119662004D01*
X209367537Y-120053499D01*
X182650588Y-120053499D01*
X182616337Y-119662007D01*
X182548095Y-119274985D01*
X182446381Y-118895384D01*
X182311969Y-118526092D01*
X182311964Y-118526083D01*
X182311963Y-118526078D01*
X182145892Y-118169937D01*
X182145880Y-118169913D01*
X182067210Y-118033653D01*
X181949388Y-117829579D01*
X181723977Y-117507659D01*
X181723976Y-117507658D01*
X181723972Y-117507652D01*
X181471363Y-117206606D01*
X181193481Y-116928724D01*
X180892435Y-116676115D01*
X180576737Y-116455061D01*
X180576735Y-116455058D01*
X180570533Y-116450716D01*
X180570520Y-116450707D01*
X180570509Y-116450700D01*
X180431053Y-116370185D01*
X180407402Y-116356530D01*
X193001708Y-116356530D01*
X193001708Y-116700468D01*
X193001785Y-116701245D01*
X193035418Y-117042748D01*
X193102516Y-117380071D01*
X193202358Y-117709205D01*
X193333978Y-118026963D01*
X193333980Y-118026968D01*
X193496101Y-118330274D01*
X193496112Y-118330292D01*
X193687183Y-118616250D01*
X193687193Y-118616264D01*
X193905384Y-118882131D01*
X194148575Y-119125322D01*
X194148580Y-119125326D01*
X194148581Y-119125327D01*
X194414448Y-119343518D01*
X194700421Y-119534599D01*
X194700430Y-119534604D01*
X194700432Y-119534605D01*
X195003738Y-119696726D01*
X195003740Y-119696726D01*
X195003746Y-119696730D01*
X195321503Y-119828349D01*
X195650630Y-119928189D01*
X195987958Y-119995288D01*
X196330239Y-120028999D01*
X196330242Y-120028999D01*
X196674174Y-120028999D01*
X196674177Y-120028999D01*
X197016458Y-119995288D01*
X197353786Y-119928189D01*
X197682913Y-119828349D01*
X198000670Y-119696730D01*
X198303995Y-119534599D01*
X198589968Y-119343518D01*
X198855835Y-119125327D01*
X199099036Y-118882126D01*
X199317227Y-118616259D01*
X199508308Y-118330286D01*
X199670439Y-118026961D01*
X199802058Y-117709204D01*
X199901898Y-117380077D01*
X199968997Y-117042749D01*
X200002708Y-116700468D01*
X200002708Y-116356530D01*
X199968997Y-116014249D01*
X199901898Y-115676921D01*
X199802058Y-115347794D01*
X199670439Y-115030037D01*
X199611258Y-114919318D01*
X199508314Y-114726723D01*
X199508313Y-114726721D01*
X199508308Y-114726712D01*
X199384630Y-114541615D01*
X199352623Y-114493713D01*
X207649500Y-114493713D01*
X207649500Y-114706287D01*
X207682754Y-114916243D01*
X207719725Y-115030029D01*
X207748444Y-115118414D01*
X207844951Y-115307820D01*
X207969890Y-115479786D01*
X208120213Y-115630109D01*
X208292179Y-115755048D01*
X208292181Y-115755049D01*
X208292184Y-115755051D01*
X208481588Y-115851557D01*
X208683757Y-115917246D01*
X208893713Y-115950500D01*
X208893714Y-115950500D01*
X209106286Y-115950500D01*
X209106287Y-115950500D01*
X209316243Y-115917246D01*
X209518412Y-115851557D01*
X209707816Y-115755051D01*
X209742215Y-115730059D01*
X209879786Y-115630109D01*
X209879788Y-115630106D01*
X209879792Y-115630104D01*
X210030104Y-115479792D01*
X210030106Y-115479788D01*
X210030109Y-115479786D01*
X210155048Y-115307820D01*
X210155047Y-115307820D01*
X210155051Y-115307816D01*
X210251557Y-115118412D01*
X210317246Y-114916243D01*
X210350500Y-114706287D01*
X210350500Y-114493713D01*
X210317246Y-114283757D01*
X210251557Y-114081588D01*
X210155051Y-113892184D01*
X210155049Y-113892181D01*
X210155048Y-113892179D01*
X210030109Y-113720213D01*
X209879786Y-113569890D01*
X209707820Y-113444951D01*
X209518414Y-113348444D01*
X209518413Y-113348443D01*
X209518412Y-113348443D01*
X209316243Y-113282754D01*
X209316241Y-113282753D01*
X209316240Y-113282753D01*
X209154957Y-113257208D01*
X209106287Y-113249500D01*
X208893713Y-113249500D01*
X208845042Y-113257208D01*
X208683760Y-113282753D01*
X208481585Y-113348444D01*
X208292179Y-113444951D01*
X208120213Y-113569890D01*
X207969890Y-113720213D01*
X207844951Y-113892179D01*
X207748444Y-114081585D01*
X207682753Y-114283760D01*
X207650812Y-114485432D01*
X207649500Y-114493713D01*
X199352623Y-114493713D01*
X199317239Y-114440756D01*
X199317232Y-114440746D01*
X199317227Y-114440739D01*
X199099036Y-114174872D01*
X199099035Y-114174871D01*
X199099031Y-114174866D01*
X198855840Y-113931675D01*
X198589973Y-113713484D01*
X198589972Y-113713483D01*
X198589968Y-113713480D01*
X198303995Y-113522399D01*
X198303990Y-113522396D01*
X198303983Y-113522392D01*
X198000677Y-113360271D01*
X198000672Y-113360269D01*
X197682914Y-113228649D01*
X197353780Y-113128807D01*
X197016456Y-113061709D01*
X197016457Y-113061709D01*
X196758664Y-113036320D01*
X196674177Y-113027999D01*
X196330239Y-113027999D01*
X196252174Y-113035687D01*
X195987958Y-113061709D01*
X195650635Y-113128807D01*
X195321501Y-113228649D01*
X195003743Y-113360269D01*
X195003738Y-113360271D01*
X194700432Y-113522392D01*
X194700414Y-113522403D01*
X194414456Y-113713474D01*
X194414442Y-113713484D01*
X194148575Y-113931675D01*
X193905384Y-114174866D01*
X193687193Y-114440733D01*
X193687183Y-114440747D01*
X193496112Y-114726705D01*
X193496101Y-114726723D01*
X193333980Y-115030029D01*
X193333978Y-115030034D01*
X193202358Y-115347792D01*
X193102516Y-115676926D01*
X193035418Y-116014249D01*
X193011787Y-116254195D01*
X193001708Y-116356530D01*
X180407402Y-116356530D01*
X180230174Y-116254207D01*
X180230150Y-116254195D01*
X179874009Y-116088124D01*
X179873998Y-116088120D01*
X179873996Y-116088119D01*
X179504704Y-115953707D01*
X179264048Y-115889223D01*
X179125104Y-115851993D01*
X179125093Y-115851991D01*
X178738085Y-115783751D01*
X178346588Y-115749500D01*
X178346584Y-115749500D01*
X177953592Y-115749500D01*
X177953587Y-115749500D01*
X177562092Y-115783751D01*
X177562088Y-115783751D01*
X177175082Y-115851991D01*
X177175071Y-115851993D01*
X176978573Y-115904645D01*
X176795472Y-115953707D01*
X176795469Y-115953708D01*
X176795468Y-115953708D01*
X176426166Y-116088124D01*
X176070025Y-116254195D01*
X176070001Y-116254207D01*
X175729675Y-116450695D01*
X175729660Y-116450704D01*
X175407740Y-116676115D01*
X175106694Y-116928724D01*
X174828812Y-117206606D01*
X174576203Y-117507652D01*
X174350792Y-117829572D01*
X174350783Y-117829587D01*
X174154295Y-118169913D01*
X174154283Y-118169937D01*
X173988212Y-118526078D01*
X173858619Y-118882131D01*
X173853795Y-118895384D01*
X173816256Y-119035481D01*
X173752081Y-119274983D01*
X173752079Y-119274994D01*
X173683839Y-119662000D01*
X173683839Y-119662004D01*
X173649588Y-120053499D01*
X138909536Y-120053499D01*
X138957426Y-119906107D01*
X138990588Y-119696730D01*
X138997500Y-119653092D01*
X138997500Y-119396907D01*
X138976247Y-119262726D01*
X138957426Y-119143893D01*
X138878264Y-118900257D01*
X138761963Y-118672004D01*
X138611388Y-118464755D01*
X138430245Y-118283612D01*
X138222996Y-118133037D01*
X137994743Y-118016736D01*
X137751107Y-117937574D01*
X137498092Y-117897500D01*
X137498087Y-117897500D01*
X137241913Y-117897500D01*
X137241908Y-117897500D01*
X136988892Y-117937574D01*
X136745254Y-118016737D01*
X136517003Y-118133037D01*
X136309752Y-118283614D01*
X136128614Y-118464752D01*
X135978037Y-118672003D01*
X135861737Y-118900254D01*
X135782574Y-119143892D01*
X135742500Y-119396907D01*
X135046351Y-119396907D01*
X135050500Y-119360081D01*
X135050500Y-119039919D01*
X135014653Y-118721771D01*
X134943410Y-118409637D01*
X134837668Y-118107442D01*
X134703856Y-117829579D01*
X134698756Y-117818989D01*
X134698755Y-117818987D01*
X134528419Y-117547899D01*
X134328802Y-117297587D01*
X134102413Y-117071198D01*
X133852101Y-116871581D01*
X133581013Y-116701245D01*
X133581010Y-116701243D01*
X133292559Y-116562332D01*
X132990364Y-116456590D01*
X132990362Y-116456589D01*
X132749471Y-116401607D01*
X132678229Y-116385347D01*
X132678225Y-116385346D01*
X132678216Y-116385345D01*
X132360085Y-116349500D01*
X132360081Y-116349500D01*
X132039919Y-116349500D01*
X132039914Y-116349500D01*
X131721783Y-116385345D01*
X131721771Y-116385347D01*
X131409637Y-116456589D01*
X131409635Y-116456590D01*
X131107440Y-116562332D01*
X130818989Y-116701243D01*
X130547900Y-116871580D01*
X130297587Y-117071197D01*
X130071197Y-117297587D01*
X129871580Y-117547900D01*
X129701243Y-117818989D01*
X129562332Y-118107440D01*
X129467042Y-118379766D01*
X129426320Y-118436543D01*
X129361367Y-118462290D01*
X129292806Y-118448834D01*
X129242403Y-118400447D01*
X129232958Y-118379766D01*
X129159527Y-118169913D01*
X129137668Y-118107442D01*
X129003856Y-117829579D01*
X128998756Y-117818989D01*
X128998755Y-117818987D01*
X128828419Y-117547899D01*
X128628802Y-117297587D01*
X128402413Y-117071198D01*
X128152101Y-116871581D01*
X127881013Y-116701245D01*
X127881010Y-116701243D01*
X127642162Y-116586220D01*
X127590303Y-116539398D01*
X127571990Y-116471971D01*
X127593038Y-116405347D01*
X127646764Y-116360678D01*
X127695964Y-116350500D01*
X128164220Y-116350500D01*
X128164228Y-116350500D01*
X128296410Y-116340097D01*
X128514682Y-116285097D01*
X128719626Y-116192008D01*
X128904654Y-116063820D01*
X129063820Y-115904654D01*
X129192008Y-115719626D01*
X129285097Y-115514682D01*
X129340097Y-115296410D01*
X129350500Y-115164228D01*
X129350500Y-113345979D01*
X129850000Y-113345979D01*
X129850000Y-113654020D01*
X129850001Y-113654037D01*
X129890208Y-113959442D01*
X129969940Y-114257003D01*
X130087821Y-114541596D01*
X130087828Y-114541611D01*
X130220861Y-114772030D01*
X130220862Y-114772031D01*
X131317296Y-113675596D01*
X131334586Y-113762520D01*
X131402430Y-113926310D01*
X131500924Y-114073717D01*
X131626283Y-114199076D01*
X131773690Y-114297570D01*
X131937480Y-114365414D01*
X132024402Y-114382703D01*
X130927968Y-115479137D01*
X131158389Y-115612171D01*
X131158403Y-115612178D01*
X131442996Y-115730059D01*
X131740557Y-115809791D01*
X132045962Y-115849998D01*
X132045980Y-115850000D01*
X132354020Y-115850000D01*
X132354037Y-115849998D01*
X132659442Y-115809791D01*
X132957003Y-115730059D01*
X133241599Y-115612177D01*
X133241615Y-115612169D01*
X133472030Y-115479138D01*
X133472031Y-115479136D01*
X132375598Y-114382703D01*
X132462520Y-114365414D01*
X132626310Y-114297570D01*
X132773717Y-114199076D01*
X132899076Y-114073717D01*
X132997570Y-113926310D01*
X133065414Y-113762520D01*
X133082703Y-113675597D01*
X134179136Y-114772031D01*
X134179138Y-114772030D01*
X134312169Y-114541615D01*
X134312177Y-114541599D01*
X134430059Y-114257003D01*
X134509791Y-113959442D01*
X134549998Y-113654037D01*
X134550000Y-113654020D01*
X134550000Y-113345979D01*
X134549998Y-113345962D01*
X134509791Y-113040557D01*
X134430059Y-112742996D01*
X134312178Y-112458403D01*
X134312171Y-112458389D01*
X134179137Y-112227968D01*
X133082703Y-113324401D01*
X133065414Y-113237480D01*
X132997570Y-113073690D01*
X132899076Y-112926283D01*
X132773717Y-112800924D01*
X132626310Y-112702430D01*
X132462520Y-112634586D01*
X132375597Y-112617296D01*
X133472031Y-111520862D01*
X133472030Y-111520861D01*
X133399598Y-111479042D01*
X133241611Y-111387828D01*
X133241596Y-111387821D01*
X133216003Y-111377220D01*
X141309947Y-111377220D01*
X141309947Y-111602321D01*
X141350138Y-111823793D01*
X141350138Y-111823794D01*
X141389685Y-111929165D01*
X141429231Y-112034535D01*
X141544682Y-112227768D01*
X141630801Y-112328600D01*
X143701516Y-114399315D01*
X143750026Y-114440747D01*
X143802346Y-114485432D01*
X143802346Y-114485433D01*
X143802348Y-114485434D01*
X143995581Y-114600885D01*
X144206321Y-114679977D01*
X144427794Y-114720169D01*
X144427798Y-114720169D01*
X144652895Y-114720169D01*
X144785778Y-114696053D01*
X144874369Y-114679977D01*
X145085109Y-114600885D01*
X145278342Y-114485434D01*
X145379174Y-114399315D01*
X145842737Y-113935751D01*
X145904058Y-113902268D01*
X145973749Y-113907252D01*
X146029683Y-113949123D01*
X146054100Y-114014588D01*
X146039248Y-114082861D01*
X146037803Y-114085434D01*
X145892547Y-114337023D01*
X145892540Y-114337038D01*
X145774636Y-114621686D01*
X145694885Y-114919318D01*
X145654669Y-115224797D01*
X145654669Y-115532918D01*
X145683912Y-115755048D01*
X145694886Y-115838401D01*
X145725782Y-115953707D01*
X145774636Y-116136029D01*
X145892540Y-116420677D01*
X145892546Y-116420689D01*
X146046605Y-116687527D01*
X146046607Y-116687530D01*
X146046608Y-116687531D01*
X146234175Y-116931974D01*
X146234181Y-116931981D01*
X146876308Y-117574108D01*
X146876314Y-117574113D01*
X147120763Y-117761685D01*
X147387601Y-117915744D01*
X147387606Y-117915746D01*
X147387612Y-117915749D01*
X147672260Y-118033653D01*
X147672262Y-118033653D01*
X147672268Y-118033656D01*
X147969889Y-118113404D01*
X148199001Y-118143566D01*
X148275371Y-118153621D01*
X148275372Y-118153621D01*
X148583493Y-118153621D01*
X148644588Y-118145577D01*
X148888975Y-118113404D01*
X149186596Y-118033656D01*
X149471263Y-117915744D01*
X149738101Y-117761685D01*
X149982550Y-117574113D01*
X150200423Y-117356240D01*
X150387995Y-117111791D01*
X150542054Y-116844953D01*
X150659966Y-116560286D01*
X150714563Y-116356530D01*
X157283759Y-116356530D01*
X157283759Y-116700468D01*
X157283836Y-116701245D01*
X157317469Y-117042748D01*
X157384567Y-117380071D01*
X157484409Y-117709205D01*
X157616029Y-118026963D01*
X157616031Y-118026968D01*
X157778152Y-118330274D01*
X157778163Y-118330292D01*
X157969234Y-118616250D01*
X157969244Y-118616264D01*
X158187435Y-118882131D01*
X158430626Y-119125322D01*
X158430631Y-119125326D01*
X158430632Y-119125327D01*
X158696499Y-119343518D01*
X158982472Y-119534599D01*
X158982481Y-119534604D01*
X158982483Y-119534605D01*
X159285789Y-119696726D01*
X159285791Y-119696726D01*
X159285797Y-119696730D01*
X159603554Y-119828349D01*
X159932681Y-119928189D01*
X160270009Y-119995288D01*
X160612290Y-120028999D01*
X160612293Y-120028999D01*
X160956225Y-120028999D01*
X160956228Y-120028999D01*
X161298509Y-119995288D01*
X161635837Y-119928189D01*
X161964964Y-119828349D01*
X162282721Y-119696730D01*
X162586046Y-119534599D01*
X162872019Y-119343518D01*
X163137886Y-119125327D01*
X163381087Y-118882126D01*
X163599278Y-118616259D01*
X163790359Y-118330286D01*
X163952490Y-118026961D01*
X164084109Y-117709204D01*
X164183949Y-117380077D01*
X164251048Y-117042749D01*
X164284759Y-116700468D01*
X164284759Y-116356530D01*
X164251048Y-116014249D01*
X164183949Y-115676921D01*
X164084109Y-115347794D01*
X163952490Y-115030037D01*
X163893309Y-114919318D01*
X163790365Y-114726723D01*
X163790364Y-114726721D01*
X163790359Y-114726712D01*
X163599278Y-114440739D01*
X163381087Y-114174872D01*
X163381086Y-114174871D01*
X163381082Y-114174866D01*
X163137891Y-113931675D01*
X162872024Y-113713484D01*
X162872023Y-113713483D01*
X162872019Y-113713480D01*
X162586046Y-113522399D01*
X162586041Y-113522396D01*
X162586034Y-113522392D01*
X162282728Y-113360271D01*
X162282723Y-113360269D01*
X161964965Y-113228649D01*
X161635831Y-113128807D01*
X161298507Y-113061709D01*
X161298508Y-113061709D01*
X161040715Y-113036320D01*
X160956228Y-113027999D01*
X160612290Y-113027999D01*
X160534225Y-113035687D01*
X160270009Y-113061709D01*
X159932686Y-113128807D01*
X159603552Y-113228649D01*
X159285794Y-113360269D01*
X159285789Y-113360271D01*
X158982483Y-113522392D01*
X158982465Y-113522403D01*
X158696507Y-113713474D01*
X158696493Y-113713484D01*
X158430626Y-113931675D01*
X158187435Y-114174866D01*
X157969244Y-114440733D01*
X157969234Y-114440747D01*
X157778163Y-114726705D01*
X157778152Y-114726723D01*
X157616031Y-115030029D01*
X157616029Y-115030034D01*
X157484409Y-115347792D01*
X157384567Y-115676926D01*
X157317469Y-116014249D01*
X157293838Y-116254195D01*
X157283759Y-116356530D01*
X150714563Y-116356530D01*
X150739714Y-116262665D01*
X150779931Y-115957182D01*
X150779931Y-115649062D01*
X150739714Y-115343579D01*
X150659966Y-115045958D01*
X150659963Y-115045950D01*
X150542059Y-114761302D01*
X150542056Y-114761296D01*
X150542054Y-114761291D01*
X150387995Y-114494453D01*
X150288980Y-114365414D01*
X150200424Y-114250005D01*
X150200418Y-114249998D01*
X149558291Y-113607871D01*
X149558284Y-113607865D01*
X149313841Y-113420298D01*
X149313840Y-113420297D01*
X149313837Y-113420295D01*
X149046999Y-113266236D01*
X149046987Y-113266230D01*
X148762339Y-113148326D01*
X148689501Y-113128809D01*
X148464711Y-113068576D01*
X148464710Y-113068575D01*
X148464707Y-113068575D01*
X148159229Y-113028359D01*
X148159228Y-113028359D01*
X147851108Y-113028359D01*
X147851107Y-113028359D01*
X147545628Y-113068575D01*
X147247996Y-113148326D01*
X146963348Y-113266230D01*
X146963333Y-113266237D01*
X146711744Y-113411493D01*
X146643844Y-113427966D01*
X146577817Y-113405113D01*
X146534626Y-113350192D01*
X146527985Y-113280639D01*
X146560001Y-113218536D01*
X146562020Y-113216468D01*
X147025625Y-112752864D01*
X147111744Y-112652032D01*
X147227195Y-112458799D01*
X147306287Y-112248059D01*
X147322363Y-112159468D01*
X147346479Y-112026585D01*
X147346479Y-111801484D01*
X147309116Y-111595601D01*
X147306287Y-111580011D01*
X147227195Y-111369271D01*
X147111744Y-111176038D01*
X147025625Y-111075206D01*
X144954910Y-109004491D01*
X144854079Y-108918372D01*
X144660848Y-108802923D01*
X144660845Y-108802921D01*
X144555475Y-108763375D01*
X144450104Y-108723828D01*
X144228632Y-108683637D01*
X144228628Y-108683637D01*
X144003534Y-108683637D01*
X144003530Y-108683637D01*
X143782058Y-108723828D01*
X143782057Y-108723828D01*
X143613380Y-108787134D01*
X143571317Y-108802921D01*
X143571315Y-108802921D01*
X143571315Y-108802922D01*
X143571313Y-108802923D01*
X143378082Y-108918372D01*
X143378082Y-108918373D01*
X143277258Y-109004485D01*
X143277244Y-109004498D01*
X141630808Y-110650934D01*
X141630795Y-110650948D01*
X141544683Y-110751772D01*
X141544682Y-110751772D01*
X141429233Y-110945003D01*
X141429232Y-110945005D01*
X141350138Y-111155747D01*
X141350138Y-111155748D01*
X141309947Y-111377220D01*
X133216003Y-111377220D01*
X132957003Y-111269940D01*
X132659442Y-111190208D01*
X132354037Y-111150001D01*
X132354020Y-111150000D01*
X132045980Y-111150000D01*
X132045962Y-111150001D01*
X131740557Y-111190208D01*
X131442996Y-111269940D01*
X131158403Y-111387821D01*
X131158381Y-111387832D01*
X130927968Y-111520859D01*
X130927967Y-111520861D01*
X132024403Y-112617296D01*
X131937480Y-112634586D01*
X131773690Y-112702430D01*
X131626283Y-112800924D01*
X131500924Y-112926283D01*
X131402430Y-113073690D01*
X131334586Y-113237480D01*
X131317296Y-113324402D01*
X130220861Y-112227967D01*
X130220859Y-112227968D01*
X130087832Y-112458381D01*
X130087821Y-112458403D01*
X129969940Y-112742996D01*
X129890208Y-113040557D01*
X129850001Y-113345962D01*
X129850000Y-113345979D01*
X129350500Y-113345979D01*
X129350500Y-111835772D01*
X129340097Y-111703590D01*
X129312886Y-111595600D01*
X129312886Y-111595598D01*
X129285097Y-111485319D01*
X129232386Y-111369271D01*
X129192008Y-111280374D01*
X129101685Y-111150001D01*
X129063826Y-111095354D01*
X129063823Y-111095350D01*
X129063820Y-111095346D01*
X128904654Y-110936180D01*
X128904650Y-110936177D01*
X128904645Y-110936173D01*
X128719632Y-110807996D01*
X128719623Y-110807990D01*
X128514680Y-110714902D01*
X128514677Y-110714901D01*
X128296418Y-110659904D01*
X128296411Y-110659903D01*
X128164233Y-110649500D01*
X128164228Y-110649500D01*
X124835772Y-110649500D01*
X124835766Y-110649500D01*
X124703588Y-110659903D01*
X124703581Y-110659904D01*
X124485322Y-110714901D01*
X124485319Y-110714902D01*
X124280376Y-110807990D01*
X124280367Y-110807996D01*
X124095354Y-110936173D01*
X124095342Y-110936183D01*
X123936183Y-111095342D01*
X123936173Y-111095354D01*
X123807996Y-111280367D01*
X123807990Y-111280376D01*
X123714902Y-111485319D01*
X123714901Y-111485322D01*
X123659904Y-111703581D01*
X123659903Y-111703588D01*
X123649500Y-111835766D01*
X118526810Y-111835766D01*
X118526810Y-105293713D01*
X125249500Y-105293713D01*
X125249500Y-105506287D01*
X125282754Y-105716243D01*
X125339469Y-105890794D01*
X125348444Y-105918414D01*
X125444951Y-106107820D01*
X125569890Y-106279786D01*
X125720213Y-106430109D01*
X125892179Y-106555048D01*
X125892181Y-106555049D01*
X125892184Y-106555051D01*
X126081588Y-106651557D01*
X126283757Y-106717246D01*
X126493713Y-106750500D01*
X126493714Y-106750500D01*
X126706286Y-106750500D01*
X126706287Y-106750500D01*
X126916243Y-106717246D01*
X126949216Y-106706531D01*
X127019056Y-106704535D01*
X127078889Y-106740615D01*
X127105466Y-106786143D01*
X127148444Y-106918416D01*
X127244951Y-107107820D01*
X127369890Y-107279786D01*
X127520213Y-107430109D01*
X127692179Y-107555048D01*
X127692181Y-107555049D01*
X127692184Y-107555051D01*
X127881588Y-107651557D01*
X128083757Y-107717246D01*
X128293713Y-107750500D01*
X128293714Y-107750500D01*
X128506286Y-107750500D01*
X128506287Y-107750500D01*
X128716243Y-107717246D01*
X128918412Y-107651557D01*
X129107816Y-107555051D01*
X129127114Y-107541029D01*
X129192920Y-107517550D01*
X129260974Y-107533375D01*
X129272884Y-107541029D01*
X129292184Y-107555051D01*
X129481588Y-107651557D01*
X129683757Y-107717246D01*
X129893713Y-107750500D01*
X129893714Y-107750500D01*
X130106286Y-107750500D01*
X130106287Y-107750500D01*
X130316243Y-107717246D01*
X130518412Y-107651557D01*
X130707816Y-107555051D01*
X130759432Y-107517550D01*
X130879786Y-107430109D01*
X130879788Y-107430106D01*
X130879792Y-107430104D01*
X131030104Y-107279792D01*
X131030106Y-107279788D01*
X131030109Y-107279786D01*
X131155048Y-107107820D01*
X131155047Y-107107820D01*
X131155051Y-107107816D01*
X131251557Y-106918412D01*
X131294534Y-106786142D01*
X131333970Y-106728469D01*
X131398329Y-106701270D01*
X131450779Y-106706530D01*
X131483757Y-106717246D01*
X131693713Y-106750500D01*
X131693714Y-106750500D01*
X131906286Y-106750500D01*
X131906287Y-106750500D01*
X132116243Y-106717246D01*
X132318412Y-106651557D01*
X132507816Y-106555051D01*
X132529789Y-106539086D01*
X132679786Y-106430109D01*
X132679788Y-106430106D01*
X132679792Y-106430104D01*
X132830104Y-106279792D01*
X132830106Y-106279788D01*
X132830109Y-106279786D01*
X132955048Y-106107820D01*
X132955047Y-106107820D01*
X132955051Y-106107816D01*
X133051557Y-105918412D01*
X133117246Y-105716243D01*
X133150500Y-105506287D01*
X133150500Y-105293713D01*
X133117246Y-105083757D01*
X133091168Y-105003499D01*
X147582224Y-105003499D01*
X147582224Y-105396500D01*
X147616475Y-105787995D01*
X147616475Y-105787999D01*
X147681196Y-106155048D01*
X147684717Y-106175015D01*
X147786431Y-106554616D01*
X147918843Y-106918414D01*
X147920848Y-106923921D01*
X148086919Y-107280062D01*
X148086931Y-107280086D01*
X148283419Y-107620412D01*
X148283428Y-107620427D01*
X148508839Y-107942347D01*
X148701517Y-108171971D01*
X148761446Y-108243391D01*
X149039333Y-108521278D01*
X149097354Y-108569963D01*
X149340376Y-108773884D01*
X149340382Y-108773888D01*
X149340383Y-108773889D01*
X149662303Y-108999300D01*
X150002644Y-109195796D01*
X150002658Y-109195802D01*
X150002661Y-109195804D01*
X150358802Y-109361875D01*
X150358807Y-109361876D01*
X150358816Y-109361881D01*
X150728108Y-109496293D01*
X151107709Y-109598007D01*
X151494731Y-109666249D01*
X151886226Y-109700499D01*
X151886227Y-109700500D01*
X151886228Y-109700500D01*
X152279221Y-109700500D01*
X152279221Y-109700499D01*
X152670717Y-109666249D01*
X153057739Y-109598007D01*
X153437340Y-109496293D01*
X153806632Y-109361881D01*
X154162804Y-109195796D01*
X154503145Y-108999300D01*
X154825065Y-108773889D01*
X155126115Y-108521278D01*
X155404002Y-108243391D01*
X155656613Y-107942341D01*
X155882024Y-107620421D01*
X156078520Y-107280080D01*
X156244605Y-106923908D01*
X156253477Y-106899532D01*
X162743759Y-106899532D01*
X162743759Y-107243470D01*
X162754010Y-107347555D01*
X162777469Y-107585750D01*
X162844567Y-107923073D01*
X162944409Y-108252207D01*
X163076029Y-108569965D01*
X163076031Y-108569970D01*
X163238152Y-108873276D01*
X163238163Y-108873294D01*
X163429234Y-109159252D01*
X163429244Y-109159266D01*
X163647435Y-109425133D01*
X163890626Y-109668324D01*
X163890631Y-109668328D01*
X163890632Y-109668329D01*
X164156499Y-109886520D01*
X164442472Y-110077601D01*
X164442481Y-110077606D01*
X164442483Y-110077607D01*
X164745789Y-110239728D01*
X164745791Y-110239728D01*
X164745797Y-110239732D01*
X165063554Y-110371351D01*
X165392681Y-110471191D01*
X165730009Y-110538290D01*
X166072290Y-110572001D01*
X166072293Y-110572001D01*
X166416225Y-110572001D01*
X166416228Y-110572001D01*
X166758509Y-110538290D01*
X167095837Y-110471191D01*
X167424964Y-110371351D01*
X167742721Y-110239732D01*
X168046046Y-110077601D01*
X168332019Y-109886520D01*
X168597886Y-109668329D01*
X168841087Y-109425128D01*
X169059278Y-109159261D01*
X169250359Y-108873288D01*
X169412490Y-108569963D01*
X169544109Y-108252206D01*
X169643949Y-107923079D01*
X169711048Y-107585751D01*
X169744759Y-107243470D01*
X169744759Y-106899532D01*
X169711048Y-106557251D01*
X169643949Y-106219923D01*
X169544109Y-105890796D01*
X169412490Y-105573039D01*
X169383292Y-105518414D01*
X169250365Y-105269725D01*
X169250364Y-105269723D01*
X169250359Y-105269714D01*
X169059278Y-104983741D01*
X168985394Y-104893713D01*
X172449500Y-104893713D01*
X172449500Y-105106286D01*
X172479185Y-105293713D01*
X172482754Y-105316243D01*
X172544503Y-105506287D01*
X172548444Y-105518414D01*
X172644951Y-105707820D01*
X172769890Y-105879786D01*
X172920213Y-106030109D01*
X173092179Y-106155048D01*
X173092181Y-106155049D01*
X173092184Y-106155051D01*
X173281588Y-106251557D01*
X173483757Y-106317246D01*
X173693713Y-106350500D01*
X173693714Y-106350500D01*
X173906286Y-106350500D01*
X173906287Y-106350500D01*
X174116243Y-106317246D01*
X174318412Y-106251557D01*
X174507816Y-106155051D01*
X174529789Y-106139086D01*
X174679786Y-106030109D01*
X174679788Y-106030106D01*
X174679792Y-106030104D01*
X174830104Y-105879792D01*
X174830106Y-105879788D01*
X174830109Y-105879786D01*
X174955048Y-105707820D01*
X174955047Y-105707820D01*
X174955051Y-105707816D01*
X175051557Y-105518412D01*
X175117246Y-105316243D01*
X175150500Y-105106287D01*
X175150500Y-104893713D01*
X177249500Y-104893713D01*
X177249500Y-105106286D01*
X177279185Y-105293713D01*
X177282754Y-105316243D01*
X177344503Y-105506287D01*
X177348444Y-105518414D01*
X177444951Y-105707820D01*
X177569890Y-105879786D01*
X177720213Y-106030109D01*
X177892179Y-106155048D01*
X177892181Y-106155049D01*
X177892184Y-106155051D01*
X178081588Y-106251557D01*
X178283757Y-106317246D01*
X178493713Y-106350500D01*
X178493714Y-106350500D01*
X178706286Y-106350500D01*
X178706287Y-106350500D01*
X178916243Y-106317246D01*
X179118412Y-106251557D01*
X179307816Y-106155051D01*
X179329789Y-106139086D01*
X179479786Y-106030109D01*
X179479788Y-106030106D01*
X179479792Y-106030104D01*
X179630104Y-105879792D01*
X179630106Y-105879788D01*
X179630109Y-105879786D01*
X179755048Y-105707820D01*
X179755047Y-105707820D01*
X179755051Y-105707816D01*
X179851557Y-105518412D01*
X179917246Y-105316243D01*
X179950500Y-105106287D01*
X179950500Y-105003499D01*
X183300173Y-105003499D01*
X183300173Y-105396500D01*
X183334424Y-105787995D01*
X183334424Y-105787999D01*
X183399145Y-106155048D01*
X183402666Y-106175015D01*
X183504380Y-106554616D01*
X183636792Y-106918414D01*
X183638797Y-106923921D01*
X183804868Y-107280062D01*
X183804880Y-107280086D01*
X184001368Y-107620412D01*
X184001377Y-107620427D01*
X184226788Y-107942347D01*
X184419466Y-108171971D01*
X184479395Y-108243391D01*
X184757282Y-108521278D01*
X184815303Y-108569963D01*
X185058325Y-108773884D01*
X185058331Y-108773888D01*
X185058332Y-108773889D01*
X185380252Y-108999300D01*
X185720593Y-109195796D01*
X185720607Y-109195802D01*
X185720610Y-109195804D01*
X186076751Y-109361875D01*
X186076756Y-109361876D01*
X186076765Y-109361881D01*
X186446057Y-109496293D01*
X186825658Y-109598007D01*
X187212680Y-109666249D01*
X187604175Y-109700499D01*
X187604176Y-109700500D01*
X187604177Y-109700500D01*
X187997170Y-109700500D01*
X187997170Y-109700499D01*
X188388666Y-109666249D01*
X188775688Y-109598007D01*
X189155289Y-109496293D01*
X189524581Y-109361881D01*
X189880753Y-109195796D01*
X190221094Y-108999300D01*
X190543014Y-108773889D01*
X190844064Y-108521278D01*
X191121951Y-108243391D01*
X191374562Y-107942341D01*
X191599973Y-107620421D01*
X191796469Y-107280080D01*
X191962554Y-106923908D01*
X191971426Y-106899532D01*
X198461708Y-106899532D01*
X198461708Y-107243470D01*
X198471959Y-107347555D01*
X198495418Y-107585750D01*
X198562516Y-107923073D01*
X198662358Y-108252207D01*
X198793978Y-108569965D01*
X198793980Y-108569970D01*
X198956101Y-108873276D01*
X198956112Y-108873294D01*
X199147183Y-109159252D01*
X199147193Y-109159266D01*
X199365384Y-109425133D01*
X199608575Y-109668324D01*
X199608580Y-109668328D01*
X199608581Y-109668329D01*
X199874448Y-109886520D01*
X200160421Y-110077601D01*
X200160430Y-110077606D01*
X200160432Y-110077607D01*
X200463738Y-110239728D01*
X200463740Y-110239728D01*
X200463746Y-110239732D01*
X200781503Y-110371351D01*
X201110630Y-110471191D01*
X201447958Y-110538290D01*
X201790239Y-110572001D01*
X201790242Y-110572001D01*
X202134174Y-110572001D01*
X202134177Y-110572001D01*
X202476458Y-110538290D01*
X202813786Y-110471191D01*
X203142913Y-110371351D01*
X203460670Y-110239732D01*
X203763995Y-110077601D01*
X204049968Y-109886520D01*
X204315835Y-109668329D01*
X204559036Y-109425128D01*
X204777227Y-109159261D01*
X204968308Y-108873288D01*
X205130439Y-108569963D01*
X205262058Y-108252206D01*
X205361898Y-107923079D01*
X205428997Y-107585751D01*
X205462708Y-107243470D01*
X205462708Y-106899532D01*
X205428997Y-106557251D01*
X205361898Y-106219923D01*
X205262058Y-105890796D01*
X205130439Y-105573039D01*
X205101241Y-105518414D01*
X204968314Y-105269725D01*
X204968313Y-105269723D01*
X204968308Y-105269714D01*
X204777227Y-104983741D01*
X204559036Y-104717874D01*
X204559035Y-104717873D01*
X204559031Y-104717868D01*
X204315840Y-104474677D01*
X204049973Y-104256486D01*
X204049972Y-104256485D01*
X204049968Y-104256482D01*
X203763995Y-104065401D01*
X203763990Y-104065398D01*
X203763983Y-104065394D01*
X203460677Y-103903273D01*
X203460672Y-103903271D01*
X203142914Y-103771651D01*
X202813780Y-103671809D01*
X202476456Y-103604711D01*
X202476457Y-103604711D01*
X202218664Y-103579322D01*
X202134177Y-103571001D01*
X201790239Y-103571001D01*
X201712174Y-103578689D01*
X201447958Y-103604711D01*
X201110635Y-103671809D01*
X200781501Y-103771651D01*
X200463743Y-103903271D01*
X200463738Y-103903273D01*
X200160432Y-104065394D01*
X200160414Y-104065405D01*
X199874456Y-104256476D01*
X199874442Y-104256486D01*
X199608575Y-104474677D01*
X199365384Y-104717868D01*
X199147193Y-104983735D01*
X199147183Y-104983749D01*
X198956112Y-105269707D01*
X198956101Y-105269725D01*
X198793980Y-105573031D01*
X198793978Y-105573036D01*
X198662358Y-105890794D01*
X198562516Y-106219928D01*
X198495418Y-106557251D01*
X198472875Y-106786144D01*
X198461708Y-106899532D01*
X191971426Y-106899532D01*
X192096966Y-106554616D01*
X192198680Y-106175015D01*
X192266922Y-105787993D01*
X192301173Y-105396496D01*
X192301173Y-105003504D01*
X192266922Y-104612007D01*
X192264612Y-104598909D01*
X192225327Y-104376109D01*
X192198680Y-104224985D01*
X192096966Y-103845384D01*
X191962554Y-103476092D01*
X191962549Y-103476083D01*
X191962548Y-103476078D01*
X191796477Y-103119937D01*
X191796465Y-103119913D01*
X191784128Y-103098546D01*
X191599973Y-102779579D01*
X191374562Y-102457659D01*
X191374561Y-102457658D01*
X191374557Y-102457652D01*
X191121948Y-102156606D01*
X190844066Y-101878724D01*
X190543020Y-101626115D01*
X190221100Y-101400704D01*
X190221097Y-101400702D01*
X190221094Y-101400700D01*
X190011428Y-101279649D01*
X189880759Y-101204207D01*
X189880735Y-101204195D01*
X189524594Y-101038124D01*
X189524583Y-101038120D01*
X189524581Y-101038119D01*
X189155289Y-100903707D01*
X188914633Y-100839223D01*
X188775689Y-100801993D01*
X188775678Y-100801991D01*
X188388670Y-100733751D01*
X187997173Y-100699500D01*
X187997169Y-100699500D01*
X187604177Y-100699500D01*
X187604172Y-100699500D01*
X187212677Y-100733751D01*
X187212673Y-100733751D01*
X186825667Y-100801991D01*
X186825656Y-100801993D01*
X186622228Y-100856502D01*
X186446057Y-100903707D01*
X186446054Y-100903708D01*
X186446053Y-100903708D01*
X186076751Y-101038124D01*
X185720610Y-101204195D01*
X185720586Y-101204207D01*
X185380260Y-101400695D01*
X185380245Y-101400704D01*
X185058325Y-101626115D01*
X184757279Y-101878724D01*
X184479397Y-102156606D01*
X184226788Y-102457652D01*
X184001377Y-102779572D01*
X184001368Y-102779587D01*
X183804880Y-103119913D01*
X183804868Y-103119937D01*
X183638797Y-103476078D01*
X183504538Y-103844951D01*
X183504380Y-103845384D01*
X183488869Y-103903273D01*
X183402666Y-104224983D01*
X183402664Y-104224994D01*
X183334424Y-104612000D01*
X183334424Y-104612004D01*
X183300173Y-105003499D01*
X179950500Y-105003499D01*
X179950500Y-104893713D01*
X179917246Y-104683757D01*
X179851557Y-104481588D01*
X179755051Y-104292184D01*
X179755049Y-104292181D01*
X179755048Y-104292179D01*
X179630109Y-104120213D01*
X179479786Y-103969890D01*
X179307820Y-103844951D01*
X179118414Y-103748444D01*
X179118413Y-103748443D01*
X179118412Y-103748443D01*
X178916243Y-103682754D01*
X178916241Y-103682753D01*
X178916240Y-103682753D01*
X178754957Y-103657208D01*
X178706287Y-103649500D01*
X178493713Y-103649500D01*
X178445042Y-103657208D01*
X178283760Y-103682753D01*
X178283757Y-103682754D01*
X178159789Y-103723034D01*
X178081585Y-103748444D01*
X177892179Y-103844951D01*
X177720213Y-103969890D01*
X177569890Y-104120213D01*
X177444951Y-104292179D01*
X177348444Y-104481585D01*
X177282753Y-104683760D01*
X177249500Y-104893713D01*
X175150500Y-104893713D01*
X175117246Y-104683757D01*
X175051557Y-104481588D01*
X174955051Y-104292184D01*
X174955049Y-104292181D01*
X174955048Y-104292179D01*
X174830109Y-104120213D01*
X174679786Y-103969890D01*
X174507820Y-103844951D01*
X174318414Y-103748444D01*
X174318413Y-103748443D01*
X174318412Y-103748443D01*
X174116243Y-103682754D01*
X174116241Y-103682753D01*
X174116240Y-103682753D01*
X173954957Y-103657208D01*
X173906287Y-103649500D01*
X173693713Y-103649500D01*
X173645042Y-103657208D01*
X173483760Y-103682753D01*
X173483757Y-103682754D01*
X173359789Y-103723034D01*
X173281585Y-103748444D01*
X173092179Y-103844951D01*
X172920213Y-103969890D01*
X172769890Y-104120213D01*
X172644951Y-104292179D01*
X172548444Y-104481585D01*
X172482753Y-104683760D01*
X172449500Y-104893713D01*
X168985394Y-104893713D01*
X168841087Y-104717874D01*
X168841086Y-104717873D01*
X168841082Y-104717868D01*
X168597891Y-104474677D01*
X168332024Y-104256486D01*
X168332023Y-104256485D01*
X168332019Y-104256482D01*
X168046046Y-104065401D01*
X168046041Y-104065398D01*
X168046034Y-104065394D01*
X167742728Y-103903273D01*
X167742723Y-103903271D01*
X167424965Y-103771651D01*
X167095831Y-103671809D01*
X166758507Y-103604711D01*
X166758508Y-103604711D01*
X166500715Y-103579322D01*
X166416228Y-103571001D01*
X166072290Y-103571001D01*
X165994225Y-103578689D01*
X165730009Y-103604711D01*
X165392686Y-103671809D01*
X165063552Y-103771651D01*
X164745794Y-103903271D01*
X164745789Y-103903273D01*
X164442483Y-104065394D01*
X164442465Y-104065405D01*
X164156507Y-104256476D01*
X164156493Y-104256486D01*
X163890626Y-104474677D01*
X163647435Y-104717868D01*
X163429244Y-104983735D01*
X163429234Y-104983749D01*
X163238163Y-105269707D01*
X163238152Y-105269725D01*
X163076031Y-105573031D01*
X163076029Y-105573036D01*
X162944409Y-105890794D01*
X162844567Y-106219928D01*
X162777469Y-106557251D01*
X162754926Y-106786144D01*
X162743759Y-106899532D01*
X156253477Y-106899532D01*
X156379017Y-106554616D01*
X156480731Y-106175015D01*
X156548973Y-105787993D01*
X156583224Y-105396496D01*
X156583224Y-105003504D01*
X156548973Y-104612007D01*
X156546663Y-104598909D01*
X156507378Y-104376109D01*
X156480731Y-104224985D01*
X156379017Y-103845384D01*
X156244605Y-103476092D01*
X156244600Y-103476083D01*
X156244599Y-103476078D01*
X156078528Y-103119937D01*
X156078516Y-103119913D01*
X156066179Y-103098546D01*
X155882024Y-102779579D01*
X155656613Y-102457659D01*
X155656612Y-102457658D01*
X155656608Y-102457652D01*
X155403999Y-102156606D01*
X155126117Y-101878724D01*
X154825071Y-101626115D01*
X154503151Y-101400704D01*
X154503148Y-101400702D01*
X154503145Y-101400700D01*
X154293479Y-101279649D01*
X154162810Y-101204207D01*
X154162786Y-101204195D01*
X153806645Y-101038124D01*
X153806634Y-101038120D01*
X153806632Y-101038119D01*
X153437340Y-100903707D01*
X153196684Y-100839223D01*
X153057740Y-100801993D01*
X153057729Y-100801991D01*
X152670721Y-100733751D01*
X152279224Y-100699500D01*
X152279220Y-100699500D01*
X151886228Y-100699500D01*
X151886223Y-100699500D01*
X151494728Y-100733751D01*
X151494724Y-100733751D01*
X151107718Y-100801991D01*
X151107707Y-100801993D01*
X150904279Y-100856502D01*
X150728108Y-100903707D01*
X150728105Y-100903708D01*
X150728104Y-100903708D01*
X150358802Y-101038124D01*
X150002661Y-101204195D01*
X150002637Y-101204207D01*
X149662311Y-101400695D01*
X149662296Y-101400704D01*
X149340376Y-101626115D01*
X149039330Y-101878724D01*
X148761448Y-102156606D01*
X148508839Y-102457652D01*
X148283428Y-102779572D01*
X148283419Y-102779587D01*
X148086931Y-103119913D01*
X148086919Y-103119937D01*
X147920848Y-103476078D01*
X147786589Y-103844951D01*
X147786431Y-103845384D01*
X147770920Y-103903273D01*
X147684717Y-104224983D01*
X147684715Y-104224994D01*
X147616475Y-104612000D01*
X147616475Y-104612004D01*
X147582224Y-105003499D01*
X133091168Y-105003499D01*
X133051557Y-104881588D01*
X133029870Y-104839026D01*
X133027275Y-104831891D01*
X133025525Y-104804297D01*
X133020423Y-104777125D01*
X133023346Y-104769920D01*
X133022855Y-104762161D01*
X133036302Y-104738001D01*
X133046699Y-104712385D01*
X133053053Y-104707905D01*
X133056835Y-104701111D01*
X133081207Y-104688057D01*
X133103805Y-104672127D01*
X133114153Y-104670412D01*
X133118428Y-104668123D01*
X133124870Y-104668636D01*
X133143804Y-104665499D01*
X134408028Y-104665499D01*
X134408036Y-104665499D01*
X134527418Y-104654886D01*
X134723049Y-104598909D01*
X134903407Y-104504698D01*
X135061109Y-104376109D01*
X135189698Y-104218407D01*
X135283909Y-104038049D01*
X135339886Y-103842418D01*
X135350500Y-103723037D01*
X135350499Y-102556964D01*
X135339886Y-102437582D01*
X135305678Y-102318031D01*
X135306161Y-102248166D01*
X135306940Y-102245675D01*
X135312937Y-102227222D01*
X135350500Y-101990059D01*
X135350500Y-101749941D01*
X135312937Y-101512778D01*
X135238736Y-101284411D01*
X135238729Y-101284398D01*
X135237928Y-101282462D01*
X135237841Y-101281660D01*
X135237230Y-101279778D01*
X135237625Y-101279649D01*
X135230453Y-101212993D01*
X135237928Y-101187538D01*
X135238727Y-101185605D01*
X135238736Y-101185589D01*
X135312937Y-100957222D01*
X135350500Y-100720059D01*
X135350500Y-100479941D01*
X135312937Y-100242778D01*
X135238736Y-100014411D01*
X135238734Y-100014408D01*
X135238734Y-100014406D01*
X135129723Y-99800463D01*
X134988586Y-99606204D01*
X134818796Y-99436414D01*
X134624536Y-99295276D01*
X134624528Y-99295272D01*
X134410593Y-99186265D01*
X134182222Y-99112063D01*
X134133328Y-99104319D01*
X133945059Y-99074500D01*
X133820522Y-99074500D01*
X133753483Y-99054815D01*
X133707728Y-99002011D01*
X133697784Y-98932853D01*
X133726809Y-98869297D01*
X133747637Y-98850182D01*
X133919785Y-98725109D01*
X133919783Y-98725109D01*
X133919792Y-98725104D01*
X134070104Y-98574792D01*
X134070106Y-98574788D01*
X134070109Y-98574786D01*
X134195048Y-98402820D01*
X134195047Y-98402820D01*
X134195051Y-98402816D01*
X134291557Y-98213412D01*
X134357246Y-98011243D01*
X134390500Y-97801287D01*
X134390500Y-97588713D01*
X134357246Y-97378757D01*
X134291557Y-97176588D01*
X134195051Y-96987184D01*
X134195049Y-96987181D01*
X134195048Y-96987179D01*
X134070109Y-96815213D01*
X133919790Y-96664894D01*
X133919785Y-96664890D01*
X133797958Y-96576378D01*
X133755292Y-96521049D01*
X133749313Y-96451435D01*
X133781918Y-96389640D01*
X133814546Y-96365576D01*
X133904536Y-96319724D01*
X134098796Y-96178586D01*
X134268586Y-96008796D01*
X134409724Y-95814536D01*
X134518736Y-95600589D01*
X134592937Y-95372222D01*
X134630500Y-95135059D01*
X134630500Y-94894941D01*
X134592937Y-94657778D01*
X134518736Y-94429411D01*
X134518729Y-94429398D01*
X134517928Y-94427462D01*
X134517841Y-94426660D01*
X134517230Y-94424778D01*
X134517625Y-94424649D01*
X134510453Y-94357993D01*
X134517928Y-94332538D01*
X134518727Y-94330605D01*
X134518736Y-94330589D01*
X134592937Y-94102222D01*
X134630500Y-93865059D01*
X134630500Y-93624941D01*
X134592937Y-93387778D01*
X134586963Y-93369395D01*
X134584967Y-93299556D01*
X134585672Y-93296985D01*
X134619886Y-93177418D01*
X134630500Y-93058037D01*
X134630499Y-91891964D01*
X134619886Y-91772582D01*
X134563909Y-91576951D01*
X134469698Y-91396593D01*
X134351437Y-91251557D01*
X134341109Y-91238890D01*
X134183409Y-91110304D01*
X134183410Y-91110304D01*
X134183407Y-91110302D01*
X134003049Y-91016091D01*
X134003048Y-91016090D01*
X134003045Y-91016089D01*
X133885829Y-90982550D01*
X133807418Y-90960114D01*
X133807415Y-90960113D01*
X133807413Y-90960113D01*
X133741102Y-90954217D01*
X133688037Y-90949500D01*
X133688032Y-90949500D01*
X132071971Y-90949500D01*
X132071965Y-90949500D01*
X132071964Y-90949501D01*
X132060316Y-90950536D01*
X131952584Y-90960113D01*
X131756954Y-91016089D01*
X131701705Y-91044949D01*
X131576593Y-91110302D01*
X131576591Y-91110303D01*
X131576590Y-91110304D01*
X131418890Y-91238890D01*
X131290304Y-91396590D01*
X131290302Y-91396593D01*
X131244771Y-91483757D01*
X131196089Y-91576954D01*
X131140114Y-91772583D01*
X131140113Y-91772586D01*
X131129500Y-91891966D01*
X131129500Y-93058028D01*
X131129501Y-93058034D01*
X131140113Y-93177415D01*
X131174320Y-93296965D01*
X131173837Y-93366833D01*
X131173037Y-93369389D01*
X131167062Y-93387777D01*
X131129500Y-93624941D01*
X131129500Y-93865058D01*
X131167063Y-94102223D01*
X131167063Y-94102226D01*
X131241262Y-94330585D01*
X131242077Y-94332553D01*
X131242163Y-94333360D01*
X131242769Y-94335223D01*
X131242377Y-94335350D01*
X131249542Y-94402023D01*
X131242077Y-94427447D01*
X131241262Y-94429414D01*
X131167063Y-94657773D01*
X131167063Y-94657776D01*
X131167063Y-94657777D01*
X131167063Y-94657778D01*
X131129500Y-94894941D01*
X131129500Y-95135059D01*
X131152893Y-95282754D01*
X131167063Y-95372222D01*
X131241265Y-95600593D01*
X131337114Y-95788705D01*
X131350276Y-95814536D01*
X131491414Y-96008796D01*
X131661204Y-96178586D01*
X131855464Y-96319724D01*
X132069411Y-96428736D01*
X132125298Y-96446894D01*
X132182973Y-96486331D01*
X132210172Y-96550689D01*
X132198258Y-96619536D01*
X132163332Y-96661034D01*
X132163921Y-96661724D01*
X132160209Y-96664894D01*
X132009890Y-96815213D01*
X131884951Y-96987179D01*
X131788444Y-97176585D01*
X131722753Y-97378760D01*
X131689500Y-97588713D01*
X131689500Y-97801286D01*
X131719810Y-97992660D01*
X131722754Y-98011243D01*
X131753635Y-98106286D01*
X131788444Y-98213414D01*
X131884951Y-98402820D01*
X132009890Y-98574786D01*
X132160213Y-98725109D01*
X132332179Y-98850048D01*
X132332181Y-98850049D01*
X132332184Y-98850051D01*
X132521588Y-98946557D01*
X132687680Y-99000523D01*
X132745355Y-99039960D01*
X132772553Y-99104319D01*
X132760638Y-99173165D01*
X132713394Y-99224641D01*
X132705656Y-99228938D01*
X132575468Y-99295272D01*
X132381201Y-99436416D01*
X132211416Y-99606201D01*
X132070276Y-99800463D01*
X131961265Y-100014406D01*
X131887063Y-100242777D01*
X131849500Y-100479941D01*
X131849500Y-100720058D01*
X131887063Y-100957223D01*
X131887063Y-100957226D01*
X131961262Y-101185585D01*
X131962077Y-101187553D01*
X131962163Y-101188360D01*
X131962769Y-101190223D01*
X131962377Y-101190350D01*
X131969542Y-101257023D01*
X131962077Y-101282447D01*
X131961262Y-101284414D01*
X131887063Y-101512773D01*
X131887063Y-101512776D01*
X131849500Y-101749941D01*
X131849500Y-101990058D01*
X131887063Y-102227223D01*
X131887063Y-102227226D01*
X131893035Y-102245604D01*
X131895030Y-102315445D01*
X131894320Y-102318032D01*
X131860114Y-102437579D01*
X131860113Y-102437586D01*
X131849500Y-102556966D01*
X131849500Y-103723028D01*
X131849501Y-103723034D01*
X131860113Y-103842413D01*
X131860113Y-103842415D01*
X131860114Y-103842418D01*
X131874126Y-103891391D01*
X131873644Y-103961256D01*
X131835464Y-104019772D01*
X131771710Y-104048357D01*
X131754911Y-104049500D01*
X131693713Y-104049500D01*
X131645042Y-104057208D01*
X131483760Y-104082753D01*
X131281585Y-104148444D01*
X131092179Y-104244951D01*
X130920213Y-104369890D01*
X130769890Y-104520213D01*
X130644951Y-104692179D01*
X130548444Y-104881583D01*
X130505466Y-105013856D01*
X130466028Y-105071531D01*
X130401669Y-105098729D01*
X130349218Y-105093468D01*
X130316244Y-105082754D01*
X130316240Y-105082753D01*
X130154957Y-105057208D01*
X130106287Y-105049500D01*
X129893713Y-105049500D01*
X129845042Y-105057208D01*
X129683760Y-105082753D01*
X129481585Y-105148444D01*
X129292181Y-105244950D01*
X129272883Y-105258971D01*
X129207076Y-105282449D01*
X129139023Y-105266622D01*
X129127117Y-105258971D01*
X129107818Y-105244950D01*
X128918414Y-105148444D01*
X128918413Y-105148443D01*
X128918412Y-105148443D01*
X128716243Y-105082754D01*
X128716241Y-105082753D01*
X128716240Y-105082753D01*
X128554957Y-105057208D01*
X128506287Y-105049500D01*
X128293713Y-105049500D01*
X128231334Y-105059380D01*
X128083755Y-105082754D01*
X128050780Y-105093468D01*
X127980939Y-105095462D01*
X127921107Y-105059380D01*
X127894533Y-105013854D01*
X127884751Y-104983749D01*
X127851557Y-104881588D01*
X127755051Y-104692184D01*
X127755049Y-104692181D01*
X127755048Y-104692179D01*
X127630109Y-104520213D01*
X127479786Y-104369890D01*
X127307820Y-104244951D01*
X127118414Y-104148444D01*
X127118413Y-104148443D01*
X127118412Y-104148443D01*
X126916243Y-104082754D01*
X126916241Y-104082753D01*
X126916240Y-104082753D01*
X126754957Y-104057208D01*
X126706287Y-104049500D01*
X126493713Y-104049500D01*
X126445042Y-104057208D01*
X126283760Y-104082753D01*
X126081585Y-104148444D01*
X125892179Y-104244951D01*
X125720213Y-104369890D01*
X125569890Y-104520213D01*
X125444951Y-104692179D01*
X125348444Y-104881585D01*
X125282753Y-105083760D01*
X125257223Y-105244950D01*
X125249500Y-105293713D01*
X118526810Y-105293713D01*
X118526810Y-97526846D01*
X118546495Y-97459807D01*
X118599299Y-97414052D01*
X118668457Y-97404108D01*
X118732013Y-97433133D01*
X118751129Y-97453961D01*
X118769896Y-97479792D01*
X118920213Y-97630109D01*
X119092179Y-97755048D01*
X119092181Y-97755049D01*
X119092184Y-97755051D01*
X119281588Y-97851557D01*
X119483757Y-97917246D01*
X119693713Y-97950500D01*
X119693714Y-97950500D01*
X119906286Y-97950500D01*
X119906287Y-97950500D01*
X120116243Y-97917246D01*
X120318412Y-97851557D01*
X120507816Y-97755051D01*
X120529789Y-97739086D01*
X120679786Y-97630109D01*
X120679788Y-97630106D01*
X120679792Y-97630104D01*
X120830104Y-97479792D01*
X120830106Y-97479788D01*
X120830109Y-97479786D01*
X120955048Y-97307820D01*
X120955047Y-97307820D01*
X120955051Y-97307816D01*
X121051557Y-97118412D01*
X121117246Y-96916243D01*
X121150500Y-96706287D01*
X121150500Y-96493713D01*
X121117246Y-96283757D01*
X121051557Y-96081588D01*
X120955051Y-95892184D01*
X120955049Y-95892181D01*
X120955048Y-95892179D01*
X120830109Y-95720213D01*
X120679786Y-95569890D01*
X120507820Y-95444951D01*
X120318414Y-95348444D01*
X120318413Y-95348443D01*
X120318412Y-95348443D01*
X120116243Y-95282754D01*
X120116241Y-95282753D01*
X120116240Y-95282753D01*
X119954957Y-95257208D01*
X119906287Y-95249500D01*
X119693713Y-95249500D01*
X119645042Y-95257208D01*
X119483760Y-95282753D01*
X119281585Y-95348444D01*
X119092179Y-95444951D01*
X118920213Y-95569890D01*
X118769894Y-95720209D01*
X118751128Y-95746039D01*
X118695797Y-95788705D01*
X118626184Y-95794683D01*
X118564389Y-95762077D01*
X118530032Y-95701238D01*
X118526810Y-95673153D01*
X118526810Y-90788713D01*
X119889500Y-90788713D01*
X119889500Y-91001287D01*
X119891845Y-91016091D01*
X119918942Y-91187179D01*
X119922754Y-91211243D01*
X119982977Y-91396590D01*
X119988444Y-91413414D01*
X120084951Y-91602820D01*
X120209890Y-91774786D01*
X120360213Y-91925109D01*
X120532179Y-92050048D01*
X120532181Y-92050049D01*
X120532184Y-92050051D01*
X120721588Y-92146557D01*
X120923757Y-92212246D01*
X121133713Y-92245500D01*
X121133714Y-92245500D01*
X121346286Y-92245500D01*
X121346287Y-92245500D01*
X121556243Y-92212246D01*
X121758412Y-92146557D01*
X121947816Y-92050051D01*
X121969789Y-92034086D01*
X122119786Y-91925109D01*
X122119788Y-91925106D01*
X122119792Y-91925104D01*
X122256183Y-91788713D01*
X125289500Y-91788713D01*
X125289500Y-92001286D01*
X125322753Y-92211239D01*
X125388444Y-92413414D01*
X125484951Y-92602820D01*
X125609890Y-92774786D01*
X125760213Y-92925109D01*
X125932179Y-93050048D01*
X125932181Y-93050049D01*
X125932184Y-93050051D01*
X126121588Y-93146557D01*
X126323757Y-93212246D01*
X126533713Y-93245500D01*
X126533714Y-93245500D01*
X126746286Y-93245500D01*
X126746287Y-93245500D01*
X126956243Y-93212246D01*
X127158412Y-93146557D01*
X127347816Y-93050051D01*
X127369789Y-93034086D01*
X127519786Y-92925109D01*
X127519788Y-92925106D01*
X127519792Y-92925104D01*
X127670104Y-92774792D01*
X127670106Y-92774788D01*
X127670109Y-92774786D01*
X127795048Y-92602820D01*
X127795047Y-92602820D01*
X127795051Y-92602816D01*
X127891557Y-92413412D01*
X127957246Y-92211243D01*
X127990500Y-92001287D01*
X127990500Y-91874634D01*
X128010185Y-91807595D01*
X128062989Y-91761840D01*
X128132147Y-91751896D01*
X128152801Y-91756698D01*
X128323757Y-91812246D01*
X128533713Y-91845500D01*
X128533714Y-91845500D01*
X128746286Y-91845500D01*
X128746287Y-91845500D01*
X128956243Y-91812246D01*
X129158412Y-91746557D01*
X129347816Y-91650051D01*
X129369789Y-91634086D01*
X129519786Y-91525109D01*
X129519788Y-91525106D01*
X129519792Y-91525104D01*
X129670104Y-91374792D01*
X129670106Y-91374788D01*
X129670109Y-91374786D01*
X129795048Y-91202820D01*
X129795047Y-91202820D01*
X129795051Y-91202816D01*
X129891557Y-91013412D01*
X129957246Y-90811243D01*
X129990500Y-90601287D01*
X129990500Y-90388713D01*
X129957246Y-90178757D01*
X129891557Y-89976588D01*
X129891554Y-89976582D01*
X129875533Y-89945137D01*
X129875532Y-89945136D01*
X129849330Y-89893713D01*
X134449500Y-89893713D01*
X134449500Y-90106287D01*
X134482754Y-90316243D01*
X134502361Y-90376588D01*
X134548444Y-90518414D01*
X134644951Y-90707820D01*
X134769890Y-90879786D01*
X134920213Y-91030109D01*
X135092179Y-91155048D01*
X135092181Y-91155049D01*
X135092184Y-91155051D01*
X135281588Y-91251557D01*
X135483757Y-91317246D01*
X135693713Y-91350500D01*
X135693714Y-91350500D01*
X135906286Y-91350500D01*
X135906287Y-91350500D01*
X136116243Y-91317246D01*
X136318412Y-91251557D01*
X136507816Y-91155051D01*
X136568399Y-91111035D01*
X136679786Y-91030109D01*
X136679788Y-91030106D01*
X136679792Y-91030104D01*
X136830104Y-90879792D01*
X136830106Y-90879788D01*
X136830109Y-90879786D01*
X136955048Y-90707820D01*
X136955047Y-90707820D01*
X136955051Y-90707816D01*
X137051557Y-90518412D01*
X137117246Y-90316243D01*
X137150500Y-90106287D01*
X137150500Y-89893713D01*
X137117246Y-89683757D01*
X137051557Y-89481588D01*
X136955051Y-89292184D01*
X136955049Y-89292181D01*
X136955048Y-89292179D01*
X136830109Y-89120213D01*
X136679786Y-88969890D01*
X136507820Y-88844951D01*
X136318414Y-88748444D01*
X136318413Y-88748443D01*
X136318412Y-88748443D01*
X136116243Y-88682754D01*
X136116241Y-88682753D01*
X136116240Y-88682753D01*
X135954957Y-88657208D01*
X135906287Y-88649500D01*
X135693713Y-88649500D01*
X135645042Y-88657208D01*
X135483760Y-88682753D01*
X135281585Y-88748444D01*
X135092179Y-88844951D01*
X134920213Y-88969890D01*
X134769890Y-89120213D01*
X134644951Y-89292179D01*
X134548444Y-89481585D01*
X134482753Y-89683760D01*
X134454065Y-89864890D01*
X134449500Y-89893713D01*
X129849330Y-89893713D01*
X129834644Y-89864890D01*
X129795051Y-89787184D01*
X129782491Y-89769896D01*
X129670109Y-89615213D01*
X129519786Y-89464890D01*
X129347820Y-89339951D01*
X129158414Y-89243444D01*
X129158413Y-89243443D01*
X129158412Y-89243443D01*
X128956243Y-89177754D01*
X128956241Y-89177753D01*
X128956240Y-89177753D01*
X128794957Y-89152208D01*
X128746287Y-89144500D01*
X128533713Y-89144500D01*
X128485042Y-89152208D01*
X128323760Y-89177753D01*
X128121585Y-89243444D01*
X127932179Y-89339951D01*
X127760213Y-89464890D01*
X127609890Y-89615213D01*
X127484951Y-89787179D01*
X127388444Y-89976585D01*
X127322753Y-90178760D01*
X127289500Y-90388713D01*
X127289500Y-90515365D01*
X127269815Y-90582404D01*
X127217011Y-90628159D01*
X127147853Y-90638103D01*
X127127185Y-90633296D01*
X126956243Y-90577754D01*
X126956241Y-90577753D01*
X126956240Y-90577753D01*
X126794957Y-90552208D01*
X126746287Y-90544500D01*
X126533713Y-90544500D01*
X126485042Y-90552208D01*
X126323760Y-90577753D01*
X126121585Y-90643444D01*
X125932179Y-90739951D01*
X125760213Y-90864890D01*
X125609890Y-91015213D01*
X125484951Y-91187179D01*
X125388444Y-91376585D01*
X125322753Y-91578760D01*
X125289500Y-91788713D01*
X122256183Y-91788713D01*
X122270104Y-91774792D01*
X122395051Y-91602816D01*
X122491557Y-91413412D01*
X122557246Y-91211243D01*
X122590500Y-91001287D01*
X122590500Y-90788713D01*
X122557246Y-90578757D01*
X122491557Y-90376588D01*
X122395051Y-90187184D01*
X122395049Y-90187181D01*
X122395048Y-90187179D01*
X122270109Y-90015213D01*
X122119786Y-89864890D01*
X121947820Y-89739951D01*
X121758414Y-89643444D01*
X121758413Y-89643443D01*
X121758412Y-89643443D01*
X121556243Y-89577754D01*
X121556241Y-89577753D01*
X121556240Y-89577753D01*
X121394957Y-89552208D01*
X121346287Y-89544500D01*
X121133713Y-89544500D01*
X121085042Y-89552208D01*
X120923760Y-89577753D01*
X120721585Y-89643444D01*
X120532179Y-89739951D01*
X120360213Y-89864890D01*
X120209890Y-90015213D01*
X120084951Y-90187179D01*
X119988444Y-90376585D01*
X119922753Y-90578760D01*
X119897223Y-90739951D01*
X119889500Y-90788713D01*
X118526810Y-90788713D01*
X118526810Y-86093713D01*
X124049500Y-86093713D01*
X124049500Y-86306286D01*
X124082753Y-86516239D01*
X124148444Y-86718414D01*
X124244951Y-86907820D01*
X124369890Y-87079786D01*
X124520213Y-87230109D01*
X124692179Y-87355048D01*
X124692181Y-87355049D01*
X124692184Y-87355051D01*
X124881588Y-87451557D01*
X125083757Y-87517246D01*
X125293713Y-87550500D01*
X125293714Y-87550500D01*
X125506286Y-87550500D01*
X125506287Y-87550500D01*
X125716243Y-87517246D01*
X125918412Y-87451557D01*
X126107816Y-87355051D01*
X126129789Y-87339086D01*
X126279786Y-87230109D01*
X126279788Y-87230106D01*
X126279792Y-87230104D01*
X126430104Y-87079792D01*
X126430106Y-87079788D01*
X126430109Y-87079786D01*
X126555048Y-86907820D01*
X126555047Y-86907820D01*
X126555051Y-86907816D01*
X126651557Y-86718412D01*
X126717246Y-86516243D01*
X126750500Y-86306287D01*
X126750500Y-86093713D01*
X126717246Y-85883757D01*
X126651557Y-85681588D01*
X126555051Y-85492184D01*
X126555049Y-85492181D01*
X126555048Y-85492179D01*
X126430109Y-85320213D01*
X126279786Y-85169890D01*
X126107820Y-85044951D01*
X125918414Y-84948444D01*
X125918413Y-84948443D01*
X125918412Y-84948443D01*
X125716243Y-84882754D01*
X125716241Y-84882753D01*
X125716240Y-84882753D01*
X125554957Y-84857208D01*
X125506287Y-84849500D01*
X125293713Y-84849500D01*
X125245042Y-84857208D01*
X125083760Y-84882753D01*
X124881585Y-84948444D01*
X124692179Y-85044951D01*
X124520213Y-85169890D01*
X124369890Y-85320213D01*
X124244951Y-85492179D01*
X124148444Y-85681585D01*
X124082753Y-85883760D01*
X124049500Y-86093713D01*
X118526810Y-86093713D01*
X118526810Y-81204599D01*
X118546495Y-81137560D01*
X118599299Y-81091805D01*
X118650804Y-81080599D01*
X121224560Y-81080528D01*
X121291597Y-81100210D01*
X121337353Y-81153012D01*
X121347298Y-81222171D01*
X121344335Y-81236620D01*
X121289717Y-81440457D01*
X121249501Y-81745930D01*
X121249500Y-81745946D01*
X121249500Y-82654053D01*
X121249501Y-82654069D01*
X121289717Y-82959542D01*
X121369464Y-83257162D01*
X121487376Y-83541826D01*
X121487381Y-83541837D01*
X121558040Y-83664221D01*
X121641438Y-83808670D01*
X121641440Y-83808673D01*
X121641441Y-83808674D01*
X121829007Y-84053115D01*
X121829013Y-84053122D01*
X122046877Y-84270986D01*
X122046883Y-84270991D01*
X122291330Y-84458562D01*
X122462830Y-84557578D01*
X122558162Y-84612618D01*
X122558167Y-84612620D01*
X122558170Y-84612622D01*
X122842836Y-84730535D01*
X123140456Y-84810282D01*
X123445940Y-84850500D01*
X123445947Y-84850500D01*
X123754053Y-84850500D01*
X123754060Y-84850500D01*
X124059544Y-84810282D01*
X124357164Y-84730535D01*
X124641830Y-84612622D01*
X124908670Y-84458562D01*
X125153117Y-84270991D01*
X125355398Y-84068710D01*
X125416721Y-84035225D01*
X125486412Y-84040209D01*
X125542346Y-84082080D01*
X125555978Y-84105110D01*
X125607991Y-84219623D01*
X125607997Y-84219632D01*
X125736174Y-84404645D01*
X125736178Y-84404650D01*
X125736181Y-84404654D01*
X125895346Y-84563819D01*
X125895350Y-84563822D01*
X125895354Y-84563825D01*
X125965790Y-84612623D01*
X126080374Y-84692007D01*
X126285317Y-84785096D01*
X126285321Y-84785097D01*
X126503580Y-84840094D01*
X126503582Y-84840094D01*
X126503589Y-84840096D01*
X126635784Y-84850500D01*
X126635792Y-84850500D01*
X128964208Y-84850500D01*
X128964216Y-84850500D01*
X129096411Y-84840096D01*
X129314683Y-84785096D01*
X129519626Y-84692007D01*
X129704654Y-84563819D01*
X129863819Y-84404654D01*
X129992007Y-84219626D01*
X130085096Y-84014683D01*
X130140096Y-83796411D01*
X130150500Y-83664216D01*
X130150500Y-81204276D01*
X130170185Y-81137237D01*
X130222989Y-81091482D01*
X130274493Y-81080276D01*
X137525501Y-81080075D01*
X137592537Y-81099757D01*
G37*
%TD.AperFunction*%
%TD*%
%TA.AperFunction,Conductor*%
%TO.N,GND*%
G36*
X186408034Y-68120185D02*
G01*
X186453789Y-68172989D01*
X186463733Y-68242147D01*
X186446723Y-68289290D01*
X186444947Y-68292188D01*
X186348444Y-68481585D01*
X186282753Y-68683760D01*
X186249500Y-68893713D01*
X186249500Y-69106286D01*
X186282754Y-69316244D01*
X186330009Y-69461682D01*
X186332004Y-69531524D01*
X186330009Y-69538318D01*
X186282754Y-69683755D01*
X186249500Y-69893713D01*
X186249500Y-70106286D01*
X186282754Y-70316244D01*
X186330009Y-70461682D01*
X186332004Y-70531524D01*
X186330009Y-70538318D01*
X186282754Y-70683755D01*
X186249500Y-70893713D01*
X186249500Y-71106286D01*
X186272508Y-71251557D01*
X186282754Y-71316243D01*
X186323570Y-71441862D01*
X186348444Y-71518414D01*
X186444951Y-71707820D01*
X186569890Y-71879786D01*
X186720213Y-72030109D01*
X186892179Y-72155048D01*
X186892181Y-72155049D01*
X186892184Y-72155051D01*
X187081588Y-72251557D01*
X187283757Y-72317246D01*
X187493713Y-72350500D01*
X187493714Y-72350500D01*
X187706286Y-72350500D01*
X187706287Y-72350500D01*
X187916243Y-72317246D01*
X188061683Y-72269988D01*
X188131523Y-72267994D01*
X188138295Y-72269981D01*
X188283757Y-72317246D01*
X188493713Y-72350500D01*
X188493714Y-72350500D01*
X188706286Y-72350500D01*
X188706287Y-72350500D01*
X188916243Y-72317246D01*
X189118412Y-72251557D01*
X189307816Y-72155051D01*
X189329789Y-72139086D01*
X189479786Y-72030109D01*
X189479788Y-72030106D01*
X189479792Y-72030104D01*
X189630104Y-71879792D01*
X189630106Y-71879788D01*
X189630109Y-71879786D01*
X189755048Y-71707820D01*
X189755047Y-71707820D01*
X189755051Y-71707816D01*
X189851557Y-71518412D01*
X189897477Y-71377084D01*
X189936912Y-71319413D01*
X189977082Y-71297477D01*
X190118412Y-71251557D01*
X190307816Y-71155051D01*
X190329789Y-71139086D01*
X190479786Y-71030109D01*
X190479788Y-71030106D01*
X190479792Y-71030104D01*
X190630104Y-70879792D01*
X190630106Y-70879788D01*
X190630109Y-70879786D01*
X190755048Y-70707820D01*
X190755047Y-70707820D01*
X190755051Y-70707816D01*
X190851557Y-70518412D01*
X190897477Y-70377084D01*
X190936912Y-70319413D01*
X190977082Y-70297477D01*
X191118412Y-70251557D01*
X191307816Y-70155051D01*
X191329789Y-70139086D01*
X191479786Y-70030109D01*
X191479788Y-70030106D01*
X191479792Y-70030104D01*
X191630104Y-69879792D01*
X191630106Y-69879788D01*
X191630109Y-69879786D01*
X191755048Y-69707820D01*
X191755047Y-69707820D01*
X191755051Y-69707816D01*
X191851557Y-69518412D01*
X191917246Y-69316243D01*
X191950500Y-69106287D01*
X191950500Y-68893713D01*
X191917246Y-68683757D01*
X191851557Y-68481588D01*
X191755051Y-68292184D01*
X191755041Y-68292171D01*
X191753277Y-68289290D01*
X191752938Y-68288037D01*
X191752839Y-68287843D01*
X191752879Y-68287822D01*
X191735033Y-68221844D01*
X191756150Y-68155241D01*
X191809921Y-68110628D01*
X191859005Y-68100500D01*
X216560417Y-68100500D01*
X216623602Y-68100500D01*
X216629011Y-68100618D01*
X217013079Y-68117387D01*
X217023813Y-68118327D01*
X217402275Y-68168152D01*
X217412909Y-68170027D01*
X217785591Y-68252650D01*
X217796023Y-68255445D01*
X218160072Y-68370230D01*
X218170215Y-68373921D01*
X218430136Y-68481585D01*
X218522877Y-68520000D01*
X218532681Y-68524572D01*
X218871269Y-68700830D01*
X218880610Y-68706224D01*
X219174908Y-68893713D01*
X219202541Y-68911317D01*
X219211402Y-68917521D01*
X219514234Y-69149892D01*
X219522521Y-69156846D01*
X219803938Y-69414718D01*
X219811587Y-69422367D01*
X220069459Y-69703785D01*
X220076413Y-69712072D01*
X220308778Y-70014897D01*
X220314983Y-70023758D01*
X220520077Y-70345692D01*
X220525485Y-70355060D01*
X220701731Y-70693625D01*
X220706303Y-70703429D01*
X220852376Y-71056080D01*
X220856076Y-71066246D01*
X220970855Y-71430279D01*
X220973655Y-71440727D01*
X221056272Y-71813388D01*
X221058150Y-71824042D01*
X221107971Y-72202473D01*
X221108914Y-72213249D01*
X221122921Y-72534070D01*
X221125692Y-72597517D01*
X221125810Y-72602926D01*
X221125810Y-94474583D01*
X221106125Y-94541622D01*
X221053321Y-94587377D01*
X221001529Y-94598583D01*
X188670928Y-94525293D01*
X188603933Y-94505456D01*
X188558298Y-94452549D01*
X188548511Y-94383368D01*
X188577680Y-94319878D01*
X188636544Y-94282237D01*
X188649677Y-94279177D01*
X188702112Y-94269931D01*
X189035496Y-94211147D01*
X189415097Y-94109433D01*
X189784389Y-93975021D01*
X190140561Y-93808936D01*
X190480902Y-93612440D01*
X190802822Y-93387029D01*
X191103872Y-93134418D01*
X191381759Y-92856531D01*
X191634370Y-92555481D01*
X191859781Y-92233561D01*
X192056277Y-91893220D01*
X192222362Y-91537048D01*
X192310378Y-91295229D01*
X192351805Y-91238965D01*
X192417074Y-91214030D01*
X192426900Y-91213640D01*
X193271503Y-91213640D01*
X193271527Y-91213641D01*
X193276638Y-91213641D01*
X193497081Y-91213641D01*
X193497082Y-91213641D01*
X193714811Y-91179155D01*
X193924466Y-91111035D01*
X194120882Y-91010955D01*
X194190859Y-90960114D01*
X194299225Y-90881382D01*
X194455102Y-90725505D01*
X194455103Y-90725503D01*
X194462163Y-90718443D01*
X194462168Y-90718436D01*
X194486891Y-90693713D01*
X214649500Y-90693713D01*
X214649500Y-90906287D01*
X214658025Y-90960113D01*
X214682754Y-91116244D01*
X214730009Y-91261682D01*
X214732004Y-91331524D01*
X214730009Y-91338318D01*
X214682754Y-91483755D01*
X214649500Y-91693713D01*
X214649500Y-91906286D01*
X214682754Y-92116244D01*
X214730009Y-92261682D01*
X214732004Y-92331524D01*
X214730009Y-92338318D01*
X214682754Y-92483755D01*
X214682754Y-92483757D01*
X214649500Y-92693713D01*
X214649500Y-92906287D01*
X214682754Y-93116243D01*
X214688659Y-93134418D01*
X214748444Y-93318414D01*
X214844951Y-93507820D01*
X214969890Y-93679786D01*
X215120213Y-93830109D01*
X215292179Y-93955048D01*
X215292181Y-93955049D01*
X215292184Y-93955051D01*
X215481588Y-94051557D01*
X215683757Y-94117246D01*
X215893713Y-94150500D01*
X215893714Y-94150500D01*
X216106286Y-94150500D01*
X216106287Y-94150500D01*
X216316243Y-94117246D01*
X216461683Y-94069988D01*
X216531523Y-94067994D01*
X216538295Y-94069981D01*
X216683757Y-94117246D01*
X216893713Y-94150500D01*
X216893714Y-94150500D01*
X217106286Y-94150500D01*
X217106287Y-94150500D01*
X217316243Y-94117246D01*
X217461683Y-94069988D01*
X217531523Y-94067994D01*
X217538295Y-94069981D01*
X217683757Y-94117246D01*
X217893713Y-94150500D01*
X217893714Y-94150500D01*
X218106286Y-94150500D01*
X218106287Y-94150500D01*
X218316243Y-94117246D01*
X218518412Y-94051557D01*
X218707816Y-93955051D01*
X218729789Y-93939086D01*
X218879786Y-93830109D01*
X218879788Y-93830106D01*
X218879792Y-93830104D01*
X219030104Y-93679792D01*
X219030106Y-93679788D01*
X219030109Y-93679786D01*
X219155048Y-93507820D01*
X219155047Y-93507820D01*
X219155051Y-93507816D01*
X219251557Y-93318412D01*
X219317246Y-93116243D01*
X219350500Y-92906287D01*
X219350500Y-92693713D01*
X219317246Y-92483757D01*
X219269988Y-92338316D01*
X219267994Y-92268477D01*
X219269989Y-92261682D01*
X219317246Y-92116243D01*
X219350500Y-91906287D01*
X219350500Y-91693713D01*
X219317246Y-91483757D01*
X219269988Y-91338316D01*
X219267994Y-91268477D01*
X219269989Y-91261682D01*
X219317246Y-91116243D01*
X219350500Y-90906287D01*
X219350500Y-90693713D01*
X219317246Y-90483757D01*
X219251557Y-90281588D01*
X219155051Y-90092184D01*
X219155049Y-90092181D01*
X219155048Y-90092179D01*
X219030109Y-89920213D01*
X218879786Y-89769890D01*
X218707820Y-89644951D01*
X218518414Y-89548444D01*
X218518413Y-89548443D01*
X218518412Y-89548443D01*
X218316243Y-89482754D01*
X218316241Y-89482753D01*
X218316240Y-89482753D01*
X218154957Y-89457208D01*
X218106287Y-89449500D01*
X217893713Y-89449500D01*
X217823727Y-89460584D01*
X217683755Y-89482754D01*
X217538318Y-89530009D01*
X217468476Y-89532004D01*
X217461682Y-89530009D01*
X217316244Y-89482754D01*
X217203493Y-89464896D01*
X217106287Y-89449500D01*
X216893713Y-89449500D01*
X216823727Y-89460584D01*
X216683755Y-89482754D01*
X216538318Y-89530009D01*
X216468476Y-89532004D01*
X216461682Y-89530009D01*
X216316244Y-89482754D01*
X216203493Y-89464896D01*
X216106287Y-89449500D01*
X215893713Y-89449500D01*
X215845042Y-89457208D01*
X215683760Y-89482753D01*
X215481585Y-89548444D01*
X215292179Y-89644951D01*
X215120213Y-89769890D01*
X214969890Y-89920213D01*
X214844951Y-90092179D01*
X214748444Y-90281585D01*
X214682753Y-90483760D01*
X214677265Y-90518412D01*
X214649500Y-90693713D01*
X194486891Y-90693713D01*
X202543787Y-82636819D01*
X202605110Y-82603334D01*
X202631468Y-82600500D01*
X203884644Y-82600500D01*
X203889772Y-82600500D01*
X203889778Y-82600501D01*
X204084026Y-82600501D01*
X204151065Y-82620186D01*
X204196820Y-82672990D01*
X204206763Y-82742149D01*
X204184625Y-82790624D01*
X204177738Y-82805704D01*
X204131478Y-82839062D01*
X203927845Y-82923409D01*
X203927840Y-82923411D01*
X203624534Y-83085532D01*
X203624516Y-83085543D01*
X203338558Y-83276614D01*
X203338544Y-83276624D01*
X203072677Y-83494815D01*
X202829486Y-83738006D01*
X202611295Y-84003873D01*
X202611285Y-84003887D01*
X202420214Y-84289845D01*
X202420203Y-84289863D01*
X202258082Y-84593169D01*
X202258080Y-84593174D01*
X202126460Y-84910932D01*
X202026618Y-85240066D01*
X201959520Y-85577389D01*
X201925810Y-85919673D01*
X201925810Y-86263604D01*
X201959520Y-86605888D01*
X202026618Y-86943211D01*
X202126460Y-87272345D01*
X202258080Y-87590103D01*
X202258082Y-87590108D01*
X202420203Y-87893414D01*
X202420214Y-87893432D01*
X202611285Y-88179390D01*
X202611295Y-88179404D01*
X202829486Y-88445271D01*
X203072677Y-88688462D01*
X203072682Y-88688466D01*
X203072683Y-88688467D01*
X203338550Y-88906658D01*
X203624523Y-89097739D01*
X203624532Y-89097744D01*
X203624534Y-89097745D01*
X203927840Y-89259866D01*
X203927842Y-89259866D01*
X203927848Y-89259870D01*
X204245605Y-89391489D01*
X204574732Y-89491329D01*
X204912060Y-89558428D01*
X205254341Y-89592139D01*
X205254344Y-89592139D01*
X205598276Y-89592139D01*
X205598279Y-89592139D01*
X205940560Y-89558428D01*
X206277888Y-89491329D01*
X206607015Y-89391489D01*
X206924772Y-89259870D01*
X207228097Y-89097739D01*
X207514070Y-88906658D01*
X207779937Y-88688467D01*
X208023138Y-88445266D01*
X208241329Y-88179399D01*
X208432410Y-87893426D01*
X208594541Y-87590101D01*
X208726160Y-87272344D01*
X208826000Y-86943217D01*
X208893099Y-86605889D01*
X208926810Y-86263608D01*
X208926810Y-85919670D01*
X208893099Y-85577389D01*
X208826000Y-85240061D01*
X208726160Y-84910934D01*
X208594541Y-84593177D01*
X208432410Y-84289852D01*
X208241329Y-84003879D01*
X208023138Y-83738012D01*
X208023137Y-83738011D01*
X208023133Y-83738006D01*
X207779942Y-83494815D01*
X207514075Y-83276624D01*
X207514074Y-83276623D01*
X207514070Y-83276620D01*
X207228097Y-83085539D01*
X207228092Y-83085536D01*
X207228085Y-83085532D01*
X206924779Y-82923411D01*
X206924774Y-82923409D01*
X206607016Y-82791789D01*
X206277882Y-82691947D01*
X205940558Y-82624849D01*
X205940559Y-82624849D01*
X205682766Y-82599460D01*
X205598279Y-82591139D01*
X205254341Y-82591139D01*
X205176276Y-82598827D01*
X204912060Y-82624849D01*
X204768350Y-82653435D01*
X204756820Y-82652403D01*
X204745754Y-82655808D01*
X204722651Y-82649345D01*
X204698758Y-82647208D01*
X204689614Y-82640105D01*
X204678467Y-82636987D01*
X204662526Y-82619061D01*
X204643581Y-82604344D01*
X204639729Y-82593426D01*
X204632037Y-82584776D01*
X204628317Y-82561077D01*
X204620337Y-82538455D01*
X204622999Y-82527189D01*
X204621204Y-82515752D01*
X204630888Y-82493803D01*
X204636405Y-82470458D01*
X204645457Y-82460783D01*
X204649409Y-82451828D01*
X204666571Y-82438218D01*
X204675783Y-82428374D01*
X204681622Y-82424514D01*
X204734022Y-82397815D01*
X204852884Y-82311457D01*
X204912365Y-82268242D01*
X205068242Y-82112365D01*
X205068243Y-82112363D01*
X205075303Y-82105303D01*
X205075309Y-82105296D01*
X210092940Y-77087664D01*
X210154261Y-77054181D01*
X210223953Y-77059165D01*
X210279886Y-77101037D01*
X210288005Y-77113346D01*
X210328535Y-77183544D01*
X210328549Y-77183567D01*
X210553960Y-77505487D01*
X210629859Y-77595939D01*
X210806567Y-77806531D01*
X211084454Y-78084418D01*
X211142475Y-78133103D01*
X211385497Y-78337024D01*
X211385503Y-78337028D01*
X211385504Y-78337029D01*
X211707424Y-78562440D01*
X212047765Y-78758936D01*
X212047779Y-78758942D01*
X212047782Y-78758944D01*
X212403923Y-78925015D01*
X212403928Y-78925016D01*
X212403937Y-78925021D01*
X212773229Y-79059433D01*
X213152830Y-79161147D01*
X213539852Y-79229389D01*
X213931347Y-79263639D01*
X213931348Y-79263640D01*
X213931349Y-79263640D01*
X214324342Y-79263640D01*
X214324342Y-79263639D01*
X214715838Y-79229389D01*
X215102860Y-79161147D01*
X215482461Y-79059433D01*
X215851753Y-78925021D01*
X216207925Y-78758936D01*
X216548266Y-78562440D01*
X216870186Y-78337029D01*
X217171236Y-78084418D01*
X217449123Y-77806531D01*
X217701734Y-77505481D01*
X217927145Y-77183561D01*
X218123641Y-76843220D01*
X218267123Y-76535518D01*
X218289720Y-76487061D01*
X218289720Y-76487060D01*
X218289726Y-76487048D01*
X218424138Y-76117756D01*
X218525852Y-75738155D01*
X218594094Y-75351133D01*
X218628345Y-74959636D01*
X218628345Y-74566644D01*
X218594094Y-74175147D01*
X218525852Y-73788125D01*
X218424138Y-73408524D01*
X218289726Y-73039232D01*
X218289721Y-73039223D01*
X218289720Y-73039218D01*
X218123649Y-72683077D01*
X218123637Y-72683053D01*
X218111300Y-72661686D01*
X217927145Y-72342719D01*
X217701734Y-72020799D01*
X217701733Y-72020798D01*
X217701729Y-72020792D01*
X217449120Y-71719746D01*
X217171238Y-71441864D01*
X217169884Y-71440728D01*
X217025307Y-71319413D01*
X216870192Y-71189255D01*
X216548272Y-70963844D01*
X216548269Y-70963842D01*
X216548266Y-70963840D01*
X216447150Y-70905460D01*
X216207931Y-70767347D01*
X216207907Y-70767335D01*
X215851766Y-70601264D01*
X215851755Y-70601260D01*
X215851753Y-70601259D01*
X215482461Y-70466847D01*
X215147477Y-70377088D01*
X215102861Y-70365133D01*
X215102850Y-70365131D01*
X214715842Y-70296891D01*
X214324345Y-70262640D01*
X214324341Y-70262640D01*
X213931349Y-70262640D01*
X213931344Y-70262640D01*
X213539849Y-70296891D01*
X213539845Y-70296891D01*
X213152839Y-70365131D01*
X213152828Y-70365133D01*
X212949400Y-70419642D01*
X212773229Y-70466847D01*
X212773226Y-70466848D01*
X212773225Y-70466848D01*
X212403923Y-70601264D01*
X212047782Y-70767335D01*
X212047758Y-70767347D01*
X211707432Y-70963835D01*
X211707417Y-70963844D01*
X211385497Y-71189255D01*
X211084451Y-71441864D01*
X210806569Y-71719746D01*
X210553960Y-72020792D01*
X210328549Y-72342712D01*
X210328540Y-72342727D01*
X210132052Y-72683053D01*
X210132040Y-72683077D01*
X209965969Y-73039218D01*
X209965964Y-73039232D01*
X209831554Y-73408520D01*
X209831547Y-73408540D01*
X209817533Y-73460839D01*
X209781167Y-73520499D01*
X209754056Y-73539227D01*
X209702834Y-73565326D01*
X209524501Y-73694892D01*
X209524496Y-73694896D01*
X209368615Y-73850778D01*
X203456213Y-79763181D01*
X203394890Y-79796666D01*
X203368532Y-79799500D01*
X201939270Y-79799500D01*
X201872231Y-79779815D01*
X201826476Y-79727011D01*
X201816532Y-79657853D01*
X201845557Y-79594297D01*
X201870380Y-79572398D01*
X202054052Y-79449672D01*
X202054051Y-79449672D01*
X202054070Y-79449660D01*
X202319937Y-79231469D01*
X202563138Y-78988268D01*
X202781329Y-78722401D01*
X202972410Y-78436428D01*
X203134541Y-78133103D01*
X203266160Y-77815346D01*
X203366000Y-77486219D01*
X203433099Y-77148891D01*
X203466810Y-76806610D01*
X203466810Y-76462672D01*
X203433099Y-76120391D01*
X203366000Y-75783063D01*
X203266160Y-75453936D01*
X203134541Y-75136179D01*
X203065017Y-75006110D01*
X202972416Y-74832865D01*
X202972415Y-74832863D01*
X202972410Y-74832854D01*
X202781329Y-74546881D01*
X202563138Y-74281014D01*
X202563137Y-74281013D01*
X202563133Y-74281008D01*
X202319942Y-74037817D01*
X202054075Y-73819626D01*
X202054074Y-73819625D01*
X202054070Y-73819622D01*
X201768097Y-73628541D01*
X201768092Y-73628538D01*
X201768085Y-73628534D01*
X201464779Y-73466413D01*
X201464774Y-73466411D01*
X201461954Y-73465243D01*
X201325013Y-73408520D01*
X201147016Y-73334791D01*
X200817882Y-73234949D01*
X200480558Y-73167851D01*
X200480559Y-73167851D01*
X200222766Y-73142462D01*
X200138279Y-73134141D01*
X199794341Y-73134141D01*
X199716276Y-73141829D01*
X199452060Y-73167851D01*
X199114737Y-73234949D01*
X198785603Y-73334791D01*
X198467845Y-73466411D01*
X198467840Y-73466413D01*
X198164534Y-73628534D01*
X198164516Y-73628545D01*
X197878558Y-73819616D01*
X197878544Y-73819626D01*
X197612677Y-74037817D01*
X197369486Y-74281008D01*
X197151295Y-74546875D01*
X197151285Y-74546889D01*
X196960214Y-74832847D01*
X196960203Y-74832865D01*
X196798082Y-75136171D01*
X196798080Y-75136176D01*
X196666460Y-75453934D01*
X196566618Y-75783068D01*
X196499520Y-76120391D01*
X196478256Y-76336306D01*
X196465810Y-76462672D01*
X196465810Y-76806610D01*
X196475420Y-76904182D01*
X196499520Y-77148890D01*
X196566618Y-77486213D01*
X196666460Y-77815347D01*
X196798080Y-78133105D01*
X196798082Y-78133110D01*
X196960203Y-78436416D01*
X196960214Y-78436434D01*
X197151285Y-78722392D01*
X197151295Y-78722406D01*
X197369486Y-78988273D01*
X197612677Y-79231464D01*
X197612682Y-79231468D01*
X197612683Y-79231469D01*
X197878550Y-79449660D01*
X198164523Y-79640741D01*
X198164532Y-79640746D01*
X198164534Y-79640747D01*
X198467840Y-79802868D01*
X198467842Y-79802868D01*
X198467848Y-79802872D01*
X198785605Y-79934491D01*
X199114732Y-80034331D01*
X199452060Y-80101430D01*
X199794341Y-80135141D01*
X199794344Y-80135141D01*
X200138276Y-80135141D01*
X200138279Y-80135141D01*
X200480560Y-80101430D01*
X200817888Y-80034331D01*
X200871222Y-80018151D01*
X200876353Y-80018106D01*
X200880859Y-80015646D01*
X200910940Y-80017797D01*
X200941089Y-80017528D01*
X200945430Y-80020263D01*
X200950551Y-80020630D01*
X200974694Y-80038703D01*
X201000202Y-80054776D01*
X201002375Y-80059424D01*
X201006485Y-80062501D01*
X201017025Y-80090760D01*
X201029793Y-80118070D01*
X201029108Y-80123155D01*
X201030902Y-80127965D01*
X201024492Y-80157432D01*
X201020468Y-80187314D01*
X201016846Y-80192579D01*
X201016051Y-80196238D01*
X200994900Y-80224493D01*
X200931758Y-80287635D01*
X200931757Y-80287635D01*
X200931756Y-80287636D01*
X200931755Y-80287638D01*
X192843073Y-88376321D01*
X192781750Y-88409806D01*
X192755392Y-88412640D01*
X192426900Y-88412640D01*
X192359861Y-88392955D01*
X192314106Y-88340151D01*
X192310378Y-88331051D01*
X192255177Y-88179390D01*
X192222362Y-88089232D01*
X192222357Y-88089223D01*
X192222356Y-88089218D01*
X192056285Y-87733077D01*
X192056273Y-87733053D01*
X192043936Y-87711686D01*
X191859781Y-87392719D01*
X191634370Y-87070799D01*
X191634369Y-87070798D01*
X191634365Y-87070792D01*
X191381756Y-86769746D01*
X191103874Y-86491864D01*
X190802828Y-86239255D01*
X190480908Y-86013844D01*
X190480905Y-86013842D01*
X190480902Y-86013840D01*
X190317795Y-85919670D01*
X190140567Y-85817347D01*
X190140543Y-85817335D01*
X189784402Y-85651264D01*
X189784391Y-85651260D01*
X189784389Y-85651259D01*
X189415097Y-85516847D01*
X189174441Y-85452363D01*
X189035497Y-85415133D01*
X189035486Y-85415131D01*
X188648478Y-85346891D01*
X188256981Y-85312640D01*
X188256977Y-85312640D01*
X187863985Y-85312640D01*
X187863980Y-85312640D01*
X187472485Y-85346891D01*
X187472481Y-85346891D01*
X187085475Y-85415131D01*
X187085464Y-85415133D01*
X186882036Y-85469642D01*
X186705865Y-85516847D01*
X186705862Y-85516848D01*
X186705861Y-85516848D01*
X186336559Y-85651264D01*
X185980418Y-85817335D01*
X185980394Y-85817347D01*
X185640068Y-86013835D01*
X185640053Y-86013844D01*
X185318133Y-86239255D01*
X185017087Y-86491864D01*
X184739205Y-86769746D01*
X184486596Y-87070792D01*
X184261185Y-87392712D01*
X184261176Y-87392727D01*
X184064688Y-87733053D01*
X184064676Y-87733077D01*
X183898605Y-88089218D01*
X183764189Y-88458520D01*
X183764189Y-88458522D01*
X183662474Y-88838123D01*
X183662472Y-88838134D01*
X183594232Y-89225140D01*
X183594232Y-89225144D01*
X183559981Y-89616639D01*
X183559981Y-90009640D01*
X183594232Y-90401135D01*
X183594232Y-90401139D01*
X183662472Y-90788145D01*
X183662474Y-90788156D01*
X183668660Y-90811243D01*
X183764188Y-91167756D01*
X183764189Y-91167758D01*
X183764189Y-91167759D01*
X183768337Y-91179155D01*
X183879205Y-91483762D01*
X183898605Y-91537061D01*
X184064676Y-91893202D01*
X184064688Y-91893226D01*
X184261176Y-92233552D01*
X184261185Y-92233567D01*
X184486596Y-92555487D01*
X184602582Y-92693713D01*
X184739203Y-92856531D01*
X185017090Y-93134418D01*
X185124219Y-93224310D01*
X185318133Y-93387024D01*
X185318139Y-93387028D01*
X185318140Y-93387029D01*
X185640060Y-93612440D01*
X185980401Y-93808936D01*
X185980415Y-93808942D01*
X185980418Y-93808944D01*
X186336559Y-93975015D01*
X186336564Y-93975016D01*
X186336573Y-93975021D01*
X186705865Y-94109433D01*
X187085466Y-94211147D01*
X187395939Y-94265891D01*
X187455377Y-94276372D01*
X187517980Y-94307399D01*
X187553871Y-94367346D01*
X187551654Y-94437180D01*
X187512034Y-94494730D01*
X187447589Y-94521724D01*
X187433564Y-94522488D01*
X153385252Y-94445304D01*
X153318257Y-94425467D01*
X153272622Y-94372560D01*
X153262835Y-94303379D01*
X153292004Y-94239889D01*
X153350868Y-94202248D01*
X153353375Y-94201546D01*
X153697148Y-94109433D01*
X154066440Y-93975021D01*
X154422612Y-93808936D01*
X154762953Y-93612440D01*
X155084873Y-93387029D01*
X155385923Y-93134418D01*
X155663810Y-92856531D01*
X155916421Y-92555481D01*
X156141832Y-92233561D01*
X156338328Y-91893220D01*
X156504413Y-91537048D01*
X156592429Y-91295229D01*
X156633856Y-91238965D01*
X156699125Y-91214030D01*
X156708951Y-91213640D01*
X158471503Y-91213640D01*
X158471527Y-91213641D01*
X158476638Y-91213641D01*
X158697081Y-91213641D01*
X158697082Y-91213641D01*
X158914811Y-91179155D01*
X159124466Y-91111035D01*
X159320882Y-91010955D01*
X159390859Y-90960114D01*
X159499225Y-90881382D01*
X159655102Y-90725505D01*
X159655103Y-90725503D01*
X159662163Y-90718443D01*
X159662169Y-90718436D01*
X164460932Y-85919673D01*
X166207861Y-85919673D01*
X166207861Y-86263604D01*
X166241571Y-86605888D01*
X166308669Y-86943211D01*
X166408511Y-87272345D01*
X166540131Y-87590103D01*
X166540133Y-87590108D01*
X166702254Y-87893414D01*
X166702265Y-87893432D01*
X166893336Y-88179390D01*
X166893346Y-88179404D01*
X167111537Y-88445271D01*
X167354728Y-88688462D01*
X167354733Y-88688466D01*
X167354734Y-88688467D01*
X167620601Y-88906658D01*
X167906574Y-89097739D01*
X167906583Y-89097744D01*
X167906585Y-89097745D01*
X168209891Y-89259866D01*
X168209893Y-89259866D01*
X168209899Y-89259870D01*
X168527656Y-89391489D01*
X168856783Y-89491329D01*
X169194111Y-89558428D01*
X169536392Y-89592139D01*
X169536395Y-89592139D01*
X169880327Y-89592139D01*
X169880330Y-89592139D01*
X170222611Y-89558428D01*
X170559939Y-89491329D01*
X170889066Y-89391489D01*
X171206823Y-89259870D01*
X171510148Y-89097739D01*
X171796121Y-88906658D01*
X172061988Y-88688467D01*
X172305189Y-88445266D01*
X172523380Y-88179399D01*
X172714461Y-87893426D01*
X172876592Y-87590101D01*
X173008211Y-87272344D01*
X173108051Y-86943217D01*
X173175150Y-86605889D01*
X173208861Y-86263608D01*
X173208861Y-85919670D01*
X173175150Y-85577389D01*
X173108051Y-85240061D01*
X173008211Y-84910934D01*
X172876592Y-84593177D01*
X172714461Y-84289852D01*
X172523380Y-84003879D01*
X172305189Y-83738012D01*
X172305188Y-83738011D01*
X172305184Y-83738006D01*
X172061993Y-83494815D01*
X171796126Y-83276624D01*
X171796125Y-83276623D01*
X171796121Y-83276620D01*
X171510148Y-83085539D01*
X171510143Y-83085536D01*
X171510136Y-83085532D01*
X171206830Y-82923411D01*
X171206825Y-82923409D01*
X170889067Y-82791789D01*
X170559933Y-82691947D01*
X170222609Y-82624849D01*
X170222610Y-82624849D01*
X169964817Y-82599460D01*
X169880330Y-82591139D01*
X169536392Y-82591139D01*
X169458327Y-82598827D01*
X169194111Y-82624849D01*
X168856788Y-82691947D01*
X168527654Y-82791789D01*
X168209896Y-82923409D01*
X168209891Y-82923411D01*
X167906585Y-83085532D01*
X167906567Y-83085543D01*
X167620609Y-83276614D01*
X167620595Y-83276624D01*
X167354728Y-83494815D01*
X167111537Y-83738006D01*
X166893346Y-84003873D01*
X166893336Y-84003887D01*
X166702265Y-84289845D01*
X166702254Y-84289863D01*
X166540133Y-84593169D01*
X166540131Y-84593174D01*
X166408511Y-84910932D01*
X166308669Y-85240066D01*
X166241571Y-85577389D01*
X166207861Y-85919673D01*
X164460932Y-85919673D01*
X174015799Y-76364805D01*
X174077120Y-76331322D01*
X174146812Y-76336306D01*
X174202745Y-76378178D01*
X174220000Y-76410077D01*
X174248020Y-76487061D01*
X174414091Y-76843202D01*
X174414100Y-76843220D01*
X174589039Y-77146224D01*
X174610591Y-77183552D01*
X174610600Y-77183567D01*
X174836011Y-77505487D01*
X174911910Y-77595939D01*
X175088618Y-77806531D01*
X175366505Y-78084418D01*
X175424526Y-78133103D01*
X175667548Y-78337024D01*
X175667554Y-78337028D01*
X175667555Y-78337029D01*
X175989475Y-78562440D01*
X176329816Y-78758936D01*
X176329830Y-78758942D01*
X176329833Y-78758944D01*
X176685974Y-78925015D01*
X176685979Y-78925016D01*
X176685988Y-78925021D01*
X177055280Y-79059433D01*
X177434881Y-79161147D01*
X177821903Y-79229389D01*
X178213398Y-79263639D01*
X178213399Y-79263640D01*
X178213400Y-79263640D01*
X178606393Y-79263640D01*
X178606393Y-79263639D01*
X178997889Y-79229389D01*
X179384911Y-79161147D01*
X179764512Y-79059433D01*
X180133804Y-78925021D01*
X180489976Y-78758936D01*
X180830317Y-78562440D01*
X181152237Y-78337029D01*
X181453287Y-78084418D01*
X181731174Y-77806531D01*
X181983785Y-77505481D01*
X182209196Y-77183561D01*
X182405692Y-76843220D01*
X182549174Y-76535518D01*
X182571771Y-76487061D01*
X182571771Y-76487060D01*
X182571777Y-76487048D01*
X182706189Y-76117756D01*
X182807903Y-75738155D01*
X182876145Y-75351133D01*
X182910396Y-74959636D01*
X182910396Y-74566644D01*
X182876145Y-74175147D01*
X182807903Y-73788125D01*
X182706189Y-73408524D01*
X182571777Y-73039232D01*
X182571772Y-73039223D01*
X182571771Y-73039218D01*
X182405700Y-72683077D01*
X182405688Y-72683053D01*
X182393351Y-72661686D01*
X182209196Y-72342719D01*
X181983785Y-72020799D01*
X181983784Y-72020798D01*
X181983780Y-72020792D01*
X181731171Y-71719746D01*
X181453289Y-71441864D01*
X181451935Y-71440728D01*
X181307358Y-71319413D01*
X181152243Y-71189255D01*
X180830323Y-70963844D01*
X180830320Y-70963842D01*
X180830317Y-70963840D01*
X180729201Y-70905460D01*
X180489982Y-70767347D01*
X180489958Y-70767335D01*
X180133817Y-70601264D01*
X180133806Y-70601260D01*
X180133804Y-70601259D01*
X179764512Y-70466847D01*
X179429528Y-70377088D01*
X179384912Y-70365133D01*
X179384901Y-70365131D01*
X178997893Y-70296891D01*
X178606396Y-70262640D01*
X178606392Y-70262640D01*
X178213400Y-70262640D01*
X178213395Y-70262640D01*
X177821900Y-70296891D01*
X177821896Y-70296891D01*
X177434890Y-70365131D01*
X177434879Y-70365133D01*
X177231451Y-70419642D01*
X177055280Y-70466847D01*
X177055277Y-70466848D01*
X177055276Y-70466848D01*
X176685974Y-70601264D01*
X176329833Y-70767335D01*
X176329809Y-70767347D01*
X175989483Y-70963835D01*
X175989468Y-70963844D01*
X175667548Y-71189255D01*
X175366502Y-71441864D01*
X175088620Y-71719746D01*
X174836011Y-72020792D01*
X174610600Y-72342712D01*
X174610591Y-72342727D01*
X174414103Y-72683053D01*
X174414091Y-72683077D01*
X174248020Y-73039218D01*
X174159999Y-73281051D01*
X174118572Y-73337315D01*
X174053303Y-73362250D01*
X174043477Y-73362640D01*
X173752217Y-73362640D01*
X173752193Y-73362639D01*
X173747082Y-73362639D01*
X173526638Y-73362639D01*
X173454061Y-73374134D01*
X173308907Y-73397125D01*
X173099256Y-73465243D01*
X173099253Y-73465244D01*
X172902834Y-73565327D01*
X172724501Y-73694892D01*
X172724496Y-73694896D01*
X172568615Y-73850778D01*
X158043073Y-88376321D01*
X157981750Y-88409806D01*
X157955392Y-88412640D01*
X156708951Y-88412640D01*
X156641912Y-88392955D01*
X156596157Y-88340151D01*
X156592429Y-88331051D01*
X156537228Y-88179390D01*
X156504413Y-88089232D01*
X156504408Y-88089223D01*
X156504407Y-88089218D01*
X156338336Y-87733077D01*
X156338324Y-87733053D01*
X156325987Y-87711686D01*
X156141832Y-87392719D01*
X155916421Y-87070799D01*
X155916420Y-87070798D01*
X155916416Y-87070792D01*
X155663807Y-86769746D01*
X155385925Y-86491864D01*
X155084879Y-86239255D01*
X154762959Y-86013844D01*
X154762956Y-86013842D01*
X154762953Y-86013840D01*
X154599846Y-85919670D01*
X154422618Y-85817347D01*
X154422594Y-85817335D01*
X154066453Y-85651264D01*
X154066442Y-85651260D01*
X154066440Y-85651259D01*
X153697148Y-85516847D01*
X153456492Y-85452363D01*
X153317548Y-85415133D01*
X153317537Y-85415131D01*
X152930529Y-85346891D01*
X152539032Y-85312640D01*
X152539028Y-85312640D01*
X152146036Y-85312640D01*
X152146031Y-85312640D01*
X151754536Y-85346891D01*
X151754532Y-85346891D01*
X151367526Y-85415131D01*
X151367515Y-85415133D01*
X151164087Y-85469642D01*
X150987916Y-85516847D01*
X150987913Y-85516848D01*
X150987912Y-85516848D01*
X150618610Y-85651264D01*
X150262469Y-85817335D01*
X150262445Y-85817347D01*
X149922119Y-86013835D01*
X149922104Y-86013844D01*
X149600184Y-86239255D01*
X149299138Y-86491864D01*
X149021256Y-86769746D01*
X148768647Y-87070792D01*
X148543236Y-87392712D01*
X148543227Y-87392727D01*
X148346739Y-87733053D01*
X148346727Y-87733077D01*
X148180656Y-88089218D01*
X148046240Y-88458520D01*
X148046240Y-88458522D01*
X147944525Y-88838123D01*
X147944523Y-88838134D01*
X147876283Y-89225140D01*
X147876283Y-89225144D01*
X147842032Y-89616639D01*
X147842032Y-90009640D01*
X147876283Y-90401135D01*
X147876283Y-90401139D01*
X147944523Y-90788145D01*
X147944525Y-90788156D01*
X147950711Y-90811243D01*
X148046239Y-91167756D01*
X148046240Y-91167758D01*
X148046240Y-91167759D01*
X148050388Y-91179155D01*
X148161256Y-91483762D01*
X148180656Y-91537061D01*
X148346727Y-91893202D01*
X148346739Y-91893226D01*
X148543227Y-92233552D01*
X148543236Y-92233567D01*
X148768647Y-92555487D01*
X148884633Y-92693713D01*
X149021254Y-92856531D01*
X149299141Y-93134418D01*
X149406270Y-93224310D01*
X149600184Y-93387024D01*
X149600190Y-93387028D01*
X149600191Y-93387029D01*
X149922111Y-93612440D01*
X150262452Y-93808936D01*
X150262466Y-93808942D01*
X150262469Y-93808944D01*
X150618610Y-93975015D01*
X150618615Y-93975016D01*
X150618624Y-93975021D01*
X150987916Y-94109433D01*
X151313827Y-94196760D01*
X151373486Y-94233125D01*
X151404015Y-94295972D01*
X151395720Y-94365348D01*
X151351235Y-94419226D01*
X151284683Y-94440500D01*
X151281451Y-94440535D01*
X140913719Y-94417032D01*
X140846724Y-94397195D01*
X140801089Y-94344288D01*
X140790000Y-94293032D01*
X140790000Y-84974500D01*
X140809685Y-84907461D01*
X140862489Y-84861706D01*
X140914000Y-84850500D01*
X141164208Y-84850500D01*
X141164216Y-84850500D01*
X141296411Y-84840096D01*
X141514683Y-84785096D01*
X141719626Y-84692007D01*
X141904654Y-84563819D01*
X142063819Y-84404654D01*
X142192007Y-84219626D01*
X142285096Y-84014683D01*
X142340096Y-83796411D01*
X142350500Y-83664216D01*
X142350500Y-80735784D01*
X142340096Y-80603589D01*
X142285096Y-80385317D01*
X142192007Y-80180374D01*
X142155698Y-80127965D01*
X142063825Y-79995354D01*
X142063822Y-79995350D01*
X142063819Y-79995346D01*
X141904654Y-79836181D01*
X141904650Y-79836178D01*
X141904645Y-79836174D01*
X141719632Y-79707997D01*
X141719630Y-79707995D01*
X141719626Y-79707993D01*
X141634803Y-79669465D01*
X141514681Y-79614903D01*
X141514678Y-79614902D01*
X141296419Y-79559905D01*
X141296412Y-79559904D01*
X141164221Y-79549500D01*
X141164216Y-79549500D01*
X140914000Y-79549500D01*
X140846961Y-79529815D01*
X140801206Y-79477011D01*
X140796811Y-79456811D01*
X140790000Y-79450000D01*
X118650810Y-79450000D01*
X118583771Y-79430315D01*
X118538016Y-79377511D01*
X118526810Y-79326000D01*
X118526810Y-77200000D01*
X121760367Y-77200000D01*
X121781653Y-77361687D01*
X121844421Y-77595939D01*
X121937220Y-77819978D01*
X121937227Y-77819993D01*
X122058480Y-78030009D01*
X122206110Y-78222405D01*
X122206116Y-78222412D01*
X122377587Y-78393883D01*
X122377594Y-78393889D01*
X122569990Y-78541519D01*
X122780006Y-78662772D01*
X122780016Y-78662776D01*
X123004051Y-78755575D01*
X123004061Y-78755578D01*
X123099999Y-78781284D01*
X123100000Y-78781284D01*
X124100000Y-78781284D01*
X124195938Y-78755578D01*
X124195948Y-78755575D01*
X124419983Y-78662776D01*
X124419993Y-78662772D01*
X124630009Y-78541519D01*
X124822405Y-78393889D01*
X124822412Y-78393883D01*
X124993883Y-78222412D01*
X124993889Y-78222405D01*
X125141519Y-78030009D01*
X125262772Y-77819993D01*
X125262779Y-77819978D01*
X125355578Y-77595939D01*
X125418346Y-77361687D01*
X125439633Y-77200000D01*
X125960367Y-77200000D01*
X125981653Y-77361687D01*
X126044421Y-77595939D01*
X126137220Y-77819978D01*
X126137227Y-77819993D01*
X126258480Y-78030009D01*
X126406110Y-78222405D01*
X126406116Y-78222412D01*
X126577587Y-78393883D01*
X126577594Y-78393889D01*
X126769990Y-78541519D01*
X126980006Y-78662772D01*
X126980016Y-78662776D01*
X127204051Y-78755575D01*
X127204061Y-78755578D01*
X127299999Y-78781284D01*
X127300000Y-78781284D01*
X128300000Y-78781284D01*
X128395938Y-78755578D01*
X128395948Y-78755575D01*
X128619983Y-78662776D01*
X128619993Y-78662772D01*
X128830009Y-78541519D01*
X129022405Y-78393889D01*
X129022412Y-78393883D01*
X129193883Y-78222412D01*
X129193889Y-78222405D01*
X129341519Y-78030009D01*
X129462772Y-77819993D01*
X129462779Y-77819978D01*
X129555578Y-77595939D01*
X129618346Y-77361687D01*
X129639633Y-77200000D01*
X138160367Y-77200000D01*
X138181653Y-77361687D01*
X138244421Y-77595939D01*
X138337220Y-77819978D01*
X138337227Y-77819993D01*
X138458480Y-78030009D01*
X138606110Y-78222405D01*
X138606116Y-78222412D01*
X138777587Y-78393883D01*
X138777594Y-78393889D01*
X138969990Y-78541519D01*
X139180006Y-78662772D01*
X139180016Y-78662776D01*
X139404051Y-78755575D01*
X139404061Y-78755578D01*
X139499999Y-78781284D01*
X139500000Y-78781284D01*
X140500000Y-78781284D01*
X140595938Y-78755578D01*
X140595948Y-78755575D01*
X140819983Y-78662776D01*
X140819993Y-78662772D01*
X141030009Y-78541519D01*
X141222405Y-78393889D01*
X141222412Y-78393883D01*
X141393883Y-78222412D01*
X141393889Y-78222405D01*
X141541519Y-78030009D01*
X141662772Y-77819993D01*
X141662779Y-77819978D01*
X141755578Y-77595939D01*
X141818346Y-77361687D01*
X141839633Y-77200000D01*
X140500000Y-77200000D01*
X140500000Y-78781284D01*
X139500000Y-78781284D01*
X139500000Y-77200000D01*
X138160367Y-77200000D01*
X129639633Y-77200000D01*
X128300000Y-77200000D01*
X128300000Y-78781284D01*
X127300000Y-78781284D01*
X127300000Y-77200000D01*
X125960367Y-77200000D01*
X125439633Y-77200000D01*
X124100000Y-77200000D01*
X124100000Y-78781284D01*
X123100000Y-78781284D01*
X123100000Y-77200000D01*
X121760367Y-77200000D01*
X118526810Y-77200000D01*
X118526810Y-76631056D01*
X122900000Y-76631056D01*
X122900000Y-76768944D01*
X122926901Y-76904182D01*
X122979668Y-77031574D01*
X123056274Y-77146224D01*
X123153776Y-77243726D01*
X123268426Y-77320332D01*
X123395818Y-77373099D01*
X123531056Y-77400000D01*
X123668944Y-77400000D01*
X123804182Y-77373099D01*
X123931574Y-77320332D01*
X124046224Y-77243726D01*
X124143726Y-77146224D01*
X124220332Y-77031574D01*
X124273099Y-76904182D01*
X124300000Y-76768944D01*
X124300000Y-76631056D01*
X127100000Y-76631056D01*
X127100000Y-76768944D01*
X127126901Y-76904182D01*
X127179668Y-77031574D01*
X127256274Y-77146224D01*
X127353776Y-77243726D01*
X127468426Y-77320332D01*
X127595818Y-77373099D01*
X127731056Y-77400000D01*
X127868944Y-77400000D01*
X128004182Y-77373099D01*
X128131574Y-77320332D01*
X128246224Y-77243726D01*
X128343726Y-77146224D01*
X128420332Y-77031574D01*
X128473099Y-76904182D01*
X128500000Y-76768944D01*
X128500000Y-76631056D01*
X139300000Y-76631056D01*
X139300000Y-76768944D01*
X139326901Y-76904182D01*
X139379668Y-77031574D01*
X139456274Y-77146224D01*
X139553776Y-77243726D01*
X139668426Y-77320332D01*
X139795818Y-77373099D01*
X139931056Y-77400000D01*
X140068944Y-77400000D01*
X140204182Y-77373099D01*
X140331574Y-77320332D01*
X140446224Y-77243726D01*
X140543726Y-77146224D01*
X140620332Y-77031574D01*
X140673099Y-76904182D01*
X140700000Y-76768944D01*
X140700000Y-76631056D01*
X140673099Y-76495818D01*
X140659370Y-76462672D01*
X160747861Y-76462672D01*
X160747861Y-76806610D01*
X160757471Y-76904182D01*
X160781571Y-77148890D01*
X160848669Y-77486213D01*
X160948511Y-77815347D01*
X161080131Y-78133105D01*
X161080133Y-78133110D01*
X161242254Y-78436416D01*
X161242265Y-78436434D01*
X161433336Y-78722392D01*
X161433346Y-78722406D01*
X161651537Y-78988273D01*
X161894728Y-79231464D01*
X161894733Y-79231468D01*
X161894734Y-79231469D01*
X162160601Y-79449660D01*
X162446574Y-79640741D01*
X162446583Y-79640746D01*
X162446585Y-79640747D01*
X162749891Y-79802868D01*
X162749893Y-79802868D01*
X162749899Y-79802872D01*
X163067656Y-79934491D01*
X163396783Y-80034331D01*
X163734111Y-80101430D01*
X164076392Y-80135141D01*
X164076395Y-80135141D01*
X164420327Y-80135141D01*
X164420330Y-80135141D01*
X164762611Y-80101430D01*
X165099939Y-80034331D01*
X165429066Y-79934491D01*
X165746823Y-79802872D01*
X166050148Y-79640741D01*
X166336121Y-79449660D01*
X166601988Y-79231469D01*
X166845189Y-78988268D01*
X167063380Y-78722401D01*
X167254461Y-78436428D01*
X167416592Y-78133103D01*
X167548211Y-77815346D01*
X167648051Y-77486219D01*
X167715150Y-77148891D01*
X167748861Y-76806610D01*
X167748861Y-76462672D01*
X167715150Y-76120391D01*
X167648051Y-75783063D01*
X167548211Y-75453936D01*
X167416592Y-75136179D01*
X167347068Y-75006110D01*
X167254467Y-74832865D01*
X167254466Y-74832863D01*
X167254461Y-74832854D01*
X167063380Y-74546881D01*
X166845189Y-74281014D01*
X166845188Y-74281013D01*
X166845184Y-74281008D01*
X166601993Y-74037817D01*
X166336126Y-73819626D01*
X166336125Y-73819625D01*
X166336121Y-73819622D01*
X166050148Y-73628541D01*
X166050143Y-73628538D01*
X166050136Y-73628534D01*
X165746830Y-73466413D01*
X165746825Y-73466411D01*
X165744005Y-73465243D01*
X165607064Y-73408520D01*
X165429067Y-73334791D01*
X165099933Y-73234949D01*
X164762609Y-73167851D01*
X164762610Y-73167851D01*
X164504817Y-73142462D01*
X164420330Y-73134141D01*
X164076392Y-73134141D01*
X163998327Y-73141829D01*
X163734111Y-73167851D01*
X163396788Y-73234949D01*
X163067654Y-73334791D01*
X162749896Y-73466411D01*
X162749891Y-73466413D01*
X162446585Y-73628534D01*
X162446567Y-73628545D01*
X162160609Y-73819616D01*
X162160595Y-73819626D01*
X161894728Y-74037817D01*
X161651537Y-74281008D01*
X161433346Y-74546875D01*
X161433336Y-74546889D01*
X161242265Y-74832847D01*
X161242254Y-74832865D01*
X161080133Y-75136171D01*
X161080131Y-75136176D01*
X160948511Y-75453934D01*
X160848669Y-75783068D01*
X160781571Y-76120391D01*
X160760307Y-76336306D01*
X160747861Y-76462672D01*
X140659370Y-76462672D01*
X140620332Y-76368426D01*
X140543726Y-76253776D01*
X140489950Y-76200000D01*
X140500000Y-76200000D01*
X141839633Y-76200000D01*
X141818346Y-76038312D01*
X141755578Y-75804060D01*
X141662779Y-75580021D01*
X141662772Y-75580006D01*
X141541519Y-75369990D01*
X141393889Y-75177594D01*
X141393883Y-75177587D01*
X141222412Y-75006116D01*
X141222405Y-75006110D01*
X141030009Y-74858480D01*
X140819993Y-74737227D01*
X140819978Y-74737220D01*
X140595939Y-74644421D01*
X140500000Y-74618714D01*
X140500000Y-76200000D01*
X140489950Y-76200000D01*
X140446224Y-76156274D01*
X140331574Y-76079668D01*
X140204182Y-76026901D01*
X140068944Y-76000000D01*
X139931056Y-76000000D01*
X139795818Y-76026901D01*
X139668426Y-76079668D01*
X139553776Y-76156274D01*
X139456274Y-76253776D01*
X139379668Y-76368426D01*
X139326901Y-76495818D01*
X139300000Y-76631056D01*
X128500000Y-76631056D01*
X128473099Y-76495818D01*
X128420332Y-76368426D01*
X128343726Y-76253776D01*
X128289950Y-76200000D01*
X128300000Y-76200000D01*
X129639633Y-76200000D01*
X138160366Y-76200000D01*
X139500000Y-76200000D01*
X139500000Y-74618714D01*
X139499999Y-74618714D01*
X139404060Y-74644421D01*
X139180021Y-74737220D01*
X139180006Y-74737227D01*
X138969990Y-74858480D01*
X138777594Y-75006110D01*
X138777587Y-75006116D01*
X138606116Y-75177587D01*
X138606110Y-75177594D01*
X138458480Y-75369990D01*
X138337227Y-75580006D01*
X138337220Y-75580021D01*
X138244421Y-75804060D01*
X138181653Y-76038312D01*
X138160366Y-76200000D01*
X129639633Y-76200000D01*
X129618346Y-76038312D01*
X129555578Y-75804060D01*
X129462779Y-75580021D01*
X129462772Y-75580006D01*
X129341519Y-75369990D01*
X129193889Y-75177594D01*
X129193883Y-75177587D01*
X129022412Y-75006116D01*
X129022405Y-75006110D01*
X128830009Y-74858480D01*
X128619993Y-74737227D01*
X128619978Y-74737220D01*
X128395939Y-74644421D01*
X128300000Y-74618714D01*
X128300000Y-76200000D01*
X128289950Y-76200000D01*
X128246224Y-76156274D01*
X128131574Y-76079668D01*
X128004182Y-76026901D01*
X127868944Y-76000000D01*
X127731056Y-76000000D01*
X127595818Y-76026901D01*
X127468426Y-76079668D01*
X127353776Y-76156274D01*
X127256274Y-76253776D01*
X127179668Y-76368426D01*
X127126901Y-76495818D01*
X127100000Y-76631056D01*
X124300000Y-76631056D01*
X124273099Y-76495818D01*
X124220332Y-76368426D01*
X124143726Y-76253776D01*
X124089950Y-76200000D01*
X124100000Y-76200000D01*
X125439633Y-76200000D01*
X125960366Y-76200000D01*
X127300000Y-76200000D01*
X127300000Y-74618714D01*
X127299999Y-74618714D01*
X127204060Y-74644421D01*
X126980021Y-74737220D01*
X126980006Y-74737227D01*
X126769990Y-74858480D01*
X126577594Y-75006110D01*
X126577587Y-75006116D01*
X126406116Y-75177587D01*
X126406110Y-75177594D01*
X126258480Y-75369990D01*
X126137227Y-75580006D01*
X126137220Y-75580021D01*
X126044421Y-75804060D01*
X125981653Y-76038312D01*
X125960366Y-76200000D01*
X125439633Y-76200000D01*
X125418346Y-76038312D01*
X125355578Y-75804060D01*
X125262779Y-75580021D01*
X125262772Y-75580006D01*
X125141519Y-75369990D01*
X124993889Y-75177594D01*
X124993883Y-75177587D01*
X124822412Y-75006116D01*
X124822405Y-75006110D01*
X124630009Y-74858480D01*
X124419993Y-74737227D01*
X124419978Y-74737220D01*
X124195939Y-74644421D01*
X124100000Y-74618714D01*
X124100000Y-76200000D01*
X124089950Y-76200000D01*
X124046224Y-76156274D01*
X123931574Y-76079668D01*
X123804182Y-76026901D01*
X123668944Y-76000000D01*
X123531056Y-76000000D01*
X123395818Y-76026901D01*
X123268426Y-76079668D01*
X123153776Y-76156274D01*
X123056274Y-76253776D01*
X122979668Y-76368426D01*
X122926901Y-76495818D01*
X122900000Y-76631056D01*
X118526810Y-76631056D01*
X118526810Y-76200000D01*
X121760366Y-76200000D01*
X123100000Y-76200000D01*
X123100000Y-74618714D01*
X123099999Y-74618714D01*
X123004060Y-74644421D01*
X122780021Y-74737220D01*
X122780006Y-74737227D01*
X122569990Y-74858480D01*
X122377594Y-75006110D01*
X122377587Y-75006116D01*
X122206116Y-75177587D01*
X122206110Y-75177594D01*
X122058480Y-75369990D01*
X121937227Y-75580006D01*
X121937220Y-75580021D01*
X121844421Y-75804060D01*
X121781653Y-76038312D01*
X121760366Y-76200000D01*
X118526810Y-76200000D01*
X118526810Y-72602706D01*
X118526928Y-72597297D01*
X118529687Y-72534108D01*
X118543696Y-72213226D01*
X118544636Y-72202495D01*
X118594462Y-71824026D01*
X118596335Y-71813406D01*
X118678959Y-71440710D01*
X118681750Y-71430296D01*
X118796539Y-71066229D01*
X118800227Y-71056097D01*
X118946313Y-70703414D01*
X118950871Y-70693640D01*
X119127143Y-70355026D01*
X119132519Y-70345715D01*
X119337637Y-70023745D01*
X119343821Y-70014913D01*
X119576206Y-69712064D01*
X119583144Y-69703795D01*
X119841036Y-69422356D01*
X119848662Y-69414730D01*
X120130101Y-69156838D01*
X120138370Y-69149900D01*
X120441214Y-68917520D01*
X120450054Y-68911330D01*
X120772010Y-68706222D01*
X120781364Y-68700823D01*
X121119950Y-68524566D01*
X121129719Y-68520010D01*
X121482414Y-68373920D01*
X121492528Y-68370239D01*
X121856605Y-68255447D01*
X121867019Y-68252656D01*
X122239719Y-68170032D01*
X122250330Y-68168161D01*
X122628805Y-68118334D01*
X122639535Y-68117395D01*
X122907693Y-68105688D01*
X123023845Y-68100618D01*
X123029253Y-68100500D01*
X123092201Y-68100500D01*
X186340995Y-68100500D01*
X186408034Y-68120185D01*
G37*
%TD.AperFunction*%
%TD*%
M02*
