%TF.GenerationSoftware,KiCad,Pcbnew,9.0.4*%
%TF.CreationDate,2026-03-16T14:24:37-04:00*%
%TF.ProjectId,Power Amp Board,506f7765-7220-4416-9d70-20426f617264,rev?*%
%TF.SameCoordinates,Original*%
%TF.FileFunction,Copper,L2,Inr*%
%TF.FilePolarity,Positive*%
%FSLAX46Y46*%
G04 Gerber Fmt 4.6, Leading zero omitted, Abs format (unit mm)*
G04 Created by KiCad (PCBNEW 9.0.4) date 2026-03-16 14:24:37*
%MOMM*%
%LPD*%
G01*
G04 APERTURE LIST*
G04 Aperture macros list*
%AMRoundRect*
0 Rectangle with rounded corners*
0 $1 Rounding radius*
0 $2 $3 $4 $5 $6 $7 $8 $9 X,Y pos of 4 corners*
0 Add a 4 corners polygon primitive as box body*
4,1,4,$2,$3,$4,$5,$6,$7,$8,$9,$2,$3,0*
0 Add four circle primitives for the rounded corners*
1,1,$1+$1,$2,$3*
1,1,$1+$1,$4,$5*
1,1,$1+$1,$6,$7*
1,1,$1+$1,$8,$9*
0 Add four rect primitives between the rounded corners*
20,1,$1+$1,$2,$3,$4,$5,0*
20,1,$1+$1,$4,$5,$6,$7,0*
20,1,$1+$1,$6,$7,$8,$9,0*
20,1,$1+$1,$8,$9,$2,$3,0*%
G04 Aperture macros list end*
%TA.AperFunction,ComponentPad*%
%ADD10RoundRect,0.250001X-1.099999X-1.399999X1.099999X-1.399999X1.099999X1.399999X-1.099999X1.399999X0*%
%TD*%
%TA.AperFunction,ComponentPad*%
%ADD11O,2.700000X3.300000*%
%TD*%
%TA.AperFunction,ComponentPad*%
%ADD12RoundRect,0.250002X1.599998X1.599998X-1.599998X1.599998X-1.599998X-1.599998X1.599998X-1.599998X0*%
%TD*%
%TA.AperFunction,ComponentPad*%
%ADD13C,3.700000*%
%TD*%
%TA.AperFunction,ComponentPad*%
%ADD14R,1.500000X1.050000*%
%TD*%
%TA.AperFunction,ComponentPad*%
%ADD15O,1.500000X1.050000*%
%TD*%
%TA.AperFunction,ComponentPad*%
%ADD16RoundRect,0.250001X-1.399999X1.099999X-1.399999X-1.099999X1.399999X-1.099999X1.399999X1.099999X0*%
%TD*%
%TA.AperFunction,ComponentPad*%
%ADD17O,3.300000X2.700000*%
%TD*%
%TA.AperFunction,ComponentPad*%
%ADD18C,5.000000*%
%TD*%
%TA.AperFunction,ComponentPad*%
%ADD19C,7.000000*%
%TD*%
%TA.AperFunction,ViaPad*%
%ADD20C,0.700000*%
%TD*%
G04 APERTURE END LIST*
D10*
%TO.N,GND*%
%TO.C,J2*%
X140000000Y-75750000D03*
D11*
%TO.N,/audio_in+*%
X140000000Y-81250000D03*
%TD*%
D12*
%TO.N,GND*%
%TO.C,J1*%
X132250000Y-123300000D03*
D13*
X126550000Y-123300000D03*
%TO.N,24V*%
X132250000Y-117600000D03*
%TO.N,-24V*%
X126550000Y-117600000D03*
%TD*%
D10*
%TO.N,GND*%
%TO.C,P1*%
X123500000Y-75750000D03*
D11*
X127700000Y-75750000D03*
%TO.N,/post_pot*%
X123500000Y-81250000D03*
%TO.N,/buffer*%
X127700000Y-81250000D03*
%TD*%
D14*
%TO.N,Net-(Q1-C)*%
%TO.C,Q1*%
X132880000Y-92475000D03*
D15*
%TO.N,Net-(D1-A)*%
X132880000Y-93745000D03*
%TO.N,Net-(Q1-E)*%
X132880000Y-95015000D03*
%TD*%
D16*
%TO.N,GND*%
%TO.C,J3*%
X217400000Y-98000000D03*
D17*
%TO.N,/audio_out+*%
X211900000Y-98000000D03*
%TD*%
D14*
%TO.N,Net-(Q2-C)*%
%TO.C,Q2*%
X133600000Y-103140000D03*
D15*
%TO.N,Net-(D2-K)*%
X133600000Y-101870000D03*
%TO.N,Net-(Q2-E)*%
X133600000Y-100600000D03*
%TD*%
D18*
%TO.N,Net-(Q3-E)*%
%TO.C,Q3*%
X160600000Y-78330718D03*
%TO.N,Net-(Q1-C)*%
X166060000Y-87787716D03*
D19*
%TO.N,/audio_out+*%
X177965829Y-74609217D03*
X151898465Y-89659217D03*
%TD*%
D18*
%TO.N,Net-(Q4-E)*%
%TO.C,Q4*%
X164064102Y-118363140D03*
%TO.N,Net-(Q2-C)*%
X169524102Y-108906142D03*
D19*
%TO.N,/audio_out+*%
X152158273Y-105184641D03*
X178225637Y-120234641D03*
%TD*%
D18*
%TO.N,Net-(Q6-E)*%
%TO.C,Q6*%
X199782051Y-118363140D03*
%TO.N,Net-(Q2-C)*%
X205242051Y-108906142D03*
D19*
%TO.N,/audio_out+*%
X187876222Y-105184641D03*
X213943586Y-120234641D03*
%TD*%
D18*
%TO.N,Net-(Q5-E)*%
%TO.C,Q5*%
X196317949Y-78330718D03*
%TO.N,Net-(Q1-C)*%
X201777949Y-87787716D03*
D19*
%TO.N,/audio_out+*%
X213683778Y-74609217D03*
X187616414Y-89659217D03*
%TD*%
D20*
%TO.N,GND*%
X218400000Y-93000000D03*
X176600000Y-93600000D03*
X128600000Y-108800000D03*
X171800000Y-93600000D03*
X210800000Y-81000000D03*
X175600000Y-90000000D03*
X128000000Y-88000000D03*
X166800000Y-102600000D03*
X130200000Y-108800000D03*
X126000000Y-70800000D03*
X162000000Y-102600000D03*
X123800000Y-103000000D03*
X125800000Y-100400000D03*
X145000000Y-92200000D03*
X179600000Y-90000000D03*
X178400000Y-125531961D03*
X126800000Y-107800000D03*
X219200000Y-80800000D03*
X169400000Y-69600000D03*
X163400000Y-125531961D03*
X156400000Y-71200000D03*
X218400000Y-103200000D03*
X213600000Y-93000000D03*
X208200000Y-103200000D03*
X146200000Y-71200000D03*
X203400000Y-103200000D03*
X156000000Y-81200000D03*
X164000000Y-69600000D03*
X208200000Y-93000000D03*
X177000000Y-102600000D03*
X174200000Y-69600000D03*
X205600000Y-71600000D03*
X203400000Y-93000000D03*
X136200000Y-70800000D03*
X159200000Y-69600000D03*
X168200000Y-125531961D03*
X161600000Y-93600000D03*
X172200000Y-102600000D03*
X125400000Y-85600000D03*
X209000000Y-114600000D03*
X166400000Y-93600000D03*
X164000000Y-71400000D03*
X130800000Y-70800000D03*
X133040000Y-97695000D03*
X141000000Y-70800000D03*
X173600000Y-125531961D03*
X213600000Y-103200000D03*
X201200000Y-122000000D03*
X132000000Y-107800000D03*
%TO.N,-24V*%
X186600000Y-122800000D03*
X189600000Y-126800000D03*
X150600000Y-125800000D03*
X149600000Y-124800000D03*
X150600000Y-126800000D03*
X187600000Y-126800000D03*
X149600000Y-125800000D03*
X190600000Y-125800000D03*
X152600000Y-125800000D03*
X151600000Y-125800000D03*
X188600000Y-124800000D03*
X153600000Y-123800000D03*
X189600000Y-125800000D03*
X151600000Y-124800000D03*
X149600000Y-122800000D03*
X190600000Y-123800000D03*
X153600000Y-126800000D03*
X127640000Y-102895000D03*
X187600000Y-124800000D03*
X186600000Y-126800000D03*
X126440000Y-96695000D03*
X186600000Y-124800000D03*
X186600000Y-125800000D03*
X187600000Y-123800000D03*
X187600000Y-125800000D03*
X149600000Y-123800000D03*
X189600000Y-124800000D03*
X132200000Y-82600000D03*
X151600000Y-126800000D03*
X150600000Y-123800000D03*
X188600000Y-125800000D03*
X190600000Y-124800000D03*
X150600000Y-124800000D03*
X190600000Y-126800000D03*
X153600000Y-124800000D03*
X186600000Y-123800000D03*
X153600000Y-125800000D03*
X188600000Y-126800000D03*
X149600000Y-126800000D03*
X152600000Y-126800000D03*
X152600000Y-124800000D03*
%TO.N,24V*%
X135800000Y-90000000D03*
X152400000Y-72000000D03*
X185401980Y-70911738D03*
X187400000Y-68909557D03*
X184401980Y-68911738D03*
X186401980Y-70911738D03*
X149400000Y-71000000D03*
X188400000Y-68909557D03*
X185401980Y-71911738D03*
X186400000Y-68909557D03*
X185401980Y-69911738D03*
X150400000Y-70000000D03*
X149400000Y-69000000D03*
X148400000Y-73000000D03*
X121240000Y-90895000D03*
X149400000Y-70000000D03*
X152400000Y-70000000D03*
X187400000Y-70909557D03*
X184401980Y-69911738D03*
X148400000Y-70000000D03*
X152400000Y-71000000D03*
X184401980Y-71911738D03*
X152400000Y-69000000D03*
X151400000Y-71000000D03*
X188400000Y-71909557D03*
X128640000Y-90495000D03*
X188400000Y-70909557D03*
X151400000Y-69000000D03*
X188400000Y-69909557D03*
X184401980Y-72911738D03*
X187400000Y-69909557D03*
X186400000Y-69909557D03*
X148400000Y-69000000D03*
X149400000Y-72000000D03*
X148400000Y-72000000D03*
X150400000Y-69000000D03*
X184401980Y-70911738D03*
X151400000Y-70000000D03*
X150400000Y-71000000D03*
X185401980Y-68911738D03*
X148400000Y-71000000D03*
%TD*%
%TA.AperFunction,Conductor*%
%TO.N,GND*%
G36*
X147208034Y-68120185D02*
G01*
X147253789Y-68172989D01*
X147263733Y-68242147D01*
X147246723Y-68289290D01*
X147244947Y-68292188D01*
X147148444Y-68481585D01*
X147082753Y-68683760D01*
X147049500Y-68893713D01*
X147049500Y-69106286D01*
X147082754Y-69316244D01*
X147130009Y-69461682D01*
X147132004Y-69531524D01*
X147130009Y-69538318D01*
X147082754Y-69683755D01*
X147049500Y-69893713D01*
X147049500Y-70106286D01*
X147082754Y-70316244D01*
X147130009Y-70461682D01*
X147132004Y-70531524D01*
X147130009Y-70538318D01*
X147082754Y-70683755D01*
X147049500Y-70893713D01*
X147049500Y-71106286D01*
X147082754Y-71316244D01*
X147130009Y-71461682D01*
X147132004Y-71531524D01*
X147130009Y-71538318D01*
X147082754Y-71683755D01*
X147049500Y-71893713D01*
X147049500Y-72106286D01*
X147082754Y-72316244D01*
X147130009Y-72461682D01*
X147132004Y-72531524D01*
X147130009Y-72538318D01*
X147082754Y-72683755D01*
X147066031Y-72789343D01*
X147049500Y-72893713D01*
X147049500Y-73106287D01*
X147058184Y-73161114D01*
X147078411Y-73288826D01*
X147082754Y-73316243D01*
X147119765Y-73430152D01*
X147148444Y-73518414D01*
X147244951Y-73707820D01*
X147369890Y-73879786D01*
X147520213Y-74030109D01*
X147692179Y-74155048D01*
X147692181Y-74155049D01*
X147692184Y-74155051D01*
X147881588Y-74251557D01*
X148083757Y-74317246D01*
X148293713Y-74350500D01*
X148293714Y-74350500D01*
X148506286Y-74350500D01*
X148506287Y-74350500D01*
X148716243Y-74317246D01*
X148918412Y-74251557D01*
X149107816Y-74155051D01*
X149129789Y-74139086D01*
X149279786Y-74030109D01*
X149279788Y-74030106D01*
X149279792Y-74030104D01*
X149430104Y-73879792D01*
X149430106Y-73879788D01*
X149430109Y-73879786D01*
X149555048Y-73707820D01*
X149555047Y-73707820D01*
X149555051Y-73707816D01*
X149651557Y-73518412D01*
X149697477Y-73377084D01*
X149736912Y-73319413D01*
X149777082Y-73297477D01*
X149918412Y-73251557D01*
X150107816Y-73155051D01*
X150129789Y-73139086D01*
X150279786Y-73030109D01*
X150279788Y-73030106D01*
X150279792Y-73030104D01*
X150430104Y-72879792D01*
X150430106Y-72879788D01*
X150430109Y-72879786D01*
X150555048Y-72707820D01*
X150555047Y-72707820D01*
X150555051Y-72707816D01*
X150651557Y-72518412D01*
X150697476Y-72377086D01*
X150700562Y-72372573D01*
X150701186Y-72367139D01*
X150720072Y-72344041D01*
X150736912Y-72319414D01*
X150742869Y-72316160D01*
X150745414Y-72313049D01*
X150777085Y-72297476D01*
X150861683Y-72269988D01*
X150931521Y-72267993D01*
X150938311Y-72269987D01*
X151022911Y-72297476D01*
X151080586Y-72336913D01*
X151102522Y-72377086D01*
X151113782Y-72411738D01*
X151148444Y-72518416D01*
X151244951Y-72707820D01*
X151369890Y-72879786D01*
X151520213Y-73030109D01*
X151692179Y-73155048D01*
X151692181Y-73155049D01*
X151692184Y-73155051D01*
X151881588Y-73251557D01*
X152083757Y-73317246D01*
X152293713Y-73350500D01*
X152293714Y-73350500D01*
X152506286Y-73350500D01*
X152506287Y-73350500D01*
X152716243Y-73317246D01*
X152918412Y-73251557D01*
X153107816Y-73155051D01*
X153129789Y-73139086D01*
X153279786Y-73030109D01*
X153279788Y-73030106D01*
X153279792Y-73030104D01*
X153430104Y-72879792D01*
X153430106Y-72879788D01*
X153430109Y-72879786D01*
X153555048Y-72707820D01*
X153555047Y-72707820D01*
X153555051Y-72707816D01*
X153651557Y-72518412D01*
X153717246Y-72316243D01*
X153750500Y-72106287D01*
X153750500Y-71893713D01*
X153717246Y-71683757D01*
X153669988Y-71538316D01*
X153667994Y-71468477D01*
X153669989Y-71461682D01*
X153717246Y-71316243D01*
X153750500Y-71106287D01*
X153750500Y-70893713D01*
X153717246Y-70683757D01*
X153669988Y-70538316D01*
X153667994Y-70468477D01*
X153669989Y-70461682D01*
X153717246Y-70316243D01*
X153750500Y-70106287D01*
X153750500Y-69893713D01*
X153717246Y-69683757D01*
X153669988Y-69538316D01*
X153667994Y-69468477D01*
X153669989Y-69461682D01*
X153717246Y-69316243D01*
X153750500Y-69106287D01*
X153750500Y-68893713D01*
X153717246Y-68683757D01*
X153651557Y-68481588D01*
X153555051Y-68292184D01*
X153555041Y-68292171D01*
X153553277Y-68289290D01*
X153552938Y-68288037D01*
X153552839Y-68287843D01*
X153552879Y-68287822D01*
X153535033Y-68221844D01*
X153556150Y-68155241D01*
X153609921Y-68110628D01*
X153659005Y-68100500D01*
X183097275Y-68100500D01*
X183164314Y-68120185D01*
X183210069Y-68172989D01*
X183220013Y-68242147D01*
X183207760Y-68280795D01*
X183150424Y-68393323D01*
X183084733Y-68595498D01*
X183051480Y-68805451D01*
X183051480Y-69018024D01*
X183084734Y-69227982D01*
X183131989Y-69373420D01*
X183133984Y-69443262D01*
X183131989Y-69450056D01*
X183084734Y-69595493D01*
X183066270Y-69712072D01*
X183051480Y-69805451D01*
X183051480Y-70018025D01*
X183052388Y-70023758D01*
X183084734Y-70227982D01*
X183131989Y-70373420D01*
X183133984Y-70443262D01*
X183131989Y-70450056D01*
X183084734Y-70595493D01*
X183051480Y-70805451D01*
X183051480Y-71018024D01*
X183084734Y-71227982D01*
X183131989Y-71373420D01*
X183133984Y-71443262D01*
X183131989Y-71450056D01*
X183084734Y-71595493D01*
X183051480Y-71805451D01*
X183051480Y-72018024D01*
X183084734Y-72227982D01*
X183131989Y-72373420D01*
X183133984Y-72443262D01*
X183131989Y-72450056D01*
X183084734Y-72595493D01*
X183051480Y-72805451D01*
X183051480Y-73018024D01*
X183074488Y-73163295D01*
X183084734Y-73227981D01*
X183114442Y-73319413D01*
X183150424Y-73430152D01*
X183246931Y-73619558D01*
X183371870Y-73791524D01*
X183522193Y-73941847D01*
X183694159Y-74066786D01*
X183694161Y-74066787D01*
X183694164Y-74066789D01*
X183883568Y-74163295D01*
X184085737Y-74228984D01*
X184295693Y-74262238D01*
X184295694Y-74262238D01*
X184508266Y-74262238D01*
X184508267Y-74262238D01*
X184718223Y-74228984D01*
X184920392Y-74163295D01*
X185109796Y-74066789D01*
X185131769Y-74050824D01*
X185281766Y-73941847D01*
X185281768Y-73941844D01*
X185281772Y-73941842D01*
X185432084Y-73791530D01*
X185432086Y-73791526D01*
X185432089Y-73791524D01*
X185557028Y-73619558D01*
X185557027Y-73619558D01*
X185557031Y-73619554D01*
X185653537Y-73430150D01*
X185699457Y-73288822D01*
X185738892Y-73231151D01*
X185779062Y-73209215D01*
X185920392Y-73163295D01*
X186109796Y-73066789D01*
X186160289Y-73030104D01*
X186281766Y-72941847D01*
X186281768Y-72941844D01*
X186281772Y-72941842D01*
X186432084Y-72791530D01*
X186432086Y-72791526D01*
X186432089Y-72791524D01*
X186557028Y-72619558D01*
X186557027Y-72619558D01*
X186557031Y-72619554D01*
X186653537Y-72430150D01*
X186699456Y-72288824D01*
X186702542Y-72284311D01*
X186703166Y-72278877D01*
X186722052Y-72255779D01*
X186738892Y-72231152D01*
X186744849Y-72227898D01*
X186747394Y-72224787D01*
X186779066Y-72209215D01*
X186841882Y-72188804D01*
X186866026Y-72180958D01*
X186935866Y-72178962D01*
X186942656Y-72180956D01*
X187022911Y-72207032D01*
X187080586Y-72246470D01*
X187102522Y-72286643D01*
X187111103Y-72313049D01*
X187148444Y-72427973D01*
X187244951Y-72617377D01*
X187369890Y-72789343D01*
X187520213Y-72939666D01*
X187692179Y-73064605D01*
X187692181Y-73064606D01*
X187692184Y-73064608D01*
X187881588Y-73161114D01*
X188083757Y-73226803D01*
X188293713Y-73260057D01*
X188293714Y-73260057D01*
X188506286Y-73260057D01*
X188506287Y-73260057D01*
X188716243Y-73226803D01*
X188918412Y-73161114D01*
X189107816Y-73064608D01*
X189155307Y-73030104D01*
X189279786Y-72939666D01*
X189279788Y-72939663D01*
X189279792Y-72939661D01*
X189430104Y-72789349D01*
X189430106Y-72789345D01*
X189430109Y-72789343D01*
X189539086Y-72639346D01*
X189555051Y-72617373D01*
X189651557Y-72427969D01*
X189717246Y-72225800D01*
X189750500Y-72015844D01*
X189750500Y-71803270D01*
X189717246Y-71593314D01*
X189669988Y-71447873D01*
X189667994Y-71378034D01*
X189669981Y-71371261D01*
X189717246Y-71225800D01*
X189750500Y-71015844D01*
X189750500Y-70803270D01*
X189717246Y-70593314D01*
X189669988Y-70447873D01*
X189667994Y-70378034D01*
X189669981Y-70371261D01*
X189717246Y-70225800D01*
X189750500Y-70015844D01*
X189750500Y-69803270D01*
X189717246Y-69593314D01*
X189669988Y-69447873D01*
X189667994Y-69378034D01*
X189669981Y-69371261D01*
X189717246Y-69225800D01*
X189750500Y-69015844D01*
X189750500Y-68803270D01*
X189717246Y-68593314D01*
X189651557Y-68391145D01*
X189595331Y-68280795D01*
X189582435Y-68212126D01*
X189608711Y-68147385D01*
X189665818Y-68107128D01*
X189705816Y-68100500D01*
X216560417Y-68100500D01*
X216623602Y-68100500D01*
X216629011Y-68100618D01*
X217013079Y-68117387D01*
X217023813Y-68118327D01*
X217402275Y-68168152D01*
X217412909Y-68170027D01*
X217785591Y-68252650D01*
X217796023Y-68255445D01*
X218160072Y-68370230D01*
X218170215Y-68373921D01*
X218430136Y-68481585D01*
X218522877Y-68520000D01*
X218532681Y-68524572D01*
X218871269Y-68700830D01*
X218880610Y-68706224D01*
X219174908Y-68893713D01*
X219202541Y-68911317D01*
X219211402Y-68917521D01*
X219514234Y-69149892D01*
X219522521Y-69156846D01*
X219803938Y-69414718D01*
X219811587Y-69422367D01*
X220069459Y-69703785D01*
X220076413Y-69712072D01*
X220308778Y-70014897D01*
X220314983Y-70023758D01*
X220520077Y-70345692D01*
X220525485Y-70355060D01*
X220701731Y-70693625D01*
X220706303Y-70703429D01*
X220852376Y-71056080D01*
X220856076Y-71066246D01*
X220970855Y-71430279D01*
X220973654Y-71440726D01*
X221027534Y-71683762D01*
X221056272Y-71813388D01*
X221058150Y-71824042D01*
X221107971Y-72202473D01*
X221108914Y-72213249D01*
X221125603Y-72595495D01*
X221125692Y-72597517D01*
X221125810Y-72602926D01*
X221125810Y-123197293D01*
X221125692Y-123202702D01*
X221108924Y-123586752D01*
X221107981Y-123597528D01*
X221058160Y-123975956D01*
X221056282Y-123986610D01*
X220973663Y-124359276D01*
X220970863Y-124369724D01*
X220856085Y-124733756D01*
X220852385Y-124743922D01*
X220706312Y-125096574D01*
X220701740Y-125106378D01*
X220525493Y-125444944D01*
X220520085Y-125454312D01*
X220314991Y-125776247D01*
X220308786Y-125785108D01*
X220076426Y-126087926D01*
X220069473Y-126096213D01*
X219811589Y-126377645D01*
X219803939Y-126385294D01*
X219522532Y-126643156D01*
X219514246Y-126650110D01*
X219211402Y-126882491D01*
X219202540Y-126888695D01*
X218880629Y-127093776D01*
X218871261Y-127099185D01*
X218532686Y-127275436D01*
X218522882Y-127280008D01*
X218170233Y-127426081D01*
X218160068Y-127429781D01*
X217796031Y-127544562D01*
X217785582Y-127547362D01*
X217412919Y-127629980D01*
X217402266Y-127631858D01*
X217023837Y-127681680D01*
X217013060Y-127682623D01*
X216629240Y-127699382D01*
X216623831Y-127699500D01*
X191859005Y-127699500D01*
X191791966Y-127679815D01*
X191746211Y-127627011D01*
X191736267Y-127557853D01*
X191753277Y-127510710D01*
X191755037Y-127507834D01*
X191755051Y-127507816D01*
X191851557Y-127318412D01*
X191917246Y-127116243D01*
X191950500Y-126906287D01*
X191950500Y-126693713D01*
X191917246Y-126483757D01*
X191869988Y-126338316D01*
X191867994Y-126268477D01*
X191869989Y-126261682D01*
X191917246Y-126116243D01*
X191950500Y-125906287D01*
X191950500Y-125693713D01*
X191917246Y-125483757D01*
X191869988Y-125338316D01*
X191867994Y-125268477D01*
X191869989Y-125261682D01*
X191917246Y-125116243D01*
X191950500Y-124906287D01*
X191950500Y-124693713D01*
X191917246Y-124483757D01*
X191869988Y-124338316D01*
X191867994Y-124268477D01*
X191869989Y-124261682D01*
X191917246Y-124116243D01*
X191950500Y-123906287D01*
X191950500Y-123693713D01*
X191917246Y-123483757D01*
X191851557Y-123281588D01*
X191755051Y-123092184D01*
X191755049Y-123092181D01*
X191755048Y-123092179D01*
X191630109Y-122920213D01*
X191479786Y-122769890D01*
X191307820Y-122644951D01*
X191118414Y-122548444D01*
X191118413Y-122548443D01*
X191118412Y-122548443D01*
X190916243Y-122482754D01*
X190916241Y-122482753D01*
X190916240Y-122482753D01*
X190754957Y-122457208D01*
X190706287Y-122449500D01*
X190493713Y-122449500D01*
X190445042Y-122457208D01*
X190283760Y-122482753D01*
X190081585Y-122548444D01*
X189892179Y-122644951D01*
X189720213Y-122769890D01*
X189569890Y-122920213D01*
X189444951Y-123092179D01*
X189348442Y-123281587D01*
X189302522Y-123422911D01*
X189299435Y-123427424D01*
X189298812Y-123432859D01*
X189279924Y-123455957D01*
X189263084Y-123480586D01*
X189257127Y-123483838D01*
X189254584Y-123486949D01*
X189222911Y-123502522D01*
X189138318Y-123530009D01*
X189068477Y-123532005D01*
X189061680Y-123530009D01*
X188977087Y-123502522D01*
X188919412Y-123463083D01*
X188897475Y-123422909D01*
X188886341Y-123388642D01*
X188851557Y-123281588D01*
X188755051Y-123092184D01*
X188755049Y-123092181D01*
X188755048Y-123092179D01*
X188630109Y-122920213D01*
X188479786Y-122769890D01*
X188307820Y-122644951D01*
X188118416Y-122548444D01*
X188028257Y-122519149D01*
X187977086Y-122502522D01*
X187919412Y-122463085D01*
X187897476Y-122422913D01*
X187851557Y-122281588D01*
X187755051Y-122092184D01*
X187755049Y-122092181D01*
X187755048Y-122092179D01*
X187630109Y-121920213D01*
X187479786Y-121769890D01*
X187307820Y-121644951D01*
X187118414Y-121548444D01*
X187118413Y-121548443D01*
X187118412Y-121548443D01*
X186916243Y-121482754D01*
X186916241Y-121482753D01*
X186916240Y-121482753D01*
X186754957Y-121457208D01*
X186706287Y-121449500D01*
X186493713Y-121449500D01*
X186445042Y-121457208D01*
X186283760Y-121482753D01*
X186283757Y-121482754D01*
X186085094Y-121547304D01*
X186081585Y-121548444D01*
X185892179Y-121644951D01*
X185720213Y-121769890D01*
X185569890Y-121920213D01*
X185444951Y-122092179D01*
X185348444Y-122281585D01*
X185282753Y-122483760D01*
X185249500Y-122693713D01*
X185249500Y-122906286D01*
X185282754Y-123116244D01*
X185330009Y-123261682D01*
X185332004Y-123331524D01*
X185330009Y-123338318D01*
X185282754Y-123483755D01*
X185249500Y-123693713D01*
X185249500Y-123906286D01*
X185282754Y-124116244D01*
X185330009Y-124261682D01*
X185332004Y-124331524D01*
X185330009Y-124338318D01*
X185282754Y-124483755D01*
X185249500Y-124693713D01*
X185249500Y-124906286D01*
X185282754Y-125116244D01*
X185330009Y-125261682D01*
X185332004Y-125331524D01*
X185330009Y-125338318D01*
X185282754Y-125483755D01*
X185249500Y-125693713D01*
X185249500Y-125906286D01*
X185282754Y-126116244D01*
X185330009Y-126261682D01*
X185332004Y-126331524D01*
X185330009Y-126338318D01*
X185282754Y-126483755D01*
X185249500Y-126693713D01*
X185249500Y-126906286D01*
X185279656Y-127096687D01*
X185282754Y-127116243D01*
X185348443Y-127318412D01*
X185444949Y-127507816D01*
X185444955Y-127507825D01*
X185446723Y-127510710D01*
X185447061Y-127511962D01*
X185447161Y-127512157D01*
X185447120Y-127512177D01*
X185464967Y-127578156D01*
X185443850Y-127644759D01*
X185390079Y-127689372D01*
X185340995Y-127699500D01*
X154859005Y-127699500D01*
X154791966Y-127679815D01*
X154746211Y-127627011D01*
X154736267Y-127557853D01*
X154753277Y-127510710D01*
X154755037Y-127507834D01*
X154755051Y-127507816D01*
X154851557Y-127318412D01*
X154917246Y-127116243D01*
X154950500Y-126906287D01*
X154950500Y-126693713D01*
X154917246Y-126483757D01*
X154869988Y-126338316D01*
X154867994Y-126268477D01*
X154869989Y-126261682D01*
X154917246Y-126116243D01*
X154950500Y-125906287D01*
X154950500Y-125693713D01*
X154917246Y-125483757D01*
X154869988Y-125338316D01*
X154867994Y-125268477D01*
X154869989Y-125261682D01*
X154917246Y-125116243D01*
X154950500Y-124906287D01*
X154950500Y-124693713D01*
X154917246Y-124483757D01*
X154869988Y-124338316D01*
X154867994Y-124268477D01*
X154869989Y-124261682D01*
X154917246Y-124116243D01*
X154950500Y-123906287D01*
X154950500Y-123693713D01*
X154917246Y-123483757D01*
X154851557Y-123281588D01*
X154755051Y-123092184D01*
X154755049Y-123092181D01*
X154755048Y-123092179D01*
X154630109Y-122920213D01*
X154479786Y-122769890D01*
X154307820Y-122644951D01*
X154118414Y-122548444D01*
X154118413Y-122548443D01*
X154118412Y-122548443D01*
X153916243Y-122482754D01*
X153916241Y-122482753D01*
X153916240Y-122482753D01*
X153754957Y-122457208D01*
X153706287Y-122449500D01*
X153493713Y-122449500D01*
X153445042Y-122457208D01*
X153283760Y-122482753D01*
X153081585Y-122548444D01*
X152892179Y-122644951D01*
X152720213Y-122769890D01*
X152569890Y-122920213D01*
X152444951Y-123092179D01*
X152348442Y-123281587D01*
X152302522Y-123422911D01*
X152299435Y-123427424D01*
X152298812Y-123432859D01*
X152279924Y-123455957D01*
X152263084Y-123480586D01*
X152257127Y-123483838D01*
X152254584Y-123486949D01*
X152222911Y-123502522D01*
X152138318Y-123530009D01*
X152068477Y-123532005D01*
X152061680Y-123530009D01*
X151977087Y-123502522D01*
X151919412Y-123463083D01*
X151897475Y-123422909D01*
X151886341Y-123388642D01*
X151851557Y-123281588D01*
X151755051Y-123092184D01*
X151755049Y-123092181D01*
X151755048Y-123092179D01*
X151630109Y-122920213D01*
X151479786Y-122769890D01*
X151307820Y-122644951D01*
X151118416Y-122548444D01*
X151028257Y-122519149D01*
X150977086Y-122502522D01*
X150919412Y-122463085D01*
X150897476Y-122422913D01*
X150851557Y-122281588D01*
X150755051Y-122092184D01*
X150755049Y-122092181D01*
X150755048Y-122092179D01*
X150630109Y-121920213D01*
X150479786Y-121769890D01*
X150307820Y-121644951D01*
X150118414Y-121548444D01*
X150118413Y-121548443D01*
X150118412Y-121548443D01*
X149916243Y-121482754D01*
X149916241Y-121482753D01*
X149916240Y-121482753D01*
X149754957Y-121457208D01*
X149706287Y-121449500D01*
X149493713Y-121449500D01*
X149445042Y-121457208D01*
X149283760Y-121482753D01*
X149283757Y-121482754D01*
X149085094Y-121547304D01*
X149081585Y-121548444D01*
X148892179Y-121644951D01*
X148720213Y-121769890D01*
X148569890Y-121920213D01*
X148444951Y-122092179D01*
X148348444Y-122281585D01*
X148282753Y-122483760D01*
X148249500Y-122693713D01*
X148249500Y-122906286D01*
X148282754Y-123116244D01*
X148330009Y-123261682D01*
X148332004Y-123331524D01*
X148330009Y-123338318D01*
X148282754Y-123483755D01*
X148249500Y-123693713D01*
X148249500Y-123906286D01*
X148282754Y-124116244D01*
X148330009Y-124261682D01*
X148332004Y-124331524D01*
X148330009Y-124338318D01*
X148282754Y-124483755D01*
X148249500Y-124693713D01*
X148249500Y-124906286D01*
X148282754Y-125116244D01*
X148330009Y-125261682D01*
X148332004Y-125331524D01*
X148330009Y-125338318D01*
X148282754Y-125483755D01*
X148249500Y-125693713D01*
X148249500Y-125906286D01*
X148282754Y-126116244D01*
X148330009Y-126261682D01*
X148332004Y-126331524D01*
X148330009Y-126338318D01*
X148282754Y-126483755D01*
X148249500Y-126693713D01*
X148249500Y-126906286D01*
X148279656Y-127096687D01*
X148282754Y-127116243D01*
X148348443Y-127318412D01*
X148444949Y-127507816D01*
X148444955Y-127507825D01*
X148446723Y-127510710D01*
X148447061Y-127511962D01*
X148447161Y-127512157D01*
X148447120Y-127512177D01*
X148464967Y-127578156D01*
X148443850Y-127644759D01*
X148390079Y-127689372D01*
X148340995Y-127699500D01*
X123029014Y-127699500D01*
X123023607Y-127699382D01*
X122639557Y-127682615D01*
X122628781Y-127681672D01*
X122250349Y-127631851D01*
X122239696Y-127629973D01*
X121867034Y-127547356D01*
X121856585Y-127544556D01*
X121492547Y-127429776D01*
X121482382Y-127426076D01*
X121129738Y-127280007D01*
X121119933Y-127275435D01*
X120781362Y-127099186D01*
X120771994Y-127093778D01*
X120450059Y-126888684D01*
X120441198Y-126882479D01*
X120138380Y-126650119D01*
X120130093Y-126643166D01*
X120130082Y-126643156D01*
X119848655Y-126385276D01*
X119841018Y-126377638D01*
X119583145Y-126096219D01*
X119576196Y-126087939D01*
X119436808Y-125906286D01*
X119343814Y-125785094D01*
X119337611Y-125776233D01*
X119285040Y-125693713D01*
X119132522Y-125454308D01*
X119127129Y-125444968D01*
X118950867Y-125106372D01*
X118946298Y-125096574D01*
X118928120Y-125052688D01*
X118800220Y-124743911D01*
X118796531Y-124733776D01*
X118681738Y-124369702D01*
X118678949Y-124359290D01*
X118596325Y-123986599D01*
X118594452Y-123975972D01*
X118544626Y-123597507D01*
X118543686Y-123586772D01*
X118526928Y-123202931D01*
X118526810Y-123197522D01*
X118526810Y-123145979D01*
X124200000Y-123145979D01*
X124200000Y-123454020D01*
X124200001Y-123454037D01*
X124240208Y-123759442D01*
X124319940Y-124057003D01*
X124437821Y-124341596D01*
X124437828Y-124341611D01*
X124570861Y-124572030D01*
X124570862Y-124572031D01*
X125667296Y-123475596D01*
X125684586Y-123562520D01*
X125752430Y-123726310D01*
X125850924Y-123873717D01*
X125976283Y-123999076D01*
X126123690Y-124097570D01*
X126287480Y-124165414D01*
X126374402Y-124182703D01*
X125277968Y-125279137D01*
X125508389Y-125412171D01*
X125508403Y-125412178D01*
X125792996Y-125530059D01*
X126090557Y-125609791D01*
X126395962Y-125649998D01*
X126395980Y-125650000D01*
X126704020Y-125650000D01*
X126704037Y-125649998D01*
X127009442Y-125609791D01*
X127307003Y-125530059D01*
X127591599Y-125412177D01*
X127591615Y-125412169D01*
X127822030Y-125279138D01*
X127822031Y-125279136D01*
X126725598Y-124182703D01*
X126812520Y-124165414D01*
X126976310Y-124097570D01*
X127123717Y-123999076D01*
X127249076Y-123873717D01*
X127347570Y-123726310D01*
X127415414Y-123562520D01*
X127432703Y-123475597D01*
X128529136Y-124572031D01*
X128529138Y-124572030D01*
X128662169Y-124341615D01*
X128662177Y-124341599D01*
X128780059Y-124057003D01*
X128859791Y-123759443D01*
X128863345Y-123732451D01*
X128863345Y-123732450D01*
X128899998Y-123454037D01*
X128900000Y-123454020D01*
X128900000Y-123145979D01*
X128899998Y-123145962D01*
X128859791Y-122840557D01*
X128780059Y-122542996D01*
X128662178Y-122258403D01*
X128662171Y-122258389D01*
X128529137Y-122027968D01*
X127432703Y-123124401D01*
X127415414Y-123037480D01*
X127347570Y-122873690D01*
X127249076Y-122726283D01*
X127123717Y-122600924D01*
X126976310Y-122502430D01*
X126812520Y-122434586D01*
X126725597Y-122417296D01*
X127492878Y-121650015D01*
X129900000Y-121650015D01*
X129900000Y-122800000D01*
X131501668Y-122800000D01*
X131452430Y-122873690D01*
X131384586Y-123037480D01*
X131350000Y-123211358D01*
X131350000Y-123388642D01*
X131384586Y-123562520D01*
X131452430Y-123726310D01*
X131501668Y-123800000D01*
X129900001Y-123800000D01*
X129900001Y-124949984D01*
X129910494Y-125052695D01*
X129965641Y-125219117D01*
X129965643Y-125219122D01*
X130057684Y-125368344D01*
X130181655Y-125492315D01*
X130330877Y-125584356D01*
X130330882Y-125584358D01*
X130497304Y-125639505D01*
X130497311Y-125639506D01*
X130600021Y-125649999D01*
X131749999Y-125649999D01*
X131750000Y-125649998D01*
X131750000Y-124048332D01*
X131823690Y-124097570D01*
X131987480Y-124165414D01*
X132161358Y-124200000D01*
X132338642Y-124200000D01*
X132512520Y-124165414D01*
X132676310Y-124097570D01*
X132750000Y-124048332D01*
X132750000Y-125649999D01*
X133899970Y-125649999D01*
X133899984Y-125649998D01*
X134002695Y-125639505D01*
X134169117Y-125584358D01*
X134169122Y-125584356D01*
X134318344Y-125492315D01*
X134442315Y-125368344D01*
X134534356Y-125219122D01*
X134534358Y-125219117D01*
X134589505Y-125052695D01*
X134589506Y-125052688D01*
X134599999Y-124949984D01*
X134600000Y-124949971D01*
X134600000Y-123800000D01*
X132998332Y-123800000D01*
X133047570Y-123726310D01*
X133115414Y-123562520D01*
X133150000Y-123388642D01*
X133150000Y-123211358D01*
X133115414Y-123037480D01*
X133047570Y-122873690D01*
X132998332Y-122800000D01*
X134599999Y-122800000D01*
X134599999Y-121650030D01*
X134599998Y-121650015D01*
X134589505Y-121547304D01*
X134534358Y-121380882D01*
X134534356Y-121380877D01*
X134442315Y-121231655D01*
X134318344Y-121107684D01*
X134169122Y-121015643D01*
X134169117Y-121015641D01*
X134002695Y-120960494D01*
X134002688Y-120960493D01*
X133899984Y-120950000D01*
X132750000Y-120950000D01*
X132750000Y-122551667D01*
X132676310Y-122502430D01*
X132512520Y-122434586D01*
X132338642Y-122400000D01*
X132161358Y-122400000D01*
X131987480Y-122434586D01*
X131823690Y-122502430D01*
X131750000Y-122551667D01*
X131750000Y-120950000D01*
X130600030Y-120950000D01*
X130600014Y-120950001D01*
X130497304Y-120960494D01*
X130330882Y-121015641D01*
X130330877Y-121015643D01*
X130181655Y-121107684D01*
X130057684Y-121231655D01*
X129965643Y-121380877D01*
X129965641Y-121380882D01*
X129910494Y-121547304D01*
X129910493Y-121547311D01*
X129900000Y-121650015D01*
X127492878Y-121650015D01*
X127583708Y-121559185D01*
X127822031Y-121320862D01*
X127822030Y-121320861D01*
X127591611Y-121187828D01*
X127591596Y-121187821D01*
X127307003Y-121069940D01*
X127009442Y-120990208D01*
X126704037Y-120950001D01*
X126704020Y-120950000D01*
X126395980Y-120950000D01*
X126395962Y-120950001D01*
X126090557Y-120990208D01*
X125792996Y-121069940D01*
X125508403Y-121187821D01*
X125508381Y-121187832D01*
X125277968Y-121320859D01*
X125277967Y-121320861D01*
X126374403Y-122417296D01*
X126287480Y-122434586D01*
X126123690Y-122502430D01*
X125976283Y-122600924D01*
X125850924Y-122726283D01*
X125752430Y-122873690D01*
X125684586Y-123037480D01*
X125667296Y-123124402D01*
X124570861Y-122027967D01*
X124570859Y-122027968D01*
X124437832Y-122258381D01*
X124437821Y-122258403D01*
X124319940Y-122542996D01*
X124240208Y-122840557D01*
X124200001Y-123145962D01*
X124200000Y-123145979D01*
X118526810Y-123145979D01*
X118526810Y-117146907D01*
X119752500Y-117146907D01*
X119752500Y-117403092D01*
X119769681Y-117511567D01*
X119792574Y-117656107D01*
X119871736Y-117899743D01*
X119988037Y-118127996D01*
X120138612Y-118335245D01*
X120319755Y-118516388D01*
X120527004Y-118666963D01*
X120755257Y-118783264D01*
X120998893Y-118862426D01*
X121129249Y-118883072D01*
X121251908Y-118902500D01*
X121251913Y-118902500D01*
X121508092Y-118902500D01*
X121619908Y-118884789D01*
X121761107Y-118862426D01*
X122004743Y-118783264D01*
X122232996Y-118666963D01*
X122440245Y-118516388D01*
X122621388Y-118335245D01*
X122771963Y-118127996D01*
X122888264Y-117899743D01*
X122967426Y-117656107D01*
X122990319Y-117511567D01*
X123001668Y-117439914D01*
X123699500Y-117439914D01*
X123699500Y-117760085D01*
X123735345Y-118078216D01*
X123735347Y-118078228D01*
X123806589Y-118390362D01*
X123806590Y-118390364D01*
X123912332Y-118692559D01*
X124051243Y-118981010D01*
X124051245Y-118981013D01*
X124221581Y-119252101D01*
X124421198Y-119502413D01*
X124647587Y-119728802D01*
X124897899Y-119928419D01*
X125168987Y-120098755D01*
X125457442Y-120237668D01*
X125759637Y-120343410D01*
X126071771Y-120414653D01*
X126389915Y-120450499D01*
X126389916Y-120450500D01*
X126389919Y-120450500D01*
X126710084Y-120450500D01*
X126710084Y-120450499D01*
X127028229Y-120414653D01*
X127340363Y-120343410D01*
X127642558Y-120237668D01*
X127931013Y-120098755D01*
X128202101Y-119928419D01*
X128452413Y-119728802D01*
X128678802Y-119502413D01*
X128878419Y-119252101D01*
X129048755Y-118981013D01*
X129187668Y-118692558D01*
X129282958Y-118420232D01*
X129323680Y-118363457D01*
X129388633Y-118337709D01*
X129457194Y-118351165D01*
X129507597Y-118399552D01*
X129517042Y-118420233D01*
X129612332Y-118692559D01*
X129751243Y-118981010D01*
X129751245Y-118981013D01*
X129921581Y-119252101D01*
X130121198Y-119502413D01*
X130347587Y-119728802D01*
X130597899Y-119928419D01*
X130868987Y-120098755D01*
X131157442Y-120237668D01*
X131459637Y-120343410D01*
X131771771Y-120414653D01*
X132089915Y-120450499D01*
X132089916Y-120450500D01*
X132089919Y-120450500D01*
X132410084Y-120450500D01*
X132410084Y-120450499D01*
X132728229Y-120414653D01*
X133040363Y-120343410D01*
X133342558Y-120237668D01*
X133631013Y-120098755D01*
X133902101Y-119928419D01*
X134152413Y-119728802D01*
X134378802Y-119502413D01*
X134578419Y-119252101D01*
X134748755Y-118981013D01*
X134887668Y-118692558D01*
X134993410Y-118390363D01*
X135064653Y-118078229D01*
X135100500Y-117760081D01*
X135100500Y-117439919D01*
X135088554Y-117333902D01*
X135068502Y-117155925D01*
X135067486Y-117146907D01*
X135792500Y-117146907D01*
X135792500Y-117403092D01*
X135809681Y-117511567D01*
X135832574Y-117656107D01*
X135911736Y-117899743D01*
X136028037Y-118127996D01*
X136178612Y-118335245D01*
X136359755Y-118516388D01*
X136567004Y-118666963D01*
X136795257Y-118783264D01*
X137038893Y-118862426D01*
X137169249Y-118883072D01*
X137291908Y-118902500D01*
X137291913Y-118902500D01*
X137548092Y-118902500D01*
X137659908Y-118884789D01*
X137801107Y-118862426D01*
X138044743Y-118783264D01*
X138272996Y-118666963D01*
X138480245Y-118516388D01*
X138661388Y-118335245D01*
X138766062Y-118191174D01*
X160563602Y-118191174D01*
X160563602Y-118535105D01*
X160597312Y-118877389D01*
X160664410Y-119214712D01*
X160764252Y-119543846D01*
X160895872Y-119861604D01*
X160895874Y-119861609D01*
X161057995Y-120164915D01*
X161058006Y-120164933D01*
X161249076Y-120450890D01*
X161249087Y-120450905D01*
X161467278Y-120716772D01*
X161710469Y-120959963D01*
X161710474Y-120959967D01*
X161710475Y-120959968D01*
X161976342Y-121178159D01*
X162262315Y-121369240D01*
X162262324Y-121369245D01*
X162262326Y-121369246D01*
X162565632Y-121531367D01*
X162565634Y-121531367D01*
X162565640Y-121531371D01*
X162883397Y-121662990D01*
X163212524Y-121762830D01*
X163549852Y-121829929D01*
X163892133Y-121863640D01*
X163892136Y-121863640D01*
X164236068Y-121863640D01*
X164236071Y-121863640D01*
X164578352Y-121829929D01*
X164915680Y-121762830D01*
X165244807Y-121662990D01*
X165562564Y-121531371D01*
X165865889Y-121369240D01*
X166151862Y-121178159D01*
X166417729Y-120959968D01*
X166660930Y-120716767D01*
X166879121Y-120450900D01*
X166879389Y-120450500D01*
X166925571Y-120381382D01*
X167070202Y-120164927D01*
X167137971Y-120038140D01*
X173725137Y-120038140D01*
X173725137Y-120431141D01*
X173759388Y-120822636D01*
X173759388Y-120822640D01*
X173827628Y-121209646D01*
X173827630Y-121209657D01*
X173854884Y-121311371D01*
X173929344Y-121589257D01*
X173929345Y-121589259D01*
X173929345Y-121589260D01*
X174063761Y-121958562D01*
X174229832Y-122314703D01*
X174229844Y-122314727D01*
X174361636Y-122542996D01*
X174420499Y-122644951D01*
X174426332Y-122655053D01*
X174426341Y-122655068D01*
X174651752Y-122976988D01*
X174841150Y-123202702D01*
X174904359Y-123278032D01*
X175182246Y-123555919D01*
X175231834Y-123597528D01*
X175483289Y-123808525D01*
X175483295Y-123808529D01*
X175483296Y-123808530D01*
X175805216Y-124033941D01*
X176145557Y-124230437D01*
X176145571Y-124230443D01*
X176145574Y-124230445D01*
X176501715Y-124396516D01*
X176501720Y-124396517D01*
X176501729Y-124396522D01*
X176871021Y-124530934D01*
X177250622Y-124632648D01*
X177637644Y-124700890D01*
X178029139Y-124735140D01*
X178029140Y-124735141D01*
X178029141Y-124735141D01*
X178422134Y-124735141D01*
X178422134Y-124735140D01*
X178813630Y-124700890D01*
X179200652Y-124632648D01*
X179580253Y-124530934D01*
X179949545Y-124396522D01*
X180305717Y-124230437D01*
X180646058Y-124033941D01*
X180967978Y-123808530D01*
X181269028Y-123555919D01*
X181546915Y-123278032D01*
X181799526Y-122976982D01*
X182024937Y-122655062D01*
X182221433Y-122314721D01*
X182387518Y-121958549D01*
X182521930Y-121589257D01*
X182623644Y-121209656D01*
X182691886Y-120822634D01*
X182726137Y-120431137D01*
X182726137Y-120038145D01*
X182691886Y-119646648D01*
X182623644Y-119259626D01*
X182521930Y-118880025D01*
X182387518Y-118510733D01*
X182387513Y-118510724D01*
X182387512Y-118510719D01*
X182261522Y-118240531D01*
X182238506Y-118191174D01*
X196281551Y-118191174D01*
X196281551Y-118535105D01*
X196315261Y-118877389D01*
X196382359Y-119214712D01*
X196482201Y-119543846D01*
X196613821Y-119861604D01*
X196613823Y-119861609D01*
X196775944Y-120164915D01*
X196775955Y-120164933D01*
X196967025Y-120450890D01*
X196967036Y-120450905D01*
X197185227Y-120716772D01*
X197428418Y-120959963D01*
X197428423Y-120959967D01*
X197428424Y-120959968D01*
X197694291Y-121178159D01*
X197980264Y-121369240D01*
X197980273Y-121369245D01*
X197980275Y-121369246D01*
X198283581Y-121531367D01*
X198283583Y-121531367D01*
X198283589Y-121531371D01*
X198601346Y-121662990D01*
X198930473Y-121762830D01*
X199267801Y-121829929D01*
X199610082Y-121863640D01*
X199610085Y-121863640D01*
X199954017Y-121863640D01*
X199954020Y-121863640D01*
X200296301Y-121829929D01*
X200633629Y-121762830D01*
X200962756Y-121662990D01*
X201280513Y-121531371D01*
X201583838Y-121369240D01*
X201869811Y-121178159D01*
X202135678Y-120959968D01*
X202378879Y-120716767D01*
X202597070Y-120450900D01*
X202597338Y-120450500D01*
X202643520Y-120381382D01*
X202788151Y-120164927D01*
X202855920Y-120038140D01*
X209443086Y-120038140D01*
X209443086Y-120431141D01*
X209477337Y-120822636D01*
X209477337Y-120822640D01*
X209545577Y-121209646D01*
X209545579Y-121209657D01*
X209572833Y-121311371D01*
X209647293Y-121589257D01*
X209647294Y-121589259D01*
X209647294Y-121589260D01*
X209781710Y-121958562D01*
X209947781Y-122314703D01*
X209947793Y-122314727D01*
X210079585Y-122542996D01*
X210138448Y-122644951D01*
X210144281Y-122655053D01*
X210144290Y-122655068D01*
X210369701Y-122976988D01*
X210559099Y-123202702D01*
X210622308Y-123278032D01*
X210900195Y-123555919D01*
X210949783Y-123597528D01*
X211201238Y-123808525D01*
X211201244Y-123808529D01*
X211201245Y-123808530D01*
X211523165Y-124033941D01*
X211863506Y-124230437D01*
X211863520Y-124230443D01*
X211863523Y-124230445D01*
X212219664Y-124396516D01*
X212219669Y-124396517D01*
X212219678Y-124396522D01*
X212588970Y-124530934D01*
X212968571Y-124632648D01*
X213355593Y-124700890D01*
X213747088Y-124735140D01*
X213747089Y-124735141D01*
X213747090Y-124735141D01*
X214140083Y-124735141D01*
X214140083Y-124735140D01*
X214531579Y-124700890D01*
X214918601Y-124632648D01*
X215298202Y-124530934D01*
X215667494Y-124396522D01*
X216023666Y-124230437D01*
X216364007Y-124033941D01*
X216685927Y-123808530D01*
X216986977Y-123555919D01*
X217264864Y-123278032D01*
X217517475Y-122976982D01*
X217742886Y-122655062D01*
X217939382Y-122314721D01*
X218105467Y-121958549D01*
X218239879Y-121589257D01*
X218341593Y-121209656D01*
X218409835Y-120822634D01*
X218444086Y-120431137D01*
X218444086Y-120038145D01*
X218409835Y-119646648D01*
X218341593Y-119259626D01*
X218239879Y-118880025D01*
X218105467Y-118510733D01*
X218105462Y-118510724D01*
X218105461Y-118510719D01*
X217939390Y-118154578D01*
X217939378Y-118154554D01*
X217895304Y-118078216D01*
X217742886Y-117814220D01*
X217517475Y-117492300D01*
X217517474Y-117492299D01*
X217517470Y-117492293D01*
X217264861Y-117191247D01*
X216986979Y-116913365D01*
X216963773Y-116893893D01*
X216852409Y-116800447D01*
X216685933Y-116660756D01*
X216364013Y-116435345D01*
X216364010Y-116435343D01*
X216364007Y-116435341D01*
X216262891Y-116376961D01*
X216023672Y-116238848D01*
X216023648Y-116238836D01*
X215667507Y-116072765D01*
X215667496Y-116072761D01*
X215667494Y-116072760D01*
X215298202Y-115938348D01*
X215057546Y-115873864D01*
X214918602Y-115836634D01*
X214918591Y-115836632D01*
X214531583Y-115768392D01*
X214140086Y-115734141D01*
X214140082Y-115734141D01*
X213747090Y-115734141D01*
X213747085Y-115734141D01*
X213355590Y-115768392D01*
X213355586Y-115768392D01*
X212968580Y-115836632D01*
X212968569Y-115836634D01*
X212795393Y-115883037D01*
X212588970Y-115938348D01*
X212588967Y-115938349D01*
X212588966Y-115938349D01*
X212219664Y-116072765D01*
X211863523Y-116238836D01*
X211863499Y-116238848D01*
X211523173Y-116435336D01*
X211523158Y-116435345D01*
X211201238Y-116660756D01*
X210900192Y-116913365D01*
X210622310Y-117191247D01*
X210369701Y-117492293D01*
X210144290Y-117814213D01*
X210144281Y-117814228D01*
X209947793Y-118154554D01*
X209947781Y-118154578D01*
X209781710Y-118510719D01*
X209647294Y-118880021D01*
X209647294Y-118880023D01*
X209545579Y-119259624D01*
X209545577Y-119259635D01*
X209477337Y-119646641D01*
X209477337Y-119646645D01*
X209443086Y-120038140D01*
X202855920Y-120038140D01*
X202950282Y-119861602D01*
X203081901Y-119543845D01*
X203181741Y-119214718D01*
X203248840Y-118877390D01*
X203282551Y-118535109D01*
X203282551Y-118191171D01*
X203248840Y-117848890D01*
X203181741Y-117511562D01*
X203081901Y-117182435D01*
X202950282Y-116864678D01*
X202935243Y-116836543D01*
X202788157Y-116561364D01*
X202788156Y-116561362D01*
X202788151Y-116561353D01*
X202597070Y-116275380D01*
X202378879Y-116009513D01*
X202378878Y-116009512D01*
X202378874Y-116009507D01*
X202135683Y-115766316D01*
X201869816Y-115548125D01*
X201869815Y-115548124D01*
X201869811Y-115548121D01*
X201583838Y-115357040D01*
X201583833Y-115357037D01*
X201583826Y-115357033D01*
X201280520Y-115194912D01*
X201280515Y-115194910D01*
X200962757Y-115063290D01*
X200633623Y-114963448D01*
X200296299Y-114896350D01*
X200296300Y-114896350D01*
X200038507Y-114870961D01*
X199954020Y-114862640D01*
X199610082Y-114862640D01*
X199532017Y-114870328D01*
X199267801Y-114896350D01*
X198930478Y-114963448D01*
X198601344Y-115063290D01*
X198283586Y-115194910D01*
X198283581Y-115194912D01*
X197980275Y-115357033D01*
X197980257Y-115357044D01*
X197694299Y-115548115D01*
X197694285Y-115548125D01*
X197428418Y-115766316D01*
X197185227Y-116009507D01*
X196967036Y-116275374D01*
X196967026Y-116275388D01*
X196775955Y-116561346D01*
X196775944Y-116561364D01*
X196613823Y-116864670D01*
X196613821Y-116864675D01*
X196482201Y-117182433D01*
X196382359Y-117511567D01*
X196315261Y-117848890D01*
X196289239Y-118113106D01*
X196285158Y-118154554D01*
X196281551Y-118191174D01*
X182238506Y-118191174D01*
X182221441Y-118154578D01*
X182221429Y-118154554D01*
X182177355Y-118078216D01*
X182024937Y-117814220D01*
X181799526Y-117492300D01*
X181799525Y-117492299D01*
X181799521Y-117492293D01*
X181546912Y-117191247D01*
X181269030Y-116913365D01*
X181245824Y-116893893D01*
X181134460Y-116800447D01*
X180967984Y-116660756D01*
X180646064Y-116435345D01*
X180646061Y-116435343D01*
X180646058Y-116435341D01*
X180544942Y-116376961D01*
X180305723Y-116238848D01*
X180305699Y-116238836D01*
X179949558Y-116072765D01*
X179949547Y-116072761D01*
X179949545Y-116072760D01*
X179580253Y-115938348D01*
X179339597Y-115873864D01*
X179200653Y-115836634D01*
X179200642Y-115836632D01*
X178813634Y-115768392D01*
X178422137Y-115734141D01*
X178422133Y-115734141D01*
X178029141Y-115734141D01*
X178029136Y-115734141D01*
X177637641Y-115768392D01*
X177637637Y-115768392D01*
X177250631Y-115836632D01*
X177250620Y-115836634D01*
X177077444Y-115883037D01*
X176871021Y-115938348D01*
X176871018Y-115938349D01*
X176871017Y-115938349D01*
X176501715Y-116072765D01*
X176145574Y-116238836D01*
X176145550Y-116238848D01*
X175805224Y-116435336D01*
X175805209Y-116435345D01*
X175483289Y-116660756D01*
X175182243Y-116913365D01*
X174904361Y-117191247D01*
X174651752Y-117492293D01*
X174426341Y-117814213D01*
X174426332Y-117814228D01*
X174229844Y-118154554D01*
X174229832Y-118154578D01*
X174063761Y-118510719D01*
X173929345Y-118880021D01*
X173929345Y-118880023D01*
X173827630Y-119259624D01*
X173827628Y-119259635D01*
X173759388Y-119646641D01*
X173759388Y-119646645D01*
X173725137Y-120038140D01*
X167137971Y-120038140D01*
X167232333Y-119861602D01*
X167363952Y-119543845D01*
X167463792Y-119214718D01*
X167530891Y-118877390D01*
X167564602Y-118535109D01*
X167564602Y-118191171D01*
X167530891Y-117848890D01*
X167463792Y-117511562D01*
X167363952Y-117182435D01*
X167232333Y-116864678D01*
X167217294Y-116836543D01*
X167070208Y-116561364D01*
X167070207Y-116561362D01*
X167070202Y-116561353D01*
X166879121Y-116275380D01*
X166660930Y-116009513D01*
X166660929Y-116009512D01*
X166660925Y-116009507D01*
X166417734Y-115766316D01*
X166151867Y-115548125D01*
X166151866Y-115548124D01*
X166151862Y-115548121D01*
X165865889Y-115357040D01*
X165865884Y-115357037D01*
X165865877Y-115357033D01*
X165562571Y-115194912D01*
X165562566Y-115194910D01*
X165244808Y-115063290D01*
X164915674Y-114963448D01*
X164578350Y-114896350D01*
X164578351Y-114896350D01*
X164320558Y-114870961D01*
X164236071Y-114862640D01*
X163892133Y-114862640D01*
X163814068Y-114870328D01*
X163549852Y-114896350D01*
X163212529Y-114963448D01*
X162883395Y-115063290D01*
X162565637Y-115194910D01*
X162565632Y-115194912D01*
X162262326Y-115357033D01*
X162262308Y-115357044D01*
X161976350Y-115548115D01*
X161976336Y-115548125D01*
X161710469Y-115766316D01*
X161467278Y-116009507D01*
X161249087Y-116275374D01*
X161249077Y-116275388D01*
X161058006Y-116561346D01*
X161057995Y-116561364D01*
X160895874Y-116864670D01*
X160895872Y-116864675D01*
X160764252Y-117182433D01*
X160664410Y-117511567D01*
X160597312Y-117848890D01*
X160571290Y-118113106D01*
X160567209Y-118154554D01*
X160563602Y-118191174D01*
X138766062Y-118191174D01*
X138811963Y-118127996D01*
X138928264Y-117899743D01*
X139007426Y-117656107D01*
X139033371Y-117492293D01*
X139047500Y-117403092D01*
X139047500Y-117146907D01*
X139026247Y-117012726D01*
X139007426Y-116893893D01*
X138928264Y-116650257D01*
X138811963Y-116422004D01*
X138661388Y-116214755D01*
X138480245Y-116033612D01*
X138272996Y-115883037D01*
X138044743Y-115766736D01*
X137801107Y-115687574D01*
X137548092Y-115647500D01*
X137548087Y-115647500D01*
X137291913Y-115647500D01*
X137291908Y-115647500D01*
X137038892Y-115687574D01*
X136795254Y-115766737D01*
X136567003Y-115883037D01*
X136359752Y-116033614D01*
X136178614Y-116214752D01*
X136028037Y-116422003D01*
X135911737Y-116650254D01*
X135832574Y-116893892D01*
X135792500Y-117146907D01*
X135067486Y-117146907D01*
X135064654Y-117121783D01*
X135064653Y-117121771D01*
X134993410Y-116809637D01*
X134887668Y-116507442D01*
X134748755Y-116218987D01*
X134578419Y-115947899D01*
X134378802Y-115697587D01*
X134152413Y-115471198D01*
X133902101Y-115271581D01*
X133631013Y-115101245D01*
X133631010Y-115101243D01*
X133342559Y-114962332D01*
X133040364Y-114856590D01*
X133040362Y-114856589D01*
X132799471Y-114801607D01*
X132728229Y-114785347D01*
X132728225Y-114785346D01*
X132728216Y-114785345D01*
X132410085Y-114749500D01*
X132410081Y-114749500D01*
X132089919Y-114749500D01*
X132089914Y-114749500D01*
X131771783Y-114785345D01*
X131771771Y-114785347D01*
X131459637Y-114856589D01*
X131459635Y-114856590D01*
X131157440Y-114962332D01*
X130868989Y-115101243D01*
X130597900Y-115271580D01*
X130347587Y-115471197D01*
X130121197Y-115697587D01*
X129921580Y-115947900D01*
X129751243Y-116218989D01*
X129612332Y-116507440D01*
X129517042Y-116779766D01*
X129476320Y-116836543D01*
X129411367Y-116862290D01*
X129342806Y-116848834D01*
X129292403Y-116800447D01*
X129282958Y-116779766D01*
X129187667Y-116507440D01*
X129048756Y-116218989D01*
X129046094Y-116214752D01*
X128878419Y-115947899D01*
X128678802Y-115697587D01*
X128452413Y-115471198D01*
X128202101Y-115271581D01*
X127931013Y-115101245D01*
X127931010Y-115101243D01*
X127642559Y-114962332D01*
X127340364Y-114856590D01*
X127340362Y-114856589D01*
X127099471Y-114801607D01*
X127028229Y-114785347D01*
X127028225Y-114785346D01*
X127028216Y-114785345D01*
X126710085Y-114749500D01*
X126710081Y-114749500D01*
X126389919Y-114749500D01*
X126389914Y-114749500D01*
X126071783Y-114785345D01*
X126071771Y-114785347D01*
X125759637Y-114856589D01*
X125759635Y-114856590D01*
X125457440Y-114962332D01*
X125168989Y-115101243D01*
X124897900Y-115271580D01*
X124647587Y-115471197D01*
X124421197Y-115697587D01*
X124221580Y-115947900D01*
X124051243Y-116218989D01*
X123912332Y-116507440D01*
X123806590Y-116809635D01*
X123806589Y-116809637D01*
X123735347Y-117121771D01*
X123735345Y-117121783D01*
X123699500Y-117439914D01*
X123001668Y-117439914D01*
X123005279Y-117417116D01*
X123005290Y-117417045D01*
X123007500Y-117403089D01*
X123007500Y-117146907D01*
X122986247Y-117012726D01*
X122967426Y-116893893D01*
X122888264Y-116650257D01*
X122771963Y-116422004D01*
X122621388Y-116214755D01*
X122440245Y-116033612D01*
X122232996Y-115883037D01*
X122004743Y-115766736D01*
X121761107Y-115687574D01*
X121508092Y-115647500D01*
X121508087Y-115647500D01*
X121251913Y-115647500D01*
X121251908Y-115647500D01*
X120998892Y-115687574D01*
X120755254Y-115766737D01*
X120527003Y-115883037D01*
X120319752Y-116033614D01*
X120138614Y-116214752D01*
X119988037Y-116422003D01*
X119871737Y-116650254D01*
X119792574Y-116893892D01*
X119752500Y-117146907D01*
X118526810Y-117146907D01*
X118526810Y-104988140D01*
X147657773Y-104988140D01*
X147657773Y-105381141D01*
X147692024Y-105772636D01*
X147692024Y-105772640D01*
X147760264Y-106159646D01*
X147760266Y-106159656D01*
X147861980Y-106539257D01*
X147861981Y-106539259D01*
X147861981Y-106539260D01*
X147996397Y-106908562D01*
X148162468Y-107264703D01*
X148162480Y-107264727D01*
X148358968Y-107605053D01*
X148358977Y-107605068D01*
X148584388Y-107926988D01*
X148691438Y-108054564D01*
X148836995Y-108228032D01*
X149114882Y-108505919D01*
X149222011Y-108595811D01*
X149415925Y-108758525D01*
X149415931Y-108758529D01*
X149415932Y-108758530D01*
X149737852Y-108983941D01*
X150078193Y-109180437D01*
X150078207Y-109180443D01*
X150078210Y-109180445D01*
X150434351Y-109346516D01*
X150434356Y-109346517D01*
X150434365Y-109346522D01*
X150803657Y-109480934D01*
X151183258Y-109582648D01*
X151570280Y-109650890D01*
X151961775Y-109685140D01*
X151961776Y-109685141D01*
X151961777Y-109685141D01*
X152354770Y-109685141D01*
X152354770Y-109685140D01*
X152746266Y-109650890D01*
X153133288Y-109582648D01*
X153512889Y-109480934D01*
X153882181Y-109346522D01*
X154238353Y-109180437D01*
X154578694Y-108983941D01*
X154900614Y-108758530D01*
X154929638Y-108734176D01*
X166023602Y-108734176D01*
X166023602Y-109078107D01*
X166057312Y-109420391D01*
X166124410Y-109757714D01*
X166224252Y-110086848D01*
X166355872Y-110404606D01*
X166355874Y-110404611D01*
X166517995Y-110707917D01*
X166518006Y-110707935D01*
X166709077Y-110993893D01*
X166709087Y-110993907D01*
X166927278Y-111259774D01*
X167170469Y-111502965D01*
X167170474Y-111502969D01*
X167170475Y-111502970D01*
X167436342Y-111721161D01*
X167722315Y-111912242D01*
X167722324Y-111912247D01*
X167722326Y-111912248D01*
X168025632Y-112074369D01*
X168025634Y-112074369D01*
X168025640Y-112074373D01*
X168343397Y-112205992D01*
X168672524Y-112305832D01*
X169009852Y-112372931D01*
X169352133Y-112406642D01*
X169352136Y-112406642D01*
X169696068Y-112406642D01*
X169696071Y-112406642D01*
X170038352Y-112372931D01*
X170375680Y-112305832D01*
X170704807Y-112205992D01*
X171022564Y-112074373D01*
X171325889Y-111912242D01*
X171611862Y-111721161D01*
X171877729Y-111502970D01*
X172120930Y-111259769D01*
X172339121Y-110993902D01*
X172530202Y-110707929D01*
X172692333Y-110404604D01*
X172823952Y-110086847D01*
X172923792Y-109757720D01*
X172990891Y-109420392D01*
X173024602Y-109078111D01*
X173024602Y-108734173D01*
X172990891Y-108391892D01*
X172923792Y-108054564D01*
X172823952Y-107725437D01*
X172692333Y-107407680D01*
X172530202Y-107104355D01*
X172339121Y-106818382D01*
X172120930Y-106552515D01*
X172120929Y-106552514D01*
X172120925Y-106552509D01*
X171877734Y-106309318D01*
X171611867Y-106091127D01*
X171611866Y-106091126D01*
X171611862Y-106091123D01*
X171325889Y-105900042D01*
X171325884Y-105900039D01*
X171325877Y-105900035D01*
X171022571Y-105737914D01*
X171022566Y-105737912D01*
X170704808Y-105606292D01*
X170375674Y-105506450D01*
X170038350Y-105439352D01*
X170038351Y-105439352D01*
X169780558Y-105413963D01*
X169696071Y-105405642D01*
X169352133Y-105405642D01*
X169274068Y-105413330D01*
X169009852Y-105439352D01*
X168672529Y-105506450D01*
X168343395Y-105606292D01*
X168025637Y-105737912D01*
X168025632Y-105737914D01*
X167722326Y-105900035D01*
X167722308Y-105900046D01*
X167436350Y-106091117D01*
X167436336Y-106091127D01*
X167170469Y-106309318D01*
X166927278Y-106552509D01*
X166709087Y-106818376D01*
X166709077Y-106818390D01*
X166518006Y-107104348D01*
X166517995Y-107104366D01*
X166355874Y-107407672D01*
X166355872Y-107407677D01*
X166224252Y-107725435D01*
X166124410Y-108054569D01*
X166057312Y-108391892D01*
X166023602Y-108734176D01*
X154929638Y-108734176D01*
X155201664Y-108505919D01*
X155479551Y-108228032D01*
X155732162Y-107926982D01*
X155957573Y-107605062D01*
X156154069Y-107264721D01*
X156320154Y-106908549D01*
X156454566Y-106539257D01*
X156556280Y-106159656D01*
X156624522Y-105772634D01*
X156658773Y-105381137D01*
X156658773Y-104988145D01*
X156658773Y-104988140D01*
X183375722Y-104988140D01*
X183375722Y-105381141D01*
X183409973Y-105772636D01*
X183409973Y-105772640D01*
X183478213Y-106159646D01*
X183478215Y-106159656D01*
X183579929Y-106539257D01*
X183579930Y-106539259D01*
X183579930Y-106539260D01*
X183714346Y-106908562D01*
X183880417Y-107264703D01*
X183880429Y-107264727D01*
X184076917Y-107605053D01*
X184076926Y-107605068D01*
X184302337Y-107926988D01*
X184409387Y-108054564D01*
X184554944Y-108228032D01*
X184832831Y-108505919D01*
X184939960Y-108595811D01*
X185133874Y-108758525D01*
X185133880Y-108758529D01*
X185133881Y-108758530D01*
X185455801Y-108983941D01*
X185796142Y-109180437D01*
X185796156Y-109180443D01*
X185796159Y-109180445D01*
X186152300Y-109346516D01*
X186152305Y-109346517D01*
X186152314Y-109346522D01*
X186521606Y-109480934D01*
X186901207Y-109582648D01*
X187288229Y-109650890D01*
X187679724Y-109685140D01*
X187679725Y-109685141D01*
X187679726Y-109685141D01*
X188072719Y-109685141D01*
X188072719Y-109685140D01*
X188464215Y-109650890D01*
X188851237Y-109582648D01*
X189230838Y-109480934D01*
X189600130Y-109346522D01*
X189956302Y-109180437D01*
X190296643Y-108983941D01*
X190618563Y-108758530D01*
X190647587Y-108734176D01*
X201741551Y-108734176D01*
X201741551Y-109078107D01*
X201775261Y-109420391D01*
X201842359Y-109757714D01*
X201942201Y-110086848D01*
X202073821Y-110404606D01*
X202073823Y-110404611D01*
X202235944Y-110707917D01*
X202235955Y-110707935D01*
X202427026Y-110993893D01*
X202427036Y-110993907D01*
X202645227Y-111259774D01*
X202888418Y-111502965D01*
X202888423Y-111502969D01*
X202888424Y-111502970D01*
X203154291Y-111721161D01*
X203440264Y-111912242D01*
X203440273Y-111912247D01*
X203440275Y-111912248D01*
X203743581Y-112074369D01*
X203743583Y-112074369D01*
X203743589Y-112074373D01*
X204061346Y-112205992D01*
X204390473Y-112305832D01*
X204727801Y-112372931D01*
X205070082Y-112406642D01*
X205070085Y-112406642D01*
X205414017Y-112406642D01*
X205414020Y-112406642D01*
X205756301Y-112372931D01*
X206093629Y-112305832D01*
X206422756Y-112205992D01*
X206740513Y-112074373D01*
X207043838Y-111912242D01*
X207329811Y-111721161D01*
X207595678Y-111502970D01*
X207838879Y-111259769D01*
X208057070Y-110993902D01*
X208248151Y-110707929D01*
X208410282Y-110404604D01*
X208541901Y-110086847D01*
X208641741Y-109757720D01*
X208708840Y-109420392D01*
X208742551Y-109078111D01*
X208742551Y-108734173D01*
X208708840Y-108391892D01*
X208641741Y-108054564D01*
X208541901Y-107725437D01*
X208410282Y-107407680D01*
X208248151Y-107104355D01*
X208057070Y-106818382D01*
X207838879Y-106552515D01*
X207838878Y-106552514D01*
X207838874Y-106552509D01*
X207595683Y-106309318D01*
X207329816Y-106091127D01*
X207329815Y-106091126D01*
X207329811Y-106091123D01*
X207043838Y-105900042D01*
X207043833Y-105900039D01*
X207043826Y-105900035D01*
X206740520Y-105737914D01*
X206740515Y-105737912D01*
X206422757Y-105606292D01*
X206093623Y-105506450D01*
X205756299Y-105439352D01*
X205756300Y-105439352D01*
X205498507Y-105413963D01*
X205414020Y-105405642D01*
X205070082Y-105405642D01*
X204992017Y-105413330D01*
X204727801Y-105439352D01*
X204390478Y-105506450D01*
X204061344Y-105606292D01*
X203743586Y-105737912D01*
X203743581Y-105737914D01*
X203440275Y-105900035D01*
X203440257Y-105900046D01*
X203154299Y-106091117D01*
X203154285Y-106091127D01*
X202888418Y-106309318D01*
X202645227Y-106552509D01*
X202427036Y-106818376D01*
X202427026Y-106818390D01*
X202235955Y-107104348D01*
X202235944Y-107104366D01*
X202073823Y-107407672D01*
X202073821Y-107407677D01*
X201942201Y-107725435D01*
X201842359Y-108054569D01*
X201775261Y-108391892D01*
X201741551Y-108734176D01*
X190647587Y-108734176D01*
X190919613Y-108505919D01*
X191197500Y-108228032D01*
X191450111Y-107926982D01*
X191675522Y-107605062D01*
X191872018Y-107264721D01*
X192038103Y-106908549D01*
X192172515Y-106539257D01*
X192274229Y-106159656D01*
X192342471Y-105772634D01*
X192376722Y-105381137D01*
X192376722Y-104988145D01*
X192342471Y-104596648D01*
X192274229Y-104209626D01*
X192172515Y-103830025D01*
X192038103Y-103460733D01*
X192038098Y-103460724D01*
X192038097Y-103460719D01*
X191872026Y-103104578D01*
X191872014Y-103104554D01*
X191812392Y-103001286D01*
X191675522Y-102764220D01*
X191450111Y-102442300D01*
X191450110Y-102442299D01*
X191450106Y-102442293D01*
X191197497Y-102141247D01*
X190919615Y-101863365D01*
X190618569Y-101610756D01*
X190296649Y-101385345D01*
X190296646Y-101385343D01*
X190296643Y-101385341D01*
X190195527Y-101326961D01*
X189956308Y-101188848D01*
X189956284Y-101188836D01*
X189600143Y-101022765D01*
X189600132Y-101022761D01*
X189600130Y-101022760D01*
X189230838Y-100888348D01*
X188990182Y-100823864D01*
X188851238Y-100786634D01*
X188851227Y-100786632D01*
X188464219Y-100718392D01*
X188072722Y-100684141D01*
X188072718Y-100684141D01*
X187679726Y-100684141D01*
X187679721Y-100684141D01*
X187288226Y-100718392D01*
X187288222Y-100718392D01*
X186901216Y-100786632D01*
X186901205Y-100786634D01*
X186697777Y-100841143D01*
X186521606Y-100888348D01*
X186521603Y-100888349D01*
X186521602Y-100888349D01*
X186152300Y-101022765D01*
X185796159Y-101188836D01*
X185796135Y-101188848D01*
X185455809Y-101385336D01*
X185455794Y-101385345D01*
X185133874Y-101610756D01*
X184832828Y-101863365D01*
X184554946Y-102141247D01*
X184302337Y-102442293D01*
X184076926Y-102764213D01*
X184076917Y-102764228D01*
X183880429Y-103104554D01*
X183880417Y-103104578D01*
X183714346Y-103460719D01*
X183618870Y-103723037D01*
X183579929Y-103830025D01*
X183554453Y-103925104D01*
X183478215Y-104209624D01*
X183478213Y-104209635D01*
X183409973Y-104596641D01*
X183409973Y-104596645D01*
X183375722Y-104988140D01*
X156658773Y-104988140D01*
X156624522Y-104596648D01*
X156556280Y-104209626D01*
X156454566Y-103830025D01*
X156320154Y-103460733D01*
X156320149Y-103460724D01*
X156320148Y-103460719D01*
X156154077Y-103104578D01*
X156154065Y-103104554D01*
X156094443Y-103001286D01*
X155957573Y-102764220D01*
X155732162Y-102442300D01*
X155732161Y-102442299D01*
X155732157Y-102442293D01*
X155479548Y-102141247D01*
X155201666Y-101863365D01*
X154900620Y-101610756D01*
X154578700Y-101385345D01*
X154578697Y-101385343D01*
X154578694Y-101385341D01*
X154477578Y-101326961D01*
X154238359Y-101188848D01*
X154238335Y-101188836D01*
X153882194Y-101022765D01*
X153882183Y-101022761D01*
X153882181Y-101022760D01*
X153512889Y-100888348D01*
X153272233Y-100823864D01*
X153133289Y-100786634D01*
X153133278Y-100786632D01*
X152746270Y-100718392D01*
X152354773Y-100684141D01*
X152354769Y-100684141D01*
X151961777Y-100684141D01*
X151961772Y-100684141D01*
X151570277Y-100718392D01*
X151570273Y-100718392D01*
X151183267Y-100786632D01*
X151183256Y-100786634D01*
X150979828Y-100841143D01*
X150803657Y-100888348D01*
X150803654Y-100888349D01*
X150803653Y-100888349D01*
X150434351Y-101022765D01*
X150078210Y-101188836D01*
X150078186Y-101188848D01*
X149737860Y-101385336D01*
X149737845Y-101385345D01*
X149415925Y-101610756D01*
X149114879Y-101863365D01*
X148836997Y-102141247D01*
X148584388Y-102442293D01*
X148358977Y-102764213D01*
X148358968Y-102764228D01*
X148162480Y-103104554D01*
X148162468Y-103104578D01*
X147996397Y-103460719D01*
X147900921Y-103723037D01*
X147861980Y-103830025D01*
X147836504Y-103925104D01*
X147760266Y-104209624D01*
X147760264Y-104209635D01*
X147692024Y-104596641D01*
X147692024Y-104596645D01*
X147657773Y-104988140D01*
X118526810Y-104988140D01*
X118526810Y-102788713D01*
X126289500Y-102788713D01*
X126289500Y-103001286D01*
X126322753Y-103211239D01*
X126388444Y-103413414D01*
X126484951Y-103602820D01*
X126609890Y-103774786D01*
X126760213Y-103925109D01*
X126932179Y-104050048D01*
X126932181Y-104050049D01*
X126932184Y-104050051D01*
X127121588Y-104146557D01*
X127323757Y-104212246D01*
X127533713Y-104245500D01*
X127533714Y-104245500D01*
X127746286Y-104245500D01*
X127746287Y-104245500D01*
X127956243Y-104212246D01*
X128158412Y-104146557D01*
X128347816Y-104050051D01*
X128369789Y-104034086D01*
X128519786Y-103925109D01*
X128519788Y-103925106D01*
X128519792Y-103925104D01*
X128670104Y-103774792D01*
X128670106Y-103774788D01*
X128670109Y-103774786D01*
X128795048Y-103602820D01*
X128795047Y-103602820D01*
X128795051Y-103602816D01*
X128891557Y-103413412D01*
X128957246Y-103211243D01*
X128990500Y-103001287D01*
X128990500Y-102788713D01*
X128957246Y-102578757D01*
X128891557Y-102376588D01*
X128795051Y-102187184D01*
X128795049Y-102187181D01*
X128795048Y-102187179D01*
X128670109Y-102015213D01*
X128519786Y-101864890D01*
X128347820Y-101739951D01*
X128158414Y-101643444D01*
X128158413Y-101643443D01*
X128158412Y-101643443D01*
X127956243Y-101577754D01*
X127956241Y-101577753D01*
X127956240Y-101577753D01*
X127794957Y-101552208D01*
X127746287Y-101544500D01*
X127533713Y-101544500D01*
X127485042Y-101552208D01*
X127323760Y-101577753D01*
X127121585Y-101643444D01*
X126932179Y-101739951D01*
X126760213Y-101864890D01*
X126609890Y-102015213D01*
X126484951Y-102187179D01*
X126388444Y-102376585D01*
X126322753Y-102578760D01*
X126289500Y-102788713D01*
X118526810Y-102788713D01*
X118526810Y-100479941D01*
X131849500Y-100479941D01*
X131849500Y-100720059D01*
X131868281Y-100838640D01*
X131887063Y-100957223D01*
X131887063Y-100957226D01*
X131961262Y-101185585D01*
X131962077Y-101187553D01*
X131962163Y-101188360D01*
X131962769Y-101190223D01*
X131962377Y-101190350D01*
X131969542Y-101257023D01*
X131962077Y-101282447D01*
X131961262Y-101284414D01*
X131887063Y-101512773D01*
X131887063Y-101512776D01*
X131849500Y-101749941D01*
X131849500Y-101990058D01*
X131887063Y-102227223D01*
X131887063Y-102227226D01*
X131893035Y-102245604D01*
X131895030Y-102315445D01*
X131894320Y-102318032D01*
X131860114Y-102437579D01*
X131860113Y-102437586D01*
X131849500Y-102556966D01*
X131849500Y-103723028D01*
X131849501Y-103723034D01*
X131860113Y-103842415D01*
X131916089Y-104038045D01*
X131916090Y-104038048D01*
X131916091Y-104038049D01*
X132010302Y-104218407D01*
X132044977Y-104260933D01*
X132138890Y-104376109D01*
X132232803Y-104452684D01*
X132296593Y-104504698D01*
X132476951Y-104598909D01*
X132672582Y-104654886D01*
X132791963Y-104665500D01*
X134408036Y-104665499D01*
X134527418Y-104654886D01*
X134723049Y-104598909D01*
X134903407Y-104504698D01*
X135061109Y-104376109D01*
X135189698Y-104218407D01*
X135283909Y-104038049D01*
X135339886Y-103842418D01*
X135350500Y-103723037D01*
X135350499Y-102556964D01*
X135339886Y-102437582D01*
X135305678Y-102318031D01*
X135306161Y-102248166D01*
X135306940Y-102245675D01*
X135312937Y-102227222D01*
X135350500Y-101990059D01*
X135350500Y-101749941D01*
X135312937Y-101512778D01*
X135238736Y-101284411D01*
X135238729Y-101284398D01*
X135237928Y-101282462D01*
X135237841Y-101281660D01*
X135237230Y-101279778D01*
X135237625Y-101279649D01*
X135230453Y-101212993D01*
X135237928Y-101187538D01*
X135238727Y-101185605D01*
X135238736Y-101185589D01*
X135312937Y-100957222D01*
X135350500Y-100720059D01*
X135350500Y-100479941D01*
X135312937Y-100242778D01*
X135238736Y-100014411D01*
X135238734Y-100014408D01*
X135238734Y-100014406D01*
X135129723Y-99800463D01*
X135108311Y-99770992D01*
X134988586Y-99606204D01*
X134818796Y-99436414D01*
X134624536Y-99295276D01*
X134410593Y-99186265D01*
X134182222Y-99112063D01*
X133945059Y-99074500D01*
X133254941Y-99074500D01*
X133136359Y-99093281D01*
X133017777Y-99112063D01*
X132789406Y-99186265D01*
X132575463Y-99295276D01*
X132381201Y-99436416D01*
X132211416Y-99606201D01*
X132070276Y-99800463D01*
X131961265Y-100014406D01*
X131891041Y-100230535D01*
X131887063Y-100242778D01*
X131849500Y-100479941D01*
X118526810Y-100479941D01*
X118526810Y-96588713D01*
X125089500Y-96588713D01*
X125089500Y-96801286D01*
X125122753Y-97011239D01*
X125188444Y-97213414D01*
X125284951Y-97402820D01*
X125409890Y-97574786D01*
X125560213Y-97725109D01*
X125732179Y-97850048D01*
X125732181Y-97850049D01*
X125732184Y-97850051D01*
X125921588Y-97946557D01*
X126123757Y-98012246D01*
X126333713Y-98045500D01*
X126333714Y-98045500D01*
X126546286Y-98045500D01*
X126546287Y-98045500D01*
X126756243Y-98012246D01*
X126958412Y-97946557D01*
X127147816Y-97850051D01*
X127153466Y-97845946D01*
X209249500Y-97845946D01*
X209249500Y-98154053D01*
X209249501Y-98154069D01*
X209289717Y-98459542D01*
X209369464Y-98757162D01*
X209487376Y-99041826D01*
X209487381Y-99041837D01*
X209580014Y-99202280D01*
X209641438Y-99308670D01*
X209641440Y-99308673D01*
X209641441Y-99308674D01*
X209829007Y-99553115D01*
X209829013Y-99553122D01*
X210046877Y-99770986D01*
X210046884Y-99770992D01*
X210085293Y-99800464D01*
X210291330Y-99958562D01*
X210462830Y-100057578D01*
X210558162Y-100112618D01*
X210558167Y-100112620D01*
X210558170Y-100112622D01*
X210842836Y-100230535D01*
X211140456Y-100310282D01*
X211445940Y-100350500D01*
X211445947Y-100350500D01*
X212354053Y-100350500D01*
X212354060Y-100350500D01*
X212659544Y-100310282D01*
X212957164Y-100230535D01*
X213241830Y-100112622D01*
X213508670Y-99958562D01*
X213753117Y-99770991D01*
X213970991Y-99553117D01*
X214158562Y-99308670D01*
X214250179Y-99149985D01*
X215250000Y-99149985D01*
X215260493Y-99252689D01*
X215260494Y-99252696D01*
X215315641Y-99419118D01*
X215315643Y-99419123D01*
X215407684Y-99568344D01*
X215531655Y-99692315D01*
X215680876Y-99784356D01*
X215680881Y-99784358D01*
X215847303Y-99839505D01*
X215847310Y-99839506D01*
X215950014Y-99849999D01*
X215950027Y-99850000D01*
X216900000Y-99850000D01*
X217900000Y-99850000D01*
X218849973Y-99850000D01*
X218849985Y-99849999D01*
X218952689Y-99839506D01*
X218952696Y-99839505D01*
X219119118Y-99784358D01*
X219119123Y-99784356D01*
X219268344Y-99692315D01*
X219392315Y-99568344D01*
X219484356Y-99419123D01*
X219484358Y-99419118D01*
X219539505Y-99252696D01*
X219539506Y-99252689D01*
X219549999Y-99149985D01*
X219550000Y-99149972D01*
X219550000Y-98500000D01*
X217900000Y-98500000D01*
X217900000Y-99850000D01*
X216900000Y-99850000D01*
X216900000Y-98500000D01*
X215250000Y-98500000D01*
X215250000Y-99149985D01*
X214250179Y-99149985D01*
X214312622Y-99041830D01*
X214430535Y-98757164D01*
X214510282Y-98459544D01*
X214550500Y-98154060D01*
X214550500Y-97931056D01*
X216700000Y-97931056D01*
X216700000Y-98068944D01*
X216726901Y-98204182D01*
X216779668Y-98331574D01*
X216856274Y-98446224D01*
X216953776Y-98543726D01*
X217068426Y-98620332D01*
X217195818Y-98673099D01*
X217331056Y-98700000D01*
X217468944Y-98700000D01*
X217604182Y-98673099D01*
X217731574Y-98620332D01*
X217846224Y-98543726D01*
X217943726Y-98446224D01*
X218020332Y-98331574D01*
X218073099Y-98204182D01*
X218100000Y-98068944D01*
X218100000Y-97931056D01*
X218073099Y-97795818D01*
X218020332Y-97668426D01*
X217943726Y-97553776D01*
X217889950Y-97500000D01*
X217900000Y-97500000D01*
X219550000Y-97500000D01*
X219550000Y-96850027D01*
X219549999Y-96850014D01*
X219539506Y-96747310D01*
X219539505Y-96747303D01*
X219484358Y-96580881D01*
X219484356Y-96580876D01*
X219392315Y-96431655D01*
X219268344Y-96307684D01*
X219119123Y-96215643D01*
X219119118Y-96215641D01*
X218952696Y-96160494D01*
X218952689Y-96160493D01*
X218849985Y-96150000D01*
X217900000Y-96150000D01*
X217900000Y-97500000D01*
X217889950Y-97500000D01*
X217846224Y-97456274D01*
X217731574Y-97379668D01*
X217604182Y-97326901D01*
X217468944Y-97300000D01*
X217331056Y-97300000D01*
X217195818Y-97326901D01*
X217068426Y-97379668D01*
X216953776Y-97456274D01*
X216856274Y-97553776D01*
X216779668Y-97668426D01*
X216726901Y-97795818D01*
X216700000Y-97931056D01*
X214550500Y-97931056D01*
X214550500Y-97845940D01*
X214510282Y-97540456D01*
X214430535Y-97242836D01*
X214312622Y-96958170D01*
X214250178Y-96850014D01*
X215250000Y-96850014D01*
X215250000Y-97500000D01*
X216900000Y-97500000D01*
X216900000Y-96150000D01*
X215950014Y-96150000D01*
X215847310Y-96160493D01*
X215847303Y-96160494D01*
X215680881Y-96215641D01*
X215680876Y-96215643D01*
X215531655Y-96307684D01*
X215407684Y-96431655D01*
X215315643Y-96580876D01*
X215315641Y-96580881D01*
X215260494Y-96747303D01*
X215260493Y-96747310D01*
X215250000Y-96850014D01*
X214250178Y-96850014D01*
X214158562Y-96691330D01*
X213970991Y-96446883D01*
X213970986Y-96446877D01*
X213753122Y-96229013D01*
X213753115Y-96229007D01*
X213508674Y-96041441D01*
X213508673Y-96041440D01*
X213508670Y-96041438D01*
X213402280Y-95980014D01*
X213241837Y-95887381D01*
X213241826Y-95887376D01*
X212957162Y-95769464D01*
X212659542Y-95689717D01*
X212354069Y-95649501D01*
X212354066Y-95649500D01*
X212354060Y-95649500D01*
X211445940Y-95649500D01*
X211445934Y-95649500D01*
X211445930Y-95649501D01*
X211140457Y-95689717D01*
X210842837Y-95769464D01*
X210558173Y-95887376D01*
X210558162Y-95887381D01*
X210291325Y-96041441D01*
X210046884Y-96229007D01*
X210046877Y-96229013D01*
X209829013Y-96446877D01*
X209829007Y-96446884D01*
X209641441Y-96691325D01*
X209487381Y-96958162D01*
X209487376Y-96958173D01*
X209369464Y-97242837D01*
X209289717Y-97540457D01*
X209249501Y-97845930D01*
X209249500Y-97845946D01*
X127153466Y-97845946D01*
X127225937Y-97793292D01*
X127297139Y-97741563D01*
X127297140Y-97741562D01*
X127319788Y-97725107D01*
X127319788Y-97725106D01*
X127319792Y-97725104D01*
X127470104Y-97574792D01*
X127470106Y-97574788D01*
X127470109Y-97574786D01*
X127595048Y-97402820D01*
X127595047Y-97402820D01*
X127595051Y-97402816D01*
X127691557Y-97213412D01*
X127757246Y-97011243D01*
X127790500Y-96801287D01*
X127790500Y-96588713D01*
X127757246Y-96378757D01*
X127691557Y-96176588D01*
X127595051Y-95987184D01*
X127595049Y-95987181D01*
X127595048Y-95987179D01*
X127470109Y-95815213D01*
X127319786Y-95664890D01*
X127147820Y-95539951D01*
X126958414Y-95443444D01*
X126958413Y-95443443D01*
X126958412Y-95443443D01*
X126756243Y-95377754D01*
X126756241Y-95377753D01*
X126756240Y-95377753D01*
X126594957Y-95352208D01*
X126546287Y-95344500D01*
X126333713Y-95344500D01*
X126285042Y-95352208D01*
X126123760Y-95377753D01*
X125921585Y-95443444D01*
X125732179Y-95539951D01*
X125560213Y-95664890D01*
X125409890Y-95815213D01*
X125284951Y-95987179D01*
X125188444Y-96176585D01*
X125122753Y-96378760D01*
X125089500Y-96588713D01*
X118526810Y-96588713D01*
X118526810Y-90788713D01*
X119889500Y-90788713D01*
X119889500Y-91001287D01*
X119891845Y-91016091D01*
X119918978Y-91187407D01*
X119922754Y-91211243D01*
X119982977Y-91396590D01*
X119988444Y-91413414D01*
X120084951Y-91602820D01*
X120209890Y-91774786D01*
X120360213Y-91925109D01*
X120532179Y-92050048D01*
X120532181Y-92050049D01*
X120532184Y-92050051D01*
X120721588Y-92146557D01*
X120923757Y-92212246D01*
X121133713Y-92245500D01*
X121133714Y-92245500D01*
X121346286Y-92245500D01*
X121346287Y-92245500D01*
X121556243Y-92212246D01*
X121758412Y-92146557D01*
X121947816Y-92050051D01*
X121969789Y-92034086D01*
X122119786Y-91925109D01*
X122119788Y-91925106D01*
X122119792Y-91925104D01*
X122152930Y-91891966D01*
X131129500Y-91891966D01*
X131129500Y-93058028D01*
X131129501Y-93058034D01*
X131140113Y-93177415D01*
X131174320Y-93296965D01*
X131173837Y-93366833D01*
X131173037Y-93369389D01*
X131167062Y-93387777D01*
X131129500Y-93624941D01*
X131129500Y-93865058D01*
X131167063Y-94102223D01*
X131167063Y-94102226D01*
X131241262Y-94330585D01*
X131242077Y-94332553D01*
X131242163Y-94333360D01*
X131242769Y-94335223D01*
X131242377Y-94335350D01*
X131249542Y-94402023D01*
X131242077Y-94427447D01*
X131241262Y-94429414D01*
X131167063Y-94657773D01*
X131167063Y-94657776D01*
X131129500Y-94894941D01*
X131129500Y-95135058D01*
X131167063Y-95372222D01*
X131241265Y-95600593D01*
X131327311Y-95769465D01*
X131350276Y-95814536D01*
X131491414Y-96008796D01*
X131661204Y-96178586D01*
X131855464Y-96319724D01*
X131956543Y-96371226D01*
X132069406Y-96428734D01*
X132069408Y-96428734D01*
X132069411Y-96428736D01*
X132297778Y-96502937D01*
X132534941Y-96540500D01*
X132534942Y-96540500D01*
X133225058Y-96540500D01*
X133225059Y-96540500D01*
X133462222Y-96502937D01*
X133690589Y-96428736D01*
X133904536Y-96319724D01*
X134098796Y-96178586D01*
X134268586Y-96008796D01*
X134409724Y-95814536D01*
X134518736Y-95600589D01*
X134592937Y-95372222D01*
X134630500Y-95135059D01*
X134630500Y-94894941D01*
X134592937Y-94657778D01*
X134518736Y-94429411D01*
X134518729Y-94429398D01*
X134517928Y-94427462D01*
X134517841Y-94426660D01*
X134517230Y-94424778D01*
X134517625Y-94424649D01*
X134510453Y-94357993D01*
X134517928Y-94332538D01*
X134518727Y-94330605D01*
X134518736Y-94330589D01*
X134592937Y-94102222D01*
X134630500Y-93865059D01*
X134630500Y-93624941D01*
X134592937Y-93387778D01*
X134586963Y-93369395D01*
X134584967Y-93299556D01*
X134585672Y-93296985D01*
X134619886Y-93177418D01*
X134630500Y-93058037D01*
X134630499Y-91891964D01*
X134619886Y-91772582D01*
X134563909Y-91576951D01*
X134469698Y-91396593D01*
X134404999Y-91317246D01*
X134341109Y-91238890D01*
X134183409Y-91110304D01*
X134183410Y-91110304D01*
X134183407Y-91110302D01*
X134003049Y-91016091D01*
X134003048Y-91016090D01*
X134003045Y-91016089D01*
X133885829Y-90982550D01*
X133807418Y-90960114D01*
X133807415Y-90960113D01*
X133807413Y-90960113D01*
X133741102Y-90954217D01*
X133688037Y-90949500D01*
X133688032Y-90949500D01*
X132071971Y-90949500D01*
X132071965Y-90949500D01*
X132071964Y-90949501D01*
X132060316Y-90950536D01*
X131952584Y-90960113D01*
X131756954Y-91016089D01*
X131666772Y-91063196D01*
X131576593Y-91110302D01*
X131576591Y-91110303D01*
X131576590Y-91110304D01*
X131418890Y-91238890D01*
X131301273Y-91383138D01*
X131290302Y-91396593D01*
X131243196Y-91486772D01*
X131196089Y-91576954D01*
X131140114Y-91772583D01*
X131140113Y-91772586D01*
X131129500Y-91891966D01*
X122152930Y-91891966D01*
X122270104Y-91774792D01*
X122270106Y-91774788D01*
X122270109Y-91774786D01*
X122395048Y-91602820D01*
X122395047Y-91602820D01*
X122395051Y-91602816D01*
X122491557Y-91413412D01*
X122557246Y-91211243D01*
X122590500Y-91001287D01*
X122590500Y-90788713D01*
X122557246Y-90578757D01*
X122495497Y-90388713D01*
X127289500Y-90388713D01*
X127289500Y-90601287D01*
X127294718Y-90634232D01*
X127319994Y-90793822D01*
X127322754Y-90811243D01*
X127384503Y-91001287D01*
X127388444Y-91013414D01*
X127484951Y-91202820D01*
X127609890Y-91374786D01*
X127760213Y-91525109D01*
X127932179Y-91650048D01*
X127932181Y-91650049D01*
X127932184Y-91650051D01*
X128121588Y-91746557D01*
X128323757Y-91812246D01*
X128533713Y-91845500D01*
X128533714Y-91845500D01*
X128746286Y-91845500D01*
X128746287Y-91845500D01*
X128956243Y-91812246D01*
X129158412Y-91746557D01*
X129347816Y-91650051D01*
X129369789Y-91634086D01*
X129519786Y-91525109D01*
X129519788Y-91525106D01*
X129519792Y-91525104D01*
X129670104Y-91374792D01*
X129670106Y-91374788D01*
X129670109Y-91374786D01*
X129795048Y-91202820D01*
X129795047Y-91202820D01*
X129795051Y-91202816D01*
X129891557Y-91013412D01*
X129957246Y-90811243D01*
X129990500Y-90601287D01*
X129990500Y-90388713D01*
X129957246Y-90178757D01*
X129891557Y-89976588D01*
X129891554Y-89976582D01*
X129875533Y-89945137D01*
X129875532Y-89945136D01*
X129849330Y-89893713D01*
X134449500Y-89893713D01*
X134449500Y-90106287D01*
X134482754Y-90316243D01*
X134517168Y-90422159D01*
X134548444Y-90518414D01*
X134644951Y-90707820D01*
X134769890Y-90879786D01*
X134920213Y-91030109D01*
X135092179Y-91155048D01*
X135092181Y-91155049D01*
X135092184Y-91155051D01*
X135281588Y-91251557D01*
X135483757Y-91317246D01*
X135693713Y-91350500D01*
X135693714Y-91350500D01*
X135906286Y-91350500D01*
X135906287Y-91350500D01*
X136116243Y-91317246D01*
X136318412Y-91251557D01*
X136507816Y-91155051D01*
X136529789Y-91139086D01*
X136679786Y-91030109D01*
X136679788Y-91030106D01*
X136679792Y-91030104D01*
X136830104Y-90879792D01*
X136830106Y-90879788D01*
X136830109Y-90879786D01*
X136955048Y-90707820D01*
X136955047Y-90707820D01*
X136955051Y-90707816D01*
X137051557Y-90518412D01*
X137117246Y-90316243D01*
X137150500Y-90106287D01*
X137150500Y-89893713D01*
X137117246Y-89683757D01*
X137051557Y-89481588D01*
X137041941Y-89462716D01*
X147397965Y-89462716D01*
X147397965Y-89855717D01*
X147432216Y-90247212D01*
X147432216Y-90247216D01*
X147494649Y-90601287D01*
X147500458Y-90634232D01*
X147602172Y-91013833D01*
X147724709Y-91350500D01*
X147736589Y-91383138D01*
X147902660Y-91739279D01*
X147902672Y-91739303D01*
X148099160Y-92079629D01*
X148099169Y-92079644D01*
X148324580Y-92401564D01*
X148517258Y-92631188D01*
X148577187Y-92702608D01*
X148855074Y-92980495D01*
X148947474Y-93058028D01*
X149156117Y-93233101D01*
X149156123Y-93233105D01*
X149156124Y-93233106D01*
X149478044Y-93458517D01*
X149818385Y-93655013D01*
X149818399Y-93655019D01*
X149818402Y-93655021D01*
X150174543Y-93821092D01*
X150174548Y-93821093D01*
X150174557Y-93821098D01*
X150543849Y-93955510D01*
X150923450Y-94057224D01*
X151310472Y-94125466D01*
X151701967Y-94159716D01*
X151701968Y-94159717D01*
X151701969Y-94159717D01*
X152094962Y-94159717D01*
X152094962Y-94159716D01*
X152486458Y-94125466D01*
X152873480Y-94057224D01*
X153253081Y-93955510D01*
X153622373Y-93821098D01*
X153978545Y-93655013D01*
X154318886Y-93458517D01*
X154640806Y-93233106D01*
X154941856Y-92980495D01*
X155219743Y-92702608D01*
X155472354Y-92401558D01*
X155697765Y-92079638D01*
X155894261Y-91739297D01*
X156060346Y-91383125D01*
X156194758Y-91013833D01*
X156296472Y-90634232D01*
X156364714Y-90247210D01*
X156398965Y-89855713D01*
X156398965Y-89462721D01*
X156364714Y-89071224D01*
X156296472Y-88684202D01*
X156194758Y-88304601D01*
X156060346Y-87935309D01*
X156060341Y-87935300D01*
X156060340Y-87935295D01*
X155934350Y-87665107D01*
X155911334Y-87615750D01*
X162559500Y-87615750D01*
X162559500Y-87959681D01*
X162593210Y-88301965D01*
X162660308Y-88639288D01*
X162760150Y-88968422D01*
X162891770Y-89286180D01*
X162891772Y-89286185D01*
X163053893Y-89589491D01*
X163053904Y-89589509D01*
X163244975Y-89875467D01*
X163244985Y-89875481D01*
X163463176Y-90141348D01*
X163706367Y-90384539D01*
X163706372Y-90384543D01*
X163706373Y-90384544D01*
X163972240Y-90602735D01*
X164258213Y-90793816D01*
X164258222Y-90793821D01*
X164258224Y-90793822D01*
X164561530Y-90955943D01*
X164561532Y-90955943D01*
X164561538Y-90955947D01*
X164879295Y-91087566D01*
X165208422Y-91187406D01*
X165545750Y-91254505D01*
X165888031Y-91288216D01*
X165888034Y-91288216D01*
X166231966Y-91288216D01*
X166231969Y-91288216D01*
X166574250Y-91254505D01*
X166911578Y-91187406D01*
X167240705Y-91087566D01*
X167558462Y-90955947D01*
X167861787Y-90793816D01*
X168147760Y-90602735D01*
X168413627Y-90384544D01*
X168656828Y-90141343D01*
X168875019Y-89875476D01*
X169066100Y-89589503D01*
X169133869Y-89462716D01*
X183115914Y-89462716D01*
X183115914Y-89855717D01*
X183150165Y-90247212D01*
X183150165Y-90247216D01*
X183212598Y-90601287D01*
X183218407Y-90634232D01*
X183320121Y-91013833D01*
X183442658Y-91350500D01*
X183454538Y-91383138D01*
X183620609Y-91739279D01*
X183620621Y-91739303D01*
X183817109Y-92079629D01*
X183817118Y-92079644D01*
X184042529Y-92401564D01*
X184235207Y-92631188D01*
X184295136Y-92702608D01*
X184573023Y-92980495D01*
X184665423Y-93058028D01*
X184874066Y-93233101D01*
X184874072Y-93233105D01*
X184874073Y-93233106D01*
X185195993Y-93458517D01*
X185536334Y-93655013D01*
X185536348Y-93655019D01*
X185536351Y-93655021D01*
X185892492Y-93821092D01*
X185892497Y-93821093D01*
X185892506Y-93821098D01*
X186261798Y-93955510D01*
X186641399Y-94057224D01*
X187028421Y-94125466D01*
X187419916Y-94159716D01*
X187419917Y-94159717D01*
X187419918Y-94159717D01*
X187812911Y-94159717D01*
X187812911Y-94159716D01*
X188204407Y-94125466D01*
X188591429Y-94057224D01*
X188971030Y-93955510D01*
X189340322Y-93821098D01*
X189696494Y-93655013D01*
X190036835Y-93458517D01*
X190358755Y-93233106D01*
X190659805Y-92980495D01*
X190937692Y-92702608D01*
X191190303Y-92401558D01*
X191415714Y-92079638D01*
X191612210Y-91739297D01*
X191778295Y-91383125D01*
X191912707Y-91013833D01*
X192014421Y-90634232D01*
X192082663Y-90247210D01*
X192116914Y-89855713D01*
X192116914Y-89462721D01*
X192082663Y-89071224D01*
X192014421Y-88684202D01*
X191912707Y-88304601D01*
X191778295Y-87935309D01*
X191778290Y-87935300D01*
X191778289Y-87935295D01*
X191652299Y-87665107D01*
X191629283Y-87615750D01*
X198277449Y-87615750D01*
X198277449Y-87959681D01*
X198311159Y-88301965D01*
X198378257Y-88639288D01*
X198478099Y-88968422D01*
X198609719Y-89286180D01*
X198609721Y-89286185D01*
X198771842Y-89589491D01*
X198771853Y-89589509D01*
X198962924Y-89875467D01*
X198962934Y-89875481D01*
X199181125Y-90141348D01*
X199424316Y-90384539D01*
X199424321Y-90384543D01*
X199424322Y-90384544D01*
X199690189Y-90602735D01*
X199976162Y-90793816D01*
X199976171Y-90793821D01*
X199976173Y-90793822D01*
X200279479Y-90955943D01*
X200279481Y-90955943D01*
X200279487Y-90955947D01*
X200597244Y-91087566D01*
X200926371Y-91187406D01*
X201263699Y-91254505D01*
X201605980Y-91288216D01*
X201605983Y-91288216D01*
X201949915Y-91288216D01*
X201949918Y-91288216D01*
X202292199Y-91254505D01*
X202629527Y-91187406D01*
X202958654Y-91087566D01*
X203276411Y-90955947D01*
X203579736Y-90793816D01*
X203865709Y-90602735D01*
X204131576Y-90384544D01*
X204374777Y-90141343D01*
X204592968Y-89875476D01*
X204784049Y-89589503D01*
X204946180Y-89286178D01*
X205077799Y-88968421D01*
X205177639Y-88639294D01*
X205244738Y-88301966D01*
X205278449Y-87959685D01*
X205278449Y-87615747D01*
X205244738Y-87273466D01*
X205177639Y-86936138D01*
X205077799Y-86607011D01*
X204946180Y-86289254D01*
X204784049Y-85985929D01*
X204592968Y-85699956D01*
X204374777Y-85434089D01*
X204374776Y-85434088D01*
X204374772Y-85434083D01*
X204131581Y-85190892D01*
X203865714Y-84972701D01*
X203865713Y-84972700D01*
X203865709Y-84972697D01*
X203579736Y-84781616D01*
X203579731Y-84781613D01*
X203579724Y-84781609D01*
X203276418Y-84619488D01*
X203276413Y-84619486D01*
X202958655Y-84487866D01*
X202629521Y-84388024D01*
X202292197Y-84320926D01*
X202292198Y-84320926D01*
X202034405Y-84295537D01*
X201949918Y-84287216D01*
X201605980Y-84287216D01*
X201527915Y-84294904D01*
X201263699Y-84320926D01*
X200926376Y-84388024D01*
X200597242Y-84487866D01*
X200279484Y-84619486D01*
X200279479Y-84619488D01*
X199976173Y-84781609D01*
X199976155Y-84781620D01*
X199690197Y-84972691D01*
X199690183Y-84972701D01*
X199424316Y-85190892D01*
X199181125Y-85434083D01*
X198962934Y-85699950D01*
X198962924Y-85699964D01*
X198771853Y-85985922D01*
X198771842Y-85985940D01*
X198609721Y-86289246D01*
X198609719Y-86289251D01*
X198478099Y-86607009D01*
X198378257Y-86936143D01*
X198311159Y-87273466D01*
X198285137Y-87537682D01*
X198281056Y-87579130D01*
X198277449Y-87615750D01*
X191629283Y-87615750D01*
X191612218Y-87579154D01*
X191612206Y-87579130D01*
X191599869Y-87557763D01*
X191415714Y-87238796D01*
X191190303Y-86916876D01*
X191190302Y-86916875D01*
X191190298Y-86916869D01*
X190937689Y-86615823D01*
X190659807Y-86337941D01*
X190358761Y-86085332D01*
X190036841Y-85859921D01*
X190036838Y-85859919D01*
X190036835Y-85859917D01*
X189935719Y-85801537D01*
X189696500Y-85663424D01*
X189696476Y-85663412D01*
X189340335Y-85497341D01*
X189340324Y-85497337D01*
X189340322Y-85497336D01*
X188971030Y-85362924D01*
X188730374Y-85298440D01*
X188591430Y-85261210D01*
X188591419Y-85261208D01*
X188204411Y-85192968D01*
X187812914Y-85158717D01*
X187812910Y-85158717D01*
X187419918Y-85158717D01*
X187419913Y-85158717D01*
X187028418Y-85192968D01*
X187028414Y-85192968D01*
X186641408Y-85261208D01*
X186641397Y-85261210D01*
X186437969Y-85315719D01*
X186261798Y-85362924D01*
X186261795Y-85362925D01*
X186261794Y-85362925D01*
X185892492Y-85497341D01*
X185536351Y-85663412D01*
X185536327Y-85663424D01*
X185196001Y-85859912D01*
X185195986Y-85859921D01*
X184874066Y-86085332D01*
X184573020Y-86337941D01*
X184295138Y-86615823D01*
X184042529Y-86916869D01*
X183817118Y-87238789D01*
X183817109Y-87238804D01*
X183620621Y-87579130D01*
X183620609Y-87579154D01*
X183454538Y-87935295D01*
X183320122Y-88304597D01*
X183320122Y-88304599D01*
X183218407Y-88684200D01*
X183218405Y-88684211D01*
X183150165Y-89071217D01*
X183150165Y-89071221D01*
X183115914Y-89462716D01*
X169133869Y-89462716D01*
X169228231Y-89286178D01*
X169359850Y-88968421D01*
X169459690Y-88639294D01*
X169526789Y-88301966D01*
X169560500Y-87959685D01*
X169560500Y-87615747D01*
X169526789Y-87273466D01*
X169459690Y-86936138D01*
X169359850Y-86607011D01*
X169228231Y-86289254D01*
X169066100Y-85985929D01*
X168875019Y-85699956D01*
X168656828Y-85434089D01*
X168656827Y-85434088D01*
X168656823Y-85434083D01*
X168413632Y-85190892D01*
X168147765Y-84972701D01*
X168147764Y-84972700D01*
X168147760Y-84972697D01*
X167861787Y-84781616D01*
X167861782Y-84781613D01*
X167861775Y-84781609D01*
X167558469Y-84619488D01*
X167558464Y-84619486D01*
X167240706Y-84487866D01*
X166911572Y-84388024D01*
X166574248Y-84320926D01*
X166574249Y-84320926D01*
X166316456Y-84295537D01*
X166231969Y-84287216D01*
X165888031Y-84287216D01*
X165809966Y-84294904D01*
X165545750Y-84320926D01*
X165208427Y-84388024D01*
X164879293Y-84487866D01*
X164561535Y-84619486D01*
X164561530Y-84619488D01*
X164258224Y-84781609D01*
X164258206Y-84781620D01*
X163972248Y-84972691D01*
X163972234Y-84972701D01*
X163706367Y-85190892D01*
X163463176Y-85434083D01*
X163244985Y-85699950D01*
X163244975Y-85699964D01*
X163053904Y-85985922D01*
X163053893Y-85985940D01*
X162891772Y-86289246D01*
X162891770Y-86289251D01*
X162760150Y-86607009D01*
X162660308Y-86936143D01*
X162593210Y-87273466D01*
X162567188Y-87537682D01*
X162563107Y-87579130D01*
X162559500Y-87615750D01*
X155911334Y-87615750D01*
X155894269Y-87579154D01*
X155894257Y-87579130D01*
X155881920Y-87557763D01*
X155697765Y-87238796D01*
X155472354Y-86916876D01*
X155472353Y-86916875D01*
X155472349Y-86916869D01*
X155219740Y-86615823D01*
X154941858Y-86337941D01*
X154640812Y-86085332D01*
X154318892Y-85859921D01*
X154318889Y-85859919D01*
X154318886Y-85859917D01*
X154217770Y-85801537D01*
X153978551Y-85663424D01*
X153978527Y-85663412D01*
X153622386Y-85497341D01*
X153622375Y-85497337D01*
X153622373Y-85497336D01*
X153253081Y-85362924D01*
X153012425Y-85298440D01*
X152873481Y-85261210D01*
X152873470Y-85261208D01*
X152486462Y-85192968D01*
X152094965Y-85158717D01*
X152094961Y-85158717D01*
X151701969Y-85158717D01*
X151701964Y-85158717D01*
X151310469Y-85192968D01*
X151310465Y-85192968D01*
X150923459Y-85261208D01*
X150923448Y-85261210D01*
X150720020Y-85315719D01*
X150543849Y-85362924D01*
X150543846Y-85362925D01*
X150543845Y-85362925D01*
X150174543Y-85497341D01*
X149818402Y-85663412D01*
X149818378Y-85663424D01*
X149478052Y-85859912D01*
X149478037Y-85859921D01*
X149156117Y-86085332D01*
X148855071Y-86337941D01*
X148577189Y-86615823D01*
X148324580Y-86916869D01*
X148099169Y-87238789D01*
X148099160Y-87238804D01*
X147902672Y-87579130D01*
X147902660Y-87579154D01*
X147736589Y-87935295D01*
X147602173Y-88304597D01*
X147602173Y-88304599D01*
X147500458Y-88684200D01*
X147500456Y-88684211D01*
X147432216Y-89071217D01*
X147432216Y-89071221D01*
X147397965Y-89462716D01*
X137041941Y-89462716D01*
X136955051Y-89292184D01*
X136955049Y-89292181D01*
X136955048Y-89292179D01*
X136830109Y-89120213D01*
X136679786Y-88969890D01*
X136507820Y-88844951D01*
X136318414Y-88748444D01*
X136318413Y-88748443D01*
X136318412Y-88748443D01*
X136116243Y-88682754D01*
X136116241Y-88682753D01*
X136116240Y-88682753D01*
X135954957Y-88657208D01*
X135906287Y-88649500D01*
X135693713Y-88649500D01*
X135645042Y-88657208D01*
X135483760Y-88682753D01*
X135281585Y-88748444D01*
X135092179Y-88844951D01*
X134920213Y-88969890D01*
X134769890Y-89120213D01*
X134644951Y-89292179D01*
X134548444Y-89481585D01*
X134482753Y-89683760D01*
X134455519Y-89855713D01*
X134449500Y-89893713D01*
X129849330Y-89893713D01*
X129829970Y-89855717D01*
X129795051Y-89787184D01*
X129787023Y-89776134D01*
X129670109Y-89615213D01*
X129519786Y-89464890D01*
X129347820Y-89339951D01*
X129158414Y-89243444D01*
X129158413Y-89243443D01*
X129158412Y-89243443D01*
X128956243Y-89177754D01*
X128956241Y-89177753D01*
X128956240Y-89177753D01*
X128794957Y-89152208D01*
X128746287Y-89144500D01*
X128533713Y-89144500D01*
X128485042Y-89152208D01*
X128323760Y-89177753D01*
X128121585Y-89243444D01*
X127932179Y-89339951D01*
X127760213Y-89464890D01*
X127609890Y-89615213D01*
X127484951Y-89787179D01*
X127388444Y-89976585D01*
X127322753Y-90178760D01*
X127311911Y-90247216D01*
X127289500Y-90388713D01*
X122495497Y-90388713D01*
X122491557Y-90376588D01*
X122491555Y-90376585D01*
X122491555Y-90376583D01*
X122395048Y-90187179D01*
X122270109Y-90015213D01*
X122119786Y-89864890D01*
X121947820Y-89739951D01*
X121758414Y-89643444D01*
X121758413Y-89643443D01*
X121758412Y-89643443D01*
X121556243Y-89577754D01*
X121556241Y-89577753D01*
X121556240Y-89577753D01*
X121394957Y-89552208D01*
X121346287Y-89544500D01*
X121133713Y-89544500D01*
X121085042Y-89552208D01*
X120923760Y-89577753D01*
X120721585Y-89643444D01*
X120532179Y-89739951D01*
X120360213Y-89864890D01*
X120209890Y-90015213D01*
X120084951Y-90187179D01*
X119988444Y-90376585D01*
X119922753Y-90578760D01*
X119913967Y-90634233D01*
X119889500Y-90788713D01*
X118526810Y-90788713D01*
X118526810Y-80795946D01*
X121149500Y-80795946D01*
X121149500Y-81704053D01*
X121149501Y-81704069D01*
X121189717Y-82009542D01*
X121269464Y-82307162D01*
X121387376Y-82591826D01*
X121387381Y-82591837D01*
X121471915Y-82738253D01*
X121541438Y-82858670D01*
X121541440Y-82858673D01*
X121541441Y-82858674D01*
X121729007Y-83103115D01*
X121729013Y-83103122D01*
X121946877Y-83320986D01*
X121946883Y-83320991D01*
X122191330Y-83508562D01*
X122362830Y-83607578D01*
X122458162Y-83662618D01*
X122458167Y-83662620D01*
X122458170Y-83662622D01*
X122742836Y-83780535D01*
X123040456Y-83860282D01*
X123345940Y-83900500D01*
X123345947Y-83900500D01*
X123654053Y-83900500D01*
X123654060Y-83900500D01*
X123959544Y-83860282D01*
X124257164Y-83780535D01*
X124541830Y-83662622D01*
X124808670Y-83508562D01*
X125053117Y-83320991D01*
X125270991Y-83103117D01*
X125458562Y-82858670D01*
X125492613Y-82799692D01*
X125543179Y-82751477D01*
X125611786Y-82738253D01*
X125676651Y-82764221D01*
X125707387Y-82799692D01*
X125741437Y-82858669D01*
X125929007Y-83103115D01*
X125929013Y-83103122D01*
X126146877Y-83320986D01*
X126146883Y-83320991D01*
X126391330Y-83508562D01*
X126562830Y-83607578D01*
X126658162Y-83662618D01*
X126658167Y-83662620D01*
X126658170Y-83662622D01*
X126942836Y-83780535D01*
X127240456Y-83860282D01*
X127545940Y-83900500D01*
X127545947Y-83900500D01*
X127854053Y-83900500D01*
X127854060Y-83900500D01*
X128159544Y-83860282D01*
X128457164Y-83780535D01*
X128741830Y-83662622D01*
X129008670Y-83508562D01*
X129253117Y-83320991D01*
X129470991Y-83103117D01*
X129658562Y-82858670D01*
X129812622Y-82591830D01*
X129853264Y-82493713D01*
X130849500Y-82493713D01*
X130849500Y-82706287D01*
X130882754Y-82916243D01*
X130943473Y-83103117D01*
X130948444Y-83118414D01*
X131044951Y-83307820D01*
X131169890Y-83479786D01*
X131320213Y-83630109D01*
X131492179Y-83755048D01*
X131492181Y-83755049D01*
X131492184Y-83755051D01*
X131681588Y-83851557D01*
X131883757Y-83917246D01*
X132093713Y-83950500D01*
X132093714Y-83950500D01*
X132306286Y-83950500D01*
X132306287Y-83950500D01*
X132516243Y-83917246D01*
X132718412Y-83851557D01*
X132907816Y-83755051D01*
X132929789Y-83739086D01*
X133079786Y-83630109D01*
X133079788Y-83630106D01*
X133079792Y-83630104D01*
X133230104Y-83479792D01*
X133230106Y-83479788D01*
X133230109Y-83479786D01*
X133345479Y-83320991D01*
X133355051Y-83307816D01*
X133451557Y-83118412D01*
X133517246Y-82916243D01*
X133550500Y-82706287D01*
X133550500Y-82493713D01*
X133517246Y-82283757D01*
X133451557Y-82081588D01*
X133355051Y-81892184D01*
X133355049Y-81892181D01*
X133355048Y-81892179D01*
X133230109Y-81720213D01*
X133079786Y-81569890D01*
X132907820Y-81444951D01*
X132718414Y-81348444D01*
X132718413Y-81348443D01*
X132718412Y-81348443D01*
X132516243Y-81282754D01*
X132516241Y-81282753D01*
X132516240Y-81282753D01*
X132354957Y-81257208D01*
X132306287Y-81249500D01*
X132093713Y-81249500D01*
X132045042Y-81257208D01*
X131883760Y-81282753D01*
X131681585Y-81348444D01*
X131492179Y-81444951D01*
X131320213Y-81569890D01*
X131169890Y-81720213D01*
X131044951Y-81892179D01*
X130948444Y-82081585D01*
X130882753Y-82283760D01*
X130857787Y-82441389D01*
X130849500Y-82493713D01*
X129853264Y-82493713D01*
X129930535Y-82307164D01*
X130010282Y-82009544D01*
X130050500Y-81704060D01*
X130050500Y-80795946D01*
X137649500Y-80795946D01*
X137649500Y-81704053D01*
X137649501Y-81704069D01*
X137689717Y-82009542D01*
X137769464Y-82307162D01*
X137887376Y-82591826D01*
X137887381Y-82591837D01*
X137971915Y-82738253D01*
X138041438Y-82858670D01*
X138041440Y-82858673D01*
X138041441Y-82858674D01*
X138229007Y-83103115D01*
X138229013Y-83103122D01*
X138446877Y-83320986D01*
X138446883Y-83320991D01*
X138691330Y-83508562D01*
X138862830Y-83607578D01*
X138958162Y-83662618D01*
X138958167Y-83662620D01*
X138958170Y-83662622D01*
X139242836Y-83780535D01*
X139540456Y-83860282D01*
X139845940Y-83900500D01*
X139845947Y-83900500D01*
X140154053Y-83900500D01*
X140154060Y-83900500D01*
X140459544Y-83860282D01*
X140757164Y-83780535D01*
X141041830Y-83662622D01*
X141308670Y-83508562D01*
X141553117Y-83320991D01*
X141770991Y-83103117D01*
X141958562Y-82858670D01*
X142112622Y-82591830D01*
X142230535Y-82307164D01*
X142310282Y-82009544D01*
X142350500Y-81704060D01*
X142350500Y-80795940D01*
X142310282Y-80490456D01*
X142230535Y-80192836D01*
X142112622Y-79908170D01*
X142112620Y-79908167D01*
X142112618Y-79908162D01*
X142020450Y-79748524D01*
X141958562Y-79641330D01*
X141770991Y-79396883D01*
X141770986Y-79396877D01*
X141553122Y-79179013D01*
X141553115Y-79179007D01*
X141308674Y-78991441D01*
X141308673Y-78991440D01*
X141308670Y-78991438D01*
X141202280Y-78930014D01*
X141041837Y-78837381D01*
X141041826Y-78837376D01*
X140757162Y-78719464D01*
X140459542Y-78639717D01*
X140154069Y-78599501D01*
X140154066Y-78599500D01*
X140154060Y-78599500D01*
X139845940Y-78599500D01*
X139845934Y-78599500D01*
X139845930Y-78599501D01*
X139540457Y-78639717D01*
X139242837Y-78719464D01*
X138958173Y-78837376D01*
X138958162Y-78837381D01*
X138691325Y-78991441D01*
X138446884Y-79179007D01*
X138446877Y-79179013D01*
X138229013Y-79396877D01*
X138229007Y-79396884D01*
X138041441Y-79641325D01*
X137887381Y-79908162D01*
X137887376Y-79908173D01*
X137769464Y-80192837D01*
X137689717Y-80490457D01*
X137649501Y-80795930D01*
X137649500Y-80795946D01*
X130050500Y-80795946D01*
X130050500Y-80795940D01*
X130010282Y-80490456D01*
X129930535Y-80192836D01*
X129812622Y-79908170D01*
X129812620Y-79908167D01*
X129812618Y-79908162D01*
X129720450Y-79748524D01*
X129658562Y-79641330D01*
X129470991Y-79396883D01*
X129470986Y-79396877D01*
X129253122Y-79179013D01*
X129253115Y-79179007D01*
X129008674Y-78991441D01*
X129008673Y-78991440D01*
X129008670Y-78991438D01*
X128902280Y-78930014D01*
X128741837Y-78837381D01*
X128741826Y-78837376D01*
X128457162Y-78719464D01*
X128159542Y-78639717D01*
X127854069Y-78599501D01*
X127854066Y-78599500D01*
X127854060Y-78599500D01*
X127545940Y-78599500D01*
X127545934Y-78599500D01*
X127545930Y-78599501D01*
X127240457Y-78639717D01*
X126942837Y-78719464D01*
X126658173Y-78837376D01*
X126658162Y-78837381D01*
X126391325Y-78991441D01*
X126146884Y-79179007D01*
X126146877Y-79179013D01*
X125929013Y-79396877D01*
X125929007Y-79396884D01*
X125741443Y-79641322D01*
X125741439Y-79641327D01*
X125741438Y-79641330D01*
X125707385Y-79700310D01*
X125656819Y-79748524D01*
X125588212Y-79761746D01*
X125523348Y-79735778D01*
X125492614Y-79700310D01*
X125458562Y-79641330D01*
X125270991Y-79396883D01*
X125270986Y-79396877D01*
X125053122Y-79179013D01*
X125053115Y-79179007D01*
X124808674Y-78991441D01*
X124808673Y-78991440D01*
X124808670Y-78991438D01*
X124702280Y-78930014D01*
X124541837Y-78837381D01*
X124541826Y-78837376D01*
X124257162Y-78719464D01*
X123959542Y-78639717D01*
X123654069Y-78599501D01*
X123654066Y-78599500D01*
X123654060Y-78599500D01*
X123345940Y-78599500D01*
X123345934Y-78599500D01*
X123345930Y-78599501D01*
X123040457Y-78639717D01*
X122742837Y-78719464D01*
X122458173Y-78837376D01*
X122458162Y-78837381D01*
X122191325Y-78991441D01*
X121946884Y-79179007D01*
X121946877Y-79179013D01*
X121729013Y-79396877D01*
X121729007Y-79396884D01*
X121541441Y-79641325D01*
X121387381Y-79908162D01*
X121387376Y-79908173D01*
X121269464Y-80192837D01*
X121189717Y-80490457D01*
X121149501Y-80795930D01*
X121149500Y-80795946D01*
X118526810Y-80795946D01*
X118526810Y-78158752D01*
X157099500Y-78158752D01*
X157099500Y-78502683D01*
X157133210Y-78844967D01*
X157200308Y-79182290D01*
X157300150Y-79511424D01*
X157431770Y-79829182D01*
X157431772Y-79829187D01*
X157593893Y-80132493D01*
X157593904Y-80132511D01*
X157784975Y-80418469D01*
X157784985Y-80418483D01*
X158003176Y-80684350D01*
X158246367Y-80927541D01*
X158246372Y-80927545D01*
X158246373Y-80927546D01*
X158512240Y-81145737D01*
X158798213Y-81336818D01*
X158798222Y-81336823D01*
X158798224Y-81336824D01*
X159101530Y-81498945D01*
X159101532Y-81498945D01*
X159101538Y-81498949D01*
X159419295Y-81630568D01*
X159748422Y-81730408D01*
X160085750Y-81797507D01*
X160428031Y-81831218D01*
X160428034Y-81831218D01*
X160771966Y-81831218D01*
X160771969Y-81831218D01*
X161114250Y-81797507D01*
X161451578Y-81730408D01*
X161780705Y-81630568D01*
X162098462Y-81498949D01*
X162401787Y-81336818D01*
X162687760Y-81145737D01*
X162953627Y-80927546D01*
X163196828Y-80684345D01*
X163415019Y-80418478D01*
X163606100Y-80132505D01*
X163768231Y-79829180D01*
X163899850Y-79511423D01*
X163999690Y-79182296D01*
X164066789Y-78844968D01*
X164100500Y-78502687D01*
X164100500Y-78158749D01*
X164066789Y-77816468D01*
X163999690Y-77479140D01*
X163899850Y-77150013D01*
X163768231Y-76832256D01*
X163606100Y-76528931D01*
X163415019Y-76242958D01*
X163196828Y-75977091D01*
X163196827Y-75977090D01*
X163196823Y-75977085D01*
X162953632Y-75733894D01*
X162687765Y-75515703D01*
X162687764Y-75515702D01*
X162687760Y-75515699D01*
X162401787Y-75324618D01*
X162401782Y-75324615D01*
X162401775Y-75324611D01*
X162098469Y-75162490D01*
X162098464Y-75162488D01*
X161780706Y-75030868D01*
X161451572Y-74931026D01*
X161114248Y-74863928D01*
X161114249Y-74863928D01*
X160856456Y-74838539D01*
X160771969Y-74830218D01*
X160428031Y-74830218D01*
X160349966Y-74837906D01*
X160085750Y-74863928D01*
X159748427Y-74931026D01*
X159419293Y-75030868D01*
X159101535Y-75162488D01*
X159101530Y-75162490D01*
X158798224Y-75324611D01*
X158798206Y-75324622D01*
X158512248Y-75515693D01*
X158512234Y-75515703D01*
X158246367Y-75733894D01*
X158003176Y-75977085D01*
X157784985Y-76242952D01*
X157784975Y-76242966D01*
X157593904Y-76528924D01*
X157593893Y-76528942D01*
X157431772Y-76832248D01*
X157431770Y-76832253D01*
X157300150Y-77150011D01*
X157200308Y-77479145D01*
X157133210Y-77816468D01*
X157099500Y-78158752D01*
X118526810Y-78158752D01*
X118526810Y-77199985D01*
X121650000Y-77199985D01*
X121660493Y-77302689D01*
X121660494Y-77302696D01*
X121715641Y-77469118D01*
X121715643Y-77469123D01*
X121807684Y-77618344D01*
X121931655Y-77742315D01*
X122080876Y-77834356D01*
X122080881Y-77834358D01*
X122247303Y-77889505D01*
X122247310Y-77889506D01*
X122350014Y-77899999D01*
X122350027Y-77900000D01*
X123000000Y-77900000D01*
X124000000Y-77900000D01*
X124649973Y-77900000D01*
X124649985Y-77899999D01*
X124752689Y-77889506D01*
X124752696Y-77889505D01*
X124919118Y-77834358D01*
X124919123Y-77834356D01*
X125068344Y-77742315D01*
X125192315Y-77618344D01*
X125284356Y-77469123D01*
X125284358Y-77469118D01*
X125339505Y-77302696D01*
X125339506Y-77302689D01*
X125349999Y-77199985D01*
X125350000Y-77199972D01*
X125350000Y-76250000D01*
X125860367Y-76250000D01*
X125881653Y-76411687D01*
X125944421Y-76645939D01*
X126037220Y-76869978D01*
X126037227Y-76869993D01*
X126158480Y-77080009D01*
X126306110Y-77272405D01*
X126306116Y-77272412D01*
X126477587Y-77443883D01*
X126477594Y-77443889D01*
X126669990Y-77591519D01*
X126880006Y-77712772D01*
X126880016Y-77712776D01*
X127104051Y-77805575D01*
X127104061Y-77805578D01*
X127199999Y-77831284D01*
X127200000Y-77831284D01*
X128200000Y-77831284D01*
X128295938Y-77805578D01*
X128295948Y-77805575D01*
X128519983Y-77712776D01*
X128519993Y-77712772D01*
X128730009Y-77591519D01*
X128922405Y-77443889D01*
X128922412Y-77443883D01*
X129093883Y-77272412D01*
X129093889Y-77272405D01*
X129149459Y-77199985D01*
X138150000Y-77199985D01*
X138160493Y-77302689D01*
X138160494Y-77302696D01*
X138215641Y-77469118D01*
X138215643Y-77469123D01*
X138307684Y-77618344D01*
X138431655Y-77742315D01*
X138580876Y-77834356D01*
X138580881Y-77834358D01*
X138747303Y-77889505D01*
X138747310Y-77889506D01*
X138850014Y-77899999D01*
X138850027Y-77900000D01*
X139500000Y-77900000D01*
X140500000Y-77900000D01*
X141149973Y-77900000D01*
X141149985Y-77899999D01*
X141252689Y-77889506D01*
X141252696Y-77889505D01*
X141419118Y-77834358D01*
X141419123Y-77834356D01*
X141568344Y-77742315D01*
X141692315Y-77618344D01*
X141784356Y-77469123D01*
X141784358Y-77469118D01*
X141839505Y-77302696D01*
X141839506Y-77302689D01*
X141849999Y-77199985D01*
X141850000Y-77199972D01*
X141850000Y-76250000D01*
X140500000Y-76250000D01*
X140500000Y-77900000D01*
X139500000Y-77900000D01*
X139500000Y-76250000D01*
X138150000Y-76250000D01*
X138150000Y-77199985D01*
X129149459Y-77199985D01*
X129241519Y-77080009D01*
X129362772Y-76869993D01*
X129362779Y-76869978D01*
X129455578Y-76645939D01*
X129518346Y-76411687D01*
X129539633Y-76250000D01*
X128200000Y-76250000D01*
X128200000Y-77831284D01*
X127200000Y-77831284D01*
X127200000Y-76250000D01*
X125860367Y-76250000D01*
X125350000Y-76250000D01*
X124000000Y-76250000D01*
X124000000Y-77900000D01*
X123000000Y-77900000D01*
X123000000Y-76250000D01*
X121650000Y-76250000D01*
X121650000Y-77199985D01*
X118526810Y-77199985D01*
X118526810Y-75681056D01*
X122800000Y-75681056D01*
X122800000Y-75818944D01*
X122826901Y-75954182D01*
X122879668Y-76081574D01*
X122956274Y-76196224D01*
X123053776Y-76293726D01*
X123168426Y-76370332D01*
X123295818Y-76423099D01*
X123431056Y-76450000D01*
X123568944Y-76450000D01*
X123704182Y-76423099D01*
X123831574Y-76370332D01*
X123946224Y-76293726D01*
X124043726Y-76196224D01*
X124120332Y-76081574D01*
X124173099Y-75954182D01*
X124200000Y-75818944D01*
X124200000Y-75681056D01*
X127000000Y-75681056D01*
X127000000Y-75818944D01*
X127026901Y-75954182D01*
X127079668Y-76081574D01*
X127156274Y-76196224D01*
X127253776Y-76293726D01*
X127368426Y-76370332D01*
X127495818Y-76423099D01*
X127631056Y-76450000D01*
X127768944Y-76450000D01*
X127904182Y-76423099D01*
X128031574Y-76370332D01*
X128146224Y-76293726D01*
X128243726Y-76196224D01*
X128320332Y-76081574D01*
X128373099Y-75954182D01*
X128400000Y-75818944D01*
X128400000Y-75681056D01*
X139300000Y-75681056D01*
X139300000Y-75818944D01*
X139326901Y-75954182D01*
X139379668Y-76081574D01*
X139456274Y-76196224D01*
X139553776Y-76293726D01*
X139668426Y-76370332D01*
X139795818Y-76423099D01*
X139931056Y-76450000D01*
X140068944Y-76450000D01*
X140204182Y-76423099D01*
X140331574Y-76370332D01*
X140446224Y-76293726D01*
X140543726Y-76196224D01*
X140620332Y-76081574D01*
X140673099Y-75954182D01*
X140700000Y-75818944D01*
X140700000Y-75681056D01*
X140673099Y-75545818D01*
X140620332Y-75418426D01*
X140543726Y-75303776D01*
X140489950Y-75250000D01*
X140500000Y-75250000D01*
X141850000Y-75250000D01*
X141850000Y-74412716D01*
X173465329Y-74412716D01*
X173465329Y-74805717D01*
X173499580Y-75197212D01*
X173499580Y-75197216D01*
X173567820Y-75584222D01*
X173567822Y-75584232D01*
X173669536Y-75963833D01*
X173669537Y-75963835D01*
X173669537Y-75963836D01*
X173803953Y-76333138D01*
X173970024Y-76689279D01*
X173970036Y-76689303D01*
X174166524Y-77029629D01*
X174166533Y-77029644D01*
X174391944Y-77351564D01*
X174498994Y-77479140D01*
X174644551Y-77652608D01*
X174922438Y-77930495D01*
X175029567Y-78020387D01*
X175223481Y-78183101D01*
X175223487Y-78183105D01*
X175223488Y-78183106D01*
X175545408Y-78408517D01*
X175885749Y-78605013D01*
X175885763Y-78605019D01*
X175885766Y-78605021D01*
X176241907Y-78771092D01*
X176241912Y-78771093D01*
X176241921Y-78771098D01*
X176611213Y-78905510D01*
X176990814Y-79007224D01*
X177377836Y-79075466D01*
X177769331Y-79109716D01*
X177769332Y-79109717D01*
X177769333Y-79109717D01*
X178162326Y-79109717D01*
X178162326Y-79109716D01*
X178553822Y-79075466D01*
X178940844Y-79007224D01*
X179320445Y-78905510D01*
X179689737Y-78771098D01*
X180045909Y-78605013D01*
X180386250Y-78408517D01*
X180708170Y-78183106D01*
X180737194Y-78158752D01*
X192817449Y-78158752D01*
X192817449Y-78502683D01*
X192851159Y-78844967D01*
X192918257Y-79182290D01*
X193018099Y-79511424D01*
X193149719Y-79829182D01*
X193149721Y-79829187D01*
X193311842Y-80132493D01*
X193311853Y-80132511D01*
X193502924Y-80418469D01*
X193502934Y-80418483D01*
X193721125Y-80684350D01*
X193964316Y-80927541D01*
X193964321Y-80927545D01*
X193964322Y-80927546D01*
X194230189Y-81145737D01*
X194516162Y-81336818D01*
X194516171Y-81336823D01*
X194516173Y-81336824D01*
X194819479Y-81498945D01*
X194819481Y-81498945D01*
X194819487Y-81498949D01*
X195137244Y-81630568D01*
X195466371Y-81730408D01*
X195803699Y-81797507D01*
X196145980Y-81831218D01*
X196145983Y-81831218D01*
X196489915Y-81831218D01*
X196489918Y-81831218D01*
X196832199Y-81797507D01*
X197169527Y-81730408D01*
X197498654Y-81630568D01*
X197816411Y-81498949D01*
X198119736Y-81336818D01*
X198405709Y-81145737D01*
X198671576Y-80927546D01*
X198914777Y-80684345D01*
X199132968Y-80418478D01*
X199324049Y-80132505D01*
X199486180Y-79829180D01*
X199617799Y-79511423D01*
X199717639Y-79182296D01*
X199784738Y-78844968D01*
X199818449Y-78502687D01*
X199818449Y-78158749D01*
X199784738Y-77816468D01*
X199717639Y-77479140D01*
X199617799Y-77150013D01*
X199486180Y-76832256D01*
X199324049Y-76528931D01*
X199132968Y-76242958D01*
X198914777Y-75977091D01*
X198914776Y-75977090D01*
X198914772Y-75977085D01*
X198671581Y-75733894D01*
X198405714Y-75515703D01*
X198405713Y-75515702D01*
X198405709Y-75515699D01*
X198119736Y-75324618D01*
X198119731Y-75324615D01*
X198119724Y-75324611D01*
X197816418Y-75162490D01*
X197816413Y-75162488D01*
X197498655Y-75030868D01*
X197169521Y-74931026D01*
X196832197Y-74863928D01*
X196832198Y-74863928D01*
X196574405Y-74838539D01*
X196489918Y-74830218D01*
X196145980Y-74830218D01*
X196067915Y-74837906D01*
X195803699Y-74863928D01*
X195466376Y-74931026D01*
X195137242Y-75030868D01*
X194819484Y-75162488D01*
X194819479Y-75162490D01*
X194516173Y-75324611D01*
X194516155Y-75324622D01*
X194230197Y-75515693D01*
X194230183Y-75515703D01*
X193964316Y-75733894D01*
X193721125Y-75977085D01*
X193502934Y-76242952D01*
X193502924Y-76242966D01*
X193311853Y-76528924D01*
X193311842Y-76528942D01*
X193149721Y-76832248D01*
X193149719Y-76832253D01*
X193018099Y-77150011D01*
X192918257Y-77479145D01*
X192851159Y-77816468D01*
X192817449Y-78158752D01*
X180737194Y-78158752D01*
X181009220Y-77930495D01*
X181287107Y-77652608D01*
X181539718Y-77351558D01*
X181765129Y-77029638D01*
X181961625Y-76689297D01*
X182127710Y-76333125D01*
X182262122Y-75963833D01*
X182363836Y-75584232D01*
X182432078Y-75197210D01*
X182466329Y-74805713D01*
X182466329Y-74412721D01*
X182466329Y-74412716D01*
X209183278Y-74412716D01*
X209183278Y-74805717D01*
X209217529Y-75197212D01*
X209217529Y-75197216D01*
X209285769Y-75584222D01*
X209285771Y-75584232D01*
X209387485Y-75963833D01*
X209387486Y-75963835D01*
X209387486Y-75963836D01*
X209521902Y-76333138D01*
X209687973Y-76689279D01*
X209687985Y-76689303D01*
X209884473Y-77029629D01*
X209884482Y-77029644D01*
X210109893Y-77351564D01*
X210216943Y-77479140D01*
X210362500Y-77652608D01*
X210640387Y-77930495D01*
X210747516Y-78020387D01*
X210941430Y-78183101D01*
X210941436Y-78183105D01*
X210941437Y-78183106D01*
X211263357Y-78408517D01*
X211603698Y-78605013D01*
X211603712Y-78605019D01*
X211603715Y-78605021D01*
X211959856Y-78771092D01*
X211959861Y-78771093D01*
X211959870Y-78771098D01*
X212329162Y-78905510D01*
X212708763Y-79007224D01*
X213095785Y-79075466D01*
X213487280Y-79109716D01*
X213487281Y-79109717D01*
X213487282Y-79109717D01*
X213880275Y-79109717D01*
X213880275Y-79109716D01*
X214271771Y-79075466D01*
X214658793Y-79007224D01*
X215038394Y-78905510D01*
X215407686Y-78771098D01*
X215763858Y-78605013D01*
X216104199Y-78408517D01*
X216426119Y-78183106D01*
X216727169Y-77930495D01*
X217005056Y-77652608D01*
X217257667Y-77351558D01*
X217483078Y-77029638D01*
X217679574Y-76689297D01*
X217845659Y-76333125D01*
X217980071Y-75963833D01*
X218081785Y-75584232D01*
X218150027Y-75197210D01*
X218184278Y-74805713D01*
X218184278Y-74412721D01*
X218150027Y-74021224D01*
X218081785Y-73634202D01*
X217980071Y-73254601D01*
X217845659Y-72885309D01*
X217845654Y-72885300D01*
X217845653Y-72885295D01*
X217679582Y-72529154D01*
X217679570Y-72529130D01*
X217640629Y-72461682D01*
X217483078Y-72188796D01*
X217257667Y-71866876D01*
X217257666Y-71866875D01*
X217257662Y-71866869D01*
X217029951Y-71595495D01*
X217005056Y-71565826D01*
X216727169Y-71287939D01*
X216653115Y-71225800D01*
X216426125Y-71035332D01*
X216104205Y-70809921D01*
X216104202Y-70809919D01*
X216104199Y-70809917D01*
X216003083Y-70751537D01*
X215763864Y-70613424D01*
X215763840Y-70613412D01*
X215407699Y-70447341D01*
X215407688Y-70447337D01*
X215407686Y-70447336D01*
X215038394Y-70312924D01*
X214721387Y-70227982D01*
X214658794Y-70211210D01*
X214658783Y-70211208D01*
X214271775Y-70142968D01*
X213880278Y-70108717D01*
X213880274Y-70108717D01*
X213487282Y-70108717D01*
X213487277Y-70108717D01*
X213095782Y-70142968D01*
X213095778Y-70142968D01*
X212708772Y-70211208D01*
X212708761Y-70211210D01*
X212505333Y-70265719D01*
X212329162Y-70312924D01*
X212329159Y-70312925D01*
X212329158Y-70312925D01*
X211959856Y-70447341D01*
X211603715Y-70613412D01*
X211603691Y-70613424D01*
X211263365Y-70809912D01*
X211263350Y-70809921D01*
X210941430Y-71035332D01*
X210640384Y-71287941D01*
X210362502Y-71565823D01*
X210109893Y-71866869D01*
X209884482Y-72188789D01*
X209884473Y-72188804D01*
X209687985Y-72529130D01*
X209687973Y-72529154D01*
X209521902Y-72885295D01*
X209388593Y-73251557D01*
X209387485Y-73254601D01*
X209370119Y-73319413D01*
X209285771Y-73634200D01*
X209285769Y-73634211D01*
X209217529Y-74021217D01*
X209217529Y-74021221D01*
X209183278Y-74412716D01*
X182466329Y-74412716D01*
X182432078Y-74021224D01*
X182363836Y-73634202D01*
X182262122Y-73254601D01*
X182127710Y-72885309D01*
X182127705Y-72885300D01*
X182127704Y-72885295D01*
X181961633Y-72529154D01*
X181961621Y-72529130D01*
X181922680Y-72461682D01*
X181765129Y-72188796D01*
X181539718Y-71866876D01*
X181539717Y-71866875D01*
X181539713Y-71866869D01*
X181312002Y-71595495D01*
X181287107Y-71565826D01*
X181009220Y-71287939D01*
X180935166Y-71225800D01*
X180708176Y-71035332D01*
X180386256Y-70809921D01*
X180386253Y-70809919D01*
X180386250Y-70809917D01*
X180285134Y-70751537D01*
X180045915Y-70613424D01*
X180045891Y-70613412D01*
X179689750Y-70447341D01*
X179689739Y-70447337D01*
X179689737Y-70447336D01*
X179320445Y-70312924D01*
X179003438Y-70227982D01*
X178940845Y-70211210D01*
X178940834Y-70211208D01*
X178553826Y-70142968D01*
X178162329Y-70108717D01*
X178162325Y-70108717D01*
X177769333Y-70108717D01*
X177769328Y-70108717D01*
X177377833Y-70142968D01*
X177377829Y-70142968D01*
X176990823Y-70211208D01*
X176990812Y-70211210D01*
X176787384Y-70265719D01*
X176611213Y-70312924D01*
X176611210Y-70312925D01*
X176611209Y-70312925D01*
X176241907Y-70447341D01*
X175885766Y-70613412D01*
X175885742Y-70613424D01*
X175545416Y-70809912D01*
X175545401Y-70809921D01*
X175223481Y-71035332D01*
X174922435Y-71287941D01*
X174644553Y-71565823D01*
X174391944Y-71866869D01*
X174166533Y-72188789D01*
X174166524Y-72188804D01*
X173970036Y-72529130D01*
X173970024Y-72529154D01*
X173803953Y-72885295D01*
X173670644Y-73251557D01*
X173669536Y-73254601D01*
X173652170Y-73319413D01*
X173567822Y-73634200D01*
X173567820Y-73634211D01*
X173499580Y-74021217D01*
X173499580Y-74021221D01*
X173465329Y-74412716D01*
X141850000Y-74412716D01*
X141850000Y-74300027D01*
X141849999Y-74300014D01*
X141839506Y-74197310D01*
X141839505Y-74197303D01*
X141784358Y-74030881D01*
X141784356Y-74030876D01*
X141692315Y-73881655D01*
X141568344Y-73757684D01*
X141419123Y-73665643D01*
X141419118Y-73665641D01*
X141252696Y-73610494D01*
X141252689Y-73610493D01*
X141149985Y-73600000D01*
X140500000Y-73600000D01*
X140500000Y-75250000D01*
X140489950Y-75250000D01*
X140446224Y-75206274D01*
X140331574Y-75129668D01*
X140204182Y-75076901D01*
X140068944Y-75050000D01*
X139931056Y-75050000D01*
X139795818Y-75076901D01*
X139668426Y-75129668D01*
X139553776Y-75206274D01*
X139456274Y-75303776D01*
X139379668Y-75418426D01*
X139326901Y-75545818D01*
X139300000Y-75681056D01*
X128400000Y-75681056D01*
X128373099Y-75545818D01*
X128320332Y-75418426D01*
X128243726Y-75303776D01*
X128189950Y-75250000D01*
X128200000Y-75250000D01*
X129539633Y-75250000D01*
X129518346Y-75088312D01*
X129455578Y-74854060D01*
X129362779Y-74630021D01*
X129362772Y-74630006D01*
X129241519Y-74419990D01*
X129204965Y-74372351D01*
X129149459Y-74300014D01*
X138150000Y-74300014D01*
X138150000Y-75250000D01*
X139500000Y-75250000D01*
X139500000Y-73600000D01*
X138850014Y-73600000D01*
X138747310Y-73610493D01*
X138747303Y-73610494D01*
X138580881Y-73665641D01*
X138580876Y-73665643D01*
X138431655Y-73757684D01*
X138307684Y-73881655D01*
X138215643Y-74030876D01*
X138215641Y-74030881D01*
X138160494Y-74197303D01*
X138160493Y-74197310D01*
X138150000Y-74300014D01*
X129149459Y-74300014D01*
X129093889Y-74227594D01*
X129093883Y-74227587D01*
X128922412Y-74056116D01*
X128922405Y-74056110D01*
X128730009Y-73908480D01*
X128519993Y-73787227D01*
X128519978Y-73787220D01*
X128295939Y-73694421D01*
X128200000Y-73668714D01*
X128200000Y-75250000D01*
X128189950Y-75250000D01*
X128146224Y-75206274D01*
X128031574Y-75129668D01*
X127904182Y-75076901D01*
X127768944Y-75050000D01*
X127631056Y-75050000D01*
X127495818Y-75076901D01*
X127368426Y-75129668D01*
X127253776Y-75206274D01*
X127156274Y-75303776D01*
X127079668Y-75418426D01*
X127026901Y-75545818D01*
X127000000Y-75681056D01*
X124200000Y-75681056D01*
X124173099Y-75545818D01*
X124120332Y-75418426D01*
X124043726Y-75303776D01*
X123989950Y-75250000D01*
X124000000Y-75250000D01*
X125350000Y-75250000D01*
X125860366Y-75250000D01*
X127200000Y-75250000D01*
X127200000Y-73668714D01*
X127199999Y-73668714D01*
X127104060Y-73694421D01*
X126880021Y-73787220D01*
X126880006Y-73787227D01*
X126669990Y-73908480D01*
X126477594Y-74056110D01*
X126477587Y-74056116D01*
X126306116Y-74227587D01*
X126306110Y-74227594D01*
X126158480Y-74419990D01*
X126037227Y-74630006D01*
X126037220Y-74630021D01*
X125944421Y-74854060D01*
X125881653Y-75088312D01*
X125860366Y-75250000D01*
X125350000Y-75250000D01*
X125350000Y-74300027D01*
X125349999Y-74300014D01*
X125339506Y-74197310D01*
X125339505Y-74197303D01*
X125284358Y-74030881D01*
X125284356Y-74030876D01*
X125192315Y-73881655D01*
X125068344Y-73757684D01*
X124919123Y-73665643D01*
X124919118Y-73665641D01*
X124752696Y-73610494D01*
X124752689Y-73610493D01*
X124649985Y-73600000D01*
X124000000Y-73600000D01*
X124000000Y-75250000D01*
X123989950Y-75250000D01*
X123946224Y-75206274D01*
X123831574Y-75129668D01*
X123704182Y-75076901D01*
X123568944Y-75050000D01*
X123431056Y-75050000D01*
X123295818Y-75076901D01*
X123168426Y-75129668D01*
X123053776Y-75206274D01*
X122956274Y-75303776D01*
X122879668Y-75418426D01*
X122826901Y-75545818D01*
X122800000Y-75681056D01*
X118526810Y-75681056D01*
X118526810Y-74300014D01*
X121650000Y-74300014D01*
X121650000Y-75250000D01*
X123000000Y-75250000D01*
X123000000Y-73600000D01*
X122350014Y-73600000D01*
X122247310Y-73610493D01*
X122247303Y-73610494D01*
X122080881Y-73665641D01*
X122080876Y-73665643D01*
X121931655Y-73757684D01*
X121807684Y-73881655D01*
X121715643Y-74030876D01*
X121715641Y-74030881D01*
X121660494Y-74197303D01*
X121660493Y-74197310D01*
X121650000Y-74300014D01*
X118526810Y-74300014D01*
X118526810Y-72602706D01*
X118526928Y-72597297D01*
X118529687Y-72534108D01*
X118543696Y-72213226D01*
X118544636Y-72202495D01*
X118594462Y-71824026D01*
X118596335Y-71813406D01*
X118678959Y-71440710D01*
X118681750Y-71430296D01*
X118796539Y-71066229D01*
X118800227Y-71056097D01*
X118946313Y-70703414D01*
X118950871Y-70693640D01*
X119127143Y-70355026D01*
X119132519Y-70345715D01*
X119337637Y-70023745D01*
X119343821Y-70014913D01*
X119576206Y-69712064D01*
X119583144Y-69703795D01*
X119841036Y-69422356D01*
X119848662Y-69414730D01*
X120130101Y-69156838D01*
X120138370Y-69149900D01*
X120441214Y-68917520D01*
X120450054Y-68911330D01*
X120772010Y-68706222D01*
X120781364Y-68700823D01*
X121119950Y-68524566D01*
X121129719Y-68520010D01*
X121482414Y-68373920D01*
X121492528Y-68370239D01*
X121856605Y-68255447D01*
X121867019Y-68252656D01*
X122239719Y-68170032D01*
X122250330Y-68168161D01*
X122628805Y-68118334D01*
X122639535Y-68117395D01*
X122907693Y-68105688D01*
X123023845Y-68100618D01*
X123029253Y-68100500D01*
X123092201Y-68100500D01*
X147140995Y-68100500D01*
X147208034Y-68120185D01*
G37*
%TD.AperFunction*%
%TD*%
M02*
