%TF.GenerationSoftware,KiCad,Pcbnew,9.0.4*%
%TF.CreationDate,2026-03-12T13:52:19-04:00*%
%TF.ProjectId,Power Amp Board,506f7765-7220-4416-9d70-20426f617264,rev?*%
%TF.SameCoordinates,Original*%
%TF.FileFunction,Copper,L1,Top*%
%TF.FilePolarity,Positive*%
%FSLAX46Y46*%
G04 Gerber Fmt 4.6, Leading zero omitted, Abs format (unit mm)*
G04 Created by KiCad (PCBNEW 9.0.4) date 2026-03-12 13:52:19*
%MOMM*%
%LPD*%
G01*
G04 APERTURE LIST*
G04 Aperture macros list*
%AMRoundRect*
0 Rectangle with rounded corners*
0 $1 Rounding radius*
0 $2 $3 $4 $5 $6 $7 $8 $9 X,Y pos of 4 corners*
0 Add a 4 corners polygon primitive as box body*
4,1,4,$2,$3,$4,$5,$6,$7,$8,$9,$2,$3,0*
0 Add four circle primitives for the rounded corners*
1,1,$1+$1,$2,$3*
1,1,$1+$1,$4,$5*
1,1,$1+$1,$6,$7*
1,1,$1+$1,$8,$9*
0 Add four rect primitives between the rounded corners*
20,1,$1+$1,$2,$3,$4,$5,0*
20,1,$1+$1,$4,$5,$6,$7,0*
20,1,$1+$1,$6,$7,$8,$9,0*
20,1,$1+$1,$8,$9,$2,$3,0*%
%AMHorizOval*
0 Thick line with rounded ends*
0 $1 width*
0 $2 $3 position (X,Y) of the first rounded end (center of the circle)*
0 $4 $5 position (X,Y) of the second rounded end (center of the circle)*
0 Add line between two ends*
20,1,$1,$2,$3,$4,$5,0*
0 Add two circle primitives to create the rounded ends*
1,1,$1,$2,$3*
1,1,$1,$4,$5*%
G04 Aperture macros list end*
%TA.AperFunction,SMDPad,CuDef*%
%ADD10RoundRect,0.200000X-0.275000X0.200000X-0.275000X-0.200000X0.275000X-0.200000X0.275000X0.200000X0*%
%TD*%
%TA.AperFunction,ComponentPad*%
%ADD11RoundRect,0.250001X1.099999X1.399999X-1.099999X1.399999X-1.099999X-1.399999X1.099999X-1.399999X0*%
%TD*%
%TA.AperFunction,ComponentPad*%
%ADD12O,2.700000X3.300000*%
%TD*%
%TA.AperFunction,ComponentPad*%
%ADD13RoundRect,0.250002X-1.599998X-1.599998X1.599998X-1.599998X1.599998X1.599998X-1.599998X1.599998X0*%
%TD*%
%TA.AperFunction,ComponentPad*%
%ADD14C,3.700000*%
%TD*%
%TA.AperFunction,SMDPad,CuDef*%
%ADD15RoundRect,0.250000X-0.794955X1.236963X-1.289403X0.706732X0.794955X-1.236963X1.289403X-0.706732X0*%
%TD*%
%TA.AperFunction,SMDPad,CuDef*%
%ADD16RoundRect,0.250000X-0.325000X-0.650000X0.325000X-0.650000X0.325000X0.650000X-0.325000X0.650000X0*%
%TD*%
%TA.AperFunction,SMDPad,CuDef*%
%ADD17RoundRect,0.225000X-0.250000X0.225000X-0.250000X-0.225000X0.250000X-0.225000X0.250000X0.225000X0*%
%TD*%
%TA.AperFunction,SMDPad,CuDef*%
%ADD18RoundRect,0.150000X-0.200000X0.150000X-0.200000X-0.150000X0.200000X-0.150000X0.200000X0.150000X0*%
%TD*%
%TA.AperFunction,SMDPad,CuDef*%
%ADD19R,0.457200X1.524000*%
%TD*%
%TA.AperFunction,SMDPad,CuDef*%
%ADD20RoundRect,0.200000X0.200000X0.275000X-0.200000X0.275000X-0.200000X-0.275000X0.200000X-0.275000X0*%
%TD*%
%TA.AperFunction,SMDPad,CuDef*%
%ADD21RoundRect,0.250000X1.250649X0.773246X0.729128X1.276873X-1.250649X-0.773246X-0.729128X-1.276873X0*%
%TD*%
%TA.AperFunction,SMDPad,CuDef*%
%ADD22RoundRect,0.225000X0.225000X0.250000X-0.225000X0.250000X-0.225000X-0.250000X0.225000X-0.250000X0*%
%TD*%
%TA.AperFunction,SMDPad,CuDef*%
%ADD23RoundRect,0.200000X0.275000X-0.200000X0.275000X0.200000X-0.275000X0.200000X-0.275000X-0.200000X0*%
%TD*%
%TA.AperFunction,SMDPad,CuDef*%
%ADD24RoundRect,0.250000X0.794955X-1.236963X1.289403X-0.706732X-0.794955X1.236963X-1.289403X0.706732X0*%
%TD*%
%TA.AperFunction,SMDPad,CuDef*%
%ADD25RoundRect,0.250000X0.325000X0.650000X-0.325000X0.650000X-0.325000X-0.650000X0.325000X-0.650000X0*%
%TD*%
%TA.AperFunction,ComponentPad*%
%ADD26R,1.500000X1.050000*%
%TD*%
%TA.AperFunction,ComponentPad*%
%ADD27O,1.500000X1.050000*%
%TD*%
%TA.AperFunction,ComponentPad*%
%ADD28RoundRect,0.250001X0.212132X-1.767766X1.767766X-0.212132X-0.212132X1.767766X-1.767766X0.212132X0*%
%TD*%
%TA.AperFunction,ComponentPad*%
%ADD29HorizOval,2.700000X-0.212132X0.212132X0.212132X-0.212132X0*%
%TD*%
%TA.AperFunction,SMDPad,CuDef*%
%ADD30RoundRect,0.250000X-1.250649X-0.773246X-0.729128X-1.276873X1.250649X0.773246X0.729128X1.276873X0*%
%TD*%
%TA.AperFunction,ComponentPad*%
%ADD31C,7.000000*%
%TD*%
%TA.AperFunction,ComponentPad*%
%ADD32C,5.000000*%
%TD*%
%TA.AperFunction,ViaPad*%
%ADD33C,0.700000*%
%TD*%
%TA.AperFunction,Conductor*%
%ADD34C,0.400000*%
%TD*%
%TA.AperFunction,Conductor*%
%ADD35C,0.800000*%
%TD*%
G04 APERTURE END LIST*
D10*
%TO.P,R6,1*%
%TO.N,Net-(D2-K)*%
X129440000Y-102295000D03*
%TO.P,R6,2*%
%TO.N,-24V*%
X129440000Y-103945000D03*
%TD*%
D11*
%TO.P,J2,1,Pin_1*%
%TO.N,/audio_in+*%
X140000000Y-82200000D03*
D12*
%TO.P,J2,2,Pin_2*%
%TO.N,GND*%
X140000000Y-76700000D03*
%TD*%
D10*
%TO.P,R5,1*%
%TO.N,24V*%
X129440000Y-91670000D03*
%TO.P,R5,2*%
%TO.N,Net-(D1-A)*%
X129440000Y-93320000D03*
%TD*%
D13*
%TO.P,J1,1,Pin_1*%
%TO.N,24V*%
X126500000Y-113500000D03*
D14*
%TO.P,J1,2,Pin_2*%
%TO.N,-24V*%
X132200000Y-113500000D03*
%TO.P,J1,3,Pin_3*%
%TO.N,GND*%
X126500000Y-119200000D03*
%TO.P,J1,4,Pin_4*%
X132200000Y-119200000D03*
%TD*%
D15*
%TO.P,R9,1*%
%TO.N,24V*%
X191846729Y-71800000D03*
%TO.P,R9,2*%
%TO.N,Net-(Q3-E)*%
X187805891Y-76133272D03*
%TD*%
D11*
%TO.P,P1,1,H*%
%TO.N,/buffer*%
X127800000Y-82200000D03*
D12*
%TO.P,P1,2,W*%
%TO.N,/post_pot*%
X123600000Y-82200000D03*
%TO.P,P1,3,L*%
%TO.N,GND*%
X127800000Y-76700000D03*
%TO.P,P1,4,GND*%
X123600000Y-76700000D03*
%TD*%
D16*
%TO.P,C5,1*%
%TO.N,24V*%
X123625000Y-107800000D03*
%TO.P,C5,2*%
%TO.N,GND*%
X126575000Y-107800000D03*
%TD*%
D17*
%TO.P,C1,1*%
%TO.N,Net-(Q1-C)*%
X137040000Y-91720000D03*
%TO.P,C1,2*%
%TO.N,Net-(D1-A)*%
X137040000Y-93270000D03*
%TD*%
D18*
%TO.P,D1,1,K*%
%TO.N,/out2*%
X129440000Y-96390000D03*
%TO.P,D1,2,A*%
%TO.N,Net-(D1-A)*%
X129440000Y-94990000D03*
%TD*%
D19*
%TO.P,U1,1,OUTA*%
%TO.N,/out1*%
X124774999Y-91828300D03*
%TO.P,U1,2,INA-*%
%TO.N,Net-(U1-INA-)*%
X124125001Y-91828300D03*
%TO.P,U1,3,INA+*%
%TO.N,/post_pot*%
X123474999Y-91828300D03*
%TO.P,U1,4,V-*%
%TO.N,24V*%
X122825001Y-91828300D03*
%TO.P,U1,5,INB+*%
%TO.N,/out1*%
X122825001Y-96171700D03*
%TO.P,U1,6,INB-*%
%TO.N,Net-(U1-INB-)*%
X123474999Y-96171700D03*
%TO.P,U1,7,OUTB*%
%TO.N,/out2*%
X124125001Y-96171700D03*
%TO.P,U1,8,V+*%
%TO.N,-24V*%
X124774999Y-96171700D03*
%TD*%
D20*
%TO.P,R3,1*%
%TO.N,/out2*%
X123776472Y-98525483D03*
%TO.P,R3,2*%
%TO.N,Net-(U1-INB-)*%
X122126472Y-98525483D03*
%TD*%
D10*
%TO.P,R8,1*%
%TO.N,/audio_out+*%
X137040000Y-98895000D03*
%TO.P,R8,2*%
%TO.N,Net-(Q2-E)*%
X137040000Y-100545000D03*
%TD*%
D21*
%TO.P,R12,1*%
%TO.N,Net-(Q6-E)*%
X215757353Y-110257926D03*
%TO.P,R12,2*%
%TO.N,-24V*%
X211495267Y-106142074D03*
%TD*%
D22*
%TO.P,C3,1*%
%TO.N,/audio_in+*%
X138775000Y-86400000D03*
%TO.P,C3,2*%
%TO.N,Net-(U2-INA+)*%
X137225000Y-86400000D03*
%TD*%
D17*
%TO.P,C2,1*%
%TO.N,Net-(D2-K)*%
X137040000Y-102345000D03*
%TO.P,C2,2*%
%TO.N,Net-(Q2-C)*%
X137040000Y-103895000D03*
%TD*%
D23*
%TO.P,R2,1*%
%TO.N,GND*%
X120440000Y-94720000D03*
%TO.P,R2,2*%
%TO.N,Net-(U1-INA-)*%
X120440000Y-93070000D03*
%TD*%
D24*
%TO.P,R10,1*%
%TO.N,24V*%
X211426311Y-90200000D03*
%TO.P,R10,2*%
%TO.N,Net-(Q5-E)*%
X215467149Y-85866728D03*
%TD*%
D10*
%TO.P,R7,1*%
%TO.N,Net-(Q1-E)*%
X137040000Y-95095000D03*
%TO.P,R7,2*%
%TO.N,/audio_out+*%
X137040000Y-96745000D03*
%TD*%
D18*
%TO.P,D2,1,K*%
%TO.N,Net-(D2-K)*%
X129440000Y-100605000D03*
%TO.P,D2,2,A*%
%TO.N,/out2*%
X129440000Y-99205000D03*
%TD*%
D20*
%TO.P,R1,1*%
%TO.N,/out1*%
X126039214Y-89474517D03*
%TO.P,R1,2*%
%TO.N,Net-(U1-INA-)*%
X124389214Y-89474517D03*
%TD*%
D10*
%TO.P,R4,1*%
%TO.N,GND*%
X127240000Y-93070000D03*
%TO.P,R4,2*%
%TO.N,Net-(U1-INB-)*%
X127240000Y-94720000D03*
%TD*%
D25*
%TO.P,C4,1*%
%TO.N,-24V*%
X134975000Y-107800000D03*
%TO.P,C4,2*%
%TO.N,GND*%
X132025000Y-107800000D03*
%TD*%
D19*
%TO.P,U2,1,OUTA*%
%TO.N,/buffer*%
X132825001Y-88771700D03*
%TO.P,U2,2,INA-*%
X133474999Y-88771700D03*
%TO.P,U2,3,INA+*%
%TO.N,Net-(U2-INA+)*%
X134125001Y-88771700D03*
%TO.P,U2,4,V-*%
%TO.N,24V*%
X134774999Y-88771700D03*
%TO.P,U2,5,INB+*%
%TO.N,unconnected-(U2-INB+-Pad5)*%
X134774999Y-84428300D03*
%TO.P,U2,6,INB-*%
%TO.N,unconnected-(U2-INB--Pad6)*%
X134125001Y-84428300D03*
%TO.P,U2,7,OUTB*%
%TO.N,unconnected-(U2-OUTB-Pad7)*%
X133474999Y-84428300D03*
%TO.P,U2,8,V+*%
%TO.N,-24V*%
X132825001Y-84428300D03*
%TD*%
D26*
%TO.P,Q1,1,C*%
%TO.N,Net-(Q1-C)*%
X132880000Y-92475000D03*
D27*
%TO.P,Q1,2,B*%
%TO.N,Net-(D1-A)*%
X132880000Y-93745000D03*
%TO.P,Q1,3,E*%
%TO.N,Net-(Q1-E)*%
X132880000Y-95015000D03*
%TD*%
D28*
%TO.P,J3,1,Pin_1*%
%TO.N,/audio_out+*%
X144328213Y-111701903D03*
D29*
%TO.P,J3,2,Pin_2*%
%TO.N,GND*%
X148217300Y-115590990D03*
%TD*%
D26*
%TO.P,Q2,1,C*%
%TO.N,Net-(Q2-C)*%
X133600000Y-103140000D03*
D27*
%TO.P,Q2,2,B*%
%TO.N,Net-(D2-K)*%
X133600000Y-101870000D03*
%TO.P,Q2,3,E*%
%TO.N,Net-(Q2-E)*%
X133600000Y-100600000D03*
%TD*%
D30*
%TO.P,R11,1*%
%TO.N,Net-(Q4-E)*%
X186619239Y-118142074D03*
%TO.P,R11,2*%
%TO.N,-24V*%
X190881325Y-122257926D03*
%TD*%
D31*
%TO.P,Q3,1,E*%
%TO.N,Net-(Q3-E)*%
X152342532Y-89813140D03*
X178409896Y-74763140D03*
D32*
%TO.P,Q3,2,B*%
%TO.N,Net-(Q1-C)*%
X164248361Y-76634641D03*
%TO.P,Q3,3,C*%
%TO.N,/audio_out+*%
X169708361Y-86091639D03*
%TD*%
D31*
%TO.P,Q4,1,E*%
%TO.N,Net-(Q4-E)*%
X178150088Y-120250000D03*
X152082724Y-105200000D03*
D32*
%TO.P,Q4,2,B*%
%TO.N,Net-(Q2-C)*%
X160784259Y-116528499D03*
%TO.P,Q4,3,C*%
%TO.N,/audio_out+*%
X166244259Y-107071501D03*
%TD*%
D31*
%TO.P,Q6,1,E*%
%TO.N,Net-(Q6-E)*%
X213868037Y-120250000D03*
X187800673Y-105200000D03*
D32*
%TO.P,Q6,2,B*%
%TO.N,Net-(Q2-C)*%
X196502208Y-116528499D03*
%TO.P,Q6,3,C*%
%TO.N,/audio_out+*%
X201962208Y-107071501D03*
%TD*%
D31*
%TO.P,Q5,1,E*%
%TO.N,Net-(Q5-E)*%
X188060481Y-89813140D03*
X214127845Y-74763140D03*
D32*
%TO.P,Q5,2,B*%
%TO.N,Net-(Q1-C)*%
X199966310Y-76634641D03*
%TO.P,Q5,3,C*%
%TO.N,/audio_out+*%
X205426310Y-86091639D03*
%TD*%
D33*
%TO.N,GND*%
X126640000Y-91895000D03*
X128400000Y-106400000D03*
X210800000Y-81000000D03*
X175600000Y-90000000D03*
X130000000Y-106400000D03*
X119800000Y-96600000D03*
X145000000Y-92200000D03*
X179600000Y-90000000D03*
X126600000Y-105400000D03*
X219200000Y-80800000D03*
X154800000Y-71200000D03*
X146200000Y-71200000D03*
X159800000Y-82600000D03*
X178600000Y-105000000D03*
X205600000Y-71600000D03*
X173800000Y-105000000D03*
X125400000Y-86200000D03*
X201600000Y-98000000D03*
X209000000Y-114600000D03*
X164000000Y-71400000D03*
X133040000Y-97695000D03*
X201200000Y-122000000D03*
X131800000Y-105400000D03*
%TO.N,-24V*%
X217600000Y-104200000D03*
X217600000Y-103200000D03*
X215600000Y-105200000D03*
X189000000Y-125800000D03*
X190000000Y-125800000D03*
X215600000Y-104200000D03*
X188000000Y-123800000D03*
X216600000Y-105200000D03*
X216600000Y-104200000D03*
X188000000Y-126800000D03*
X127640000Y-102895000D03*
X126440000Y-96695000D03*
X215600000Y-103200000D03*
X216600000Y-103200000D03*
X132200000Y-82600000D03*
X190000000Y-126800000D03*
X188000000Y-124800000D03*
X188000000Y-125800000D03*
X217600000Y-105200000D03*
X189000000Y-126800000D03*
X189000000Y-124800000D03*
%TO.N,24V*%
X135800000Y-90000000D03*
X218000000Y-91800000D03*
X217000000Y-92800000D03*
X188600000Y-70000000D03*
X187600000Y-69000000D03*
X189600000Y-70000000D03*
X216000000Y-92800000D03*
X190600000Y-69000000D03*
X121240000Y-90895000D03*
X187600000Y-71000000D03*
X188600000Y-69000000D03*
X216000000Y-91800000D03*
X218000000Y-90800000D03*
X128640000Y-90495000D03*
X216000000Y-90800000D03*
X217000000Y-91800000D03*
X217000000Y-90800000D03*
X188600000Y-71000000D03*
X218000000Y-92800000D03*
X187600000Y-70000000D03*
X189600000Y-69000000D03*
%TD*%
D34*
%TO.N,Net-(D1-A)*%
X129440000Y-94990000D02*
X129440000Y-93320000D01*
X130965000Y-93320000D02*
X129440000Y-93320000D01*
X132880000Y-93745000D02*
X136565000Y-93745000D01*
X132880000Y-93745000D02*
X131390000Y-93745000D01*
X136565000Y-93745000D02*
X137040000Y-93270000D01*
X131390000Y-93745000D02*
X130965000Y-93320000D01*
D35*
%TO.N,Net-(Q1-C)*%
X168213720Y-80600000D02*
X164248361Y-76634641D01*
D34*
X133635000Y-91720000D02*
X132880000Y-92475000D01*
D35*
X164248361Y-76634641D02*
X152125359Y-76634641D01*
X196000951Y-80600000D02*
X168213720Y-80600000D01*
X152125359Y-76634641D02*
X137040000Y-91720000D01*
D34*
X137040000Y-91720000D02*
X133635000Y-91720000D01*
D35*
X199966310Y-76634641D02*
X196000951Y-80600000D01*
D34*
%TO.N,Net-(Q2-C)*%
X134355000Y-103895000D02*
X133600000Y-103140000D01*
D35*
X196502208Y-116528499D02*
X192173709Y-112200000D01*
X165112758Y-112200000D02*
X160784259Y-116528499D01*
D34*
X137040000Y-103895000D02*
X134355000Y-103895000D01*
D35*
X160784259Y-116528499D02*
X154718717Y-122594041D01*
X147194041Y-122594041D02*
X137040000Y-112440000D01*
X192173709Y-112200000D02*
X165112758Y-112200000D01*
X137040000Y-112440000D02*
X137040000Y-103895000D01*
X154718717Y-122594041D02*
X147194041Y-122594041D01*
D34*
%TO.N,Net-(D2-K)*%
X129440000Y-102295000D02*
X129440000Y-100605000D01*
X136565000Y-101870000D02*
X133600000Y-101870000D01*
X129440000Y-102295000D02*
X130840000Y-102295000D01*
X131265000Y-101870000D02*
X133600000Y-101870000D01*
X130840000Y-102295000D02*
X131265000Y-101870000D01*
X137040000Y-102345000D02*
X136565000Y-101870000D01*
%TO.N,/audio_in+*%
X139400000Y-86400000D02*
X140000000Y-85800000D01*
X138775000Y-86400000D02*
X139400000Y-86400000D01*
X140000000Y-85800000D02*
X140000000Y-82200000D01*
%TO.N,GND*%
X127240000Y-92495000D02*
X126640000Y-91895000D01*
X127240000Y-93070000D02*
X127240000Y-92495000D01*
%TO.N,-24V*%
X132825001Y-84428300D02*
X132825001Y-83225001D01*
X125916700Y-96171700D02*
X126440000Y-96695000D01*
X124774999Y-96171700D02*
X125916700Y-96171700D01*
D35*
X134975000Y-107800000D02*
X134975000Y-110725000D01*
D34*
X128690000Y-103945000D02*
X127640000Y-102895000D01*
X129440000Y-103945000D02*
X128690000Y-103945000D01*
X132825001Y-83225001D02*
X132200000Y-82600000D01*
D35*
X134975000Y-110725000D02*
X132200000Y-113500000D01*
D34*
%TO.N,24V*%
X134774999Y-88974999D02*
X135800000Y-90000000D01*
X128640000Y-91295000D02*
X129015000Y-91670000D01*
X128640000Y-90495000D02*
X128640000Y-91295000D01*
X122825001Y-91828300D02*
X122173300Y-91828300D01*
D35*
X123625000Y-107800000D02*
X123625000Y-110625000D01*
D34*
X122173300Y-91828300D02*
X121240000Y-90895000D01*
X134774999Y-88771700D02*
X134774999Y-88974999D01*
X129015000Y-91670000D02*
X129440000Y-91670000D01*
D35*
X123625000Y-110625000D02*
X126500000Y-113500000D01*
D34*
%TO.N,/out2*%
X129440000Y-98695000D02*
X128640000Y-97895000D01*
X124125001Y-97613046D02*
X124406955Y-97895000D01*
X129440000Y-96390000D02*
X129440000Y-97095000D01*
X128640000Y-97895000D02*
X124406955Y-97895000D01*
X129440000Y-99205000D02*
X129440000Y-98695000D01*
X124406955Y-97895000D02*
X123776472Y-98525483D01*
X129440000Y-97095000D02*
X128640000Y-97895000D01*
X124125001Y-96171700D02*
X124125001Y-97613046D01*
%TO.N,/post_pot*%
X122840000Y-82960000D02*
X122840000Y-90095000D01*
X123600000Y-82200000D02*
X122840000Y-82960000D01*
X122840000Y-90095000D02*
X123474999Y-90729999D01*
X123474999Y-90729999D02*
X123474999Y-91828300D01*
%TO.N,Net-(Q1-E)*%
X132880000Y-95015000D02*
X136960000Y-95015000D01*
X136960000Y-95015000D02*
X137040000Y-95095000D01*
%TO.N,Net-(Q2-E)*%
X133600000Y-100600000D02*
X136985000Y-100600000D01*
X136985000Y-100600000D02*
X137040000Y-100545000D01*
D35*
%TO.N,/audio_out+*%
X157800000Y-98000000D02*
X157026310Y-98000000D01*
X201962208Y-107071501D02*
X192890707Y-98000000D01*
X192890707Y-98000000D02*
X192826310Y-98000000D01*
X138040000Y-97895000D02*
X137040000Y-98895000D01*
X157026310Y-98000000D02*
X145026310Y-98000000D01*
X137040000Y-96895000D02*
X137540000Y-97395000D01*
X137540000Y-97395000D02*
X138040000Y-97895000D01*
X137040000Y-96745000D02*
X137040000Y-96895000D01*
X138145000Y-98000000D02*
X143626310Y-98000000D01*
X166244259Y-107071501D02*
X157172758Y-98000000D01*
X193517949Y-98000000D02*
X192826310Y-98000000D01*
X169708361Y-86091639D02*
X157800000Y-98000000D01*
X138040000Y-97895000D02*
X138145000Y-98000000D01*
X144328213Y-98701903D02*
X144328213Y-98698097D01*
X157172758Y-98000000D02*
X157026310Y-98000000D01*
X144328213Y-98698097D02*
X145026310Y-98000000D01*
X192826310Y-98000000D02*
X157026310Y-98000000D01*
X144328213Y-111701903D02*
X144328213Y-98701903D01*
X145026310Y-98000000D02*
X143626310Y-98000000D01*
X205426310Y-86091639D02*
X193517949Y-98000000D01*
X144328213Y-98701903D02*
X143626310Y-98000000D01*
%TO.N,Net-(Q3-E)*%
X179780028Y-76133272D02*
X178409896Y-74763140D01*
X187805890Y-76133272D02*
X179780028Y-76133272D01*
%TO.N,Net-(Q4-E)*%
X180258014Y-118142074D02*
X178150088Y-120250000D01*
X186619239Y-118142074D02*
X180258014Y-118142074D01*
%TO.N,Net-(Q5-E)*%
X215467150Y-76102445D02*
X214127845Y-74763140D01*
X215467150Y-85866728D02*
X215467150Y-76102445D01*
%TO.N,Net-(Q6-E)*%
X215757353Y-110257926D02*
X215757353Y-118360684D01*
X215757353Y-118360684D02*
X213868037Y-120250000D01*
D34*
%TO.N,/out1*%
X126039214Y-89895786D02*
X124774999Y-91160001D01*
X124440000Y-93895000D02*
X124774999Y-93560001D01*
X124774999Y-93560001D02*
X124774999Y-91828300D01*
X122825001Y-96171700D02*
X122825001Y-94309999D01*
X123240000Y-93895000D02*
X124440000Y-93895000D01*
X124774999Y-91160001D02*
X124774999Y-91828300D01*
X122825001Y-94309999D02*
X123240000Y-93895000D01*
X126039214Y-89474517D02*
X126039214Y-89895786D01*
%TO.N,Net-(U1-INA-)*%
X120440000Y-93070000D02*
X124015058Y-93070000D01*
X124389214Y-89474517D02*
X124125001Y-89738730D01*
X124125001Y-92960057D02*
X124125001Y-91828300D01*
X124015058Y-93070000D02*
X124125001Y-92960057D01*
X124125001Y-89738730D02*
X124125001Y-91828300D01*
%TO.N,Net-(U1-INB-)*%
X123474999Y-97176956D02*
X123474999Y-96171700D01*
X122126472Y-98525483D02*
X123474999Y-97176956D01*
X123764699Y-94720000D02*
X123474999Y-95009700D01*
X127240000Y-94720000D02*
X123764699Y-94720000D01*
X123474999Y-95009700D02*
X123474999Y-96171700D01*
%TO.N,/buffer*%
X131371700Y-88771700D02*
X132825001Y-88771700D01*
X127800000Y-82200000D02*
X127800000Y-85200000D01*
X127800000Y-85200000D02*
X131371700Y-88771700D01*
X133474999Y-88771700D02*
X132825001Y-88771700D01*
%TO.N,Net-(U2-INA+)*%
X137225000Y-86400000D02*
X135334701Y-86400000D01*
X135334701Y-86400000D02*
X134125001Y-87609700D01*
X134125001Y-87609700D02*
X134125001Y-88771700D01*
%TD*%
%TA.AperFunction,Conductor*%
%TO.N,GND*%
G36*
X182543039Y-68120185D02*
G01*
X182588794Y-68172989D01*
X182600000Y-68224500D01*
X182600000Y-72556837D01*
X182580315Y-72623876D01*
X182527511Y-72669631D01*
X182458353Y-72679575D01*
X182394797Y-72650550D01*
X182368613Y-72618837D01*
X182325618Y-72544368D01*
X182209196Y-72342719D01*
X181983785Y-72020799D01*
X181983784Y-72020798D01*
X181983780Y-72020792D01*
X181731171Y-71719746D01*
X181453289Y-71441864D01*
X181451935Y-71440728D01*
X181381867Y-71381933D01*
X181152243Y-71189255D01*
X180830323Y-70963844D01*
X180830320Y-70963842D01*
X180830317Y-70963840D01*
X180729201Y-70905460D01*
X180489982Y-70767347D01*
X180489958Y-70767335D01*
X180133817Y-70601264D01*
X180133806Y-70601260D01*
X180133804Y-70601259D01*
X179764512Y-70466847D01*
X179523856Y-70402363D01*
X179384912Y-70365133D01*
X179384901Y-70365131D01*
X178997893Y-70296891D01*
X178606396Y-70262640D01*
X178606392Y-70262640D01*
X178213400Y-70262640D01*
X178213395Y-70262640D01*
X177821900Y-70296891D01*
X177821896Y-70296891D01*
X177434890Y-70365131D01*
X177434879Y-70365133D01*
X177231451Y-70419642D01*
X177055280Y-70466847D01*
X177055277Y-70466848D01*
X177055276Y-70466848D01*
X176685974Y-70601264D01*
X176329833Y-70767335D01*
X176329809Y-70767347D01*
X175989483Y-70963835D01*
X175989468Y-70963844D01*
X175667548Y-71189255D01*
X175366502Y-71441864D01*
X175088620Y-71719746D01*
X174836011Y-72020792D01*
X174610600Y-72342712D01*
X174610591Y-72342727D01*
X174414103Y-72683053D01*
X174414091Y-72683077D01*
X174248020Y-73039218D01*
X174140440Y-73334791D01*
X174113603Y-73408524D01*
X174098092Y-73466413D01*
X174011889Y-73788123D01*
X174011887Y-73788134D01*
X173943647Y-74175140D01*
X173943647Y-74175144D01*
X173909396Y-74566639D01*
X173909396Y-74959640D01*
X173943647Y-75351135D01*
X173943647Y-75351139D01*
X174011887Y-75738145D01*
X174011889Y-75738155D01*
X174113603Y-76117756D01*
X174163110Y-76253776D01*
X174248020Y-76487061D01*
X174414091Y-76843202D01*
X174414103Y-76843226D01*
X174522846Y-77031574D01*
X174589039Y-77146224D01*
X174610591Y-77183552D01*
X174610600Y-77183567D01*
X174836011Y-77505487D01*
X174911910Y-77595939D01*
X175088618Y-77806531D01*
X175366505Y-78084418D01*
X175424520Y-78133098D01*
X175667548Y-78337024D01*
X175667554Y-78337028D01*
X175667555Y-78337029D01*
X175989475Y-78562440D01*
X176329816Y-78758936D01*
X176329830Y-78758942D01*
X176329833Y-78758944D01*
X176685974Y-78925015D01*
X176685979Y-78925016D01*
X176685988Y-78925021D01*
X176779288Y-78958979D01*
X176835550Y-79000404D01*
X176860485Y-79065673D01*
X176846175Y-79134062D01*
X176797163Y-79183857D01*
X176736875Y-79199500D01*
X168845188Y-79199500D01*
X168778149Y-79179815D01*
X168757507Y-79163181D01*
X167566220Y-77971894D01*
X167532735Y-77910571D01*
X167537719Y-77840879D01*
X167539326Y-77836795D01*
X167548211Y-77815346D01*
X167648051Y-77486219D01*
X167715150Y-77148891D01*
X167748861Y-76806610D01*
X167748861Y-76462672D01*
X167715150Y-76120391D01*
X167648051Y-75783063D01*
X167548211Y-75453936D01*
X167416592Y-75136179D01*
X167347068Y-75006110D01*
X167254467Y-74832865D01*
X167254466Y-74832863D01*
X167254461Y-74832854D01*
X167063380Y-74546881D01*
X166845189Y-74281014D01*
X166845188Y-74281013D01*
X166845184Y-74281008D01*
X166601993Y-74037817D01*
X166336126Y-73819626D01*
X166336125Y-73819625D01*
X166336121Y-73819622D01*
X166050148Y-73628541D01*
X166050143Y-73628538D01*
X166050136Y-73628534D01*
X165746830Y-73466413D01*
X165746825Y-73466411D01*
X165429067Y-73334791D01*
X165099933Y-73234949D01*
X164762609Y-73167851D01*
X164762610Y-73167851D01*
X164504817Y-73142462D01*
X164420330Y-73134141D01*
X164076392Y-73134141D01*
X163998327Y-73141829D01*
X163734111Y-73167851D01*
X163396788Y-73234949D01*
X163067654Y-73334791D01*
X162749896Y-73466411D01*
X162749891Y-73466413D01*
X162446585Y-73628534D01*
X162446567Y-73628545D01*
X162160609Y-73819616D01*
X162160595Y-73819626D01*
X161894728Y-74037817D01*
X161651537Y-74281008D01*
X161433346Y-74546875D01*
X161433336Y-74546889D01*
X161242265Y-74832847D01*
X161242254Y-74832865D01*
X161080133Y-75136171D01*
X161080128Y-75136183D01*
X161071260Y-75157593D01*
X161027420Y-75211997D01*
X160961126Y-75234062D01*
X160956699Y-75234141D01*
X152235580Y-75234141D01*
X152015137Y-75234141D01*
X151942560Y-75245636D01*
X151797406Y-75268626D01*
X151587755Y-75336744D01*
X151587752Y-75336745D01*
X151391333Y-75436828D01*
X151213000Y-75566393D01*
X151212995Y-75566397D01*
X142336841Y-84442551D01*
X142275518Y-84476036D01*
X142205826Y-84471052D01*
X142149893Y-84429180D01*
X142125476Y-84363716D01*
X142140328Y-84295443D01*
X142147222Y-84284268D01*
X142192007Y-84219626D01*
X142285096Y-84014683D01*
X142340096Y-83796411D01*
X142350500Y-83664216D01*
X142350500Y-80735784D01*
X142340096Y-80603589D01*
X142285096Y-80385317D01*
X142192007Y-80180374D01*
X142063819Y-79995346D01*
X141904654Y-79836181D01*
X141904650Y-79836178D01*
X141904645Y-79836174D01*
X141719632Y-79707997D01*
X141719630Y-79707995D01*
X141719626Y-79707993D01*
X141634803Y-79669465D01*
X141514681Y-79614903D01*
X141514678Y-79614902D01*
X141296419Y-79559905D01*
X141296412Y-79559904D01*
X141164221Y-79549500D01*
X141164216Y-79549500D01*
X138835784Y-79549500D01*
X138835778Y-79549500D01*
X138703587Y-79559904D01*
X138703580Y-79559905D01*
X138485321Y-79614902D01*
X138485318Y-79614903D01*
X138280377Y-79707991D01*
X138280367Y-79707997D01*
X138095354Y-79836174D01*
X138095342Y-79836184D01*
X137936184Y-79995342D01*
X137936174Y-79995354D01*
X137807997Y-80180367D01*
X137807991Y-80180377D01*
X137714903Y-80385318D01*
X137714902Y-80385321D01*
X137659905Y-80603580D01*
X137659904Y-80603587D01*
X137649500Y-80735778D01*
X137649500Y-83664221D01*
X137659904Y-83796412D01*
X137659905Y-83796419D01*
X137714902Y-84014678D01*
X137714903Y-84014681D01*
X137807991Y-84219622D01*
X137807997Y-84219632D01*
X137936174Y-84404645D01*
X137936178Y-84404650D01*
X137936181Y-84404654D01*
X138095346Y-84563819D01*
X138095350Y-84563822D01*
X138095354Y-84563825D01*
X138280367Y-84692002D01*
X138280376Y-84692008D01*
X138328906Y-84714051D01*
X138381803Y-84759698D01*
X138401625Y-84826697D01*
X138382077Y-84893776D01*
X138329367Y-84939639D01*
X138307923Y-84947191D01*
X138143617Y-84988592D01*
X138143602Y-84988597D01*
X138051280Y-85030531D01*
X137982101Y-85040332D01*
X137948720Y-85030531D01*
X137856397Y-84988597D01*
X137856393Y-84988596D01*
X137771548Y-84967217D01*
X137642485Y-84934696D01*
X137512933Y-84924500D01*
X137512931Y-84924500D01*
X136937075Y-84924500D01*
X136937060Y-84924501D01*
X136807515Y-84934696D01*
X136593604Y-84988596D01*
X136392759Y-85079824D01*
X136324651Y-85127011D01*
X136251877Y-85177428D01*
X136232963Y-85183702D01*
X136216198Y-85194477D01*
X136188454Y-85198466D01*
X136185563Y-85199425D01*
X136181263Y-85199500D01*
X136128099Y-85199500D01*
X136061060Y-85179815D01*
X136015305Y-85127011D01*
X136004099Y-85075500D01*
X136004098Y-83608271D01*
X136004098Y-83608264D01*
X135993485Y-83488882D01*
X135937508Y-83293251D01*
X135843297Y-83112893D01*
X135791283Y-83049103D01*
X135714708Y-82955190D01*
X135557008Y-82826604D01*
X135557009Y-82826604D01*
X135557006Y-82826602D01*
X135376648Y-82732391D01*
X135376647Y-82732390D01*
X135376644Y-82732389D01*
X135235302Y-82691947D01*
X135181017Y-82676414D01*
X135181014Y-82676413D01*
X135181012Y-82676413D01*
X135114701Y-82670517D01*
X135061636Y-82665800D01*
X135061631Y-82665800D01*
X134488370Y-82665800D01*
X134488352Y-82665801D01*
X134460980Y-82668234D01*
X134439029Y-82668234D01*
X134411646Y-82665800D01*
X134411638Y-82665800D01*
X133963414Y-82665800D01*
X133896375Y-82646115D01*
X133854503Y-82599833D01*
X133854306Y-82599954D01*
X133853662Y-82598903D01*
X133852928Y-82598092D01*
X133852624Y-82597497D01*
X133851761Y-82595802D01*
X133740691Y-82442928D01*
X133607074Y-82309311D01*
X133507359Y-82209595D01*
X133477110Y-82160233D01*
X133451555Y-82081583D01*
X133357961Y-81897896D01*
X133355051Y-81892184D01*
X133355049Y-81892181D01*
X133355048Y-81892179D01*
X133230109Y-81720213D01*
X133079786Y-81569890D01*
X132907820Y-81444951D01*
X132718414Y-81348444D01*
X132718413Y-81348443D01*
X132718412Y-81348443D01*
X132516243Y-81282754D01*
X132516241Y-81282753D01*
X132516240Y-81282753D01*
X132354957Y-81257208D01*
X132306287Y-81249500D01*
X132093713Y-81249500D01*
X132045042Y-81257208D01*
X131883760Y-81282753D01*
X131681585Y-81348444D01*
X131492179Y-81444951D01*
X131320213Y-81569890D01*
X131169890Y-81720213D01*
X131044951Y-81892179D01*
X130948444Y-82081585D01*
X130882753Y-82283760D01*
X130849500Y-82493713D01*
X130849500Y-82706287D01*
X130882754Y-82916243D01*
X130937763Y-83085543D01*
X130948444Y-83118414D01*
X131044951Y-83307820D01*
X131169890Y-83479786D01*
X131320213Y-83630109D01*
X131491161Y-83754308D01*
X131492184Y-83755051D01*
X131528195Y-83773399D01*
X131578991Y-83821373D01*
X131595901Y-83883884D01*
X131595901Y-85248328D01*
X131595902Y-85248334D01*
X131606514Y-85367715D01*
X131662490Y-85563345D01*
X131662491Y-85563348D01*
X131662492Y-85563349D01*
X131756703Y-85743707D01*
X131756705Y-85743709D01*
X131885291Y-85901409D01*
X131979204Y-85977984D01*
X132042994Y-86029998D01*
X132223352Y-86124209D01*
X132418983Y-86180186D01*
X132538364Y-86190800D01*
X133111637Y-86190799D01*
X133139020Y-86188364D01*
X133160970Y-86188364D01*
X133188362Y-86190800D01*
X133546775Y-86190799D01*
X133613813Y-86210483D01*
X133659568Y-86263287D01*
X133669512Y-86332446D01*
X133640487Y-86396001D01*
X133634455Y-86402480D01*
X133209314Y-86827622D01*
X133209313Y-86827623D01*
X133209311Y-86827626D01*
X133155867Y-86901184D01*
X133114526Y-86958086D01*
X133059196Y-87000751D01*
X133014208Y-87009200D01*
X132538372Y-87009200D01*
X132538366Y-87009200D01*
X132538365Y-87009201D01*
X132526717Y-87010236D01*
X132418985Y-87019813D01*
X132223355Y-87075789D01*
X132133173Y-87122896D01*
X132042994Y-87170002D01*
X132042992Y-87170003D01*
X132042991Y-87170004D01*
X131885291Y-87298590D01*
X131842247Y-87351381D01*
X131784626Y-87390898D01*
X131714787Y-87392990D01*
X131658464Y-87360701D01*
X129281829Y-84984065D01*
X129248344Y-84922742D01*
X129253328Y-84853050D01*
X129295200Y-84797117D01*
X129318226Y-84783486D01*
X129519626Y-84692007D01*
X129704654Y-84563819D01*
X129863819Y-84404654D01*
X129992007Y-84219626D01*
X130085096Y-84014683D01*
X130140096Y-83796411D01*
X130150500Y-83664216D01*
X130150500Y-80735784D01*
X130140096Y-80603589D01*
X130085096Y-80385317D01*
X129992007Y-80180374D01*
X129863819Y-79995346D01*
X129704654Y-79836181D01*
X129704650Y-79836178D01*
X129704645Y-79836174D01*
X129519632Y-79707997D01*
X129519630Y-79707995D01*
X129519626Y-79707993D01*
X129434803Y-79669465D01*
X129314681Y-79614903D01*
X129314678Y-79614902D01*
X129096419Y-79559905D01*
X129096412Y-79559904D01*
X128964221Y-79549500D01*
X128964216Y-79549500D01*
X126635784Y-79549500D01*
X126635778Y-79549500D01*
X126503587Y-79559904D01*
X126503580Y-79559905D01*
X126285321Y-79614902D01*
X126285318Y-79614903D01*
X126080377Y-79707991D01*
X126080367Y-79707997D01*
X125895354Y-79836174D01*
X125895342Y-79836184D01*
X125736184Y-79995342D01*
X125736174Y-79995354D01*
X125607997Y-80180367D01*
X125607991Y-80180377D01*
X125555978Y-80294889D01*
X125510331Y-80347786D01*
X125443332Y-80367608D01*
X125376253Y-80348060D01*
X125355398Y-80331289D01*
X125153122Y-80129013D01*
X125153115Y-80129007D01*
X124908674Y-79941441D01*
X124908673Y-79941440D01*
X124908670Y-79941438D01*
X124726365Y-79836184D01*
X124641837Y-79787381D01*
X124641826Y-79787376D01*
X124357162Y-79669464D01*
X124059542Y-79589717D01*
X123754069Y-79549501D01*
X123754066Y-79549500D01*
X123754060Y-79549500D01*
X123445940Y-79549500D01*
X123445934Y-79549500D01*
X123445930Y-79549501D01*
X123140457Y-79589717D01*
X122842837Y-79669464D01*
X122558173Y-79787376D01*
X122558162Y-79787381D01*
X122291325Y-79941441D01*
X122046884Y-80129007D01*
X122046877Y-80129013D01*
X121829013Y-80346877D01*
X121829007Y-80346884D01*
X121641441Y-80591325D01*
X121487381Y-80858162D01*
X121487376Y-80858173D01*
X121369464Y-81142837D01*
X121289717Y-81440457D01*
X121249501Y-81745930D01*
X121249500Y-81745946D01*
X121249500Y-82654053D01*
X121249501Y-82654069D01*
X121289717Y-82959542D01*
X121369464Y-83257162D01*
X121487376Y-83541826D01*
X121487381Y-83541837D01*
X121558040Y-83664221D01*
X121621074Y-83773399D01*
X121622887Y-83776538D01*
X121639500Y-83838538D01*
X121639500Y-89445755D01*
X121619815Y-89512794D01*
X121567011Y-89558549D01*
X121497853Y-89568493D01*
X121496103Y-89568228D01*
X121346287Y-89544500D01*
X121133713Y-89544500D01*
X121085042Y-89552208D01*
X120923760Y-89577753D01*
X120721585Y-89643444D01*
X120532179Y-89739951D01*
X120360213Y-89864890D01*
X120209890Y-90015213D01*
X120084951Y-90187179D01*
X119988444Y-90376585D01*
X119922753Y-90578760D01*
X119903587Y-90699773D01*
X119889500Y-90788713D01*
X119889500Y-91001287D01*
X119891845Y-91016091D01*
X119912006Y-91143387D01*
X119922754Y-91211243D01*
X119982977Y-91396590D01*
X119988444Y-91413414D01*
X120037202Y-91509107D01*
X120050098Y-91577776D01*
X120023822Y-91642517D01*
X119966715Y-91682774D01*
X119955107Y-91686108D01*
X119781864Y-91726854D01*
X119781848Y-91726860D01*
X119578331Y-91816721D01*
X119394779Y-91942457D01*
X119394773Y-91942462D01*
X119237462Y-92099773D01*
X119237457Y-92099779D01*
X119111721Y-92283331D01*
X119021860Y-92486848D01*
X119021854Y-92486864D01*
X118970920Y-92703422D01*
X118970918Y-92703438D01*
X118964500Y-92795904D01*
X118964500Y-93344095D01*
X118970918Y-93436561D01*
X118970920Y-93436577D01*
X119021854Y-93653135D01*
X119021860Y-93653151D01*
X119111721Y-93856668D01*
X119111722Y-93856670D01*
X119111723Y-93856671D01*
X119237458Y-94040221D01*
X119394779Y-94197542D01*
X119578329Y-94323277D01*
X119781857Y-94413143D01*
X119781860Y-94413143D01*
X119781864Y-94413145D01*
X119998422Y-94464079D01*
X119998427Y-94464079D01*
X119998433Y-94464081D01*
X120049808Y-94467647D01*
X120090904Y-94470500D01*
X120316000Y-94470500D01*
X120383039Y-94490185D01*
X120428794Y-94542989D01*
X120440000Y-94594500D01*
X120440000Y-94720000D01*
X120716000Y-94720000D01*
X120783039Y-94739685D01*
X120828794Y-94792489D01*
X120840000Y-94844000D01*
X120840000Y-95613781D01*
X120842110Y-95613589D01*
X121004396Y-95563018D01*
X121149877Y-95475072D01*
X121270072Y-95354877D01*
X121358016Y-95209400D01*
X121364140Y-95189748D01*
X121402876Y-95131599D01*
X121466901Y-95103624D01*
X121535886Y-95114703D01*
X121587931Y-95161320D01*
X121606510Y-95228674D01*
X121606040Y-95237615D01*
X121595901Y-95351664D01*
X121595901Y-96991726D01*
X121595903Y-96991756D01*
X121595937Y-96992136D01*
X121595923Y-96992204D01*
X121596024Y-96994473D01*
X121595901Y-96994478D01*
X121595902Y-96994485D01*
X121595754Y-96994485D01*
X121595465Y-96994497D01*
X121582257Y-97060653D01*
X121533704Y-97110897D01*
X121522509Y-97116532D01*
X121339803Y-97197204D01*
X121156251Y-97322940D01*
X121156245Y-97322945D01*
X120998934Y-97480256D01*
X120998929Y-97480262D01*
X120873193Y-97663814D01*
X120783332Y-97867331D01*
X120783326Y-97867347D01*
X120732392Y-98083905D01*
X120732390Y-98083921D01*
X120725972Y-98176387D01*
X120725972Y-98874578D01*
X120732390Y-98967044D01*
X120732392Y-98967060D01*
X120783326Y-99183618D01*
X120783332Y-99183634D01*
X120873193Y-99387151D01*
X120873194Y-99387153D01*
X120873195Y-99387154D01*
X120881652Y-99399500D01*
X120998929Y-99570703D01*
X120998934Y-99570709D01*
X121156245Y-99728020D01*
X121156251Y-99728025D01*
X121339801Y-99853760D01*
X121339802Y-99853760D01*
X121339803Y-99853761D01*
X121412383Y-99885808D01*
X121543329Y-99943626D01*
X121543333Y-99943627D01*
X121543336Y-99943628D01*
X121759894Y-99994562D01*
X121759899Y-99994562D01*
X121759905Y-99994564D01*
X121811280Y-99998130D01*
X121852376Y-100000983D01*
X121852380Y-100000983D01*
X122400568Y-100000983D01*
X122437554Y-99998415D01*
X122493039Y-99994564D01*
X122493045Y-99994562D01*
X122493049Y-99994562D01*
X122709607Y-99943628D01*
X122709607Y-99943627D01*
X122709615Y-99943626D01*
X122901386Y-99858950D01*
X122970664Y-99849880D01*
X123001556Y-99858950D01*
X123193329Y-99943626D01*
X123193334Y-99943627D01*
X123193336Y-99943628D01*
X123409894Y-99994562D01*
X123409899Y-99994562D01*
X123409905Y-99994564D01*
X123461280Y-99998130D01*
X123502376Y-100000983D01*
X123502380Y-100000983D01*
X124050568Y-100000983D01*
X124087554Y-99998415D01*
X124143039Y-99994564D01*
X124143045Y-99994562D01*
X124143049Y-99994562D01*
X124359607Y-99943628D01*
X124359607Y-99943627D01*
X124359615Y-99943626D01*
X124563143Y-99853760D01*
X124746693Y-99728025D01*
X124904014Y-99570704D01*
X125029749Y-99387154D01*
X125119615Y-99183626D01*
X125119617Y-99183618D01*
X125120800Y-99180091D01*
X125121825Y-99178620D01*
X125121931Y-99178382D01*
X125121977Y-99178402D01*
X125160770Y-99122783D01*
X125225378Y-99096183D01*
X125238371Y-99095500D01*
X127965500Y-99095500D01*
X128032539Y-99115185D01*
X128078294Y-99167989D01*
X128089500Y-99219500D01*
X128089500Y-99426015D01*
X128095650Y-99514624D01*
X128095652Y-99514639D01*
X128144465Y-99722175D01*
X128144470Y-99722190D01*
X128203072Y-99854916D01*
X128212142Y-99924194D01*
X128203072Y-99955084D01*
X128144470Y-100087809D01*
X128144465Y-100087824D01*
X128095652Y-100295360D01*
X128095650Y-100295375D01*
X128089500Y-100383984D01*
X128089500Y-100826015D01*
X128095650Y-100914624D01*
X128095652Y-100914640D01*
X128144465Y-101122176D01*
X128144470Y-101122191D01*
X128207409Y-101264734D01*
X128208600Y-101273829D01*
X128213447Y-101281618D01*
X128213064Y-101307924D01*
X128216481Y-101334012D01*
X128212538Y-101344159D01*
X128212432Y-101351481D01*
X128198497Y-101380299D01*
X128197305Y-101383369D01*
X128196777Y-101384164D01*
X128111723Y-101508329D01*
X128106380Y-101520427D01*
X128100540Y-101529232D01*
X128081557Y-101545202D01*
X128065550Y-101564151D01*
X128055289Y-101567303D01*
X128047076Y-101574214D01*
X128022474Y-101577386D01*
X127998762Y-101584673D01*
X127983711Y-101582386D01*
X127977781Y-101583151D01*
X127972614Y-101580700D01*
X127958898Y-101578616D01*
X127956245Y-101577754D01*
X127816272Y-101555584D01*
X127746287Y-101544500D01*
X127533713Y-101544500D01*
X127485042Y-101552208D01*
X127323760Y-101577753D01*
X127121585Y-101643444D01*
X126932179Y-101739951D01*
X126760213Y-101864890D01*
X126609890Y-102015213D01*
X126484951Y-102187179D01*
X126388444Y-102376585D01*
X126322753Y-102578760D01*
X126289500Y-102788713D01*
X126289500Y-103001286D01*
X126322289Y-103208312D01*
X126322754Y-103211243D01*
X126386537Y-103407547D01*
X126388444Y-103413414D01*
X126484951Y-103602820D01*
X126609890Y-103774786D01*
X126760213Y-103925109D01*
X126932179Y-104050048D01*
X126932181Y-104050049D01*
X126932184Y-104050051D01*
X127021256Y-104095435D01*
X127121587Y-104146557D01*
X127121593Y-104146559D01*
X127200232Y-104172110D01*
X127249596Y-104202360D01*
X127907926Y-104860690D01*
X128060801Y-104971760D01*
X128131033Y-105007545D01*
X128229163Y-105057545D01*
X128229165Y-105057545D01*
X128229168Y-105057547D01*
X128408882Y-105115940D01*
X128445330Y-105121712D01*
X128496006Y-105141884D01*
X128578329Y-105198277D01*
X128781857Y-105288143D01*
X128781861Y-105288144D01*
X128781864Y-105288145D01*
X128998422Y-105339079D01*
X128998427Y-105339079D01*
X128998433Y-105339081D01*
X129049808Y-105342647D01*
X129090904Y-105345500D01*
X129090908Y-105345500D01*
X129789096Y-105345500D01*
X129826082Y-105342932D01*
X129881567Y-105339081D01*
X129881573Y-105339079D01*
X129881577Y-105339079D01*
X130098135Y-105288145D01*
X130098135Y-105288144D01*
X130098143Y-105288143D01*
X130301671Y-105198277D01*
X130485221Y-105072542D01*
X130642542Y-104915221D01*
X130768277Y-104731671D01*
X130858143Y-104528143D01*
X130908865Y-104312485D01*
X130909079Y-104311577D01*
X130909079Y-104311573D01*
X130909081Y-104311567D01*
X130915500Y-104219092D01*
X130915500Y-103670908D01*
X130911527Y-103613675D01*
X130926521Y-103545435D01*
X130976030Y-103496133D01*
X131015831Y-103482616D01*
X131121118Y-103465940D01*
X131300832Y-103407547D01*
X131469199Y-103321760D01*
X131622074Y-103210690D01*
X131637820Y-103194943D01*
X131699139Y-103161459D01*
X131768831Y-103166442D01*
X131824765Y-103208312D01*
X131849184Y-103273776D01*
X131849500Y-103282625D01*
X131849500Y-103723028D01*
X131849501Y-103723034D01*
X131860113Y-103842415D01*
X131916089Y-104038045D01*
X131916090Y-104038048D01*
X131916091Y-104038049D01*
X132010302Y-104218407D01*
X132010304Y-104218409D01*
X132138890Y-104376109D01*
X132232803Y-104452684D01*
X132296593Y-104504698D01*
X132476951Y-104598909D01*
X132672582Y-104654886D01*
X132791963Y-104665500D01*
X133376373Y-104665499D01*
X133443412Y-104685183D01*
X133464054Y-104701818D01*
X133572926Y-104810690D01*
X133725801Y-104921760D01*
X133894168Y-105007547D01*
X134073882Y-105065940D01*
X134143870Y-105077025D01*
X134260513Y-105095500D01*
X134260518Y-105095500D01*
X134260519Y-105095500D01*
X135515500Y-105095500D01*
X135582539Y-105115185D01*
X135628294Y-105167989D01*
X135639500Y-105219500D01*
X135639500Y-105787377D01*
X135619815Y-105854416D01*
X135567011Y-105900171D01*
X135501674Y-105909565D01*
X135501616Y-105910314D01*
X135498289Y-105910052D01*
X135497853Y-105910115D01*
X135496562Y-105909916D01*
X135496413Y-105909904D01*
X135496412Y-105909904D01*
X135364217Y-105899500D01*
X135364215Y-105899500D01*
X134585791Y-105899500D01*
X134585776Y-105899501D01*
X134453586Y-105909904D01*
X134453579Y-105909905D01*
X134235321Y-105964902D01*
X134235318Y-105964903D01*
X134030377Y-106057991D01*
X134030367Y-106057997D01*
X133845354Y-106186174D01*
X133845342Y-106186184D01*
X133686184Y-106345342D01*
X133686174Y-106345354D01*
X133557997Y-106530367D01*
X133557991Y-106530377D01*
X133464903Y-106735318D01*
X133464902Y-106735321D01*
X133409905Y-106953579D01*
X133409904Y-106953586D01*
X133399500Y-107085777D01*
X133399500Y-108514208D01*
X133399501Y-108514223D01*
X133409904Y-108646413D01*
X133409905Y-108646420D01*
X133464902Y-108864678D01*
X133464903Y-108864681D01*
X133557990Y-109069621D01*
X133558345Y-109070246D01*
X133558443Y-109070617D01*
X133560296Y-109074697D01*
X133559603Y-109075011D01*
X133574500Y-109131446D01*
X133574500Y-110093531D01*
X133554815Y-110160570D01*
X133538181Y-110181212D01*
X133016384Y-110703008D01*
X132955061Y-110736493D01*
X132901111Y-110736218D01*
X132678232Y-110685347D01*
X132678216Y-110685345D01*
X132360085Y-110649500D01*
X132360081Y-110649500D01*
X132039919Y-110649500D01*
X132039914Y-110649500D01*
X131721783Y-110685345D01*
X131721771Y-110685347D01*
X131409637Y-110756589D01*
X131409635Y-110756590D01*
X131107440Y-110862332D01*
X130818989Y-111001243D01*
X130547900Y-111171580D01*
X130297587Y-111371197D01*
X130071197Y-111597587D01*
X129871580Y-111847900D01*
X129701243Y-112118989D01*
X129586220Y-112357837D01*
X129539397Y-112409696D01*
X129471970Y-112428009D01*
X129405346Y-112406961D01*
X129360678Y-112353235D01*
X129350500Y-112304035D01*
X129350500Y-111835779D01*
X129350500Y-111835772D01*
X129340097Y-111703590D01*
X129313386Y-111597587D01*
X129285098Y-111485322D01*
X129285097Y-111485319D01*
X129232386Y-111369271D01*
X129197273Y-111291966D01*
X129192009Y-111280376D01*
X129192003Y-111280367D01*
X129063826Y-111095354D01*
X129063823Y-111095350D01*
X129063820Y-111095346D01*
X128904654Y-110936180D01*
X128904650Y-110936177D01*
X128904645Y-110936173D01*
X128719632Y-110807996D01*
X128719623Y-110807990D01*
X128514680Y-110714902D01*
X128514677Y-110714901D01*
X128296418Y-110659904D01*
X128296411Y-110659903D01*
X128164233Y-110649500D01*
X128164228Y-110649500D01*
X125681468Y-110649500D01*
X125614429Y-110629815D01*
X125593787Y-110613181D01*
X125061819Y-110081213D01*
X125028334Y-110019890D01*
X125025500Y-109993532D01*
X125025500Y-109131446D01*
X125040396Y-109075011D01*
X125039704Y-109074697D01*
X125041556Y-109070617D01*
X125041655Y-109070246D01*
X125042002Y-109069632D01*
X125042007Y-109069626D01*
X125135096Y-108864683D01*
X125190096Y-108646412D01*
X125200500Y-108514217D01*
X125200500Y-108499986D01*
X125500001Y-108499986D01*
X125510494Y-108602697D01*
X125565641Y-108769119D01*
X125565643Y-108769124D01*
X125657684Y-108918345D01*
X125781654Y-109042315D01*
X125930875Y-109134356D01*
X125930880Y-109134358D01*
X126075000Y-109182114D01*
X127075000Y-109182114D01*
X127219119Y-109134358D01*
X127219124Y-109134356D01*
X127368345Y-109042315D01*
X127492315Y-108918345D01*
X127584356Y-108769124D01*
X127584358Y-108769119D01*
X127639505Y-108602697D01*
X127639506Y-108602690D01*
X127649999Y-108499986D01*
X130950001Y-108499986D01*
X130960494Y-108602697D01*
X131015641Y-108769119D01*
X131015643Y-108769124D01*
X131107684Y-108918345D01*
X131231654Y-109042315D01*
X131380875Y-109134356D01*
X131380880Y-109134358D01*
X131525000Y-109182114D01*
X132525000Y-109182114D01*
X132669119Y-109134358D01*
X132669124Y-109134356D01*
X132818345Y-109042315D01*
X132942315Y-108918345D01*
X133034356Y-108769124D01*
X133034358Y-108769119D01*
X133089505Y-108602697D01*
X133089506Y-108602690D01*
X133099999Y-108499986D01*
X133100000Y-108499973D01*
X133100000Y-108300000D01*
X132525000Y-108300000D01*
X132525000Y-109182114D01*
X131525000Y-109182114D01*
X131525000Y-108300000D01*
X130950001Y-108300000D01*
X130950001Y-108499986D01*
X127649999Y-108499986D01*
X127650000Y-108499973D01*
X127650000Y-108300000D01*
X127075000Y-108300000D01*
X127075000Y-109182114D01*
X126075000Y-109182114D01*
X126075000Y-108300000D01*
X125500001Y-108300000D01*
X125500001Y-108499986D01*
X125200500Y-108499986D01*
X125200499Y-107776760D01*
X125200499Y-107100013D01*
X125500000Y-107100013D01*
X125500000Y-107300000D01*
X126075000Y-107300000D01*
X127075000Y-107300000D01*
X127649999Y-107300000D01*
X127649999Y-107100029D01*
X127649998Y-107100013D01*
X130950000Y-107100013D01*
X130950000Y-107300000D01*
X131525000Y-107300000D01*
X132525000Y-107300000D01*
X133099999Y-107300000D01*
X133099999Y-107100028D01*
X133099998Y-107100013D01*
X133089505Y-106997302D01*
X133034358Y-106830880D01*
X133034356Y-106830875D01*
X132942315Y-106681654D01*
X132818345Y-106557684D01*
X132669120Y-106465641D01*
X132525000Y-106417884D01*
X132525000Y-107300000D01*
X131525000Y-107300000D01*
X131525000Y-106417884D01*
X131380879Y-106465641D01*
X131231654Y-106557684D01*
X131107684Y-106681654D01*
X131015643Y-106830875D01*
X131015641Y-106830880D01*
X130960494Y-106997302D01*
X130960493Y-106997309D01*
X130950000Y-107100013D01*
X127649998Y-107100013D01*
X127649998Y-107100012D01*
X127639505Y-106997302D01*
X127584358Y-106830880D01*
X127584356Y-106830875D01*
X127492315Y-106681654D01*
X127368345Y-106557684D01*
X127219120Y-106465641D01*
X127075000Y-106417884D01*
X127075000Y-107300000D01*
X126075000Y-107300000D01*
X126075000Y-106417884D01*
X125930879Y-106465641D01*
X125781654Y-106557684D01*
X125657684Y-106681654D01*
X125565643Y-106830875D01*
X125565641Y-106830880D01*
X125510494Y-106997302D01*
X125510493Y-106997309D01*
X125500000Y-107100013D01*
X125200499Y-107100013D01*
X125200499Y-107096864D01*
X125200499Y-107085791D01*
X125200498Y-107085783D01*
X125190096Y-106953588D01*
X125182620Y-106923921D01*
X125135097Y-106735321D01*
X125135096Y-106735318D01*
X125054411Y-106557684D01*
X125042007Y-106530374D01*
X124913819Y-106345346D01*
X124754654Y-106186181D01*
X124754650Y-106186178D01*
X124754645Y-106186174D01*
X124569632Y-106057997D01*
X124569630Y-106057995D01*
X124569626Y-106057993D01*
X124364683Y-105964904D01*
X124364681Y-105964903D01*
X124364678Y-105964902D01*
X124146420Y-105909905D01*
X124146413Y-105909904D01*
X124102347Y-105906436D01*
X124014217Y-105899500D01*
X124014215Y-105899500D01*
X123235791Y-105899500D01*
X123235776Y-105899501D01*
X123103586Y-105909904D01*
X123103579Y-105909905D01*
X122885321Y-105964902D01*
X122885318Y-105964903D01*
X122680377Y-106057991D01*
X122680367Y-106057997D01*
X122495354Y-106186174D01*
X122495342Y-106186184D01*
X122336184Y-106345342D01*
X122336174Y-106345354D01*
X122207997Y-106530367D01*
X122207991Y-106530377D01*
X122114903Y-106735318D01*
X122114902Y-106735321D01*
X122059905Y-106953579D01*
X122059904Y-106953586D01*
X122049500Y-107085777D01*
X122049500Y-108514208D01*
X122049501Y-108514223D01*
X122059904Y-108646413D01*
X122059905Y-108646420D01*
X122114902Y-108864678D01*
X122114903Y-108864681D01*
X122207990Y-109069621D01*
X122208345Y-109070246D01*
X122208443Y-109070617D01*
X122210296Y-109074697D01*
X122209603Y-109075011D01*
X122224500Y-109131446D01*
X122224500Y-110510362D01*
X122224499Y-110510377D01*
X122224499Y-110514778D01*
X122224499Y-110735222D01*
X122231562Y-110779815D01*
X122240338Y-110835221D01*
X122240338Y-110835222D01*
X122258985Y-110952952D01*
X122327103Y-111162603D01*
X122327104Y-111162606D01*
X122427187Y-111359025D01*
X122556751Y-111537357D01*
X122556755Y-111537361D01*
X122556758Y-111537365D01*
X122712635Y-111693242D01*
X122716965Y-111697572D01*
X122716976Y-111697582D01*
X123613181Y-112593787D01*
X123646666Y-112655110D01*
X123649500Y-112681468D01*
X123649500Y-115164233D01*
X123659903Y-115296411D01*
X123659904Y-115296418D01*
X123714901Y-115514677D01*
X123714902Y-115514680D01*
X123807990Y-115719623D01*
X123807996Y-115719632D01*
X123936173Y-115904645D01*
X123936177Y-115904650D01*
X123936180Y-115904654D01*
X124095346Y-116063820D01*
X124095350Y-116063823D01*
X124095354Y-116063826D01*
X124201939Y-116137668D01*
X124280374Y-116192008D01*
X124485318Y-116285097D01*
X124485322Y-116285098D01*
X124703581Y-116340095D01*
X124703583Y-116340095D01*
X124703590Y-116340097D01*
X124835772Y-116350500D01*
X124835780Y-116350500D01*
X128164220Y-116350500D01*
X128164228Y-116350500D01*
X128296410Y-116340097D01*
X128514682Y-116285097D01*
X128719626Y-116192008D01*
X128904654Y-116063820D01*
X129063820Y-115904654D01*
X129192008Y-115719626D01*
X129285097Y-115514682D01*
X129340097Y-115296410D01*
X129350500Y-115164228D01*
X129350500Y-114695964D01*
X129370185Y-114628925D01*
X129422989Y-114583170D01*
X129492147Y-114573226D01*
X129555703Y-114602251D01*
X129586220Y-114642162D01*
X129701243Y-114881010D01*
X129701245Y-114881013D01*
X129871581Y-115152101D01*
X130071198Y-115402413D01*
X130297587Y-115628802D01*
X130547899Y-115828419D01*
X130818987Y-115998755D01*
X130818989Y-115998756D01*
X130898848Y-116037214D01*
X131107442Y-116137668D01*
X131409637Y-116243410D01*
X131721771Y-116314653D01*
X132039915Y-116350499D01*
X132039916Y-116350500D01*
X132039919Y-116350500D01*
X132360084Y-116350500D01*
X132360084Y-116350499D01*
X132678229Y-116314653D01*
X132990363Y-116243410D01*
X133292558Y-116137668D01*
X133581013Y-115998755D01*
X133852101Y-115828419D01*
X134102413Y-115628802D01*
X134328802Y-115402413D01*
X134528419Y-115152101D01*
X134698755Y-114881013D01*
X134837668Y-114592558D01*
X134943410Y-114290363D01*
X135014653Y-113978229D01*
X135050500Y-113660081D01*
X135050500Y-113339919D01*
X135014653Y-113021771D01*
X134963780Y-112798884D01*
X134968053Y-112729149D01*
X134996988Y-112683616D01*
X135427819Y-112252786D01*
X135489141Y-112219302D01*
X135558833Y-112224286D01*
X135614766Y-112266158D01*
X135639183Y-112331622D01*
X135639499Y-112340468D01*
X135639499Y-112550222D01*
X135646004Y-112591292D01*
X135673985Y-112767952D01*
X135742103Y-112977603D01*
X135742104Y-112977606D01*
X135842187Y-113174025D01*
X135971751Y-113352357D01*
X135971755Y-113352361D01*
X135971758Y-113352365D01*
X136127635Y-113508242D01*
X136131965Y-113512572D01*
X136131976Y-113512582D01*
X146122673Y-123503279D01*
X146122687Y-123503294D01*
X146125798Y-123506405D01*
X146125799Y-123506406D01*
X146281676Y-123662283D01*
X146281679Y-123662285D01*
X146281683Y-123662289D01*
X146443413Y-123779791D01*
X146460019Y-123791856D01*
X146634880Y-123880953D01*
X146653707Y-123890546D01*
X146653709Y-123890547D01*
X146656435Y-123891936D01*
X146656437Y-123891937D01*
X146761262Y-123925996D01*
X146866089Y-123960056D01*
X146966478Y-123975956D01*
X147083814Y-123994541D01*
X147083819Y-123994541D01*
X154603360Y-123994541D01*
X154603384Y-123994542D01*
X154608495Y-123994542D01*
X154828938Y-123994542D01*
X154828939Y-123994542D01*
X155046668Y-123960056D01*
X155256323Y-123891936D01*
X155256323Y-123891935D01*
X155256328Y-123891934D01*
X155324983Y-123856951D01*
X155452739Y-123791856D01*
X155459721Y-123786783D01*
X155631082Y-123662283D01*
X155786959Y-123506406D01*
X155786960Y-123506404D01*
X155794020Y-123499344D01*
X155794026Y-123499337D01*
X159447006Y-119846356D01*
X159508327Y-119812873D01*
X159578019Y-119817857D01*
X159582139Y-119819479D01*
X159603546Y-119828346D01*
X159603548Y-119828346D01*
X159603554Y-119828349D01*
X159932681Y-119928189D01*
X160270009Y-119995288D01*
X160612290Y-120028999D01*
X160612293Y-120028999D01*
X160956225Y-120028999D01*
X160956228Y-120028999D01*
X161298509Y-119995288D01*
X161635837Y-119928189D01*
X161964964Y-119828349D01*
X162282721Y-119696730D01*
X162586046Y-119534599D01*
X162872019Y-119343518D01*
X163137886Y-119125327D01*
X163381087Y-118882126D01*
X163599278Y-118616259D01*
X163790359Y-118330286D01*
X163952490Y-118026961D01*
X164084109Y-117709204D01*
X164183949Y-117380077D01*
X164251048Y-117042749D01*
X164284759Y-116700468D01*
X164284759Y-116356530D01*
X164251048Y-116014249D01*
X164183949Y-115676921D01*
X164084109Y-115347794D01*
X164084106Y-115347786D01*
X164075239Y-115326379D01*
X164067769Y-115256910D01*
X164099043Y-115194431D01*
X164102089Y-115191273D01*
X165656545Y-113636819D01*
X165717868Y-113603334D01*
X165744226Y-113600500D01*
X183092688Y-113600500D01*
X183159727Y-113620185D01*
X183205482Y-113672989D01*
X183216688Y-113724500D01*
X183216688Y-116617574D01*
X183197003Y-116684613D01*
X183144199Y-116730368D01*
X183092688Y-116741574D01*
X181015578Y-116741574D01*
X180948539Y-116721889D01*
X180935873Y-116712564D01*
X180892434Y-116676115D01*
X180892432Y-116676114D01*
X180892429Y-116676111D01*
X180570509Y-116450700D01*
X180378939Y-116340097D01*
X180230174Y-116254207D01*
X180230150Y-116254195D01*
X179874009Y-116088124D01*
X179873998Y-116088120D01*
X179873996Y-116088119D01*
X179504704Y-115953707D01*
X179264048Y-115889223D01*
X179125104Y-115851993D01*
X179125093Y-115851991D01*
X178738085Y-115783751D01*
X178346588Y-115749500D01*
X178346584Y-115749500D01*
X177953592Y-115749500D01*
X177953587Y-115749500D01*
X177562092Y-115783751D01*
X177562088Y-115783751D01*
X177175082Y-115851991D01*
X177175071Y-115851993D01*
X176978573Y-115904645D01*
X176795472Y-115953707D01*
X176795469Y-115953708D01*
X176795468Y-115953708D01*
X176426166Y-116088124D01*
X176070025Y-116254195D01*
X176070001Y-116254207D01*
X175729675Y-116450695D01*
X175729660Y-116450704D01*
X175407740Y-116676115D01*
X175106694Y-116928724D01*
X174828812Y-117206606D01*
X174576203Y-117507652D01*
X174350792Y-117829572D01*
X174350783Y-117829587D01*
X174154295Y-118169913D01*
X174154283Y-118169937D01*
X173988212Y-118526078D01*
X173858619Y-118882131D01*
X173853795Y-118895384D01*
X173813448Y-119045962D01*
X173752081Y-119274983D01*
X173752079Y-119274994D01*
X173683839Y-119662000D01*
X173683839Y-119662004D01*
X173649588Y-120053499D01*
X173649588Y-120446500D01*
X173683839Y-120837995D01*
X173683839Y-120837999D01*
X173746531Y-121193541D01*
X173752081Y-121225015D01*
X173853795Y-121604616D01*
X173853796Y-121604618D01*
X173853796Y-121604619D01*
X173988212Y-121973921D01*
X174154283Y-122330062D01*
X174154295Y-122330086D01*
X174350783Y-122670412D01*
X174350792Y-122670427D01*
X174576203Y-122992347D01*
X174748174Y-123197293D01*
X174828810Y-123293391D01*
X175106697Y-123571278D01*
X175137981Y-123597528D01*
X175407740Y-123823884D01*
X175407746Y-123823888D01*
X175407747Y-123823889D01*
X175729667Y-124049300D01*
X176070008Y-124245796D01*
X176070022Y-124245802D01*
X176070025Y-124245804D01*
X176426166Y-124411875D01*
X176426171Y-124411876D01*
X176426180Y-124411881D01*
X176795472Y-124546293D01*
X177175073Y-124648007D01*
X177562095Y-124716249D01*
X177953590Y-124750499D01*
X177953591Y-124750500D01*
X177953592Y-124750500D01*
X178346585Y-124750500D01*
X178346585Y-124750499D01*
X178738081Y-124716249D01*
X179125103Y-124648007D01*
X179504704Y-124546293D01*
X179873996Y-124411881D01*
X180230168Y-124245796D01*
X180570509Y-124049300D01*
X180892429Y-123823889D01*
X181193479Y-123571278D01*
X181471366Y-123293391D01*
X181723977Y-122992341D01*
X181949388Y-122670421D01*
X182145884Y-122330080D01*
X182311969Y-121973908D01*
X182446381Y-121604616D01*
X182548095Y-121225015D01*
X182616337Y-120837993D01*
X182650588Y-120446496D01*
X182650588Y-120053504D01*
X182617682Y-119677380D01*
X182631449Y-119608881D01*
X182680064Y-119558698D01*
X182741210Y-119542574D01*
X183092688Y-119542574D01*
X183159727Y-119562259D01*
X183205482Y-119615063D01*
X183216688Y-119666574D01*
X183216688Y-127575500D01*
X183197003Y-127642539D01*
X183144199Y-127688294D01*
X183092688Y-127699500D01*
X123029014Y-127699500D01*
X123023607Y-127699382D01*
X122639557Y-127682615D01*
X122628781Y-127681672D01*
X122250349Y-127631851D01*
X122239696Y-127629973D01*
X121867034Y-127547356D01*
X121856585Y-127544556D01*
X121492547Y-127429776D01*
X121482382Y-127426076D01*
X121129738Y-127280007D01*
X121119933Y-127275435D01*
X120781362Y-127099186D01*
X120771994Y-127093778D01*
X120450059Y-126888684D01*
X120441198Y-126882479D01*
X120138380Y-126650119D01*
X120130093Y-126643166D01*
X119863575Y-126398948D01*
X119848655Y-126385276D01*
X119841018Y-126377638D01*
X119583145Y-126096219D01*
X119576196Y-126087939D01*
X119343815Y-125785095D01*
X119337611Y-125776233D01*
X119132522Y-125454308D01*
X119127129Y-125444968D01*
X118950867Y-125106372D01*
X118946298Y-125096574D01*
X118811373Y-124770836D01*
X118800220Y-124743911D01*
X118796531Y-124733776D01*
X118681738Y-124369702D01*
X118678949Y-124359290D01*
X118596325Y-123986599D01*
X118594452Y-123975972D01*
X118544626Y-123597507D01*
X118543686Y-123586772D01*
X118527421Y-123214230D01*
X118526928Y-123202931D01*
X118526810Y-123197522D01*
X118526810Y-119396907D01*
X119702500Y-119396907D01*
X119702500Y-119653092D01*
X119730258Y-119828346D01*
X119742574Y-119906107D01*
X119821736Y-120149743D01*
X119938037Y-120377996D01*
X120088612Y-120585245D01*
X120269755Y-120766388D01*
X120477004Y-120916963D01*
X120705257Y-121033264D01*
X120948893Y-121112426D01*
X121079249Y-121133072D01*
X121201908Y-121152500D01*
X121201913Y-121152500D01*
X121458092Y-121152500D01*
X121569908Y-121134789D01*
X121711107Y-121112426D01*
X121954743Y-121033264D01*
X121972509Y-121024212D01*
X121972511Y-121024211D01*
X122017334Y-121001371D01*
X122182996Y-120916963D01*
X122390245Y-120766388D01*
X122571388Y-120585245D01*
X122721963Y-120377996D01*
X122838264Y-120149743D01*
X122917426Y-119906107D01*
X122950588Y-119696730D01*
X122957500Y-119653092D01*
X122957500Y-119396907D01*
X122917426Y-119143894D01*
X122917426Y-119143893D01*
X122885612Y-119045979D01*
X124150000Y-119045979D01*
X124150000Y-119354020D01*
X124150001Y-119354037D01*
X124190208Y-119659442D01*
X124269940Y-119957003D01*
X124387821Y-120241596D01*
X124387828Y-120241611D01*
X124520861Y-120472030D01*
X124520862Y-120472031D01*
X125617296Y-119375596D01*
X125634586Y-119462520D01*
X125702430Y-119626310D01*
X125800924Y-119773717D01*
X125926283Y-119899076D01*
X126073690Y-119997570D01*
X126237480Y-120065414D01*
X126324402Y-120082703D01*
X125227968Y-121179137D01*
X125458389Y-121312171D01*
X125458403Y-121312178D01*
X125742996Y-121430059D01*
X126040557Y-121509791D01*
X126345962Y-121549998D01*
X126345980Y-121550000D01*
X126654020Y-121550000D01*
X126654037Y-121549998D01*
X126959442Y-121509791D01*
X127257003Y-121430059D01*
X127541599Y-121312177D01*
X127541615Y-121312169D01*
X127772030Y-121179138D01*
X127772031Y-121179136D01*
X126675598Y-120082703D01*
X126762520Y-120065414D01*
X126926310Y-119997570D01*
X127073717Y-119899076D01*
X127199076Y-119773717D01*
X127297570Y-119626310D01*
X127365414Y-119462520D01*
X127382703Y-119375597D01*
X128479136Y-120472031D01*
X128479138Y-120472030D01*
X128612169Y-120241615D01*
X128612177Y-120241599D01*
X128730059Y-119957003D01*
X128809791Y-119659442D01*
X128849998Y-119354037D01*
X128850000Y-119354020D01*
X128850000Y-119045979D01*
X129850000Y-119045979D01*
X129850000Y-119354020D01*
X129850001Y-119354037D01*
X129890208Y-119659442D01*
X129969940Y-119957003D01*
X130087821Y-120241596D01*
X130087828Y-120241611D01*
X130220861Y-120472030D01*
X130220862Y-120472031D01*
X131317296Y-119375596D01*
X131334586Y-119462520D01*
X131402430Y-119626310D01*
X131500924Y-119773717D01*
X131626283Y-119899076D01*
X131773690Y-119997570D01*
X131937480Y-120065414D01*
X132024402Y-120082703D01*
X130927968Y-121179137D01*
X131158389Y-121312171D01*
X131158403Y-121312178D01*
X131442996Y-121430059D01*
X131740557Y-121509791D01*
X132045962Y-121549998D01*
X132045980Y-121550000D01*
X132354020Y-121550000D01*
X132354037Y-121549998D01*
X132659442Y-121509791D01*
X132957003Y-121430059D01*
X133241599Y-121312177D01*
X133241615Y-121312169D01*
X133472030Y-121179138D01*
X133472031Y-121179136D01*
X132375598Y-120082703D01*
X132462520Y-120065414D01*
X132626310Y-119997570D01*
X132773717Y-119899076D01*
X132899076Y-119773717D01*
X132997570Y-119626310D01*
X133065414Y-119462520D01*
X133082703Y-119375597D01*
X134179136Y-120472031D01*
X134179138Y-120472030D01*
X134312169Y-120241615D01*
X134312177Y-120241599D01*
X134430059Y-119957003D01*
X134509791Y-119659442D01*
X134544355Y-119396907D01*
X135742500Y-119396907D01*
X135742500Y-119653092D01*
X135770258Y-119828346D01*
X135782574Y-119906107D01*
X135861736Y-120149743D01*
X135978037Y-120377996D01*
X136128612Y-120585245D01*
X136309755Y-120766388D01*
X136517004Y-120916963D01*
X136745257Y-121033264D01*
X136988893Y-121112426D01*
X137119249Y-121133072D01*
X137241908Y-121152500D01*
X137241913Y-121152500D01*
X137498092Y-121152500D01*
X137609908Y-121134789D01*
X137751107Y-121112426D01*
X137994743Y-121033264D01*
X138222996Y-120916963D01*
X138430245Y-120766388D01*
X138611388Y-120585245D01*
X138761963Y-120377996D01*
X138878264Y-120149743D01*
X138957426Y-119906107D01*
X138990588Y-119696730D01*
X138997500Y-119653092D01*
X138997500Y-119396907D01*
X138966312Y-119199999D01*
X138957426Y-119143893D01*
X138878264Y-118900257D01*
X138761963Y-118672004D01*
X138611388Y-118464755D01*
X138430245Y-118283612D01*
X138222996Y-118133037D01*
X137994743Y-118016736D01*
X137751107Y-117937574D01*
X137498092Y-117897500D01*
X137498087Y-117897500D01*
X137241913Y-117897500D01*
X137241908Y-117897500D01*
X136988892Y-117937574D01*
X136745254Y-118016737D01*
X136517003Y-118133037D01*
X136309752Y-118283614D01*
X136128614Y-118464752D01*
X135978037Y-118672003D01*
X135861737Y-118900254D01*
X135782574Y-119143892D01*
X135742500Y-119396907D01*
X134544355Y-119396907D01*
X134547126Y-119375856D01*
X134547126Y-119375854D01*
X134549999Y-119354032D01*
X134550000Y-119354020D01*
X134550000Y-119045979D01*
X134549998Y-119045962D01*
X134509791Y-118740557D01*
X134430059Y-118442996D01*
X134312178Y-118158403D01*
X134312171Y-118158389D01*
X134179137Y-117927968D01*
X133082703Y-119024401D01*
X133065414Y-118937480D01*
X132997570Y-118773690D01*
X132899076Y-118626283D01*
X132773717Y-118500924D01*
X132626310Y-118402430D01*
X132462520Y-118334586D01*
X132375597Y-118317296D01*
X133472031Y-117220862D01*
X133472030Y-117220861D01*
X133241611Y-117087828D01*
X133241596Y-117087821D01*
X132957003Y-116969940D01*
X132659442Y-116890208D01*
X132354037Y-116850001D01*
X132354020Y-116850000D01*
X132045980Y-116850000D01*
X132045962Y-116850001D01*
X131740557Y-116890208D01*
X131442996Y-116969940D01*
X131158403Y-117087821D01*
X131158381Y-117087832D01*
X130927968Y-117220859D01*
X130927967Y-117220861D01*
X132024403Y-118317296D01*
X131937480Y-118334586D01*
X131773690Y-118402430D01*
X131626283Y-118500924D01*
X131500924Y-118626283D01*
X131402430Y-118773690D01*
X131334586Y-118937480D01*
X131317296Y-119024402D01*
X130220861Y-117927967D01*
X130220859Y-117927968D01*
X130087832Y-118158381D01*
X130087821Y-118158403D01*
X129969940Y-118442996D01*
X129890208Y-118740557D01*
X129850001Y-119045962D01*
X129850000Y-119045979D01*
X128850000Y-119045979D01*
X128849998Y-119045962D01*
X128809791Y-118740557D01*
X128730059Y-118442996D01*
X128612178Y-118158403D01*
X128612171Y-118158389D01*
X128479137Y-117927968D01*
X127382703Y-119024401D01*
X127365414Y-118937480D01*
X127297570Y-118773690D01*
X127199076Y-118626283D01*
X127073717Y-118500924D01*
X126926310Y-118402430D01*
X126762520Y-118334586D01*
X126675597Y-118317296D01*
X127772031Y-117220862D01*
X127772030Y-117220861D01*
X127541611Y-117087828D01*
X127541596Y-117087821D01*
X127257003Y-116969940D01*
X126959442Y-116890208D01*
X126654037Y-116850001D01*
X126654020Y-116850000D01*
X126345980Y-116850000D01*
X126345962Y-116850001D01*
X126040557Y-116890208D01*
X125742996Y-116969940D01*
X125458403Y-117087821D01*
X125458381Y-117087832D01*
X125227968Y-117220859D01*
X125227967Y-117220861D01*
X126324403Y-118317296D01*
X126237480Y-118334586D01*
X126073690Y-118402430D01*
X125926283Y-118500924D01*
X125800924Y-118626283D01*
X125702430Y-118773690D01*
X125634586Y-118937480D01*
X125617296Y-119024402D01*
X124520861Y-117927967D01*
X124520859Y-117927968D01*
X124387832Y-118158381D01*
X124387821Y-118158403D01*
X124269940Y-118442996D01*
X124190208Y-118740557D01*
X124150001Y-119045962D01*
X124150000Y-119045979D01*
X122885612Y-119045979D01*
X122838264Y-118900257D01*
X122721963Y-118672004D01*
X122571388Y-118464755D01*
X122390245Y-118283612D01*
X122182996Y-118133037D01*
X121954743Y-118016736D01*
X121711107Y-117937574D01*
X121458092Y-117897500D01*
X121458087Y-117897500D01*
X121201913Y-117897500D01*
X121201908Y-117897500D01*
X120948892Y-117937574D01*
X120705254Y-118016737D01*
X120477003Y-118133037D01*
X120269752Y-118283614D01*
X120088614Y-118464752D01*
X119938037Y-118672003D01*
X119821737Y-118900254D01*
X119742574Y-119143892D01*
X119702500Y-119396907D01*
X118526810Y-119396907D01*
X118526810Y-95120000D01*
X119494123Y-95120000D01*
X119521979Y-95209392D01*
X119521981Y-95209396D01*
X119609927Y-95354877D01*
X119730122Y-95475072D01*
X119875603Y-95563018D01*
X120037889Y-95613589D01*
X120040000Y-95613781D01*
X120040000Y-95120000D01*
X119494123Y-95120000D01*
X118526810Y-95120000D01*
X118526810Y-77200000D01*
X121760367Y-77200000D01*
X121781653Y-77361687D01*
X121844421Y-77595939D01*
X121937220Y-77819978D01*
X121937227Y-77819993D01*
X122058480Y-78030009D01*
X122206110Y-78222405D01*
X122206116Y-78222412D01*
X122377587Y-78393883D01*
X122377594Y-78393889D01*
X122569990Y-78541519D01*
X122780006Y-78662772D01*
X122780016Y-78662776D01*
X123004051Y-78755575D01*
X123004061Y-78755578D01*
X123099999Y-78781284D01*
X123100000Y-78781284D01*
X124100000Y-78781284D01*
X124195938Y-78755578D01*
X124195948Y-78755575D01*
X124419983Y-78662776D01*
X124419993Y-78662772D01*
X124630009Y-78541519D01*
X124822405Y-78393889D01*
X124822412Y-78393883D01*
X124993883Y-78222412D01*
X124993889Y-78222405D01*
X125141519Y-78030009D01*
X125262772Y-77819993D01*
X125262779Y-77819978D01*
X125355578Y-77595939D01*
X125418346Y-77361687D01*
X125439633Y-77200000D01*
X125960367Y-77200000D01*
X125981653Y-77361687D01*
X126044421Y-77595939D01*
X126137220Y-77819978D01*
X126137227Y-77819993D01*
X126258480Y-78030009D01*
X126406110Y-78222405D01*
X126406116Y-78222412D01*
X126577587Y-78393883D01*
X126577594Y-78393889D01*
X126769990Y-78541519D01*
X126980006Y-78662772D01*
X126980016Y-78662776D01*
X127204051Y-78755575D01*
X127204061Y-78755578D01*
X127299999Y-78781284D01*
X127300000Y-78781284D01*
X128300000Y-78781284D01*
X128395938Y-78755578D01*
X128395948Y-78755575D01*
X128619983Y-78662776D01*
X128619993Y-78662772D01*
X128830009Y-78541519D01*
X129022405Y-78393889D01*
X129022412Y-78393883D01*
X129193883Y-78222412D01*
X129193889Y-78222405D01*
X129341519Y-78030009D01*
X129462772Y-77819993D01*
X129462779Y-77819978D01*
X129555578Y-77595939D01*
X129618346Y-77361687D01*
X129639633Y-77200000D01*
X138160367Y-77200000D01*
X138181653Y-77361687D01*
X138244421Y-77595939D01*
X138337220Y-77819978D01*
X138337227Y-77819993D01*
X138458480Y-78030009D01*
X138606110Y-78222405D01*
X138606116Y-78222412D01*
X138777587Y-78393883D01*
X138777594Y-78393889D01*
X138969990Y-78541519D01*
X139180006Y-78662772D01*
X139180016Y-78662776D01*
X139404051Y-78755575D01*
X139404061Y-78755578D01*
X139499999Y-78781284D01*
X139500000Y-78781284D01*
X140500000Y-78781284D01*
X140595938Y-78755578D01*
X140595948Y-78755575D01*
X140819983Y-78662776D01*
X140819993Y-78662772D01*
X141030009Y-78541519D01*
X141222405Y-78393889D01*
X141222412Y-78393883D01*
X141393883Y-78222412D01*
X141393889Y-78222405D01*
X141541519Y-78030009D01*
X141662772Y-77819993D01*
X141662779Y-77819978D01*
X141755578Y-77595939D01*
X141818346Y-77361687D01*
X141839633Y-77200000D01*
X140500000Y-77200000D01*
X140500000Y-78781284D01*
X139500000Y-78781284D01*
X139500000Y-77200000D01*
X138160367Y-77200000D01*
X129639633Y-77200000D01*
X128300000Y-77200000D01*
X128300000Y-78781284D01*
X127300000Y-78781284D01*
X127300000Y-77200000D01*
X125960367Y-77200000D01*
X125439633Y-77200000D01*
X124100000Y-77200000D01*
X124100000Y-78781284D01*
X123100000Y-78781284D01*
X123100000Y-77200000D01*
X121760367Y-77200000D01*
X118526810Y-77200000D01*
X118526810Y-76631056D01*
X122900000Y-76631056D01*
X122900000Y-76768944D01*
X122926901Y-76904182D01*
X122979668Y-77031574D01*
X123056274Y-77146224D01*
X123153776Y-77243726D01*
X123268426Y-77320332D01*
X123395818Y-77373099D01*
X123531056Y-77400000D01*
X123668944Y-77400000D01*
X123804182Y-77373099D01*
X123931574Y-77320332D01*
X124046224Y-77243726D01*
X124143726Y-77146224D01*
X124220332Y-77031574D01*
X124273099Y-76904182D01*
X124300000Y-76768944D01*
X124300000Y-76631056D01*
X127100000Y-76631056D01*
X127100000Y-76768944D01*
X127126901Y-76904182D01*
X127179668Y-77031574D01*
X127256274Y-77146224D01*
X127353776Y-77243726D01*
X127468426Y-77320332D01*
X127595818Y-77373099D01*
X127731056Y-77400000D01*
X127868944Y-77400000D01*
X128004182Y-77373099D01*
X128131574Y-77320332D01*
X128246224Y-77243726D01*
X128343726Y-77146224D01*
X128420332Y-77031574D01*
X128473099Y-76904182D01*
X128500000Y-76768944D01*
X128500000Y-76631056D01*
X139300000Y-76631056D01*
X139300000Y-76768944D01*
X139326901Y-76904182D01*
X139379668Y-77031574D01*
X139456274Y-77146224D01*
X139553776Y-77243726D01*
X139668426Y-77320332D01*
X139795818Y-77373099D01*
X139931056Y-77400000D01*
X140068944Y-77400000D01*
X140204182Y-77373099D01*
X140331574Y-77320332D01*
X140446224Y-77243726D01*
X140543726Y-77146224D01*
X140620332Y-77031574D01*
X140673099Y-76904182D01*
X140700000Y-76768944D01*
X140700000Y-76631056D01*
X140673099Y-76495818D01*
X140620332Y-76368426D01*
X140543726Y-76253776D01*
X140489950Y-76200000D01*
X140500000Y-76200000D01*
X141839633Y-76200000D01*
X141818346Y-76038312D01*
X141755578Y-75804060D01*
X141662779Y-75580021D01*
X141662772Y-75580006D01*
X141541519Y-75369990D01*
X141393889Y-75177594D01*
X141393883Y-75177587D01*
X141222412Y-75006116D01*
X141222405Y-75006110D01*
X141030009Y-74858480D01*
X140819993Y-74737227D01*
X140819978Y-74737220D01*
X140595939Y-74644421D01*
X140500000Y-74618714D01*
X140500000Y-76200000D01*
X140489950Y-76200000D01*
X140446224Y-76156274D01*
X140331574Y-76079668D01*
X140204182Y-76026901D01*
X140068944Y-76000000D01*
X139931056Y-76000000D01*
X139795818Y-76026901D01*
X139668426Y-76079668D01*
X139553776Y-76156274D01*
X139456274Y-76253776D01*
X139379668Y-76368426D01*
X139326901Y-76495818D01*
X139300000Y-76631056D01*
X128500000Y-76631056D01*
X128473099Y-76495818D01*
X128420332Y-76368426D01*
X128343726Y-76253776D01*
X128289950Y-76200000D01*
X128300000Y-76200000D01*
X129639633Y-76200000D01*
X138160366Y-76200000D01*
X139500000Y-76200000D01*
X139500000Y-74618714D01*
X139499999Y-74618714D01*
X139404060Y-74644421D01*
X139180021Y-74737220D01*
X139180006Y-74737227D01*
X138969990Y-74858480D01*
X138777594Y-75006110D01*
X138777587Y-75006116D01*
X138606116Y-75177587D01*
X138606110Y-75177594D01*
X138458480Y-75369990D01*
X138337227Y-75580006D01*
X138337220Y-75580021D01*
X138244421Y-75804060D01*
X138181653Y-76038312D01*
X138160366Y-76200000D01*
X129639633Y-76200000D01*
X129618346Y-76038312D01*
X129555578Y-75804060D01*
X129462779Y-75580021D01*
X129462772Y-75580006D01*
X129341519Y-75369990D01*
X129193889Y-75177594D01*
X129193883Y-75177587D01*
X129022412Y-75006116D01*
X129022405Y-75006110D01*
X128830009Y-74858480D01*
X128619993Y-74737227D01*
X128619978Y-74737220D01*
X128395939Y-74644421D01*
X128300000Y-74618714D01*
X128300000Y-76200000D01*
X128289950Y-76200000D01*
X128246224Y-76156274D01*
X128131574Y-76079668D01*
X128004182Y-76026901D01*
X127868944Y-76000000D01*
X127731056Y-76000000D01*
X127595818Y-76026901D01*
X127468426Y-76079668D01*
X127353776Y-76156274D01*
X127256274Y-76253776D01*
X127179668Y-76368426D01*
X127126901Y-76495818D01*
X127100000Y-76631056D01*
X124300000Y-76631056D01*
X124273099Y-76495818D01*
X124220332Y-76368426D01*
X124143726Y-76253776D01*
X124089950Y-76200000D01*
X124100000Y-76200000D01*
X125439633Y-76200000D01*
X125960366Y-76200000D01*
X127300000Y-76200000D01*
X127300000Y-74618714D01*
X127299999Y-74618714D01*
X127204060Y-74644421D01*
X126980021Y-74737220D01*
X126980006Y-74737227D01*
X126769990Y-74858480D01*
X126577594Y-75006110D01*
X126577587Y-75006116D01*
X126406116Y-75177587D01*
X126406110Y-75177594D01*
X126258480Y-75369990D01*
X126137227Y-75580006D01*
X126137220Y-75580021D01*
X126044421Y-75804060D01*
X125981653Y-76038312D01*
X125960366Y-76200000D01*
X125439633Y-76200000D01*
X125418346Y-76038312D01*
X125355578Y-75804060D01*
X125262779Y-75580021D01*
X125262772Y-75580006D01*
X125141519Y-75369990D01*
X124993889Y-75177594D01*
X124993883Y-75177587D01*
X124822412Y-75006116D01*
X124822405Y-75006110D01*
X124630009Y-74858480D01*
X124419993Y-74737227D01*
X124419978Y-74737220D01*
X124195939Y-74644421D01*
X124100000Y-74618714D01*
X124100000Y-76200000D01*
X124089950Y-76200000D01*
X124046224Y-76156274D01*
X123931574Y-76079668D01*
X123804182Y-76026901D01*
X123668944Y-76000000D01*
X123531056Y-76000000D01*
X123395818Y-76026901D01*
X123268426Y-76079668D01*
X123153776Y-76156274D01*
X123056274Y-76253776D01*
X122979668Y-76368426D01*
X122926901Y-76495818D01*
X122900000Y-76631056D01*
X118526810Y-76631056D01*
X118526810Y-76200000D01*
X121760366Y-76200000D01*
X123100000Y-76200000D01*
X123100000Y-74618714D01*
X123099999Y-74618714D01*
X123004060Y-74644421D01*
X122780021Y-74737220D01*
X122780006Y-74737227D01*
X122569990Y-74858480D01*
X122377594Y-75006110D01*
X122377587Y-75006116D01*
X122206116Y-75177587D01*
X122206110Y-75177594D01*
X122058480Y-75369990D01*
X121937227Y-75580006D01*
X121937220Y-75580021D01*
X121844421Y-75804060D01*
X121781653Y-76038312D01*
X121760366Y-76200000D01*
X118526810Y-76200000D01*
X118526810Y-72602706D01*
X118526928Y-72597297D01*
X118543696Y-72213226D01*
X118544636Y-72202495D01*
X118594462Y-71824026D01*
X118596335Y-71813406D01*
X118678959Y-71440710D01*
X118681750Y-71430296D01*
X118796539Y-71066229D01*
X118800227Y-71056097D01*
X118946313Y-70703414D01*
X118950871Y-70693640D01*
X119127143Y-70355026D01*
X119132519Y-70345715D01*
X119337637Y-70023745D01*
X119343821Y-70014913D01*
X119576206Y-69712064D01*
X119583144Y-69703795D01*
X119841036Y-69422356D01*
X119848662Y-69414730D01*
X120130101Y-69156838D01*
X120138370Y-69149900D01*
X120441214Y-68917520D01*
X120450054Y-68911330D01*
X120772010Y-68706222D01*
X120781364Y-68700823D01*
X121119950Y-68524566D01*
X121129719Y-68520010D01*
X121482414Y-68373920D01*
X121492528Y-68370239D01*
X121856605Y-68255447D01*
X121867019Y-68252656D01*
X122239719Y-68170032D01*
X122250330Y-68168161D01*
X122628805Y-68118334D01*
X122639535Y-68117395D01*
X122907693Y-68105688D01*
X123023845Y-68100618D01*
X123029253Y-68100500D01*
X123092201Y-68100500D01*
X182476000Y-68100500D01*
X182543039Y-68120185D01*
G37*
%TD.AperFunction*%
%TA.AperFunction,Conductor*%
G36*
X204220070Y-89380997D02*
G01*
X204224190Y-89382619D01*
X204245597Y-89391486D01*
X204245599Y-89391486D01*
X204245605Y-89391489D01*
X204574732Y-89491329D01*
X204912060Y-89558428D01*
X205254341Y-89592139D01*
X205254344Y-89592139D01*
X205598276Y-89592139D01*
X205598279Y-89592139D01*
X205940560Y-89558428D01*
X206209661Y-89504900D01*
X206279252Y-89511127D01*
X206334429Y-89553990D01*
X206357674Y-89619880D01*
X206357849Y-89627384D01*
X206199837Y-112223146D01*
X206199838Y-112223145D01*
X206199838Y-112223147D01*
X213775484Y-112113563D01*
X213842800Y-112132276D01*
X213863411Y-112148349D01*
X214205749Y-112478941D01*
X214308069Y-112563289D01*
X214308074Y-112563291D01*
X214311728Y-112566304D01*
X214350935Y-112624136D01*
X214356853Y-112661985D01*
X214356853Y-115639752D01*
X214337168Y-115706791D01*
X214284364Y-115752546D01*
X214222046Y-115763280D01*
X214064537Y-115749500D01*
X214064533Y-115749500D01*
X213671541Y-115749500D01*
X213671536Y-115749500D01*
X213280041Y-115783751D01*
X213280037Y-115783751D01*
X212893031Y-115851991D01*
X212893020Y-115851993D01*
X212696522Y-115904645D01*
X212513421Y-115953707D01*
X212513418Y-115953708D01*
X212513417Y-115953708D01*
X212144115Y-116088124D01*
X211787974Y-116254195D01*
X211787950Y-116254207D01*
X211447624Y-116450695D01*
X211447609Y-116450704D01*
X211125689Y-116676115D01*
X210824643Y-116928724D01*
X210546761Y-117206606D01*
X210294152Y-117507652D01*
X210068741Y-117829572D01*
X210068732Y-117829587D01*
X209872244Y-118169913D01*
X209872232Y-118169937D01*
X209706161Y-118526078D01*
X209576568Y-118882131D01*
X209571744Y-118895384D01*
X209531397Y-119045962D01*
X209470030Y-119274983D01*
X209470028Y-119274994D01*
X209401788Y-119662000D01*
X209401788Y-119662004D01*
X209367537Y-120053499D01*
X209367537Y-120446500D01*
X209401788Y-120837995D01*
X209401788Y-120837999D01*
X209464480Y-121193541D01*
X209470030Y-121225015D01*
X209571744Y-121604616D01*
X209571745Y-121604618D01*
X209571745Y-121604619D01*
X209706161Y-121973921D01*
X209872232Y-122330062D01*
X209872244Y-122330086D01*
X210068732Y-122670412D01*
X210068741Y-122670427D01*
X210294152Y-122992347D01*
X210466123Y-123197293D01*
X210546759Y-123293391D01*
X210824646Y-123571278D01*
X210855930Y-123597528D01*
X211125689Y-123823884D01*
X211125695Y-123823888D01*
X211125696Y-123823889D01*
X211447616Y-124049300D01*
X211787957Y-124245796D01*
X211787971Y-124245802D01*
X211787974Y-124245804D01*
X212144115Y-124411875D01*
X212144120Y-124411876D01*
X212144129Y-124411881D01*
X212513421Y-124546293D01*
X212893022Y-124648007D01*
X213280044Y-124716249D01*
X213671539Y-124750499D01*
X213671540Y-124750500D01*
X213671541Y-124750500D01*
X214064534Y-124750500D01*
X214064534Y-124750499D01*
X214456030Y-124716249D01*
X214843052Y-124648007D01*
X215222653Y-124546293D01*
X215591945Y-124411881D01*
X215948117Y-124245796D01*
X216288458Y-124049300D01*
X216610378Y-123823889D01*
X216911428Y-123571278D01*
X217189315Y-123293391D01*
X217441926Y-122992341D01*
X217667337Y-122670421D01*
X217863833Y-122330080D01*
X218029918Y-121973908D01*
X218164330Y-121604616D01*
X218266044Y-121225015D01*
X218334286Y-120837993D01*
X218368537Y-120446496D01*
X218368537Y-120053504D01*
X218334286Y-119662007D01*
X218332642Y-119652685D01*
X218299111Y-119462520D01*
X218266044Y-119274985D01*
X218164330Y-118895384D01*
X218029918Y-118526092D01*
X218029913Y-118526083D01*
X218029912Y-118526078D01*
X217863841Y-118169937D01*
X217863829Y-118169913D01*
X217813509Y-118082757D01*
X217667337Y-117829579D01*
X217441926Y-117507659D01*
X217441925Y-117507658D01*
X217441921Y-117507652D01*
X217212697Y-117234475D01*
X217189315Y-117206609D01*
X217189312Y-117206606D01*
X217187576Y-117204537D01*
X217188439Y-117203812D01*
X217159639Y-117145023D01*
X217157853Y-117124053D01*
X217157853Y-112186856D01*
X217177538Y-112119817D01*
X217230342Y-112074062D01*
X217280057Y-112062869D01*
X221000021Y-112009059D01*
X221067334Y-112027771D01*
X221113848Y-112079907D01*
X221125810Y-112133045D01*
X221125810Y-123197293D01*
X221125692Y-123202702D01*
X221108924Y-123586752D01*
X221107981Y-123597528D01*
X221058160Y-123975956D01*
X221056282Y-123986610D01*
X220973663Y-124359276D01*
X220970863Y-124369724D01*
X220856085Y-124733756D01*
X220852385Y-124743922D01*
X220706312Y-125096574D01*
X220701740Y-125106378D01*
X220525493Y-125444944D01*
X220520085Y-125454312D01*
X220314991Y-125776247D01*
X220308786Y-125785108D01*
X220076426Y-126087926D01*
X220069473Y-126096213D01*
X219811589Y-126377645D01*
X219803939Y-126385294D01*
X219522532Y-126643156D01*
X219514246Y-126650110D01*
X219211402Y-126882491D01*
X219202540Y-126888695D01*
X218880629Y-127093776D01*
X218871261Y-127099185D01*
X218532686Y-127275436D01*
X218522882Y-127280008D01*
X218170233Y-127426081D01*
X218160068Y-127429781D01*
X217796031Y-127544562D01*
X217785582Y-127547362D01*
X217412919Y-127629980D01*
X217402266Y-127631858D01*
X217023837Y-127681680D01*
X217013060Y-127682623D01*
X216629240Y-127699382D01*
X216623831Y-127699500D01*
X194521798Y-127699500D01*
X194454759Y-127679815D01*
X194409004Y-127627011D01*
X194397799Y-127575940D01*
X194369487Y-119545898D01*
X194388935Y-119478792D01*
X194441577Y-119432851D01*
X194510700Y-119422664D01*
X194562377Y-119442361D01*
X194700421Y-119534599D01*
X194700430Y-119534604D01*
X194700432Y-119534605D01*
X195003738Y-119696726D01*
X195003740Y-119696726D01*
X195003746Y-119696730D01*
X195321503Y-119828349D01*
X195650630Y-119928189D01*
X195987958Y-119995288D01*
X196330239Y-120028999D01*
X196330242Y-120028999D01*
X196674174Y-120028999D01*
X196674177Y-120028999D01*
X197016458Y-119995288D01*
X197353786Y-119928189D01*
X197682913Y-119828349D01*
X198000670Y-119696730D01*
X198303995Y-119534599D01*
X198589968Y-119343518D01*
X198855835Y-119125327D01*
X199099036Y-118882126D01*
X199317227Y-118616259D01*
X199508308Y-118330286D01*
X199670439Y-118026961D01*
X199802058Y-117709204D01*
X199901898Y-117380077D01*
X199968997Y-117042749D01*
X200002708Y-116700468D01*
X200002708Y-116356530D01*
X199968997Y-116014249D01*
X199901898Y-115676921D01*
X199802058Y-115347794D01*
X199670439Y-115030037D01*
X199663561Y-115017170D01*
X199508314Y-114726723D01*
X199508313Y-114726721D01*
X199508308Y-114726712D01*
X199317227Y-114440739D01*
X199099036Y-114174872D01*
X199099035Y-114174871D01*
X199099031Y-114174866D01*
X198855840Y-113931675D01*
X198589973Y-113713484D01*
X198589972Y-113713483D01*
X198589968Y-113713480D01*
X198303995Y-113522399D01*
X198303990Y-113522396D01*
X198303983Y-113522392D01*
X198000677Y-113360271D01*
X198000672Y-113360269D01*
X197682914Y-113228649D01*
X197353780Y-113128807D01*
X197016456Y-113061709D01*
X197016457Y-113061709D01*
X196758664Y-113036320D01*
X196674177Y-113027999D01*
X196330239Y-113027999D01*
X196252174Y-113035687D01*
X195987958Y-113061709D01*
X195650635Y-113128807D01*
X195321498Y-113228650D01*
X195300085Y-113237520D01*
X195230616Y-113244987D01*
X195168137Y-113213711D01*
X195164954Y-113210639D01*
X193246291Y-111291976D01*
X193246282Y-111291966D01*
X193234683Y-111280367D01*
X193086074Y-111131758D01*
X193086070Y-111131755D01*
X193086066Y-111131751D01*
X192907734Y-111002187D01*
X192907733Y-111002186D01*
X192907731Y-111002185D01*
X192811105Y-110952951D01*
X192711315Y-110902104D01*
X192711312Y-110902103D01*
X192501661Y-110833985D01*
X192337577Y-110807996D01*
X192283931Y-110799499D01*
X192063487Y-110799499D01*
X192058376Y-110799499D01*
X192058352Y-110799500D01*
X166630476Y-110799500D01*
X166563437Y-110779815D01*
X166517682Y-110727011D01*
X166507738Y-110657853D01*
X166536763Y-110594297D01*
X166595541Y-110556523D01*
X166618322Y-110552097D01*
X166684110Y-110545617D01*
X166758509Y-110538290D01*
X167095837Y-110471191D01*
X167424964Y-110371351D01*
X167742721Y-110239732D01*
X168046046Y-110077601D01*
X168332019Y-109886520D01*
X168597886Y-109668329D01*
X168841087Y-109425128D01*
X169059278Y-109159261D01*
X169250359Y-108873288D01*
X169412490Y-108569963D01*
X169544109Y-108252206D01*
X169643949Y-107923079D01*
X169711048Y-107585751D01*
X169744759Y-107243470D01*
X169744759Y-106899532D01*
X169711048Y-106557251D01*
X169668897Y-106345346D01*
X169643950Y-106219928D01*
X169643949Y-106219927D01*
X169643949Y-106219923D01*
X169544109Y-105890796D01*
X169412490Y-105573039D01*
X169287435Y-105339079D01*
X169250365Y-105269725D01*
X169250364Y-105269723D01*
X169250359Y-105269714D01*
X169182389Y-105167989D01*
X169116707Y-105069689D01*
X169072483Y-105003504D01*
X169072480Y-105003499D01*
X183300173Y-105003499D01*
X183300173Y-105396500D01*
X183334424Y-105787995D01*
X183334424Y-105787999D01*
X183402664Y-106175005D01*
X183402666Y-106175016D01*
X183414699Y-106219923D01*
X183504380Y-106554616D01*
X183604932Y-106830880D01*
X183638797Y-106923921D01*
X183804868Y-107280062D01*
X183804880Y-107280086D01*
X183942993Y-107519305D01*
X183992758Y-107605500D01*
X184001368Y-107620412D01*
X184001377Y-107620427D01*
X184226788Y-107942347D01*
X184419466Y-108171971D01*
X184479395Y-108243391D01*
X184757282Y-108521278D01*
X184815303Y-108569963D01*
X185058325Y-108773884D01*
X185058331Y-108773888D01*
X185058332Y-108773889D01*
X185380252Y-108999300D01*
X185720593Y-109195796D01*
X185720607Y-109195802D01*
X185720610Y-109195804D01*
X186076751Y-109361875D01*
X186076756Y-109361876D01*
X186076765Y-109361881D01*
X186446057Y-109496293D01*
X186825658Y-109598007D01*
X187212680Y-109666249D01*
X187604175Y-109700499D01*
X187604176Y-109700500D01*
X187604177Y-109700500D01*
X187997170Y-109700500D01*
X187997170Y-109700499D01*
X188388666Y-109666249D01*
X188775688Y-109598007D01*
X189155289Y-109496293D01*
X189524581Y-109361881D01*
X189880753Y-109195796D01*
X190221094Y-108999300D01*
X190543014Y-108773889D01*
X190844064Y-108521278D01*
X191121951Y-108243391D01*
X191374562Y-107942341D01*
X191599973Y-107620421D01*
X191796469Y-107280080D01*
X191962554Y-106923908D01*
X192096966Y-106554616D01*
X192198680Y-106175015D01*
X192266922Y-105787993D01*
X192301173Y-105396496D01*
X192301173Y-105003504D01*
X192266922Y-104612007D01*
X192264612Y-104598909D01*
X192225327Y-104376109D01*
X192198680Y-104224985D01*
X192096966Y-103845384D01*
X191962554Y-103476092D01*
X191962549Y-103476083D01*
X191962548Y-103476078D01*
X191796477Y-103119937D01*
X191796465Y-103119913D01*
X191767936Y-103070500D01*
X191599973Y-102779579D01*
X191374562Y-102457659D01*
X191374561Y-102457658D01*
X191374557Y-102457652D01*
X191121948Y-102156606D01*
X190844066Y-101878724D01*
X190827579Y-101864890D01*
X190732685Y-101785264D01*
X190543020Y-101626115D01*
X190221100Y-101400704D01*
X190221097Y-101400702D01*
X190221094Y-101400700D01*
X190101525Y-101331667D01*
X189880759Y-101204207D01*
X189880735Y-101204195D01*
X189524594Y-101038124D01*
X189524583Y-101038120D01*
X189524581Y-101038119D01*
X189155289Y-100903707D01*
X188865328Y-100826012D01*
X188775689Y-100801993D01*
X188775678Y-100801991D01*
X188388670Y-100733751D01*
X187997173Y-100699500D01*
X187997169Y-100699500D01*
X187604177Y-100699500D01*
X187604172Y-100699500D01*
X187212677Y-100733751D01*
X187212673Y-100733751D01*
X186825667Y-100801991D01*
X186825656Y-100801993D01*
X186622228Y-100856502D01*
X186446057Y-100903707D01*
X186446054Y-100903708D01*
X186446053Y-100903708D01*
X186076751Y-101038124D01*
X185720610Y-101204195D01*
X185720586Y-101204207D01*
X185380260Y-101400695D01*
X185380245Y-101400704D01*
X185058325Y-101626115D01*
X184757279Y-101878724D01*
X184479397Y-102156606D01*
X184226788Y-102457652D01*
X184001377Y-102779572D01*
X184001368Y-102779587D01*
X183804880Y-103119913D01*
X183804868Y-103119937D01*
X183638797Y-103476078D01*
X183505460Y-103842418D01*
X183504380Y-103845384D01*
X183488869Y-103903273D01*
X183402666Y-104224983D01*
X183402664Y-104224994D01*
X183334424Y-104612000D01*
X183334424Y-104612004D01*
X183300173Y-105003499D01*
X169072480Y-105003499D01*
X169059278Y-104983741D01*
X168841087Y-104717874D01*
X168841086Y-104717873D01*
X168841082Y-104717868D01*
X168597891Y-104474677D01*
X168332024Y-104256486D01*
X168332023Y-104256485D01*
X168332019Y-104256482D01*
X168046046Y-104065401D01*
X168046041Y-104065398D01*
X168046034Y-104065394D01*
X167742728Y-103903273D01*
X167742723Y-103903271D01*
X167424965Y-103771651D01*
X167095831Y-103671809D01*
X166758507Y-103604711D01*
X166758508Y-103604711D01*
X166491688Y-103578433D01*
X166416228Y-103571001D01*
X166072290Y-103571001D01*
X165996830Y-103578433D01*
X165730009Y-103604711D01*
X165392686Y-103671809D01*
X165063549Y-103771652D01*
X165042136Y-103780522D01*
X164972667Y-103787989D01*
X164910188Y-103756713D01*
X164907005Y-103753641D01*
X160765545Y-99612181D01*
X160732060Y-99550858D01*
X160737044Y-99481166D01*
X160778916Y-99425233D01*
X160844380Y-99400816D01*
X160853226Y-99400500D01*
X192259239Y-99400500D01*
X192326278Y-99420185D01*
X192346920Y-99436819D01*
X198644348Y-105734247D01*
X198677833Y-105795570D01*
X198672849Y-105865262D01*
X198671229Y-105869378D01*
X198662359Y-105890791D01*
X198562516Y-106219928D01*
X198495418Y-106557251D01*
X198477881Y-106735317D01*
X198461708Y-106899532D01*
X198461708Y-107243470D01*
X198467276Y-107300000D01*
X198495418Y-107585750D01*
X198562516Y-107923073D01*
X198662358Y-108252207D01*
X198793978Y-108569965D01*
X198793980Y-108569970D01*
X198956101Y-108873276D01*
X198956112Y-108873294D01*
X199147183Y-109159252D01*
X199147193Y-109159266D01*
X199365384Y-109425133D01*
X199608575Y-109668324D01*
X199608580Y-109668328D01*
X199608581Y-109668329D01*
X199874448Y-109886520D01*
X200160421Y-110077601D01*
X200160430Y-110077606D01*
X200160432Y-110077607D01*
X200463738Y-110239728D01*
X200463740Y-110239728D01*
X200463746Y-110239732D01*
X200781503Y-110371351D01*
X201110630Y-110471191D01*
X201447958Y-110538290D01*
X201790239Y-110572001D01*
X201790242Y-110572001D01*
X202134174Y-110572001D01*
X202134177Y-110572001D01*
X202476458Y-110538290D01*
X202813786Y-110471191D01*
X203142913Y-110371351D01*
X203460670Y-110239732D01*
X203763995Y-110077601D01*
X204049968Y-109886520D01*
X204315835Y-109668329D01*
X204559036Y-109425128D01*
X204777227Y-109159261D01*
X204968308Y-108873288D01*
X205130439Y-108569963D01*
X205262058Y-108252206D01*
X205361898Y-107923079D01*
X205428997Y-107585751D01*
X205462708Y-107243470D01*
X205462708Y-106899532D01*
X205428997Y-106557251D01*
X205386846Y-106345346D01*
X205361899Y-106219928D01*
X205361898Y-106219927D01*
X205361898Y-106219923D01*
X205262058Y-105890796D01*
X205130439Y-105573039D01*
X205005384Y-105339079D01*
X204968314Y-105269725D01*
X204968313Y-105269723D01*
X204968308Y-105269714D01*
X204777227Y-104983741D01*
X204559036Y-104717874D01*
X204559035Y-104717873D01*
X204559031Y-104717868D01*
X204315840Y-104474677D01*
X204049973Y-104256486D01*
X204049972Y-104256485D01*
X204049968Y-104256482D01*
X203763995Y-104065401D01*
X203763990Y-104065398D01*
X203763983Y-104065394D01*
X203460677Y-103903273D01*
X203460672Y-103903271D01*
X203142914Y-103771651D01*
X202813780Y-103671809D01*
X202476456Y-103604711D01*
X202476457Y-103604711D01*
X202209637Y-103578433D01*
X202134177Y-103571001D01*
X201790239Y-103571001D01*
X201714779Y-103578433D01*
X201447958Y-103604711D01*
X201110635Y-103671809D01*
X200781498Y-103771652D01*
X200760085Y-103780522D01*
X200690616Y-103787989D01*
X200628137Y-103756713D01*
X200624954Y-103753641D01*
X195272614Y-98401301D01*
X195239129Y-98339978D01*
X195244113Y-98270286D01*
X195272610Y-98225944D01*
X204089057Y-89409496D01*
X204150378Y-89376013D01*
X204220070Y-89380997D01*
G37*
%TD.AperFunction*%
%TA.AperFunction,Conductor*%
G36*
X142870752Y-99420185D02*
G01*
X142916507Y-99472989D01*
X142927713Y-99524500D01*
X142927713Y-109302668D01*
X142908028Y-109369707D01*
X142891394Y-109390349D01*
X141630808Y-110650934D01*
X141630795Y-110650948D01*
X141544683Y-110751772D01*
X141544682Y-110751772D01*
X141429233Y-110945003D01*
X141429232Y-110945005D01*
X141350138Y-111155747D01*
X141350138Y-111155748D01*
X141309947Y-111377220D01*
X141309947Y-111602321D01*
X141350138Y-111823793D01*
X141350138Y-111823794D01*
X141363687Y-111859894D01*
X141429231Y-112034535D01*
X141544682Y-112227768D01*
X141630801Y-112328600D01*
X143701516Y-114399315D01*
X143787616Y-114472852D01*
X143802346Y-114485432D01*
X143802346Y-114485433D01*
X143802348Y-114485434D01*
X143995581Y-114600885D01*
X144206321Y-114679977D01*
X144427794Y-114720169D01*
X144427798Y-114720169D01*
X144652895Y-114720169D01*
X144786273Y-114695964D01*
X144874369Y-114679977D01*
X145085109Y-114600885D01*
X145278342Y-114485434D01*
X145379174Y-114399315D01*
X146012744Y-113765745D01*
X147099161Y-113765745D01*
X148217298Y-114883883D01*
X148217299Y-114883883D01*
X149164562Y-113936619D01*
X149035171Y-113837333D01*
X148825167Y-113716089D01*
X148825145Y-113716078D01*
X148601106Y-113623279D01*
X148366855Y-113560511D01*
X148126432Y-113528859D01*
X148126416Y-113528858D01*
X147883920Y-113528858D01*
X147883903Y-113528859D01*
X147643480Y-113560511D01*
X147409229Y-113623279D01*
X147185190Y-113716078D01*
X147185180Y-113716083D01*
X147099161Y-113765745D01*
X146012744Y-113765745D01*
X147025625Y-112752864D01*
X147111744Y-112652032D01*
X147227195Y-112458799D01*
X147306287Y-112248059D01*
X147327159Y-112133045D01*
X147346479Y-112026585D01*
X147346479Y-111801484D01*
X147310335Y-111602318D01*
X147306287Y-111580011D01*
X147227195Y-111369271D01*
X147111744Y-111176038D01*
X147025625Y-111075206D01*
X145765032Y-109814613D01*
X145731547Y-109753290D01*
X145728713Y-109726932D01*
X145728713Y-105003499D01*
X147582224Y-105003499D01*
X147582224Y-105396500D01*
X147616475Y-105787995D01*
X147616475Y-105787999D01*
X147684715Y-106175005D01*
X147684717Y-106175016D01*
X147696750Y-106219923D01*
X147786431Y-106554616D01*
X147886983Y-106830880D01*
X147920848Y-106923921D01*
X148086919Y-107280062D01*
X148086931Y-107280086D01*
X148225044Y-107519305D01*
X148274809Y-107605500D01*
X148283419Y-107620412D01*
X148283428Y-107620427D01*
X148508839Y-107942347D01*
X148701517Y-108171971D01*
X148761446Y-108243391D01*
X149039333Y-108521278D01*
X149097354Y-108569963D01*
X149340376Y-108773884D01*
X149340382Y-108773888D01*
X149340383Y-108773889D01*
X149662303Y-108999300D01*
X150002644Y-109195796D01*
X150002658Y-109195802D01*
X150002661Y-109195804D01*
X150358802Y-109361875D01*
X150358807Y-109361876D01*
X150358816Y-109361881D01*
X150728108Y-109496293D01*
X151107709Y-109598007D01*
X151494731Y-109666249D01*
X151886226Y-109700499D01*
X151886227Y-109700500D01*
X151886228Y-109700500D01*
X152279221Y-109700500D01*
X152279221Y-109700499D01*
X152670717Y-109666249D01*
X153057739Y-109598007D01*
X153437340Y-109496293D01*
X153806632Y-109361881D01*
X154162804Y-109195796D01*
X154503145Y-108999300D01*
X154825065Y-108773889D01*
X155126115Y-108521278D01*
X155404002Y-108243391D01*
X155656613Y-107942341D01*
X155882024Y-107620421D01*
X156078520Y-107280080D01*
X156244605Y-106923908D01*
X156379017Y-106554616D01*
X156480731Y-106175015D01*
X156548973Y-105787993D01*
X156583224Y-105396496D01*
X156583224Y-105003504D01*
X156548973Y-104612007D01*
X156546663Y-104598909D01*
X156507378Y-104376109D01*
X156480731Y-104224985D01*
X156379017Y-103845384D01*
X156244605Y-103476092D01*
X156244600Y-103476083D01*
X156244599Y-103476078D01*
X156078528Y-103119937D01*
X156078516Y-103119913D01*
X156049987Y-103070500D01*
X155882024Y-102779579D01*
X155656613Y-102457659D01*
X155656612Y-102457658D01*
X155656608Y-102457652D01*
X155403999Y-102156606D01*
X155126117Y-101878724D01*
X155109630Y-101864890D01*
X155014736Y-101785264D01*
X154825071Y-101626115D01*
X154503151Y-101400704D01*
X154503148Y-101400702D01*
X154503145Y-101400700D01*
X154383576Y-101331667D01*
X154162810Y-101204207D01*
X154162786Y-101204195D01*
X153806645Y-101038124D01*
X153806634Y-101038120D01*
X153806632Y-101038119D01*
X153437340Y-100903707D01*
X153147379Y-100826012D01*
X153057740Y-100801993D01*
X153057729Y-100801991D01*
X152670721Y-100733751D01*
X152279224Y-100699500D01*
X152279220Y-100699500D01*
X151886228Y-100699500D01*
X151886223Y-100699500D01*
X151494728Y-100733751D01*
X151494724Y-100733751D01*
X151107718Y-100801991D01*
X151107707Y-100801993D01*
X150904279Y-100856502D01*
X150728108Y-100903707D01*
X150728105Y-100903708D01*
X150728104Y-100903708D01*
X150358802Y-101038124D01*
X150002661Y-101204195D01*
X150002637Y-101204207D01*
X149662311Y-101400695D01*
X149662296Y-101400704D01*
X149340376Y-101626115D01*
X149039330Y-101878724D01*
X148761448Y-102156606D01*
X148508839Y-102457652D01*
X148283428Y-102779572D01*
X148283419Y-102779587D01*
X148086931Y-103119913D01*
X148086919Y-103119937D01*
X147920848Y-103476078D01*
X147787511Y-103842418D01*
X147786431Y-103845384D01*
X147770920Y-103903273D01*
X147684717Y-104224983D01*
X147684715Y-104224994D01*
X147616475Y-104612000D01*
X147616475Y-104612004D01*
X147582224Y-105003499D01*
X145728713Y-105003499D01*
X145728713Y-99524500D01*
X145748398Y-99457461D01*
X145801202Y-99411706D01*
X145852713Y-99400500D01*
X156541290Y-99400500D01*
X156608329Y-99420185D01*
X156628971Y-99436819D01*
X162926399Y-105734247D01*
X162959884Y-105795570D01*
X162954900Y-105865262D01*
X162953280Y-105869378D01*
X162944410Y-105890791D01*
X162844567Y-106219928D01*
X162777469Y-106557251D01*
X162759932Y-106735317D01*
X162743759Y-106899532D01*
X162743759Y-107243470D01*
X162749327Y-107300000D01*
X162777469Y-107585750D01*
X162844567Y-107923073D01*
X162944409Y-108252207D01*
X163076029Y-108569965D01*
X163076031Y-108569970D01*
X163238152Y-108873276D01*
X163238163Y-108873294D01*
X163429234Y-109159252D01*
X163429244Y-109159266D01*
X163647435Y-109425133D01*
X163890626Y-109668324D01*
X163890631Y-109668328D01*
X163890632Y-109668329D01*
X164156499Y-109886520D01*
X164442472Y-110077601D01*
X164442481Y-110077606D01*
X164442483Y-110077607D01*
X164745789Y-110239728D01*
X164745791Y-110239728D01*
X164745797Y-110239732D01*
X165063554Y-110371351D01*
X165392681Y-110471191D01*
X165730009Y-110538290D01*
X165870196Y-110552097D01*
X165934983Y-110578258D01*
X165975342Y-110635292D01*
X165978459Y-110705092D01*
X165943345Y-110765497D01*
X165881147Y-110797328D01*
X165858042Y-110799500D01*
X165228115Y-110799500D01*
X165228091Y-110799499D01*
X165222980Y-110799499D01*
X165002536Y-110799499D01*
X164948928Y-110807990D01*
X164784805Y-110833985D01*
X164575154Y-110902103D01*
X164575151Y-110902104D01*
X164378732Y-111002187D01*
X164200399Y-111131752D01*
X164200394Y-111131756D01*
X164044513Y-111287638D01*
X162121512Y-113210638D01*
X162060189Y-113244123D01*
X161990497Y-113239139D01*
X161986381Y-113237519D01*
X161964972Y-113228651D01*
X161635831Y-113128807D01*
X161298507Y-113061709D01*
X161298508Y-113061709D01*
X161040715Y-113036320D01*
X160956228Y-113027999D01*
X160612290Y-113027999D01*
X160534225Y-113035687D01*
X160270009Y-113061709D01*
X159932686Y-113128807D01*
X159603552Y-113228649D01*
X159285794Y-113360269D01*
X159285789Y-113360271D01*
X158982483Y-113522392D01*
X158982465Y-113522403D01*
X158696507Y-113713474D01*
X158696493Y-113713484D01*
X158430626Y-113931675D01*
X158187435Y-114174866D01*
X157969244Y-114440733D01*
X157969234Y-114440747D01*
X157778163Y-114726705D01*
X157778152Y-114726723D01*
X157616031Y-115030029D01*
X157616029Y-115030034D01*
X157484409Y-115347792D01*
X157384567Y-115676926D01*
X157317469Y-116014249D01*
X157299290Y-116198835D01*
X157283759Y-116356530D01*
X157283759Y-116700468D01*
X157293996Y-116804405D01*
X157317469Y-117042748D01*
X157384567Y-117380071D01*
X157484411Y-117709212D01*
X157493279Y-117730621D01*
X157500746Y-117800091D01*
X157469470Y-117862569D01*
X157466398Y-117865752D01*
X154174930Y-121157222D01*
X154113607Y-121190707D01*
X154087249Y-121193541D01*
X147825509Y-121193541D01*
X147758470Y-121173856D01*
X147737828Y-121157222D01*
X143825965Y-117245359D01*
X147270036Y-117245359D01*
X147399428Y-117344646D01*
X147609432Y-117465890D01*
X147609454Y-117465901D01*
X147833493Y-117558700D01*
X148067744Y-117621468D01*
X148308167Y-117653120D01*
X148308184Y-117653122D01*
X148550680Y-117653122D01*
X148550697Y-117653120D01*
X148791120Y-117621468D01*
X149025370Y-117558700D01*
X149249417Y-117465897D01*
X149249421Y-117465895D01*
X149335437Y-117416233D01*
X148217301Y-116298096D01*
X148217300Y-116298096D01*
X147270036Y-117245359D01*
X143825965Y-117245359D01*
X141838215Y-115257609D01*
X146155168Y-115257609D01*
X146155168Y-115500106D01*
X146155169Y-115500122D01*
X146186821Y-115740545D01*
X146249589Y-115974796D01*
X146342388Y-116198835D01*
X146342399Y-116198857D01*
X146463643Y-116408861D01*
X146562929Y-116538252D01*
X147510193Y-115590989D01*
X147510193Y-115590988D01*
X147441251Y-115522046D01*
X147517300Y-115522046D01*
X147517300Y-115659934D01*
X147544201Y-115795172D01*
X147596968Y-115922564D01*
X147673574Y-116037214D01*
X147771076Y-116134716D01*
X147885726Y-116211322D01*
X148013118Y-116264089D01*
X148148356Y-116290990D01*
X148286244Y-116290990D01*
X148421482Y-116264089D01*
X148548874Y-116211322D01*
X148663524Y-116134716D01*
X148761026Y-116037214D01*
X148837632Y-115922564D01*
X148890399Y-115795172D01*
X148917300Y-115659934D01*
X148917300Y-115590990D01*
X148924406Y-115590990D01*
X150042543Y-116709127D01*
X150092205Y-116623111D01*
X150092207Y-116623107D01*
X150185010Y-116399060D01*
X150247778Y-116164810D01*
X150279430Y-115924387D01*
X150279432Y-115924370D01*
X150279432Y-115681873D01*
X150279430Y-115681857D01*
X150247778Y-115441434D01*
X150185010Y-115207183D01*
X150092211Y-114983144D01*
X150092200Y-114983122D01*
X149970956Y-114773118D01*
X149871669Y-114643726D01*
X148924406Y-115590990D01*
X148917300Y-115590990D01*
X148917300Y-115522046D01*
X148890399Y-115386808D01*
X148837632Y-115259416D01*
X148761026Y-115144766D01*
X148663524Y-115047264D01*
X148548874Y-114970658D01*
X148421482Y-114917891D01*
X148286244Y-114890990D01*
X148148356Y-114890990D01*
X148013118Y-114917891D01*
X147885726Y-114970658D01*
X147771076Y-115047264D01*
X147673574Y-115144766D01*
X147596968Y-115259416D01*
X147544201Y-115386808D01*
X147517300Y-115522046D01*
X147441251Y-115522046D01*
X146392055Y-114472852D01*
X146342393Y-114558870D01*
X146342388Y-114558880D01*
X146249589Y-114782919D01*
X146186821Y-115017170D01*
X146155169Y-115257593D01*
X146155168Y-115257609D01*
X141838215Y-115257609D01*
X138476819Y-111896213D01*
X138443334Y-111834890D01*
X138440500Y-111808532D01*
X138440500Y-104577240D01*
X138450314Y-104531907D01*
X138449566Y-104531646D01*
X138451402Y-104526399D01*
X138451404Y-104526393D01*
X138505304Y-104312485D01*
X138515500Y-104182933D01*
X138515499Y-103607068D01*
X138505304Y-103477515D01*
X138451404Y-103263607D01*
X138409466Y-103171278D01*
X138399664Y-103102103D01*
X138409464Y-103068725D01*
X138451404Y-102976393D01*
X138505304Y-102762485D01*
X138515500Y-102632933D01*
X138515499Y-102057068D01*
X138505304Y-101927515D01*
X138451404Y-101713607D01*
X138419534Y-101643443D01*
X138360178Y-101512765D01*
X138360177Y-101512764D01*
X138360176Y-101512761D01*
X138350520Y-101498824D01*
X138328524Y-101432509D01*
X138345871Y-101364827D01*
X138350130Y-101358161D01*
X138368277Y-101331671D01*
X138458143Y-101128143D01*
X138459544Y-101122185D01*
X138509079Y-100911577D01*
X138509079Y-100911573D01*
X138509081Y-100911567D01*
X138513360Y-100849917D01*
X138515500Y-100819095D01*
X138515500Y-100270904D01*
X138509081Y-100178438D01*
X138509081Y-100178433D01*
X138509079Y-100178427D01*
X138509079Y-100178422D01*
X138458145Y-99961864D01*
X138458144Y-99961862D01*
X138458143Y-99961857D01*
X138373468Y-99770085D01*
X138369123Y-99736905D01*
X138363953Y-99703900D01*
X138364531Y-99701833D01*
X138364397Y-99700806D01*
X138373469Y-99669913D01*
X138459790Y-99474414D01*
X138504875Y-99421038D01*
X138571662Y-99400510D01*
X138573224Y-99400500D01*
X142803713Y-99400500D01*
X142870752Y-99420185D01*
G37*
%TD.AperFunction*%
%TA.AperFunction,Conductor*%
G36*
X130952813Y-94865229D02*
G01*
X131043818Y-94894799D01*
X131101494Y-94934237D01*
X131128692Y-94998595D01*
X131129500Y-95012730D01*
X131129500Y-95135059D01*
X131141530Y-95211012D01*
X131167063Y-95372222D01*
X131241265Y-95600593D01*
X131335723Y-95785974D01*
X131350276Y-95814536D01*
X131491414Y-96008796D01*
X131661204Y-96178586D01*
X131855464Y-96319724D01*
X131949993Y-96367889D01*
X132069406Y-96428734D01*
X132069408Y-96428734D01*
X132069411Y-96428736D01*
X132297778Y-96502937D01*
X132534941Y-96540500D01*
X132534942Y-96540500D01*
X133225058Y-96540500D01*
X133225059Y-96540500D01*
X133462222Y-96502937D01*
X133690589Y-96428736D01*
X133904536Y-96319724D01*
X134015393Y-96239181D01*
X134081199Y-96215702D01*
X134088278Y-96215500D01*
X135452692Y-96215500D01*
X135519731Y-96235185D01*
X135565486Y-96287989D01*
X135575430Y-96357147D01*
X135573399Y-96367889D01*
X135570918Y-96378436D01*
X135564500Y-96470904D01*
X135564500Y-97019095D01*
X135570918Y-97111561D01*
X135570920Y-97111577D01*
X135621854Y-97328135D01*
X135621860Y-97328151D01*
X135711721Y-97531668D01*
X135837457Y-97715220D01*
X135837462Y-97715226D01*
X135854555Y-97732319D01*
X135888040Y-97793642D01*
X135883056Y-97863334D01*
X135854555Y-97907681D01*
X135837462Y-97924773D01*
X135837457Y-97924779D01*
X135711721Y-98108331D01*
X135621860Y-98311848D01*
X135621854Y-98311864D01*
X135570920Y-98528422D01*
X135570918Y-98528438D01*
X135564500Y-98620904D01*
X135564500Y-99169095D01*
X135571266Y-99266571D01*
X135568879Y-99266736D01*
X135560802Y-99326146D01*
X135515452Y-99379299D01*
X135448566Y-99399496D01*
X135447616Y-99399500D01*
X134808278Y-99399500D01*
X134741239Y-99379815D01*
X134735400Y-99375824D01*
X134624536Y-99295276D01*
X134410593Y-99186265D01*
X134182222Y-99112063D01*
X133945059Y-99074500D01*
X133254941Y-99074500D01*
X133136359Y-99093281D01*
X133017777Y-99112063D01*
X132789406Y-99186265D01*
X132575463Y-99295276D01*
X132381201Y-99436416D01*
X132211416Y-99606201D01*
X132070276Y-99800463D01*
X131961265Y-100014406D01*
X131887063Y-100242777D01*
X131849500Y-100479941D01*
X131849500Y-100545500D01*
X131829815Y-100612539D01*
X131777011Y-100658294D01*
X131725500Y-100669500D01*
X131170514Y-100669500D01*
X130983880Y-100699060D01*
X130952816Y-100709153D01*
X130882975Y-100711147D01*
X130823143Y-100675065D01*
X130792316Y-100612364D01*
X130790500Y-100591221D01*
X130790500Y-100383984D01*
X130784349Y-100295375D01*
X130784349Y-100295370D01*
X130784347Y-100295360D01*
X130784347Y-100295359D01*
X130735534Y-100087823D01*
X130735533Y-100087821D01*
X130735532Y-100087815D01*
X130676927Y-99955086D01*
X130667855Y-99885808D01*
X130676927Y-99854914D01*
X130719573Y-99758329D01*
X130735532Y-99722185D01*
X130762811Y-99606204D01*
X130784347Y-99514640D01*
X130784347Y-99514636D01*
X130784349Y-99514630D01*
X130790500Y-99426012D01*
X130790500Y-98983988D01*
X130784349Y-98895370D01*
X130784347Y-98895364D01*
X130784347Y-98895359D01*
X130735534Y-98687823D01*
X130735532Y-98687817D01*
X130735532Y-98687815D01*
X130649409Y-98492763D01*
X130631419Y-98466501D01*
X130612334Y-98418548D01*
X130612075Y-98418611D01*
X130611643Y-98416814D01*
X130611246Y-98415815D01*
X130610940Y-98413882D01*
X130552547Y-98234168D01*
X130552545Y-98234165D01*
X130552545Y-98234163D01*
X130488429Y-98108329D01*
X130466760Y-98065801D01*
X130466758Y-98065798D01*
X130466757Y-98065796D01*
X130395620Y-97967886D01*
X130372139Y-97902080D01*
X130387964Y-97834026D01*
X130395620Y-97822114D01*
X130466757Y-97724203D01*
X130466756Y-97724203D01*
X130466760Y-97724199D01*
X130552547Y-97555832D01*
X130610940Y-97376118D01*
X130618537Y-97328151D01*
X130640500Y-97189486D01*
X130640500Y-97148572D01*
X130651065Y-97098486D01*
X130686119Y-97019095D01*
X130735532Y-96907185D01*
X130784349Y-96699630D01*
X130789737Y-96622011D01*
X130790500Y-96611015D01*
X130790500Y-96168984D01*
X130787766Y-96129602D01*
X130784349Y-96080370D01*
X130784347Y-96080364D01*
X130784347Y-96080359D01*
X130735534Y-95872823D01*
X130735533Y-95872821D01*
X130735532Y-95872815D01*
X130676927Y-95740086D01*
X130667855Y-95670808D01*
X130676927Y-95639914D01*
X130694290Y-95600589D01*
X130735532Y-95507185D01*
X130752995Y-95432938D01*
X130784347Y-95299640D01*
X130784347Y-95299636D01*
X130784349Y-95299630D01*
X130790500Y-95211012D01*
X130790500Y-94983162D01*
X130810185Y-94916123D01*
X130862989Y-94870368D01*
X130932147Y-94860424D01*
X130952813Y-94865229D01*
G37*
%TD.AperFunction*%
%TA.AperFunction,Conductor*%
G36*
X216629011Y-68100618D02*
G01*
X217013079Y-68117387D01*
X217023813Y-68118327D01*
X217402275Y-68168152D01*
X217412909Y-68170027D01*
X217785591Y-68252650D01*
X217796023Y-68255445D01*
X218160072Y-68370230D01*
X218170215Y-68373921D01*
X218487610Y-68505391D01*
X218522877Y-68520000D01*
X218532681Y-68524572D01*
X218871269Y-68700830D01*
X218880610Y-68706224D01*
X219181657Y-68898012D01*
X219202541Y-68911317D01*
X219211402Y-68917521D01*
X219514234Y-69149892D01*
X219522521Y-69156846D01*
X219803938Y-69414718D01*
X219811587Y-69422367D01*
X220069459Y-69703785D01*
X220076413Y-69712072D01*
X220308778Y-70014897D01*
X220314983Y-70023758D01*
X220520077Y-70345692D01*
X220525485Y-70355060D01*
X220701731Y-70693625D01*
X220706303Y-70703429D01*
X220852376Y-71056080D01*
X220856076Y-71066246D01*
X220970855Y-71430279D01*
X220973655Y-71440727D01*
X221056272Y-71813388D01*
X221058150Y-71824042D01*
X221107971Y-72202473D01*
X221108914Y-72213249D01*
X221123915Y-72556837D01*
X221125692Y-72597517D01*
X221125810Y-72602926D01*
X221125810Y-83476000D01*
X221106125Y-83543039D01*
X221053321Y-83588794D01*
X221001810Y-83600000D01*
X216991650Y-83600000D01*
X216924611Y-83580315D01*
X216878856Y-83527511D01*
X216867650Y-83476000D01*
X216867650Y-78396979D01*
X216887335Y-78329940D01*
X216911944Y-78301990D01*
X217006781Y-78222412D01*
X217171236Y-78084418D01*
X217449123Y-77806531D01*
X217701734Y-77505481D01*
X217927145Y-77183561D01*
X218123641Y-76843220D01*
X218267123Y-76535518D01*
X218289720Y-76487061D01*
X218289720Y-76487060D01*
X218289726Y-76487048D01*
X218424138Y-76117756D01*
X218525852Y-75738155D01*
X218594094Y-75351133D01*
X218628345Y-74959636D01*
X218628345Y-74566644D01*
X218594094Y-74175147D01*
X218525852Y-73788125D01*
X218424138Y-73408524D01*
X218289726Y-73039232D01*
X218289721Y-73039223D01*
X218289720Y-73039218D01*
X218123649Y-72683077D01*
X218123637Y-72683053D01*
X218086562Y-72618837D01*
X217927145Y-72342719D01*
X217701734Y-72020799D01*
X217701733Y-72020798D01*
X217701729Y-72020792D01*
X217449120Y-71719746D01*
X217171238Y-71441864D01*
X217169884Y-71440728D01*
X217099816Y-71381933D01*
X216870192Y-71189255D01*
X216548272Y-70963844D01*
X216548269Y-70963842D01*
X216548266Y-70963840D01*
X216447150Y-70905460D01*
X216207931Y-70767347D01*
X216207907Y-70767335D01*
X215851766Y-70601264D01*
X215851755Y-70601260D01*
X215851753Y-70601259D01*
X215482461Y-70466847D01*
X215241805Y-70402363D01*
X215102861Y-70365133D01*
X215102850Y-70365131D01*
X214715842Y-70296891D01*
X214324345Y-70262640D01*
X214324341Y-70262640D01*
X213931349Y-70262640D01*
X213931344Y-70262640D01*
X213539849Y-70296891D01*
X213539845Y-70296891D01*
X213152839Y-70365131D01*
X213152828Y-70365133D01*
X212949400Y-70419642D01*
X212773229Y-70466847D01*
X212773226Y-70466848D01*
X212773225Y-70466848D01*
X212403923Y-70601264D01*
X212047782Y-70767335D01*
X212047758Y-70767347D01*
X211707432Y-70963835D01*
X211707417Y-70963844D01*
X211385497Y-71189255D01*
X211084451Y-71441864D01*
X210806569Y-71719746D01*
X210553960Y-72020792D01*
X210328549Y-72342712D01*
X210328540Y-72342727D01*
X210132052Y-72683053D01*
X210132040Y-72683077D01*
X209965969Y-73039218D01*
X209858389Y-73334791D01*
X209831552Y-73408524D01*
X209816041Y-73466413D01*
X209729838Y-73788123D01*
X209729836Y-73788134D01*
X209661596Y-74175140D01*
X209661596Y-74175144D01*
X209627345Y-74566639D01*
X209627345Y-74959640D01*
X209661596Y-75351135D01*
X209661596Y-75351139D01*
X209729836Y-75738145D01*
X209729838Y-75738155D01*
X209831552Y-76117756D01*
X209881059Y-76253776D01*
X209965969Y-76487061D01*
X210132040Y-76843202D01*
X210132052Y-76843226D01*
X210240795Y-77031574D01*
X210306988Y-77146224D01*
X210328540Y-77183552D01*
X210328549Y-77183567D01*
X210553960Y-77505487D01*
X210629859Y-77595939D01*
X210806567Y-77806531D01*
X211084454Y-78084418D01*
X211142469Y-78133098D01*
X211385497Y-78337024D01*
X211385503Y-78337028D01*
X211385504Y-78337029D01*
X211707424Y-78562440D01*
X212047765Y-78758936D01*
X212047779Y-78758942D01*
X212047782Y-78758944D01*
X212403923Y-78925015D01*
X212403928Y-78925016D01*
X212403937Y-78925021D01*
X212773229Y-79059433D01*
X213152830Y-79161147D01*
X213539852Y-79229389D01*
X213931347Y-79263639D01*
X213931348Y-79263640D01*
X213931349Y-79263640D01*
X213942650Y-79263640D01*
X214009689Y-79283325D01*
X214055444Y-79336129D01*
X214066650Y-79387640D01*
X214066650Y-83464696D01*
X214064139Y-83473245D01*
X214065428Y-83482062D01*
X214054447Y-83506252D01*
X214046965Y-83531735D01*
X214039471Y-83539245D01*
X214036549Y-83545684D01*
X214009928Y-83568857D01*
X213992427Y-83580161D01*
X213925433Y-83600000D01*
X207936488Y-83600000D01*
X207869449Y-83580315D01*
X207848811Y-83563685D01*
X207779937Y-83494811D01*
X207772712Y-83488882D01*
X207514075Y-83276624D01*
X207514074Y-83276623D01*
X207514070Y-83276620D01*
X207228097Y-83085539D01*
X207228092Y-83085536D01*
X207228085Y-83085532D01*
X206924779Y-82923411D01*
X206924774Y-82923409D01*
X206607016Y-82791789D01*
X206277882Y-82691947D01*
X205940558Y-82624849D01*
X205940559Y-82624849D01*
X205677110Y-82598903D01*
X205598279Y-82591139D01*
X205254341Y-82591139D01*
X205176276Y-82598827D01*
X204912060Y-82624849D01*
X204574737Y-82691947D01*
X204245603Y-82791789D01*
X203927845Y-82923409D01*
X203927840Y-82923411D01*
X203624534Y-83085532D01*
X203624516Y-83085543D01*
X203338558Y-83276614D01*
X203338544Y-83276624D01*
X203072677Y-83494815D01*
X202829486Y-83738006D01*
X202611295Y-84003873D01*
X202611285Y-84003887D01*
X202420214Y-84289845D01*
X202420203Y-84289863D01*
X202258082Y-84593169D01*
X202258080Y-84593174D01*
X202126460Y-84910932D01*
X202026618Y-85240066D01*
X201959520Y-85577389D01*
X201925810Y-85919673D01*
X201925810Y-86263604D01*
X201959520Y-86605888D01*
X202026618Y-86943211D01*
X202126462Y-87272352D01*
X202135330Y-87293761D01*
X202142797Y-87363231D01*
X202111521Y-87425709D01*
X202108449Y-87428892D01*
X192974163Y-96563180D01*
X192947237Y-96577882D01*
X192921418Y-96594476D01*
X192915215Y-96595367D01*
X192912840Y-96596665D01*
X192886483Y-96599499D01*
X192780485Y-96599499D01*
X192780479Y-96599499D01*
X192775351Y-96599500D01*
X192775350Y-96599499D01*
X192775350Y-96599500D01*
X161480468Y-96599500D01*
X161413429Y-96579815D01*
X161367674Y-96527011D01*
X161357730Y-96457853D01*
X161386755Y-96394297D01*
X161392787Y-96387819D01*
X163060606Y-94720000D01*
X168163965Y-89616639D01*
X183559981Y-89616639D01*
X183559981Y-90009640D01*
X183594232Y-90401135D01*
X183594232Y-90401139D01*
X183662472Y-90788145D01*
X183662474Y-90788156D01*
X183666802Y-90804308D01*
X183764188Y-91167756D01*
X183813572Y-91303438D01*
X183898605Y-91537061D01*
X184064676Y-91893202D01*
X184064688Y-91893226D01*
X184093115Y-91942462D01*
X184257381Y-92226980D01*
X184261176Y-92233552D01*
X184261185Y-92233567D01*
X184486596Y-92555487D01*
X184664678Y-92767716D01*
X184739203Y-92856531D01*
X185017090Y-93134418D01*
X185089885Y-93195500D01*
X185318133Y-93387024D01*
X185318139Y-93387028D01*
X185318140Y-93387029D01*
X185640060Y-93612440D01*
X185980401Y-93808936D01*
X185980415Y-93808942D01*
X185980418Y-93808944D01*
X186336559Y-93975015D01*
X186336564Y-93975016D01*
X186336573Y-93975021D01*
X186705865Y-94109433D01*
X187085466Y-94211147D01*
X187472488Y-94279389D01*
X187863983Y-94313639D01*
X187863984Y-94313640D01*
X187863985Y-94313640D01*
X188256978Y-94313640D01*
X188256978Y-94313639D01*
X188648474Y-94279389D01*
X189035496Y-94211147D01*
X189415097Y-94109433D01*
X189784389Y-93975021D01*
X190140561Y-93808936D01*
X190480902Y-93612440D01*
X190802822Y-93387029D01*
X191103872Y-93134418D01*
X191381759Y-92856531D01*
X191634370Y-92555481D01*
X191859781Y-92233561D01*
X192056277Y-91893220D01*
X192222362Y-91537048D01*
X192356774Y-91167756D01*
X192458488Y-90788155D01*
X192526730Y-90401133D01*
X192560981Y-90009636D01*
X192560981Y-89616644D01*
X192526730Y-89225147D01*
X192518373Y-89177754D01*
X192504264Y-89097734D01*
X192458488Y-88838125D01*
X192356774Y-88458524D01*
X192222362Y-88089232D01*
X192222357Y-88089223D01*
X192222356Y-88089218D01*
X192056285Y-87733077D01*
X192056273Y-87733053D01*
X191992487Y-87622572D01*
X191859781Y-87392719D01*
X191634370Y-87070799D01*
X191634369Y-87070798D01*
X191634365Y-87070792D01*
X191461718Y-86865041D01*
X191381759Y-86769749D01*
X191103872Y-86491862D01*
X190997351Y-86402480D01*
X190802828Y-86239255D01*
X190480908Y-86013844D01*
X190480905Y-86013842D01*
X190480902Y-86013840D01*
X190243989Y-85877058D01*
X190140567Y-85817347D01*
X190140543Y-85817335D01*
X189784402Y-85651264D01*
X189784391Y-85651260D01*
X189784389Y-85651259D01*
X189415097Y-85516847D01*
X189174441Y-85452363D01*
X189035497Y-85415133D01*
X189035486Y-85415131D01*
X188648478Y-85346891D01*
X188256981Y-85312640D01*
X188256977Y-85312640D01*
X187863985Y-85312640D01*
X187863980Y-85312640D01*
X187472485Y-85346891D01*
X187472481Y-85346891D01*
X187085475Y-85415131D01*
X187085464Y-85415133D01*
X186882036Y-85469642D01*
X186705865Y-85516847D01*
X186705862Y-85516848D01*
X186705861Y-85516848D01*
X186336559Y-85651264D01*
X185980418Y-85817335D01*
X185980394Y-85817347D01*
X185640068Y-86013835D01*
X185640053Y-86013844D01*
X185318133Y-86239255D01*
X185017087Y-86491864D01*
X184739205Y-86769746D01*
X184486596Y-87070792D01*
X184261185Y-87392712D01*
X184261176Y-87392727D01*
X184064688Y-87733053D01*
X184064676Y-87733077D01*
X183898605Y-88089218D01*
X183765481Y-88454972D01*
X183764188Y-88458524D01*
X183722837Y-88612848D01*
X183662474Y-88838123D01*
X183662472Y-88838134D01*
X183594232Y-89225140D01*
X183594232Y-89225144D01*
X183559981Y-89616639D01*
X168163965Y-89616639D01*
X168371108Y-89409496D01*
X168432429Y-89376013D01*
X168502121Y-89380997D01*
X168506241Y-89382619D01*
X168527648Y-89391486D01*
X168527650Y-89391486D01*
X168527656Y-89391489D01*
X168856783Y-89491329D01*
X169194111Y-89558428D01*
X169536392Y-89592139D01*
X169536395Y-89592139D01*
X169880327Y-89592139D01*
X169880330Y-89592139D01*
X170222611Y-89558428D01*
X170559939Y-89491329D01*
X170889066Y-89391489D01*
X171206823Y-89259870D01*
X171510148Y-89097739D01*
X171796121Y-88906658D01*
X172061988Y-88688467D01*
X172305189Y-88445266D01*
X172523380Y-88179399D01*
X172714461Y-87893426D01*
X172876592Y-87590101D01*
X173008211Y-87272344D01*
X173108051Y-86943217D01*
X173175150Y-86605889D01*
X173208861Y-86263608D01*
X173208861Y-85919670D01*
X173175150Y-85577389D01*
X173108051Y-85240061D01*
X173008211Y-84910934D01*
X172876592Y-84593177D01*
X172804636Y-84458558D01*
X172714467Y-84289863D01*
X172714466Y-84289861D01*
X172714461Y-84289852D01*
X172523380Y-84003879D01*
X172305189Y-83738012D01*
X172305188Y-83738011D01*
X172305184Y-83738006D01*
X172061993Y-83494815D01*
X171796126Y-83276624D01*
X171796125Y-83276623D01*
X171796121Y-83276620D01*
X171510148Y-83085539D01*
X171510143Y-83085536D01*
X171510136Y-83085532D01*
X171206830Y-82923411D01*
X171206825Y-82923409D01*
X170889067Y-82791789D01*
X170559933Y-82691947D01*
X170222609Y-82624849D01*
X170222610Y-82624849D01*
X169959161Y-82598903D01*
X169880330Y-82591139D01*
X169536392Y-82591139D01*
X169458327Y-82598827D01*
X169194111Y-82624849D01*
X168856788Y-82691947D01*
X168527654Y-82791789D01*
X168209896Y-82923409D01*
X168209891Y-82923411D01*
X167906585Y-83085532D01*
X167906567Y-83085543D01*
X167620609Y-83276614D01*
X167620595Y-83276624D01*
X167354728Y-83494815D01*
X167111537Y-83738006D01*
X166893346Y-84003873D01*
X166893336Y-84003887D01*
X166702265Y-84289845D01*
X166702254Y-84289863D01*
X166540133Y-84593169D01*
X166540131Y-84593174D01*
X166408511Y-84910932D01*
X166308669Y-85240066D01*
X166241571Y-85577389D01*
X166207861Y-85919673D01*
X166207861Y-86263604D01*
X166241571Y-86605888D01*
X166308669Y-86943211D01*
X166408513Y-87272352D01*
X166417381Y-87293761D01*
X166424848Y-87363231D01*
X166393572Y-87425709D01*
X166390500Y-87428892D01*
X157256214Y-96563180D01*
X157229288Y-96577882D01*
X157203469Y-96594476D01*
X157197266Y-96595367D01*
X157194891Y-96596665D01*
X157168534Y-96599499D01*
X157062536Y-96599499D01*
X157062530Y-96599499D01*
X157057402Y-96599500D01*
X157057401Y-96599499D01*
X157057401Y-96599500D01*
X143741667Y-96599500D01*
X143741643Y-96599499D01*
X143736532Y-96599499D01*
X143516088Y-96599499D01*
X143510977Y-96599499D01*
X143510953Y-96599500D01*
X138776468Y-96599500D01*
X138747027Y-96590855D01*
X138717041Y-96584332D01*
X138712025Y-96580577D01*
X138709429Y-96579815D01*
X138688787Y-96563181D01*
X138535579Y-96409973D01*
X138502554Y-96350681D01*
X138458145Y-96161866D01*
X138458143Y-96161857D01*
X138373467Y-95970085D01*
X138364397Y-95900808D01*
X138373468Y-95869914D01*
X138387216Y-95838778D01*
X138458143Y-95678143D01*
X138459868Y-95670808D01*
X138509079Y-95461577D01*
X138509079Y-95461573D01*
X138509081Y-95461567D01*
X138515500Y-95369092D01*
X138515500Y-94820908D01*
X138509081Y-94728433D01*
X138509079Y-94728427D01*
X138509079Y-94728422D01*
X138458145Y-94511864D01*
X138458144Y-94511862D01*
X138458143Y-94511857D01*
X138368277Y-94308329D01*
X138368275Y-94308326D01*
X138368272Y-94308320D01*
X138341539Y-94269296D01*
X138319892Y-94202865D01*
X138337597Y-94135275D01*
X138341896Y-94128623D01*
X138360176Y-94102239D01*
X138451404Y-93901393D01*
X138505304Y-93687485D01*
X138515500Y-93557933D01*
X138515499Y-92982068D01*
X138505304Y-92852515D01*
X138451404Y-92638607D01*
X138409466Y-92546278D01*
X138405134Y-92515710D01*
X138398730Y-92485509D01*
X138400099Y-92480177D01*
X138399664Y-92477103D01*
X138406412Y-92451061D01*
X138407816Y-92447354D01*
X138451404Y-92351393D01*
X138465742Y-92294488D01*
X138468279Y-92287794D01*
X138482079Y-92269557D01*
X138496550Y-92244054D01*
X141123966Y-89616639D01*
X147842032Y-89616639D01*
X147842032Y-90009640D01*
X147876283Y-90401135D01*
X147876283Y-90401139D01*
X147944523Y-90788145D01*
X147944525Y-90788156D01*
X147948853Y-90804308D01*
X148046239Y-91167756D01*
X148095623Y-91303438D01*
X148180656Y-91537061D01*
X148346727Y-91893202D01*
X148346739Y-91893226D01*
X148375166Y-91942462D01*
X148539432Y-92226980D01*
X148543227Y-92233552D01*
X148543236Y-92233567D01*
X148768647Y-92555487D01*
X148946729Y-92767716D01*
X149021254Y-92856531D01*
X149299141Y-93134418D01*
X149371936Y-93195500D01*
X149600184Y-93387024D01*
X149600190Y-93387028D01*
X149600191Y-93387029D01*
X149922111Y-93612440D01*
X150262452Y-93808936D01*
X150262466Y-93808942D01*
X150262469Y-93808944D01*
X150618610Y-93975015D01*
X150618615Y-93975016D01*
X150618624Y-93975021D01*
X150987916Y-94109433D01*
X151367517Y-94211147D01*
X151754539Y-94279389D01*
X152146034Y-94313639D01*
X152146035Y-94313640D01*
X152146036Y-94313640D01*
X152539029Y-94313640D01*
X152539029Y-94313639D01*
X152930525Y-94279389D01*
X153317547Y-94211147D01*
X153697148Y-94109433D01*
X154066440Y-93975021D01*
X154422612Y-93808936D01*
X154762953Y-93612440D01*
X155084873Y-93387029D01*
X155385923Y-93134418D01*
X155663810Y-92856531D01*
X155916421Y-92555481D01*
X156141832Y-92233561D01*
X156338328Y-91893220D01*
X156504413Y-91537048D01*
X156638825Y-91167756D01*
X156740539Y-90788155D01*
X156808781Y-90401133D01*
X156843032Y-90009636D01*
X156843032Y-89616644D01*
X156808781Y-89225147D01*
X156800424Y-89177754D01*
X156786315Y-89097734D01*
X156740539Y-88838125D01*
X156638825Y-88458524D01*
X156504413Y-88089232D01*
X156504408Y-88089223D01*
X156504407Y-88089218D01*
X156338336Y-87733077D01*
X156338324Y-87733053D01*
X156274538Y-87622572D01*
X156141832Y-87392719D01*
X155916421Y-87070799D01*
X155916420Y-87070798D01*
X155916416Y-87070792D01*
X155743769Y-86865041D01*
X155663810Y-86769749D01*
X155385923Y-86491862D01*
X155279402Y-86402480D01*
X155084879Y-86239255D01*
X154762959Y-86013844D01*
X154762956Y-86013842D01*
X154762953Y-86013840D01*
X154526040Y-85877058D01*
X154422618Y-85817347D01*
X154422594Y-85817335D01*
X154066453Y-85651264D01*
X154066442Y-85651260D01*
X154066440Y-85651259D01*
X153697148Y-85516847D01*
X153456492Y-85452363D01*
X153317548Y-85415133D01*
X153317537Y-85415131D01*
X152930529Y-85346891D01*
X152539032Y-85312640D01*
X152539028Y-85312640D01*
X152146036Y-85312640D01*
X152146031Y-85312640D01*
X151754536Y-85346891D01*
X151754532Y-85346891D01*
X151367526Y-85415131D01*
X151367515Y-85415133D01*
X151164087Y-85469642D01*
X150987916Y-85516847D01*
X150987913Y-85516848D01*
X150987912Y-85516848D01*
X150618610Y-85651264D01*
X150262469Y-85817335D01*
X150262445Y-85817347D01*
X149922119Y-86013835D01*
X149922104Y-86013844D01*
X149600184Y-86239255D01*
X149299138Y-86491864D01*
X149021256Y-86769746D01*
X148768647Y-87070792D01*
X148543236Y-87392712D01*
X148543227Y-87392727D01*
X148346739Y-87733053D01*
X148346727Y-87733077D01*
X148180656Y-88089218D01*
X148047532Y-88454972D01*
X148046239Y-88458524D01*
X148004888Y-88612848D01*
X147944525Y-88838123D01*
X147944523Y-88838134D01*
X147876283Y-89225140D01*
X147876283Y-89225144D01*
X147842032Y-89616639D01*
X141123966Y-89616639D01*
X152669147Y-78071460D01*
X152730470Y-78037975D01*
X152756828Y-78035141D01*
X160956699Y-78035141D01*
X161023738Y-78054826D01*
X161069493Y-78107630D01*
X161071260Y-78111689D01*
X161080128Y-78133098D01*
X161080133Y-78133110D01*
X161242254Y-78436416D01*
X161242265Y-78436434D01*
X161433336Y-78722392D01*
X161433346Y-78722406D01*
X161651537Y-78988273D01*
X161894728Y-79231464D01*
X161894733Y-79231468D01*
X161894734Y-79231469D01*
X162160601Y-79449660D01*
X162446574Y-79640741D01*
X162446583Y-79640746D01*
X162446585Y-79640747D01*
X162749891Y-79802868D01*
X162749893Y-79802868D01*
X162749899Y-79802872D01*
X163067656Y-79934491D01*
X163396783Y-80034331D01*
X163734111Y-80101430D01*
X164076392Y-80135141D01*
X164076395Y-80135141D01*
X164420327Y-80135141D01*
X164420330Y-80135141D01*
X164762611Y-80101430D01*
X165099939Y-80034331D01*
X165429066Y-79934491D01*
X165450477Y-79925621D01*
X165519944Y-79918150D01*
X165582425Y-79949422D01*
X165585614Y-79952500D01*
X167142352Y-81509238D01*
X167142366Y-81509253D01*
X167145477Y-81512364D01*
X167145478Y-81512365D01*
X167301355Y-81668242D01*
X167301358Y-81668244D01*
X167301361Y-81668247D01*
X167369777Y-81717953D01*
X167398977Y-81739168D01*
X167479698Y-81797815D01*
X167576033Y-81846900D01*
X167676113Y-81897895D01*
X167676116Y-81897896D01*
X167780941Y-81931955D01*
X167885768Y-81966015D01*
X167986608Y-81981986D01*
X168103493Y-82000500D01*
X168103498Y-82000500D01*
X195885594Y-82000500D01*
X195885618Y-82000501D01*
X195890729Y-82000501D01*
X196111172Y-82000501D01*
X196111173Y-82000501D01*
X196328902Y-81966015D01*
X196538557Y-81897895D01*
X196734973Y-81797815D01*
X196815694Y-81739168D01*
X196913316Y-81668242D01*
X197069193Y-81512365D01*
X197069194Y-81512363D01*
X197076254Y-81505303D01*
X197076260Y-81505296D01*
X198629057Y-79952498D01*
X198690378Y-79919015D01*
X198760070Y-79923999D01*
X198764190Y-79925621D01*
X198785597Y-79934488D01*
X198785599Y-79934488D01*
X198785605Y-79934491D01*
X199114732Y-80034331D01*
X199452060Y-80101430D01*
X199794341Y-80135141D01*
X199794344Y-80135141D01*
X200138276Y-80135141D01*
X200138279Y-80135141D01*
X200480560Y-80101430D01*
X200817888Y-80034331D01*
X201147015Y-79934491D01*
X201464772Y-79802872D01*
X201768097Y-79640741D01*
X202054070Y-79449660D01*
X202319937Y-79231469D01*
X202563138Y-78988268D01*
X202781329Y-78722401D01*
X202972410Y-78436428D01*
X203134541Y-78133103D01*
X203266160Y-77815346D01*
X203366000Y-77486219D01*
X203433099Y-77148891D01*
X203466810Y-76806610D01*
X203466810Y-76462672D01*
X203433099Y-76120391D01*
X203366000Y-75783063D01*
X203266160Y-75453936D01*
X203134541Y-75136179D01*
X203065017Y-75006110D01*
X202972416Y-74832865D01*
X202972415Y-74832863D01*
X202972410Y-74832854D01*
X202781329Y-74546881D01*
X202563138Y-74281014D01*
X202563137Y-74281013D01*
X202563133Y-74281008D01*
X202319942Y-74037817D01*
X202054075Y-73819626D01*
X202054074Y-73819625D01*
X202054070Y-73819622D01*
X201768097Y-73628541D01*
X201768092Y-73628538D01*
X201768085Y-73628534D01*
X201464779Y-73466413D01*
X201464774Y-73466411D01*
X201147016Y-73334791D01*
X200817882Y-73234949D01*
X200480558Y-73167851D01*
X200480559Y-73167851D01*
X200222766Y-73142462D01*
X200138279Y-73134141D01*
X199794341Y-73134141D01*
X199716276Y-73141829D01*
X199452060Y-73167851D01*
X199114737Y-73234949D01*
X198785603Y-73334791D01*
X198467845Y-73466411D01*
X198467840Y-73466413D01*
X198164534Y-73628534D01*
X198164516Y-73628545D01*
X197878558Y-73819616D01*
X197878544Y-73819626D01*
X197612677Y-74037817D01*
X197369486Y-74281008D01*
X197151295Y-74546875D01*
X197151285Y-74546889D01*
X196960214Y-74832847D01*
X196960203Y-74832865D01*
X196798082Y-75136171D01*
X196798080Y-75136176D01*
X196666460Y-75453934D01*
X196566618Y-75783068D01*
X196499520Y-76120391D01*
X196475092Y-76368426D01*
X196465810Y-76462672D01*
X196465810Y-76806610D01*
X196475420Y-76904182D01*
X196499520Y-77148890D01*
X196566618Y-77486213D01*
X196666462Y-77815354D01*
X196675330Y-77836763D01*
X196682797Y-77906233D01*
X196651521Y-77968711D01*
X196648449Y-77971894D01*
X196211681Y-78408663D01*
X196150358Y-78442148D01*
X196080667Y-78437164D01*
X196024733Y-78395293D01*
X196000316Y-78329828D01*
X196000000Y-78320982D01*
X196000000Y-68224500D01*
X196019685Y-68157461D01*
X196072489Y-68111706D01*
X196124000Y-68100500D01*
X216560417Y-68100500D01*
X216623602Y-68100500D01*
X216629011Y-68100618D01*
G37*
%TD.AperFunction*%
%TA.AperFunction,Conductor*%
G36*
X127220497Y-90568509D02*
G01*
X127276431Y-90610380D01*
X127299637Y-90665293D01*
X127321656Y-90804310D01*
X127322754Y-90811243D01*
X127384503Y-91001287D01*
X127388444Y-91013414D01*
X127425985Y-91087092D01*
X127439500Y-91143387D01*
X127439500Y-91389486D01*
X127469059Y-91576118D01*
X127527454Y-91755836D01*
X127558477Y-91816721D01*
X127597455Y-91893220D01*
X127613242Y-91924202D01*
X127668821Y-92000701D01*
X127692301Y-92066507D01*
X127676475Y-92134561D01*
X127652108Y-92165162D01*
X127640000Y-92176216D01*
X127640000Y-92946000D01*
X127620315Y-93013039D01*
X127567511Y-93058794D01*
X127516000Y-93070000D01*
X127240000Y-93070000D01*
X127240000Y-93195500D01*
X127220315Y-93262539D01*
X127167511Y-93308294D01*
X127116000Y-93319500D01*
X126890904Y-93319500D01*
X126798438Y-93325918D01*
X126798422Y-93325920D01*
X126581864Y-93376854D01*
X126581858Y-93376856D01*
X126485084Y-93419586D01*
X126394826Y-93459438D01*
X126383665Y-93463735D01*
X126233906Y-93513235D01*
X126227804Y-93513440D01*
X126194991Y-93519500D01*
X126099499Y-93519500D01*
X126032460Y-93499815D01*
X125986705Y-93447011D01*
X125975499Y-93395500D01*
X125975499Y-92847968D01*
X125980283Y-92813857D01*
X125985420Y-92795904D01*
X125993485Y-92767718D01*
X126002173Y-92669999D01*
X126294123Y-92669999D01*
X126294124Y-92670000D01*
X126840000Y-92670000D01*
X126840000Y-92176217D01*
X126837893Y-92176409D01*
X126675604Y-92226980D01*
X126530122Y-92314927D01*
X126409927Y-92435122D01*
X126321981Y-92580603D01*
X126321979Y-92580607D01*
X126294123Y-92669999D01*
X126002173Y-92669999D01*
X126004099Y-92648337D01*
X126004098Y-91680025D01*
X126023782Y-91612987D01*
X126040412Y-91592350D01*
X126830730Y-90802032D01*
X126848323Y-90787422D01*
X127009435Y-90677059D01*
X127089486Y-90597007D01*
X127150805Y-90563525D01*
X127220497Y-90568509D01*
G37*
%TD.AperFunction*%
%TA.AperFunction,Conductor*%
G36*
X125447454Y-84037422D02*
G01*
X125478257Y-84037486D01*
X125481984Y-84039892D01*
X125486412Y-84040209D01*
X125511077Y-84058672D01*
X125536958Y-84075380D01*
X125540231Y-84080497D01*
X125542346Y-84082080D01*
X125555978Y-84105110D01*
X125607991Y-84219623D01*
X125607997Y-84219632D01*
X125736174Y-84404645D01*
X125736178Y-84404650D01*
X125736181Y-84404654D01*
X125895346Y-84563819D01*
X125895350Y-84563822D01*
X125895354Y-84563825D01*
X126009033Y-84642582D01*
X126080374Y-84692007D01*
X126128906Y-84714051D01*
X126285314Y-84785095D01*
X126285315Y-84785095D01*
X126285317Y-84785096D01*
X126503589Y-84840096D01*
X126503592Y-84840096D01*
X126505798Y-84840652D01*
X126565996Y-84876121D01*
X126597462Y-84938504D01*
X126599500Y-84960894D01*
X126599500Y-85294486D01*
X126629059Y-85481118D01*
X126687454Y-85660836D01*
X126758599Y-85800464D01*
X126773240Y-85829199D01*
X126884310Y-85982074D01*
X130589627Y-89687390D01*
X130742501Y-89798460D01*
X130791859Y-89823609D01*
X130910863Y-89884245D01*
X130910865Y-89884245D01*
X130910868Y-89884247D01*
X131007197Y-89915546D01*
X131090581Y-89942640D01*
X131277214Y-89972200D01*
X131277219Y-89972200D01*
X131466182Y-89972200D01*
X131621555Y-89972200D01*
X131688594Y-89991885D01*
X131731462Y-90038786D01*
X131756703Y-90087107D01*
X131756705Y-90087109D01*
X131885291Y-90244809D01*
X131931786Y-90282720D01*
X132042994Y-90373398D01*
X132223352Y-90467609D01*
X132418983Y-90523586D01*
X132538364Y-90534200D01*
X132843068Y-90534199D01*
X132910106Y-90553883D01*
X132955861Y-90606687D01*
X132965805Y-90675846D01*
X132936780Y-90739401D01*
X132915953Y-90758516D01*
X132852934Y-90804302D01*
X132852927Y-90804308D01*
X132744052Y-90913182D01*
X132682729Y-90946666D01*
X132656372Y-90949500D01*
X132071971Y-90949500D01*
X132071965Y-90949500D01*
X132071964Y-90949501D01*
X132060316Y-90950536D01*
X131952584Y-90960113D01*
X131756954Y-91016089D01*
X131666772Y-91063196D01*
X131576593Y-91110302D01*
X131576591Y-91110303D01*
X131576590Y-91110304D01*
X131418890Y-91238890D01*
X131290304Y-91396590D01*
X131290302Y-91396593D01*
X131196091Y-91576951D01*
X131169610Y-91669500D01*
X131158716Y-91707572D01*
X131121349Y-91766609D01*
X131057995Y-91796073D01*
X130988769Y-91786608D01*
X130935650Y-91741219D01*
X130915503Y-91674317D01*
X130915500Y-91673460D01*
X130915500Y-91395904D01*
X130909081Y-91303438D01*
X130909081Y-91303433D01*
X130909079Y-91303427D01*
X130909079Y-91303422D01*
X130858145Y-91086864D01*
X130858144Y-91086861D01*
X130858143Y-91086857D01*
X130768277Y-90883329D01*
X130642542Y-90699779D01*
X130642537Y-90699773D01*
X130485226Y-90542462D01*
X130485220Y-90542457D01*
X130301668Y-90416721D01*
X130098149Y-90326859D01*
X130098134Y-90326854D01*
X130057215Y-90317230D01*
X129996463Y-90282720D01*
X129964013Y-90220842D01*
X129963138Y-90215962D01*
X129957246Y-90178757D01*
X129891557Y-89976588D01*
X129891555Y-89976585D01*
X129891555Y-89976583D01*
X129800796Y-89798460D01*
X129795051Y-89787184D01*
X129795049Y-89787181D01*
X129795048Y-89787179D01*
X129670109Y-89615213D01*
X129519786Y-89464890D01*
X129347820Y-89339951D01*
X129158414Y-89243444D01*
X129158413Y-89243443D01*
X129158412Y-89243443D01*
X128956243Y-89177754D01*
X128956241Y-89177753D01*
X128956240Y-89177753D01*
X128794957Y-89152208D01*
X128746287Y-89144500D01*
X128533713Y-89144500D01*
X128485042Y-89152208D01*
X128323760Y-89177753D01*
X128121585Y-89243444D01*
X127932179Y-89339951D01*
X127760213Y-89464890D01*
X127760209Y-89464894D01*
X127651395Y-89573709D01*
X127590072Y-89607194D01*
X127520380Y-89602210D01*
X127464447Y-89560338D01*
X127440030Y-89494874D01*
X127439714Y-89486028D01*
X127439714Y-89125421D01*
X127433295Y-89032955D01*
X127433295Y-89032950D01*
X127433293Y-89032944D01*
X127433293Y-89032939D01*
X127382359Y-88816381D01*
X127382358Y-88816378D01*
X127382357Y-88816374D01*
X127292491Y-88612846D01*
X127166756Y-88429296D01*
X127166751Y-88429290D01*
X127009440Y-88271979D01*
X127009434Y-88271974D01*
X126825882Y-88146238D01*
X126622365Y-88056377D01*
X126622349Y-88056371D01*
X126405791Y-88005437D01*
X126405775Y-88005435D01*
X126313310Y-87999017D01*
X126313306Y-87999017D01*
X125765122Y-87999017D01*
X125765118Y-87999017D01*
X125672652Y-88005435D01*
X125672636Y-88005437D01*
X125456078Y-88056371D01*
X125456071Y-88056374D01*
X125381655Y-88089232D01*
X125264300Y-88141049D01*
X125195022Y-88150120D01*
X125164128Y-88141049D01*
X124972357Y-88056374D01*
X124972354Y-88056373D01*
X124972349Y-88056371D01*
X124755791Y-88005437D01*
X124755775Y-88005435D01*
X124663310Y-87999017D01*
X124663306Y-87999017D01*
X124164500Y-87999017D01*
X124097461Y-87979332D01*
X124051706Y-87926528D01*
X124040500Y-87875017D01*
X124040500Y-84910533D01*
X124060185Y-84843494D01*
X124112989Y-84797739D01*
X124132402Y-84790759D01*
X124357164Y-84730535D01*
X124641830Y-84612622D01*
X124908670Y-84458562D01*
X125153117Y-84270991D01*
X125355398Y-84068710D01*
X125382433Y-84053947D01*
X125408387Y-84037343D01*
X125412825Y-84037352D01*
X125416721Y-84035225D01*
X125447454Y-84037422D01*
G37*
%TD.AperFunction*%
%TD*%
%TA.AperFunction,Conductor*%
%TO.N,24V*%
G36*
X194543039Y-68120185D02*
G01*
X194588794Y-68172989D01*
X194600000Y-68224500D01*
X194600000Y-74545146D01*
X194580315Y-74612185D01*
X194559411Y-74636899D01*
X192480287Y-76527011D01*
X192417441Y-76557541D01*
X192348065Y-76549247D01*
X192317003Y-76530107D01*
X188127938Y-73002474D01*
X188071122Y-72954629D01*
X191453682Y-72954629D01*
X192166736Y-73619562D01*
X192166744Y-73619569D01*
X192249015Y-73681940D01*
X192249020Y-73681944D01*
X192408344Y-73755112D01*
X192580250Y-73789565D01*
X192755464Y-73783448D01*
X192755468Y-73783447D01*
X192924552Y-73737084D01*
X192924553Y-73737083D01*
X193078380Y-73652983D01*
X193078382Y-73652983D01*
X193089883Y-73642925D01*
X191871405Y-72506675D01*
X191453682Y-72954629D01*
X188071122Y-72954629D01*
X186844127Y-71921370D01*
X186805527Y-71863131D01*
X186800000Y-71826521D01*
X186800000Y-71031838D01*
X189804721Y-71031838D01*
X189810840Y-71207048D01*
X189810841Y-71207054D01*
X189857202Y-71376133D01*
X189941311Y-71529973D01*
X190009275Y-71607698D01*
X190009279Y-71607703D01*
X190722327Y-72272630D01*
X191140052Y-71824676D01*
X191133977Y-71819011D01*
X191133971Y-71819006D01*
X191087126Y-71775322D01*
X192553404Y-71775322D01*
X193771881Y-72911570D01*
X193771882Y-72911570D01*
X193781110Y-72899400D01*
X193781111Y-72899399D01*
X193854279Y-72740075D01*
X193854282Y-72740064D01*
X193888736Y-72568161D01*
X193882617Y-72392951D01*
X193882616Y-72392945D01*
X193836255Y-72223866D01*
X193752146Y-72070026D01*
X193684182Y-71992301D01*
X193684178Y-71992296D01*
X192971128Y-71327367D01*
X192553404Y-71775322D01*
X191087126Y-71775322D01*
X189921575Y-70688428D01*
X189921574Y-70688428D01*
X189912347Y-70700600D01*
X189839178Y-70859924D01*
X189839175Y-70859935D01*
X189804721Y-71031838D01*
X186800000Y-71031838D01*
X186800000Y-69957072D01*
X190603573Y-69957072D01*
X190603573Y-69957074D01*
X191822051Y-71093323D01*
X192239774Y-70645369D01*
X191526721Y-69980437D01*
X191526713Y-69980430D01*
X191444442Y-69918059D01*
X191444437Y-69918055D01*
X191285113Y-69844887D01*
X191113207Y-69810434D01*
X190937993Y-69816551D01*
X190937989Y-69816552D01*
X190768907Y-69862915D01*
X190615068Y-69947021D01*
X190615067Y-69947022D01*
X190603573Y-69957072D01*
X186800000Y-69957072D01*
X186800000Y-68224500D01*
X186819685Y-68157461D01*
X186872489Y-68111706D01*
X186924000Y-68100500D01*
X194476000Y-68100500D01*
X194543039Y-68120185D01*
G37*
%TD.AperFunction*%
%TD*%
%TA.AperFunction,Conductor*%
%TO.N,-24V*%
G36*
X221068849Y-102219685D02*
G01*
X221114604Y-102272489D01*
X221125810Y-102324000D01*
X221125810Y-106476000D01*
X221106125Y-106543039D01*
X221053321Y-106588794D01*
X221001810Y-106600000D01*
X215199999Y-106600000D01*
X212636319Y-109163681D01*
X212574996Y-109197166D01*
X212548638Y-109200000D01*
X207924000Y-109200000D01*
X207856961Y-109180315D01*
X207811206Y-109127511D01*
X207800000Y-109076000D01*
X207800000Y-108047533D01*
X210350265Y-108047533D01*
X210350265Y-108047534D01*
X210362273Y-108056973D01*
X210520306Y-108132915D01*
X210520305Y-108132915D01*
X210691577Y-108170362D01*
X210866874Y-108167303D01*
X210866882Y-108167302D01*
X211036745Y-108123898D01*
X211036746Y-108123898D01*
X211192020Y-108042492D01*
X211192025Y-108042489D01*
X211270921Y-107975896D01*
X211270934Y-107975884D01*
X211948203Y-107274550D01*
X211507606Y-106849071D01*
X210350265Y-108047533D01*
X207800000Y-108047533D01*
X207800000Y-106840757D01*
X209493202Y-106840757D01*
X209496261Y-107016054D01*
X209496262Y-107016062D01*
X209539666Y-107185925D01*
X209539668Y-107185930D01*
X209621070Y-107341199D01*
X209621072Y-107341201D01*
X209630925Y-107352876D01*
X210788267Y-106154414D01*
X210762708Y-106129732D01*
X212202265Y-106129732D01*
X212642860Y-106555211D01*
X213320134Y-105853873D01*
X213320140Y-105853867D01*
X213383945Y-105772690D01*
X213383946Y-105772688D01*
X213459883Y-105614664D01*
X213459884Y-105614662D01*
X213497331Y-105443390D01*
X213494272Y-105268093D01*
X213494271Y-105268085D01*
X213450867Y-105098222D01*
X213450867Y-105098221D01*
X213369458Y-104942942D01*
X213359607Y-104931270D01*
X212202265Y-106129732D01*
X210762708Y-106129732D01*
X210347672Y-105728935D01*
X210347671Y-105728935D01*
X209670408Y-106430264D01*
X209670393Y-106430280D01*
X209606588Y-106511457D01*
X209606587Y-106511459D01*
X209530650Y-106669483D01*
X209530649Y-106669485D01*
X209493202Y-106840757D01*
X207800000Y-106840757D01*
X207800000Y-105009596D01*
X211042329Y-105009596D01*
X211482926Y-105435075D01*
X212640267Y-104236613D01*
X212628257Y-104227173D01*
X212470227Y-104151232D01*
X212470228Y-104151232D01*
X212298956Y-104113785D01*
X212123659Y-104116844D01*
X212123651Y-104116845D01*
X211953788Y-104160249D01*
X211953787Y-104160249D01*
X211798513Y-104241655D01*
X211798508Y-104241658D01*
X211719612Y-104308251D01*
X211719599Y-104308263D01*
X211042329Y-105009596D01*
X207800000Y-105009596D01*
X207800000Y-102324000D01*
X207819685Y-102256961D01*
X207872489Y-102211206D01*
X207924000Y-102200000D01*
X221001810Y-102200000D01*
X221068849Y-102219685D01*
G37*
%TD.AperFunction*%
%TD*%
%TA.AperFunction,Conductor*%
%TO.N,-24V*%
G36*
X191169011Y-118788694D02*
G01*
X191219214Y-118819214D01*
X192763681Y-120363681D01*
X192797166Y-120425004D01*
X192800000Y-120451362D01*
X192800000Y-120931670D01*
X192797723Y-120931670D01*
X192800000Y-120951255D01*
X192800000Y-120960770D01*
X192770160Y-121021692D01*
X192767877Y-121024121D01*
X191588323Y-122245584D01*
X192028918Y-122671063D01*
X192586802Y-122093358D01*
X192647531Y-122058808D01*
X192717299Y-122062576D01*
X192773955Y-122103464D01*
X192799511Y-122168493D01*
X192800000Y-122179496D01*
X192800000Y-127575500D01*
X192780315Y-127642539D01*
X192727511Y-127688294D01*
X192676000Y-127699500D01*
X186924000Y-127699500D01*
X186856961Y-127679815D01*
X186811206Y-127627011D01*
X186800000Y-127575500D01*
X186800000Y-124163385D01*
X189736323Y-124163385D01*
X189736323Y-124163386D01*
X189748331Y-124172825D01*
X189906364Y-124248767D01*
X189906363Y-124248767D01*
X190077635Y-124286214D01*
X190252932Y-124283155D01*
X190252940Y-124283154D01*
X190422803Y-124239750D01*
X190422804Y-124239750D01*
X190578078Y-124158344D01*
X190578083Y-124158341D01*
X190656979Y-124091748D01*
X190656992Y-124091736D01*
X191334261Y-123390402D01*
X190893664Y-122964923D01*
X189736323Y-124163385D01*
X186800000Y-124163385D01*
X186800000Y-123557326D01*
X186819685Y-123490287D01*
X186832050Y-123474133D01*
X186836941Y-123468728D01*
X187300287Y-122956609D01*
X188879260Y-122956609D01*
X188882319Y-123131906D01*
X188882320Y-123131914D01*
X188925724Y-123301777D01*
X188925726Y-123301782D01*
X189007128Y-123457051D01*
X189007130Y-123457053D01*
X189016983Y-123468728D01*
X190174325Y-122270266D01*
X189733730Y-121844787D01*
X189733729Y-121844787D01*
X189056466Y-122546116D01*
X189056451Y-122546132D01*
X188992646Y-122627309D01*
X188992645Y-122627311D01*
X188916708Y-122785335D01*
X188916707Y-122785337D01*
X188879260Y-122956609D01*
X187300287Y-122956609D01*
X188957051Y-121125448D01*
X190428387Y-121125448D01*
X190868984Y-121550927D01*
X192026325Y-120352465D01*
X192014315Y-120343025D01*
X191856285Y-120267084D01*
X191856286Y-120267084D01*
X191685014Y-120229637D01*
X191509717Y-120232696D01*
X191509709Y-120232697D01*
X191339846Y-120276101D01*
X191339845Y-120276101D01*
X191184571Y-120357507D01*
X191184566Y-120357510D01*
X191105670Y-120424103D01*
X191105657Y-120424115D01*
X190428387Y-121125448D01*
X188957051Y-121125448D01*
X191039584Y-118823700D01*
X191099157Y-118787196D01*
X191169011Y-118788694D01*
G37*
%TD.AperFunction*%
%TD*%
%TA.AperFunction,Conductor*%
%TO.N,24V*%
G36*
X212220154Y-86619685D02*
G01*
X212235156Y-86631020D01*
X215600000Y-89600000D01*
X221001810Y-89600000D01*
X221068849Y-89619685D01*
X221114604Y-89672489D01*
X221125810Y-89724000D01*
X221125810Y-95076000D01*
X221106125Y-95143039D01*
X221053321Y-95188794D01*
X221001810Y-95200000D01*
X208124000Y-95200000D01*
X208056961Y-95180315D01*
X208011206Y-95127511D01*
X208000000Y-95076000D01*
X208000000Y-91354629D01*
X211033264Y-91354629D01*
X211746318Y-92019562D01*
X211746326Y-92019569D01*
X211828597Y-92081940D01*
X211828602Y-92081944D01*
X211987926Y-92155112D01*
X212159832Y-92189565D01*
X212335046Y-92183448D01*
X212335050Y-92183447D01*
X212504134Y-92137084D01*
X212504135Y-92137083D01*
X212657962Y-92052983D01*
X212657964Y-92052983D01*
X212669465Y-92042925D01*
X211450987Y-90906675D01*
X211033264Y-91354629D01*
X208000000Y-91354629D01*
X208000000Y-89431838D01*
X209384303Y-89431838D01*
X209390422Y-89607048D01*
X209390423Y-89607054D01*
X209436784Y-89776133D01*
X209520893Y-89929973D01*
X209588857Y-90007698D01*
X209588861Y-90007703D01*
X210301909Y-90672630D01*
X210719634Y-90224676D01*
X210713559Y-90219011D01*
X210713553Y-90219006D01*
X210666708Y-90175322D01*
X212132986Y-90175322D01*
X213351463Y-91311570D01*
X213351464Y-91311570D01*
X213360692Y-91299400D01*
X213360693Y-91299399D01*
X213433861Y-91140075D01*
X213433864Y-91140064D01*
X213468318Y-90968161D01*
X213462199Y-90792951D01*
X213462198Y-90792945D01*
X213415837Y-90623866D01*
X213331728Y-90470026D01*
X213263764Y-90392301D01*
X213263760Y-90392296D01*
X212550710Y-89727367D01*
X212132986Y-90175322D01*
X210666708Y-90175322D01*
X209501157Y-89088428D01*
X209501156Y-89088428D01*
X209491929Y-89100600D01*
X209418760Y-89259924D01*
X209418757Y-89259935D01*
X209384303Y-89431838D01*
X208000000Y-89431838D01*
X208000000Y-88517827D01*
X208006993Y-88494009D01*
X208009867Y-88469354D01*
X208018345Y-88455351D01*
X208019685Y-88450788D01*
X208028147Y-88439162D01*
X208076342Y-88380437D01*
X208095517Y-88357072D01*
X210183155Y-88357072D01*
X210183155Y-88357074D01*
X211401633Y-89493323D01*
X211819356Y-89045369D01*
X211106303Y-88380437D01*
X211106295Y-88380430D01*
X211024024Y-88318059D01*
X211024019Y-88318055D01*
X210864695Y-88244887D01*
X210692789Y-88210434D01*
X210517575Y-88216551D01*
X210517571Y-88216552D01*
X210348489Y-88262915D01*
X210194650Y-88347021D01*
X210194649Y-88347022D01*
X210183155Y-88357072D01*
X208095517Y-88357072D01*
X208241329Y-88179399D01*
X208432410Y-87893426D01*
X208594541Y-87590101D01*
X208726160Y-87272344D01*
X208826000Y-86943217D01*
X208874417Y-86699808D01*
X208906802Y-86637898D01*
X208967517Y-86603324D01*
X208996034Y-86600000D01*
X212153115Y-86600000D01*
X212220154Y-86619685D01*
G37*
%TD.AperFunction*%
%TD*%
M02*
