%TF.GenerationSoftware,KiCad,Pcbnew,9.0.4*%
%TF.CreationDate,2026-03-12T13:52:19-04:00*%
%TF.ProjectId,Power Amp Board,506f7765-7220-4416-9d70-20426f617264,rev?*%
%TF.SameCoordinates,Original*%
%TF.FileFunction,Soldermask,Top*%
%TF.FilePolarity,Negative*%
%FSLAX46Y46*%
G04 Gerber Fmt 4.6, Leading zero omitted, Abs format (unit mm)*
G04 Created by KiCad (PCBNEW 9.0.4) date 2026-03-12 13:52:19*
%MOMM*%
%LPD*%
G01*
G04 APERTURE LIST*
G04 Aperture macros list*
%AMRoundRect*
0 Rectangle with rounded corners*
0 $1 Rounding radius*
0 $2 $3 $4 $5 $6 $7 $8 $9 X,Y pos of 4 corners*
0 Add a 4 corners polygon primitive as box body*
4,1,4,$2,$3,$4,$5,$6,$7,$8,$9,$2,$3,0*
0 Add four circle primitives for the rounded corners*
1,1,$1+$1,$2,$3*
1,1,$1+$1,$4,$5*
1,1,$1+$1,$6,$7*
1,1,$1+$1,$8,$9*
0 Add four rect primitives between the rounded corners*
20,1,$1+$1,$2,$3,$4,$5,0*
20,1,$1+$1,$4,$5,$6,$7,0*
20,1,$1+$1,$6,$7,$8,$9,0*
20,1,$1+$1,$8,$9,$2,$3,0*%
%AMHorizOval*
0 Thick line with rounded ends*
0 $1 width*
0 $2 $3 position (X,Y) of the first rounded end (center of the circle)*
0 $4 $5 position (X,Y) of the second rounded end (center of the circle)*
0 Add line between two ends*
20,1,$1,$2,$3,$4,$5,0*
0 Add two circle primitives to create the rounded ends*
1,1,$1,$2,$3*
1,1,$1,$4,$5*%
G04 Aperture macros list end*
%ADD10RoundRect,0.200000X-0.275000X0.200000X-0.275000X-0.200000X0.275000X-0.200000X0.275000X0.200000X0*%
%ADD11RoundRect,0.250001X1.099999X1.399999X-1.099999X1.399999X-1.099999X-1.399999X1.099999X-1.399999X0*%
%ADD12O,2.700000X3.300000*%
%ADD13C,3.000000*%
%ADD14RoundRect,0.250002X-1.599998X-1.599998X1.599998X-1.599998X1.599998X1.599998X-1.599998X1.599998X0*%
%ADD15C,3.700000*%
%ADD16RoundRect,0.250000X-0.794955X1.236963X-1.289403X0.706732X0.794955X-1.236963X1.289403X-0.706732X0*%
%ADD17RoundRect,0.250000X-0.325000X-0.650000X0.325000X-0.650000X0.325000X0.650000X-0.325000X0.650000X0*%
%ADD18RoundRect,0.225000X-0.250000X0.225000X-0.250000X-0.225000X0.250000X-0.225000X0.250000X0.225000X0*%
%ADD19RoundRect,0.150000X-0.200000X0.150000X-0.200000X-0.150000X0.200000X-0.150000X0.200000X0.150000X0*%
%ADD20R,0.457200X1.524000*%
%ADD21RoundRect,0.200000X0.200000X0.275000X-0.200000X0.275000X-0.200000X-0.275000X0.200000X-0.275000X0*%
%ADD22RoundRect,0.250000X1.250649X0.773246X0.729128X1.276873X-1.250649X-0.773246X-0.729128X-1.276873X0*%
%ADD23RoundRect,0.225000X0.225000X0.250000X-0.225000X0.250000X-0.225000X-0.250000X0.225000X-0.250000X0*%
%ADD24RoundRect,0.200000X0.275000X-0.200000X0.275000X0.200000X-0.275000X0.200000X-0.275000X-0.200000X0*%
%ADD25RoundRect,0.250000X0.794955X-1.236963X1.289403X-0.706732X-0.794955X1.236963X-1.289403X0.706732X0*%
%ADD26RoundRect,0.250000X0.325000X0.650000X-0.325000X0.650000X-0.325000X-0.650000X0.325000X-0.650000X0*%
%ADD27R,1.500000X1.050000*%
%ADD28O,1.500000X1.050000*%
%ADD29RoundRect,0.250001X0.212132X-1.767766X1.767766X-0.212132X-0.212132X1.767766X-1.767766X0.212132X0*%
%ADD30HorizOval,2.700000X-0.212132X0.212132X0.212132X-0.212132X0*%
%ADD31RoundRect,0.250000X-1.250649X-0.773246X-0.729128X-1.276873X1.250649X0.773246X0.729128X1.276873X0*%
%ADD32C,7.000000*%
%ADD33C,5.000000*%
G04 APERTURE END LIST*
D10*
%TO.C,R6*%
X129440000Y-102295000D03*
X129440000Y-103945000D03*
%TD*%
D11*
%TO.C,J2*%
X140000000Y-82200000D03*
D12*
X140000000Y-76700000D03*
%TD*%
D10*
%TO.C,R5*%
X129440000Y-91670000D03*
X129440000Y-93320000D03*
%TD*%
D13*
%TO.C,J1*%
X121330000Y-119525000D03*
X137370000Y-119525000D03*
D14*
X126500000Y-113500000D03*
D15*
X132200000Y-113500000D03*
X126500000Y-119200000D03*
X132200000Y-119200000D03*
%TD*%
D16*
%TO.C,R9*%
X191846729Y-71800000D03*
X187805891Y-76133272D03*
%TD*%
D11*
%TO.C,P1*%
X127800000Y-82200000D03*
D12*
X123600000Y-82200000D03*
X127800000Y-76700000D03*
X123600000Y-76700000D03*
%TD*%
D17*
%TO.C,C5*%
X123625000Y-107800000D03*
X126575000Y-107800000D03*
%TD*%
D18*
%TO.C,C1*%
X137040000Y-91720000D03*
X137040000Y-93270000D03*
%TD*%
D19*
%TO.C,D1*%
X129440000Y-96390000D03*
X129440000Y-94990000D03*
%TD*%
D20*
%TO.C,U1*%
X124774999Y-91828300D03*
X124125001Y-91828300D03*
X123474999Y-91828300D03*
X122825001Y-91828300D03*
X122825001Y-96171700D03*
X123474999Y-96171700D03*
X124125001Y-96171700D03*
X124774999Y-96171700D03*
%TD*%
D21*
%TO.C,R3*%
X123776472Y-98525483D03*
X122126472Y-98525483D03*
%TD*%
D10*
%TO.C,R8*%
X137040000Y-98895000D03*
X137040000Y-100545000D03*
%TD*%
D22*
%TO.C,R12*%
X215757353Y-110257926D03*
X211495267Y-106142074D03*
%TD*%
D23*
%TO.C,C3*%
X138775000Y-86400000D03*
X137225000Y-86400000D03*
%TD*%
D18*
%TO.C,C2*%
X137040000Y-102345000D03*
X137040000Y-103895000D03*
%TD*%
D24*
%TO.C,R2*%
X120440000Y-94720000D03*
X120440000Y-93070000D03*
%TD*%
D25*
%TO.C,R10*%
X211426311Y-90200000D03*
X215467149Y-85866728D03*
%TD*%
D10*
%TO.C,R7*%
X137040000Y-95095000D03*
X137040000Y-96745000D03*
%TD*%
D19*
%TO.C,D2*%
X129440000Y-100605000D03*
X129440000Y-99205000D03*
%TD*%
D21*
%TO.C,R1*%
X126039214Y-89474517D03*
X124389214Y-89474517D03*
%TD*%
D10*
%TO.C,R4*%
X127240000Y-93070000D03*
X127240000Y-94720000D03*
%TD*%
D26*
%TO.C,C4*%
X134975000Y-107800000D03*
X132025000Y-107800000D03*
%TD*%
D20*
%TO.C,U2*%
X132825001Y-88771700D03*
X133474999Y-88771700D03*
X134125001Y-88771700D03*
X134774999Y-88771700D03*
X134774999Y-84428300D03*
X134125001Y-84428300D03*
X133474999Y-84428300D03*
X132825001Y-84428300D03*
%TD*%
D27*
%TO.C,Q1*%
X132880000Y-92475000D03*
D28*
X132880000Y-93745000D03*
X132880000Y-95015000D03*
%TD*%
D29*
%TO.C,J3*%
X144328213Y-111701903D03*
D30*
X148217300Y-115590990D03*
%TD*%
D27*
%TO.C,Q2*%
X133600000Y-103140000D03*
D28*
X133600000Y-101870000D03*
X133600000Y-100600000D03*
%TD*%
D31*
%TO.C,R11*%
X186619239Y-118142074D03*
X190881325Y-122257926D03*
%TD*%
D32*
%TO.C,Q3*%
X152342532Y-89813140D03*
X178409896Y-74763140D03*
D33*
X164248361Y-76634641D03*
X169708361Y-86091639D03*
%TD*%
D32*
%TO.C,Q4*%
X178150088Y-120250000D03*
X152082724Y-105200000D03*
D33*
X160784259Y-116528499D03*
X166244259Y-107071501D03*
%TD*%
D32*
%TO.C,Q6*%
X213868037Y-120250000D03*
X187800673Y-105200000D03*
D33*
X196502208Y-116528499D03*
X201962208Y-107071501D03*
%TD*%
D32*
%TO.C,Q5*%
X188060481Y-89813140D03*
X214127845Y-74763140D03*
D33*
X199966310Y-76634641D03*
X205426310Y-86091639D03*
%TD*%
M02*
