%TF.GenerationSoftware,KiCad,Pcbnew,9.0.4*%
%TF.CreationDate,2026-03-16T14:24:37-04:00*%
%TF.ProjectId,Power Amp Board,506f7765-7220-4416-9d70-20426f617264,rev?*%
%TF.SameCoordinates,Original*%
%TF.FileFunction,Copper,L3,Inr*%
%TF.FilePolarity,Positive*%
%FSLAX46Y46*%
G04 Gerber Fmt 4.6, Leading zero omitted, Abs format (unit mm)*
G04 Created by KiCad (PCBNEW 9.0.4) date 2026-03-16 14:24:37*
%MOMM*%
%LPD*%
G01*
G04 APERTURE LIST*
G04 Aperture macros list*
%AMRoundRect*
0 Rectangle with rounded corners*
0 $1 Rounding radius*
0 $2 $3 $4 $5 $6 $7 $8 $9 X,Y pos of 4 corners*
0 Add a 4 corners polygon primitive as box body*
4,1,4,$2,$3,$4,$5,$6,$7,$8,$9,$2,$3,0*
0 Add four circle primitives for the rounded corners*
1,1,$1+$1,$2,$3*
1,1,$1+$1,$4,$5*
1,1,$1+$1,$6,$7*
1,1,$1+$1,$8,$9*
0 Add four rect primitives between the rounded corners*
20,1,$1+$1,$2,$3,$4,$5,0*
20,1,$1+$1,$4,$5,$6,$7,0*
20,1,$1+$1,$6,$7,$8,$9,0*
20,1,$1+$1,$8,$9,$2,$3,0*%
G04 Aperture macros list end*
%TA.AperFunction,ComponentPad*%
%ADD10RoundRect,0.250001X-1.099999X-1.399999X1.099999X-1.399999X1.099999X1.399999X-1.099999X1.399999X0*%
%TD*%
%TA.AperFunction,ComponentPad*%
%ADD11O,2.700000X3.300000*%
%TD*%
%TA.AperFunction,ComponentPad*%
%ADD12RoundRect,0.250002X1.599998X1.599998X-1.599998X1.599998X-1.599998X-1.599998X1.599998X-1.599998X0*%
%TD*%
%TA.AperFunction,ComponentPad*%
%ADD13C,3.700000*%
%TD*%
%TA.AperFunction,ComponentPad*%
%ADD14R,1.500000X1.050000*%
%TD*%
%TA.AperFunction,ComponentPad*%
%ADD15O,1.500000X1.050000*%
%TD*%
%TA.AperFunction,ComponentPad*%
%ADD16RoundRect,0.250001X-1.399999X1.099999X-1.399999X-1.099999X1.399999X-1.099999X1.399999X1.099999X0*%
%TD*%
%TA.AperFunction,ComponentPad*%
%ADD17O,3.300000X2.700000*%
%TD*%
%TA.AperFunction,ComponentPad*%
%ADD18C,5.000000*%
%TD*%
%TA.AperFunction,ComponentPad*%
%ADD19C,7.000000*%
%TD*%
%TA.AperFunction,ViaPad*%
%ADD20C,0.700000*%
%TD*%
G04 APERTURE END LIST*
D10*
%TO.N,GND*%
%TO.C,J2*%
X140000000Y-75750000D03*
D11*
%TO.N,/audio_in+*%
X140000000Y-81250000D03*
%TD*%
D12*
%TO.N,GND*%
%TO.C,J1*%
X132250000Y-123300000D03*
D13*
X126550000Y-123300000D03*
%TO.N,24V*%
X132250000Y-117600000D03*
%TO.N,-24V*%
X126550000Y-117600000D03*
%TD*%
D10*
%TO.N,GND*%
%TO.C,P1*%
X123500000Y-75750000D03*
D11*
X127700000Y-75750000D03*
%TO.N,/post_pot*%
X123500000Y-81250000D03*
%TO.N,/buffer*%
X127700000Y-81250000D03*
%TD*%
D14*
%TO.N,Net-(Q1-C)*%
%TO.C,Q1*%
X132880000Y-92475000D03*
D15*
%TO.N,Net-(D1-A)*%
X132880000Y-93745000D03*
%TO.N,Net-(Q1-E)*%
X132880000Y-95015000D03*
%TD*%
D16*
%TO.N,GND*%
%TO.C,J3*%
X217400000Y-98000000D03*
D17*
%TO.N,/audio_out+*%
X211900000Y-98000000D03*
%TD*%
D14*
%TO.N,Net-(Q2-C)*%
%TO.C,Q2*%
X133600000Y-103140000D03*
D15*
%TO.N,Net-(D2-K)*%
X133600000Y-101870000D03*
%TO.N,Net-(Q2-E)*%
X133600000Y-100600000D03*
%TD*%
D18*
%TO.N,Net-(Q3-E)*%
%TO.C,Q3*%
X160600000Y-78330718D03*
%TO.N,Net-(Q1-C)*%
X166060000Y-87787716D03*
D19*
%TO.N,/audio_out+*%
X177965829Y-74609217D03*
X151898465Y-89659217D03*
%TD*%
D18*
%TO.N,Net-(Q4-E)*%
%TO.C,Q4*%
X164064102Y-118363140D03*
%TO.N,Net-(Q2-C)*%
X169524102Y-108906142D03*
D19*
%TO.N,/audio_out+*%
X152158273Y-105184641D03*
X178225637Y-120234641D03*
%TD*%
D18*
%TO.N,Net-(Q6-E)*%
%TO.C,Q6*%
X199782051Y-118363140D03*
%TO.N,Net-(Q2-C)*%
X205242051Y-108906142D03*
D19*
%TO.N,/audio_out+*%
X187876222Y-105184641D03*
X213943586Y-120234641D03*
%TD*%
D18*
%TO.N,Net-(Q5-E)*%
%TO.C,Q5*%
X196317949Y-78330718D03*
%TO.N,Net-(Q1-C)*%
X201777949Y-87787716D03*
D19*
%TO.N,/audio_out+*%
X213683778Y-74609217D03*
X187616414Y-89659217D03*
%TD*%
D20*
%TO.N,GND*%
X218400000Y-93000000D03*
X176600000Y-93600000D03*
X128600000Y-108800000D03*
X171800000Y-93600000D03*
X210800000Y-81000000D03*
X175600000Y-90000000D03*
X128000000Y-88000000D03*
X166800000Y-102600000D03*
X130200000Y-108800000D03*
X126000000Y-70800000D03*
X162000000Y-102600000D03*
X123800000Y-103000000D03*
X125800000Y-100400000D03*
X145000000Y-92200000D03*
X179600000Y-90000000D03*
X178400000Y-125531961D03*
X126800000Y-107800000D03*
X219200000Y-80800000D03*
X169400000Y-69600000D03*
X163400000Y-125531961D03*
X156400000Y-71200000D03*
X218400000Y-103200000D03*
X213600000Y-93000000D03*
X208200000Y-103200000D03*
X146200000Y-71200000D03*
X203400000Y-103200000D03*
X156000000Y-81200000D03*
X164000000Y-69600000D03*
X208200000Y-93000000D03*
X177000000Y-102600000D03*
X174200000Y-69600000D03*
X205600000Y-71600000D03*
X203400000Y-93000000D03*
X136200000Y-70800000D03*
X159200000Y-69600000D03*
X168200000Y-125531961D03*
X161600000Y-93600000D03*
X172200000Y-102600000D03*
X125400000Y-85600000D03*
X209000000Y-114600000D03*
X166400000Y-93600000D03*
X164000000Y-71400000D03*
X130800000Y-70800000D03*
X133040000Y-97695000D03*
X141000000Y-70800000D03*
X173600000Y-125531961D03*
X213600000Y-103200000D03*
X201200000Y-122000000D03*
X132000000Y-107800000D03*
%TO.N,-24V*%
X186600000Y-122800000D03*
X189600000Y-126800000D03*
X150600000Y-125800000D03*
X149600000Y-124800000D03*
X150600000Y-126800000D03*
X187600000Y-126800000D03*
X149600000Y-125800000D03*
X190600000Y-125800000D03*
X152600000Y-125800000D03*
X151600000Y-125800000D03*
X188600000Y-124800000D03*
X153600000Y-123800000D03*
X189600000Y-125800000D03*
X151600000Y-124800000D03*
X149600000Y-122800000D03*
X190600000Y-123800000D03*
X153600000Y-126800000D03*
X127640000Y-102895000D03*
X187600000Y-124800000D03*
X186600000Y-126800000D03*
X126440000Y-96695000D03*
X186600000Y-124800000D03*
X186600000Y-125800000D03*
X187600000Y-123800000D03*
X187600000Y-125800000D03*
X149600000Y-123800000D03*
X189600000Y-124800000D03*
X132200000Y-82600000D03*
X151600000Y-126800000D03*
X150600000Y-123800000D03*
X188600000Y-125800000D03*
X190600000Y-124800000D03*
X150600000Y-124800000D03*
X190600000Y-126800000D03*
X153600000Y-124800000D03*
X186600000Y-123800000D03*
X153600000Y-125800000D03*
X188600000Y-126800000D03*
X149600000Y-126800000D03*
X152600000Y-126800000D03*
X152600000Y-124800000D03*
%TO.N,24V*%
X135800000Y-90000000D03*
X152400000Y-72000000D03*
X185401980Y-70911738D03*
X187400000Y-68909557D03*
X184401980Y-68911738D03*
X186401980Y-70911738D03*
X149400000Y-71000000D03*
X188400000Y-68909557D03*
X185401980Y-71911738D03*
X186400000Y-68909557D03*
X185401980Y-69911738D03*
X150400000Y-70000000D03*
X149400000Y-69000000D03*
X148400000Y-73000000D03*
X121240000Y-90895000D03*
X149400000Y-70000000D03*
X152400000Y-70000000D03*
X187400000Y-70909557D03*
X184401980Y-69911738D03*
X148400000Y-70000000D03*
X152400000Y-71000000D03*
X184401980Y-71911738D03*
X152400000Y-69000000D03*
X151400000Y-71000000D03*
X188400000Y-71909557D03*
X128640000Y-90495000D03*
X188400000Y-70909557D03*
X151400000Y-69000000D03*
X188400000Y-69909557D03*
X184401980Y-72911738D03*
X187400000Y-69909557D03*
X186400000Y-69909557D03*
X148400000Y-69000000D03*
X149400000Y-72000000D03*
X148400000Y-72000000D03*
X150400000Y-69000000D03*
X184401980Y-70911738D03*
X151400000Y-70000000D03*
X150400000Y-71000000D03*
X185401980Y-68911738D03*
X148400000Y-71000000D03*
%TD*%
%TA.AperFunction,Conductor*%
%TO.N,24V*%
G36*
X158677213Y-68105033D02*
G01*
X158693297Y-68104574D01*
X158710047Y-68114674D01*
X158728813Y-68120185D01*
X158739348Y-68132343D01*
X158753130Y-68140654D01*
X158761761Y-68158209D01*
X158774568Y-68172989D01*
X158776857Y-68188913D01*
X158783958Y-68203355D01*
X158781728Y-68222786D01*
X158784512Y-68242147D01*
X158777827Y-68256784D01*
X158775993Y-68272769D01*
X158763613Y-68287908D01*
X158755487Y-68305703D01*
X158741456Y-68315005D01*
X158731765Y-68326858D01*
X158700094Y-68342429D01*
X158681588Y-68348443D01*
X158681585Y-68348444D01*
X158492179Y-68444951D01*
X158320213Y-68569890D01*
X158169890Y-68720213D01*
X158044951Y-68892179D01*
X157948444Y-69081585D01*
X157882753Y-69283760D01*
X157861432Y-69418376D01*
X157849500Y-69493713D01*
X157849500Y-69706287D01*
X157859534Y-69769644D01*
X157877449Y-69882753D01*
X157882754Y-69916243D01*
X157939919Y-70092179D01*
X157948444Y-70118414D01*
X158044951Y-70307820D01*
X158169890Y-70479786D01*
X158320213Y-70630109D01*
X158492179Y-70755048D01*
X158492181Y-70755049D01*
X158492184Y-70755051D01*
X158681588Y-70851557D01*
X158883757Y-70917246D01*
X159093713Y-70950500D01*
X159093714Y-70950500D01*
X159306286Y-70950500D01*
X159306287Y-70950500D01*
X159516243Y-70917246D01*
X159718412Y-70851557D01*
X159907816Y-70755051D01*
X159978868Y-70703429D01*
X160079786Y-70630109D01*
X160079788Y-70630106D01*
X160079792Y-70630104D01*
X160230104Y-70479792D01*
X160230106Y-70479788D01*
X160230109Y-70479786D01*
X160355048Y-70307820D01*
X160355049Y-70307819D01*
X160355051Y-70307816D01*
X160451557Y-70118412D01*
X160517246Y-69916243D01*
X160550500Y-69706287D01*
X160550500Y-69493713D01*
X160517246Y-69283757D01*
X160451557Y-69081588D01*
X160355051Y-68892184D01*
X160355049Y-68892181D01*
X160355048Y-68892179D01*
X160230109Y-68720213D01*
X160079786Y-68569890D01*
X159907820Y-68444951D01*
X159718414Y-68348444D01*
X159718413Y-68348443D01*
X159718412Y-68348443D01*
X159699907Y-68342430D01*
X159642232Y-68302994D01*
X159615034Y-68238635D01*
X159626949Y-68169789D01*
X159674193Y-68118313D01*
X159738226Y-68100500D01*
X163461774Y-68100500D01*
X163528813Y-68120185D01*
X163574568Y-68172989D01*
X163584512Y-68242147D01*
X163555487Y-68305703D01*
X163500093Y-68342430D01*
X163481588Y-68348443D01*
X163481585Y-68348444D01*
X163292179Y-68444951D01*
X163120213Y-68569890D01*
X162969890Y-68720213D01*
X162844951Y-68892179D01*
X162748444Y-69081585D01*
X162682753Y-69283760D01*
X162661432Y-69418376D01*
X162649500Y-69493713D01*
X162649500Y-69706287D01*
X162659534Y-69769644D01*
X162677449Y-69882753D01*
X162682754Y-69916243D01*
X162739919Y-70092179D01*
X162748444Y-70118414D01*
X162844948Y-70307815D01*
X162931624Y-70427115D01*
X162955103Y-70492922D01*
X162939277Y-70560976D01*
X162931624Y-70572885D01*
X162844948Y-70692184D01*
X162748444Y-70881585D01*
X162682753Y-71083760D01*
X162649500Y-71293713D01*
X162649500Y-71506286D01*
X162676980Y-71679792D01*
X162682754Y-71716243D01*
X162747738Y-71916243D01*
X162748444Y-71918414D01*
X162844951Y-72107820D01*
X162969890Y-72279786D01*
X163120213Y-72430109D01*
X163292179Y-72555048D01*
X163292181Y-72555049D01*
X163292184Y-72555051D01*
X163481588Y-72651557D01*
X163683757Y-72717246D01*
X163893713Y-72750500D01*
X163893714Y-72750500D01*
X164106286Y-72750500D01*
X164106287Y-72750500D01*
X164316243Y-72717246D01*
X164518412Y-72651557D01*
X164707816Y-72555051D01*
X164743484Y-72529137D01*
X164879786Y-72430109D01*
X164879788Y-72430106D01*
X164879792Y-72430104D01*
X165030104Y-72279792D01*
X165030106Y-72279788D01*
X165030109Y-72279786D01*
X165155048Y-72107820D01*
X165155047Y-72107820D01*
X165155051Y-72107816D01*
X165251557Y-71918412D01*
X165317246Y-71716243D01*
X165350500Y-71506287D01*
X165350500Y-71293713D01*
X165317246Y-71083757D01*
X165251557Y-70881588D01*
X165155051Y-70692184D01*
X165097820Y-70613412D01*
X165068376Y-70572885D01*
X165044896Y-70507079D01*
X165060722Y-70439025D01*
X165068376Y-70427115D01*
X165120726Y-70355060D01*
X165155051Y-70307816D01*
X165251557Y-70118412D01*
X165317246Y-69916243D01*
X165350500Y-69706287D01*
X165350500Y-69493713D01*
X165317246Y-69283757D01*
X165251557Y-69081588D01*
X165155051Y-68892184D01*
X165155049Y-68892181D01*
X165155048Y-68892179D01*
X165030109Y-68720213D01*
X164879786Y-68569890D01*
X164707820Y-68444951D01*
X164518414Y-68348444D01*
X164518413Y-68348443D01*
X164518412Y-68348443D01*
X164499907Y-68342430D01*
X164442232Y-68302994D01*
X164415034Y-68238635D01*
X164426949Y-68169789D01*
X164474193Y-68118313D01*
X164538226Y-68100500D01*
X168861774Y-68100500D01*
X168928813Y-68120185D01*
X168974568Y-68172989D01*
X168984512Y-68242147D01*
X168955487Y-68305703D01*
X168900093Y-68342430D01*
X168881588Y-68348443D01*
X168881585Y-68348444D01*
X168692179Y-68444951D01*
X168520213Y-68569890D01*
X168369890Y-68720213D01*
X168244951Y-68892179D01*
X168148444Y-69081585D01*
X168082753Y-69283760D01*
X168061432Y-69418376D01*
X168049500Y-69493713D01*
X168049500Y-69706287D01*
X168059534Y-69769644D01*
X168077449Y-69882753D01*
X168082754Y-69916243D01*
X168139919Y-70092179D01*
X168148444Y-70118414D01*
X168244951Y-70307820D01*
X168369890Y-70479786D01*
X168520213Y-70630109D01*
X168692179Y-70755048D01*
X168692181Y-70755049D01*
X168692184Y-70755051D01*
X168881588Y-70851557D01*
X169083757Y-70917246D01*
X169293713Y-70950500D01*
X169293714Y-70950500D01*
X169506286Y-70950500D01*
X169506287Y-70950500D01*
X169716243Y-70917246D01*
X169918412Y-70851557D01*
X170107816Y-70755051D01*
X170178868Y-70703429D01*
X170279786Y-70630109D01*
X170279788Y-70630106D01*
X170279792Y-70630104D01*
X170430104Y-70479792D01*
X170430106Y-70479788D01*
X170430109Y-70479786D01*
X170555048Y-70307820D01*
X170555049Y-70307819D01*
X170555051Y-70307816D01*
X170651557Y-70118412D01*
X170717246Y-69916243D01*
X170750500Y-69706287D01*
X170750500Y-69493713D01*
X170717246Y-69283757D01*
X170651557Y-69081588D01*
X170555051Y-68892184D01*
X170555049Y-68892181D01*
X170555048Y-68892179D01*
X170430109Y-68720213D01*
X170279786Y-68569890D01*
X170107820Y-68444951D01*
X169918414Y-68348444D01*
X169918413Y-68348443D01*
X169918412Y-68348443D01*
X169899907Y-68342430D01*
X169842232Y-68302994D01*
X169815034Y-68238635D01*
X169826949Y-68169789D01*
X169874193Y-68118313D01*
X169938226Y-68100500D01*
X173661774Y-68100500D01*
X173728813Y-68120185D01*
X173774568Y-68172989D01*
X173784512Y-68242147D01*
X173755487Y-68305703D01*
X173700093Y-68342430D01*
X173681588Y-68348443D01*
X173681585Y-68348444D01*
X173492179Y-68444951D01*
X173320213Y-68569890D01*
X173169890Y-68720213D01*
X173044951Y-68892179D01*
X172948444Y-69081585D01*
X172882753Y-69283760D01*
X172861432Y-69418376D01*
X172849500Y-69493713D01*
X172849500Y-69706287D01*
X172859534Y-69769644D01*
X172877449Y-69882753D01*
X172882754Y-69916243D01*
X172939919Y-70092179D01*
X172948444Y-70118414D01*
X173044951Y-70307820D01*
X173169890Y-70479786D01*
X173320213Y-70630109D01*
X173492179Y-70755048D01*
X173492181Y-70755049D01*
X173492184Y-70755051D01*
X173681588Y-70851557D01*
X173883757Y-70917246D01*
X174093713Y-70950500D01*
X174093714Y-70950500D01*
X174306286Y-70950500D01*
X174306287Y-70950500D01*
X174516243Y-70917246D01*
X174718412Y-70851557D01*
X174907816Y-70755051D01*
X174978868Y-70703429D01*
X175079786Y-70630109D01*
X175079788Y-70630106D01*
X175079792Y-70630104D01*
X175230104Y-70479792D01*
X175230106Y-70479788D01*
X175230109Y-70479786D01*
X175355048Y-70307820D01*
X175355049Y-70307819D01*
X175355051Y-70307816D01*
X175451557Y-70118412D01*
X175517246Y-69916243D01*
X175550500Y-69706287D01*
X175550500Y-69493713D01*
X175517246Y-69283757D01*
X175451557Y-69081588D01*
X175355051Y-68892184D01*
X175355049Y-68892181D01*
X175355048Y-68892179D01*
X175230109Y-68720213D01*
X175079786Y-68569890D01*
X174907820Y-68444951D01*
X174718414Y-68348444D01*
X174718413Y-68348443D01*
X174718412Y-68348443D01*
X174699907Y-68342430D01*
X174642232Y-68302994D01*
X174615034Y-68238635D01*
X174626949Y-68169789D01*
X174674193Y-68118313D01*
X174738226Y-68100500D01*
X216560417Y-68100500D01*
X216623602Y-68100500D01*
X216629011Y-68100618D01*
X217013079Y-68117387D01*
X217023813Y-68118327D01*
X217402275Y-68168152D01*
X217412909Y-68170027D01*
X217785591Y-68252650D01*
X217796023Y-68255445D01*
X218160072Y-68370230D01*
X218170215Y-68373921D01*
X218487610Y-68505391D01*
X218522877Y-68520000D01*
X218532681Y-68524572D01*
X218871269Y-68700830D01*
X218880610Y-68706224D01*
X219172501Y-68892179D01*
X219202541Y-68911317D01*
X219211402Y-68917521D01*
X219514234Y-69149892D01*
X219522521Y-69156846D01*
X219803938Y-69414718D01*
X219811587Y-69422367D01*
X220069459Y-69703785D01*
X220076413Y-69712072D01*
X220308778Y-70014897D01*
X220314983Y-70023758D01*
X220520077Y-70345692D01*
X220525485Y-70355060D01*
X220701731Y-70693625D01*
X220706303Y-70703429D01*
X220852376Y-71056080D01*
X220856076Y-71066246D01*
X220970855Y-71430279D01*
X220973654Y-71440726D01*
X221034734Y-71716239D01*
X221056272Y-71813388D01*
X221058150Y-71824042D01*
X221107971Y-72202473D01*
X221108914Y-72213249D01*
X221123837Y-72555051D01*
X221125692Y-72597517D01*
X221125810Y-72602926D01*
X221125810Y-97775339D01*
X221106125Y-97842378D01*
X221053321Y-97888133D01*
X221001679Y-97899339D01*
X220174369Y-97898464D01*
X220107350Y-97878708D01*
X220061651Y-97825856D01*
X220050500Y-97774464D01*
X220050500Y-96835791D01*
X220050500Y-96835784D01*
X220040096Y-96703589D01*
X220018916Y-96619536D01*
X219985097Y-96485321D01*
X219985096Y-96485318D01*
X219967643Y-96446894D01*
X219892007Y-96280374D01*
X219763819Y-96095346D01*
X219604654Y-95936181D01*
X219604650Y-95936178D01*
X219604645Y-95936174D01*
X219419632Y-95807997D01*
X219419630Y-95807995D01*
X219419626Y-95807993D01*
X219334803Y-95769465D01*
X219214681Y-95714903D01*
X219214678Y-95714902D01*
X218996419Y-95659905D01*
X218996412Y-95659904D01*
X218864221Y-95649500D01*
X218864216Y-95649500D01*
X215935784Y-95649500D01*
X215935778Y-95649500D01*
X215803587Y-95659904D01*
X215803580Y-95659905D01*
X215585321Y-95714902D01*
X215585318Y-95714903D01*
X215380377Y-95807991D01*
X215380367Y-95807997D01*
X215195354Y-95936174D01*
X215195342Y-95936184D01*
X215036184Y-96095342D01*
X215036174Y-96095354D01*
X214907997Y-96280367D01*
X214907991Y-96280377D01*
X214814903Y-96485318D01*
X214814902Y-96485321D01*
X214759905Y-96703580D01*
X214759904Y-96703587D01*
X214749500Y-96835778D01*
X214749500Y-97491357D01*
X214729815Y-97558396D01*
X214677011Y-97604151D01*
X214607853Y-97614095D01*
X214544297Y-97585070D01*
X214506523Y-97526292D01*
X214505725Y-97523450D01*
X214497126Y-97491357D01*
X214430535Y-97242836D01*
X214312622Y-96958170D01*
X214312620Y-96958167D01*
X214312618Y-96958162D01*
X214257578Y-96862830D01*
X214158562Y-96691330D01*
X214000483Y-96485318D01*
X213970992Y-96446884D01*
X213970986Y-96446877D01*
X213753122Y-96229013D01*
X213753115Y-96229007D01*
X213508674Y-96041441D01*
X213508673Y-96041440D01*
X213508670Y-96041438D01*
X213326365Y-95936184D01*
X213241837Y-95887381D01*
X213241826Y-95887376D01*
X212957162Y-95769464D01*
X212659542Y-95689717D01*
X212354069Y-95649501D01*
X212354066Y-95649500D01*
X212354060Y-95649500D01*
X211445940Y-95649500D01*
X211445934Y-95649500D01*
X211445930Y-95649501D01*
X211140457Y-95689717D01*
X210842837Y-95769464D01*
X210558173Y-95887376D01*
X210558162Y-95887381D01*
X210291325Y-96041441D01*
X210046884Y-96229007D01*
X210046877Y-96229013D01*
X209829013Y-96446877D01*
X209829007Y-96446884D01*
X209641441Y-96691325D01*
X209487381Y-96958162D01*
X209487376Y-96958173D01*
X209369464Y-97242837D01*
X209289718Y-97540457D01*
X209258314Y-97778985D01*
X209230047Y-97842881D01*
X209171723Y-97881352D01*
X209135244Y-97886799D01*
X140660000Y-97814436D01*
X140660000Y-127575500D01*
X140640315Y-127642539D01*
X140587511Y-127688294D01*
X140536000Y-127699500D01*
X123029014Y-127699500D01*
X123023607Y-127699382D01*
X122639557Y-127682615D01*
X122628781Y-127681672D01*
X122250349Y-127631851D01*
X122239696Y-127629973D01*
X121867034Y-127547356D01*
X121856585Y-127544556D01*
X121492547Y-127429776D01*
X121482382Y-127426076D01*
X121129738Y-127280007D01*
X121119933Y-127275435D01*
X120781362Y-127099186D01*
X120771994Y-127093778D01*
X120450059Y-126888684D01*
X120441198Y-126882479D01*
X120138380Y-126650119D01*
X120130093Y-126643166D01*
X119848655Y-126385276D01*
X119841018Y-126377638D01*
X119583145Y-126096219D01*
X119576196Y-126087939D01*
X119574015Y-126085097D01*
X119343814Y-125785094D01*
X119337611Y-125776233D01*
X119285040Y-125693713D01*
X119132522Y-125454308D01*
X119127129Y-125444968D01*
X118950867Y-125106372D01*
X118946298Y-125096574D01*
X118800220Y-124743911D01*
X118796531Y-124733776D01*
X118681738Y-124369702D01*
X118678949Y-124359290D01*
X118596325Y-123986599D01*
X118594452Y-123975972D01*
X118544626Y-123597507D01*
X118543686Y-123586772D01*
X118526928Y-123202931D01*
X118526810Y-123197522D01*
X118526810Y-117146907D01*
X119752500Y-117146907D01*
X119752500Y-117403092D01*
X119792574Y-117656107D01*
X119871736Y-117899743D01*
X119988037Y-118127996D01*
X120138612Y-118335245D01*
X120319755Y-118516388D01*
X120527004Y-118666963D01*
X120755257Y-118783264D01*
X120998893Y-118862426D01*
X121129249Y-118883072D01*
X121251908Y-118902500D01*
X121251913Y-118902500D01*
X121508092Y-118902500D01*
X121619908Y-118884789D01*
X121761107Y-118862426D01*
X122004743Y-118783264D01*
X122232996Y-118666963D01*
X122440245Y-118516388D01*
X122621388Y-118335245D01*
X122771963Y-118127996D01*
X122888264Y-117899743D01*
X122967426Y-117656107D01*
X123001668Y-117439914D01*
X123699500Y-117439914D01*
X123699500Y-117760085D01*
X123735345Y-118078216D01*
X123735347Y-118078228D01*
X123806589Y-118390362D01*
X123806590Y-118390364D01*
X123912332Y-118692559D01*
X124051243Y-118981010D01*
X124051245Y-118981013D01*
X124221581Y-119252101D01*
X124421198Y-119502413D01*
X124647587Y-119728802D01*
X124897899Y-119928419D01*
X125168987Y-120098755D01*
X125457442Y-120237668D01*
X125604610Y-120289164D01*
X125729766Y-120332958D01*
X125786543Y-120373680D01*
X125812290Y-120438633D01*
X125798834Y-120507194D01*
X125750447Y-120557597D01*
X125729766Y-120567042D01*
X125457440Y-120662332D01*
X125168989Y-120801243D01*
X124897900Y-120971580D01*
X124647587Y-121171197D01*
X124421197Y-121397587D01*
X124221580Y-121647900D01*
X124051243Y-121918989D01*
X123912332Y-122207440D01*
X123806590Y-122509635D01*
X123806589Y-122509637D01*
X123735347Y-122821771D01*
X123735345Y-122821783D01*
X123699500Y-123139914D01*
X123699500Y-123460085D01*
X123735345Y-123778216D01*
X123735347Y-123778228D01*
X123806589Y-124090362D01*
X123806590Y-124090364D01*
X123912332Y-124392559D01*
X124051243Y-124681010D01*
X124084389Y-124733761D01*
X124221581Y-124952101D01*
X124336664Y-125096411D01*
X124420219Y-125201186D01*
X124421198Y-125202413D01*
X124647587Y-125428802D01*
X124897899Y-125628419D01*
X125168987Y-125798755D01*
X125457442Y-125937668D01*
X125759637Y-126043410D01*
X126071771Y-126114653D01*
X126389915Y-126150499D01*
X126389916Y-126150500D01*
X126389919Y-126150500D01*
X126710084Y-126150500D01*
X126710084Y-126150499D01*
X127028229Y-126114653D01*
X127340363Y-126043410D01*
X127642558Y-125937668D01*
X127931013Y-125798755D01*
X128202101Y-125628419D01*
X128452413Y-125428802D01*
X128678802Y-125202413D01*
X128878419Y-124952101D01*
X129048755Y-124681013D01*
X129163780Y-124442162D01*
X129210602Y-124390303D01*
X129278029Y-124371990D01*
X129344653Y-124393038D01*
X129389322Y-124446764D01*
X129399500Y-124495964D01*
X129399500Y-124964233D01*
X129409903Y-125096411D01*
X129409904Y-125096418D01*
X129464901Y-125314677D01*
X129464902Y-125314680D01*
X129557990Y-125519623D01*
X129557996Y-125519632D01*
X129686173Y-125704645D01*
X129686177Y-125704650D01*
X129686180Y-125704654D01*
X129845346Y-125863820D01*
X129845350Y-125863823D01*
X129845354Y-125863826D01*
X129951939Y-125937668D01*
X130030374Y-125992008D01*
X130235318Y-126085097D01*
X130235322Y-126085098D01*
X130453581Y-126140095D01*
X130453583Y-126140095D01*
X130453590Y-126140097D01*
X130585772Y-126150500D01*
X130585780Y-126150500D01*
X133914220Y-126150500D01*
X133914228Y-126150500D01*
X134046410Y-126140097D01*
X134264682Y-126085097D01*
X134469626Y-125992008D01*
X134654654Y-125863820D01*
X134813820Y-125704654D01*
X134942008Y-125519626D01*
X135035097Y-125314682D01*
X135090097Y-125096410D01*
X135100500Y-124964228D01*
X135100500Y-121635772D01*
X135090097Y-121503590D01*
X135076467Y-121449500D01*
X135035098Y-121285322D01*
X135035097Y-121285319D01*
X134986423Y-121178159D01*
X134942008Y-121080374D01*
X134866635Y-120971580D01*
X134813826Y-120895354D01*
X134813823Y-120895350D01*
X134813820Y-120895346D01*
X134654654Y-120736180D01*
X134654650Y-120736177D01*
X134654645Y-120736173D01*
X134469632Y-120607996D01*
X134469623Y-120607990D01*
X134264680Y-120514902D01*
X134264677Y-120514901D01*
X134046418Y-120459904D01*
X134046411Y-120459903D01*
X133914233Y-120449500D01*
X133914228Y-120449500D01*
X130585772Y-120449500D01*
X130585766Y-120449500D01*
X130453588Y-120459903D01*
X130453581Y-120459904D01*
X130235322Y-120514901D01*
X130235319Y-120514902D01*
X130030376Y-120607990D01*
X130030367Y-120607996D01*
X129845354Y-120736173D01*
X129845342Y-120736183D01*
X129686183Y-120895342D01*
X129686173Y-120895354D01*
X129557996Y-121080367D01*
X129557990Y-121080376D01*
X129464902Y-121285319D01*
X129464901Y-121285322D01*
X129409904Y-121503581D01*
X129409903Y-121503588D01*
X129399500Y-121635766D01*
X129399500Y-122104035D01*
X129379815Y-122171074D01*
X129327011Y-122216829D01*
X129257853Y-122226773D01*
X129194297Y-122197748D01*
X129163780Y-122157837D01*
X129048756Y-121918989D01*
X128992796Y-121829929D01*
X128878419Y-121647899D01*
X128678802Y-121397587D01*
X128452413Y-121171198D01*
X128202101Y-120971581D01*
X127931013Y-120801245D01*
X127931010Y-120801243D01*
X127642559Y-120662332D01*
X127370233Y-120567042D01*
X127313457Y-120526320D01*
X127287709Y-120461367D01*
X127301165Y-120392806D01*
X127349552Y-120342403D01*
X127370233Y-120332958D01*
X127642558Y-120237668D01*
X127931013Y-120098755D01*
X128202101Y-119928419D01*
X128452413Y-119728802D01*
X128678802Y-119502413D01*
X128678808Y-119502406D01*
X128714712Y-119457384D01*
X128714712Y-119457383D01*
X128878419Y-119252101D01*
X129048755Y-118981013D01*
X129187668Y-118692558D01*
X129293410Y-118390363D01*
X129364653Y-118078229D01*
X129400500Y-117760081D01*
X129400500Y-117445979D01*
X129900000Y-117445979D01*
X129900000Y-117754020D01*
X129900001Y-117754037D01*
X129940208Y-118059442D01*
X130019940Y-118357003D01*
X130137821Y-118641596D01*
X130137828Y-118641611D01*
X130270861Y-118872030D01*
X130270862Y-118872031D01*
X131367296Y-117775596D01*
X131384586Y-117862520D01*
X131452430Y-118026310D01*
X131550924Y-118173717D01*
X131676283Y-118299076D01*
X131823690Y-118397570D01*
X131987480Y-118465414D01*
X132074402Y-118482703D01*
X130977968Y-119579137D01*
X131208389Y-119712171D01*
X131208403Y-119712178D01*
X131492996Y-119830059D01*
X131790557Y-119909791D01*
X132095962Y-119949998D01*
X132095980Y-119950000D01*
X132404020Y-119950000D01*
X132404037Y-119949998D01*
X132709442Y-119909791D01*
X133007003Y-119830059D01*
X133291599Y-119712177D01*
X133291615Y-119712169D01*
X133522030Y-119579138D01*
X133522031Y-119579136D01*
X132425598Y-118482703D01*
X132512520Y-118465414D01*
X132676310Y-118397570D01*
X132823717Y-118299076D01*
X132949076Y-118173717D01*
X133047570Y-118026310D01*
X133115414Y-117862520D01*
X133132703Y-117775597D01*
X134229136Y-118872031D01*
X134229138Y-118872030D01*
X134362169Y-118641615D01*
X134362177Y-118641599D01*
X134480059Y-118357003D01*
X134559791Y-118059442D01*
X134599998Y-117754037D01*
X134600000Y-117754020D01*
X134600000Y-117445979D01*
X134599999Y-117445965D01*
X134562117Y-117158227D01*
X134562116Y-117158224D01*
X134560626Y-117146907D01*
X135792500Y-117146907D01*
X135792500Y-117403092D01*
X135832574Y-117656107D01*
X135911736Y-117899743D01*
X136028037Y-118127996D01*
X136178612Y-118335245D01*
X136359755Y-118516388D01*
X136567004Y-118666963D01*
X136795257Y-118783264D01*
X137038893Y-118862426D01*
X137169249Y-118883072D01*
X137291908Y-118902500D01*
X137291913Y-118902500D01*
X137548092Y-118902500D01*
X137659908Y-118884789D01*
X137801107Y-118862426D01*
X138044743Y-118783264D01*
X138272996Y-118666963D01*
X138480245Y-118516388D01*
X138661388Y-118335245D01*
X138811963Y-118127996D01*
X138928264Y-117899743D01*
X139007426Y-117656107D01*
X139040709Y-117445965D01*
X139047500Y-117403092D01*
X139047500Y-117146907D01*
X139026247Y-117012726D01*
X139007426Y-116893893D01*
X138928264Y-116650257D01*
X138811963Y-116422004D01*
X138661388Y-116214755D01*
X138480245Y-116033612D01*
X138272996Y-115883037D01*
X138044743Y-115766736D01*
X137801107Y-115687574D01*
X137548092Y-115647500D01*
X137548087Y-115647500D01*
X137291913Y-115647500D01*
X137291908Y-115647500D01*
X137038892Y-115687574D01*
X136795254Y-115766737D01*
X136567003Y-115883037D01*
X136359752Y-116033614D01*
X136178614Y-116214752D01*
X136028037Y-116422003D01*
X135911737Y-116650254D01*
X135832574Y-116893892D01*
X135792500Y-117146907D01*
X134560626Y-117146907D01*
X134559789Y-117140551D01*
X134480059Y-116842996D01*
X134362178Y-116558403D01*
X134362171Y-116558389D01*
X134229137Y-116327968D01*
X133132703Y-117424401D01*
X133115414Y-117337480D01*
X133047570Y-117173690D01*
X132949076Y-117026283D01*
X132823717Y-116900924D01*
X132676310Y-116802430D01*
X132512520Y-116734586D01*
X132425597Y-116717296D01*
X133522031Y-115620862D01*
X133522030Y-115620861D01*
X133291611Y-115487828D01*
X133291596Y-115487821D01*
X133007003Y-115369940D01*
X132709442Y-115290208D01*
X132404037Y-115250001D01*
X132404020Y-115250000D01*
X132095980Y-115250000D01*
X132095962Y-115250001D01*
X131790557Y-115290208D01*
X131492996Y-115369940D01*
X131208403Y-115487821D01*
X131208381Y-115487832D01*
X130977968Y-115620859D01*
X130977967Y-115620861D01*
X132074403Y-116717296D01*
X131987480Y-116734586D01*
X131823690Y-116802430D01*
X131676283Y-116900924D01*
X131550924Y-117026283D01*
X131452430Y-117173690D01*
X131384586Y-117337480D01*
X131367296Y-117424402D01*
X130270861Y-116327967D01*
X130270859Y-116327968D01*
X130137832Y-116558381D01*
X130137821Y-116558403D01*
X130019940Y-116842996D01*
X129940208Y-117140557D01*
X129900001Y-117445962D01*
X129900000Y-117445979D01*
X129400500Y-117445979D01*
X129400500Y-117439919D01*
X129364653Y-117121771D01*
X129293410Y-116809637D01*
X129187668Y-116507442D01*
X129048755Y-116218987D01*
X128878419Y-115947899D01*
X128678802Y-115697587D01*
X128452413Y-115471198D01*
X128202101Y-115271581D01*
X127931013Y-115101245D01*
X127931010Y-115101243D01*
X127642559Y-114962332D01*
X127340364Y-114856590D01*
X127340362Y-114856589D01*
X127099471Y-114801607D01*
X127028229Y-114785347D01*
X127028225Y-114785346D01*
X127028216Y-114785345D01*
X126710085Y-114749500D01*
X126710081Y-114749500D01*
X126389919Y-114749500D01*
X126389914Y-114749500D01*
X126071783Y-114785345D01*
X126071771Y-114785347D01*
X125759637Y-114856589D01*
X125759635Y-114856590D01*
X125457440Y-114962332D01*
X125168989Y-115101243D01*
X124897900Y-115271580D01*
X124647587Y-115471197D01*
X124421197Y-115697587D01*
X124221580Y-115947900D01*
X124051243Y-116218989D01*
X123912332Y-116507440D01*
X123806590Y-116809635D01*
X123806589Y-116809637D01*
X123735347Y-117121771D01*
X123735345Y-117121783D01*
X123699500Y-117439914D01*
X123001668Y-117439914D01*
X123005279Y-117417116D01*
X123005290Y-117417045D01*
X123007500Y-117403089D01*
X123007500Y-117146907D01*
X122986247Y-117012726D01*
X122967426Y-116893893D01*
X122888264Y-116650257D01*
X122771963Y-116422004D01*
X122621388Y-116214755D01*
X122440245Y-116033612D01*
X122232996Y-115883037D01*
X122004743Y-115766736D01*
X121761107Y-115687574D01*
X121508092Y-115647500D01*
X121508087Y-115647500D01*
X121251913Y-115647500D01*
X121251908Y-115647500D01*
X120998892Y-115687574D01*
X120755254Y-115766737D01*
X120527003Y-115883037D01*
X120319752Y-116033614D01*
X120138614Y-116214752D01*
X119988037Y-116422003D01*
X119871737Y-116650254D01*
X119792574Y-116893892D01*
X119752500Y-117146907D01*
X118526810Y-117146907D01*
X118526810Y-107693713D01*
X125449500Y-107693713D01*
X125449500Y-107906286D01*
X125482753Y-108116239D01*
X125548444Y-108318414D01*
X125644951Y-108507820D01*
X125769890Y-108679786D01*
X125920213Y-108830109D01*
X126092179Y-108955048D01*
X126092181Y-108955049D01*
X126092184Y-108955051D01*
X126281588Y-109051557D01*
X126483757Y-109117246D01*
X126693713Y-109150500D01*
X126693714Y-109150500D01*
X126906286Y-109150500D01*
X126906287Y-109150500D01*
X127116243Y-109117246D01*
X127149216Y-109106531D01*
X127219056Y-109104535D01*
X127278889Y-109140615D01*
X127305466Y-109186143D01*
X127348444Y-109318416D01*
X127444951Y-109507820D01*
X127569890Y-109679786D01*
X127720213Y-109830109D01*
X127892179Y-109955048D01*
X127892181Y-109955049D01*
X127892184Y-109955051D01*
X128081588Y-110051557D01*
X128283757Y-110117246D01*
X128493713Y-110150500D01*
X128493714Y-110150500D01*
X128706286Y-110150500D01*
X128706287Y-110150500D01*
X128916243Y-110117246D01*
X129118412Y-110051557D01*
X129307816Y-109955051D01*
X129327114Y-109941029D01*
X129392920Y-109917550D01*
X129460974Y-109933375D01*
X129472884Y-109941029D01*
X129492184Y-109955051D01*
X129681588Y-110051557D01*
X129883757Y-110117246D01*
X130093713Y-110150500D01*
X130093714Y-110150500D01*
X130306286Y-110150500D01*
X130306287Y-110150500D01*
X130516243Y-110117246D01*
X130718412Y-110051557D01*
X130907816Y-109955051D01*
X130959432Y-109917550D01*
X131079786Y-109830109D01*
X131079788Y-109830106D01*
X131079792Y-109830104D01*
X131230104Y-109679792D01*
X131230106Y-109679788D01*
X131230109Y-109679786D01*
X131355048Y-109507820D01*
X131355047Y-109507820D01*
X131355051Y-109507816D01*
X131451557Y-109318412D01*
X131494534Y-109186142D01*
X131533970Y-109128469D01*
X131598329Y-109101270D01*
X131650779Y-109106530D01*
X131683757Y-109117246D01*
X131893713Y-109150500D01*
X131893714Y-109150500D01*
X132106286Y-109150500D01*
X132106287Y-109150500D01*
X132316243Y-109117246D01*
X132518412Y-109051557D01*
X132707816Y-108955051D01*
X132729789Y-108939086D01*
X132879786Y-108830109D01*
X132879788Y-108830106D01*
X132879792Y-108830104D01*
X133030104Y-108679792D01*
X133030106Y-108679788D01*
X133030109Y-108679786D01*
X133155048Y-108507820D01*
X133155047Y-108507820D01*
X133155051Y-108507816D01*
X133251557Y-108318412D01*
X133317246Y-108116243D01*
X133350500Y-107906287D01*
X133350500Y-107693713D01*
X133317246Y-107483757D01*
X133251557Y-107281588D01*
X133155051Y-107092184D01*
X133155049Y-107092181D01*
X133155048Y-107092179D01*
X133030109Y-106920213D01*
X132879786Y-106769890D01*
X132707820Y-106644951D01*
X132518414Y-106548444D01*
X132518413Y-106548443D01*
X132518412Y-106548443D01*
X132316243Y-106482754D01*
X132316241Y-106482753D01*
X132316240Y-106482753D01*
X132154957Y-106457208D01*
X132106287Y-106449500D01*
X131893713Y-106449500D01*
X131845042Y-106457208D01*
X131683760Y-106482753D01*
X131683757Y-106482754D01*
X131509860Y-106539257D01*
X131481585Y-106548444D01*
X131292179Y-106644951D01*
X131120213Y-106769890D01*
X130969890Y-106920213D01*
X130844951Y-107092179D01*
X130748444Y-107281583D01*
X130705466Y-107413856D01*
X130666028Y-107471531D01*
X130601669Y-107498729D01*
X130549218Y-107493468D01*
X130516244Y-107482754D01*
X130516240Y-107482753D01*
X130354957Y-107457208D01*
X130306287Y-107449500D01*
X130093713Y-107449500D01*
X130045042Y-107457208D01*
X129883760Y-107482753D01*
X129681585Y-107548444D01*
X129492181Y-107644950D01*
X129472883Y-107658971D01*
X129407076Y-107682449D01*
X129339023Y-107666622D01*
X129327117Y-107658971D01*
X129307818Y-107644950D01*
X129118414Y-107548444D01*
X129118413Y-107548443D01*
X129118412Y-107548443D01*
X128916243Y-107482754D01*
X128916241Y-107482753D01*
X128916240Y-107482753D01*
X128754957Y-107457208D01*
X128706287Y-107449500D01*
X128493713Y-107449500D01*
X128431334Y-107459380D01*
X128283755Y-107482754D01*
X128250780Y-107493468D01*
X128180939Y-107495462D01*
X128121107Y-107459380D01*
X128094533Y-107413854D01*
X128092527Y-107407680D01*
X128051557Y-107281588D01*
X127955051Y-107092184D01*
X127955049Y-107092181D01*
X127955048Y-107092179D01*
X127830109Y-106920213D01*
X127679786Y-106769890D01*
X127507820Y-106644951D01*
X127318414Y-106548444D01*
X127318413Y-106548443D01*
X127318412Y-106548443D01*
X127116243Y-106482754D01*
X127116241Y-106482753D01*
X127116240Y-106482753D01*
X126954957Y-106457208D01*
X126906287Y-106449500D01*
X126693713Y-106449500D01*
X126645042Y-106457208D01*
X126483760Y-106482753D01*
X126483757Y-106482754D01*
X126309860Y-106539257D01*
X126281585Y-106548444D01*
X126092179Y-106644951D01*
X125920213Y-106769890D01*
X125769890Y-106920213D01*
X125644951Y-107092179D01*
X125548444Y-107281585D01*
X125482753Y-107483760D01*
X125449500Y-107693713D01*
X118526810Y-107693713D01*
X118526810Y-102893713D01*
X122449500Y-102893713D01*
X122449500Y-103106287D01*
X122459534Y-103169644D01*
X122466123Y-103211243D01*
X122482754Y-103316243D01*
X122547738Y-103516243D01*
X122548444Y-103518414D01*
X122644951Y-103707820D01*
X122769890Y-103879786D01*
X122920213Y-104030109D01*
X123092179Y-104155048D01*
X123092181Y-104155049D01*
X123092184Y-104155051D01*
X123281588Y-104251557D01*
X123483757Y-104317246D01*
X123693713Y-104350500D01*
X123693714Y-104350500D01*
X123906286Y-104350500D01*
X123906287Y-104350500D01*
X124116243Y-104317246D01*
X124318412Y-104251557D01*
X124507816Y-104155051D01*
X124611402Y-104079792D01*
X124679786Y-104030109D01*
X124679788Y-104030106D01*
X124679792Y-104030104D01*
X124830104Y-103879792D01*
X124830106Y-103879788D01*
X124830109Y-103879786D01*
X124955048Y-103707820D01*
X124955047Y-103707820D01*
X124955051Y-103707816D01*
X125051557Y-103518412D01*
X125117246Y-103316243D01*
X125150500Y-103106287D01*
X125150500Y-102893713D01*
X125133870Y-102788713D01*
X126289500Y-102788713D01*
X126289500Y-103001287D01*
X126322754Y-103211243D01*
X126356869Y-103316239D01*
X126388444Y-103413414D01*
X126484951Y-103602820D01*
X126609890Y-103774786D01*
X126760213Y-103925109D01*
X126932179Y-104050048D01*
X126932181Y-104050049D01*
X126932184Y-104050051D01*
X127121588Y-104146557D01*
X127323757Y-104212246D01*
X127533713Y-104245500D01*
X127533714Y-104245500D01*
X127746286Y-104245500D01*
X127746287Y-104245500D01*
X127956243Y-104212246D01*
X128158412Y-104146557D01*
X128347816Y-104050051D01*
X128375271Y-104030104D01*
X128519786Y-103925109D01*
X128519788Y-103925106D01*
X128519792Y-103925104D01*
X128670104Y-103774792D01*
X128670106Y-103774788D01*
X128670109Y-103774786D01*
X128795048Y-103602820D01*
X128795047Y-103602820D01*
X128795051Y-103602816D01*
X128891557Y-103413412D01*
X128957246Y-103211243D01*
X128990500Y-103001287D01*
X128990500Y-102788713D01*
X128957246Y-102578757D01*
X128891557Y-102376588D01*
X128795051Y-102187184D01*
X128795049Y-102187181D01*
X128795048Y-102187179D01*
X128670109Y-102015213D01*
X128519786Y-101864890D01*
X128347820Y-101739951D01*
X128158414Y-101643444D01*
X128158413Y-101643443D01*
X128158412Y-101643443D01*
X127956243Y-101577754D01*
X127956241Y-101577753D01*
X127956240Y-101577753D01*
X127794957Y-101552208D01*
X127746287Y-101544500D01*
X127533713Y-101544500D01*
X127485042Y-101552208D01*
X127323760Y-101577753D01*
X127121585Y-101643444D01*
X126932179Y-101739951D01*
X126760213Y-101864890D01*
X126609890Y-102015213D01*
X126484951Y-102187179D01*
X126388444Y-102376585D01*
X126322753Y-102578760D01*
X126306123Y-102683759D01*
X126289500Y-102788713D01*
X125133870Y-102788713D01*
X125117246Y-102683757D01*
X125051557Y-102481588D01*
X124955051Y-102292184D01*
X124955049Y-102292181D01*
X124955048Y-102292179D01*
X124830109Y-102120213D01*
X124679786Y-101969890D01*
X124507820Y-101844951D01*
X124318414Y-101748444D01*
X124318413Y-101748443D01*
X124318412Y-101748443D01*
X124116243Y-101682754D01*
X124116241Y-101682753D01*
X124116240Y-101682753D01*
X123919274Y-101651557D01*
X123906287Y-101649500D01*
X123693713Y-101649500D01*
X123680726Y-101651557D01*
X123483760Y-101682753D01*
X123281585Y-101748444D01*
X123092179Y-101844951D01*
X122920213Y-101969890D01*
X122769890Y-102120213D01*
X122644951Y-102292179D01*
X122548444Y-102481585D01*
X122482753Y-102683760D01*
X122466130Y-102788713D01*
X122449500Y-102893713D01*
X118526810Y-102893713D01*
X118526810Y-100293713D01*
X124449500Y-100293713D01*
X124449500Y-100506286D01*
X124477669Y-100684141D01*
X124482754Y-100716243D01*
X124483452Y-100718392D01*
X124548444Y-100918414D01*
X124644951Y-101107820D01*
X124769890Y-101279786D01*
X124920213Y-101430109D01*
X125092179Y-101555048D01*
X125092181Y-101555049D01*
X125092184Y-101555051D01*
X125281588Y-101651557D01*
X125483757Y-101717246D01*
X125693713Y-101750500D01*
X125693714Y-101750500D01*
X125906286Y-101750500D01*
X125906287Y-101750500D01*
X126116243Y-101717246D01*
X126318412Y-101651557D01*
X126507816Y-101555051D01*
X126566007Y-101512773D01*
X126679786Y-101430109D01*
X126679788Y-101430106D01*
X126679792Y-101430104D01*
X126830104Y-101279792D01*
X126830106Y-101279788D01*
X126830109Y-101279786D01*
X126955048Y-101107820D01*
X126955047Y-101107820D01*
X126955051Y-101107816D01*
X127051557Y-100918412D01*
X127117246Y-100716243D01*
X127150500Y-100506287D01*
X127150500Y-100293713D01*
X127117246Y-100083757D01*
X127051557Y-99881588D01*
X126955051Y-99692184D01*
X126955049Y-99692181D01*
X126955048Y-99692179D01*
X126830109Y-99520213D01*
X126679786Y-99369890D01*
X126507820Y-99244951D01*
X126318414Y-99148444D01*
X126318413Y-99148443D01*
X126318412Y-99148443D01*
X126116243Y-99082754D01*
X126116241Y-99082753D01*
X126116240Y-99082753D01*
X125939844Y-99054815D01*
X125906287Y-99049500D01*
X125693713Y-99049500D01*
X125660156Y-99054815D01*
X125483760Y-99082753D01*
X125281585Y-99148444D01*
X125092179Y-99244951D01*
X124920213Y-99369890D01*
X124769890Y-99520213D01*
X124644951Y-99692179D01*
X124548444Y-99881585D01*
X124482753Y-100083760D01*
X124449500Y-100293713D01*
X118526810Y-100293713D01*
X118526810Y-96588713D01*
X125089500Y-96588713D01*
X125089500Y-96801286D01*
X125122753Y-97011239D01*
X125188444Y-97213414D01*
X125284951Y-97402820D01*
X125409890Y-97574786D01*
X125560213Y-97725109D01*
X125732179Y-97850048D01*
X125732181Y-97850049D01*
X125732184Y-97850051D01*
X125921588Y-97946557D01*
X126123757Y-98012246D01*
X126333713Y-98045500D01*
X126333714Y-98045500D01*
X126546286Y-98045500D01*
X126546287Y-98045500D01*
X126756243Y-98012246D01*
X126958412Y-97946557D01*
X127147816Y-97850051D01*
X127196836Y-97814436D01*
X127319786Y-97725109D01*
X127319788Y-97725106D01*
X127319792Y-97725104D01*
X127470104Y-97574792D01*
X127470106Y-97574788D01*
X127470109Y-97574786D01*
X127595048Y-97402820D01*
X127595047Y-97402820D01*
X127595051Y-97402816D01*
X127691557Y-97213412D01*
X127757246Y-97011243D01*
X127790500Y-96801287D01*
X127790500Y-96588713D01*
X127757246Y-96378757D01*
X127691557Y-96176588D01*
X127595051Y-95987184D01*
X127595049Y-95987181D01*
X127595048Y-95987179D01*
X127470109Y-95815213D01*
X127319786Y-95664890D01*
X127147820Y-95539951D01*
X126958414Y-95443444D01*
X126958413Y-95443443D01*
X126958412Y-95443443D01*
X126756243Y-95377754D01*
X126756241Y-95377753D01*
X126756240Y-95377753D01*
X126594957Y-95352208D01*
X126546287Y-95344500D01*
X126333713Y-95344500D01*
X126285042Y-95352208D01*
X126123760Y-95377753D01*
X125921585Y-95443444D01*
X125732179Y-95539951D01*
X125560213Y-95664890D01*
X125409890Y-95815213D01*
X125284951Y-95987179D01*
X125188444Y-96176585D01*
X125122753Y-96378760D01*
X125089500Y-96588713D01*
X118526810Y-96588713D01*
X118526810Y-91891966D01*
X131129500Y-91891966D01*
X131129500Y-93058028D01*
X131129501Y-93058034D01*
X131140113Y-93177415D01*
X131174320Y-93296965D01*
X131173837Y-93366833D01*
X131173037Y-93369389D01*
X131167062Y-93387777D01*
X131146372Y-93518414D01*
X131129500Y-93624941D01*
X131129500Y-93865059D01*
X131137606Y-93916239D01*
X131167063Y-94102223D01*
X131167063Y-94102226D01*
X131241262Y-94330585D01*
X131242077Y-94332553D01*
X131242163Y-94333360D01*
X131242769Y-94335223D01*
X131242377Y-94335350D01*
X131249542Y-94402023D01*
X131242077Y-94427447D01*
X131241262Y-94429414D01*
X131167063Y-94657773D01*
X131167063Y-94657776D01*
X131129500Y-94894941D01*
X131129500Y-95135058D01*
X131167063Y-95372222D01*
X131241265Y-95600593D01*
X131327311Y-95769465D01*
X131350276Y-95814536D01*
X131491414Y-96008796D01*
X131661204Y-96178586D01*
X131855464Y-96319724D01*
X132069411Y-96428736D01*
X132125298Y-96446894D01*
X132182973Y-96486331D01*
X132210172Y-96550689D01*
X132198258Y-96619536D01*
X132163332Y-96661034D01*
X132163921Y-96661724D01*
X132160209Y-96664894D01*
X132009890Y-96815213D01*
X131884951Y-96987179D01*
X131788444Y-97176585D01*
X131722753Y-97378760D01*
X131689500Y-97588713D01*
X131689500Y-97801286D01*
X131712508Y-97946557D01*
X131722754Y-98011243D01*
X131769158Y-98154060D01*
X131788444Y-98213414D01*
X131884951Y-98402820D01*
X132009890Y-98574786D01*
X132160213Y-98725109D01*
X132332179Y-98850048D01*
X132332181Y-98850049D01*
X132332184Y-98850051D01*
X132521588Y-98946557D01*
X132687680Y-99000523D01*
X132745355Y-99039960D01*
X132772553Y-99104319D01*
X132760638Y-99173165D01*
X132713394Y-99224641D01*
X132705656Y-99228938D01*
X132575468Y-99295272D01*
X132381201Y-99436416D01*
X132211416Y-99606201D01*
X132070276Y-99800463D01*
X131961265Y-100014406D01*
X131891041Y-100230535D01*
X131887063Y-100242778D01*
X131849500Y-100479941D01*
X131849500Y-100720059D01*
X131868281Y-100838640D01*
X131887063Y-100957223D01*
X131887063Y-100957226D01*
X131961262Y-101185585D01*
X131962077Y-101187553D01*
X131962163Y-101188360D01*
X131962769Y-101190223D01*
X131962377Y-101190350D01*
X131969542Y-101257023D01*
X131962077Y-101282447D01*
X131961262Y-101284414D01*
X131887063Y-101512773D01*
X131887063Y-101512776D01*
X131849500Y-101749941D01*
X131849500Y-101990058D01*
X131887063Y-102227223D01*
X131887063Y-102227226D01*
X131893035Y-102245604D01*
X131895030Y-102315445D01*
X131894320Y-102318032D01*
X131860114Y-102437579D01*
X131860113Y-102437586D01*
X131849500Y-102556966D01*
X131849500Y-103723028D01*
X131849501Y-103723034D01*
X131860113Y-103842415D01*
X131916089Y-104038045D01*
X131916090Y-104038048D01*
X131916091Y-104038049D01*
X132010302Y-104218407D01*
X132037331Y-104251555D01*
X132138890Y-104376109D01*
X132231421Y-104451557D01*
X132296593Y-104504698D01*
X132476951Y-104598909D01*
X132672582Y-104654886D01*
X132791963Y-104665500D01*
X134408036Y-104665499D01*
X134527418Y-104654886D01*
X134723049Y-104598909D01*
X134903407Y-104504698D01*
X135061109Y-104376109D01*
X135189698Y-104218407D01*
X135283909Y-104038049D01*
X135339886Y-103842418D01*
X135350500Y-103723037D01*
X135350499Y-102556964D01*
X135339886Y-102437582D01*
X135305678Y-102318031D01*
X135306161Y-102248166D01*
X135306940Y-102245675D01*
X135312937Y-102227222D01*
X135350500Y-101990059D01*
X135350500Y-101749941D01*
X135312937Y-101512778D01*
X135238736Y-101284411D01*
X135238729Y-101284398D01*
X135237928Y-101282462D01*
X135237841Y-101281660D01*
X135237230Y-101279778D01*
X135237625Y-101279649D01*
X135230453Y-101212993D01*
X135237928Y-101187538D01*
X135238727Y-101185605D01*
X135238736Y-101185589D01*
X135312937Y-100957222D01*
X135350500Y-100720059D01*
X135350500Y-100479941D01*
X135312937Y-100242778D01*
X135238736Y-100014411D01*
X135238734Y-100014408D01*
X135238734Y-100014406D01*
X135129723Y-99800463D01*
X134988586Y-99606204D01*
X134818796Y-99436414D01*
X134624536Y-99295276D01*
X134624528Y-99295272D01*
X134410593Y-99186265D01*
X134182222Y-99112063D01*
X134133328Y-99104319D01*
X133945059Y-99074500D01*
X133820522Y-99074500D01*
X133753483Y-99054815D01*
X133707728Y-99002011D01*
X133697784Y-98932853D01*
X133726809Y-98869297D01*
X133747637Y-98850182D01*
X133919785Y-98725109D01*
X133919783Y-98725109D01*
X133919792Y-98725104D01*
X134070104Y-98574792D01*
X134070106Y-98574788D01*
X134070109Y-98574786D01*
X134195048Y-98402820D01*
X134195047Y-98402820D01*
X134195051Y-98402816D01*
X134291557Y-98213412D01*
X134357246Y-98011243D01*
X134390500Y-97801287D01*
X134390500Y-97588713D01*
X134357246Y-97378757D01*
X134291557Y-97176588D01*
X134195051Y-96987184D01*
X134195049Y-96987181D01*
X134195048Y-96987179D01*
X134070109Y-96815213D01*
X133919790Y-96664894D01*
X133919785Y-96664890D01*
X133797958Y-96576378D01*
X133755292Y-96521049D01*
X133749313Y-96451435D01*
X133781918Y-96389640D01*
X133814546Y-96365576D01*
X133904536Y-96319724D01*
X134098796Y-96178586D01*
X134268586Y-96008796D01*
X134409724Y-95814536D01*
X134518736Y-95600589D01*
X134592937Y-95372222D01*
X134630500Y-95135059D01*
X134630500Y-94894941D01*
X134592937Y-94657778D01*
X134518736Y-94429411D01*
X134518729Y-94429398D01*
X134517928Y-94427462D01*
X134517841Y-94426660D01*
X134517230Y-94424778D01*
X134517625Y-94424649D01*
X134510453Y-94357993D01*
X134517928Y-94332538D01*
X134518727Y-94330605D01*
X134518736Y-94330589D01*
X134592937Y-94102222D01*
X134630500Y-93865059D01*
X134630500Y-93624941D01*
X134592937Y-93387778D01*
X134586963Y-93369395D01*
X134584967Y-93299556D01*
X134585672Y-93296985D01*
X134619886Y-93177418D01*
X134630500Y-93058037D01*
X134630499Y-92093713D01*
X143649500Y-92093713D01*
X143649500Y-92306286D01*
X143682753Y-92516239D01*
X143748444Y-92718414D01*
X143844951Y-92907820D01*
X143969890Y-93079786D01*
X144120213Y-93230109D01*
X144292179Y-93355048D01*
X144292181Y-93355049D01*
X144292184Y-93355051D01*
X144481588Y-93451557D01*
X144683757Y-93517246D01*
X144893713Y-93550500D01*
X144893714Y-93550500D01*
X145106286Y-93550500D01*
X145106287Y-93550500D01*
X145316243Y-93517246D01*
X145518412Y-93451557D01*
X145707816Y-93355051D01*
X145787768Y-93296963D01*
X145879786Y-93230109D01*
X145879788Y-93230106D01*
X145879792Y-93230104D01*
X146030104Y-93079792D01*
X146030106Y-93079788D01*
X146030109Y-93079786D01*
X146155048Y-92907820D01*
X146155047Y-92907820D01*
X146155051Y-92907816D01*
X146251557Y-92718412D01*
X146317246Y-92516243D01*
X146350500Y-92306287D01*
X146350500Y-92093713D01*
X146317246Y-91883757D01*
X146251557Y-91681588D01*
X146155051Y-91492184D01*
X146155049Y-91492181D01*
X146155048Y-91492179D01*
X146030109Y-91320213D01*
X145879786Y-91169890D01*
X145707820Y-91044951D01*
X145518414Y-90948444D01*
X145518413Y-90948443D01*
X145518412Y-90948443D01*
X145316243Y-90882754D01*
X145316241Y-90882753D01*
X145316240Y-90882753D01*
X145154957Y-90857208D01*
X145106287Y-90849500D01*
X144893713Y-90849500D01*
X144845042Y-90857208D01*
X144683760Y-90882753D01*
X144481585Y-90948444D01*
X144292179Y-91044951D01*
X144120213Y-91169890D01*
X143969890Y-91320213D01*
X143844951Y-91492179D01*
X143748444Y-91681585D01*
X143682753Y-91883760D01*
X143649500Y-92093713D01*
X134630499Y-92093713D01*
X134630499Y-91891964D01*
X134619886Y-91772582D01*
X134563909Y-91576951D01*
X134469698Y-91396593D01*
X134404999Y-91317246D01*
X134341109Y-91238890D01*
X134183409Y-91110304D01*
X134183410Y-91110304D01*
X134183407Y-91110302D01*
X134003049Y-91016091D01*
X134003048Y-91016090D01*
X134003045Y-91016089D01*
X133885829Y-90982550D01*
X133807418Y-90960114D01*
X133807415Y-90960113D01*
X133807413Y-90960113D01*
X133741102Y-90954217D01*
X133688037Y-90949500D01*
X133688032Y-90949500D01*
X132071971Y-90949500D01*
X132071965Y-90949500D01*
X132071964Y-90949501D01*
X132060316Y-90950536D01*
X131952584Y-90960113D01*
X131756954Y-91016089D01*
X131701705Y-91044949D01*
X131576593Y-91110302D01*
X131576591Y-91110303D01*
X131576590Y-91110304D01*
X131418890Y-91238890D01*
X131290304Y-91396590D01*
X131196089Y-91576954D01*
X131140114Y-91772583D01*
X131140113Y-91772586D01*
X131133680Y-91844949D01*
X131130230Y-91883760D01*
X131129500Y-91891966D01*
X118526810Y-91891966D01*
X118526810Y-89462716D01*
X147397965Y-89462716D01*
X147397965Y-89855717D01*
X147432216Y-90247212D01*
X147432216Y-90247216D01*
X147480036Y-90518414D01*
X147500458Y-90634232D01*
X147602172Y-91013833D01*
X147724709Y-91350500D01*
X147736589Y-91383138D01*
X147902660Y-91739279D01*
X147902672Y-91739303D01*
X148099160Y-92079629D01*
X148099169Y-92079644D01*
X148324580Y-92401564D01*
X148420808Y-92516243D01*
X148577187Y-92702608D01*
X148855074Y-92980495D01*
X148947474Y-93058028D01*
X149156117Y-93233101D01*
X149156123Y-93233105D01*
X149156124Y-93233106D01*
X149478044Y-93458517D01*
X149818385Y-93655013D01*
X149818399Y-93655019D01*
X149818402Y-93655021D01*
X150174543Y-93821092D01*
X150174548Y-93821093D01*
X150174557Y-93821098D01*
X150543849Y-93955510D01*
X150923450Y-94057224D01*
X151310472Y-94125466D01*
X151701967Y-94159716D01*
X151701968Y-94159717D01*
X151701969Y-94159717D01*
X152094962Y-94159717D01*
X152094962Y-94159716D01*
X152486458Y-94125466D01*
X152873480Y-94057224D01*
X153253081Y-93955510D01*
X153622373Y-93821098D01*
X153978545Y-93655013D01*
X154257925Y-93493713D01*
X160249500Y-93493713D01*
X160249500Y-93706286D01*
X160276980Y-93879792D01*
X160282754Y-93916243D01*
X160328561Y-94057223D01*
X160348444Y-94118414D01*
X160444951Y-94307820D01*
X160569890Y-94479786D01*
X160720213Y-94630109D01*
X160892179Y-94755048D01*
X160892181Y-94755049D01*
X160892184Y-94755051D01*
X161081588Y-94851557D01*
X161283757Y-94917246D01*
X161493713Y-94950500D01*
X161493714Y-94950500D01*
X161706286Y-94950500D01*
X161706287Y-94950500D01*
X161916243Y-94917246D01*
X162118412Y-94851557D01*
X162307816Y-94755051D01*
X162441702Y-94657778D01*
X162479786Y-94630109D01*
X162479788Y-94630106D01*
X162479792Y-94630104D01*
X162630104Y-94479792D01*
X162630106Y-94479788D01*
X162630109Y-94479786D01*
X162755048Y-94307820D01*
X162755047Y-94307820D01*
X162755051Y-94307816D01*
X162851557Y-94118412D01*
X162917246Y-93916243D01*
X162950500Y-93706287D01*
X162950500Y-93493713D01*
X165049500Y-93493713D01*
X165049500Y-93706286D01*
X165076980Y-93879792D01*
X165082754Y-93916243D01*
X165128561Y-94057223D01*
X165148444Y-94118414D01*
X165244951Y-94307820D01*
X165369890Y-94479786D01*
X165520213Y-94630109D01*
X165692179Y-94755048D01*
X165692181Y-94755049D01*
X165692184Y-94755051D01*
X165881588Y-94851557D01*
X166083757Y-94917246D01*
X166293713Y-94950500D01*
X166293714Y-94950500D01*
X166506286Y-94950500D01*
X166506287Y-94950500D01*
X166716243Y-94917246D01*
X166918412Y-94851557D01*
X167107816Y-94755051D01*
X167241702Y-94657778D01*
X167279786Y-94630109D01*
X167279788Y-94630106D01*
X167279792Y-94630104D01*
X167430104Y-94479792D01*
X167430106Y-94479788D01*
X167430109Y-94479786D01*
X167555048Y-94307820D01*
X167555047Y-94307820D01*
X167555051Y-94307816D01*
X167651557Y-94118412D01*
X167717246Y-93916243D01*
X167750500Y-93706287D01*
X167750500Y-93493713D01*
X170449500Y-93493713D01*
X170449500Y-93706286D01*
X170476980Y-93879792D01*
X170482754Y-93916243D01*
X170528561Y-94057223D01*
X170548444Y-94118414D01*
X170644951Y-94307820D01*
X170769890Y-94479786D01*
X170920213Y-94630109D01*
X171092179Y-94755048D01*
X171092181Y-94755049D01*
X171092184Y-94755051D01*
X171281588Y-94851557D01*
X171483757Y-94917246D01*
X171693713Y-94950500D01*
X171693714Y-94950500D01*
X171906286Y-94950500D01*
X171906287Y-94950500D01*
X172116243Y-94917246D01*
X172318412Y-94851557D01*
X172507816Y-94755051D01*
X172641702Y-94657778D01*
X172679786Y-94630109D01*
X172679788Y-94630106D01*
X172679792Y-94630104D01*
X172830104Y-94479792D01*
X172830106Y-94479788D01*
X172830109Y-94479786D01*
X172955048Y-94307820D01*
X172955047Y-94307820D01*
X172955051Y-94307816D01*
X173051557Y-94118412D01*
X173117246Y-93916243D01*
X173150500Y-93706287D01*
X173150500Y-93493713D01*
X175249500Y-93493713D01*
X175249500Y-93706286D01*
X175276980Y-93879792D01*
X175282754Y-93916243D01*
X175328561Y-94057223D01*
X175348444Y-94118414D01*
X175444951Y-94307820D01*
X175569890Y-94479786D01*
X175720213Y-94630109D01*
X175892179Y-94755048D01*
X175892181Y-94755049D01*
X175892184Y-94755051D01*
X176081588Y-94851557D01*
X176283757Y-94917246D01*
X176493713Y-94950500D01*
X176493714Y-94950500D01*
X176706286Y-94950500D01*
X176706287Y-94950500D01*
X176916243Y-94917246D01*
X177118412Y-94851557D01*
X177307816Y-94755051D01*
X177441702Y-94657778D01*
X177479786Y-94630109D01*
X177479788Y-94630106D01*
X177479792Y-94630104D01*
X177630104Y-94479792D01*
X177630106Y-94479788D01*
X177630109Y-94479786D01*
X177755048Y-94307820D01*
X177755047Y-94307820D01*
X177755051Y-94307816D01*
X177851557Y-94118412D01*
X177917246Y-93916243D01*
X177950500Y-93706287D01*
X177950500Y-93493713D01*
X177917246Y-93283757D01*
X177851557Y-93081588D01*
X177755051Y-92892184D01*
X177755049Y-92892181D01*
X177755048Y-92892179D01*
X177630109Y-92720213D01*
X177479786Y-92569890D01*
X177307820Y-92444951D01*
X177118414Y-92348444D01*
X177118413Y-92348443D01*
X177118412Y-92348443D01*
X176916243Y-92282754D01*
X176916241Y-92282753D01*
X176916240Y-92282753D01*
X176754957Y-92257208D01*
X176706287Y-92249500D01*
X176493713Y-92249500D01*
X176445042Y-92257208D01*
X176283760Y-92282753D01*
X176081585Y-92348444D01*
X175892179Y-92444951D01*
X175720213Y-92569890D01*
X175569890Y-92720213D01*
X175444951Y-92892179D01*
X175348444Y-93081585D01*
X175282753Y-93283760D01*
X175249500Y-93493713D01*
X173150500Y-93493713D01*
X173117246Y-93283757D01*
X173051557Y-93081588D01*
X172955051Y-92892184D01*
X172955049Y-92892181D01*
X172955048Y-92892179D01*
X172830109Y-92720213D01*
X172679786Y-92569890D01*
X172507820Y-92444951D01*
X172318414Y-92348444D01*
X172318413Y-92348443D01*
X172318412Y-92348443D01*
X172116243Y-92282754D01*
X172116241Y-92282753D01*
X172116240Y-92282753D01*
X171954957Y-92257208D01*
X171906287Y-92249500D01*
X171693713Y-92249500D01*
X171645042Y-92257208D01*
X171483760Y-92282753D01*
X171281585Y-92348444D01*
X171092179Y-92444951D01*
X170920213Y-92569890D01*
X170769890Y-92720213D01*
X170644951Y-92892179D01*
X170548444Y-93081585D01*
X170482753Y-93283760D01*
X170449500Y-93493713D01*
X167750500Y-93493713D01*
X167717246Y-93283757D01*
X167651557Y-93081588D01*
X167555051Y-92892184D01*
X167555049Y-92892181D01*
X167555048Y-92892179D01*
X167430109Y-92720213D01*
X167279786Y-92569890D01*
X167107820Y-92444951D01*
X166918414Y-92348444D01*
X166918413Y-92348443D01*
X166918412Y-92348443D01*
X166716243Y-92282754D01*
X166716241Y-92282753D01*
X166716240Y-92282753D01*
X166554957Y-92257208D01*
X166506287Y-92249500D01*
X166293713Y-92249500D01*
X166245042Y-92257208D01*
X166083760Y-92282753D01*
X165881585Y-92348444D01*
X165692179Y-92444951D01*
X165520213Y-92569890D01*
X165369890Y-92720213D01*
X165244951Y-92892179D01*
X165148444Y-93081585D01*
X165082753Y-93283760D01*
X165049500Y-93493713D01*
X162950500Y-93493713D01*
X162917246Y-93283757D01*
X162851557Y-93081588D01*
X162755051Y-92892184D01*
X162755049Y-92892181D01*
X162755048Y-92892179D01*
X162630109Y-92720213D01*
X162479786Y-92569890D01*
X162307820Y-92444951D01*
X162118414Y-92348444D01*
X162118413Y-92348443D01*
X162118412Y-92348443D01*
X161916243Y-92282754D01*
X161916241Y-92282753D01*
X161916240Y-92282753D01*
X161754957Y-92257208D01*
X161706287Y-92249500D01*
X161493713Y-92249500D01*
X161445042Y-92257208D01*
X161283760Y-92282753D01*
X161081585Y-92348444D01*
X160892179Y-92444951D01*
X160720213Y-92569890D01*
X160569890Y-92720213D01*
X160444951Y-92892179D01*
X160348444Y-93081585D01*
X160282753Y-93283760D01*
X160249500Y-93493713D01*
X154257925Y-93493713D01*
X154318886Y-93458517D01*
X154640806Y-93233106D01*
X154941856Y-92980495D01*
X155219743Y-92702608D01*
X155472354Y-92401558D01*
X155697765Y-92079638D01*
X155894261Y-91739297D01*
X156060346Y-91383125D01*
X156194758Y-91013833D01*
X156296472Y-90634232D01*
X156364714Y-90247210D01*
X156398965Y-89855713D01*
X156398965Y-89462721D01*
X156364714Y-89071224D01*
X156357464Y-89030109D01*
X156345245Y-88960809D01*
X156296472Y-88684202D01*
X156194758Y-88304601D01*
X156060346Y-87935309D01*
X156060341Y-87935300D01*
X156060340Y-87935295D01*
X155934350Y-87665107D01*
X155911334Y-87615750D01*
X162559500Y-87615750D01*
X162559500Y-87959681D01*
X162593210Y-88301965D01*
X162660308Y-88639288D01*
X162760150Y-88968422D01*
X162891770Y-89286180D01*
X162891772Y-89286185D01*
X163053893Y-89589491D01*
X163053897Y-89589498D01*
X163053900Y-89589503D01*
X163244978Y-89875472D01*
X163244985Y-89875481D01*
X163463176Y-90141348D01*
X163706367Y-90384539D01*
X163706372Y-90384543D01*
X163706373Y-90384544D01*
X163972240Y-90602735D01*
X164258213Y-90793816D01*
X164258222Y-90793821D01*
X164258224Y-90793822D01*
X164561530Y-90955943D01*
X164561532Y-90955943D01*
X164561538Y-90955947D01*
X164879295Y-91087566D01*
X165208422Y-91187406D01*
X165545750Y-91254505D01*
X165888031Y-91288216D01*
X165888034Y-91288216D01*
X166231966Y-91288216D01*
X166231969Y-91288216D01*
X166574250Y-91254505D01*
X166911578Y-91187406D01*
X167240705Y-91087566D01*
X167558462Y-90955947D01*
X167861787Y-90793816D01*
X168147760Y-90602735D01*
X168413627Y-90384544D01*
X168656828Y-90141343D01*
X168860052Y-89893713D01*
X174249500Y-89893713D01*
X174249500Y-90106287D01*
X174282754Y-90316243D01*
X174304946Y-90384544D01*
X174348444Y-90518414D01*
X174444951Y-90707820D01*
X174569890Y-90879786D01*
X174720213Y-91030109D01*
X174892179Y-91155048D01*
X174892181Y-91155049D01*
X174892184Y-91155051D01*
X175081588Y-91251557D01*
X175283757Y-91317246D01*
X175493713Y-91350500D01*
X175493714Y-91350500D01*
X175706286Y-91350500D01*
X175706287Y-91350500D01*
X175916243Y-91317246D01*
X176118412Y-91251557D01*
X176307816Y-91155051D01*
X176329789Y-91139086D01*
X176479786Y-91030109D01*
X176479788Y-91030106D01*
X176479792Y-91030104D01*
X176630104Y-90879792D01*
X176630106Y-90879788D01*
X176630109Y-90879786D01*
X176755048Y-90707820D01*
X176755047Y-90707820D01*
X176755051Y-90707816D01*
X176851557Y-90518412D01*
X176917246Y-90316243D01*
X176950500Y-90106287D01*
X176950500Y-89893713D01*
X178249500Y-89893713D01*
X178249500Y-90106287D01*
X178282754Y-90316243D01*
X178304946Y-90384544D01*
X178348444Y-90518414D01*
X178444951Y-90707820D01*
X178569890Y-90879786D01*
X178720213Y-91030109D01*
X178892179Y-91155048D01*
X178892181Y-91155049D01*
X178892184Y-91155051D01*
X179081588Y-91251557D01*
X179283757Y-91317246D01*
X179493713Y-91350500D01*
X179493714Y-91350500D01*
X179706286Y-91350500D01*
X179706287Y-91350500D01*
X179916243Y-91317246D01*
X180118412Y-91251557D01*
X180307816Y-91155051D01*
X180329789Y-91139086D01*
X180479786Y-91030109D01*
X180479788Y-91030106D01*
X180479792Y-91030104D01*
X180630104Y-90879792D01*
X180630106Y-90879788D01*
X180630109Y-90879786D01*
X180755048Y-90707820D01*
X180755047Y-90707820D01*
X180755051Y-90707816D01*
X180851557Y-90518412D01*
X180917246Y-90316243D01*
X180950500Y-90106287D01*
X180950500Y-89893713D01*
X180917246Y-89683757D01*
X180851557Y-89481588D01*
X180841941Y-89462716D01*
X183115914Y-89462716D01*
X183115914Y-89855717D01*
X183150165Y-90247212D01*
X183150165Y-90247216D01*
X183197985Y-90518414D01*
X183218407Y-90634232D01*
X183320121Y-91013833D01*
X183442658Y-91350500D01*
X183454538Y-91383138D01*
X183620609Y-91739279D01*
X183620621Y-91739303D01*
X183817109Y-92079629D01*
X183817118Y-92079644D01*
X184042529Y-92401564D01*
X184138757Y-92516243D01*
X184295136Y-92702608D01*
X184573023Y-92980495D01*
X184665423Y-93058028D01*
X184874066Y-93233101D01*
X184874072Y-93233105D01*
X184874073Y-93233106D01*
X185195993Y-93458517D01*
X185536334Y-93655013D01*
X185536348Y-93655019D01*
X185536351Y-93655021D01*
X185892492Y-93821092D01*
X185892497Y-93821093D01*
X185892506Y-93821098D01*
X186261798Y-93955510D01*
X186641399Y-94057224D01*
X187028421Y-94125466D01*
X187419916Y-94159716D01*
X187419917Y-94159717D01*
X187419918Y-94159717D01*
X187812911Y-94159717D01*
X187812911Y-94159716D01*
X188204407Y-94125466D01*
X188591429Y-94057224D01*
X188971030Y-93955510D01*
X189340322Y-93821098D01*
X189696494Y-93655013D01*
X190036835Y-93458517D01*
X190358755Y-93233106D01*
X190659805Y-92980495D01*
X190746587Y-92893713D01*
X202049500Y-92893713D01*
X202049500Y-93106286D01*
X202079700Y-93296965D01*
X202082754Y-93316243D01*
X202128980Y-93458512D01*
X202148444Y-93518414D01*
X202244951Y-93707820D01*
X202369890Y-93879786D01*
X202520213Y-94030109D01*
X202692179Y-94155048D01*
X202692181Y-94155049D01*
X202692184Y-94155051D01*
X202881588Y-94251557D01*
X203083757Y-94317246D01*
X203293713Y-94350500D01*
X203293714Y-94350500D01*
X203506286Y-94350500D01*
X203506287Y-94350500D01*
X203716243Y-94317246D01*
X203918412Y-94251557D01*
X204107816Y-94155051D01*
X204180528Y-94102223D01*
X204279786Y-94030109D01*
X204279788Y-94030106D01*
X204279792Y-94030104D01*
X204430104Y-93879792D01*
X204430106Y-93879788D01*
X204430109Y-93879786D01*
X204555048Y-93707820D01*
X204555047Y-93707820D01*
X204555051Y-93707816D01*
X204651557Y-93518412D01*
X204717246Y-93316243D01*
X204750500Y-93106287D01*
X204750500Y-92893713D01*
X206849500Y-92893713D01*
X206849500Y-93106286D01*
X206879700Y-93296965D01*
X206882754Y-93316243D01*
X206928980Y-93458512D01*
X206948444Y-93518414D01*
X207044951Y-93707820D01*
X207169890Y-93879786D01*
X207320213Y-94030109D01*
X207492179Y-94155048D01*
X207492181Y-94155049D01*
X207492184Y-94155051D01*
X207681588Y-94251557D01*
X207883757Y-94317246D01*
X208093713Y-94350500D01*
X208093714Y-94350500D01*
X208306286Y-94350500D01*
X208306287Y-94350500D01*
X208516243Y-94317246D01*
X208718412Y-94251557D01*
X208907816Y-94155051D01*
X208980528Y-94102223D01*
X209079786Y-94030109D01*
X209079788Y-94030106D01*
X209079792Y-94030104D01*
X209230104Y-93879792D01*
X209230106Y-93879788D01*
X209230109Y-93879786D01*
X209355048Y-93707820D01*
X209355047Y-93707820D01*
X209355051Y-93707816D01*
X209451557Y-93518412D01*
X209517246Y-93316243D01*
X209550500Y-93106287D01*
X209550500Y-92893713D01*
X212249500Y-92893713D01*
X212249500Y-93106286D01*
X212279700Y-93296965D01*
X212282754Y-93316243D01*
X212328980Y-93458512D01*
X212348444Y-93518414D01*
X212444951Y-93707820D01*
X212569890Y-93879786D01*
X212720213Y-94030109D01*
X212892179Y-94155048D01*
X212892181Y-94155049D01*
X212892184Y-94155051D01*
X213081588Y-94251557D01*
X213283757Y-94317246D01*
X213493713Y-94350500D01*
X213493714Y-94350500D01*
X213706286Y-94350500D01*
X213706287Y-94350500D01*
X213916243Y-94317246D01*
X214118412Y-94251557D01*
X214307816Y-94155051D01*
X214380528Y-94102223D01*
X214479786Y-94030109D01*
X214479788Y-94030106D01*
X214479792Y-94030104D01*
X214630104Y-93879792D01*
X214630106Y-93879788D01*
X214630109Y-93879786D01*
X214755048Y-93707820D01*
X214755047Y-93707820D01*
X214755051Y-93707816D01*
X214851557Y-93518412D01*
X214917246Y-93316243D01*
X214950500Y-93106287D01*
X214950500Y-92893713D01*
X217049500Y-92893713D01*
X217049500Y-93106286D01*
X217079700Y-93296965D01*
X217082754Y-93316243D01*
X217128980Y-93458512D01*
X217148444Y-93518414D01*
X217244951Y-93707820D01*
X217369890Y-93879786D01*
X217520213Y-94030109D01*
X217692179Y-94155048D01*
X217692181Y-94155049D01*
X217692184Y-94155051D01*
X217881588Y-94251557D01*
X218083757Y-94317246D01*
X218293713Y-94350500D01*
X218293714Y-94350500D01*
X218506286Y-94350500D01*
X218506287Y-94350500D01*
X218716243Y-94317246D01*
X218918412Y-94251557D01*
X219107816Y-94155051D01*
X219180528Y-94102223D01*
X219279786Y-94030109D01*
X219279788Y-94030106D01*
X219279792Y-94030104D01*
X219430104Y-93879792D01*
X219430106Y-93879788D01*
X219430109Y-93879786D01*
X219555048Y-93707820D01*
X219555047Y-93707820D01*
X219555051Y-93707816D01*
X219651557Y-93518412D01*
X219717246Y-93316243D01*
X219750500Y-93106287D01*
X219750500Y-92893713D01*
X219717246Y-92683757D01*
X219651557Y-92481588D01*
X219555051Y-92292184D01*
X219555049Y-92292181D01*
X219555048Y-92292179D01*
X219430109Y-92120213D01*
X219279786Y-91969890D01*
X219107820Y-91844951D01*
X218918414Y-91748444D01*
X218918413Y-91748443D01*
X218918412Y-91748443D01*
X218716243Y-91682754D01*
X218716241Y-91682753D01*
X218716240Y-91682753D01*
X218554957Y-91657208D01*
X218506287Y-91649500D01*
X218293713Y-91649500D01*
X218245042Y-91657208D01*
X218083760Y-91682753D01*
X217881585Y-91748444D01*
X217692179Y-91844951D01*
X217520213Y-91969890D01*
X217369890Y-92120213D01*
X217244951Y-92292179D01*
X217148444Y-92481585D01*
X217082753Y-92683760D01*
X217049500Y-92893713D01*
X214950500Y-92893713D01*
X214917246Y-92683757D01*
X214851557Y-92481588D01*
X214755051Y-92292184D01*
X214755049Y-92292181D01*
X214755048Y-92292179D01*
X214630109Y-92120213D01*
X214479786Y-91969890D01*
X214307820Y-91844951D01*
X214118414Y-91748444D01*
X214118413Y-91748443D01*
X214118412Y-91748443D01*
X213916243Y-91682754D01*
X213916241Y-91682753D01*
X213916240Y-91682753D01*
X213754957Y-91657208D01*
X213706287Y-91649500D01*
X213493713Y-91649500D01*
X213445042Y-91657208D01*
X213283760Y-91682753D01*
X213081585Y-91748444D01*
X212892179Y-91844951D01*
X212720213Y-91969890D01*
X212569890Y-92120213D01*
X212444951Y-92292179D01*
X212348444Y-92481585D01*
X212282753Y-92683760D01*
X212249500Y-92893713D01*
X209550500Y-92893713D01*
X209517246Y-92683757D01*
X209451557Y-92481588D01*
X209355051Y-92292184D01*
X209355049Y-92292181D01*
X209355048Y-92292179D01*
X209230109Y-92120213D01*
X209079786Y-91969890D01*
X208907820Y-91844951D01*
X208718414Y-91748444D01*
X208718413Y-91748443D01*
X208718412Y-91748443D01*
X208516243Y-91682754D01*
X208516241Y-91682753D01*
X208516240Y-91682753D01*
X208354957Y-91657208D01*
X208306287Y-91649500D01*
X208093713Y-91649500D01*
X208045042Y-91657208D01*
X207883760Y-91682753D01*
X207681585Y-91748444D01*
X207492179Y-91844951D01*
X207320213Y-91969890D01*
X207169890Y-92120213D01*
X207044951Y-92292179D01*
X206948444Y-92481585D01*
X206882753Y-92683760D01*
X206849500Y-92893713D01*
X204750500Y-92893713D01*
X204717246Y-92683757D01*
X204651557Y-92481588D01*
X204555051Y-92292184D01*
X204555049Y-92292181D01*
X204555048Y-92292179D01*
X204430109Y-92120213D01*
X204279786Y-91969890D01*
X204107820Y-91844951D01*
X203918414Y-91748444D01*
X203918413Y-91748443D01*
X203918412Y-91748443D01*
X203716243Y-91682754D01*
X203716241Y-91682753D01*
X203716240Y-91682753D01*
X203554957Y-91657208D01*
X203506287Y-91649500D01*
X203293713Y-91649500D01*
X203245042Y-91657208D01*
X203083760Y-91682753D01*
X202881585Y-91748444D01*
X202692179Y-91844951D01*
X202520213Y-91969890D01*
X202369890Y-92120213D01*
X202244951Y-92292179D01*
X202148444Y-92481585D01*
X202082753Y-92683760D01*
X202049500Y-92893713D01*
X190746587Y-92893713D01*
X190937692Y-92702608D01*
X191190303Y-92401558D01*
X191415714Y-92079638D01*
X191612210Y-91739297D01*
X191778295Y-91383125D01*
X191912707Y-91013833D01*
X192014421Y-90634232D01*
X192082663Y-90247210D01*
X192116914Y-89855713D01*
X192116914Y-89462721D01*
X192082663Y-89071224D01*
X192075413Y-89030109D01*
X192063194Y-88960809D01*
X192014421Y-88684202D01*
X191912707Y-88304601D01*
X191778295Y-87935309D01*
X191778290Y-87935300D01*
X191778289Y-87935295D01*
X191652299Y-87665107D01*
X191629283Y-87615750D01*
X198277449Y-87615750D01*
X198277449Y-87959681D01*
X198311159Y-88301965D01*
X198378257Y-88639288D01*
X198478099Y-88968422D01*
X198609719Y-89286180D01*
X198609721Y-89286185D01*
X198771842Y-89589491D01*
X198771846Y-89589498D01*
X198771849Y-89589503D01*
X198962927Y-89875472D01*
X198962934Y-89875481D01*
X199181125Y-90141348D01*
X199424316Y-90384539D01*
X199424321Y-90384543D01*
X199424322Y-90384544D01*
X199690189Y-90602735D01*
X199976162Y-90793816D01*
X199976171Y-90793821D01*
X199976173Y-90793822D01*
X200279479Y-90955943D01*
X200279481Y-90955943D01*
X200279487Y-90955947D01*
X200597244Y-91087566D01*
X200926371Y-91187406D01*
X201263699Y-91254505D01*
X201605980Y-91288216D01*
X201605983Y-91288216D01*
X201949915Y-91288216D01*
X201949918Y-91288216D01*
X202292199Y-91254505D01*
X202629527Y-91187406D01*
X202958654Y-91087566D01*
X203276411Y-90955947D01*
X203579736Y-90793816D01*
X203865709Y-90602735D01*
X204131576Y-90384544D01*
X204374777Y-90141343D01*
X204592968Y-89875476D01*
X204784049Y-89589503D01*
X204946180Y-89286178D01*
X205077799Y-88968421D01*
X205177639Y-88639294D01*
X205244738Y-88301966D01*
X205278449Y-87959685D01*
X205278449Y-87615747D01*
X205244738Y-87273466D01*
X205177639Y-86936138D01*
X205077799Y-86607011D01*
X204946180Y-86289254D01*
X204784049Y-85985929D01*
X204592968Y-85699956D01*
X204374777Y-85434089D01*
X204374776Y-85434088D01*
X204374772Y-85434083D01*
X204131581Y-85190892D01*
X203865714Y-84972701D01*
X203865713Y-84972700D01*
X203865709Y-84972697D01*
X203579736Y-84781616D01*
X203579731Y-84781613D01*
X203579724Y-84781609D01*
X203276418Y-84619488D01*
X203276413Y-84619486D01*
X202958655Y-84487866D01*
X202629521Y-84388024D01*
X202292197Y-84320926D01*
X202292198Y-84320926D01*
X202034405Y-84295537D01*
X201949918Y-84287216D01*
X201605980Y-84287216D01*
X201527915Y-84294904D01*
X201263699Y-84320926D01*
X200926376Y-84388024D01*
X200597242Y-84487866D01*
X200279484Y-84619486D01*
X200279479Y-84619488D01*
X199976173Y-84781609D01*
X199976155Y-84781620D01*
X199690197Y-84972691D01*
X199690183Y-84972701D01*
X199424316Y-85190892D01*
X199181125Y-85434083D01*
X198962934Y-85699950D01*
X198962924Y-85699964D01*
X198771853Y-85985922D01*
X198771842Y-85985940D01*
X198609721Y-86289246D01*
X198609719Y-86289251D01*
X198478099Y-86607009D01*
X198378257Y-86936143D01*
X198311159Y-87273466D01*
X198290662Y-87481588D01*
X198281056Y-87579130D01*
X198277449Y-87615750D01*
X191629283Y-87615750D01*
X191612218Y-87579154D01*
X191612206Y-87579130D01*
X191555888Y-87481585D01*
X191415714Y-87238796D01*
X191190303Y-86916876D01*
X191190302Y-86916875D01*
X191190298Y-86916869D01*
X190965948Y-86649500D01*
X190937692Y-86615826D01*
X190659805Y-86337939D01*
X190588385Y-86278010D01*
X190358761Y-86085332D01*
X190036841Y-85859921D01*
X190036838Y-85859919D01*
X190036835Y-85859917D01*
X189935719Y-85801537D01*
X189696500Y-85663424D01*
X189696476Y-85663412D01*
X189340335Y-85497341D01*
X189340324Y-85497337D01*
X189340322Y-85497336D01*
X188971030Y-85362924D01*
X188675587Y-85283760D01*
X188591430Y-85261210D01*
X188591419Y-85261208D01*
X188204411Y-85192968D01*
X187812914Y-85158717D01*
X187812910Y-85158717D01*
X187419918Y-85158717D01*
X187419913Y-85158717D01*
X187028418Y-85192968D01*
X187028414Y-85192968D01*
X186641408Y-85261208D01*
X186641397Y-85261210D01*
X186437969Y-85315719D01*
X186261798Y-85362924D01*
X186261795Y-85362925D01*
X186261794Y-85362925D01*
X185892492Y-85497341D01*
X185536351Y-85663412D01*
X185536327Y-85663424D01*
X185196001Y-85859912D01*
X185195986Y-85859921D01*
X184874066Y-86085332D01*
X184573020Y-86337941D01*
X184295138Y-86615823D01*
X184042529Y-86916869D01*
X183817118Y-87238789D01*
X183817109Y-87238804D01*
X183620621Y-87579130D01*
X183620609Y-87579154D01*
X183454538Y-87935295D01*
X183320122Y-88304597D01*
X183320122Y-88304599D01*
X183218407Y-88684200D01*
X183218405Y-88684211D01*
X183150165Y-89071217D01*
X183150165Y-89071221D01*
X183115914Y-89462716D01*
X180841941Y-89462716D01*
X180755051Y-89292184D01*
X180755049Y-89292181D01*
X180755048Y-89292179D01*
X180630109Y-89120213D01*
X180479786Y-88969890D01*
X180307820Y-88844951D01*
X180118414Y-88748444D01*
X180118413Y-88748443D01*
X180118412Y-88748443D01*
X179916243Y-88682754D01*
X179916241Y-88682753D01*
X179916240Y-88682753D01*
X179754957Y-88657208D01*
X179706287Y-88649500D01*
X179493713Y-88649500D01*
X179445042Y-88657208D01*
X179283760Y-88682753D01*
X179081585Y-88748444D01*
X178892179Y-88844951D01*
X178720213Y-88969890D01*
X178569890Y-89120213D01*
X178444951Y-89292179D01*
X178348444Y-89481585D01*
X178282753Y-89683760D01*
X178282753Y-89683762D01*
X178249500Y-89893713D01*
X176950500Y-89893713D01*
X176917246Y-89683757D01*
X176851557Y-89481588D01*
X176755051Y-89292184D01*
X176755049Y-89292181D01*
X176755048Y-89292179D01*
X176630109Y-89120213D01*
X176479786Y-88969890D01*
X176307820Y-88844951D01*
X176118414Y-88748444D01*
X176118413Y-88748443D01*
X176118412Y-88748443D01*
X175916243Y-88682754D01*
X175916241Y-88682753D01*
X175916240Y-88682753D01*
X175754957Y-88657208D01*
X175706287Y-88649500D01*
X175493713Y-88649500D01*
X175445042Y-88657208D01*
X175283760Y-88682753D01*
X175081585Y-88748444D01*
X174892179Y-88844951D01*
X174720213Y-88969890D01*
X174569890Y-89120213D01*
X174444951Y-89292179D01*
X174348444Y-89481585D01*
X174282753Y-89683760D01*
X174282753Y-89683762D01*
X174249500Y-89893713D01*
X168860052Y-89893713D01*
X168875019Y-89875476D01*
X169066100Y-89589503D01*
X169228231Y-89286178D01*
X169359850Y-88968421D01*
X169459690Y-88639294D01*
X169526789Y-88301966D01*
X169560500Y-87959685D01*
X169560500Y-87615747D01*
X169526789Y-87273466D01*
X169459690Y-86936138D01*
X169359850Y-86607011D01*
X169228231Y-86289254D01*
X169066100Y-85985929D01*
X168875019Y-85699956D01*
X168656828Y-85434089D01*
X168656827Y-85434088D01*
X168656823Y-85434083D01*
X168413632Y-85190892D01*
X168147765Y-84972701D01*
X168147764Y-84972700D01*
X168147760Y-84972697D01*
X167861787Y-84781616D01*
X167861782Y-84781613D01*
X167861775Y-84781609D01*
X167558469Y-84619488D01*
X167558464Y-84619486D01*
X167240706Y-84487866D01*
X166911572Y-84388024D01*
X166574248Y-84320926D01*
X166574249Y-84320926D01*
X166316456Y-84295537D01*
X166231969Y-84287216D01*
X165888031Y-84287216D01*
X165809966Y-84294904D01*
X165545750Y-84320926D01*
X165208427Y-84388024D01*
X164879293Y-84487866D01*
X164561535Y-84619486D01*
X164561530Y-84619488D01*
X164258224Y-84781609D01*
X164258206Y-84781620D01*
X163972248Y-84972691D01*
X163972234Y-84972701D01*
X163706367Y-85190892D01*
X163463176Y-85434083D01*
X163244985Y-85699950D01*
X163244975Y-85699964D01*
X163053904Y-85985922D01*
X163053893Y-85985940D01*
X162891772Y-86289246D01*
X162891770Y-86289251D01*
X162760150Y-86607009D01*
X162660308Y-86936143D01*
X162593210Y-87273466D01*
X162572713Y-87481588D01*
X162563107Y-87579130D01*
X162559500Y-87615750D01*
X155911334Y-87615750D01*
X155894269Y-87579154D01*
X155894257Y-87579130D01*
X155837939Y-87481585D01*
X155697765Y-87238796D01*
X155472354Y-86916876D01*
X155472353Y-86916875D01*
X155472349Y-86916869D01*
X155247999Y-86649500D01*
X155219743Y-86615826D01*
X154941856Y-86337939D01*
X154870436Y-86278010D01*
X154640812Y-86085332D01*
X154318892Y-85859921D01*
X154318889Y-85859919D01*
X154318886Y-85859917D01*
X154217770Y-85801537D01*
X153978551Y-85663424D01*
X153978527Y-85663412D01*
X153622386Y-85497341D01*
X153622375Y-85497337D01*
X153622373Y-85497336D01*
X153253081Y-85362924D01*
X152957638Y-85283760D01*
X152873481Y-85261210D01*
X152873470Y-85261208D01*
X152486462Y-85192968D01*
X152094965Y-85158717D01*
X152094961Y-85158717D01*
X151701969Y-85158717D01*
X151701964Y-85158717D01*
X151310469Y-85192968D01*
X151310465Y-85192968D01*
X150923459Y-85261208D01*
X150923448Y-85261210D01*
X150720020Y-85315719D01*
X150543849Y-85362924D01*
X150543846Y-85362925D01*
X150543845Y-85362925D01*
X150174543Y-85497341D01*
X149818402Y-85663412D01*
X149818378Y-85663424D01*
X149478052Y-85859912D01*
X149478037Y-85859921D01*
X149156117Y-86085332D01*
X148855071Y-86337941D01*
X148577189Y-86615823D01*
X148324580Y-86916869D01*
X148099169Y-87238789D01*
X148099160Y-87238804D01*
X147902672Y-87579130D01*
X147902660Y-87579154D01*
X147736589Y-87935295D01*
X147602173Y-88304597D01*
X147602173Y-88304599D01*
X147500458Y-88684200D01*
X147500456Y-88684211D01*
X147432216Y-89071217D01*
X147432216Y-89071221D01*
X147397965Y-89462716D01*
X118526810Y-89462716D01*
X118526810Y-87893713D01*
X126649500Y-87893713D01*
X126649500Y-88106286D01*
X126682753Y-88316239D01*
X126748444Y-88518414D01*
X126844951Y-88707820D01*
X126969890Y-88879786D01*
X127120213Y-89030109D01*
X127292179Y-89155048D01*
X127292181Y-89155049D01*
X127292184Y-89155051D01*
X127481588Y-89251557D01*
X127683757Y-89317246D01*
X127893713Y-89350500D01*
X127893714Y-89350500D01*
X128106286Y-89350500D01*
X128106287Y-89350500D01*
X128316243Y-89317246D01*
X128518412Y-89251557D01*
X128707816Y-89155051D01*
X128823199Y-89071221D01*
X128879786Y-89030109D01*
X128879788Y-89030106D01*
X128879792Y-89030104D01*
X129030104Y-88879792D01*
X129030106Y-88879788D01*
X129030109Y-88879786D01*
X129155048Y-88707820D01*
X129155047Y-88707820D01*
X129155051Y-88707816D01*
X129251557Y-88518412D01*
X129317246Y-88316243D01*
X129350500Y-88106287D01*
X129350500Y-87893713D01*
X129317246Y-87683757D01*
X129251557Y-87481588D01*
X129155051Y-87292184D01*
X129155049Y-87292181D01*
X129155048Y-87292179D01*
X129030109Y-87120213D01*
X128879786Y-86969890D01*
X128707820Y-86844951D01*
X128518414Y-86748444D01*
X128518413Y-86748443D01*
X128518412Y-86748443D01*
X128316243Y-86682754D01*
X128316241Y-86682753D01*
X128316240Y-86682753D01*
X128154957Y-86657208D01*
X128106287Y-86649500D01*
X127893713Y-86649500D01*
X127845042Y-86657208D01*
X127683760Y-86682753D01*
X127481585Y-86748444D01*
X127292179Y-86844951D01*
X127120213Y-86969890D01*
X126969890Y-87120213D01*
X126844951Y-87292179D01*
X126748444Y-87481585D01*
X126682753Y-87683760D01*
X126649500Y-87893713D01*
X118526810Y-87893713D01*
X118526810Y-85493713D01*
X124049500Y-85493713D01*
X124049500Y-85706287D01*
X124082754Y-85916243D01*
X124137693Y-86085328D01*
X124148444Y-86118414D01*
X124244951Y-86307820D01*
X124369890Y-86479786D01*
X124520213Y-86630109D01*
X124692179Y-86755048D01*
X124692181Y-86755049D01*
X124692184Y-86755051D01*
X124881588Y-86851557D01*
X125083757Y-86917246D01*
X125293713Y-86950500D01*
X125293714Y-86950500D01*
X125506286Y-86950500D01*
X125506287Y-86950500D01*
X125716243Y-86917246D01*
X125918412Y-86851557D01*
X126107816Y-86755051D01*
X126207325Y-86682754D01*
X126279786Y-86630109D01*
X126279788Y-86630106D01*
X126279792Y-86630104D01*
X126430104Y-86479792D01*
X126430106Y-86479788D01*
X126430109Y-86479786D01*
X126555048Y-86307820D01*
X126555047Y-86307820D01*
X126555051Y-86307816D01*
X126651557Y-86118412D01*
X126717246Y-85916243D01*
X126750500Y-85706287D01*
X126750500Y-85493713D01*
X126717246Y-85283757D01*
X126651557Y-85081588D01*
X126555051Y-84892184D01*
X126555049Y-84892181D01*
X126555048Y-84892179D01*
X126430109Y-84720213D01*
X126279786Y-84569890D01*
X126107820Y-84444951D01*
X125918414Y-84348444D01*
X125918413Y-84348443D01*
X125918412Y-84348443D01*
X125716243Y-84282754D01*
X125716241Y-84282753D01*
X125716240Y-84282753D01*
X125554957Y-84257208D01*
X125506287Y-84249500D01*
X125293713Y-84249500D01*
X125245042Y-84257208D01*
X125083760Y-84282753D01*
X124881585Y-84348444D01*
X124692179Y-84444951D01*
X124520213Y-84569890D01*
X124369890Y-84720213D01*
X124244951Y-84892179D01*
X124148444Y-85081585D01*
X124082753Y-85283760D01*
X124049500Y-85493713D01*
X118526810Y-85493713D01*
X118526810Y-74285778D01*
X121149500Y-74285778D01*
X121149500Y-77214221D01*
X121159904Y-77346412D01*
X121159905Y-77346419D01*
X121214902Y-77564678D01*
X121214903Y-77564681D01*
X121232360Y-77603115D01*
X121307993Y-77769626D01*
X121307995Y-77769630D01*
X121307997Y-77769632D01*
X121436174Y-77954645D01*
X121436178Y-77954650D01*
X121436181Y-77954654D01*
X121595346Y-78113819D01*
X121595350Y-78113822D01*
X121595354Y-78113825D01*
X121734603Y-78210297D01*
X121780374Y-78242007D01*
X121985317Y-78335096D01*
X121985321Y-78335097D01*
X122203580Y-78390094D01*
X122203582Y-78390094D01*
X122203589Y-78390096D01*
X122335784Y-78400500D01*
X122335792Y-78400500D01*
X122991357Y-78400500D01*
X123058396Y-78420185D01*
X123104151Y-78472989D01*
X123114095Y-78542147D01*
X123085070Y-78605703D01*
X123026292Y-78643477D01*
X123023470Y-78644269D01*
X122950273Y-78663882D01*
X122742837Y-78719464D01*
X122458173Y-78837376D01*
X122458162Y-78837381D01*
X122191325Y-78991441D01*
X121946884Y-79179007D01*
X121946877Y-79179013D01*
X121729013Y-79396877D01*
X121729007Y-79396884D01*
X121541441Y-79641325D01*
X121541438Y-79641329D01*
X121541438Y-79641330D01*
X121536721Y-79649500D01*
X121387381Y-79908162D01*
X121387376Y-79908173D01*
X121269464Y-80192837D01*
X121189717Y-80490457D01*
X121149501Y-80795930D01*
X121149500Y-80795946D01*
X121149500Y-81704053D01*
X121149501Y-81704069D01*
X121189717Y-82009542D01*
X121269464Y-82307162D01*
X121387376Y-82591826D01*
X121387381Y-82591837D01*
X121471915Y-82738253D01*
X121541438Y-82858670D01*
X121541440Y-82858673D01*
X121541441Y-82858674D01*
X121729007Y-83103115D01*
X121729013Y-83103122D01*
X121946877Y-83320986D01*
X121946883Y-83320991D01*
X122191330Y-83508562D01*
X122362830Y-83607578D01*
X122458162Y-83662618D01*
X122458167Y-83662620D01*
X122458170Y-83662622D01*
X122742836Y-83780535D01*
X123040456Y-83860282D01*
X123345940Y-83900500D01*
X123345947Y-83900500D01*
X123654053Y-83900500D01*
X123654060Y-83900500D01*
X123959544Y-83860282D01*
X124257164Y-83780535D01*
X124541830Y-83662622D01*
X124808670Y-83508562D01*
X125053117Y-83320991D01*
X125270991Y-83103117D01*
X125458562Y-82858670D01*
X125492613Y-82799692D01*
X125543179Y-82751477D01*
X125611786Y-82738253D01*
X125676651Y-82764221D01*
X125707387Y-82799692D01*
X125741437Y-82858669D01*
X125929007Y-83103115D01*
X125929013Y-83103122D01*
X126146877Y-83320986D01*
X126146883Y-83320991D01*
X126391330Y-83508562D01*
X126562830Y-83607578D01*
X126658162Y-83662618D01*
X126658167Y-83662620D01*
X126658170Y-83662622D01*
X126942836Y-83780535D01*
X127240456Y-83860282D01*
X127545940Y-83900500D01*
X127545947Y-83900500D01*
X127854053Y-83900500D01*
X127854060Y-83900500D01*
X128159544Y-83860282D01*
X128457164Y-83780535D01*
X128741830Y-83662622D01*
X129008670Y-83508562D01*
X129253117Y-83320991D01*
X129470991Y-83103117D01*
X129658562Y-82858670D01*
X129812622Y-82591830D01*
X129853264Y-82493713D01*
X130849500Y-82493713D01*
X130849500Y-82706287D01*
X130882754Y-82916243D01*
X130943473Y-83103117D01*
X130948444Y-83118414D01*
X131044951Y-83307820D01*
X131169890Y-83479786D01*
X131320213Y-83630109D01*
X131492179Y-83755048D01*
X131492181Y-83755049D01*
X131492184Y-83755051D01*
X131681588Y-83851557D01*
X131883757Y-83917246D01*
X132093713Y-83950500D01*
X132093714Y-83950500D01*
X132306286Y-83950500D01*
X132306287Y-83950500D01*
X132516243Y-83917246D01*
X132718412Y-83851557D01*
X132907816Y-83755051D01*
X132929789Y-83739086D01*
X133079786Y-83630109D01*
X133079788Y-83630106D01*
X133079792Y-83630104D01*
X133230104Y-83479792D01*
X133230106Y-83479788D01*
X133230109Y-83479786D01*
X133345479Y-83320991D01*
X133355051Y-83307816D01*
X133451557Y-83118412D01*
X133517246Y-82916243D01*
X133550500Y-82706287D01*
X133550500Y-82493713D01*
X133517246Y-82283757D01*
X133451557Y-82081588D01*
X133355051Y-81892184D01*
X133355049Y-81892181D01*
X133355048Y-81892179D01*
X133230109Y-81720213D01*
X133079786Y-81569890D01*
X132907820Y-81444951D01*
X132718414Y-81348444D01*
X132718413Y-81348443D01*
X132718412Y-81348443D01*
X132516243Y-81282754D01*
X132516241Y-81282753D01*
X132516240Y-81282753D01*
X132354957Y-81257208D01*
X132306287Y-81249500D01*
X132093713Y-81249500D01*
X132045042Y-81257208D01*
X131883760Y-81282753D01*
X131681585Y-81348444D01*
X131492179Y-81444951D01*
X131320213Y-81569890D01*
X131169890Y-81720213D01*
X131044951Y-81892179D01*
X130948444Y-82081585D01*
X130882753Y-82283760D01*
X130857787Y-82441389D01*
X130849500Y-82493713D01*
X129853264Y-82493713D01*
X129930535Y-82307164D01*
X130010282Y-82009544D01*
X130050500Y-81704060D01*
X130050500Y-80795940D01*
X130010282Y-80490456D01*
X129930535Y-80192836D01*
X129812622Y-79908170D01*
X129812620Y-79908167D01*
X129812618Y-79908162D01*
X129757578Y-79812830D01*
X129658562Y-79641330D01*
X129536882Y-79482754D01*
X129470992Y-79396884D01*
X129470986Y-79396877D01*
X129253122Y-79179013D01*
X129253115Y-79179007D01*
X129008674Y-78991441D01*
X129008673Y-78991440D01*
X129008670Y-78991438D01*
X128902280Y-78930014D01*
X128741837Y-78837381D01*
X128741826Y-78837376D01*
X128457162Y-78719464D01*
X128159542Y-78639717D01*
X128046128Y-78624786D01*
X128032094Y-78622938D01*
X127968198Y-78594673D01*
X127929727Y-78536348D01*
X127928896Y-78466483D01*
X127965968Y-78407260D01*
X128029174Y-78377481D01*
X128032087Y-78377062D01*
X128159544Y-78360282D01*
X128457164Y-78280535D01*
X128741830Y-78162622D01*
X129008670Y-78008562D01*
X129253117Y-77820991D01*
X129470991Y-77603117D01*
X129658562Y-77358670D01*
X129812622Y-77091830D01*
X129930535Y-76807164D01*
X130010282Y-76509544D01*
X130050500Y-76204060D01*
X130050500Y-75295940D01*
X130010282Y-74990456D01*
X129930535Y-74692836D01*
X129812622Y-74408170D01*
X129812620Y-74408167D01*
X129812618Y-74408162D01*
X129776353Y-74345349D01*
X129741959Y-74285778D01*
X137649500Y-74285778D01*
X137649500Y-77214221D01*
X137659904Y-77346412D01*
X137659905Y-77346419D01*
X137714902Y-77564678D01*
X137714903Y-77564681D01*
X137732360Y-77603115D01*
X137807993Y-77769626D01*
X137807995Y-77769630D01*
X137807997Y-77769632D01*
X137936174Y-77954645D01*
X137936178Y-77954650D01*
X137936181Y-77954654D01*
X138095346Y-78113819D01*
X138095350Y-78113822D01*
X138095354Y-78113825D01*
X138234603Y-78210297D01*
X138280374Y-78242007D01*
X138485317Y-78335096D01*
X138485321Y-78335097D01*
X138703580Y-78390094D01*
X138703582Y-78390094D01*
X138703589Y-78390096D01*
X138835784Y-78400500D01*
X138835792Y-78400500D01*
X139491357Y-78400500D01*
X139558396Y-78420185D01*
X139604151Y-78472989D01*
X139614095Y-78542147D01*
X139585070Y-78605703D01*
X139526292Y-78643477D01*
X139523470Y-78644269D01*
X139450273Y-78663882D01*
X139242837Y-78719464D01*
X138958173Y-78837376D01*
X138958162Y-78837381D01*
X138691325Y-78991441D01*
X138446884Y-79179007D01*
X138446877Y-79179013D01*
X138229013Y-79396877D01*
X138229007Y-79396884D01*
X138041441Y-79641325D01*
X138041438Y-79641329D01*
X138041438Y-79641330D01*
X138036721Y-79649500D01*
X137887381Y-79908162D01*
X137887376Y-79908173D01*
X137769464Y-80192837D01*
X137689717Y-80490457D01*
X137649501Y-80795930D01*
X137649500Y-80795946D01*
X137649500Y-81704053D01*
X137649501Y-81704069D01*
X137689717Y-82009542D01*
X137769464Y-82307162D01*
X137887376Y-82591826D01*
X137887381Y-82591837D01*
X137971915Y-82738253D01*
X138041438Y-82858670D01*
X138041440Y-82858673D01*
X138041441Y-82858674D01*
X138229007Y-83103115D01*
X138229013Y-83103122D01*
X138446877Y-83320986D01*
X138446883Y-83320991D01*
X138691330Y-83508562D01*
X138862830Y-83607578D01*
X138958162Y-83662618D01*
X138958167Y-83662620D01*
X138958170Y-83662622D01*
X139242836Y-83780535D01*
X139540456Y-83860282D01*
X139845940Y-83900500D01*
X139845947Y-83900500D01*
X140154053Y-83900500D01*
X140154060Y-83900500D01*
X140459544Y-83860282D01*
X140757164Y-83780535D01*
X141041830Y-83662622D01*
X141308670Y-83508562D01*
X141553117Y-83320991D01*
X141770991Y-83103117D01*
X141958562Y-82858670D01*
X142112622Y-82591830D01*
X142230535Y-82307164D01*
X142310282Y-82009544D01*
X142350500Y-81704060D01*
X142350500Y-81093713D01*
X154649500Y-81093713D01*
X154649500Y-81306287D01*
X154651421Y-81318414D01*
X154680014Y-81498947D01*
X154682754Y-81516243D01*
X154745001Y-81707820D01*
X154748444Y-81718414D01*
X154844951Y-81907820D01*
X154969890Y-82079786D01*
X155120213Y-82230109D01*
X155292179Y-82355048D01*
X155292181Y-82355049D01*
X155292184Y-82355051D01*
X155481588Y-82451557D01*
X155683757Y-82517246D01*
X155893713Y-82550500D01*
X155893714Y-82550500D01*
X156106286Y-82550500D01*
X156106287Y-82550500D01*
X156316243Y-82517246D01*
X156518412Y-82451557D01*
X156707816Y-82355051D01*
X156729789Y-82339086D01*
X156879786Y-82230109D01*
X156879788Y-82230106D01*
X156879792Y-82230104D01*
X157030104Y-82079792D01*
X157030106Y-82079788D01*
X157030109Y-82079786D01*
X157155048Y-81907820D01*
X157155047Y-81907820D01*
X157155051Y-81907816D01*
X157251557Y-81718412D01*
X157317246Y-81516243D01*
X157350500Y-81306287D01*
X157350500Y-81093713D01*
X157317246Y-80883757D01*
X157251557Y-80681588D01*
X157155051Y-80492184D01*
X157155049Y-80492181D01*
X157155048Y-80492179D01*
X157030109Y-80320213D01*
X156879786Y-80169890D01*
X156707820Y-80044951D01*
X156518414Y-79948444D01*
X156518413Y-79948443D01*
X156518412Y-79948443D01*
X156316243Y-79882754D01*
X156316241Y-79882753D01*
X156316240Y-79882753D01*
X156154957Y-79857208D01*
X156106287Y-79849500D01*
X155893713Y-79849500D01*
X155845042Y-79857208D01*
X155683760Y-79882753D01*
X155481585Y-79948444D01*
X155292179Y-80044951D01*
X155120213Y-80169890D01*
X154969890Y-80320213D01*
X154844951Y-80492179D01*
X154748444Y-80681585D01*
X154682753Y-80883760D01*
X154675819Y-80927541D01*
X154649500Y-81093713D01*
X142350500Y-81093713D01*
X142350500Y-80795940D01*
X142310282Y-80490456D01*
X142230535Y-80192836D01*
X142112622Y-79908170D01*
X142112620Y-79908167D01*
X142112618Y-79908162D01*
X142057578Y-79812830D01*
X141958562Y-79641330D01*
X141836882Y-79482754D01*
X141770992Y-79396884D01*
X141770986Y-79396877D01*
X141553122Y-79179013D01*
X141553115Y-79179007D01*
X141308674Y-78991441D01*
X141308673Y-78991440D01*
X141308670Y-78991438D01*
X141202280Y-78930014D01*
X141041837Y-78837381D01*
X141041826Y-78837376D01*
X140757162Y-78719464D01*
X140576870Y-78671155D01*
X140476549Y-78644274D01*
X140416889Y-78607910D01*
X140386360Y-78545063D01*
X140394655Y-78475687D01*
X140439140Y-78421810D01*
X140505692Y-78400535D01*
X140508643Y-78400500D01*
X141164208Y-78400500D01*
X141164216Y-78400500D01*
X141296411Y-78390096D01*
X141514683Y-78335096D01*
X141719626Y-78242007D01*
X141839802Y-78158749D01*
X157099500Y-78158749D01*
X157099500Y-78502687D01*
X157103674Y-78545063D01*
X157133210Y-78844967D01*
X157200308Y-79182290D01*
X157300150Y-79511424D01*
X157431770Y-79829182D01*
X157431772Y-79829187D01*
X157593893Y-80132493D01*
X157593904Y-80132511D01*
X157784975Y-80418469D01*
X157784985Y-80418483D01*
X158003176Y-80684350D01*
X158246367Y-80927541D01*
X158246372Y-80927545D01*
X158246373Y-80927546D01*
X158512240Y-81145737D01*
X158798213Y-81336818D01*
X158798222Y-81336823D01*
X158798224Y-81336824D01*
X159101530Y-81498945D01*
X159101532Y-81498945D01*
X159101538Y-81498949D01*
X159419295Y-81630568D01*
X159748422Y-81730408D01*
X160085750Y-81797507D01*
X160428031Y-81831218D01*
X160428034Y-81831218D01*
X160771966Y-81831218D01*
X160771969Y-81831218D01*
X161114250Y-81797507D01*
X161451578Y-81730408D01*
X161780705Y-81630568D01*
X162098462Y-81498949D01*
X162401787Y-81336818D01*
X162687760Y-81145737D01*
X162953627Y-80927546D01*
X163196828Y-80684345D01*
X163415019Y-80418478D01*
X163606100Y-80132505D01*
X163768231Y-79829180D01*
X163899850Y-79511423D01*
X163999690Y-79182296D01*
X164066789Y-78844968D01*
X164100500Y-78502687D01*
X164100500Y-78158749D01*
X164066789Y-77816468D01*
X163999690Y-77479140D01*
X163899850Y-77150013D01*
X163768231Y-76832256D01*
X163606100Y-76528931D01*
X163415019Y-76242958D01*
X163196828Y-75977091D01*
X163196827Y-75977090D01*
X163196823Y-75977085D01*
X162953632Y-75733894D01*
X162687765Y-75515703D01*
X162687764Y-75515702D01*
X162687760Y-75515699D01*
X162401787Y-75324618D01*
X162401782Y-75324615D01*
X162401775Y-75324611D01*
X162098469Y-75162490D01*
X162098464Y-75162488D01*
X161780706Y-75030868D01*
X161451572Y-74931026D01*
X161114248Y-74863928D01*
X161114249Y-74863928D01*
X160856456Y-74838539D01*
X160771969Y-74830218D01*
X160428031Y-74830218D01*
X160349966Y-74837906D01*
X160085750Y-74863928D01*
X159748427Y-74931026D01*
X159419293Y-75030868D01*
X159101535Y-75162488D01*
X159101530Y-75162490D01*
X158798224Y-75324611D01*
X158798206Y-75324622D01*
X158512248Y-75515693D01*
X158512234Y-75515703D01*
X158246367Y-75733894D01*
X158003176Y-75977085D01*
X157784985Y-76242952D01*
X157784975Y-76242966D01*
X157593904Y-76528924D01*
X157593893Y-76528942D01*
X157431772Y-76832248D01*
X157431770Y-76832253D01*
X157300150Y-77150011D01*
X157200308Y-77479145D01*
X157133210Y-77816468D01*
X157114292Y-78008558D01*
X157099500Y-78158749D01*
X141839802Y-78158749D01*
X141904654Y-78113819D01*
X142063819Y-77954654D01*
X142192007Y-77769626D01*
X142285096Y-77564683D01*
X142340096Y-77346411D01*
X142350500Y-77214216D01*
X142350500Y-74412716D01*
X173465329Y-74412716D01*
X173465329Y-74805717D01*
X173499580Y-75197212D01*
X173499580Y-75197216D01*
X173567820Y-75584222D01*
X173567822Y-75584232D01*
X173669536Y-75963833D01*
X173669537Y-75963835D01*
X173669537Y-75963836D01*
X173703830Y-76058054D01*
X173756969Y-76204053D01*
X173803953Y-76333138D01*
X173970024Y-76689279D01*
X173970036Y-76689303D01*
X174166524Y-77029629D01*
X174166533Y-77029644D01*
X174391944Y-77351564D01*
X174498994Y-77479140D01*
X174644551Y-77652608D01*
X174922438Y-77930495D01*
X175015470Y-78008558D01*
X175223481Y-78183101D01*
X175223487Y-78183105D01*
X175223488Y-78183106D01*
X175545408Y-78408517D01*
X175885749Y-78605013D01*
X175885763Y-78605019D01*
X175885766Y-78605021D01*
X176241907Y-78771092D01*
X176241912Y-78771093D01*
X176241921Y-78771098D01*
X176611213Y-78905510D01*
X176990814Y-79007224D01*
X177377836Y-79075466D01*
X177769331Y-79109716D01*
X177769332Y-79109717D01*
X177769333Y-79109717D01*
X178162326Y-79109717D01*
X178162326Y-79109716D01*
X178553822Y-79075466D01*
X178940844Y-79007224D01*
X179320445Y-78905510D01*
X179689737Y-78771098D01*
X180045909Y-78605013D01*
X180386250Y-78408517D01*
X180708170Y-78183106D01*
X180737198Y-78158749D01*
X192817449Y-78158749D01*
X192817449Y-78502687D01*
X192821623Y-78545063D01*
X192851159Y-78844967D01*
X192918257Y-79182290D01*
X193018099Y-79511424D01*
X193149719Y-79829182D01*
X193149721Y-79829187D01*
X193311842Y-80132493D01*
X193311853Y-80132511D01*
X193502924Y-80418469D01*
X193502934Y-80418483D01*
X193721125Y-80684350D01*
X193964316Y-80927541D01*
X193964321Y-80927545D01*
X193964322Y-80927546D01*
X194230189Y-81145737D01*
X194516162Y-81336818D01*
X194516171Y-81336823D01*
X194516173Y-81336824D01*
X194819479Y-81498945D01*
X194819481Y-81498945D01*
X194819487Y-81498949D01*
X195137244Y-81630568D01*
X195466371Y-81730408D01*
X195803699Y-81797507D01*
X196145980Y-81831218D01*
X196145983Y-81831218D01*
X196489915Y-81831218D01*
X196489918Y-81831218D01*
X196832199Y-81797507D01*
X197169527Y-81730408D01*
X197498654Y-81630568D01*
X197816411Y-81498949D01*
X198119736Y-81336818D01*
X198405709Y-81145737D01*
X198671576Y-80927546D01*
X198705409Y-80893713D01*
X209449500Y-80893713D01*
X209449500Y-81106286D01*
X209477449Y-81282753D01*
X209482754Y-81316243D01*
X209547738Y-81516243D01*
X209548444Y-81518414D01*
X209644951Y-81707820D01*
X209769890Y-81879786D01*
X209920213Y-82030109D01*
X210092179Y-82155048D01*
X210092181Y-82155049D01*
X210092184Y-82155051D01*
X210281588Y-82251557D01*
X210483757Y-82317246D01*
X210693713Y-82350500D01*
X210693714Y-82350500D01*
X210906286Y-82350500D01*
X210906287Y-82350500D01*
X211116243Y-82317246D01*
X211318412Y-82251557D01*
X211507816Y-82155051D01*
X211529789Y-82139086D01*
X211679786Y-82030109D01*
X211679788Y-82030106D01*
X211679792Y-82030104D01*
X211830104Y-81879792D01*
X211830106Y-81879788D01*
X211830109Y-81879786D01*
X211955048Y-81707820D01*
X211955047Y-81707820D01*
X211955051Y-81707816D01*
X212051557Y-81518412D01*
X212117246Y-81316243D01*
X212150500Y-81106287D01*
X212150500Y-80893713D01*
X212118823Y-80693713D01*
X217849500Y-80693713D01*
X217849500Y-80906286D01*
X217879185Y-81093713D01*
X217882754Y-81116243D01*
X217947738Y-81316243D01*
X217948444Y-81318414D01*
X218044951Y-81507820D01*
X218169890Y-81679786D01*
X218320213Y-81830109D01*
X218492179Y-81955048D01*
X218492181Y-81955049D01*
X218492184Y-81955051D01*
X218681588Y-82051557D01*
X218883757Y-82117246D01*
X219093713Y-82150500D01*
X219093714Y-82150500D01*
X219306286Y-82150500D01*
X219306287Y-82150500D01*
X219516243Y-82117246D01*
X219718412Y-82051557D01*
X219907816Y-81955051D01*
X219929789Y-81939086D01*
X220079786Y-81830109D01*
X220079788Y-81830106D01*
X220079792Y-81830104D01*
X220230104Y-81679792D01*
X220230106Y-81679788D01*
X220230109Y-81679786D01*
X220355048Y-81507820D01*
X220355047Y-81507820D01*
X220355051Y-81507816D01*
X220451557Y-81318412D01*
X220517246Y-81116243D01*
X220550500Y-80906287D01*
X220550500Y-80693713D01*
X220517246Y-80483757D01*
X220451557Y-80281588D01*
X220355051Y-80092184D01*
X220355049Y-80092181D01*
X220355048Y-80092179D01*
X220230109Y-79920213D01*
X220079786Y-79769890D01*
X219907820Y-79644951D01*
X219718414Y-79548444D01*
X219718413Y-79548443D01*
X219718412Y-79548443D01*
X219516243Y-79482754D01*
X219516241Y-79482753D01*
X219516240Y-79482753D01*
X219354957Y-79457208D01*
X219306287Y-79449500D01*
X219093713Y-79449500D01*
X219045042Y-79457208D01*
X218883760Y-79482753D01*
X218681585Y-79548444D01*
X218492179Y-79644951D01*
X218320213Y-79769890D01*
X218169890Y-79920213D01*
X218044951Y-80092179D01*
X217948444Y-80281585D01*
X217882753Y-80483760D01*
X217849500Y-80693713D01*
X212118823Y-80693713D01*
X212117246Y-80683757D01*
X212051557Y-80481588D01*
X211955051Y-80292184D01*
X211955049Y-80292181D01*
X211955048Y-80292179D01*
X211830109Y-80120213D01*
X211679786Y-79969890D01*
X211507820Y-79844951D01*
X211318414Y-79748444D01*
X211318413Y-79748443D01*
X211318412Y-79748443D01*
X211116243Y-79682754D01*
X211116241Y-79682753D01*
X211116240Y-79682753D01*
X210954957Y-79657208D01*
X210906287Y-79649500D01*
X210693713Y-79649500D01*
X210645042Y-79657208D01*
X210483760Y-79682753D01*
X210281585Y-79748444D01*
X210092179Y-79844951D01*
X209920213Y-79969890D01*
X209769890Y-80120213D01*
X209644951Y-80292179D01*
X209548444Y-80481585D01*
X209482753Y-80683760D01*
X209449500Y-80893713D01*
X198705409Y-80893713D01*
X198715365Y-80883757D01*
X198797963Y-80801160D01*
X198914772Y-80684350D01*
X198914777Y-80684345D01*
X199132968Y-80418478D01*
X199324049Y-80132505D01*
X199486180Y-79829180D01*
X199617799Y-79511423D01*
X199717639Y-79182296D01*
X199784738Y-78844968D01*
X199818449Y-78502687D01*
X199818449Y-78158749D01*
X199784738Y-77816468D01*
X199717639Y-77479140D01*
X199617799Y-77150013D01*
X199486180Y-76832256D01*
X199324049Y-76528931D01*
X199132968Y-76242958D01*
X198914777Y-75977091D01*
X198914776Y-75977090D01*
X198914772Y-75977085D01*
X198671581Y-75733894D01*
X198405714Y-75515703D01*
X198405713Y-75515702D01*
X198405709Y-75515699D01*
X198119736Y-75324618D01*
X198119731Y-75324615D01*
X198119724Y-75324611D01*
X197816418Y-75162490D01*
X197816413Y-75162488D01*
X197498655Y-75030868D01*
X197169521Y-74931026D01*
X196832197Y-74863928D01*
X196832198Y-74863928D01*
X196574405Y-74838539D01*
X196489918Y-74830218D01*
X196145980Y-74830218D01*
X196067915Y-74837906D01*
X195803699Y-74863928D01*
X195466376Y-74931026D01*
X195137242Y-75030868D01*
X194819484Y-75162488D01*
X194819479Y-75162490D01*
X194516173Y-75324611D01*
X194516155Y-75324622D01*
X194230197Y-75515693D01*
X194230183Y-75515703D01*
X193964316Y-75733894D01*
X193721125Y-75977085D01*
X193502934Y-76242952D01*
X193502924Y-76242966D01*
X193311853Y-76528924D01*
X193311842Y-76528942D01*
X193149721Y-76832248D01*
X193149719Y-76832253D01*
X193018099Y-77150011D01*
X192918257Y-77479145D01*
X192851159Y-77816468D01*
X192832241Y-78008558D01*
X192817449Y-78158749D01*
X180737198Y-78158749D01*
X180790748Y-78113815D01*
X180854029Y-78060716D01*
X180916188Y-78008558D01*
X181009220Y-77930495D01*
X181287107Y-77652608D01*
X181539718Y-77351558D01*
X181765129Y-77029638D01*
X181961625Y-76689297D01*
X182127710Y-76333125D01*
X182262122Y-75963833D01*
X182363836Y-75584232D01*
X182432078Y-75197210D01*
X182466329Y-74805713D01*
X182466329Y-74412721D01*
X182466329Y-74412716D01*
X209183278Y-74412716D01*
X209183278Y-74805717D01*
X209217529Y-75197212D01*
X209217529Y-75197216D01*
X209285769Y-75584222D01*
X209285771Y-75584232D01*
X209387485Y-75963833D01*
X209387486Y-75963835D01*
X209387486Y-75963836D01*
X209421779Y-76058054D01*
X209474918Y-76204053D01*
X209521902Y-76333138D01*
X209687973Y-76689279D01*
X209687985Y-76689303D01*
X209884473Y-77029629D01*
X209884482Y-77029644D01*
X210109893Y-77351564D01*
X210216943Y-77479140D01*
X210362500Y-77652608D01*
X210640387Y-77930495D01*
X210733419Y-78008558D01*
X210941430Y-78183101D01*
X210941436Y-78183105D01*
X210941437Y-78183106D01*
X211263357Y-78408517D01*
X211603698Y-78605013D01*
X211603712Y-78605019D01*
X211603715Y-78605021D01*
X211959856Y-78771092D01*
X211959861Y-78771093D01*
X211959870Y-78771098D01*
X212329162Y-78905510D01*
X212708763Y-79007224D01*
X213095785Y-79075466D01*
X213487280Y-79109716D01*
X213487281Y-79109717D01*
X213487282Y-79109717D01*
X213880275Y-79109717D01*
X213880275Y-79109716D01*
X214271771Y-79075466D01*
X214658793Y-79007224D01*
X215038394Y-78905510D01*
X215407686Y-78771098D01*
X215763858Y-78605013D01*
X216104199Y-78408517D01*
X216426119Y-78183106D01*
X216727169Y-77930495D01*
X217005056Y-77652608D01*
X217257667Y-77351558D01*
X217483078Y-77029638D01*
X217679574Y-76689297D01*
X217845659Y-76333125D01*
X217980071Y-75963833D01*
X218081785Y-75584232D01*
X218150027Y-75197210D01*
X218184278Y-74805713D01*
X218184278Y-74412721D01*
X218150027Y-74021224D01*
X218081785Y-73634202D01*
X217980071Y-73254601D01*
X217845659Y-72885309D01*
X217845654Y-72885300D01*
X217845653Y-72885295D01*
X217679582Y-72529154D01*
X217679570Y-72529130D01*
X217579065Y-72355051D01*
X217483078Y-72188796D01*
X217257667Y-71866876D01*
X217257666Y-71866875D01*
X217257662Y-71866869D01*
X217094948Y-71672955D01*
X217005056Y-71565826D01*
X216727169Y-71287939D01*
X216522550Y-71116243D01*
X216426125Y-71035332D01*
X216104205Y-70809921D01*
X216104202Y-70809919D01*
X216104199Y-70809917D01*
X215948827Y-70720213D01*
X215763864Y-70613424D01*
X215763840Y-70613412D01*
X215407699Y-70447341D01*
X215407688Y-70447337D01*
X215407686Y-70447336D01*
X215038394Y-70312924D01*
X214797738Y-70248440D01*
X214658794Y-70211210D01*
X214658783Y-70211208D01*
X214271775Y-70142968D01*
X213880278Y-70108717D01*
X213880274Y-70108717D01*
X213487282Y-70108717D01*
X213487277Y-70108717D01*
X213095782Y-70142968D01*
X213095778Y-70142968D01*
X212708772Y-70211208D01*
X212708761Y-70211210D01*
X212505333Y-70265719D01*
X212329162Y-70312924D01*
X212329159Y-70312925D01*
X212329158Y-70312925D01*
X211959856Y-70447341D01*
X211603715Y-70613412D01*
X211603691Y-70613424D01*
X211263365Y-70809912D01*
X211263350Y-70809921D01*
X210941430Y-71035332D01*
X210640384Y-71287941D01*
X210362502Y-71565823D01*
X210109893Y-71866869D01*
X209884482Y-72188789D01*
X209884473Y-72188804D01*
X209687985Y-72529130D01*
X209687973Y-72529154D01*
X209521902Y-72885295D01*
X209400274Y-73219465D01*
X209387485Y-73254601D01*
X209365305Y-73337378D01*
X209285771Y-73634200D01*
X209285769Y-73634211D01*
X209217529Y-74021217D01*
X209217529Y-74021221D01*
X209183278Y-74412716D01*
X182466329Y-74412716D01*
X182432078Y-74021224D01*
X182363836Y-73634202D01*
X182262122Y-73254601D01*
X182127710Y-72885309D01*
X182127705Y-72885300D01*
X182127704Y-72885295D01*
X181961633Y-72529154D01*
X181961621Y-72529130D01*
X181861116Y-72355051D01*
X181765129Y-72188796D01*
X181539718Y-71866876D01*
X181539717Y-71866875D01*
X181539713Y-71866869D01*
X181382731Y-71679786D01*
X181287107Y-71565826D01*
X181214994Y-71493713D01*
X204249500Y-71493713D01*
X204249500Y-71706287D01*
X204251421Y-71718414D01*
X204269111Y-71830109D01*
X204282754Y-71916243D01*
X204345001Y-72107820D01*
X204348444Y-72118414D01*
X204444951Y-72307820D01*
X204569890Y-72479786D01*
X204720213Y-72630109D01*
X204892179Y-72755048D01*
X204892181Y-72755049D01*
X204892184Y-72755051D01*
X205081588Y-72851557D01*
X205283757Y-72917246D01*
X205493713Y-72950500D01*
X205493714Y-72950500D01*
X205706286Y-72950500D01*
X205706287Y-72950500D01*
X205916243Y-72917246D01*
X206118412Y-72851557D01*
X206307816Y-72755051D01*
X206329789Y-72739086D01*
X206479786Y-72630109D01*
X206479788Y-72630106D01*
X206479792Y-72630104D01*
X206630104Y-72479792D01*
X206630106Y-72479788D01*
X206630109Y-72479786D01*
X206755048Y-72307820D01*
X206755047Y-72307820D01*
X206755051Y-72307816D01*
X206851557Y-72118412D01*
X206917246Y-71916243D01*
X206950500Y-71706287D01*
X206950500Y-71493713D01*
X206917246Y-71283757D01*
X206851557Y-71081588D01*
X206755051Y-70892184D01*
X206755049Y-70892181D01*
X206755048Y-70892179D01*
X206630109Y-70720213D01*
X206479786Y-70569890D01*
X206307820Y-70444951D01*
X206118414Y-70348444D01*
X206118413Y-70348443D01*
X206118412Y-70348443D01*
X205916243Y-70282754D01*
X205916241Y-70282753D01*
X205916240Y-70282753D01*
X205754957Y-70257208D01*
X205706287Y-70249500D01*
X205493713Y-70249500D01*
X205445042Y-70257208D01*
X205283760Y-70282753D01*
X205081585Y-70348444D01*
X204892179Y-70444951D01*
X204720213Y-70569890D01*
X204569890Y-70720213D01*
X204444951Y-70892179D01*
X204348444Y-71081585D01*
X204282753Y-71283760D01*
X204259547Y-71430279D01*
X204249500Y-71493713D01*
X181214994Y-71493713D01*
X181009220Y-71287939D01*
X180804601Y-71116243D01*
X180708176Y-71035332D01*
X180386256Y-70809921D01*
X180386253Y-70809919D01*
X180386250Y-70809917D01*
X180230878Y-70720213D01*
X180045915Y-70613424D01*
X180045891Y-70613412D01*
X179689750Y-70447341D01*
X179689739Y-70447337D01*
X179689737Y-70447336D01*
X179320445Y-70312924D01*
X179079789Y-70248440D01*
X178940845Y-70211210D01*
X178940834Y-70211208D01*
X178553826Y-70142968D01*
X178162329Y-70108717D01*
X178162325Y-70108717D01*
X177769333Y-70108717D01*
X177769328Y-70108717D01*
X177377833Y-70142968D01*
X177377829Y-70142968D01*
X176990823Y-70211208D01*
X176990812Y-70211210D01*
X176787384Y-70265719D01*
X176611213Y-70312924D01*
X176611210Y-70312925D01*
X176611209Y-70312925D01*
X176241907Y-70447341D01*
X175885766Y-70613412D01*
X175885742Y-70613424D01*
X175545416Y-70809912D01*
X175545401Y-70809921D01*
X175223481Y-71035332D01*
X174922435Y-71287941D01*
X174644553Y-71565823D01*
X174391944Y-71866869D01*
X174166533Y-72188789D01*
X174166524Y-72188804D01*
X173970036Y-72529130D01*
X173970024Y-72529154D01*
X173803953Y-72885295D01*
X173682325Y-73219465D01*
X173669536Y-73254601D01*
X173647356Y-73337378D01*
X173567822Y-73634200D01*
X173567820Y-73634211D01*
X173499580Y-74021217D01*
X173499580Y-74021221D01*
X173465329Y-74412716D01*
X142350500Y-74412716D01*
X142350500Y-74285784D01*
X142340096Y-74153589D01*
X142285096Y-73935317D01*
X142192007Y-73730374D01*
X142125379Y-73634202D01*
X142063825Y-73545354D01*
X142063822Y-73545350D01*
X142063819Y-73545346D01*
X141904654Y-73386181D01*
X141904650Y-73386178D01*
X141904645Y-73386174D01*
X141719632Y-73257997D01*
X141719630Y-73257995D01*
X141719626Y-73257993D01*
X141712158Y-73254601D01*
X141514681Y-73164903D01*
X141514678Y-73164902D01*
X141296419Y-73109905D01*
X141296412Y-73109904D01*
X141164221Y-73099500D01*
X141164216Y-73099500D01*
X138835784Y-73099500D01*
X138835778Y-73099500D01*
X138703587Y-73109904D01*
X138703580Y-73109905D01*
X138485321Y-73164902D01*
X138485318Y-73164903D01*
X138280377Y-73257991D01*
X138280367Y-73257997D01*
X138095354Y-73386174D01*
X138095342Y-73386184D01*
X137936184Y-73545342D01*
X137936174Y-73545354D01*
X137807997Y-73730367D01*
X137807991Y-73730377D01*
X137714903Y-73935318D01*
X137714902Y-73935321D01*
X137659905Y-74153580D01*
X137659904Y-74153587D01*
X137649500Y-74285778D01*
X129741959Y-74285778D01*
X129731403Y-74267495D01*
X129658562Y-74141330D01*
X129500483Y-73935318D01*
X129470992Y-73896884D01*
X129470986Y-73896877D01*
X129253122Y-73679013D01*
X129253115Y-73679007D01*
X129008674Y-73491441D01*
X129008673Y-73491440D01*
X129008670Y-73491438D01*
X128826365Y-73386184D01*
X128741837Y-73337381D01*
X128741826Y-73337376D01*
X128457162Y-73219464D01*
X128159542Y-73139717D01*
X127854069Y-73099501D01*
X127854066Y-73099500D01*
X127854060Y-73099500D01*
X127545940Y-73099500D01*
X127545934Y-73099500D01*
X127545930Y-73099501D01*
X127240457Y-73139717D01*
X126942837Y-73219464D01*
X126658173Y-73337376D01*
X126658162Y-73337381D01*
X126391325Y-73491441D01*
X126146884Y-73679007D01*
X126146877Y-73679013D01*
X125944601Y-73881289D01*
X125883278Y-73914774D01*
X125813586Y-73909790D01*
X125757653Y-73867918D01*
X125744026Y-73844898D01*
X125692007Y-73730374D01*
X125625379Y-73634202D01*
X125563825Y-73545354D01*
X125563822Y-73545350D01*
X125563819Y-73545346D01*
X125404654Y-73386181D01*
X125404650Y-73386178D01*
X125404645Y-73386174D01*
X125219632Y-73257997D01*
X125219630Y-73257995D01*
X125219626Y-73257993D01*
X125212158Y-73254601D01*
X125014681Y-73164903D01*
X125014678Y-73164902D01*
X124796419Y-73109905D01*
X124796412Y-73109904D01*
X124664221Y-73099500D01*
X124664216Y-73099500D01*
X122335784Y-73099500D01*
X122335778Y-73099500D01*
X122203587Y-73109904D01*
X122203580Y-73109905D01*
X121985321Y-73164902D01*
X121985318Y-73164903D01*
X121780377Y-73257991D01*
X121780367Y-73257997D01*
X121595354Y-73386174D01*
X121595342Y-73386184D01*
X121436184Y-73545342D01*
X121436174Y-73545354D01*
X121307997Y-73730367D01*
X121307991Y-73730377D01*
X121214903Y-73935318D01*
X121214902Y-73935321D01*
X121159905Y-74153580D01*
X121159904Y-74153587D01*
X121149500Y-74285778D01*
X118526810Y-74285778D01*
X118526810Y-72602706D01*
X118526928Y-72597297D01*
X118543696Y-72213226D01*
X118544636Y-72202495D01*
X118594462Y-71824026D01*
X118596335Y-71813406D01*
X118678959Y-71440710D01*
X118681750Y-71430296D01*
X118796539Y-71066229D01*
X118800227Y-71056097D01*
X118946313Y-70703414D01*
X118950837Y-70693713D01*
X124649500Y-70693713D01*
X124649500Y-70906286D01*
X124682753Y-71116239D01*
X124682753Y-71116241D01*
X124682754Y-71116243D01*
X124744503Y-71306287D01*
X124748444Y-71318414D01*
X124844951Y-71507820D01*
X124969890Y-71679786D01*
X125120213Y-71830109D01*
X125292179Y-71955048D01*
X125292181Y-71955049D01*
X125292184Y-71955051D01*
X125481588Y-72051557D01*
X125683757Y-72117246D01*
X125893713Y-72150500D01*
X125893714Y-72150500D01*
X126106286Y-72150500D01*
X126106287Y-72150500D01*
X126316243Y-72117246D01*
X126518412Y-72051557D01*
X126707816Y-71955051D01*
X126761237Y-71916239D01*
X126879786Y-71830109D01*
X126879788Y-71830106D01*
X126879792Y-71830104D01*
X127030104Y-71679792D01*
X127030106Y-71679788D01*
X127030109Y-71679786D01*
X127155048Y-71507820D01*
X127155047Y-71507820D01*
X127155051Y-71507816D01*
X127251557Y-71318412D01*
X127317246Y-71116243D01*
X127350500Y-70906287D01*
X127350500Y-70693713D01*
X129449500Y-70693713D01*
X129449500Y-70906286D01*
X129482753Y-71116239D01*
X129482753Y-71116241D01*
X129482754Y-71116243D01*
X129544503Y-71306287D01*
X129548444Y-71318414D01*
X129644951Y-71507820D01*
X129769890Y-71679786D01*
X129920213Y-71830109D01*
X130092179Y-71955048D01*
X130092181Y-71955049D01*
X130092184Y-71955051D01*
X130281588Y-72051557D01*
X130483757Y-72117246D01*
X130693713Y-72150500D01*
X130693714Y-72150500D01*
X130906286Y-72150500D01*
X130906287Y-72150500D01*
X131116243Y-72117246D01*
X131318412Y-72051557D01*
X131507816Y-71955051D01*
X131561237Y-71916239D01*
X131679786Y-71830109D01*
X131679788Y-71830106D01*
X131679792Y-71830104D01*
X131830104Y-71679792D01*
X131830106Y-71679788D01*
X131830109Y-71679786D01*
X131955048Y-71507820D01*
X131955047Y-71507820D01*
X131955051Y-71507816D01*
X132051557Y-71318412D01*
X132117246Y-71116243D01*
X132150500Y-70906287D01*
X132150500Y-70693713D01*
X134849500Y-70693713D01*
X134849500Y-70906286D01*
X134882753Y-71116239D01*
X134882753Y-71116241D01*
X134882754Y-71116243D01*
X134944503Y-71306287D01*
X134948444Y-71318414D01*
X135044951Y-71507820D01*
X135169890Y-71679786D01*
X135320213Y-71830109D01*
X135492179Y-71955048D01*
X135492181Y-71955049D01*
X135492184Y-71955051D01*
X135681588Y-72051557D01*
X135883757Y-72117246D01*
X136093713Y-72150500D01*
X136093714Y-72150500D01*
X136306286Y-72150500D01*
X136306287Y-72150500D01*
X136516243Y-72117246D01*
X136718412Y-72051557D01*
X136907816Y-71955051D01*
X136961237Y-71916239D01*
X137079786Y-71830109D01*
X137079788Y-71830106D01*
X137079792Y-71830104D01*
X137230104Y-71679792D01*
X137230106Y-71679788D01*
X137230109Y-71679786D01*
X137355048Y-71507820D01*
X137355047Y-71507820D01*
X137355051Y-71507816D01*
X137451557Y-71318412D01*
X137517246Y-71116243D01*
X137550500Y-70906287D01*
X137550500Y-70693713D01*
X139649500Y-70693713D01*
X139649500Y-70906286D01*
X139682753Y-71116239D01*
X139682753Y-71116241D01*
X139682754Y-71116243D01*
X139744503Y-71306287D01*
X139748444Y-71318414D01*
X139844951Y-71507820D01*
X139969890Y-71679786D01*
X140120213Y-71830109D01*
X140292179Y-71955048D01*
X140292181Y-71955049D01*
X140292184Y-71955051D01*
X140481588Y-72051557D01*
X140683757Y-72117246D01*
X140893713Y-72150500D01*
X140893714Y-72150500D01*
X141106286Y-72150500D01*
X141106287Y-72150500D01*
X141316243Y-72117246D01*
X141518412Y-72051557D01*
X141707816Y-71955051D01*
X141761237Y-71916239D01*
X141879786Y-71830109D01*
X141879788Y-71830106D01*
X141879792Y-71830104D01*
X142030104Y-71679792D01*
X142030106Y-71679788D01*
X142030109Y-71679786D01*
X142155048Y-71507820D01*
X142155047Y-71507820D01*
X142155051Y-71507816D01*
X142251557Y-71318412D01*
X142317246Y-71116243D01*
X142320815Y-71093713D01*
X144849500Y-71093713D01*
X144849500Y-71306287D01*
X144851421Y-71318414D01*
X144879185Y-71493713D01*
X144882754Y-71516243D01*
X144947738Y-71716243D01*
X144948444Y-71718414D01*
X145044951Y-71907820D01*
X145169890Y-72079786D01*
X145320213Y-72230109D01*
X145492179Y-72355048D01*
X145492181Y-72355049D01*
X145492184Y-72355051D01*
X145681588Y-72451557D01*
X145883757Y-72517246D01*
X146093713Y-72550500D01*
X146093714Y-72550500D01*
X146306286Y-72550500D01*
X146306287Y-72550500D01*
X146516243Y-72517246D01*
X146718412Y-72451557D01*
X146907816Y-72355051D01*
X146929789Y-72339086D01*
X147079786Y-72230109D01*
X147079788Y-72230106D01*
X147079792Y-72230104D01*
X147230104Y-72079792D01*
X147230106Y-72079788D01*
X147230109Y-72079786D01*
X147339086Y-71929789D01*
X147355051Y-71907816D01*
X147451557Y-71718412D01*
X147517246Y-71516243D01*
X147550500Y-71306287D01*
X147550500Y-71093713D01*
X155049500Y-71093713D01*
X155049500Y-71306287D01*
X155051421Y-71318414D01*
X155079185Y-71493713D01*
X155082754Y-71516243D01*
X155147738Y-71716243D01*
X155148444Y-71718414D01*
X155244951Y-71907820D01*
X155369890Y-72079786D01*
X155520213Y-72230109D01*
X155692179Y-72355048D01*
X155692181Y-72355049D01*
X155692184Y-72355051D01*
X155881588Y-72451557D01*
X156083757Y-72517246D01*
X156293713Y-72550500D01*
X156293714Y-72550500D01*
X156506286Y-72550500D01*
X156506287Y-72550500D01*
X156716243Y-72517246D01*
X156918412Y-72451557D01*
X157107816Y-72355051D01*
X157129789Y-72339086D01*
X157279786Y-72230109D01*
X157279788Y-72230106D01*
X157279792Y-72230104D01*
X157430104Y-72079792D01*
X157430106Y-72079788D01*
X157430109Y-72079786D01*
X157539086Y-71929789D01*
X157555051Y-71907816D01*
X157651557Y-71718412D01*
X157717246Y-71516243D01*
X157750500Y-71306287D01*
X157750500Y-71093713D01*
X157717246Y-70883757D01*
X157651557Y-70681588D01*
X157555051Y-70492184D01*
X157555049Y-70492181D01*
X157555048Y-70492179D01*
X157430109Y-70320213D01*
X157279786Y-70169890D01*
X157107820Y-70044951D01*
X156918414Y-69948444D01*
X156918413Y-69948443D01*
X156918412Y-69948443D01*
X156716243Y-69882754D01*
X156716241Y-69882753D01*
X156716240Y-69882753D01*
X156554957Y-69857208D01*
X156506287Y-69849500D01*
X156293713Y-69849500D01*
X156245042Y-69857208D01*
X156083760Y-69882753D01*
X155881585Y-69948444D01*
X155692179Y-70044951D01*
X155520213Y-70169890D01*
X155369890Y-70320213D01*
X155244951Y-70492179D01*
X155148444Y-70681585D01*
X155082753Y-70883760D01*
X155054668Y-71061082D01*
X155049500Y-71093713D01*
X147550500Y-71093713D01*
X147517246Y-70883757D01*
X147451557Y-70681588D01*
X147355051Y-70492184D01*
X147355049Y-70492181D01*
X147355048Y-70492179D01*
X147230109Y-70320213D01*
X147079786Y-70169890D01*
X146907820Y-70044951D01*
X146718414Y-69948444D01*
X146718413Y-69948443D01*
X146718412Y-69948443D01*
X146516243Y-69882754D01*
X146516241Y-69882753D01*
X146516240Y-69882753D01*
X146354957Y-69857208D01*
X146306287Y-69849500D01*
X146093713Y-69849500D01*
X146045042Y-69857208D01*
X145883760Y-69882753D01*
X145681585Y-69948444D01*
X145492179Y-70044951D01*
X145320213Y-70169890D01*
X145169890Y-70320213D01*
X145044951Y-70492179D01*
X144948444Y-70681585D01*
X144882753Y-70883760D01*
X144854668Y-71061082D01*
X144849500Y-71093713D01*
X142320815Y-71093713D01*
X142331038Y-71029168D01*
X142350500Y-70906286D01*
X142350500Y-70693713D01*
X142348579Y-70681585D01*
X142317246Y-70483757D01*
X142251557Y-70281588D01*
X142155051Y-70092184D01*
X142155049Y-70092181D01*
X142155048Y-70092179D01*
X142030109Y-69920213D01*
X141879786Y-69769890D01*
X141707820Y-69644951D01*
X141518414Y-69548444D01*
X141518413Y-69548443D01*
X141518412Y-69548443D01*
X141316243Y-69482754D01*
X141316241Y-69482753D01*
X141316240Y-69482753D01*
X141154957Y-69457208D01*
X141106287Y-69449500D01*
X140893713Y-69449500D01*
X140845042Y-69457208D01*
X140683760Y-69482753D01*
X140481585Y-69548444D01*
X140292179Y-69644951D01*
X140120213Y-69769890D01*
X139969890Y-69920213D01*
X139844951Y-70092179D01*
X139748444Y-70281585D01*
X139682753Y-70483760D01*
X139649500Y-70693713D01*
X137550500Y-70693713D01*
X137517246Y-70483757D01*
X137451557Y-70281588D01*
X137355051Y-70092184D01*
X137355049Y-70092181D01*
X137355048Y-70092179D01*
X137230109Y-69920213D01*
X137079786Y-69769890D01*
X136907820Y-69644951D01*
X136718414Y-69548444D01*
X136718413Y-69548443D01*
X136718412Y-69548443D01*
X136516243Y-69482754D01*
X136516241Y-69482753D01*
X136516240Y-69482753D01*
X136354957Y-69457208D01*
X136306287Y-69449500D01*
X136093713Y-69449500D01*
X136045042Y-69457208D01*
X135883760Y-69482753D01*
X135681585Y-69548444D01*
X135492179Y-69644951D01*
X135320213Y-69769890D01*
X135169890Y-69920213D01*
X135044951Y-70092179D01*
X134948444Y-70281585D01*
X134882753Y-70483760D01*
X134849500Y-70693713D01*
X132150500Y-70693713D01*
X132117246Y-70483757D01*
X132051557Y-70281588D01*
X131955051Y-70092184D01*
X131955049Y-70092181D01*
X131955048Y-70092179D01*
X131830109Y-69920213D01*
X131679786Y-69769890D01*
X131507820Y-69644951D01*
X131318414Y-69548444D01*
X131318413Y-69548443D01*
X131318412Y-69548443D01*
X131116243Y-69482754D01*
X131116241Y-69482753D01*
X131116240Y-69482753D01*
X130954957Y-69457208D01*
X130906287Y-69449500D01*
X130693713Y-69449500D01*
X130645042Y-69457208D01*
X130483760Y-69482753D01*
X130281585Y-69548444D01*
X130092179Y-69644951D01*
X129920213Y-69769890D01*
X129769890Y-69920213D01*
X129644951Y-70092179D01*
X129548444Y-70281585D01*
X129482753Y-70483760D01*
X129449500Y-70693713D01*
X127350500Y-70693713D01*
X127317246Y-70483757D01*
X127251557Y-70281588D01*
X127155051Y-70092184D01*
X127155049Y-70092181D01*
X127155048Y-70092179D01*
X127030109Y-69920213D01*
X126879786Y-69769890D01*
X126707820Y-69644951D01*
X126518414Y-69548444D01*
X126518413Y-69548443D01*
X126518412Y-69548443D01*
X126316243Y-69482754D01*
X126316241Y-69482753D01*
X126316240Y-69482753D01*
X126154957Y-69457208D01*
X126106287Y-69449500D01*
X125893713Y-69449500D01*
X125845042Y-69457208D01*
X125683760Y-69482753D01*
X125481585Y-69548444D01*
X125292179Y-69644951D01*
X125120213Y-69769890D01*
X124969890Y-69920213D01*
X124844951Y-70092179D01*
X124748444Y-70281585D01*
X124682753Y-70483760D01*
X124649500Y-70693713D01*
X118950837Y-70693713D01*
X118950867Y-70693649D01*
X119127143Y-70355026D01*
X119132519Y-70345715D01*
X119337637Y-70023745D01*
X119343821Y-70014913D01*
X119576206Y-69712064D01*
X119583144Y-69703795D01*
X119841036Y-69422356D01*
X119848662Y-69414730D01*
X120130101Y-69156838D01*
X120138370Y-69149900D01*
X120441214Y-68917520D01*
X120450054Y-68911330D01*
X120772010Y-68706222D01*
X120781364Y-68700823D01*
X121119950Y-68524566D01*
X121129719Y-68520010D01*
X121482414Y-68373920D01*
X121492528Y-68370239D01*
X121856605Y-68255447D01*
X121867019Y-68252656D01*
X122239719Y-68170032D01*
X122250330Y-68168161D01*
X122628805Y-68118334D01*
X122639535Y-68117395D01*
X122907693Y-68105688D01*
X123023845Y-68100618D01*
X123029253Y-68100500D01*
X123092201Y-68100500D01*
X158661774Y-68100500D01*
X158677213Y-68105033D01*
G37*
%TD.AperFunction*%
%TD*%
%TA.AperFunction,Conductor*%
%TO.N,GND*%
G36*
X210109635Y-99819685D02*
G01*
X210118071Y-99825615D01*
X210291330Y-99958562D01*
X210399617Y-100021081D01*
X210558162Y-100112618D01*
X210558167Y-100112620D01*
X210558170Y-100112622D01*
X210842836Y-100230535D01*
X211140456Y-100310282D01*
X211445940Y-100350500D01*
X211445947Y-100350500D01*
X212354053Y-100350500D01*
X212354060Y-100350500D01*
X212659544Y-100310282D01*
X212957164Y-100230535D01*
X213241830Y-100112622D01*
X213508670Y-99958562D01*
X213681918Y-99825623D01*
X213747087Y-99800430D01*
X213757404Y-99800000D01*
X221001810Y-99800000D01*
X221068849Y-99819685D01*
X221114604Y-99872489D01*
X221125810Y-99924000D01*
X221125810Y-123197293D01*
X221125692Y-123202702D01*
X221108924Y-123586752D01*
X221107981Y-123597528D01*
X221058160Y-123975956D01*
X221056282Y-123986610D01*
X220973663Y-124359276D01*
X220970863Y-124369724D01*
X220856085Y-124733756D01*
X220852385Y-124743922D01*
X220706312Y-125096574D01*
X220701740Y-125106378D01*
X220525493Y-125444944D01*
X220520085Y-125454312D01*
X220314991Y-125776247D01*
X220308786Y-125785108D01*
X220076426Y-126087926D01*
X220069473Y-126096213D01*
X219811589Y-126377645D01*
X219803939Y-126385294D01*
X219522532Y-126643156D01*
X219514246Y-126650110D01*
X219211402Y-126882491D01*
X219202540Y-126888695D01*
X218880629Y-127093776D01*
X218871261Y-127099185D01*
X218532686Y-127275436D01*
X218522882Y-127280008D01*
X218170233Y-127426081D01*
X218160068Y-127429781D01*
X217796031Y-127544562D01*
X217785582Y-127547362D01*
X217412919Y-127629980D01*
X217402266Y-127631858D01*
X217023837Y-127681680D01*
X217013060Y-127682623D01*
X216629240Y-127699382D01*
X216623831Y-127699500D01*
X191859005Y-127699500D01*
X191791966Y-127679815D01*
X191746211Y-127627011D01*
X191736267Y-127557853D01*
X191753277Y-127510710D01*
X191755037Y-127507834D01*
X191755051Y-127507816D01*
X191851557Y-127318412D01*
X191917246Y-127116243D01*
X191950500Y-126906287D01*
X191950500Y-126693713D01*
X191917246Y-126483757D01*
X191869988Y-126338316D01*
X191867994Y-126268477D01*
X191869989Y-126261682D01*
X191917246Y-126116243D01*
X191950500Y-125906287D01*
X191950500Y-125693713D01*
X191917246Y-125483757D01*
X191869988Y-125338316D01*
X191867994Y-125268477D01*
X191869989Y-125261682D01*
X191917246Y-125116243D01*
X191950500Y-124906287D01*
X191950500Y-124693713D01*
X191917246Y-124483757D01*
X191869988Y-124338316D01*
X191867994Y-124268477D01*
X191869989Y-124261682D01*
X191917246Y-124116243D01*
X191950500Y-123906287D01*
X191950500Y-123693713D01*
X191917246Y-123483757D01*
X191851557Y-123281588D01*
X191755051Y-123092184D01*
X191755049Y-123092181D01*
X191755048Y-123092179D01*
X191630109Y-122920213D01*
X191479786Y-122769890D01*
X191307820Y-122644951D01*
X191118414Y-122548444D01*
X191118413Y-122548443D01*
X191118412Y-122548443D01*
X190916243Y-122482754D01*
X190916241Y-122482753D01*
X190916240Y-122482753D01*
X190754957Y-122457208D01*
X190706287Y-122449500D01*
X190493713Y-122449500D01*
X190445042Y-122457208D01*
X190283760Y-122482753D01*
X190081585Y-122548444D01*
X189892179Y-122644951D01*
X189720213Y-122769890D01*
X189569890Y-122920213D01*
X189444951Y-123092179D01*
X189348442Y-123281587D01*
X189302522Y-123422911D01*
X189299435Y-123427424D01*
X189298812Y-123432859D01*
X189279924Y-123455957D01*
X189263084Y-123480586D01*
X189257127Y-123483838D01*
X189254584Y-123486949D01*
X189222911Y-123502522D01*
X189138318Y-123530009D01*
X189068477Y-123532005D01*
X189061680Y-123530009D01*
X188977087Y-123502522D01*
X188919412Y-123463083D01*
X188897475Y-123422909D01*
X188851557Y-123281588D01*
X188755051Y-123092184D01*
X188755049Y-123092181D01*
X188755048Y-123092179D01*
X188630109Y-122920213D01*
X188479786Y-122769890D01*
X188307820Y-122644951D01*
X188118416Y-122548444D01*
X188028257Y-122519149D01*
X187977086Y-122502522D01*
X187919412Y-122463085D01*
X187897476Y-122422913D01*
X187851557Y-122281588D01*
X187755051Y-122092184D01*
X187755049Y-122092181D01*
X187755048Y-122092179D01*
X187630109Y-121920213D01*
X187479786Y-121769890D01*
X187307820Y-121644951D01*
X187118414Y-121548444D01*
X187118413Y-121548443D01*
X187118412Y-121548443D01*
X186916243Y-121482754D01*
X186916241Y-121482753D01*
X186916240Y-121482753D01*
X186754957Y-121457208D01*
X186706287Y-121449500D01*
X186493713Y-121449500D01*
X186445042Y-121457208D01*
X186283760Y-121482753D01*
X186081585Y-121548444D01*
X185892179Y-121644951D01*
X185720213Y-121769890D01*
X185569890Y-121920213D01*
X185444951Y-122092179D01*
X185348444Y-122281585D01*
X185282753Y-122483760D01*
X185249500Y-122693713D01*
X185249500Y-122906286D01*
X185282754Y-123116244D01*
X185330009Y-123261682D01*
X185332004Y-123331524D01*
X185330009Y-123338318D01*
X185282754Y-123483755D01*
X185249500Y-123693713D01*
X185249500Y-123906286D01*
X185282754Y-124116244D01*
X185330009Y-124261682D01*
X185332004Y-124331524D01*
X185330009Y-124338318D01*
X185282754Y-124483755D01*
X185249500Y-124693713D01*
X185249500Y-124906286D01*
X185282754Y-125116244D01*
X185330009Y-125261682D01*
X185332004Y-125331524D01*
X185330009Y-125338318D01*
X185282754Y-125483755D01*
X185249500Y-125693713D01*
X185249500Y-125906286D01*
X185282754Y-126116244D01*
X185330009Y-126261682D01*
X185332004Y-126331524D01*
X185330009Y-126338318D01*
X185282754Y-126483755D01*
X185249500Y-126693713D01*
X185249500Y-126906286D01*
X185279656Y-127096687D01*
X185282754Y-127116243D01*
X185348443Y-127318412D01*
X185444949Y-127507816D01*
X185444955Y-127507825D01*
X185446723Y-127510710D01*
X185447061Y-127511962D01*
X185447161Y-127512157D01*
X185447120Y-127512177D01*
X185464967Y-127578156D01*
X185443850Y-127644759D01*
X185390079Y-127689372D01*
X185340995Y-127699500D01*
X154859005Y-127699500D01*
X154791966Y-127679815D01*
X154746211Y-127627011D01*
X154736267Y-127557853D01*
X154753277Y-127510710D01*
X154755037Y-127507834D01*
X154755051Y-127507816D01*
X154851557Y-127318412D01*
X154917246Y-127116243D01*
X154950500Y-126906287D01*
X154950500Y-126693713D01*
X154917246Y-126483757D01*
X154869988Y-126338316D01*
X154867994Y-126268477D01*
X154869989Y-126261682D01*
X154917246Y-126116243D01*
X154950500Y-125906287D01*
X154950500Y-125693713D01*
X154917246Y-125483757D01*
X154869988Y-125338316D01*
X154867994Y-125268477D01*
X154869989Y-125261682D01*
X154917246Y-125116243D01*
X154950500Y-124906287D01*
X154950500Y-124693713D01*
X154917246Y-124483757D01*
X154869988Y-124338316D01*
X154867994Y-124268477D01*
X154869989Y-124261682D01*
X154917246Y-124116243D01*
X154950500Y-123906287D01*
X154950500Y-123693713D01*
X154917246Y-123483757D01*
X154851557Y-123281588D01*
X154755051Y-123092184D01*
X154755049Y-123092181D01*
X154755048Y-123092179D01*
X154630109Y-122920213D01*
X154479786Y-122769890D01*
X154307820Y-122644951D01*
X154118414Y-122548444D01*
X154118413Y-122548443D01*
X154118412Y-122548443D01*
X153916243Y-122482754D01*
X153916241Y-122482753D01*
X153916240Y-122482753D01*
X153754957Y-122457208D01*
X153706287Y-122449500D01*
X153493713Y-122449500D01*
X153445042Y-122457208D01*
X153283760Y-122482753D01*
X153081585Y-122548444D01*
X152892179Y-122644951D01*
X152720213Y-122769890D01*
X152569890Y-122920213D01*
X152444951Y-123092179D01*
X152348442Y-123281587D01*
X152302522Y-123422911D01*
X152299435Y-123427424D01*
X152298812Y-123432859D01*
X152279924Y-123455957D01*
X152263084Y-123480586D01*
X152257127Y-123483838D01*
X152254584Y-123486949D01*
X152222911Y-123502522D01*
X152138318Y-123530009D01*
X152068477Y-123532005D01*
X152061680Y-123530009D01*
X151977087Y-123502522D01*
X151919412Y-123463083D01*
X151897475Y-123422909D01*
X151851557Y-123281588D01*
X151755051Y-123092184D01*
X151755049Y-123092181D01*
X151755048Y-123092179D01*
X151630109Y-122920213D01*
X151479786Y-122769890D01*
X151307820Y-122644951D01*
X151118416Y-122548444D01*
X151028257Y-122519149D01*
X150977086Y-122502522D01*
X150919412Y-122463085D01*
X150897476Y-122422913D01*
X150851557Y-122281588D01*
X150755051Y-122092184D01*
X150755049Y-122092181D01*
X150755048Y-122092179D01*
X150630109Y-121920213D01*
X150479786Y-121769890D01*
X150307820Y-121644951D01*
X150118414Y-121548444D01*
X150118413Y-121548443D01*
X150118412Y-121548443D01*
X149916243Y-121482754D01*
X149916241Y-121482753D01*
X149916240Y-121482753D01*
X149754957Y-121457208D01*
X149706287Y-121449500D01*
X149493713Y-121449500D01*
X149445042Y-121457208D01*
X149283760Y-121482753D01*
X149081585Y-121548444D01*
X148892179Y-121644951D01*
X148720213Y-121769890D01*
X148569890Y-121920213D01*
X148444951Y-122092179D01*
X148348444Y-122281585D01*
X148282753Y-122483760D01*
X148249500Y-122693713D01*
X148249500Y-122906286D01*
X148282754Y-123116244D01*
X148330009Y-123261682D01*
X148332004Y-123331524D01*
X148330009Y-123338318D01*
X148282754Y-123483755D01*
X148249500Y-123693713D01*
X148249500Y-123906286D01*
X148282754Y-124116244D01*
X148330009Y-124261682D01*
X148332004Y-124331524D01*
X148330009Y-124338318D01*
X148282754Y-124483755D01*
X148249500Y-124693713D01*
X148249500Y-124906286D01*
X148282754Y-125116244D01*
X148330009Y-125261682D01*
X148332004Y-125331524D01*
X148330009Y-125338318D01*
X148282754Y-125483755D01*
X148249500Y-125693713D01*
X148249500Y-125906286D01*
X148282754Y-126116244D01*
X148330009Y-126261682D01*
X148332004Y-126331524D01*
X148330009Y-126338318D01*
X148282754Y-126483755D01*
X148249500Y-126693713D01*
X148249500Y-126906286D01*
X148279656Y-127096687D01*
X148282754Y-127116243D01*
X148348443Y-127318412D01*
X148444949Y-127507816D01*
X148444955Y-127507825D01*
X148446723Y-127510710D01*
X148447061Y-127511962D01*
X148447161Y-127512157D01*
X148447120Y-127512177D01*
X148464967Y-127578156D01*
X148443850Y-127644759D01*
X148390079Y-127689372D01*
X148340995Y-127699500D01*
X142724000Y-127699500D01*
X142656961Y-127679815D01*
X142611206Y-127627011D01*
X142600000Y-127575500D01*
X142600000Y-118191174D01*
X160563602Y-118191174D01*
X160563602Y-118535105D01*
X160597312Y-118877389D01*
X160664410Y-119214712D01*
X160764252Y-119543846D01*
X160895872Y-119861604D01*
X160895874Y-119861609D01*
X161057995Y-120164915D01*
X161058006Y-120164933D01*
X161249077Y-120450891D01*
X161249087Y-120450905D01*
X161467278Y-120716772D01*
X161710469Y-120959963D01*
X161710474Y-120959967D01*
X161710475Y-120959968D01*
X161976342Y-121178159D01*
X162262315Y-121369240D01*
X162262324Y-121369245D01*
X162262326Y-121369246D01*
X162565632Y-121531367D01*
X162565634Y-121531367D01*
X162565640Y-121531371D01*
X162883397Y-121662990D01*
X163212524Y-121762830D01*
X163549852Y-121829929D01*
X163892133Y-121863640D01*
X163892136Y-121863640D01*
X164236068Y-121863640D01*
X164236071Y-121863640D01*
X164578352Y-121829929D01*
X164915680Y-121762830D01*
X165244807Y-121662990D01*
X165562564Y-121531371D01*
X165865889Y-121369240D01*
X166151862Y-121178159D01*
X166417729Y-120959968D01*
X166660930Y-120716767D01*
X166879121Y-120450900D01*
X167070202Y-120164927D01*
X167137971Y-120038140D01*
X173725137Y-120038140D01*
X173725137Y-120431141D01*
X173759388Y-120822636D01*
X173759388Y-120822640D01*
X173822075Y-121178154D01*
X173827630Y-121209656D01*
X173929344Y-121589257D01*
X173929345Y-121589259D01*
X173929345Y-121589260D01*
X174063761Y-121958562D01*
X174229832Y-122314703D01*
X174229844Y-122314727D01*
X174364780Y-122548443D01*
X174420499Y-122644951D01*
X174426332Y-122655053D01*
X174426341Y-122655068D01*
X174651752Y-122976988D01*
X174783592Y-123134108D01*
X174904359Y-123278032D01*
X175182246Y-123555919D01*
X175225434Y-123592158D01*
X175483289Y-123808525D01*
X175483295Y-123808529D01*
X175483296Y-123808530D01*
X175805216Y-124033941D01*
X176145557Y-124230437D01*
X176145571Y-124230443D01*
X176145574Y-124230445D01*
X176501715Y-124396516D01*
X176501720Y-124396517D01*
X176501729Y-124396522D01*
X176871021Y-124530934D01*
X177250622Y-124632648D01*
X177637644Y-124700890D01*
X178029139Y-124735140D01*
X178029140Y-124735141D01*
X178029141Y-124735141D01*
X178422134Y-124735141D01*
X178422134Y-124735140D01*
X178813630Y-124700890D01*
X179200652Y-124632648D01*
X179580253Y-124530934D01*
X179949545Y-124396522D01*
X180305717Y-124230437D01*
X180646058Y-124033941D01*
X180967978Y-123808530D01*
X181269028Y-123555919D01*
X181546915Y-123278032D01*
X181799526Y-122976982D01*
X182024937Y-122655062D01*
X182221433Y-122314721D01*
X182387518Y-121958549D01*
X182521930Y-121589257D01*
X182623644Y-121209656D01*
X182691886Y-120822634D01*
X182726137Y-120431137D01*
X182726137Y-120038145D01*
X182691886Y-119646648D01*
X182623644Y-119259626D01*
X182521930Y-118880025D01*
X182387518Y-118510733D01*
X182387513Y-118510724D01*
X182387512Y-118510719D01*
X182261522Y-118240531D01*
X182238506Y-118191174D01*
X196281551Y-118191174D01*
X196281551Y-118535105D01*
X196315261Y-118877389D01*
X196382359Y-119214712D01*
X196482201Y-119543846D01*
X196613821Y-119861604D01*
X196613823Y-119861609D01*
X196775944Y-120164915D01*
X196775955Y-120164933D01*
X196967026Y-120450891D01*
X196967036Y-120450905D01*
X197185227Y-120716772D01*
X197428418Y-120959963D01*
X197428423Y-120959967D01*
X197428424Y-120959968D01*
X197694291Y-121178159D01*
X197980264Y-121369240D01*
X197980273Y-121369245D01*
X197980275Y-121369246D01*
X198283581Y-121531367D01*
X198283583Y-121531367D01*
X198283589Y-121531371D01*
X198601346Y-121662990D01*
X198930473Y-121762830D01*
X199267801Y-121829929D01*
X199610082Y-121863640D01*
X199610085Y-121863640D01*
X199954017Y-121863640D01*
X199954020Y-121863640D01*
X200296301Y-121829929D01*
X200633629Y-121762830D01*
X200962756Y-121662990D01*
X201280513Y-121531371D01*
X201583838Y-121369240D01*
X201869811Y-121178159D01*
X202135678Y-120959968D01*
X202378879Y-120716767D01*
X202597070Y-120450900D01*
X202788151Y-120164927D01*
X202855920Y-120038140D01*
X209443086Y-120038140D01*
X209443086Y-120431141D01*
X209477337Y-120822636D01*
X209477337Y-120822640D01*
X209540024Y-121178154D01*
X209545579Y-121209656D01*
X209647293Y-121589257D01*
X209647294Y-121589259D01*
X209647294Y-121589260D01*
X209781710Y-121958562D01*
X209947781Y-122314703D01*
X209947793Y-122314727D01*
X210082729Y-122548443D01*
X210138448Y-122644951D01*
X210144281Y-122655053D01*
X210144290Y-122655068D01*
X210369701Y-122976988D01*
X210501541Y-123134108D01*
X210622308Y-123278032D01*
X210900195Y-123555919D01*
X210943383Y-123592158D01*
X211201238Y-123808525D01*
X211201244Y-123808529D01*
X211201245Y-123808530D01*
X211523165Y-124033941D01*
X211863506Y-124230437D01*
X211863520Y-124230443D01*
X211863523Y-124230445D01*
X212219664Y-124396516D01*
X212219669Y-124396517D01*
X212219678Y-124396522D01*
X212588970Y-124530934D01*
X212968571Y-124632648D01*
X213355593Y-124700890D01*
X213747088Y-124735140D01*
X213747089Y-124735141D01*
X213747090Y-124735141D01*
X214140083Y-124735141D01*
X214140083Y-124735140D01*
X214531579Y-124700890D01*
X214918601Y-124632648D01*
X215298202Y-124530934D01*
X215667494Y-124396522D01*
X216023666Y-124230437D01*
X216364007Y-124033941D01*
X216685927Y-123808530D01*
X216986977Y-123555919D01*
X217264864Y-123278032D01*
X217517475Y-122976982D01*
X217742886Y-122655062D01*
X217939382Y-122314721D01*
X218105467Y-121958549D01*
X218239879Y-121589257D01*
X218341593Y-121209656D01*
X218409835Y-120822634D01*
X218444086Y-120431137D01*
X218444086Y-120038145D01*
X218409835Y-119646648D01*
X218341593Y-119259626D01*
X218239879Y-118880025D01*
X218105467Y-118510733D01*
X218105462Y-118510724D01*
X218105461Y-118510719D01*
X217939390Y-118154578D01*
X217939378Y-118154554D01*
X217927041Y-118133187D01*
X217742886Y-117814220D01*
X217517475Y-117492300D01*
X217517474Y-117492299D01*
X217517470Y-117492293D01*
X217264861Y-117191247D01*
X216986979Y-116913365D01*
X216685933Y-116660756D01*
X216364013Y-116435345D01*
X216364010Y-116435343D01*
X216364007Y-116435341D01*
X216262891Y-116376961D01*
X216023672Y-116238848D01*
X216023648Y-116238836D01*
X215667507Y-116072765D01*
X215667496Y-116072761D01*
X215667494Y-116072760D01*
X215298202Y-115938348D01*
X215057546Y-115873864D01*
X214918602Y-115836634D01*
X214918591Y-115836632D01*
X214531583Y-115768392D01*
X214140086Y-115734141D01*
X214140082Y-115734141D01*
X213747090Y-115734141D01*
X213747085Y-115734141D01*
X213355590Y-115768392D01*
X213355586Y-115768392D01*
X212968580Y-115836632D01*
X212968569Y-115836634D01*
X212765141Y-115891143D01*
X212588970Y-115938348D01*
X212588967Y-115938349D01*
X212588966Y-115938349D01*
X212219664Y-116072765D01*
X211863523Y-116238836D01*
X211863499Y-116238848D01*
X211523173Y-116435336D01*
X211523158Y-116435345D01*
X211201238Y-116660756D01*
X210900192Y-116913365D01*
X210622310Y-117191247D01*
X210369701Y-117492293D01*
X210144290Y-117814213D01*
X210144281Y-117814228D01*
X209947793Y-118154554D01*
X209947781Y-118154578D01*
X209781710Y-118510719D01*
X209647294Y-118880021D01*
X209647294Y-118880023D01*
X209545579Y-119259624D01*
X209545577Y-119259635D01*
X209477337Y-119646641D01*
X209477337Y-119646645D01*
X209443086Y-120038140D01*
X202855920Y-120038140D01*
X202950282Y-119861602D01*
X203081901Y-119543845D01*
X203181741Y-119214718D01*
X203248840Y-118877390D01*
X203282551Y-118535109D01*
X203282551Y-118191171D01*
X203248840Y-117848890D01*
X203181741Y-117511562D01*
X203081901Y-117182435D01*
X202950282Y-116864678D01*
X202788151Y-116561353D01*
X202597070Y-116275380D01*
X202378879Y-116009513D01*
X202378878Y-116009512D01*
X202378874Y-116009507D01*
X202135683Y-115766316D01*
X201869816Y-115548125D01*
X201869815Y-115548124D01*
X201869811Y-115548121D01*
X201583838Y-115357040D01*
X201583833Y-115357037D01*
X201583826Y-115357033D01*
X201280520Y-115194912D01*
X201280515Y-115194910D01*
X200962757Y-115063290D01*
X200633623Y-114963448D01*
X200296299Y-114896350D01*
X200296300Y-114896350D01*
X200038507Y-114870961D01*
X199954020Y-114862640D01*
X199610082Y-114862640D01*
X199532017Y-114870328D01*
X199267801Y-114896350D01*
X198930478Y-114963448D01*
X198601344Y-115063290D01*
X198283586Y-115194910D01*
X198283581Y-115194912D01*
X197980275Y-115357033D01*
X197980257Y-115357044D01*
X197694299Y-115548115D01*
X197694285Y-115548125D01*
X197428418Y-115766316D01*
X197185227Y-116009507D01*
X196967036Y-116275374D01*
X196967026Y-116275388D01*
X196775955Y-116561346D01*
X196775944Y-116561364D01*
X196613823Y-116864670D01*
X196613821Y-116864675D01*
X196482201Y-117182433D01*
X196382359Y-117511567D01*
X196315261Y-117848890D01*
X196289239Y-118113106D01*
X196285158Y-118154554D01*
X196281551Y-118191174D01*
X182238506Y-118191174D01*
X182221441Y-118154578D01*
X182221429Y-118154554D01*
X182209092Y-118133187D01*
X182024937Y-117814220D01*
X181799526Y-117492300D01*
X181799525Y-117492299D01*
X181799521Y-117492293D01*
X181546912Y-117191247D01*
X181269030Y-116913365D01*
X180967984Y-116660756D01*
X180646064Y-116435345D01*
X180646061Y-116435343D01*
X180646058Y-116435341D01*
X180544942Y-116376961D01*
X180305723Y-116238848D01*
X180305699Y-116238836D01*
X179949558Y-116072765D01*
X179949547Y-116072761D01*
X179949545Y-116072760D01*
X179580253Y-115938348D01*
X179339597Y-115873864D01*
X179200653Y-115836634D01*
X179200642Y-115836632D01*
X178813634Y-115768392D01*
X178422137Y-115734141D01*
X178422133Y-115734141D01*
X178029141Y-115734141D01*
X178029136Y-115734141D01*
X177637641Y-115768392D01*
X177637637Y-115768392D01*
X177250631Y-115836632D01*
X177250620Y-115836634D01*
X177047192Y-115891143D01*
X176871021Y-115938348D01*
X176871018Y-115938349D01*
X176871017Y-115938349D01*
X176501715Y-116072765D01*
X176145574Y-116238836D01*
X176145550Y-116238848D01*
X175805224Y-116435336D01*
X175805209Y-116435345D01*
X175483289Y-116660756D01*
X175182243Y-116913365D01*
X174904361Y-117191247D01*
X174651752Y-117492293D01*
X174426341Y-117814213D01*
X174426332Y-117814228D01*
X174229844Y-118154554D01*
X174229832Y-118154578D01*
X174063761Y-118510719D01*
X173929345Y-118880021D01*
X173929345Y-118880023D01*
X173827630Y-119259624D01*
X173827628Y-119259635D01*
X173759388Y-119646641D01*
X173759388Y-119646645D01*
X173725137Y-120038140D01*
X167137971Y-120038140D01*
X167232333Y-119861602D01*
X167363952Y-119543845D01*
X167463792Y-119214718D01*
X167530891Y-118877390D01*
X167564602Y-118535109D01*
X167564602Y-118191171D01*
X167530891Y-117848890D01*
X167463792Y-117511562D01*
X167363952Y-117182435D01*
X167232333Y-116864678D01*
X167070202Y-116561353D01*
X166879121Y-116275380D01*
X166660930Y-116009513D01*
X166660929Y-116009512D01*
X166660925Y-116009507D01*
X166417734Y-115766316D01*
X166151867Y-115548125D01*
X166151866Y-115548124D01*
X166151862Y-115548121D01*
X165865889Y-115357040D01*
X165865884Y-115357037D01*
X165865877Y-115357033D01*
X165562571Y-115194912D01*
X165562566Y-115194910D01*
X165244808Y-115063290D01*
X164915674Y-114963448D01*
X164578350Y-114896350D01*
X164578351Y-114896350D01*
X164320558Y-114870961D01*
X164236071Y-114862640D01*
X163892133Y-114862640D01*
X163814068Y-114870328D01*
X163549852Y-114896350D01*
X163212529Y-114963448D01*
X162883395Y-115063290D01*
X162565637Y-115194910D01*
X162565632Y-115194912D01*
X162262326Y-115357033D01*
X162262308Y-115357044D01*
X161976350Y-115548115D01*
X161976336Y-115548125D01*
X161710469Y-115766316D01*
X161467278Y-116009507D01*
X161249087Y-116275374D01*
X161249077Y-116275388D01*
X161058006Y-116561346D01*
X161057995Y-116561364D01*
X160895874Y-116864670D01*
X160895872Y-116864675D01*
X160764252Y-117182433D01*
X160664410Y-117511567D01*
X160597312Y-117848890D01*
X160571290Y-118113106D01*
X160567209Y-118154554D01*
X160563602Y-118191174D01*
X142600000Y-118191174D01*
X142600000Y-104988140D01*
X147657773Y-104988140D01*
X147657773Y-105381141D01*
X147692024Y-105772636D01*
X147692024Y-105772640D01*
X147760264Y-106159646D01*
X147760266Y-106159656D01*
X147861980Y-106539257D01*
X147861981Y-106539259D01*
X147861981Y-106539260D01*
X147996397Y-106908562D01*
X148162468Y-107264703D01*
X148162480Y-107264727D01*
X148358968Y-107605053D01*
X148358977Y-107605068D01*
X148584388Y-107926988D01*
X148691438Y-108054564D01*
X148836995Y-108228032D01*
X149114882Y-108505919D01*
X149222011Y-108595811D01*
X149415925Y-108758525D01*
X149415931Y-108758529D01*
X149415932Y-108758530D01*
X149737852Y-108983941D01*
X150078193Y-109180437D01*
X150078207Y-109180443D01*
X150078210Y-109180445D01*
X150434351Y-109346516D01*
X150434356Y-109346517D01*
X150434365Y-109346522D01*
X150803657Y-109480934D01*
X151183258Y-109582648D01*
X151570280Y-109650890D01*
X151961775Y-109685140D01*
X151961776Y-109685141D01*
X151961777Y-109685141D01*
X152354770Y-109685141D01*
X152354770Y-109685140D01*
X152746266Y-109650890D01*
X153133288Y-109582648D01*
X153512889Y-109480934D01*
X153882181Y-109346522D01*
X154238353Y-109180437D01*
X154578694Y-108983941D01*
X154900614Y-108758530D01*
X154929638Y-108734176D01*
X166023602Y-108734176D01*
X166023602Y-109078107D01*
X166057312Y-109420391D01*
X166124410Y-109757714D01*
X166224252Y-110086848D01*
X166355872Y-110404606D01*
X166355874Y-110404611D01*
X166517995Y-110707917D01*
X166518006Y-110707935D01*
X166709077Y-110993893D01*
X166709087Y-110993907D01*
X166927278Y-111259774D01*
X167170469Y-111502965D01*
X167170474Y-111502969D01*
X167170475Y-111502970D01*
X167436342Y-111721161D01*
X167722315Y-111912242D01*
X167722324Y-111912247D01*
X167722326Y-111912248D01*
X168025632Y-112074369D01*
X168025634Y-112074369D01*
X168025640Y-112074373D01*
X168343397Y-112205992D01*
X168672524Y-112305832D01*
X169009852Y-112372931D01*
X169352133Y-112406642D01*
X169352136Y-112406642D01*
X169696068Y-112406642D01*
X169696071Y-112406642D01*
X170038352Y-112372931D01*
X170375680Y-112305832D01*
X170704807Y-112205992D01*
X171022564Y-112074373D01*
X171325889Y-111912242D01*
X171611862Y-111721161D01*
X171877729Y-111502970D01*
X172120930Y-111259769D01*
X172339121Y-110993902D01*
X172530202Y-110707929D01*
X172692333Y-110404604D01*
X172823952Y-110086847D01*
X172923792Y-109757720D01*
X172990891Y-109420392D01*
X173024602Y-109078111D01*
X173024602Y-108734173D01*
X172990891Y-108391892D01*
X172923792Y-108054564D01*
X172823952Y-107725437D01*
X172692333Y-107407680D01*
X172530202Y-107104355D01*
X172339121Y-106818382D01*
X172120930Y-106552515D01*
X172120929Y-106552514D01*
X172120925Y-106552509D01*
X171877734Y-106309318D01*
X171611867Y-106091127D01*
X171611866Y-106091126D01*
X171611862Y-106091123D01*
X171325889Y-105900042D01*
X171325884Y-105900039D01*
X171325877Y-105900035D01*
X171022571Y-105737914D01*
X171022566Y-105737912D01*
X170704808Y-105606292D01*
X170375674Y-105506450D01*
X170038350Y-105439352D01*
X170038351Y-105439352D01*
X169780558Y-105413963D01*
X169696071Y-105405642D01*
X169352133Y-105405642D01*
X169274068Y-105413330D01*
X169009852Y-105439352D01*
X168672529Y-105506450D01*
X168343395Y-105606292D01*
X168025637Y-105737912D01*
X168025632Y-105737914D01*
X167722326Y-105900035D01*
X167722308Y-105900046D01*
X167436350Y-106091117D01*
X167436336Y-106091127D01*
X167170469Y-106309318D01*
X166927278Y-106552509D01*
X166709087Y-106818376D01*
X166709077Y-106818390D01*
X166518006Y-107104348D01*
X166517995Y-107104366D01*
X166355874Y-107407672D01*
X166355872Y-107407677D01*
X166224252Y-107725435D01*
X166124410Y-108054569D01*
X166057312Y-108391892D01*
X166023602Y-108734176D01*
X154929638Y-108734176D01*
X155201664Y-108505919D01*
X155479551Y-108228032D01*
X155732162Y-107926982D01*
X155957573Y-107605062D01*
X156154069Y-107264721D01*
X156320154Y-106908549D01*
X156454566Y-106539257D01*
X156556280Y-106159656D01*
X156624522Y-105772634D01*
X156658773Y-105381137D01*
X156658773Y-104988145D01*
X156658773Y-104988140D01*
X183375722Y-104988140D01*
X183375722Y-105381141D01*
X183409973Y-105772636D01*
X183409973Y-105772640D01*
X183478213Y-106159646D01*
X183478215Y-106159656D01*
X183579929Y-106539257D01*
X183579930Y-106539259D01*
X183579930Y-106539260D01*
X183714346Y-106908562D01*
X183880417Y-107264703D01*
X183880429Y-107264727D01*
X184076917Y-107605053D01*
X184076926Y-107605068D01*
X184302337Y-107926988D01*
X184409387Y-108054564D01*
X184554944Y-108228032D01*
X184832831Y-108505919D01*
X184939960Y-108595811D01*
X185133874Y-108758525D01*
X185133880Y-108758529D01*
X185133881Y-108758530D01*
X185455801Y-108983941D01*
X185796142Y-109180437D01*
X185796156Y-109180443D01*
X185796159Y-109180445D01*
X186152300Y-109346516D01*
X186152305Y-109346517D01*
X186152314Y-109346522D01*
X186521606Y-109480934D01*
X186901207Y-109582648D01*
X187288229Y-109650890D01*
X187679724Y-109685140D01*
X187679725Y-109685141D01*
X187679726Y-109685141D01*
X188072719Y-109685141D01*
X188072719Y-109685140D01*
X188464215Y-109650890D01*
X188851237Y-109582648D01*
X189230838Y-109480934D01*
X189600130Y-109346522D01*
X189956302Y-109180437D01*
X190296643Y-108983941D01*
X190618563Y-108758530D01*
X190647587Y-108734176D01*
X201741551Y-108734176D01*
X201741551Y-109078107D01*
X201775261Y-109420391D01*
X201842359Y-109757714D01*
X201942201Y-110086848D01*
X202073821Y-110404606D01*
X202073823Y-110404611D01*
X202235944Y-110707917D01*
X202235955Y-110707935D01*
X202427026Y-110993893D01*
X202427036Y-110993907D01*
X202645227Y-111259774D01*
X202888418Y-111502965D01*
X202888423Y-111502969D01*
X202888424Y-111502970D01*
X203154291Y-111721161D01*
X203440264Y-111912242D01*
X203440273Y-111912247D01*
X203440275Y-111912248D01*
X203743581Y-112074369D01*
X203743583Y-112074369D01*
X203743589Y-112074373D01*
X204061346Y-112205992D01*
X204390473Y-112305832D01*
X204727801Y-112372931D01*
X205070082Y-112406642D01*
X205070085Y-112406642D01*
X205414017Y-112406642D01*
X205414020Y-112406642D01*
X205756301Y-112372931D01*
X206093629Y-112305832D01*
X206422756Y-112205992D01*
X206740513Y-112074373D01*
X207043838Y-111912242D01*
X207329811Y-111721161D01*
X207595678Y-111502970D01*
X207838879Y-111259769D01*
X208057070Y-110993902D01*
X208248151Y-110707929D01*
X208410282Y-110404604D01*
X208541901Y-110086847D01*
X208641741Y-109757720D01*
X208708840Y-109420392D01*
X208742551Y-109078111D01*
X208742551Y-108734173D01*
X208708840Y-108391892D01*
X208641741Y-108054564D01*
X208541901Y-107725437D01*
X208410282Y-107407680D01*
X208248151Y-107104355D01*
X208057070Y-106818382D01*
X207838879Y-106552515D01*
X207838878Y-106552514D01*
X207838874Y-106552509D01*
X207595683Y-106309318D01*
X207329816Y-106091127D01*
X207329815Y-106091126D01*
X207329811Y-106091123D01*
X207043838Y-105900042D01*
X207043833Y-105900039D01*
X207043826Y-105900035D01*
X206740520Y-105737914D01*
X206740515Y-105737912D01*
X206422757Y-105606292D01*
X206093623Y-105506450D01*
X205756299Y-105439352D01*
X205756300Y-105439352D01*
X205498507Y-105413963D01*
X205414020Y-105405642D01*
X205070082Y-105405642D01*
X204992017Y-105413330D01*
X204727801Y-105439352D01*
X204390478Y-105506450D01*
X204061344Y-105606292D01*
X203743586Y-105737912D01*
X203743581Y-105737914D01*
X203440275Y-105900035D01*
X203440257Y-105900046D01*
X203154299Y-106091117D01*
X203154285Y-106091127D01*
X202888418Y-106309318D01*
X202645227Y-106552509D01*
X202427036Y-106818376D01*
X202427026Y-106818390D01*
X202235955Y-107104348D01*
X202235944Y-107104366D01*
X202073823Y-107407672D01*
X202073821Y-107407677D01*
X201942201Y-107725435D01*
X201842359Y-108054569D01*
X201775261Y-108391892D01*
X201741551Y-108734176D01*
X190647587Y-108734176D01*
X190919613Y-108505919D01*
X191197500Y-108228032D01*
X191450111Y-107926982D01*
X191675522Y-107605062D01*
X191872018Y-107264721D01*
X192038103Y-106908549D01*
X192172515Y-106539257D01*
X192274229Y-106159656D01*
X192342471Y-105772634D01*
X192376722Y-105381137D01*
X192376722Y-104988145D01*
X192342471Y-104596648D01*
X192274229Y-104209626D01*
X192172515Y-103830025D01*
X192038103Y-103460733D01*
X192038098Y-103460724D01*
X192038097Y-103460719D01*
X191872026Y-103104578D01*
X191872014Y-103104554D01*
X191859677Y-103083187D01*
X191675522Y-102764220D01*
X191450111Y-102442300D01*
X191450110Y-102442299D01*
X191450106Y-102442293D01*
X191197497Y-102141247D01*
X190919615Y-101863365D01*
X190618569Y-101610756D01*
X190296649Y-101385345D01*
X190296646Y-101385343D01*
X190296643Y-101385341D01*
X190195527Y-101326961D01*
X189956308Y-101188848D01*
X189956284Y-101188836D01*
X189600143Y-101022765D01*
X189600132Y-101022761D01*
X189600130Y-101022760D01*
X189230838Y-100888348D01*
X188990182Y-100823864D01*
X188851238Y-100786634D01*
X188851227Y-100786632D01*
X188464219Y-100718392D01*
X188072722Y-100684141D01*
X188072718Y-100684141D01*
X187679726Y-100684141D01*
X187679721Y-100684141D01*
X187288226Y-100718392D01*
X187288222Y-100718392D01*
X186901216Y-100786632D01*
X186901205Y-100786634D01*
X186697777Y-100841143D01*
X186521606Y-100888348D01*
X186521603Y-100888349D01*
X186521602Y-100888349D01*
X186152300Y-101022765D01*
X185796159Y-101188836D01*
X185796135Y-101188848D01*
X185455809Y-101385336D01*
X185455794Y-101385345D01*
X185133874Y-101610756D01*
X184832828Y-101863365D01*
X184554946Y-102141247D01*
X184302337Y-102442293D01*
X184076926Y-102764213D01*
X184076917Y-102764228D01*
X183880429Y-103104554D01*
X183880417Y-103104578D01*
X183714346Y-103460719D01*
X183579930Y-103830021D01*
X183579930Y-103830023D01*
X183478215Y-104209624D01*
X183478213Y-104209635D01*
X183409973Y-104596641D01*
X183409973Y-104596645D01*
X183375722Y-104988140D01*
X156658773Y-104988140D01*
X156624522Y-104596648D01*
X156556280Y-104209626D01*
X156454566Y-103830025D01*
X156320154Y-103460733D01*
X156320149Y-103460724D01*
X156320148Y-103460719D01*
X156154077Y-103104578D01*
X156154065Y-103104554D01*
X156141728Y-103083187D01*
X155957573Y-102764220D01*
X155732162Y-102442300D01*
X155732161Y-102442299D01*
X155732157Y-102442293D01*
X155479548Y-102141247D01*
X155201666Y-101863365D01*
X154900620Y-101610756D01*
X154578700Y-101385345D01*
X154578697Y-101385343D01*
X154578694Y-101385341D01*
X154477578Y-101326961D01*
X154238359Y-101188848D01*
X154238335Y-101188836D01*
X153882194Y-101022765D01*
X153882183Y-101022761D01*
X153882181Y-101022760D01*
X153512889Y-100888348D01*
X153272233Y-100823864D01*
X153133289Y-100786634D01*
X153133278Y-100786632D01*
X152746270Y-100718392D01*
X152354773Y-100684141D01*
X152354769Y-100684141D01*
X151961777Y-100684141D01*
X151961772Y-100684141D01*
X151570277Y-100718392D01*
X151570273Y-100718392D01*
X151183267Y-100786632D01*
X151183256Y-100786634D01*
X150979828Y-100841143D01*
X150803657Y-100888348D01*
X150803654Y-100888349D01*
X150803653Y-100888349D01*
X150434351Y-101022765D01*
X150078210Y-101188836D01*
X150078186Y-101188848D01*
X149737860Y-101385336D01*
X149737845Y-101385345D01*
X149415925Y-101610756D01*
X149114879Y-101863365D01*
X148836997Y-102141247D01*
X148584388Y-102442293D01*
X148358977Y-102764213D01*
X148358968Y-102764228D01*
X148162480Y-103104554D01*
X148162468Y-103104578D01*
X147996397Y-103460719D01*
X147861981Y-103830021D01*
X147861981Y-103830023D01*
X147760266Y-104209624D01*
X147760264Y-104209635D01*
X147692024Y-104596641D01*
X147692024Y-104596645D01*
X147657773Y-104988140D01*
X142600000Y-104988140D01*
X142600000Y-99924000D01*
X142619685Y-99856961D01*
X142672489Y-99811206D01*
X142724000Y-99800000D01*
X210042596Y-99800000D01*
X210109635Y-99819685D01*
G37*
%TD.AperFunction*%
%TD*%
M02*
