%TF.GenerationSoftware,KiCad,Pcbnew,9.0.4*%
%TF.CreationDate,2026-03-16T14:24:38-04:00*%
%TF.ProjectId,Power Amp Board,506f7765-7220-4416-9d70-20426f617264,rev?*%
%TF.SameCoordinates,Original*%
%TF.FileFunction,Legend,Bot*%
%TF.FilePolarity,Positive*%
%FSLAX46Y46*%
G04 Gerber Fmt 4.6, Leading zero omitted, Abs format (unit mm)*
G04 Created by KiCad (PCBNEW 9.0.4) date 2026-03-16 14:24:38*
%MOMM*%
%LPD*%
G01*
G04 APERTURE LIST*
%ADD10C,0.160000*%
%ADD11C,0.100000*%
G04 APERTURE END LIST*
D10*
X166809383Y-80986610D02*
X166720524Y-80927941D01*
X166720524Y-80927941D02*
X166590427Y-80893082D01*
X166590427Y-80893082D02*
X166395280Y-80840792D01*
X166395280Y-80840792D02*
X166306422Y-80782123D01*
X166306422Y-80782123D02*
X166258803Y-80699645D01*
X166488809Y-80621836D02*
X166399950Y-80563167D01*
X166399950Y-80563167D02*
X166269853Y-80528308D01*
X166269853Y-80528308D02*
X166081086Y-80582306D01*
X166081086Y-80582306D02*
X165792411Y-80748973D01*
X165792411Y-80748973D02*
X165651263Y-80885451D01*
X165651263Y-80885451D02*
X165616404Y-81015548D01*
X165616404Y-81015548D02*
X165622783Y-81121836D01*
X165622783Y-81121836D02*
X165718021Y-81286794D01*
X165718021Y-81286794D02*
X165806880Y-81345463D01*
X165806880Y-81345463D02*
X165936977Y-81380322D01*
X165936977Y-81380322D02*
X166125744Y-81326323D01*
X166125744Y-81326323D02*
X166414419Y-81159657D01*
X166414419Y-81159657D02*
X166555567Y-81023179D01*
X166555567Y-81023179D02*
X166590427Y-80893082D01*
X166590427Y-80893082D02*
X166584047Y-80786794D01*
X166584047Y-80786794D02*
X166488809Y-80621836D01*
X166003736Y-81781665D02*
X166313259Y-82317776D01*
X166313259Y-82317776D02*
X166476507Y-81838625D01*
X166476507Y-81838625D02*
X166547936Y-81962343D01*
X166547936Y-81962343D02*
X166636794Y-82021012D01*
X166636794Y-82021012D02*
X166701843Y-82038442D01*
X166701843Y-82038442D02*
X166808131Y-82032062D01*
X166808131Y-82032062D02*
X167014328Y-81913014D01*
X167014328Y-81913014D02*
X167072997Y-81824156D01*
X167072997Y-81824156D02*
X167090427Y-81759107D01*
X167090427Y-81759107D02*
X167084047Y-81652819D01*
X167084047Y-81652819D02*
X166941190Y-81405383D01*
X166941190Y-81405383D02*
X166852331Y-81346714D01*
X166852331Y-81346714D02*
X166787282Y-81329284D01*
X174153340Y-77692908D02*
X174188200Y-77562811D01*
X174188200Y-77562811D02*
X174127821Y-77267756D01*
X174127821Y-77267756D02*
X174032583Y-77102799D01*
X174032583Y-77102799D02*
X173807247Y-76902982D01*
X173807247Y-76902982D02*
X173547052Y-76833263D01*
X173547052Y-76833263D02*
X173334476Y-76846022D01*
X173334476Y-76846022D02*
X172956942Y-76954020D01*
X172956942Y-76954020D02*
X172709507Y-77096877D01*
X172709507Y-77096877D02*
X172427211Y-77369832D01*
X172427211Y-77369832D02*
X172309873Y-77547548D01*
X172309873Y-77547548D02*
X172240154Y-77807744D01*
X172240154Y-77807744D02*
X172300532Y-78102799D01*
X172300532Y-78102799D02*
X172395770Y-78267756D01*
X172395770Y-78267756D02*
X172621106Y-78467573D01*
X172621106Y-78467573D02*
X172751204Y-78502432D01*
X157416210Y-81417634D02*
X157749544Y-81994985D01*
X158799665Y-81718611D02*
X158323475Y-80893825D01*
X158323475Y-80893825D02*
X156591424Y-81893825D01*
X156591424Y-81893825D02*
X157067615Y-82718611D01*
X161499544Y-88490176D02*
X161724879Y-88689993D01*
X161724879Y-88689993D02*
X161854977Y-88724852D01*
X161854977Y-88724852D02*
X162067553Y-88712093D01*
X162067553Y-88712093D02*
X162314989Y-88569235D01*
X162314989Y-88569235D02*
X162432327Y-88391519D01*
X162432327Y-88391519D02*
X162467187Y-88261421D01*
X162467187Y-88261421D02*
X162454427Y-88048845D01*
X162454427Y-88048845D02*
X162073475Y-87389016D01*
X162073475Y-87389016D02*
X160341424Y-88389016D01*
X160341424Y-88389016D02*
X160674757Y-88966366D01*
X160674757Y-88966366D02*
X160852474Y-89083704D01*
X160852474Y-89083704D02*
X160982572Y-89118564D01*
X160982572Y-89118564D02*
X161195148Y-89105804D01*
X161195148Y-89105804D02*
X161360105Y-89010566D01*
X161360105Y-89010566D02*
X161477443Y-88832850D01*
X161477443Y-88832850D02*
X161512303Y-88702752D01*
X161512303Y-88702752D02*
X161499544Y-88490176D01*
X161499544Y-88490176D02*
X161166210Y-87912825D01*
X163259480Y-111657710D02*
X163253101Y-111763998D01*
X163253101Y-111763998D02*
X163287960Y-111894095D01*
X163287960Y-111894095D02*
X163340249Y-112089242D01*
X163340249Y-112089242D02*
X163333870Y-112195530D01*
X163333870Y-112195530D02*
X163286251Y-112278009D01*
X163103864Y-112117722D02*
X163097484Y-112224010D01*
X163097484Y-112224010D02*
X163132344Y-112354107D01*
X163132344Y-112354107D02*
X163273491Y-112490585D01*
X163273491Y-112490585D02*
X163562166Y-112657251D01*
X163562166Y-112657251D02*
X163750933Y-112711250D01*
X163750933Y-112711250D02*
X163881031Y-112676391D01*
X163881031Y-112676391D02*
X163969889Y-112617722D01*
X163969889Y-112617722D02*
X164065127Y-112452764D01*
X164065127Y-112452764D02*
X164071507Y-112346476D01*
X164071507Y-112346476D02*
X164036647Y-112216379D01*
X164036647Y-112216379D02*
X163895500Y-112079901D01*
X163895500Y-112079901D02*
X163606825Y-111913235D01*
X163606825Y-111913235D02*
X163418058Y-111859236D01*
X163418058Y-111859236D02*
X163287960Y-111894095D01*
X163287960Y-111894095D02*
X163199102Y-111952764D01*
X163199102Y-111952764D02*
X163103864Y-112117722D01*
X164324071Y-111337594D02*
X163746721Y-111004260D01*
X164534938Y-111734266D02*
X163797301Y-111583320D01*
X163797301Y-111583320D02*
X164106825Y-111047209D01*
X156735071Y-106944507D02*
X156604974Y-106979366D01*
X156604974Y-106979366D02*
X156379638Y-107179183D01*
X156379638Y-107179183D02*
X156284400Y-107344140D01*
X156284400Y-107344140D02*
X156224021Y-107639195D01*
X156224021Y-107639195D02*
X156293740Y-107899391D01*
X156293740Y-107899391D02*
X156411079Y-108077107D01*
X156411079Y-108077107D02*
X156693374Y-108350062D01*
X156693374Y-108350062D02*
X156940810Y-108492919D01*
X156940810Y-108492919D02*
X157318343Y-108600917D01*
X157318343Y-108600917D02*
X157530920Y-108613676D01*
X157530920Y-108613676D02*
X157791115Y-108543957D01*
X157791115Y-108543957D02*
X158016451Y-108344140D01*
X158016451Y-108344140D02*
X158111689Y-108179183D01*
X158111689Y-108179183D02*
X158172067Y-107884128D01*
X158172067Y-107884128D02*
X158137208Y-107754031D01*
X172412678Y-112504382D02*
X172473056Y-112209327D01*
X172473056Y-112209327D02*
X172438197Y-112079230D01*
X172438197Y-112079230D02*
X172320858Y-111901513D01*
X172320858Y-111901513D02*
X172073423Y-111758656D01*
X172073423Y-111758656D02*
X171860846Y-111745896D01*
X171860846Y-111745896D02*
X171730749Y-111780756D01*
X171730749Y-111780756D02*
X171553032Y-111898094D01*
X171553032Y-111898094D02*
X171172080Y-112557923D01*
X171172080Y-112557923D02*
X172904130Y-113557923D01*
X172904130Y-113557923D02*
X173237464Y-112980573D01*
X173237464Y-112980573D02*
X173250223Y-112767996D01*
X173250223Y-112767996D02*
X173215364Y-112637899D01*
X173215364Y-112637899D02*
X173098025Y-112460182D01*
X173098025Y-112460182D02*
X172933068Y-112364944D01*
X172933068Y-112364944D02*
X172720492Y-112352184D01*
X172720492Y-112352184D02*
X172590394Y-112387044D01*
X172590394Y-112387044D02*
X172412678Y-112504382D01*
X172412678Y-112504382D02*
X172079344Y-113081732D01*
X168329344Y-119576923D02*
X168662678Y-118999573D01*
X167898270Y-118228328D02*
X167422080Y-119053114D01*
X167422080Y-119053114D02*
X169154130Y-120053114D01*
X169154130Y-120053114D02*
X169630321Y-119228328D01*
X198977429Y-111657710D02*
X198971050Y-111763998D01*
X198971050Y-111763998D02*
X199005909Y-111894095D01*
X199005909Y-111894095D02*
X199058198Y-112089242D01*
X199058198Y-112089242D02*
X199051819Y-112195530D01*
X199051819Y-112195530D02*
X199004200Y-112278009D01*
X198821813Y-112117722D02*
X198815433Y-112224010D01*
X198815433Y-112224010D02*
X198850293Y-112354107D01*
X198850293Y-112354107D02*
X198991440Y-112490585D01*
X198991440Y-112490585D02*
X199280115Y-112657251D01*
X199280115Y-112657251D02*
X199468882Y-112711250D01*
X199468882Y-112711250D02*
X199598980Y-112676391D01*
X199598980Y-112676391D02*
X199687838Y-112617722D01*
X199687838Y-112617722D02*
X199783076Y-112452764D01*
X199783076Y-112452764D02*
X199789456Y-112346476D01*
X199789456Y-112346476D02*
X199754596Y-112216379D01*
X199754596Y-112216379D02*
X199613449Y-112079901D01*
X199613449Y-112079901D02*
X199324774Y-111913235D01*
X199324774Y-111913235D02*
X199136007Y-111859236D01*
X199136007Y-111859236D02*
X199005909Y-111894095D01*
X199005909Y-111894095D02*
X198917051Y-111952764D01*
X198917051Y-111952764D02*
X198821813Y-112117722D01*
X200330695Y-111504260D02*
X200235457Y-111669218D01*
X200235457Y-111669218D02*
X200146599Y-111727887D01*
X200146599Y-111727887D02*
X200081550Y-111745317D01*
X200081550Y-111745317D02*
X199910213Y-111756367D01*
X199910213Y-111756367D02*
X199721446Y-111702368D01*
X199721446Y-111702368D02*
X199391532Y-111511892D01*
X199391532Y-111511892D02*
X199332863Y-111423033D01*
X199332863Y-111423033D02*
X199315433Y-111357984D01*
X199315433Y-111357984D02*
X199321813Y-111251696D01*
X199321813Y-111251696D02*
X199417051Y-111086739D01*
X199417051Y-111086739D02*
X199505909Y-111028070D01*
X199505909Y-111028070D02*
X199570958Y-111010640D01*
X199570958Y-111010640D02*
X199677246Y-111017020D01*
X199677246Y-111017020D02*
X199883443Y-111136068D01*
X199883443Y-111136068D02*
X199942112Y-111224926D01*
X199942112Y-111224926D02*
X199959541Y-111289975D01*
X199959541Y-111289975D02*
X199953162Y-111396263D01*
X199953162Y-111396263D02*
X199857924Y-111561220D01*
X199857924Y-111561220D02*
X199769065Y-111619889D01*
X199769065Y-111619889D02*
X199704016Y-111637319D01*
X199704016Y-111637319D02*
X199597728Y-111630939D01*
X208130627Y-112504382D02*
X208191005Y-112209327D01*
X208191005Y-112209327D02*
X208156146Y-112079230D01*
X208156146Y-112079230D02*
X208038807Y-111901513D01*
X208038807Y-111901513D02*
X207791372Y-111758656D01*
X207791372Y-111758656D02*
X207578795Y-111745896D01*
X207578795Y-111745896D02*
X207448698Y-111780756D01*
X207448698Y-111780756D02*
X207270981Y-111898094D01*
X207270981Y-111898094D02*
X206890029Y-112557923D01*
X206890029Y-112557923D02*
X208622079Y-113557923D01*
X208622079Y-113557923D02*
X208955413Y-112980573D01*
X208955413Y-112980573D02*
X208968172Y-112767996D01*
X208968172Y-112767996D02*
X208933313Y-112637899D01*
X208933313Y-112637899D02*
X208815974Y-112460182D01*
X208815974Y-112460182D02*
X208651017Y-112364944D01*
X208651017Y-112364944D02*
X208438441Y-112352184D01*
X208438441Y-112352184D02*
X208308343Y-112387044D01*
X208308343Y-112387044D02*
X208130627Y-112504382D01*
X208130627Y-112504382D02*
X207797293Y-113081732D01*
X204047293Y-119576923D02*
X204380627Y-118999573D01*
X203616219Y-118228328D02*
X203140029Y-119053114D01*
X203140029Y-119053114D02*
X204872079Y-120053114D01*
X204872079Y-120053114D02*
X205348270Y-119228328D01*
X192453020Y-106944507D02*
X192322923Y-106979366D01*
X192322923Y-106979366D02*
X192097587Y-107179183D01*
X192097587Y-107179183D02*
X192002349Y-107344140D01*
X192002349Y-107344140D02*
X191941970Y-107639195D01*
X191941970Y-107639195D02*
X192011689Y-107899391D01*
X192011689Y-107899391D02*
X192129028Y-108077107D01*
X192129028Y-108077107D02*
X192411323Y-108350062D01*
X192411323Y-108350062D02*
X192658759Y-108492919D01*
X192658759Y-108492919D02*
X193036292Y-108600917D01*
X193036292Y-108600917D02*
X193248869Y-108613676D01*
X193248869Y-108613676D02*
X193509064Y-108543957D01*
X193509064Y-108543957D02*
X193734400Y-108344140D01*
X193734400Y-108344140D02*
X193829638Y-108179183D01*
X193829638Y-108179183D02*
X193890016Y-107884128D01*
X193890016Y-107884128D02*
X193855157Y-107754031D01*
X202527332Y-80986610D02*
X202438473Y-80927941D01*
X202438473Y-80927941D02*
X202308376Y-80893082D01*
X202308376Y-80893082D02*
X202113229Y-80840792D01*
X202113229Y-80840792D02*
X202024371Y-80782123D01*
X202024371Y-80782123D02*
X201976752Y-80699645D01*
X202206758Y-80621836D02*
X202117899Y-80563167D01*
X202117899Y-80563167D02*
X201987802Y-80528308D01*
X201987802Y-80528308D02*
X201799035Y-80582306D01*
X201799035Y-80582306D02*
X201510360Y-80748973D01*
X201510360Y-80748973D02*
X201369212Y-80885451D01*
X201369212Y-80885451D02*
X201334353Y-81015548D01*
X201334353Y-81015548D02*
X201340732Y-81121836D01*
X201340732Y-81121836D02*
X201435970Y-81286794D01*
X201435970Y-81286794D02*
X201524829Y-81345463D01*
X201524829Y-81345463D02*
X201654926Y-81380322D01*
X201654926Y-81380322D02*
X201843693Y-81326323D01*
X201843693Y-81326323D02*
X202132368Y-81159657D01*
X202132368Y-81159657D02*
X202273516Y-81023179D01*
X202273516Y-81023179D02*
X202308376Y-80893082D01*
X202308376Y-80893082D02*
X202301996Y-80786794D01*
X202301996Y-80786794D02*
X202206758Y-80621836D01*
X202007399Y-82276537D02*
X201769304Y-81864144D01*
X201769304Y-81864144D02*
X202157887Y-81584809D01*
X202157887Y-81584809D02*
X202140457Y-81649858D01*
X202140457Y-81649858D02*
X202146837Y-81756146D01*
X202146837Y-81756146D02*
X202265885Y-81962343D01*
X202265885Y-81962343D02*
X202354743Y-82021012D01*
X202354743Y-82021012D02*
X202419792Y-82038442D01*
X202419792Y-82038442D02*
X202526080Y-82032062D01*
X202526080Y-82032062D02*
X202732277Y-81913014D01*
X202732277Y-81913014D02*
X202790946Y-81824156D01*
X202790946Y-81824156D02*
X202808376Y-81759107D01*
X202808376Y-81759107D02*
X202801996Y-81652819D01*
X202801996Y-81652819D02*
X202682948Y-81446622D01*
X202682948Y-81446622D02*
X202594090Y-81387953D01*
X202594090Y-81387953D02*
X202529041Y-81370524D01*
X209871289Y-77692908D02*
X209906149Y-77562811D01*
X209906149Y-77562811D02*
X209845770Y-77267756D01*
X209845770Y-77267756D02*
X209750532Y-77102799D01*
X209750532Y-77102799D02*
X209525196Y-76902982D01*
X209525196Y-76902982D02*
X209265001Y-76833263D01*
X209265001Y-76833263D02*
X209052425Y-76846022D01*
X209052425Y-76846022D02*
X208674891Y-76954020D01*
X208674891Y-76954020D02*
X208427456Y-77096877D01*
X208427456Y-77096877D02*
X208145160Y-77369832D01*
X208145160Y-77369832D02*
X208027822Y-77547548D01*
X208027822Y-77547548D02*
X207958103Y-77807744D01*
X207958103Y-77807744D02*
X208018481Y-78102799D01*
X208018481Y-78102799D02*
X208113719Y-78267756D01*
X208113719Y-78267756D02*
X208339055Y-78467573D01*
X208339055Y-78467573D02*
X208469153Y-78502432D01*
X197217493Y-88490176D02*
X197442828Y-88689993D01*
X197442828Y-88689993D02*
X197572926Y-88724852D01*
X197572926Y-88724852D02*
X197785502Y-88712093D01*
X197785502Y-88712093D02*
X198032938Y-88569235D01*
X198032938Y-88569235D02*
X198150276Y-88391519D01*
X198150276Y-88391519D02*
X198185136Y-88261421D01*
X198185136Y-88261421D02*
X198172376Y-88048845D01*
X198172376Y-88048845D02*
X197791424Y-87389016D01*
X197791424Y-87389016D02*
X196059373Y-88389016D01*
X196059373Y-88389016D02*
X196392706Y-88966366D01*
X196392706Y-88966366D02*
X196570423Y-89083704D01*
X196570423Y-89083704D02*
X196700521Y-89118564D01*
X196700521Y-89118564D02*
X196913097Y-89105804D01*
X196913097Y-89105804D02*
X197078054Y-89010566D01*
X197078054Y-89010566D02*
X197195392Y-88832850D01*
X197195392Y-88832850D02*
X197230252Y-88702752D01*
X197230252Y-88702752D02*
X197217493Y-88490176D01*
X197217493Y-88490176D02*
X196884159Y-87912825D01*
X193134159Y-81417634D02*
X193467493Y-81994985D01*
X194517614Y-81718611D02*
X194041424Y-80893825D01*
X194041424Y-80893825D02*
X192309373Y-81893825D01*
X192309373Y-81893825D02*
X192785564Y-82718611D01*
D11*
%TO.C,Q3*%
X149591670Y-85263731D02*
X157367950Y-76732643D01*
X160832051Y-74732642D02*
X175572432Y-70263731D01*
X165867951Y-91455073D02*
X154591670Y-93923985D01*
X180572432Y-78923985D02*
X169332049Y-89455075D01*
X154591670Y-93923985D02*
G75*
G02*
X149591670Y-85263731I-2500000J4330127D01*
G01*
X157367949Y-76732642D02*
G75*
G02*
X160832051Y-74732642I3232055J-1598083D01*
G01*
X169332051Y-89455074D02*
G75*
G02*
X165867949Y-91455074I-3232056J1598085D01*
G01*
X175572432Y-70263731D02*
G75*
G02*
X180572432Y-78923985I2500000J-4330127D01*
G01*
%TO.C,Q4*%
X154591670Y-100769873D02*
X169332053Y-105238785D01*
X160832051Y-119961216D02*
X149591670Y-109430127D01*
X172796151Y-107238783D02*
X180572432Y-115769873D01*
X175572432Y-124430127D02*
X164296153Y-121961215D01*
X149591670Y-109430127D02*
G75*
G02*
X154591670Y-100769873I2500000J4330127D01*
G01*
X164296153Y-121961216D02*
G75*
G02*
X160832051Y-119961216I-232050J3598078D01*
G01*
X169332051Y-105238784D02*
G75*
G02*
X172796153Y-107238784I232051J-3598076D01*
G01*
X180572432Y-115769873D02*
G75*
G02*
X175572432Y-124430127I-2500000J-4330127D01*
G01*
%TO.C,Q6*%
X190309619Y-100769873D02*
X205050002Y-105238785D01*
X196550000Y-119961216D02*
X185309619Y-109430127D01*
X208514100Y-107238783D02*
X216290381Y-115769873D01*
X211290381Y-124430127D02*
X200014102Y-121961215D01*
X185309619Y-109430127D02*
G75*
G02*
X190309619Y-100769873I2500000J4330127D01*
G01*
X200014102Y-121961216D02*
G75*
G02*
X196550000Y-119961216I-232050J3598078D01*
G01*
X205050000Y-105238784D02*
G75*
G02*
X208514102Y-107238784I232051J-3598076D01*
G01*
X216290381Y-115769873D02*
G75*
G02*
X211290381Y-124430127I-2500000J-4330127D01*
G01*
%TO.C,Q5*%
X185309619Y-85263731D02*
X193085899Y-76732643D01*
X196550000Y-74732642D02*
X211290381Y-70263731D01*
X201585900Y-91455073D02*
X190309619Y-93923985D01*
X216290381Y-78923985D02*
X205049998Y-89455075D01*
X190309619Y-93923985D02*
G75*
G02*
X185309619Y-85263731I-2500000J4330127D01*
G01*
X193085898Y-76732642D02*
G75*
G02*
X196550000Y-74732642I3232055J-1598083D01*
G01*
X205050000Y-89455074D02*
G75*
G02*
X201585898Y-91455074I-3232056J1598085D01*
G01*
X211290381Y-70263731D02*
G75*
G02*
X216290381Y-78923985I2500000J-4330127D01*
G01*
%TD*%
M02*
