%TF.GenerationSoftware,KiCad,Pcbnew,9.0.4*%
%TF.CreationDate,2026-03-16T14:24:38-04:00*%
%TF.ProjectId,Power Amp Board,506f7765-7220-4416-9d70-20426f617264,rev?*%
%TF.SameCoordinates,Original*%
%TF.FileFunction,Paste,Top*%
%TF.FilePolarity,Positive*%
%FSLAX46Y46*%
G04 Gerber Fmt 4.6, Leading zero omitted, Abs format (unit mm)*
G04 Created by KiCad (PCBNEW 9.0.4) date 2026-03-16 14:24:38*
%MOMM*%
%LPD*%
G01*
G04 APERTURE LIST*
G04 Aperture macros list*
%AMRoundRect*
0 Rectangle with rounded corners*
0 $1 Rounding radius*
0 $2 $3 $4 $5 $6 $7 $8 $9 X,Y pos of 4 corners*
0 Add a 4 corners polygon primitive as box body*
4,1,4,$2,$3,$4,$5,$6,$7,$8,$9,$2,$3,0*
0 Add four circle primitives for the rounded corners*
1,1,$1+$1,$2,$3*
1,1,$1+$1,$4,$5*
1,1,$1+$1,$6,$7*
1,1,$1+$1,$8,$9*
0 Add four rect primitives between the rounded corners*
20,1,$1+$1,$2,$3,$4,$5,0*
20,1,$1+$1,$4,$5,$6,$7,0*
20,1,$1+$1,$6,$7,$8,$9,0*
20,1,$1+$1,$8,$9,$2,$3,0*%
G04 Aperture macros list end*
%ADD10RoundRect,0.200000X-0.275000X0.200000X-0.275000X-0.200000X0.275000X-0.200000X0.275000X0.200000X0*%
%ADD11RoundRect,0.250000X-1.236963X-0.794955X-0.706732X-1.289403X1.236963X0.794955X0.706732X1.289403X0*%
%ADD12RoundRect,0.250000X0.325000X0.650000X-0.325000X0.650000X-0.325000X-0.650000X0.325000X-0.650000X0*%
%ADD13RoundRect,0.225000X-0.250000X0.225000X-0.250000X-0.225000X0.250000X-0.225000X0.250000X0.225000X0*%
%ADD14RoundRect,0.150000X-0.200000X0.150000X-0.200000X-0.150000X0.200000X-0.150000X0.200000X0.150000X0*%
%ADD15R,0.457200X1.524000*%
%ADD16RoundRect,0.200000X0.200000X0.275000X-0.200000X0.275000X-0.200000X-0.275000X0.200000X-0.275000X0*%
%ADD17RoundRect,0.250000X-0.773246X1.250649X-1.276873X0.729128X0.773246X-1.250649X1.276873X-0.729128X0*%
%ADD18RoundRect,0.225000X0.225000X0.250000X-0.225000X0.250000X-0.225000X-0.250000X0.225000X-0.250000X0*%
%ADD19RoundRect,0.250000X-0.325000X-0.650000X0.325000X-0.650000X0.325000X0.650000X-0.325000X0.650000X0*%
G04 APERTURE END LIST*
D10*
%TO.C,R6*%
X129440000Y-102295000D03*
X129440000Y-103945000D03*
%TD*%
%TO.C,R5*%
X129440000Y-91670000D03*
X129440000Y-93320000D03*
%TD*%
D11*
%TO.C,R9*%
X149833364Y-73579581D03*
X154166636Y-77620419D03*
%TD*%
D12*
%TO.C,C5*%
X135150000Y-110200000D03*
X132200000Y-110200000D03*
%TD*%
D13*
%TO.C,C1*%
X137040000Y-91720000D03*
X137040000Y-93270000D03*
%TD*%
D14*
%TO.C,D1*%
X129440000Y-96390000D03*
X129440000Y-94990000D03*
%TD*%
D15*
%TO.C,U1*%
X124774999Y-91828300D03*
X124125001Y-91828300D03*
X123474999Y-91828300D03*
X122825001Y-91828300D03*
X122825001Y-96171700D03*
X123474999Y-96171700D03*
X124125001Y-96171700D03*
X124774999Y-96171700D03*
%TD*%
D16*
%TO.C,R3*%
X123776472Y-98525483D03*
X122126472Y-98525483D03*
%TD*%
D10*
%TO.C,R8*%
X137040000Y-98895000D03*
X137040000Y-100545000D03*
%TD*%
D17*
%TO.C,R12*%
X192257926Y-117868957D03*
X188142074Y-122131043D03*
%TD*%
D18*
%TO.C,C3*%
X138775000Y-86400000D03*
X137225000Y-86400000D03*
%TD*%
D13*
%TO.C,C2*%
X137040000Y-102345000D03*
X137040000Y-103895000D03*
%TD*%
D16*
%TO.C,R2*%
X126039214Y-87400000D03*
X124389214Y-87400000D03*
%TD*%
D11*
%TO.C,R10*%
X186033364Y-73579581D03*
X190366636Y-77620419D03*
%TD*%
D10*
%TO.C,R7*%
X137040000Y-95095000D03*
X137040000Y-96745000D03*
%TD*%
D14*
%TO.C,D2*%
X129440000Y-100605000D03*
X129440000Y-99205000D03*
%TD*%
D16*
%TO.C,R1*%
X126039214Y-89474517D03*
X124389214Y-89474517D03*
%TD*%
%TO.C,R4*%
X123776472Y-100600000D03*
X122126472Y-100600000D03*
%TD*%
D19*
%TO.C,C4*%
X123800000Y-110200000D03*
X126750000Y-110200000D03*
%TD*%
D15*
%TO.C,U2*%
X132825001Y-88771700D03*
X133474999Y-88771700D03*
X134125001Y-88771700D03*
X134774999Y-88771700D03*
X134774999Y-84428300D03*
X134125001Y-84428300D03*
X133474999Y-84428300D03*
X132825001Y-84428300D03*
%TD*%
D17*
%TO.C,R11*%
X155257926Y-117868957D03*
X151142074Y-122131043D03*
%TD*%
M02*
