M48
; DRILL file {KiCad 9.0.4} date 2026-03-16T14:24:34-0400
; FORMAT={-:-/ absolute / metric / decimal}
; #@! TF.CreationDate,2026-03-16T14:24:34-04:00
; #@! TF.GenerationSoftware,Kicad,Pcbnew,9.0.4
; #@! TF.FileFunction,Plated,1,4,PTH
FMAT,2
METRIC
; #@! TA.AperFunction,Plated,PTH,ViaDrill
T1C0.300
; #@! TA.AperFunction,Plated,PTH,ComponentDrill
T2C0.750
; #@! TA.AperFunction,Plated,PTH,ComponentDrill
T3C1.400
; #@! TA.AperFunction,Plated,PTH,ComponentDrill
T4C1.800
; #@! TA.AperFunction,Plated,PTH,ComponentDrill
T5C2.500
; #@! TA.AperFunction,Plated,PTH,ComponentDrill
T6C4.300
%
G90
G05
T1
X121.24Y-90.895
X123.8Y-103.0
X125.4Y-85.6
X125.8Y-100.4
X126.0Y-70.8
X126.44Y-96.695
X126.8Y-107.8
X127.64Y-102.895
X128.0Y-88.0
X128.6Y-108.8
X128.64Y-90.495
X130.2Y-108.8
X130.8Y-70.8
X132.0Y-107.8
X132.2Y-82.6
X133.04Y-97.695
X135.8Y-90.0
X136.2Y-70.8
X141.0Y-70.8
X145.0Y-92.2
X146.2Y-71.2
X148.4Y-69.0
X148.4Y-70.0
X148.4Y-71.0
X148.4Y-72.0
X148.4Y-73.0
X149.4Y-69.0
X149.4Y-70.0
X149.4Y-71.0
X149.4Y-72.0
X149.6Y-122.8
X149.6Y-123.8
X149.6Y-124.8
X149.6Y-125.8
X149.6Y-126.8
X150.4Y-69.0
X150.4Y-70.0
X150.4Y-71.0
X150.6Y-123.8
X150.6Y-124.8
X150.6Y-125.8
X150.6Y-126.8
X151.4Y-69.0
X151.4Y-70.0
X151.4Y-71.0
X151.6Y-124.8
X151.6Y-125.8
X151.6Y-126.8
X152.4Y-69.0
X152.4Y-70.0
X152.4Y-71.0
X152.4Y-72.0
X152.6Y-124.8
X152.6Y-125.8
X152.6Y-126.8
X153.6Y-123.8
X153.6Y-124.8
X153.6Y-125.8
X153.6Y-126.8
X156.0Y-81.2
X156.4Y-71.2
X159.2Y-69.6
X161.6Y-93.6
X162.0Y-102.6
X163.4Y-125.532
X164.0Y-69.6
X164.0Y-71.4
X166.4Y-93.6
X166.8Y-102.6
X168.2Y-125.532
X169.4Y-69.6
X171.8Y-93.6
X172.2Y-102.6
X173.6Y-125.532
X174.2Y-69.6
X175.6Y-90.0
X176.6Y-93.6
X177.0Y-102.6
X178.4Y-125.532
X179.6Y-90.0
X184.402Y-68.912
X184.402Y-69.912
X184.402Y-70.912
X184.402Y-71.912
X184.402Y-72.912
X185.402Y-68.912
X185.402Y-69.912
X185.402Y-70.912
X185.402Y-71.912
X186.4Y-68.91
X186.4Y-69.91
X186.402Y-70.912
X186.6Y-122.8
X186.6Y-123.8
X186.6Y-124.8
X186.6Y-125.8
X186.6Y-126.8
X187.4Y-68.91
X187.4Y-69.91
X187.4Y-70.91
X187.6Y-123.8
X187.6Y-124.8
X187.6Y-125.8
X187.6Y-126.8
X188.4Y-68.91
X188.4Y-69.91
X188.4Y-70.91
X188.4Y-71.91
X188.6Y-124.8
X188.6Y-125.8
X188.6Y-126.8
X189.6Y-124.8
X189.6Y-125.8
X189.6Y-126.8
X190.6Y-123.8
X190.6Y-124.8
X190.6Y-125.8
X190.6Y-126.8
X201.2Y-122.0
X203.4Y-93.0
X203.4Y-103.2
X205.6Y-71.6
X208.2Y-93.0
X208.2Y-103.2
X209.0Y-114.6
X210.8Y-81.0
X213.6Y-93.0
X213.6Y-103.2
X218.4Y-93.0
X218.4Y-103.2
X219.2Y-80.8
T2
X132.88Y-92.475
X132.88Y-93.745
X132.88Y-95.015
X133.6Y-100.6
X133.6Y-101.87
X133.6Y-103.14
T3
X123.5Y-75.75
X123.5Y-81.25
X127.7Y-75.75
X127.7Y-81.25
X140.0Y-75.75
X140.0Y-81.25
X211.9Y-98.0
X217.4Y-98.0
T4
X126.55Y-117.6
X126.55Y-123.3
X132.25Y-117.6
X132.25Y-123.3
T5
X160.6Y-78.331
X164.064Y-118.363
X166.06Y-87.788
X169.524Y-108.906
X196.318Y-78.331
X199.782Y-118.363
X201.778Y-87.788
X205.242Y-108.906
T6
X151.898Y-89.659
X152.158Y-105.185
X177.966Y-74.609
X178.226Y-120.235
X187.616Y-89.659
X187.876Y-105.185
X213.684Y-74.609
X213.944Y-120.235
M30
