%TF.GenerationSoftware,KiCad,Pcbnew,9.0.4*%
%TF.CreationDate,2026-03-12T13:49:49-04:00*%
%TF.ProjectId,Overdrive,4f766572-6472-4697-9665-2e6b69636164,rev?*%
%TF.SameCoordinates,Original*%
%TF.FileFunction,Copper,L1,Top*%
%TF.FilePolarity,Positive*%
%FSLAX46Y46*%
G04 Gerber Fmt 4.6, Leading zero omitted, Abs format (unit mm)*
G04 Created by KiCad (PCBNEW 9.0.4) date 2026-03-12 13:49:49*
%MOMM*%
%LPD*%
G01*
G04 APERTURE LIST*
G04 Aperture macros list*
%AMRoundRect*
0 Rectangle with rounded corners*
0 $1 Rounding radius*
0 $2 $3 $4 $5 $6 $7 $8 $9 X,Y pos of 4 corners*
0 Add a 4 corners polygon primitive as box body*
4,1,4,$2,$3,$4,$5,$6,$7,$8,$9,$2,$3,0*
0 Add four circle primitives for the rounded corners*
1,1,$1+$1,$2,$3*
1,1,$1+$1,$4,$5*
1,1,$1+$1,$6,$7*
1,1,$1+$1,$8,$9*
0 Add four rect primitives between the rounded corners*
20,1,$1+$1,$2,$3,$4,$5,0*
20,1,$1+$1,$4,$5,$6,$7,0*
20,1,$1+$1,$6,$7,$8,$9,0*
20,1,$1+$1,$8,$9,$2,$3,0*%
G04 Aperture macros list end*
%TA.AperFunction,SMDPad,CuDef*%
%ADD10RoundRect,0.225000X-0.250000X0.225000X-0.250000X-0.225000X0.250000X-0.225000X0.250000X0.225000X0*%
%TD*%
%TA.AperFunction,SMDPad,CuDef*%
%ADD11RoundRect,0.225000X0.225000X0.375000X-0.225000X0.375000X-0.225000X-0.375000X0.225000X-0.375000X0*%
%TD*%
%TA.AperFunction,SMDPad,CuDef*%
%ADD12R,0.977900X0.508000*%
%TD*%
%TA.AperFunction,SMDPad,CuDef*%
%ADD13RoundRect,0.250000X-0.650000X0.325000X-0.650000X-0.325000X0.650000X-0.325000X0.650000X0.325000X0*%
%TD*%
%TA.AperFunction,ComponentPad*%
%ADD14R,1.700000X1.700000*%
%TD*%
%TA.AperFunction,ComponentPad*%
%ADD15C,1.700000*%
%TD*%
%TA.AperFunction,SMDPad,CuDef*%
%ADD16RoundRect,0.225000X0.225000X0.250000X-0.225000X0.250000X-0.225000X-0.250000X0.225000X-0.250000X0*%
%TD*%
%TA.AperFunction,SMDPad,CuDef*%
%ADD17RoundRect,0.200000X0.275000X-0.200000X0.275000X0.200000X-0.275000X0.200000X-0.275000X-0.200000X0*%
%TD*%
%TA.AperFunction,SMDPad,CuDef*%
%ADD18RoundRect,0.200000X-0.200000X-0.275000X0.200000X-0.275000X0.200000X0.275000X-0.200000X0.275000X0*%
%TD*%
%TA.AperFunction,SMDPad,CuDef*%
%ADD19RoundRect,0.200000X-0.275000X0.200000X-0.275000X-0.200000X0.275000X-0.200000X0.275000X0.200000X0*%
%TD*%
%TA.AperFunction,SMDPad,CuDef*%
%ADD20RoundRect,0.225000X0.250000X-0.225000X0.250000X0.225000X-0.250000X0.225000X-0.250000X-0.225000X0*%
%TD*%
%TA.AperFunction,SMDPad,CuDef*%
%ADD21RoundRect,0.125000X-0.537500X-0.125000X0.537500X-0.125000X0.537500X0.125000X-0.537500X0.125000X0*%
%TD*%
%TA.AperFunction,SMDPad,CuDef*%
%ADD22RoundRect,0.225000X-0.225000X-0.250000X0.225000X-0.250000X0.225000X0.250000X-0.225000X0.250000X0*%
%TD*%
%TA.AperFunction,SMDPad,CuDef*%
%ADD23RoundRect,0.200000X0.200000X0.275000X-0.200000X0.275000X-0.200000X-0.275000X0.200000X-0.275000X0*%
%TD*%
%TA.AperFunction,ComponentPad*%
%ADD24R,1.050000X1.500000*%
%TD*%
%TA.AperFunction,ComponentPad*%
%ADD25O,1.050000X1.500000*%
%TD*%
%TA.AperFunction,SMDPad,CuDef*%
%ADD26R,1.981200X0.558800*%
%TD*%
%TA.AperFunction,SMDPad,CuDef*%
%ADD27R,1.003300X0.558800*%
%TD*%
%TA.AperFunction,SMDPad,CuDef*%
%ADD28R,0.508000X0.977900*%
%TD*%
%TA.AperFunction,ViaPad*%
%ADD29C,0.600000*%
%TD*%
%TA.AperFunction,Conductor*%
%ADD30C,0.200000*%
%TD*%
%TA.AperFunction,Conductor*%
%ADD31C,0.400000*%
%TD*%
%TA.AperFunction,Conductor*%
%ADD32C,0.800000*%
%TD*%
G04 APERTURE END LIST*
D10*
%TO.P,C6,1*%
%TO.N,GND*%
X178340286Y-51395000D03*
%TO.P,C6,2*%
%TO.N,Net-(Q2-B)*%
X178340286Y-52945000D03*
%TD*%
D11*
%TO.P,D2,1,K*%
%TO.N,Net-(D1-A)*%
X180100286Y-61145000D03*
%TO.P,D2,2,A*%
%TO.N,Net-(D2-A)*%
X176800286Y-61145000D03*
%TD*%
D12*
%TO.P,U1,1,OUT*%
%TO.N,Net-(U1-IN-)*%
X193000000Y-46000000D03*
%TO.P,U1,2,V-*%
%TO.N,GND*%
X193000000Y-45049999D03*
%TO.P,U1,3,IN+*%
%TO.N,6V*%
X193000000Y-44099998D03*
%TO.P,U1,4,IN-*%
%TO.N,Net-(U1-IN-)*%
X190269500Y-44099998D03*
%TO.P,U1,5,V+*%
%TO.N,12V*%
X190269500Y-46000000D03*
%TD*%
D13*
%TO.P,C5,1*%
%TO.N,GND*%
X167340286Y-51345000D03*
%TO.P,C5,2*%
%TO.N,Net-(C5-Pad2)*%
X167340286Y-54295000D03*
%TD*%
D11*
%TO.P,D4,1,K*%
%TO.N,Net-(D3-A)*%
X170200286Y-61145000D03*
%TO.P,D4,2,A*%
%TO.N,Net-(D4-A)*%
X166900286Y-61145000D03*
%TD*%
D14*
%TO.P,J1,1,Pin_1*%
%TO.N,12V*%
X205460000Y-44380000D03*
D15*
%TO.P,J1,2,Pin_2*%
X208000000Y-44380000D03*
%TO.P,J1,3,Pin_3*%
%TO.N,/CS2*%
X205460000Y-46920000D03*
%TO.P,J1,4,Pin_4*%
%TO.N,unconnected-(J1-Pin_4-Pad4)*%
X208000000Y-46920000D03*
%TO.P,J1,5,Pin_5*%
%TO.N,unconnected-(J1-Pin_5-Pad5)*%
X205460000Y-49460000D03*
%TO.P,J1,6,Pin_6*%
%TO.N,/CS0*%
X208000000Y-49460000D03*
%TO.P,J1,7,Pin_7*%
%TO.N,/MOSI*%
X205460000Y-52000000D03*
%TO.P,J1,8,Pin_8*%
%TO.N,/SPI_CLK*%
X208000000Y-52000000D03*
%TO.P,J1,9,Pin_9*%
%TO.N,/GUITAR_OUT*%
X205460000Y-54540000D03*
%TO.P,J1,10,Pin_10*%
%TO.N,/GUITAR_IN*%
X208000000Y-54540000D03*
%TO.P,J1,11,Pin_11*%
%TO.N,GND*%
X205460000Y-57080000D03*
%TO.P,J1,12,Pin_12*%
X208000000Y-57080000D03*
%TO.P,J1,13,Pin_13*%
X205460000Y-59620000D03*
%TO.P,J1,14,Pin_14*%
X208000000Y-59620000D03*
%TO.P,J1,15,Pin_15*%
%TO.N,unconnected-(J1-Pin_15-Pad15)*%
X205460000Y-62160000D03*
%TO.P,J1,16,Pin_16*%
%TO.N,unconnected-(J1-Pin_16-Pad16)*%
X208000000Y-62160000D03*
%TD*%
D16*
%TO.P,C10,1*%
%TO.N,Net-(U2-A)*%
X193000000Y-48000000D03*
%TO.P,C10,2*%
%TO.N,Net-(U1-IN-)*%
X191450000Y-48000000D03*
%TD*%
D17*
%TO.P,R7,1*%
%TO.N,Net-(Q1-B)*%
X173840286Y-53120000D03*
%TO.P,R7,2*%
%TO.N,12V*%
X173840286Y-51470000D03*
%TD*%
D18*
%TO.P,R1,1*%
%TO.N,12V*%
X183350000Y-46000000D03*
%TO.P,R1,2*%
%TO.N,Net-(R1-Pad2)*%
X185000000Y-46000000D03*
%TD*%
D19*
%TO.P,R10,1*%
%TO.N,GND*%
X165340286Y-55720000D03*
%TO.P,R10,2*%
%TO.N,Net-(C5-Pad2)*%
X165340286Y-57370000D03*
%TD*%
D11*
%TO.P,D3,1,K*%
%TO.N,Net-(D2-A)*%
X175100286Y-61145000D03*
%TO.P,D3,2,A*%
%TO.N,Net-(D3-A)*%
X171800286Y-61145000D03*
%TD*%
D17*
%TO.P,R3,1*%
%TO.N,6V*%
X187000000Y-45650000D03*
%TO.P,R3,2*%
%TO.N,Net-(R1-Pad2)*%
X187000000Y-44000000D03*
%TD*%
D20*
%TO.P,C9,1*%
%TO.N,/GUITAR_IN*%
X197000000Y-45000000D03*
%TO.P,C9,2*%
%TO.N,6V*%
X197000000Y-43450000D03*
%TD*%
D10*
%TO.P,C8,1*%
%TO.N,GND*%
X185840286Y-56745000D03*
%TO.P,C8,2*%
%TO.N,Net-(D1-K)*%
X185840286Y-58295000D03*
%TD*%
D11*
%TO.P,D1,1,K*%
%TO.N,Net-(D1-K)*%
X185000286Y-61145000D03*
%TO.P,D1,2,A*%
%TO.N,Net-(D1-A)*%
X181700286Y-61145000D03*
%TD*%
D21*
%TO.P,U2,1,W*%
%TO.N,Net-(U2-W)*%
X191512786Y-50320000D03*
%TO.P,U2,2,V_{DD}*%
%TO.N,5V*%
X191512786Y-50970000D03*
%TO.P,U2,3,GND*%
%TO.N,GND*%
X191512786Y-51620000D03*
%TO.P,U2,4,CLK*%
%TO.N,/SPI_CLK*%
X191512786Y-52270000D03*
%TO.P,U2,5,SDI*%
%TO.N,/MOSI*%
X193787786Y-52270000D03*
%TO.P,U2,6,~{CS}*%
%TO.N,/CS2*%
X193787786Y-51620000D03*
%TO.P,U2,7,B*%
%TO.N,Net-(U2-B)*%
X193787786Y-50970000D03*
%TO.P,U2,8,A*%
%TO.N,Net-(U2-A)*%
X193787786Y-50320000D03*
%TD*%
D22*
%TO.P,C2,1*%
%TO.N,5V*%
X198450000Y-59000000D03*
%TO.P,C2,2*%
%TO.N,GND*%
X200000000Y-59000000D03*
%TD*%
D23*
%TO.P,R2,1*%
%TO.N,Net-(R1-Pad2)*%
X185000000Y-44000000D03*
%TO.P,R2,2*%
%TO.N,GND*%
X183350000Y-44000000D03*
%TD*%
%TO.P,R14,1*%
%TO.N,Net-(U5-A1)*%
X188665286Y-60295000D03*
%TO.P,R14,2*%
%TO.N,Net-(D1-K)*%
X187015286Y-60295000D03*
%TD*%
D10*
%TO.P,C4,1*%
%TO.N,Net-(U3-IN-)*%
X172090286Y-51545000D03*
%TO.P,C4,2*%
%TO.N,Net-(Q1-B)*%
X172090286Y-53095000D03*
%TD*%
D22*
%TO.P,C7,1*%
%TO.N,Net-(Q2-C)*%
X181340286Y-57795000D03*
%TO.P,C7,2*%
%TO.N,Net-(D1-K)*%
X182890286Y-57795000D03*
%TD*%
D17*
%TO.P,R5,1*%
%TO.N,Net-(C3-Pad2)*%
X185900286Y-52445000D03*
%TO.P,R5,2*%
%TO.N,Net-(U6-IN+)*%
X185900286Y-50795000D03*
%TD*%
D18*
%TO.P,R11,1*%
%TO.N,Net-(Q2-B)*%
X179940286Y-51545000D03*
%TO.P,R11,2*%
%TO.N,12V*%
X181590286Y-51545000D03*
%TD*%
D16*
%TO.P,C3,1*%
%TO.N,Net-(U2-W)*%
X189179270Y-52366688D03*
%TO.P,C3,2*%
%TO.N,Net-(C3-Pad2)*%
X187629270Y-52366688D03*
%TD*%
D18*
%TO.P,R4,1*%
%TO.N,Net-(U2-B)*%
X195875286Y-51100000D03*
%TO.P,R4,2*%
%TO.N,GND*%
X197525286Y-51100000D03*
%TD*%
D11*
%TO.P,D5,1,K*%
%TO.N,Net-(D4-A)*%
X165200286Y-61145000D03*
%TO.P,D5,2,A*%
%TO.N,GND*%
X161900286Y-61145000D03*
%TD*%
D17*
%TO.P,R13,1*%
%TO.N,Net-(Q2-C)*%
X181590286Y-54945000D03*
%TO.P,R13,2*%
%TO.N,12V*%
X181590286Y-53295000D03*
%TD*%
D19*
%TO.P,R8,1*%
%TO.N,GND*%
X169840286Y-51470000D03*
%TO.P,R8,2*%
%TO.N,Net-(Q1-B)*%
X169840286Y-53120000D03*
%TD*%
%TO.P,R12,1*%
%TO.N,GND*%
X176340286Y-51395000D03*
%TO.P,R12,2*%
%TO.N,Net-(Q2-B)*%
X176340286Y-53045000D03*
%TD*%
D18*
%TO.P,R9,1*%
%TO.N,Net-(C5-Pad2)*%
X166840286Y-57295000D03*
%TO.P,R9,2*%
%TO.N,Net-(Q1-E)*%
X168490286Y-57295000D03*
%TD*%
D20*
%TO.P,C1,1*%
%TO.N,12V*%
X201000000Y-52550000D03*
%TO.P,C1,2*%
%TO.N,GND*%
X201000000Y-51000000D03*
%TD*%
D24*
%TO.P,Q1,1,E*%
%TO.N,Net-(Q1-E)*%
X170820286Y-56655000D03*
D25*
%TO.P,Q1,2,B*%
%TO.N,Net-(Q1-B)*%
X172090286Y-56655000D03*
%TO.P,Q1,3,C*%
%TO.N,Net-(Q1-C)*%
X173360286Y-56655000D03*
%TD*%
D26*
%TO.P,U5,1,B1*%
%TO.N,GND*%
X194554086Y-58700000D03*
%TO.P,U5,2,GND*%
X194554086Y-57430000D03*
%TO.P,U5,3,CS\u002A*%
%TO.N,/CS0*%
X194554086Y-56160000D03*
%TO.P,U5,4,SDI*%
%TO.N,/MOSI*%
X194554086Y-54890000D03*
%TO.P,U5,5,CLK*%
%TO.N,/SPI_CLK*%
X189626486Y-54890000D03*
%TO.P,U5,6,VDD*%
%TO.N,5V*%
X189626486Y-56160000D03*
%TO.P,U5,7,W1*%
%TO.N,/GUITAR_OUT*%
X189626486Y-57430000D03*
%TO.P,U5,8,A1*%
%TO.N,Net-(U5-A1)*%
X189626486Y-58700000D03*
%TD*%
D24*
%TO.P,Q2,1,E*%
%TO.N,Net-(Q1-C)*%
X176570286Y-56655000D03*
D25*
%TO.P,Q2,2,B*%
%TO.N,Net-(Q2-B)*%
X177840286Y-56655000D03*
%TO.P,Q2,3,C*%
%TO.N,Net-(Q2-C)*%
X179110286Y-56655000D03*
%TD*%
D27*
%TO.P,U4,1,VIN*%
%TO.N,12V*%
X201377950Y-56950001D03*
%TO.P,U4,2,GND*%
%TO.N,GND*%
X201377950Y-56000000D03*
%TO.P,U4,3,EN*%
%TO.N,12V*%
X201377950Y-55049999D03*
%TO.P,U4,4,SENSE*%
%TO.N,5V*%
X198622050Y-55049999D03*
%TO.P,U4,5,VOUT*%
X198622050Y-56950001D03*
%TD*%
D19*
%TO.P,R6,1*%
%TO.N,Net-(U3-IN+)*%
X176150286Y-46295000D03*
%TO.P,R6,2*%
%TO.N,Net-(U6-IN+)*%
X176150286Y-47945000D03*
%TD*%
D28*
%TO.P,U3,1,OUT*%
%TO.N,Net-(U3-IN-)*%
X172000000Y-48295000D03*
%TO.P,U3,2,V-*%
%TO.N,GND*%
X172950001Y-48295000D03*
%TO.P,U3,3,IN+*%
%TO.N,Net-(U3-IN+)*%
X173900002Y-48295000D03*
%TO.P,U3,4,IN-*%
%TO.N,Net-(U3-IN-)*%
X173900002Y-45564500D03*
%TO.P,U3,5,V+*%
%TO.N,12V*%
X172000000Y-45564500D03*
%TD*%
D12*
%TO.P,U6,1,OUT*%
%TO.N,Net-(U3-IN+)*%
X179150286Y-46144998D03*
%TO.P,U6,2,V-*%
%TO.N,GND*%
X179150286Y-47094999D03*
%TO.P,U6,3,IN+*%
%TO.N,Net-(U6-IN+)*%
X179150286Y-48045000D03*
%TO.P,U6,4,IN-*%
%TO.N,6V*%
X181880786Y-48045000D03*
%TO.P,U6,5,V+*%
%TO.N,12V*%
X181880786Y-46144998D03*
%TD*%
D29*
%TO.N,GND*%
X163000000Y-65000000D03*
X197000000Y-58000000D03*
X165000000Y-49000000D03*
X162000000Y-57000000D03*
X189000000Y-49000000D03*
X185000000Y-54000000D03*
X168000000Y-48000000D03*
X201010430Y-49394718D03*
X198000000Y-49000000D03*
X184000000Y-55000000D03*
X180000000Y-44000000D03*
X164000000Y-64000000D03*
X175000000Y-53000000D03*
X162000000Y-64000000D03*
X186000000Y-49000000D03*
X196000000Y-53000000D03*
X174000000Y-50000000D03*
X183000000Y-56000000D03*
X164000000Y-51000000D03*
X188000000Y-54000000D03*
X194000000Y-45000000D03*
%TO.N,12V*%
X190000000Y-47000000D03*
X170800000Y-44400000D03*
X176000000Y-50000000D03*
X199000000Y-49559000D03*
X183400000Y-52800000D03*
X181000000Y-45000000D03*
X202000000Y-58000000D03*
%TO.N,/SPI_CLK*%
X197000000Y-48000000D03*
X191000000Y-53000000D03*
%TO.N,/GUITAR_OUT*%
X187000000Y-58000000D03*
%TO.N,/MOSI*%
X194000000Y-61000000D03*
X204000000Y-56000000D03*
%TO.N,/CS0*%
X203000000Y-53000000D03*
X197000000Y-54000000D03*
%TO.N,/GUITAR_IN*%
X196000000Y-50000000D03*
%TO.N,5V*%
X190000000Y-51020000D03*
X187000000Y-55000000D03*
X197038460Y-55421446D03*
%TO.N,/CS2*%
X195000000Y-47000000D03*
X191000000Y-49000000D03*
%TD*%
D30*
%TO.N,GND*%
X189880270Y-52820088D02*
X188700358Y-54000000D01*
D31*
X176340286Y-51395000D02*
X176340286Y-51659714D01*
X180039236Y-47094999D02*
X180039236Y-44039236D01*
X172950001Y-48950001D02*
X174000000Y-50000000D01*
D30*
X188700358Y-54000000D02*
X188000000Y-54000000D01*
D31*
X172950001Y-48295000D02*
X172950001Y-48950001D01*
X180039236Y-44039236D02*
X180000000Y-44000000D01*
D30*
X189880270Y-52530949D02*
X189880270Y-52820088D01*
X191512786Y-51620000D02*
X190791219Y-51620000D01*
D31*
X185840286Y-56745000D02*
X185745000Y-56745000D01*
X194554086Y-57430000D02*
X196430000Y-57430000D01*
X163280000Y-55720000D02*
X162000000Y-57000000D01*
X179150286Y-47094999D02*
X180039236Y-47094999D01*
D30*
X190791219Y-51620000D02*
X189880270Y-52530949D01*
D31*
X193950001Y-45049999D02*
X194000000Y-45000000D01*
X193000000Y-45049999D02*
X193950001Y-45049999D01*
X167340286Y-51345000D02*
X167340286Y-51340286D01*
X161900286Y-61145000D02*
X161900286Y-63900286D01*
X167340286Y-51340286D02*
X165000000Y-49000000D01*
X165340286Y-55720000D02*
X163280000Y-55720000D01*
X161900286Y-63900286D02*
X162000000Y-64000000D01*
X176340286Y-51659714D02*
X175000000Y-53000000D01*
X196430000Y-57430000D02*
X197000000Y-58000000D01*
%TO.N,12V*%
X181590286Y-53295000D02*
X182905000Y-53295000D01*
X199000000Y-50550000D02*
X199000000Y-49559000D01*
X181590286Y-51545000D02*
X181590286Y-53295000D01*
X171964500Y-45564500D02*
X170800000Y-44400000D01*
X181880786Y-45880786D02*
X181000000Y-45000000D01*
X190269500Y-46730500D02*
X190000000Y-47000000D01*
X190269500Y-46000000D02*
X190269500Y-46730500D01*
X201377950Y-56950001D02*
X201377950Y-57377950D01*
X201377950Y-55049999D02*
X201377950Y-54000000D01*
X173840286Y-51470000D02*
X174530000Y-51470000D01*
X201000000Y-52550000D02*
X199000000Y-50550000D01*
X182905000Y-53295000D02*
X183400000Y-52800000D01*
X201377950Y-54000000D02*
X201377950Y-52927950D01*
X181880786Y-46144998D02*
X183205002Y-46144998D01*
X201377950Y-52927950D02*
X201000000Y-52550000D01*
X183205002Y-46144998D02*
X183350000Y-46000000D01*
X172000284Y-45564500D02*
X171964500Y-45564500D01*
X181880786Y-46144998D02*
X181880786Y-45880786D01*
X174530000Y-51470000D02*
X176000000Y-50000000D01*
X201377950Y-57377950D02*
X202000000Y-58000000D01*
%TO.N,Net-(U2-W)*%
X189179270Y-50821016D02*
X189680286Y-50320000D01*
X189680286Y-50320000D02*
X191512786Y-50320000D01*
X189179270Y-52366688D02*
X189179270Y-50821016D01*
%TO.N,Net-(C3-Pad2)*%
X185978598Y-52366688D02*
X185900286Y-52445000D01*
X187629270Y-52366688D02*
X185978598Y-52366688D01*
%TO.N,Net-(Q1-B)*%
X169840286Y-53120000D02*
X172065286Y-53120000D01*
X172090286Y-56655000D02*
X172090286Y-53095000D01*
X172065286Y-53120000D02*
X172090286Y-53095000D01*
X173840286Y-53120000D02*
X172115286Y-53120000D01*
X172115286Y-53120000D02*
X172090286Y-53095000D01*
%TO.N,Net-(U3-IN-)*%
X172090286Y-51545000D02*
X172090286Y-48385002D01*
X173000000Y-47000000D02*
X172464786Y-47000000D01*
X173900002Y-45564500D02*
X173900002Y-46099998D01*
X172464786Y-47000000D02*
X172000284Y-47464502D01*
X173900002Y-46099998D02*
X173000000Y-47000000D01*
X172090286Y-48385002D02*
X172000284Y-48295000D01*
X172000284Y-47464502D02*
X172000284Y-48295000D01*
%TO.N,Net-(C5-Pad2)*%
X166840286Y-54795000D02*
X167340286Y-54295000D01*
X166840286Y-57295000D02*
X166840286Y-54795000D01*
X165415286Y-57295000D02*
X165340286Y-57370000D01*
X166840286Y-57295000D02*
X165415286Y-57295000D01*
%TO.N,Net-(Q2-B)*%
X177840286Y-53445000D02*
X178340286Y-52945000D01*
X177840286Y-56655000D02*
X177840286Y-53445000D01*
X179740286Y-51545000D02*
X178340286Y-52945000D01*
X176340286Y-53045000D02*
X178240286Y-53045000D01*
X179940286Y-51545000D02*
X179740286Y-51545000D01*
X178240286Y-53045000D02*
X178340286Y-52945000D01*
%TO.N,Net-(Q2-C)*%
X180250286Y-57795000D02*
X179110286Y-56655000D01*
X181340286Y-57795000D02*
X181340286Y-55195000D01*
X181340286Y-57795000D02*
X180250286Y-57795000D01*
X181340286Y-55195000D02*
X181590286Y-54945000D01*
%TO.N,Net-(D1-K)*%
X185000286Y-61145000D02*
X186165286Y-61145000D01*
X183390286Y-58295000D02*
X182890286Y-57795000D01*
X187015286Y-60295000D02*
X187015286Y-59470000D01*
X186165286Y-61145000D02*
X187015286Y-60295000D01*
X187015286Y-59470000D02*
X185840286Y-58295000D01*
X185840286Y-58295000D02*
X183390286Y-58295000D01*
D32*
%TO.N,Net-(D1-A)*%
X180100286Y-61145000D02*
X181700286Y-61145000D01*
%TO.N,Net-(D2-A)*%
X175100286Y-61145000D02*
X176800286Y-61145000D01*
%TO.N,Net-(D3-A)*%
X170200286Y-61145000D02*
X171800286Y-61145000D01*
%TO.N,Net-(D4-A)*%
X165200286Y-61145000D02*
X166900286Y-61145000D01*
D31*
%TO.N,/SPI_CLK*%
X191000000Y-53516486D02*
X189626486Y-54890000D01*
X206799000Y-50799000D02*
X208000000Y-52000000D01*
X191000000Y-53000000D02*
X191000000Y-53516486D01*
X197000000Y-48000000D02*
X202000000Y-48000000D01*
X191000000Y-53000000D02*
X191000000Y-52782786D01*
X191000000Y-52782786D02*
X191512786Y-52270000D01*
X204799000Y-50799000D02*
X206799000Y-50799000D01*
X202000000Y-48000000D02*
X204799000Y-50799000D01*
%TO.N,/GUITAR_OUT*%
X187000000Y-58000000D02*
X189056486Y-58000000D01*
X189056486Y-58000000D02*
X189626486Y-57430000D01*
%TO.N,/MOSI*%
X205460000Y-52000000D02*
X203079346Y-52000000D01*
X203190000Y-55190000D02*
X204000000Y-56000000D01*
X193162486Y-60162486D02*
X193162486Y-55570400D01*
X193162486Y-55570400D02*
X193842886Y-54890000D01*
X193842886Y-54890000D02*
X194554086Y-54890000D01*
X203079346Y-52000000D02*
X202230600Y-52848746D01*
X194554086Y-53036300D02*
X193787786Y-52270000D01*
X194554086Y-54890000D02*
X194554086Y-54000000D01*
X203000000Y-55190000D02*
X203190000Y-55190000D01*
X202230600Y-52848746D02*
X202230600Y-53230600D01*
X194554086Y-54000000D02*
X194554086Y-53036300D01*
X203000000Y-54000000D02*
X203000000Y-55190000D01*
X202230600Y-53230600D02*
X203000000Y-54000000D01*
X194000000Y-61000000D02*
X193162486Y-60162486D01*
%TO.N,/CS0*%
X203201000Y-53201000D02*
X208497471Y-53201000D01*
X196000000Y-55000000D02*
X197000000Y-54000000D01*
X208497471Y-53201000D02*
X209201000Y-52497471D01*
X203000000Y-53000000D02*
X203201000Y-53201000D01*
X209201000Y-50661000D02*
X208000000Y-49460000D01*
X196000000Y-55425286D02*
X196000000Y-55000000D01*
X194554086Y-56160000D02*
X195265286Y-56160000D01*
X195265286Y-56160000D02*
X196000000Y-55425286D01*
X209201000Y-52497471D02*
X209201000Y-50661000D01*
%TO.N,/GUITAR_IN*%
X196000000Y-49000000D02*
X194349000Y-47349000D01*
X194349000Y-47349000D02*
X194349000Y-46730346D01*
X194349000Y-46730346D02*
X196079346Y-45000000D01*
X196079346Y-45000000D02*
X197000000Y-45000000D01*
X196000000Y-50000000D02*
X196000000Y-49000000D01*
%TO.N,Net-(Q1-E)*%
X170820286Y-56655000D02*
X169130286Y-56655000D01*
X169130286Y-56655000D02*
X168490286Y-57295000D01*
%TO.N,Net-(Q1-C)*%
X176570286Y-56655000D02*
X173360286Y-56655000D01*
%TO.N,Net-(R1-Pad2)*%
X185000000Y-46000000D02*
X185000000Y-44000000D01*
X187000000Y-44000000D02*
X185000000Y-44000000D01*
%TO.N,6V*%
X181880786Y-48045000D02*
X184605000Y-48045000D01*
X193000000Y-44099998D02*
X192395000Y-43494998D01*
X184605000Y-48045000D02*
X187000000Y-45650000D01*
X192395000Y-43494998D02*
X192505002Y-43494998D01*
X189155002Y-43494998D02*
X192395000Y-43494998D01*
X187000000Y-45650000D02*
X189155002Y-43494998D01*
X192505002Y-43494998D02*
X192550000Y-43450000D01*
X192550000Y-43450000D02*
X197000000Y-43450000D01*
%TO.N,Net-(U2-B)*%
X195745286Y-50970000D02*
X195875286Y-51100000D01*
X193787786Y-50970000D02*
X195745286Y-50970000D01*
%TO.N,Net-(U6-IN+)*%
X176250286Y-48045000D02*
X176150286Y-47945000D01*
X179700000Y-49700000D02*
X179000000Y-49000000D01*
X179150286Y-48045000D02*
X176250286Y-48045000D01*
X185900286Y-50795000D02*
X184805286Y-49700000D01*
X179000000Y-49000000D02*
X179150286Y-48849714D01*
X184805286Y-49700000D02*
X179700000Y-49700000D01*
X179150286Y-48849714D02*
X179150286Y-48045000D01*
%TO.N,Net-(U3-IN+)*%
X173900286Y-48295000D02*
X174150286Y-48295000D01*
X179150286Y-46144998D02*
X176300288Y-46144998D01*
X176300288Y-46144998D02*
X176150286Y-46295000D01*
X175000000Y-48000000D02*
X175000000Y-47000000D01*
X174705000Y-48295000D02*
X175000000Y-48000000D01*
X175705000Y-46295000D02*
X175000000Y-47000000D01*
X173900002Y-48295000D02*
X174705000Y-48295000D01*
X176150286Y-46295000D02*
X175705000Y-46295000D01*
%TO.N,Net-(U5-A1)*%
X189626486Y-59333800D02*
X188665286Y-60295000D01*
X189626486Y-58700000D02*
X189626486Y-59333800D01*
%TO.N,5V*%
X191512786Y-50970000D02*
X190050000Y-50970000D01*
X197038460Y-56038460D02*
X197038460Y-55421446D01*
X190050000Y-50970000D02*
X190000000Y-51020000D01*
X198622050Y-56950001D02*
X198622050Y-58827950D01*
X188160000Y-56160000D02*
X187000000Y-55000000D01*
X198622050Y-56950001D02*
X197950001Y-56950001D01*
X198622050Y-55049999D02*
X197409907Y-55049999D01*
X198622050Y-58827950D02*
X198450000Y-59000000D01*
X189626486Y-56160000D02*
X188160000Y-56160000D01*
X197950001Y-56950001D02*
X197038460Y-56038460D01*
X197409907Y-55049999D02*
X197038460Y-55421446D01*
D30*
%TO.N,/CS2*%
X192426286Y-50035792D02*
X191390494Y-49000000D01*
X195080000Y-46920000D02*
X205460000Y-46920000D01*
X193125287Y-51620000D02*
X192426286Y-50920999D01*
X192426286Y-50920999D02*
X192426286Y-50035792D01*
X191390494Y-49000000D02*
X191000000Y-49000000D01*
X193787786Y-51620000D02*
X193125287Y-51620000D01*
D31*
%TO.N,Net-(U2-A)*%
X193000000Y-48000000D02*
X193000000Y-49532214D01*
X193000000Y-49532214D02*
X193787786Y-50320000D01*
%TO.N,Net-(U1-IN-)*%
X190269500Y-44099998D02*
X192169502Y-46000000D01*
X191450000Y-47550000D02*
X193000000Y-46000000D01*
X192169502Y-46000000D02*
X193000000Y-46000000D01*
X191450000Y-48000000D02*
X191450000Y-47550000D01*
%TD*%
%TA.AperFunction,Conductor*%
%TO.N,GND*%
G36*
X207534075Y-59812993D02*
G01*
X207599901Y-59927007D01*
X207692993Y-60020099D01*
X207807007Y-60085925D01*
X207870590Y-60102962D01*
X207238282Y-60735269D01*
X207238282Y-60735270D01*
X207292452Y-60774626D01*
X207292451Y-60774626D01*
X207301495Y-60779234D01*
X207352292Y-60827208D01*
X207369087Y-60895029D01*
X207346550Y-60961164D01*
X207301499Y-61000202D01*
X207292182Y-61004949D01*
X207120213Y-61129890D01*
X206969890Y-61280213D01*
X206844949Y-61452182D01*
X206840484Y-61460946D01*
X206792509Y-61511742D01*
X206724688Y-61528536D01*
X206658553Y-61505998D01*
X206619516Y-61460946D01*
X206615050Y-61452182D01*
X206490109Y-61280213D01*
X206339786Y-61129890D01*
X206167817Y-61004949D01*
X206158504Y-61000204D01*
X206107707Y-60952230D01*
X206090912Y-60884409D01*
X206113449Y-60818274D01*
X206158507Y-60779232D01*
X206167555Y-60774622D01*
X206221716Y-60735270D01*
X206221717Y-60735270D01*
X205589408Y-60102962D01*
X205652993Y-60085925D01*
X205767007Y-60020099D01*
X205860099Y-59927007D01*
X205925925Y-59812993D01*
X205942962Y-59749408D01*
X206575270Y-60381717D01*
X206575270Y-60381716D01*
X206614622Y-60327554D01*
X206619514Y-60317954D01*
X206667488Y-60267157D01*
X206735308Y-60250361D01*
X206801444Y-60272897D01*
X206840486Y-60317954D01*
X206845375Y-60327550D01*
X206884728Y-60381716D01*
X207517037Y-59749408D01*
X207534075Y-59812993D01*
G37*
%TD.AperFunction*%
%TA.AperFunction,Conductor*%
G36*
X207534075Y-57272993D02*
G01*
X207599901Y-57387007D01*
X207692993Y-57480099D01*
X207807007Y-57545925D01*
X207870590Y-57562962D01*
X207238282Y-58195269D01*
X207238282Y-58195270D01*
X207292452Y-58234626D01*
X207302048Y-58239516D01*
X207352844Y-58287491D01*
X207369638Y-58355312D01*
X207347100Y-58421447D01*
X207302051Y-58460483D01*
X207292440Y-58465380D01*
X207238282Y-58504727D01*
X207238282Y-58504728D01*
X207870591Y-59137037D01*
X207807007Y-59154075D01*
X207692993Y-59219901D01*
X207599901Y-59312993D01*
X207534075Y-59427007D01*
X207517037Y-59490591D01*
X206884728Y-58858282D01*
X206884727Y-58858282D01*
X206845380Y-58912440D01*
X206840483Y-58922051D01*
X206792506Y-58972845D01*
X206724684Y-58989638D01*
X206658550Y-58967098D01*
X206619516Y-58922048D01*
X206614626Y-58912452D01*
X206575270Y-58858282D01*
X206575269Y-58858282D01*
X205942962Y-59490590D01*
X205925925Y-59427007D01*
X205860099Y-59312993D01*
X205767007Y-59219901D01*
X205652993Y-59154075D01*
X205589409Y-59137037D01*
X206221716Y-58504728D01*
X206167550Y-58465375D01*
X206157954Y-58460486D01*
X206107157Y-58412512D01*
X206090361Y-58344692D01*
X206111288Y-58280895D01*
X206190027Y-58163581D01*
X205589408Y-57562962D01*
X205652993Y-57545925D01*
X205767007Y-57480099D01*
X205860099Y-57387007D01*
X205925925Y-57272993D01*
X205942962Y-57209408D01*
X206575270Y-57841717D01*
X206575270Y-57841716D01*
X206614622Y-57787554D01*
X206619514Y-57777954D01*
X206667488Y-57727157D01*
X206735308Y-57710361D01*
X206801444Y-57732897D01*
X206840486Y-57777954D01*
X206845375Y-57787550D01*
X206884728Y-57841716D01*
X207517037Y-57209408D01*
X207534075Y-57272993D01*
G37*
%TD.AperFunction*%
%TA.AperFunction,Conductor*%
G36*
X184530806Y-50420185D02*
G01*
X184551448Y-50436819D01*
X184888467Y-50773838D01*
X184921952Y-50835161D01*
X184924786Y-50861519D01*
X184924786Y-51051613D01*
X184931199Y-51122192D01*
X184931199Y-51122194D01*
X184931200Y-51122196D01*
X184981808Y-51284606D01*
X185046239Y-51391188D01*
X185069816Y-51430188D01*
X185171947Y-51532319D01*
X185205432Y-51593642D01*
X185200448Y-51663334D01*
X185171947Y-51707681D01*
X185069817Y-51809810D01*
X185069816Y-51809811D01*
X184981808Y-51955393D01*
X184931199Y-52117807D01*
X184928817Y-52144022D01*
X184924786Y-52188384D01*
X184924786Y-52701616D01*
X184926257Y-52717804D01*
X184931199Y-52772192D01*
X184931199Y-52772194D01*
X184931200Y-52772196D01*
X184981808Y-52934606D01*
X185041592Y-53033501D01*
X185069816Y-53080188D01*
X185190097Y-53200469D01*
X185190099Y-53200470D01*
X185190101Y-53200472D01*
X185335680Y-53288478D01*
X185498090Y-53339086D01*
X185568670Y-53345500D01*
X185568673Y-53345500D01*
X186231899Y-53345500D01*
X186231902Y-53345500D01*
X186302482Y-53339086D01*
X186464892Y-53288478D01*
X186610471Y-53200472D01*
X186631771Y-53179172D01*
X186698576Y-53112368D01*
X186759899Y-53078883D01*
X186829591Y-53083867D01*
X186873938Y-53112368D01*
X186951225Y-53189655D01*
X186951229Y-53189658D01*
X187095564Y-53278686D01*
X187095567Y-53278687D01*
X187095573Y-53278691D01*
X187256562Y-53332037D01*
X187355925Y-53342188D01*
X187902614Y-53342187D01*
X187902622Y-53342186D01*
X187902625Y-53342186D01*
X187957030Y-53336628D01*
X188001978Y-53332037D01*
X188162967Y-53278691D01*
X188307314Y-53189656D01*
X188316589Y-53180381D01*
X188377912Y-53146896D01*
X188447604Y-53151880D01*
X188491951Y-53180381D01*
X188501225Y-53189655D01*
X188501229Y-53189658D01*
X188645564Y-53278686D01*
X188645567Y-53278687D01*
X188645573Y-53278691D01*
X188806562Y-53332037D01*
X188905925Y-53342188D01*
X189452614Y-53342187D01*
X189452622Y-53342186D01*
X189452625Y-53342186D01*
X189507030Y-53336628D01*
X189551978Y-53332037D01*
X189712967Y-53278691D01*
X189857314Y-53189656D01*
X189977238Y-53069732D01*
X189978317Y-53067981D01*
X189979372Y-53067032D01*
X189981719Y-53064065D01*
X189982225Y-53064465D01*
X190030263Y-53021255D01*
X190099226Y-53010031D01*
X190163309Y-53037872D01*
X190202167Y-53095939D01*
X190205475Y-53108884D01*
X190227629Y-53220262D01*
X190221402Y-53289854D01*
X190193693Y-53332134D01*
X189452046Y-54073781D01*
X189390723Y-54107266D01*
X189364365Y-54110100D01*
X188588015Y-54110100D01*
X188588009Y-54110101D01*
X188528402Y-54116508D01*
X188393557Y-54166802D01*
X188393550Y-54166806D01*
X188278341Y-54253052D01*
X188278338Y-54253055D01*
X188192092Y-54368264D01*
X188192088Y-54368271D01*
X188141794Y-54503117D01*
X188135387Y-54562716D01*
X188135387Y-54562723D01*
X188135386Y-54562735D01*
X188135386Y-54845367D01*
X188129147Y-54866612D01*
X188127568Y-54888701D01*
X188119495Y-54899484D01*
X188115701Y-54912406D01*
X188098967Y-54926905D01*
X188085696Y-54944634D01*
X188073075Y-54949341D01*
X188062897Y-54958161D01*
X188040979Y-54961312D01*
X188020232Y-54969051D01*
X188007071Y-54966188D01*
X187993739Y-54968105D01*
X187973595Y-54958905D01*
X187951959Y-54954199D01*
X187934233Y-54940930D01*
X187930183Y-54939080D01*
X187923705Y-54933048D01*
X187796071Y-54805414D01*
X187769191Y-54765185D01*
X187709397Y-54620827D01*
X187709390Y-54620814D01*
X187621789Y-54489711D01*
X187621786Y-54489707D01*
X187510292Y-54378213D01*
X187510288Y-54378210D01*
X187379185Y-54290609D01*
X187379172Y-54290602D01*
X187233501Y-54230264D01*
X187233489Y-54230261D01*
X187078845Y-54199500D01*
X187078842Y-54199500D01*
X186921158Y-54199500D01*
X186921155Y-54199500D01*
X186766510Y-54230261D01*
X186766498Y-54230264D01*
X186620827Y-54290602D01*
X186620814Y-54290609D01*
X186489711Y-54378210D01*
X186489707Y-54378213D01*
X186378213Y-54489707D01*
X186378210Y-54489711D01*
X186290609Y-54620814D01*
X186290602Y-54620827D01*
X186230264Y-54766498D01*
X186230261Y-54766510D01*
X186199500Y-54921153D01*
X186199500Y-55078846D01*
X186230261Y-55233489D01*
X186230264Y-55233501D01*
X186290602Y-55379172D01*
X186290609Y-55379185D01*
X186378210Y-55510288D01*
X186378213Y-55510292D01*
X186489707Y-55621786D01*
X186489711Y-55621789D01*
X186522540Y-55643725D01*
X186522546Y-55643728D01*
X186620821Y-55709394D01*
X186647177Y-55720311D01*
X186647179Y-55720312D01*
X186691891Y-55738832D01*
X186764593Y-55768946D01*
X186765185Y-55769191D01*
X186805414Y-55796071D01*
X187713453Y-56704111D01*
X187713454Y-56704112D01*
X187828192Y-56780777D01*
X187955667Y-56833578D01*
X187955672Y-56833580D01*
X187955676Y-56833580D01*
X187955677Y-56833581D01*
X188058784Y-56854091D01*
X188120695Y-56886476D01*
X188155269Y-56947192D01*
X188157764Y-56990015D01*
X188156028Y-57004954D01*
X188141795Y-57043117D01*
X188135386Y-57102727D01*
X188135386Y-57182678D01*
X188134558Y-57189807D01*
X188123602Y-57215630D01*
X188115701Y-57242539D01*
X188110143Y-57247355D01*
X188107270Y-57254127D01*
X188084091Y-57269928D01*
X188062897Y-57288294D01*
X188054460Y-57290129D01*
X188049540Y-57293484D01*
X188037541Y-57293810D01*
X188011386Y-57299500D01*
X187425316Y-57299500D01*
X187377864Y-57290061D01*
X187233501Y-57230264D01*
X187233489Y-57230261D01*
X187078845Y-57199500D01*
X187078842Y-57199500D01*
X186934089Y-57199500D01*
X186867050Y-57179815D01*
X186821295Y-57127011D01*
X186810731Y-57062896D01*
X186815285Y-57018319D01*
X186815286Y-57018309D01*
X186815286Y-56995000D01*
X184865287Y-56995000D01*
X184865287Y-57018322D01*
X184875430Y-57117607D01*
X184928738Y-57278481D01*
X184928743Y-57278492D01*
X185007024Y-57405403D01*
X185025465Y-57472795D01*
X185004543Y-57539458D01*
X184950901Y-57584228D01*
X184901486Y-57594500D01*
X183962759Y-57594500D01*
X183895720Y-57574815D01*
X183849965Y-57522011D01*
X183839401Y-57483102D01*
X183833976Y-57430000D01*
X183830635Y-57397292D01*
X183777289Y-57236303D01*
X183777285Y-57236297D01*
X183777284Y-57236294D01*
X183688256Y-57091959D01*
X183688253Y-57091955D01*
X183568330Y-56972032D01*
X183568326Y-56972029D01*
X183423991Y-56883001D01*
X183423985Y-56882998D01*
X183423983Y-56882997D01*
X183393781Y-56872989D01*
X183262995Y-56829651D01*
X183163632Y-56819500D01*
X182616948Y-56819500D01*
X182616930Y-56819501D01*
X182517578Y-56829650D01*
X182517575Y-56829651D01*
X182356591Y-56882996D01*
X182356580Y-56883001D01*
X182229883Y-56961150D01*
X182162491Y-56979591D01*
X182095827Y-56958669D01*
X182051057Y-56905027D01*
X182040786Y-56855612D01*
X182040786Y-56471677D01*
X184865286Y-56471677D01*
X184865286Y-56495000D01*
X185590286Y-56495000D01*
X186090286Y-56495000D01*
X186815285Y-56495000D01*
X186815285Y-56471692D01*
X186815284Y-56471677D01*
X186805141Y-56372392D01*
X186751833Y-56211518D01*
X186751828Y-56211507D01*
X186662861Y-56067271D01*
X186662858Y-56067267D01*
X186543015Y-55947424D01*
X186525721Y-55936757D01*
X186525720Y-55936757D01*
X186397719Y-55858105D01*
X186237892Y-55805144D01*
X186138608Y-55795000D01*
X186090286Y-55795000D01*
X186090286Y-56495000D01*
X185590286Y-56495000D01*
X185590286Y-55795000D01*
X185590285Y-55794999D01*
X185541979Y-55795000D01*
X185541961Y-55795001D01*
X185442678Y-55805144D01*
X185281804Y-55858452D01*
X185281793Y-55858457D01*
X185137557Y-55947424D01*
X185137553Y-55947427D01*
X185017713Y-56067267D01*
X185017710Y-56067271D01*
X184928743Y-56211507D01*
X184928738Y-56211518D01*
X184875430Y-56372393D01*
X184865286Y-56471677D01*
X182040786Y-56471677D01*
X182040786Y-55915275D01*
X182060471Y-55848236D01*
X182113275Y-55802481D01*
X182127891Y-55796891D01*
X182154892Y-55788478D01*
X182300471Y-55700472D01*
X182420758Y-55580185D01*
X182508764Y-55434606D01*
X182559372Y-55272196D01*
X182565786Y-55201616D01*
X182565786Y-54688384D01*
X182559372Y-54617804D01*
X182508764Y-54455394D01*
X182420758Y-54309815D01*
X182420756Y-54309813D01*
X182420755Y-54309811D01*
X182318624Y-54207680D01*
X182314226Y-54199626D01*
X182306889Y-54194111D01*
X182297743Y-54169440D01*
X182285139Y-54146357D01*
X182285793Y-54137204D01*
X182282603Y-54128598D01*
X182288246Y-54102903D01*
X182290123Y-54076665D01*
X182296020Y-54067507D01*
X182297592Y-54060355D01*
X182318795Y-54032147D01*
X182319049Y-54031893D01*
X182319300Y-54031644D01*
X182380690Y-53998281D01*
X182406806Y-53995500D01*
X182973996Y-53995500D01*
X183065040Y-53977389D01*
X183109328Y-53968580D01*
X183202022Y-53930185D01*
X183236807Y-53915777D01*
X183236808Y-53915776D01*
X183236811Y-53915775D01*
X183351543Y-53839114D01*
X183594588Y-53596067D01*
X183634810Y-53569192D01*
X183689435Y-53546566D01*
X183779173Y-53509397D01*
X183779176Y-53509395D01*
X183779179Y-53509394D01*
X183910289Y-53421789D01*
X184021789Y-53310289D01*
X184109394Y-53179179D01*
X184169737Y-53033497D01*
X184200500Y-52878842D01*
X184200500Y-52721158D01*
X184200500Y-52721155D01*
X184200499Y-52721153D01*
X184182446Y-52630394D01*
X184169737Y-52566503D01*
X184169595Y-52566161D01*
X184109397Y-52420827D01*
X184109390Y-52420814D01*
X184021789Y-52289711D01*
X184021786Y-52289707D01*
X183910292Y-52178213D01*
X183910288Y-52178210D01*
X183779185Y-52090609D01*
X183779172Y-52090602D01*
X183633501Y-52030264D01*
X183633489Y-52030261D01*
X183478845Y-51999500D01*
X183478842Y-51999500D01*
X183321158Y-51999500D01*
X183321155Y-51999500D01*
X183166510Y-52030261D01*
X183166498Y-52030264D01*
X183020827Y-52090602D01*
X183020814Y-52090609D01*
X182889711Y-52178210D01*
X182889707Y-52178213D01*
X182778213Y-52289707D01*
X182778210Y-52289711D01*
X182690609Y-52420814D01*
X182690602Y-52420827D01*
X182650373Y-52517952D01*
X182637830Y-52533517D01*
X182629525Y-52551703D01*
X182616355Y-52560166D01*
X182606533Y-52572356D01*
X182587564Y-52578669D01*
X182570747Y-52589477D01*
X182543186Y-52593439D01*
X182540238Y-52594421D01*
X182535812Y-52594500D01*
X182414786Y-52594500D01*
X182347747Y-52574815D01*
X182301992Y-52522011D01*
X182290786Y-52470500D01*
X182290786Y-52361519D01*
X182310471Y-52294480D01*
X182327107Y-52273836D01*
X182345755Y-52255188D01*
X182345758Y-52255185D01*
X182433764Y-52109606D01*
X182484372Y-51947196D01*
X182490786Y-51876616D01*
X182490786Y-51213384D01*
X182484372Y-51142804D01*
X182433764Y-50980394D01*
X182345758Y-50834815D01*
X182345756Y-50834813D01*
X182345755Y-50834811D01*
X182225474Y-50714530D01*
X182216978Y-50709394D01*
X182086663Y-50630615D01*
X182039477Y-50579089D01*
X182027639Y-50510229D01*
X182054908Y-50445901D01*
X182112627Y-50406527D01*
X182150815Y-50400500D01*
X184463767Y-50400500D01*
X184530806Y-50420185D01*
G37*
%TD.AperFunction*%
%TA.AperFunction,Conductor*%
G36*
X206801444Y-55193999D02*
G01*
X206840486Y-55239056D01*
X206844951Y-55247820D01*
X206969890Y-55419786D01*
X207120213Y-55570109D01*
X207292179Y-55695048D01*
X207292181Y-55695049D01*
X207292184Y-55695051D01*
X207301493Y-55699794D01*
X207352290Y-55747766D01*
X207369087Y-55815587D01*
X207346552Y-55881722D01*
X207301505Y-55920760D01*
X207292446Y-55925376D01*
X207292440Y-55925380D01*
X207238282Y-55964727D01*
X207238282Y-55964728D01*
X207870591Y-56597037D01*
X207807007Y-56614075D01*
X207692993Y-56679901D01*
X207599901Y-56772993D01*
X207534075Y-56887007D01*
X207517037Y-56950591D01*
X206884728Y-56318282D01*
X206884727Y-56318282D01*
X206845380Y-56372440D01*
X206840483Y-56382051D01*
X206792506Y-56432845D01*
X206724684Y-56449638D01*
X206658550Y-56427098D01*
X206619516Y-56382048D01*
X206614626Y-56372452D01*
X206575270Y-56318282D01*
X206575269Y-56318282D01*
X205942962Y-56950590D01*
X205925925Y-56887007D01*
X205860099Y-56772993D01*
X205767007Y-56679901D01*
X205652993Y-56614075D01*
X205589408Y-56597037D01*
X206221716Y-55964728D01*
X206167547Y-55925373D01*
X206167547Y-55925372D01*
X206158500Y-55920763D01*
X206107706Y-55872788D01*
X206090912Y-55804966D01*
X206113451Y-55738832D01*
X206158508Y-55699793D01*
X206167816Y-55695051D01*
X206252614Y-55633442D01*
X206339786Y-55570109D01*
X206339788Y-55570106D01*
X206339792Y-55570104D01*
X206490104Y-55419792D01*
X206490106Y-55419788D01*
X206490109Y-55419786D01*
X206615048Y-55247820D01*
X206615047Y-55247820D01*
X206615051Y-55247816D01*
X206619514Y-55239054D01*
X206667488Y-55188259D01*
X206735308Y-55171463D01*
X206801444Y-55193999D01*
G37*
%TD.AperFunction*%
%TA.AperFunction,Conductor*%
G36*
X175301568Y-51757747D02*
G01*
X175333161Y-51760007D01*
X175335980Y-51762117D01*
X175339472Y-51762561D01*
X175363740Y-51782897D01*
X175389095Y-51801878D01*
X175391120Y-51805843D01*
X175393024Y-51807438D01*
X175408213Y-51839297D01*
X175422267Y-51884397D01*
X175510213Y-52029877D01*
X175612301Y-52131965D01*
X175645786Y-52193288D01*
X175640802Y-52262980D01*
X175612301Y-52307327D01*
X175509817Y-52409810D01*
X175509816Y-52409811D01*
X175421808Y-52555393D01*
X175371199Y-52717807D01*
X175369587Y-52735550D01*
X175364786Y-52788384D01*
X175364786Y-53301616D01*
X175366709Y-53322778D01*
X175371199Y-53372192D01*
X175371199Y-53372194D01*
X175371200Y-53372196D01*
X175421808Y-53534606D01*
X175509336Y-53679395D01*
X175509816Y-53680188D01*
X175630097Y-53800469D01*
X175630099Y-53800470D01*
X175630101Y-53800472D01*
X175775680Y-53888478D01*
X175938090Y-53939086D01*
X176008670Y-53945500D01*
X176008673Y-53945500D01*
X176671899Y-53945500D01*
X176671902Y-53945500D01*
X176742482Y-53939086D01*
X176904892Y-53888478D01*
X176951637Y-53860219D01*
X177019189Y-53842383D01*
X177085663Y-53863900D01*
X177129952Y-53917940D01*
X177139786Y-53966336D01*
X177139786Y-55280500D01*
X177120101Y-55347539D01*
X177067297Y-55393294D01*
X177015786Y-55404500D01*
X175997415Y-55404500D01*
X175997409Y-55404501D01*
X175937802Y-55410908D01*
X175802957Y-55461202D01*
X175802950Y-55461206D01*
X175687741Y-55547452D01*
X175687738Y-55547455D01*
X175601492Y-55662664D01*
X175601488Y-55662671D01*
X175552133Y-55795001D01*
X175551195Y-55797517D01*
X175546223Y-55843757D01*
X175519487Y-55908306D01*
X175462095Y-55948154D01*
X175422935Y-55954500D01*
X174342204Y-55954500D01*
X174275165Y-55934815D01*
X174239102Y-55899391D01*
X174156844Y-55776282D01*
X174156843Y-55776281D01*
X174156842Y-55776279D01*
X174014004Y-55633441D01*
X173846048Y-55521217D01*
X173846038Y-55521212D01*
X173659413Y-55443909D01*
X173659405Y-55443907D01*
X173461293Y-55404500D01*
X173461289Y-55404500D01*
X173259283Y-55404500D01*
X173259278Y-55404500D01*
X173061166Y-55443907D01*
X173061158Y-55443909D01*
X172962239Y-55484883D01*
X172892769Y-55492352D01*
X172830290Y-55461077D01*
X172794638Y-55400988D01*
X172790786Y-55370322D01*
X172790786Y-53946874D01*
X172799430Y-53917433D01*
X172805954Y-53887447D01*
X172809708Y-53882431D01*
X172810471Y-53879835D01*
X172827105Y-53859193D01*
X172829479Y-53856819D01*
X172890802Y-53823334D01*
X172917160Y-53820500D01*
X173023766Y-53820500D01*
X173090805Y-53840185D01*
X173111447Y-53856819D01*
X173130097Y-53875469D01*
X173130099Y-53875470D01*
X173130101Y-53875472D01*
X173275680Y-53963478D01*
X173438090Y-54014086D01*
X173508670Y-54020500D01*
X173508673Y-54020500D01*
X174171899Y-54020500D01*
X174171902Y-54020500D01*
X174242482Y-54014086D01*
X174404892Y-53963478D01*
X174550471Y-53875472D01*
X174670758Y-53755185D01*
X174758764Y-53609606D01*
X174809372Y-53447196D01*
X174815786Y-53376616D01*
X174815786Y-52863384D01*
X174809372Y-52792804D01*
X174758764Y-52630394D01*
X174670758Y-52484815D01*
X174670756Y-52484813D01*
X174670755Y-52484811D01*
X174568624Y-52382680D01*
X174564287Y-52374738D01*
X174557041Y-52369314D01*
X174547803Y-52344549D01*
X174535139Y-52321357D01*
X174535784Y-52312330D01*
X174532621Y-52303850D01*
X174538237Y-52278024D01*
X174540123Y-52251665D01*
X174545939Y-52242613D01*
X174547470Y-52235577D01*
X174568615Y-52207327D01*
X174580447Y-52195495D01*
X174641764Y-52162011D01*
X174643786Y-52161589D01*
X174734328Y-52143580D01*
X174827022Y-52105185D01*
X174861807Y-52090777D01*
X174861808Y-52090776D01*
X174861811Y-52090775D01*
X174976543Y-52014114D01*
X175202152Y-51788504D01*
X175205237Y-51786820D01*
X175207091Y-51783828D01*
X175235671Y-51770201D01*
X175263469Y-51755023D01*
X175266981Y-51755274D01*
X175270159Y-51753759D01*
X175301568Y-51757747D01*
G37*
%TD.AperFunction*%
%TA.AperFunction,Conductor*%
G36*
X201725520Y-48720185D02*
G01*
X201746162Y-48736819D01*
X204097162Y-51087819D01*
X204130647Y-51149142D01*
X204125663Y-51218834D01*
X204083791Y-51274767D01*
X204018327Y-51299184D01*
X204009481Y-51299500D01*
X203010350Y-51299500D01*
X202875023Y-51326418D01*
X202875013Y-51326421D01*
X202747538Y-51379222D01*
X202632800Y-51455887D01*
X202084079Y-52004608D01*
X202065669Y-52014660D01*
X202050082Y-52028704D01*
X202035617Y-52031070D01*
X202022756Y-52038093D01*
X202001831Y-52036596D01*
X201981129Y-52039983D01*
X201967683Y-52034154D01*
X201953064Y-52033109D01*
X201936270Y-52020537D01*
X201917024Y-52012194D01*
X201902030Y-51994904D01*
X201897131Y-51991237D01*
X201893399Y-51985972D01*
X201892090Y-51984019D01*
X201822968Y-51871956D01*
X201804768Y-51853756D01*
X201798021Y-51843691D01*
X201791022Y-51821458D01*
X201779854Y-51801004D01*
X201780729Y-51788757D01*
X201777043Y-51777045D01*
X201783175Y-51754559D01*
X201784838Y-51731312D01*
X201792963Y-51718669D01*
X201795427Y-51709637D01*
X201803367Y-51702483D01*
X201813345Y-51686959D01*
X201822573Y-51677731D01*
X201911542Y-51533492D01*
X201911547Y-51533481D01*
X201964855Y-51372606D01*
X201974999Y-51273322D01*
X201975000Y-51273309D01*
X201975000Y-51250000D01*
X201124000Y-51250000D01*
X201056961Y-51230315D01*
X201011206Y-51177511D01*
X201000000Y-51126000D01*
X201000000Y-51000000D01*
X200874000Y-51000000D01*
X200806961Y-50980315D01*
X200761206Y-50927511D01*
X200750000Y-50876000D01*
X200750000Y-50750000D01*
X201250000Y-50750000D01*
X201974999Y-50750000D01*
X201974999Y-50726692D01*
X201974998Y-50726677D01*
X201964855Y-50627392D01*
X201911547Y-50466518D01*
X201911542Y-50466507D01*
X201822575Y-50322271D01*
X201822572Y-50322267D01*
X201702732Y-50202427D01*
X201702728Y-50202424D01*
X201558492Y-50113457D01*
X201558481Y-50113452D01*
X201397606Y-50060144D01*
X201298322Y-50050000D01*
X201250000Y-50050000D01*
X201250000Y-50750000D01*
X200750000Y-50750000D01*
X200750000Y-50050000D01*
X200749999Y-50049999D01*
X200701693Y-50050000D01*
X200701675Y-50050001D01*
X200602392Y-50060144D01*
X200441518Y-50113452D01*
X200441507Y-50113457D01*
X200297271Y-50202424D01*
X200297267Y-50202427D01*
X200177426Y-50322268D01*
X200101623Y-50445164D01*
X200084331Y-50460716D01*
X200070395Y-50479333D01*
X200058843Y-50483641D01*
X200049675Y-50491888D01*
X200026720Y-50495622D01*
X200004931Y-50503750D01*
X199992881Y-50501128D01*
X199980712Y-50503109D01*
X199959382Y-50493841D01*
X199936658Y-50488898D01*
X199920962Y-50477148D01*
X199916630Y-50475266D01*
X199908404Y-50467747D01*
X199736819Y-50296162D01*
X199703334Y-50234839D01*
X199700500Y-50208481D01*
X199700500Y-49984316D01*
X199709939Y-49936864D01*
X199742530Y-49858181D01*
X199769737Y-49792497D01*
X199800500Y-49637842D01*
X199800500Y-49480158D01*
X199800500Y-49480155D01*
X199800499Y-49480153D01*
X199793814Y-49446545D01*
X199769737Y-49325503D01*
X199755096Y-49290157D01*
X199709397Y-49179827D01*
X199709390Y-49179814D01*
X199621789Y-49048711D01*
X199621786Y-49048707D01*
X199510292Y-48937213D01*
X199501004Y-48931007D01*
X199495907Y-48927601D01*
X199451104Y-48873989D01*
X199442397Y-48804664D01*
X199472552Y-48741637D01*
X199531995Y-48704918D01*
X199564800Y-48700500D01*
X201658481Y-48700500D01*
X201725520Y-48720185D01*
G37*
%TD.AperFunction*%
%TA.AperFunction,Conductor*%
G36*
X173088542Y-48314685D02*
G01*
X173134297Y-48367489D01*
X173145503Y-48419000D01*
X173145503Y-48831826D01*
X173151910Y-48891431D01*
X173155799Y-48901857D01*
X173192183Y-48999409D01*
X173200001Y-49042740D01*
X173200001Y-49283950D01*
X173251829Y-49283950D01*
X173251845Y-49283949D01*
X173311378Y-49277547D01*
X173311380Y-49277547D01*
X173380951Y-49251598D01*
X173450643Y-49246612D01*
X173467618Y-49251596D01*
X173538519Y-49278041D01*
X173598129Y-49284450D01*
X174201874Y-49284449D01*
X174261485Y-49278041D01*
X174396333Y-49227746D01*
X174511548Y-49141496D01*
X174583645Y-49045186D01*
X174639576Y-49003318D01*
X174682909Y-48995500D01*
X174773996Y-48995500D01*
X174865040Y-48977389D01*
X174909328Y-48968580D01*
X175000040Y-48931006D01*
X175036807Y-48915777D01*
X175036808Y-48915776D01*
X175036811Y-48915775D01*
X175151543Y-48839114D01*
X175278365Y-48712291D01*
X175339684Y-48678809D01*
X175409376Y-48683793D01*
X175433311Y-48697204D01*
X175433682Y-48696591D01*
X175440099Y-48700470D01*
X175440101Y-48700472D01*
X175585680Y-48788478D01*
X175748090Y-48839086D01*
X175818670Y-48845500D01*
X175818673Y-48845500D01*
X176481899Y-48845500D01*
X176481902Y-48845500D01*
X176552482Y-48839086D01*
X176714892Y-48788478D01*
X176745892Y-48769738D01*
X176756405Y-48763383D01*
X176820554Y-48745500D01*
X178185305Y-48745500D01*
X178252344Y-48765185D01*
X178298099Y-48817989D01*
X178308043Y-48887147D01*
X178306922Y-48893692D01*
X178299500Y-48931003D01*
X178299500Y-48931006D01*
X178299500Y-49068994D01*
X178299500Y-49068996D01*
X178299499Y-49068996D01*
X178326418Y-49204322D01*
X178326421Y-49204332D01*
X178379222Y-49331807D01*
X178455887Y-49446545D01*
X178455888Y-49446546D01*
X179155886Y-50146542D01*
X179206355Y-50197011D01*
X179253459Y-50244115D01*
X179368182Y-50320771D01*
X179368189Y-50320775D01*
X179436874Y-50349225D01*
X179495671Y-50373580D01*
X179499438Y-50374329D01*
X179508464Y-50377952D01*
X179531826Y-50396358D01*
X179556703Y-50412659D01*
X179558971Y-50417745D01*
X179563347Y-50421193D01*
X179573050Y-50449310D01*
X179585163Y-50476469D01*
X179584321Y-50481973D01*
X179586139Y-50487240D01*
X179579100Y-50516136D01*
X179574608Y-50545537D01*
X179570922Y-50549714D01*
X179569605Y-50555125D01*
X179548064Y-50575626D01*
X179528387Y-50597933D01*
X179521092Y-50601298D01*
X179518994Y-50603295D01*
X179515175Y-50604027D01*
X179499165Y-50611413D01*
X179450682Y-50626521D01*
X179450680Y-50626521D01*
X179450680Y-50626522D01*
X179305101Y-50714528D01*
X179305099Y-50714529D01*
X179298682Y-50718409D01*
X179297069Y-50715741D01*
X179245302Y-50736323D01*
X179176727Y-50722937D01*
X179146129Y-50700538D01*
X179043018Y-50597427D01*
X179043014Y-50597424D01*
X178898778Y-50508457D01*
X178898767Y-50508452D01*
X178737892Y-50455144D01*
X178638608Y-50445000D01*
X178590286Y-50445000D01*
X178590286Y-51271000D01*
X178570601Y-51338039D01*
X178517797Y-51383794D01*
X178466286Y-51395000D01*
X178340286Y-51395000D01*
X178340286Y-51521000D01*
X178320601Y-51588039D01*
X178267797Y-51633794D01*
X178216286Y-51645000D01*
X176464286Y-51645000D01*
X176397247Y-51625315D01*
X176351492Y-51572511D01*
X176340286Y-51521000D01*
X176340286Y-51269000D01*
X176359971Y-51201961D01*
X176412775Y-51156206D01*
X176464286Y-51145000D01*
X178090286Y-51145000D01*
X178090286Y-50445000D01*
X178090285Y-50444999D01*
X178041979Y-50445000D01*
X178041961Y-50445001D01*
X177942678Y-50455144D01*
X177781804Y-50508452D01*
X177781793Y-50508457D01*
X177637557Y-50597424D01*
X177637553Y-50597427D01*
X177517712Y-50717268D01*
X177435807Y-50850056D01*
X177383859Y-50896780D01*
X177314896Y-50908001D01*
X177250814Y-50880157D01*
X177224152Y-50849108D01*
X177170358Y-50760122D01*
X177050163Y-50639927D01*
X176904682Y-50551981D01*
X176797955Y-50518723D01*
X176739808Y-50479985D01*
X176711834Y-50415960D01*
X176720285Y-50352886D01*
X176736398Y-50313985D01*
X176769737Y-50233497D01*
X176800500Y-50078842D01*
X176800500Y-49921158D01*
X176800500Y-49921155D01*
X176800499Y-49921153D01*
X176778107Y-49808583D01*
X176769737Y-49766503D01*
X176741869Y-49699222D01*
X176709397Y-49620827D01*
X176709390Y-49620814D01*
X176621789Y-49489711D01*
X176621786Y-49489707D01*
X176510292Y-49378213D01*
X176510288Y-49378210D01*
X176379185Y-49290609D01*
X176379172Y-49290602D01*
X176233501Y-49230264D01*
X176233489Y-49230261D01*
X176078845Y-49199500D01*
X176078842Y-49199500D01*
X175921158Y-49199500D01*
X175921155Y-49199500D01*
X175766510Y-49230261D01*
X175766498Y-49230264D01*
X175620827Y-49290602D01*
X175620814Y-49290609D01*
X175489711Y-49378210D01*
X175489707Y-49378213D01*
X175378213Y-49489707D01*
X175378210Y-49489711D01*
X175290609Y-49620814D01*
X175290604Y-49620823D01*
X175230809Y-49765184D01*
X175203929Y-49805412D01*
X174441068Y-50568273D01*
X174379745Y-50601758D01*
X174316499Y-50598978D01*
X174242482Y-50575914D01*
X174171902Y-50569500D01*
X173508670Y-50569500D01*
X173489431Y-50571248D01*
X173438093Y-50575913D01*
X173275679Y-50626522D01*
X173130099Y-50714529D01*
X173033144Y-50811484D01*
X173025197Y-50815823D01*
X173019773Y-50823069D01*
X172995015Y-50832303D01*
X172971821Y-50844968D01*
X172962791Y-50844322D01*
X172954309Y-50847486D01*
X172928488Y-50841869D01*
X172902129Y-50839984D01*
X172893075Y-50834165D01*
X172886036Y-50832634D01*
X172857782Y-50811483D01*
X172827105Y-50780806D01*
X172793620Y-50719483D01*
X172790786Y-50693125D01*
X172790786Y-48419000D01*
X172810471Y-48351961D01*
X172863275Y-48306206D01*
X172914786Y-48295000D01*
X173021503Y-48295000D01*
X173088542Y-48314685D01*
G37*
%TD.AperFunction*%
%TA.AperFunction,Conductor*%
G36*
X189186854Y-44486623D02*
G01*
X189251894Y-44491275D01*
X189283881Y-44515221D01*
X189307828Y-44533147D01*
X189319959Y-44555365D01*
X189324742Y-44564124D01*
X189336752Y-44596326D01*
X189336756Y-44596333D01*
X189423002Y-44711542D01*
X189423005Y-44711545D01*
X189538214Y-44797791D01*
X189538221Y-44797795D01*
X189558649Y-44805414D01*
X189673067Y-44848089D01*
X189732677Y-44854498D01*
X189981980Y-44854497D01*
X190011426Y-44863143D01*
X190041407Y-44869665D01*
X190046420Y-44873417D01*
X190049019Y-44874181D01*
X190069661Y-44890816D01*
X190212664Y-45033819D01*
X190246149Y-45095142D01*
X190241165Y-45164834D01*
X190199293Y-45220767D01*
X190133829Y-45245184D01*
X190124983Y-45245500D01*
X189732679Y-45245500D01*
X189732673Y-45245501D01*
X189673066Y-45251908D01*
X189538221Y-45302202D01*
X189538214Y-45302206D01*
X189423005Y-45388452D01*
X189423002Y-45388455D01*
X189336756Y-45503664D01*
X189336752Y-45503671D01*
X189287829Y-45634843D01*
X189286459Y-45638517D01*
X189280050Y-45698127D01*
X189280050Y-45698134D01*
X189280050Y-45698135D01*
X189280050Y-46301870D01*
X189280051Y-46301876D01*
X189286458Y-46361483D01*
X189327843Y-46472441D01*
X189332827Y-46542133D01*
X189314765Y-46584662D01*
X189290610Y-46620814D01*
X189290602Y-46620828D01*
X189230264Y-46766498D01*
X189230261Y-46766510D01*
X189199500Y-46921153D01*
X189199500Y-47078846D01*
X189230261Y-47233489D01*
X189230264Y-47233501D01*
X189290602Y-47379172D01*
X189290609Y-47379185D01*
X189378210Y-47510288D01*
X189378213Y-47510292D01*
X189489707Y-47621786D01*
X189489711Y-47621789D01*
X189620814Y-47709390D01*
X189620827Y-47709397D01*
X189758693Y-47766502D01*
X189766503Y-47769737D01*
X189917569Y-47799786D01*
X189921153Y-47800499D01*
X189921156Y-47800500D01*
X189921158Y-47800500D01*
X190078844Y-47800500D01*
X190078845Y-47800499D01*
X190233497Y-47769737D01*
X190328048Y-47730572D01*
X190397517Y-47723104D01*
X190459996Y-47754379D01*
X190495648Y-47814468D01*
X190499500Y-47845134D01*
X190499500Y-48298336D01*
X190499502Y-48298370D01*
X190500008Y-48303322D01*
X190487231Y-48372013D01*
X190464331Y-48403590D01*
X190378210Y-48489711D01*
X190290609Y-48620814D01*
X190290602Y-48620827D01*
X190230264Y-48766498D01*
X190230261Y-48766510D01*
X190199500Y-48921153D01*
X190199500Y-49078846D01*
X190230261Y-49233489D01*
X190230264Y-49233501D01*
X190290602Y-49379172D01*
X190290609Y-49379185D01*
X190322297Y-49426609D01*
X190343175Y-49493287D01*
X190324690Y-49560667D01*
X190272711Y-49607357D01*
X190219195Y-49619500D01*
X189611290Y-49619500D01*
X189475963Y-49646418D01*
X189475953Y-49646421D01*
X189348478Y-49699222D01*
X189233740Y-49775887D01*
X188635157Y-50374470D01*
X188558493Y-50489208D01*
X188505691Y-50616684D01*
X188505688Y-50616695D01*
X188491264Y-50689213D01*
X188491264Y-50689214D01*
X188488944Y-50700875D01*
X188478770Y-50752021D01*
X188478770Y-51427300D01*
X188459085Y-51494339D01*
X188406281Y-51540094D01*
X188337123Y-51550038D01*
X188289673Y-51532838D01*
X188162975Y-51454689D01*
X188162969Y-51454686D01*
X188162967Y-51454685D01*
X188093216Y-51431572D01*
X188001979Y-51401339D01*
X187902616Y-51391188D01*
X187355932Y-51391188D01*
X187355914Y-51391189D01*
X187256562Y-51401338D01*
X187256559Y-51401339D01*
X187095575Y-51454684D01*
X187095564Y-51454689D01*
X186951229Y-51543717D01*
X186951223Y-51543721D01*
X186942323Y-51552622D01*
X186880999Y-51586105D01*
X186811307Y-51581118D01*
X186755375Y-51539245D01*
X186730961Y-51473780D01*
X186745815Y-51405507D01*
X186748513Y-51400813D01*
X186818764Y-51284606D01*
X186869372Y-51122196D01*
X186875786Y-51051616D01*
X186875786Y-50538384D01*
X186869372Y-50467804D01*
X186818764Y-50305394D01*
X186730758Y-50159815D01*
X186730756Y-50159813D01*
X186730755Y-50159811D01*
X186610474Y-50039530D01*
X186464892Y-49951522D01*
X186369027Y-49921650D01*
X186302482Y-49900914D01*
X186302480Y-49900913D01*
X186302478Y-49900913D01*
X186253064Y-49896423D01*
X186231902Y-49894500D01*
X186231899Y-49894500D01*
X186041805Y-49894500D01*
X185974766Y-49874815D01*
X185954124Y-49858181D01*
X185251832Y-49155888D01*
X185251831Y-49155887D01*
X185137093Y-49079222D01*
X185009618Y-49026421D01*
X185009608Y-49026418D01*
X184874282Y-48999500D01*
X184874280Y-48999500D01*
X184874279Y-48999500D01*
X182611102Y-48999500D01*
X182598178Y-48995705D01*
X182584743Y-48996666D01*
X182565306Y-48986052D01*
X182544063Y-48979815D01*
X182535244Y-48969637D01*
X182523420Y-48963181D01*
X182512806Y-48943743D01*
X182498308Y-48927011D01*
X182496391Y-48913679D01*
X182489936Y-48901857D01*
X182491515Y-48879772D01*
X182488364Y-48857853D01*
X182493960Y-48845599D01*
X182494921Y-48832166D01*
X182508189Y-48814440D01*
X182517389Y-48794297D01*
X182529632Y-48785796D01*
X182536792Y-48776232D01*
X182567769Y-48759318D01*
X182583856Y-48753318D01*
X182627189Y-48745500D01*
X184673996Y-48745500D01*
X184771965Y-48726012D01*
X184809328Y-48718580D01*
X184905344Y-48678809D01*
X184936807Y-48665777D01*
X184936808Y-48665776D01*
X184936811Y-48665775D01*
X185051543Y-48589114D01*
X187053837Y-46586818D01*
X187115160Y-46553334D01*
X187141518Y-46550500D01*
X187331613Y-46550500D01*
X187331616Y-46550500D01*
X187402196Y-46544086D01*
X187564606Y-46493478D01*
X187710185Y-46405472D01*
X187830472Y-46285185D01*
X187918478Y-46139606D01*
X187969086Y-45977196D01*
X187975500Y-45906616D01*
X187975500Y-45716518D01*
X187995185Y-45649479D01*
X188011814Y-45628842D01*
X189120883Y-44519772D01*
X189173075Y-44491275D01*
X189182202Y-44486291D01*
X189182203Y-44486291D01*
X189186854Y-44486623D01*
G37*
%TD.AperFunction*%
%TA.AperFunction,Conductor*%
G36*
X195748112Y-44170185D02*
G01*
X195793867Y-44222989D01*
X195803811Y-44292147D01*
X195774786Y-44355703D01*
X195749963Y-44377603D01*
X195632800Y-44455887D01*
X195632799Y-44455888D01*
X194201130Y-45887558D01*
X194139807Y-45921043D01*
X194070115Y-45916059D01*
X194014182Y-45874187D01*
X193989765Y-45808723D01*
X193989449Y-45799877D01*
X193989449Y-45698129D01*
X193989448Y-45698123D01*
X193987289Y-45678040D01*
X193983041Y-45638517D01*
X193964030Y-45587547D01*
X193956597Y-45567617D01*
X193951613Y-45497926D01*
X193956598Y-45480949D01*
X193982547Y-45411378D01*
X193982547Y-45411376D01*
X193988949Y-45351843D01*
X193988950Y-45351826D01*
X193988950Y-45299999D01*
X193747741Y-45299999D01*
X193704408Y-45292181D01*
X193596432Y-45251908D01*
X193596433Y-45251908D01*
X193536833Y-45245501D01*
X193536831Y-45245500D01*
X193536823Y-45245500D01*
X193536815Y-45245500D01*
X193124000Y-45245500D01*
X193115314Y-45242949D01*
X193106353Y-45244238D01*
X193082312Y-45233259D01*
X193056961Y-45225815D01*
X193051033Y-45218974D01*
X193042797Y-45215213D01*
X193028507Y-45192978D01*
X193011206Y-45173011D01*
X193008918Y-45162496D01*
X193005023Y-45156435D01*
X193000000Y-45121500D01*
X193000000Y-44978497D01*
X193019685Y-44911458D01*
X193072489Y-44865703D01*
X193123998Y-44854497D01*
X193536822Y-44854497D01*
X193596433Y-44848089D01*
X193704408Y-44807817D01*
X193747741Y-44799999D01*
X193988950Y-44799999D01*
X193988950Y-44748171D01*
X193988949Y-44748154D01*
X193982548Y-44688626D01*
X193982547Y-44688622D01*
X193956597Y-44619047D01*
X193951613Y-44549355D01*
X193956598Y-44532379D01*
X193983038Y-44461489D01*
X193983037Y-44461489D01*
X193983041Y-44461481D01*
X193989450Y-44401871D01*
X193989450Y-44274500D01*
X194009135Y-44207461D01*
X194061939Y-44161706D01*
X194113450Y-44150500D01*
X195681073Y-44150500D01*
X195748112Y-44170185D01*
G37*
%TD.AperFunction*%
%TA.AperFunction,Conductor*%
G36*
X211342825Y-38520185D02*
G01*
X211388580Y-38572989D01*
X211399786Y-38624500D01*
X211399786Y-69375500D01*
X211380101Y-69442539D01*
X211327297Y-69488294D01*
X211275786Y-69499500D01*
X160974786Y-69499500D01*
X160907747Y-69479815D01*
X160861992Y-69427011D01*
X160850786Y-69375500D01*
X160850786Y-62001531D01*
X160870471Y-61934492D01*
X160923275Y-61888737D01*
X160992433Y-61878793D01*
X161055989Y-61907818D01*
X161080325Y-61936435D01*
X161102712Y-61972731D01*
X161222553Y-62092572D01*
X161222557Y-62092575D01*
X161366793Y-62181542D01*
X161366804Y-62181547D01*
X161527679Y-62234855D01*
X161626969Y-62244999D01*
X162150286Y-62244999D01*
X162173594Y-62244999D01*
X162173608Y-62244998D01*
X162272893Y-62234855D01*
X162433767Y-62181547D01*
X162433778Y-62181542D01*
X162578014Y-62092575D01*
X162578018Y-62092572D01*
X162697858Y-61972732D01*
X162697861Y-61972728D01*
X162786828Y-61828492D01*
X162786833Y-61828481D01*
X162840141Y-61667606D01*
X162850285Y-61568322D01*
X162850286Y-61568309D01*
X162850286Y-61395000D01*
X162150286Y-61395000D01*
X162150286Y-62244999D01*
X161626969Y-62244999D01*
X161650286Y-62244998D01*
X161650286Y-60895000D01*
X162150286Y-60895000D01*
X162850285Y-60895000D01*
X162850285Y-60721688D01*
X162850284Y-60721680D01*
X162850281Y-60721647D01*
X164249786Y-60721647D01*
X164249786Y-61568337D01*
X164249787Y-61568355D01*
X164259936Y-61667707D01*
X164259937Y-61667710D01*
X164313282Y-61828694D01*
X164313287Y-61828705D01*
X164402315Y-61973040D01*
X164402318Y-61973044D01*
X164522241Y-62092967D01*
X164522245Y-62092970D01*
X164666580Y-62181998D01*
X164666583Y-62181999D01*
X164666589Y-62182003D01*
X164827578Y-62235349D01*
X164926941Y-62245500D01*
X165473630Y-62245499D01*
X165473638Y-62245498D01*
X165473641Y-62245498D01*
X165528046Y-62239940D01*
X165572994Y-62235349D01*
X165733983Y-62182003D01*
X165878330Y-62092968D01*
X165889479Y-62081819D01*
X165916406Y-62067115D01*
X165942225Y-62050523D01*
X165948425Y-62049631D01*
X165950802Y-62048334D01*
X165977160Y-62045500D01*
X166123412Y-62045500D01*
X166190451Y-62065185D01*
X166211093Y-62081819D01*
X166222241Y-62092967D01*
X166222245Y-62092970D01*
X166366580Y-62181998D01*
X166366583Y-62181999D01*
X166366589Y-62182003D01*
X166527578Y-62235349D01*
X166626941Y-62245500D01*
X167173630Y-62245499D01*
X167173638Y-62245498D01*
X167173641Y-62245498D01*
X167228046Y-62239940D01*
X167272994Y-62235349D01*
X167433983Y-62182003D01*
X167578330Y-62092968D01*
X167698254Y-61973044D01*
X167787289Y-61828697D01*
X167840635Y-61667708D01*
X167850786Y-61568345D01*
X167850785Y-60721656D01*
X167850784Y-60721647D01*
X169249786Y-60721647D01*
X169249786Y-61568337D01*
X169249787Y-61568355D01*
X169259936Y-61667707D01*
X169259937Y-61667710D01*
X169313282Y-61828694D01*
X169313287Y-61828705D01*
X169402315Y-61973040D01*
X169402318Y-61973044D01*
X169522241Y-62092967D01*
X169522245Y-62092970D01*
X169666580Y-62181998D01*
X169666583Y-62181999D01*
X169666589Y-62182003D01*
X169827578Y-62235349D01*
X169926941Y-62245500D01*
X170473630Y-62245499D01*
X170473638Y-62245498D01*
X170473641Y-62245498D01*
X170528046Y-62239940D01*
X170572994Y-62235349D01*
X170733983Y-62182003D01*
X170878330Y-62092968D01*
X170889479Y-62081819D01*
X170916406Y-62067115D01*
X170942225Y-62050523D01*
X170948425Y-62049631D01*
X170950802Y-62048334D01*
X170977160Y-62045500D01*
X171023412Y-62045500D01*
X171090451Y-62065185D01*
X171111093Y-62081819D01*
X171122241Y-62092967D01*
X171122245Y-62092970D01*
X171266580Y-62181998D01*
X171266583Y-62181999D01*
X171266589Y-62182003D01*
X171427578Y-62235349D01*
X171526941Y-62245500D01*
X172073630Y-62245499D01*
X172073638Y-62245498D01*
X172073641Y-62245498D01*
X172128046Y-62239940D01*
X172172994Y-62235349D01*
X172333983Y-62182003D01*
X172478330Y-62092968D01*
X172598254Y-61973044D01*
X172687289Y-61828697D01*
X172740635Y-61667708D01*
X172750786Y-61568345D01*
X172750785Y-60721656D01*
X172750784Y-60721647D01*
X174149786Y-60721647D01*
X174149786Y-61568337D01*
X174149787Y-61568355D01*
X174159936Y-61667707D01*
X174159937Y-61667710D01*
X174213282Y-61828694D01*
X174213287Y-61828705D01*
X174302315Y-61973040D01*
X174302318Y-61973044D01*
X174422241Y-62092967D01*
X174422245Y-62092970D01*
X174566580Y-62181998D01*
X174566583Y-62181999D01*
X174566589Y-62182003D01*
X174727578Y-62235349D01*
X174826941Y-62245500D01*
X175373630Y-62245499D01*
X175373638Y-62245498D01*
X175373641Y-62245498D01*
X175428046Y-62239940D01*
X175472994Y-62235349D01*
X175633983Y-62182003D01*
X175778330Y-62092968D01*
X175789479Y-62081819D01*
X175816406Y-62067115D01*
X175842225Y-62050523D01*
X175848425Y-62049631D01*
X175850802Y-62048334D01*
X175877160Y-62045500D01*
X176023412Y-62045500D01*
X176090451Y-62065185D01*
X176111093Y-62081819D01*
X176122241Y-62092967D01*
X176122245Y-62092970D01*
X176266580Y-62181998D01*
X176266583Y-62181999D01*
X176266589Y-62182003D01*
X176427578Y-62235349D01*
X176526941Y-62245500D01*
X177073630Y-62245499D01*
X177073638Y-62245498D01*
X177073641Y-62245498D01*
X177128046Y-62239940D01*
X177172994Y-62235349D01*
X177333983Y-62182003D01*
X177478330Y-62092968D01*
X177598254Y-61973044D01*
X177687289Y-61828697D01*
X177740635Y-61667708D01*
X177750786Y-61568345D01*
X177750785Y-60721656D01*
X177750784Y-60721647D01*
X179149786Y-60721647D01*
X179149786Y-61568337D01*
X179149787Y-61568355D01*
X179159936Y-61667707D01*
X179159937Y-61667710D01*
X179213282Y-61828694D01*
X179213287Y-61828705D01*
X179302315Y-61973040D01*
X179302318Y-61973044D01*
X179422241Y-62092967D01*
X179422245Y-62092970D01*
X179566580Y-62181998D01*
X179566583Y-62181999D01*
X179566589Y-62182003D01*
X179727578Y-62235349D01*
X179826941Y-62245500D01*
X180373630Y-62245499D01*
X180373638Y-62245498D01*
X180373641Y-62245498D01*
X180428046Y-62239940D01*
X180472994Y-62235349D01*
X180633983Y-62182003D01*
X180778330Y-62092968D01*
X180789479Y-62081819D01*
X180816406Y-62067115D01*
X180842225Y-62050523D01*
X180848425Y-62049631D01*
X180850802Y-62048334D01*
X180877160Y-62045500D01*
X180923412Y-62045500D01*
X180990451Y-62065185D01*
X181011093Y-62081819D01*
X181022241Y-62092967D01*
X181022245Y-62092970D01*
X181166580Y-62181998D01*
X181166583Y-62181999D01*
X181166589Y-62182003D01*
X181327578Y-62235349D01*
X181426941Y-62245500D01*
X181973630Y-62245499D01*
X181973638Y-62245498D01*
X181973641Y-62245498D01*
X182028046Y-62239940D01*
X182072994Y-62235349D01*
X182233983Y-62182003D01*
X182378330Y-62092968D01*
X182498254Y-61973044D01*
X182587289Y-61828697D01*
X182640635Y-61667708D01*
X182650786Y-61568345D01*
X182650785Y-60721656D01*
X182648286Y-60697196D01*
X182640635Y-60622292D01*
X182640634Y-60622289D01*
X182598222Y-60494297D01*
X182587289Y-60461303D01*
X182587285Y-60461297D01*
X182587284Y-60461294D01*
X182498256Y-60316959D01*
X182498253Y-60316955D01*
X182378330Y-60197032D01*
X182378326Y-60197029D01*
X182233991Y-60108001D01*
X182233985Y-60107998D01*
X182233983Y-60107997D01*
X182233980Y-60107996D01*
X182072995Y-60054651D01*
X181973632Y-60044500D01*
X181426948Y-60044500D01*
X181426930Y-60044501D01*
X181327578Y-60054650D01*
X181327575Y-60054651D01*
X181166591Y-60107996D01*
X181166580Y-60108001D01*
X181022245Y-60197029D01*
X181022241Y-60197032D01*
X181011093Y-60208181D01*
X180984165Y-60222884D01*
X180958347Y-60239477D01*
X180952146Y-60240368D01*
X180949770Y-60241666D01*
X180923412Y-60244500D01*
X180877160Y-60244500D01*
X180810121Y-60224815D01*
X180789479Y-60208181D01*
X180778330Y-60197032D01*
X180778326Y-60197029D01*
X180633991Y-60108001D01*
X180633985Y-60107998D01*
X180633983Y-60107997D01*
X180633980Y-60107996D01*
X180472995Y-60054651D01*
X180373632Y-60044500D01*
X179826948Y-60044500D01*
X179826930Y-60044501D01*
X179727578Y-60054650D01*
X179727575Y-60054651D01*
X179566591Y-60107996D01*
X179566580Y-60108001D01*
X179422245Y-60197029D01*
X179422241Y-60197032D01*
X179302318Y-60316955D01*
X179302315Y-60316959D01*
X179213287Y-60461294D01*
X179213282Y-60461305D01*
X179159937Y-60622290D01*
X179149786Y-60721647D01*
X177750784Y-60721647D01*
X177748286Y-60697196D01*
X177740635Y-60622292D01*
X177740634Y-60622289D01*
X177698222Y-60494297D01*
X177687289Y-60461303D01*
X177687285Y-60461297D01*
X177687284Y-60461294D01*
X177598256Y-60316959D01*
X177598253Y-60316955D01*
X177478330Y-60197032D01*
X177478326Y-60197029D01*
X177333991Y-60108001D01*
X177333985Y-60107998D01*
X177333983Y-60107997D01*
X177333980Y-60107996D01*
X177172995Y-60054651D01*
X177073632Y-60044500D01*
X176526948Y-60044500D01*
X176526930Y-60044501D01*
X176427578Y-60054650D01*
X176427575Y-60054651D01*
X176266591Y-60107996D01*
X176266580Y-60108001D01*
X176122245Y-60197029D01*
X176122241Y-60197032D01*
X176111093Y-60208181D01*
X176084165Y-60222884D01*
X176058347Y-60239477D01*
X176052146Y-60240368D01*
X176049770Y-60241666D01*
X176023412Y-60244500D01*
X175877160Y-60244500D01*
X175810121Y-60224815D01*
X175789479Y-60208181D01*
X175778330Y-60197032D01*
X175778326Y-60197029D01*
X175633991Y-60108001D01*
X175633985Y-60107998D01*
X175633983Y-60107997D01*
X175633980Y-60107996D01*
X175472995Y-60054651D01*
X175373632Y-60044500D01*
X174826948Y-60044500D01*
X174826930Y-60044501D01*
X174727578Y-60054650D01*
X174727575Y-60054651D01*
X174566591Y-60107996D01*
X174566580Y-60108001D01*
X174422245Y-60197029D01*
X174422241Y-60197032D01*
X174302318Y-60316955D01*
X174302315Y-60316959D01*
X174213287Y-60461294D01*
X174213282Y-60461305D01*
X174159937Y-60622290D01*
X174149786Y-60721647D01*
X172750784Y-60721647D01*
X172748286Y-60697196D01*
X172740635Y-60622292D01*
X172740634Y-60622289D01*
X172698222Y-60494297D01*
X172687289Y-60461303D01*
X172687285Y-60461297D01*
X172687284Y-60461294D01*
X172598256Y-60316959D01*
X172598253Y-60316955D01*
X172478330Y-60197032D01*
X172478326Y-60197029D01*
X172333991Y-60108001D01*
X172333985Y-60107998D01*
X172333983Y-60107997D01*
X172333980Y-60107996D01*
X172172995Y-60054651D01*
X172073632Y-60044500D01*
X171526948Y-60044500D01*
X171526930Y-60044501D01*
X171427578Y-60054650D01*
X171427575Y-60054651D01*
X171266591Y-60107996D01*
X171266580Y-60108001D01*
X171122245Y-60197029D01*
X171122241Y-60197032D01*
X171111093Y-60208181D01*
X171084165Y-60222884D01*
X171058347Y-60239477D01*
X171052146Y-60240368D01*
X171049770Y-60241666D01*
X171023412Y-60244500D01*
X170977160Y-60244500D01*
X170910121Y-60224815D01*
X170889479Y-60208181D01*
X170878330Y-60197032D01*
X170878326Y-60197029D01*
X170733991Y-60108001D01*
X170733985Y-60107998D01*
X170733983Y-60107997D01*
X170733980Y-60107996D01*
X170572995Y-60054651D01*
X170473632Y-60044500D01*
X169926948Y-60044500D01*
X169926930Y-60044501D01*
X169827578Y-60054650D01*
X169827575Y-60054651D01*
X169666591Y-60107996D01*
X169666580Y-60108001D01*
X169522245Y-60197029D01*
X169522241Y-60197032D01*
X169402318Y-60316955D01*
X169402315Y-60316959D01*
X169313287Y-60461294D01*
X169313282Y-60461305D01*
X169259937Y-60622290D01*
X169249786Y-60721647D01*
X167850784Y-60721647D01*
X167848286Y-60697196D01*
X167840635Y-60622292D01*
X167840634Y-60622289D01*
X167798222Y-60494297D01*
X167787289Y-60461303D01*
X167787285Y-60461297D01*
X167787284Y-60461294D01*
X167698256Y-60316959D01*
X167698253Y-60316955D01*
X167578330Y-60197032D01*
X167578326Y-60197029D01*
X167433991Y-60108001D01*
X167433985Y-60107998D01*
X167433983Y-60107997D01*
X167433980Y-60107996D01*
X167272995Y-60054651D01*
X167173632Y-60044500D01*
X166626948Y-60044500D01*
X166626930Y-60044501D01*
X166527578Y-60054650D01*
X166527575Y-60054651D01*
X166366591Y-60107996D01*
X166366580Y-60108001D01*
X166222245Y-60197029D01*
X166222241Y-60197032D01*
X166211093Y-60208181D01*
X166184165Y-60222884D01*
X166158347Y-60239477D01*
X166152146Y-60240368D01*
X166149770Y-60241666D01*
X166123412Y-60244500D01*
X165977160Y-60244500D01*
X165910121Y-60224815D01*
X165889479Y-60208181D01*
X165878330Y-60197032D01*
X165878326Y-60197029D01*
X165733991Y-60108001D01*
X165733985Y-60107998D01*
X165733983Y-60107997D01*
X165733980Y-60107996D01*
X165572995Y-60054651D01*
X165473632Y-60044500D01*
X164926948Y-60044500D01*
X164926930Y-60044501D01*
X164827578Y-60054650D01*
X164827575Y-60054651D01*
X164666591Y-60107996D01*
X164666580Y-60108001D01*
X164522245Y-60197029D01*
X164522241Y-60197032D01*
X164402318Y-60316955D01*
X164402315Y-60316959D01*
X164313287Y-60461294D01*
X164313282Y-60461305D01*
X164259937Y-60622290D01*
X164249786Y-60721647D01*
X162850281Y-60721647D01*
X162840141Y-60622392D01*
X162786833Y-60461518D01*
X162786828Y-60461507D01*
X162697861Y-60317271D01*
X162697858Y-60317267D01*
X162578018Y-60197427D01*
X162578014Y-60197424D01*
X162433778Y-60108457D01*
X162433767Y-60108452D01*
X162272892Y-60055144D01*
X162173608Y-60045000D01*
X162150286Y-60045000D01*
X162150286Y-60895000D01*
X161650286Y-60895000D01*
X161650286Y-60044999D01*
X161626979Y-60045000D01*
X161626960Y-60045001D01*
X161527678Y-60055144D01*
X161366804Y-60108452D01*
X161366793Y-60108457D01*
X161222557Y-60197424D01*
X161222553Y-60197427D01*
X161102713Y-60317267D01*
X161102710Y-60317271D01*
X161080324Y-60353565D01*
X161028376Y-60400290D01*
X160959414Y-60411511D01*
X160895332Y-60383668D01*
X160856476Y-60325599D01*
X160850786Y-60288468D01*
X160850786Y-57113382D01*
X164364786Y-57113382D01*
X164364786Y-57626613D01*
X164371199Y-57697192D01*
X164371199Y-57697194D01*
X164371200Y-57697196D01*
X164421808Y-57859606D01*
X164485181Y-57964438D01*
X164509816Y-58005188D01*
X164630097Y-58125469D01*
X164630099Y-58125470D01*
X164630101Y-58125472D01*
X164775680Y-58213478D01*
X164938090Y-58264086D01*
X165008670Y-58270500D01*
X165008673Y-58270500D01*
X165671899Y-58270500D01*
X165671902Y-58270500D01*
X165742482Y-58264086D01*
X165904892Y-58213478D01*
X166050471Y-58125472D01*
X166050479Y-58125463D01*
X166051314Y-58124811D01*
X166052045Y-58124519D01*
X166056890Y-58121591D01*
X166057377Y-58122396D01*
X166116227Y-58098963D01*
X166184809Y-58112312D01*
X166204258Y-58124811D01*
X166205096Y-58125467D01*
X166205101Y-58125472D01*
X166350680Y-58213478D01*
X166513090Y-58264086D01*
X166583670Y-58270500D01*
X166583673Y-58270500D01*
X167096899Y-58270500D01*
X167096902Y-58270500D01*
X167167482Y-58264086D01*
X167329892Y-58213478D01*
X167475471Y-58125472D01*
X167522101Y-58078842D01*
X167577605Y-58023339D01*
X167638928Y-57989854D01*
X167708620Y-57994838D01*
X167752967Y-58023339D01*
X167855097Y-58125469D01*
X167855099Y-58125470D01*
X167855101Y-58125472D01*
X168000680Y-58213478D01*
X168163090Y-58264086D01*
X168233670Y-58270500D01*
X168233673Y-58270500D01*
X168746899Y-58270500D01*
X168746902Y-58270500D01*
X168817482Y-58264086D01*
X168979892Y-58213478D01*
X169125471Y-58125472D01*
X169245758Y-58005185D01*
X169333764Y-57859606D01*
X169384372Y-57697196D01*
X169390786Y-57626616D01*
X169390786Y-57479500D01*
X169393336Y-57470814D01*
X169392048Y-57461853D01*
X169403026Y-57437812D01*
X169410471Y-57412461D01*
X169417311Y-57406533D01*
X169421073Y-57398297D01*
X169443307Y-57384007D01*
X169463275Y-57366706D01*
X169473789Y-57364418D01*
X169479851Y-57360523D01*
X169514786Y-57355500D01*
X169672935Y-57355500D01*
X169739974Y-57375185D01*
X169785729Y-57427989D01*
X169796225Y-57466248D01*
X169801194Y-57512483D01*
X169851488Y-57647328D01*
X169851492Y-57647335D01*
X169937738Y-57762544D01*
X169937741Y-57762547D01*
X170052950Y-57848793D01*
X170052957Y-57848797D01*
X170187803Y-57899091D01*
X170187802Y-57899091D01*
X170194730Y-57899835D01*
X170247413Y-57905500D01*
X171393158Y-57905499D01*
X171452769Y-57899091D01*
X171587617Y-57848796D01*
X171588716Y-57847972D01*
X171590003Y-57847492D01*
X171595398Y-57844547D01*
X171595821Y-57845322D01*
X171654173Y-57823552D01*
X171710484Y-57832673D01*
X171791159Y-57866091D01*
X171953106Y-57898304D01*
X171989278Y-57905499D01*
X171989282Y-57905500D01*
X171989283Y-57905500D01*
X172191290Y-57905500D01*
X172191291Y-57905499D01*
X172389413Y-57866091D01*
X172576042Y-57788786D01*
X172656396Y-57735094D01*
X172723072Y-57714217D01*
X172790452Y-57732701D01*
X172794151Y-57735078D01*
X172874530Y-57788786D01*
X173061159Y-57866091D01*
X173223106Y-57898304D01*
X173259278Y-57905499D01*
X173259282Y-57905500D01*
X173259283Y-57905500D01*
X173461290Y-57905500D01*
X173461291Y-57905499D01*
X173659413Y-57866091D01*
X173846042Y-57788786D01*
X174014004Y-57676558D01*
X174156844Y-57533718D01*
X174239102Y-57410608D01*
X174292713Y-57365804D01*
X174342204Y-57355500D01*
X175422935Y-57355500D01*
X175489974Y-57375185D01*
X175535729Y-57427989D01*
X175546225Y-57466248D01*
X175551194Y-57512483D01*
X175601488Y-57647328D01*
X175601492Y-57647335D01*
X175687738Y-57762544D01*
X175687741Y-57762547D01*
X175802950Y-57848793D01*
X175802957Y-57848797D01*
X175937803Y-57899091D01*
X175937802Y-57899091D01*
X175944730Y-57899835D01*
X175997413Y-57905500D01*
X177143158Y-57905499D01*
X177202769Y-57899091D01*
X177337617Y-57848796D01*
X177338716Y-57847972D01*
X177340003Y-57847492D01*
X177345398Y-57844547D01*
X177345821Y-57845322D01*
X177404173Y-57823552D01*
X177460484Y-57832673D01*
X177541159Y-57866091D01*
X177703106Y-57898304D01*
X177739278Y-57905499D01*
X177739282Y-57905500D01*
X177739283Y-57905500D01*
X177941290Y-57905500D01*
X177941291Y-57905499D01*
X178139413Y-57866091D01*
X178326042Y-57788786D01*
X178406396Y-57735094D01*
X178473072Y-57714217D01*
X178540452Y-57732701D01*
X178544151Y-57735078D01*
X178624530Y-57788786D01*
X178811159Y-57866091D01*
X178973106Y-57898304D01*
X179009278Y-57905499D01*
X179009282Y-57905500D01*
X179009283Y-57905500D01*
X179211290Y-57905500D01*
X179278770Y-57892077D01*
X179348361Y-57898304D01*
X179390643Y-57926013D01*
X179706172Y-58241542D01*
X179761585Y-58296955D01*
X179803745Y-58339115D01*
X179918468Y-58415771D01*
X179918477Y-58415776D01*
X179992753Y-58446542D01*
X179992752Y-58446542D01*
X180001101Y-58450000D01*
X180045957Y-58468580D01*
X180045960Y-58468580D01*
X180045965Y-58468582D01*
X180072831Y-58473925D01*
X180072837Y-58473926D01*
X180072877Y-58473934D01*
X180163223Y-58491905D01*
X180181292Y-58495500D01*
X180181293Y-58495500D01*
X180488412Y-58495500D01*
X180555451Y-58515185D01*
X180576093Y-58531819D01*
X180662241Y-58617967D01*
X180662245Y-58617970D01*
X180806580Y-58706998D01*
X180806583Y-58706999D01*
X180806589Y-58707003D01*
X180967578Y-58760349D01*
X181066941Y-58770500D01*
X181613630Y-58770499D01*
X181613638Y-58770498D01*
X181613641Y-58770498D01*
X181668046Y-58764940D01*
X181712994Y-58760349D01*
X181873983Y-58707003D01*
X182018330Y-58617968D01*
X182027605Y-58608693D01*
X182088928Y-58575208D01*
X182158620Y-58580192D01*
X182202967Y-58608693D01*
X182212241Y-58617967D01*
X182212245Y-58617970D01*
X182356580Y-58706998D01*
X182356583Y-58706999D01*
X182356589Y-58707003D01*
X182517578Y-58760349D01*
X182616941Y-58770500D01*
X182823764Y-58770499D01*
X182890804Y-58790183D01*
X182911446Y-58806818D01*
X182943740Y-58839112D01*
X183058478Y-58915777D01*
X183182380Y-58967098D01*
X183185958Y-58968580D01*
X183185962Y-58968580D01*
X183185963Y-58968581D01*
X183321289Y-58995500D01*
X183321292Y-58995500D01*
X183321293Y-58995500D01*
X184988412Y-58995500D01*
X185055451Y-59015185D01*
X185076093Y-59031819D01*
X185137241Y-59092967D01*
X185137245Y-59092970D01*
X185281580Y-59181998D01*
X185281583Y-59181999D01*
X185281589Y-59182003D01*
X185442578Y-59235349D01*
X185541941Y-59245500D01*
X185748765Y-59245499D01*
X185815805Y-59265183D01*
X185836447Y-59281818D01*
X186146425Y-59591796D01*
X186179910Y-59653119D01*
X186174926Y-59722811D01*
X186171820Y-59730366D01*
X186171811Y-59730385D01*
X186121199Y-59892807D01*
X186114786Y-59963386D01*
X186114786Y-60153480D01*
X186106141Y-60182920D01*
X186099618Y-60212907D01*
X186095863Y-60217922D01*
X186095101Y-60220519D01*
X186078467Y-60241161D01*
X185987043Y-60332585D01*
X185925720Y-60366070D01*
X185856028Y-60361086D01*
X185802096Y-60321815D01*
X185798253Y-60316955D01*
X185678330Y-60197032D01*
X185678326Y-60197029D01*
X185533991Y-60108001D01*
X185533985Y-60107998D01*
X185533983Y-60107997D01*
X185533980Y-60107996D01*
X185372995Y-60054651D01*
X185273632Y-60044500D01*
X184726948Y-60044500D01*
X184726930Y-60044501D01*
X184627578Y-60054650D01*
X184627575Y-60054651D01*
X184466591Y-60107996D01*
X184466580Y-60108001D01*
X184322245Y-60197029D01*
X184322241Y-60197032D01*
X184202318Y-60316955D01*
X184202315Y-60316959D01*
X184113287Y-60461294D01*
X184113282Y-60461305D01*
X184059937Y-60622290D01*
X184049786Y-60721647D01*
X184049786Y-61568337D01*
X184049787Y-61568355D01*
X184059936Y-61667707D01*
X184059937Y-61667710D01*
X184113282Y-61828694D01*
X184113287Y-61828705D01*
X184202315Y-61973040D01*
X184202318Y-61973044D01*
X184322241Y-62092967D01*
X184322245Y-62092970D01*
X184466580Y-62181998D01*
X184466583Y-62181999D01*
X184466589Y-62182003D01*
X184627578Y-62235349D01*
X184726941Y-62245500D01*
X185273630Y-62245499D01*
X185273638Y-62245498D01*
X185273641Y-62245498D01*
X185328046Y-62239940D01*
X185372994Y-62235349D01*
X185533983Y-62182003D01*
X185678330Y-62092968D01*
X185798254Y-61973044D01*
X185840832Y-61904014D01*
X185841064Y-61903645D01*
X185866873Y-61880764D01*
X185892541Y-61857678D01*
X185893045Y-61857563D01*
X185893347Y-61857296D01*
X185896113Y-61856866D01*
X185946131Y-61845500D01*
X186234282Y-61845500D01*
X186325326Y-61827389D01*
X186369614Y-61818580D01*
X186433355Y-61792177D01*
X186497093Y-61765777D01*
X186497094Y-61765776D01*
X186497097Y-61765775D01*
X186611829Y-61689114D01*
X186994124Y-61306819D01*
X187055447Y-61273334D01*
X187081805Y-61270500D01*
X187271899Y-61270500D01*
X187271902Y-61270500D01*
X187342482Y-61264086D01*
X187504892Y-61213478D01*
X187650471Y-61125472D01*
X187697101Y-61078842D01*
X187752605Y-61023339D01*
X187813928Y-60989854D01*
X187883620Y-60994838D01*
X187927967Y-61023339D01*
X188030097Y-61125469D01*
X188030099Y-61125470D01*
X188030101Y-61125472D01*
X188175680Y-61213478D01*
X188338090Y-61264086D01*
X188408670Y-61270500D01*
X188408673Y-61270500D01*
X188921899Y-61270500D01*
X188921902Y-61270500D01*
X188992482Y-61264086D01*
X189154892Y-61213478D01*
X189300471Y-61125472D01*
X189420758Y-61005185D01*
X189508764Y-60859606D01*
X189559372Y-60697196D01*
X189565786Y-60626616D01*
X189565786Y-60436519D01*
X189585471Y-60369480D01*
X189602105Y-60348838D01*
X190170598Y-59780345D01*
X190170600Y-59780343D01*
X190247261Y-59665611D01*
X190292478Y-59556446D01*
X190336318Y-59502043D01*
X190402612Y-59479978D01*
X190407039Y-59479899D01*
X190664957Y-59479899D01*
X190664958Y-59479899D01*
X190724569Y-59473491D01*
X190859417Y-59423196D01*
X190974632Y-59336946D01*
X191060882Y-59221731D01*
X191111177Y-59086883D01*
X191117586Y-59027273D01*
X191117585Y-58372728D01*
X191111189Y-58313227D01*
X191111177Y-58313116D01*
X191060883Y-58178272D01*
X191060882Y-58178269D01*
X191031715Y-58139307D01*
X191007299Y-58073848D01*
X191022150Y-58005575D01*
X191031707Y-57990702D01*
X191060882Y-57951731D01*
X191111177Y-57816883D01*
X191117586Y-57757273D01*
X191117585Y-57102728D01*
X191111177Y-57043117D01*
X191111061Y-57042807D01*
X191060883Y-56908272D01*
X191060882Y-56908269D01*
X191031715Y-56869307D01*
X191007299Y-56803848D01*
X191022150Y-56735575D01*
X191031707Y-56720702D01*
X191060882Y-56681731D01*
X191111177Y-56546883D01*
X191117586Y-56487273D01*
X191117585Y-55832728D01*
X191111517Y-55776279D01*
X191111177Y-55773116D01*
X191060883Y-55638272D01*
X191060882Y-55638269D01*
X191031715Y-55599307D01*
X191007299Y-55533848D01*
X191022150Y-55465575D01*
X191031707Y-55450702D01*
X191060882Y-55411731D01*
X191111177Y-55276883D01*
X191117586Y-55217273D01*
X191117585Y-54562728D01*
X191111177Y-54503117D01*
X191109918Y-54499741D01*
X191109717Y-54496939D01*
X191109393Y-54495566D01*
X191109615Y-54495513D01*
X191104932Y-54430049D01*
X191138416Y-54368726D01*
X191138418Y-54368724D01*
X191316570Y-54190573D01*
X191544114Y-53963029D01*
X191620775Y-53848297D01*
X191627527Y-53831998D01*
X191664403Y-53742970D01*
X191673580Y-53720814D01*
X191679337Y-53691873D01*
X191700500Y-53585479D01*
X191700500Y-53425316D01*
X191709939Y-53377864D01*
X191746082Y-53290606D01*
X191769737Y-53233497D01*
X191792252Y-53120308D01*
X191824637Y-53058397D01*
X191885352Y-53023823D01*
X191913869Y-53020499D01*
X192113436Y-53020499D01*
X192113448Y-53020499D01*
X192148913Y-53017709D01*
X192300676Y-52973618D01*
X192436706Y-52893170D01*
X192548456Y-52781420D01*
X192548461Y-52781411D01*
X192552304Y-52776458D01*
X192608946Y-52735550D01*
X192678713Y-52731758D01*
X192739454Y-52766287D01*
X192748268Y-52776458D01*
X192752114Y-52781416D01*
X192752116Y-52781420D01*
X192752118Y-52781422D01*
X192752122Y-52781427D01*
X192863860Y-52893165D01*
X192863864Y-52893168D01*
X192863866Y-52893170D01*
X192999896Y-52973618D01*
X193151659Y-53017709D01*
X193187123Y-53020500D01*
X193496266Y-53020499D01*
X193563305Y-53040183D01*
X193583947Y-53056818D01*
X193817267Y-53290138D01*
X193850752Y-53351461D01*
X193853586Y-53377819D01*
X193853586Y-53986100D01*
X193833901Y-54053139D01*
X193781097Y-54098894D01*
X193729587Y-54110100D01*
X193515616Y-54110100D01*
X193515609Y-54110101D01*
X193456002Y-54116508D01*
X193321157Y-54166802D01*
X193321150Y-54166806D01*
X193205941Y-54253052D01*
X193205938Y-54253055D01*
X193119692Y-54368264D01*
X193119688Y-54368271D01*
X193069394Y-54503117D01*
X193062987Y-54562716D01*
X193062987Y-54562723D01*
X193062986Y-54562735D01*
X193062986Y-54627880D01*
X193043301Y-54694919D01*
X193026667Y-54715561D01*
X192618374Y-55123853D01*
X192618373Y-55123854D01*
X192541708Y-55238592D01*
X192488907Y-55366067D01*
X192488904Y-55366079D01*
X192462217Y-55500244D01*
X192462211Y-55500276D01*
X192461986Y-55501404D01*
X192461986Y-55501407D01*
X192461986Y-60093492D01*
X192461986Y-60231480D01*
X192461986Y-60231482D01*
X192461985Y-60231482D01*
X192488904Y-60366808D01*
X192488907Y-60366818D01*
X192541708Y-60494293D01*
X192618373Y-60609031D01*
X192618374Y-60609032D01*
X193203928Y-61194585D01*
X193230808Y-61234814D01*
X193290602Y-61379172D01*
X193290609Y-61379185D01*
X193378210Y-61510288D01*
X193378213Y-61510292D01*
X193489707Y-61621786D01*
X193489711Y-61621789D01*
X193620814Y-61709390D01*
X193620827Y-61709397D01*
X193766498Y-61769735D01*
X193766503Y-61769737D01*
X193921153Y-61800499D01*
X193921156Y-61800500D01*
X193921158Y-61800500D01*
X194078844Y-61800500D01*
X194078845Y-61800499D01*
X194233497Y-61769737D01*
X194379179Y-61709394D01*
X194510289Y-61621789D01*
X194621789Y-61510289D01*
X194709394Y-61379179D01*
X194769737Y-61233497D01*
X194800500Y-61078842D01*
X194800500Y-60921158D01*
X194800500Y-60921155D01*
X194800499Y-60921153D01*
X194780035Y-60818274D01*
X194769737Y-60766503D01*
X194751164Y-60721663D01*
X194709397Y-60620827D01*
X194709390Y-60620814D01*
X194621789Y-60489711D01*
X194621786Y-60489707D01*
X194510292Y-60378213D01*
X194510288Y-60378210D01*
X194379185Y-60290609D01*
X194379172Y-60290602D01*
X194234814Y-60230808D01*
X194194585Y-60203928D01*
X193899305Y-59908648D01*
X193884601Y-59881720D01*
X193868009Y-59855902D01*
X193867117Y-59849701D01*
X193865820Y-59847325D01*
X193862986Y-59820967D01*
X193862986Y-59603400D01*
X193882671Y-59536361D01*
X193935475Y-59490606D01*
X193986986Y-59479400D01*
X194304086Y-59479400D01*
X194804086Y-59479400D01*
X195592514Y-59479400D01*
X195592530Y-59479399D01*
X195652058Y-59472998D01*
X195652065Y-59472996D01*
X195786772Y-59422754D01*
X195786779Y-59422750D01*
X195901873Y-59336590D01*
X195901876Y-59336587D01*
X195988036Y-59221493D01*
X195988040Y-59221486D01*
X196038282Y-59086779D01*
X196038284Y-59086772D01*
X196044685Y-59027244D01*
X196044686Y-59027227D01*
X196044686Y-58950000D01*
X194804086Y-58950000D01*
X194804086Y-59479400D01*
X194304086Y-59479400D01*
X194304086Y-58450000D01*
X194804086Y-58450000D01*
X196044686Y-58450000D01*
X196044686Y-58372772D01*
X196044685Y-58372755D01*
X196038284Y-58313227D01*
X196038283Y-58313223D01*
X195988038Y-58178511D01*
X195988037Y-58178510D01*
X195958693Y-58139312D01*
X195934275Y-58073848D01*
X195949126Y-58005575D01*
X195958693Y-57990688D01*
X195988037Y-57951489D01*
X195988038Y-57951488D01*
X196038283Y-57816776D01*
X196038284Y-57816772D01*
X196044686Y-57757232D01*
X196044686Y-57680000D01*
X194804086Y-57680000D01*
X194804086Y-58450000D01*
X194304086Y-58450000D01*
X194304086Y-57554000D01*
X194323771Y-57486961D01*
X194376575Y-57441206D01*
X194428086Y-57430000D01*
X194554086Y-57430000D01*
X194554086Y-57304000D01*
X194573771Y-57236961D01*
X194626575Y-57191206D01*
X194678086Y-57180000D01*
X196044686Y-57180000D01*
X196044686Y-57102772D01*
X196044685Y-57102755D01*
X196038284Y-57043227D01*
X196038282Y-57043220D01*
X195988040Y-56908513D01*
X195988036Y-56908506D01*
X195959006Y-56869727D01*
X195934588Y-56804263D01*
X195949439Y-56735990D01*
X195959000Y-56721113D01*
X195988482Y-56681731D01*
X195988484Y-56681727D01*
X196038777Y-56546883D01*
X196045185Y-56487286D01*
X196045185Y-56487282D01*
X196045186Y-56487273D01*
X196045185Y-56422118D01*
X196053829Y-56392677D01*
X196060353Y-56362691D01*
X196064106Y-56357677D01*
X196064869Y-56355080D01*
X196081499Y-56334442D01*
X196177503Y-56238439D01*
X196238823Y-56204956D01*
X196308515Y-56209940D01*
X196364448Y-56251812D01*
X196379742Y-56278669D01*
X196411393Y-56355080D01*
X196417685Y-56370271D01*
X196423637Y-56379179D01*
X196494347Y-56485005D01*
X197503455Y-57494113D01*
X197618193Y-57570778D01*
X197739024Y-57620827D01*
X197745673Y-57623581D01*
X197781692Y-57630745D01*
X197808120Y-57636003D01*
X197818978Y-57640844D01*
X197827260Y-57641437D01*
X197858237Y-57658351D01*
X197871858Y-57668548D01*
X197913731Y-57724479D01*
X197921550Y-57767816D01*
X197921550Y-58015554D01*
X197901865Y-58082593D01*
X197862647Y-58121092D01*
X197771959Y-58177029D01*
X197771955Y-58177032D01*
X197652032Y-58296955D01*
X197652029Y-58296959D01*
X197563001Y-58441294D01*
X197562996Y-58441305D01*
X197509651Y-58602290D01*
X197499500Y-58701647D01*
X197499500Y-59298337D01*
X197499501Y-59298355D01*
X197509650Y-59397707D01*
X197509651Y-59397710D01*
X197562996Y-59558694D01*
X197563001Y-59558705D01*
X197652029Y-59703040D01*
X197652032Y-59703044D01*
X197771955Y-59822967D01*
X197771959Y-59822970D01*
X197916294Y-59911998D01*
X197916297Y-59911999D01*
X197916303Y-59912003D01*
X198077292Y-59965349D01*
X198176655Y-59975500D01*
X198723344Y-59975499D01*
X198723352Y-59975498D01*
X198723355Y-59975498D01*
X198777760Y-59969940D01*
X198822708Y-59965349D01*
X198983697Y-59912003D01*
X199128044Y-59822968D01*
X199137668Y-59813343D01*
X199198987Y-59779856D01*
X199268679Y-59784835D01*
X199313034Y-59813339D01*
X199322267Y-59822572D01*
X199322271Y-59822575D01*
X199466507Y-59911542D01*
X199466518Y-59911547D01*
X199627393Y-59964855D01*
X199726683Y-59974999D01*
X200250000Y-59974999D01*
X200273308Y-59974999D01*
X200273322Y-59974998D01*
X200372607Y-59964855D01*
X200533481Y-59911547D01*
X200533492Y-59911542D01*
X200677728Y-59822575D01*
X200677732Y-59822572D01*
X200797572Y-59702732D01*
X200797575Y-59702728D01*
X200886542Y-59558492D01*
X200886547Y-59558481D01*
X200915908Y-59469877D01*
X200939855Y-59397606D01*
X200949999Y-59298322D01*
X200950000Y-59298309D01*
X200950000Y-59250000D01*
X200250000Y-59250000D01*
X200250000Y-59974999D01*
X199726683Y-59974999D01*
X199750000Y-59974998D01*
X199750000Y-58750000D01*
X200250000Y-58750000D01*
X200949999Y-58750000D01*
X200949999Y-58701692D01*
X200949998Y-58701677D01*
X200939855Y-58602392D01*
X200886547Y-58441518D01*
X200886542Y-58441507D01*
X200797575Y-58297271D01*
X200797572Y-58297267D01*
X200677732Y-58177427D01*
X200677728Y-58177424D01*
X200533492Y-58088457D01*
X200533481Y-58088452D01*
X200372606Y-58035144D01*
X200273322Y-58025000D01*
X200250000Y-58025000D01*
X200250000Y-58750000D01*
X199750000Y-58750000D01*
X199750000Y-58024999D01*
X199726693Y-58025000D01*
X199726674Y-58025001D01*
X199627391Y-58035144D01*
X199485553Y-58082144D01*
X199457089Y-58083123D01*
X199428903Y-58087176D01*
X199422624Y-58084308D01*
X199415725Y-58084546D01*
X199391249Y-58069980D01*
X199365347Y-58058151D01*
X199361615Y-58052344D01*
X199355683Y-58048814D01*
X199342968Y-58023328D01*
X199327573Y-57999373D01*
X199326178Y-57989675D01*
X199324491Y-57986293D01*
X199322550Y-57964438D01*
X199322550Y-57767816D01*
X199342235Y-57700777D01*
X199372236Y-57668551D01*
X199481246Y-57586947D01*
X199567496Y-57471732D01*
X199617791Y-57336884D01*
X199624200Y-57277274D01*
X199624199Y-56622729D01*
X199624199Y-56622728D01*
X200375800Y-56622728D01*
X200375800Y-56622735D01*
X200375800Y-56622736D01*
X200375800Y-57277271D01*
X200375801Y-57277277D01*
X200382208Y-57336884D01*
X200432502Y-57471729D01*
X200432506Y-57471736D01*
X200518752Y-57586945D01*
X200518755Y-57586948D01*
X200633964Y-57673194D01*
X200633973Y-57673199D01*
X200677449Y-57689414D01*
X200728008Y-57708271D01*
X200783942Y-57750141D01*
X200787767Y-57755547D01*
X200809154Y-57787554D01*
X200833837Y-57824495D01*
X200833838Y-57824496D01*
X201203928Y-58194585D01*
X201230808Y-58234814D01*
X201290602Y-58379172D01*
X201290609Y-58379185D01*
X201378210Y-58510288D01*
X201378213Y-58510292D01*
X201489707Y-58621786D01*
X201489711Y-58621789D01*
X201620814Y-58709390D01*
X201620827Y-58709397D01*
X201743838Y-58760349D01*
X201766503Y-58769737D01*
X201921153Y-58800499D01*
X201921156Y-58800500D01*
X201921158Y-58800500D01*
X202078844Y-58800500D01*
X202078845Y-58800499D01*
X202233497Y-58769737D01*
X202379179Y-58709394D01*
X202510289Y-58621789D01*
X202621789Y-58510289D01*
X202709394Y-58379179D01*
X202769737Y-58233497D01*
X202777477Y-58194585D01*
X202791554Y-58123819D01*
X202791554Y-58123818D01*
X202800499Y-58078846D01*
X202800500Y-58078844D01*
X202800500Y-57921155D01*
X202800499Y-57921153D01*
X202792143Y-57879146D01*
X202769737Y-57766503D01*
X202762960Y-57750141D01*
X202709397Y-57620827D01*
X202709390Y-57620814D01*
X202621789Y-57489711D01*
X202621786Y-57489707D01*
X202510292Y-57378213D01*
X202510288Y-57378210D01*
X202435208Y-57328043D01*
X202390403Y-57274431D01*
X202380099Y-57224945D01*
X202380099Y-56622729D01*
X202373691Y-56563118D01*
X202356719Y-56517615D01*
X202351736Y-56447926D01*
X202356721Y-56430948D01*
X202373198Y-56386772D01*
X202379599Y-56327244D01*
X202379600Y-56327227D01*
X202379600Y-56250000D01*
X202194187Y-56250000D01*
X202127148Y-56230315D01*
X202122684Y-56227216D01*
X202121929Y-56226803D01*
X201987082Y-56176509D01*
X201987083Y-56176509D01*
X201927483Y-56170102D01*
X201927481Y-56170101D01*
X201927473Y-56170101D01*
X201927465Y-56170101D01*
X200828429Y-56170101D01*
X200828423Y-56170102D01*
X200768816Y-56176509D01*
X200633970Y-56226803D01*
X200626188Y-56231054D01*
X200625226Y-56229293D01*
X200570561Y-56249684D01*
X200561713Y-56250000D01*
X200376300Y-56250000D01*
X200376300Y-56327244D01*
X200382701Y-56386772D01*
X200382703Y-56386782D01*
X200399178Y-56430953D01*
X200404162Y-56500644D01*
X200399179Y-56517616D01*
X200382707Y-56561782D01*
X200382209Y-56563118D01*
X200375800Y-56622728D01*
X199624199Y-56622728D01*
X199617791Y-56563118D01*
X199605380Y-56529843D01*
X199567497Y-56428272D01*
X199567493Y-56428265D01*
X199481247Y-56313056D01*
X199481244Y-56313053D01*
X199366035Y-56226807D01*
X199366028Y-56226803D01*
X199231182Y-56176509D01*
X199231183Y-56176509D01*
X199171583Y-56170102D01*
X199171581Y-56170101D01*
X199171573Y-56170101D01*
X199171565Y-56170101D01*
X198212120Y-56170101D01*
X198182679Y-56161456D01*
X198152693Y-56154933D01*
X198147677Y-56151178D01*
X198145081Y-56150416D01*
X198124439Y-56133782D01*
X198032236Y-56041579D01*
X197998751Y-55980256D01*
X198003735Y-55910564D01*
X198045607Y-55854631D01*
X198111071Y-55830214D01*
X198119890Y-55829898D01*
X199171572Y-55829898D01*
X199231183Y-55823490D01*
X199366031Y-55773195D01*
X199481246Y-55686945D01*
X199567496Y-55571730D01*
X199617791Y-55436882D01*
X199624200Y-55377272D01*
X199624199Y-54722727D01*
X199617791Y-54663116D01*
X199616062Y-54658481D01*
X199567497Y-54528270D01*
X199567493Y-54528263D01*
X199481247Y-54413054D01*
X199481244Y-54413051D01*
X199366035Y-54326805D01*
X199366028Y-54326801D01*
X199231182Y-54276507D01*
X199231183Y-54276507D01*
X199171583Y-54270100D01*
X199171581Y-54270099D01*
X199171573Y-54270099D01*
X199171564Y-54270099D01*
X198072529Y-54270099D01*
X198072523Y-54270100D01*
X198012915Y-54276508D01*
X197949336Y-54300221D01*
X197879644Y-54305205D01*
X197818322Y-54271719D01*
X197784837Y-54210396D01*
X197784387Y-54159847D01*
X197800500Y-54078844D01*
X197800500Y-53921155D01*
X197800499Y-53921153D01*
X197791412Y-53875468D01*
X197769737Y-53766503D01*
X197761037Y-53745500D01*
X197709397Y-53620827D01*
X197709390Y-53620814D01*
X197621789Y-53489711D01*
X197621786Y-53489707D01*
X197510292Y-53378213D01*
X197510288Y-53378210D01*
X197379185Y-53290609D01*
X197379172Y-53290602D01*
X197233501Y-53230264D01*
X197233489Y-53230261D01*
X197078845Y-53199500D01*
X197078842Y-53199500D01*
X196921158Y-53199500D01*
X196921155Y-53199500D01*
X196766510Y-53230261D01*
X196766498Y-53230264D01*
X196620827Y-53290602D01*
X196620814Y-53290609D01*
X196489711Y-53378210D01*
X196489707Y-53378213D01*
X196378213Y-53489707D01*
X196378210Y-53489711D01*
X196290609Y-53620814D01*
X196290604Y-53620823D01*
X196230809Y-53765184D01*
X196203929Y-53805412D01*
X195883804Y-54125537D01*
X195822481Y-54159022D01*
X195752790Y-54154038D01*
X195652168Y-54116508D01*
X195652169Y-54116508D01*
X195592569Y-54110101D01*
X195592567Y-54110100D01*
X195592559Y-54110100D01*
X195592551Y-54110100D01*
X195378586Y-54110100D01*
X195311547Y-54090415D01*
X195265792Y-54037611D01*
X195254586Y-53986100D01*
X195254586Y-52967306D01*
X195247365Y-52931008D01*
X195247365Y-52931005D01*
X195236989Y-52878842D01*
X195227666Y-52831972D01*
X195216657Y-52805393D01*
X195174863Y-52704492D01*
X195098198Y-52589754D01*
X194987104Y-52478660D01*
X194953619Y-52417337D01*
X194950785Y-52390979D01*
X194950785Y-52081849D01*
X194950784Y-52081824D01*
X194950247Y-52074998D01*
X194947995Y-52046373D01*
X194928594Y-51979595D01*
X194928594Y-51961945D01*
X194923671Y-51945354D01*
X194928594Y-51910405D01*
X194935707Y-51885922D01*
X194973313Y-51827036D01*
X195036786Y-51797830D01*
X195105972Y-51807576D01*
X195142464Y-51832836D01*
X195240097Y-51930469D01*
X195240099Y-51930470D01*
X195240101Y-51930472D01*
X195385680Y-52018478D01*
X195548090Y-52069086D01*
X195618670Y-52075500D01*
X195618673Y-52075500D01*
X196131899Y-52075500D01*
X196131902Y-52075500D01*
X196202482Y-52069086D01*
X196364892Y-52018478D01*
X196510471Y-51930472D01*
X196612959Y-51827983D01*
X196674280Y-51794499D01*
X196743971Y-51799483D01*
X196788320Y-51827984D01*
X196890408Y-51930072D01*
X197035890Y-52018019D01*
X197035889Y-52018019D01*
X197198180Y-52068590D01*
X197198179Y-52068590D01*
X197268694Y-52074998D01*
X197268712Y-52074999D01*
X197275285Y-52074998D01*
X197275286Y-52074998D01*
X197275286Y-50125000D01*
X197275285Y-50124999D01*
X197268722Y-50125000D01*
X197268703Y-50125001D01*
X197198183Y-50131408D01*
X197198178Y-50131409D01*
X197035889Y-50181981D01*
X196985628Y-50212365D01*
X196918073Y-50230201D01*
X196851599Y-50208683D01*
X196807312Y-50154643D01*
X196799271Y-50085237D01*
X196799861Y-50082054D01*
X196800499Y-50078846D01*
X196800500Y-50078842D01*
X196800500Y-49921158D01*
X196800500Y-49921155D01*
X196800499Y-49921153D01*
X196778107Y-49808583D01*
X196769737Y-49766503D01*
X196741869Y-49699222D01*
X196709939Y-49622136D01*
X196700500Y-49574684D01*
X196700500Y-48931006D01*
X196699903Y-48924949D01*
X196701178Y-48924823D01*
X196706809Y-48861853D01*
X196749668Y-48806673D01*
X196815556Y-48783423D01*
X196846390Y-48785627D01*
X196889974Y-48794297D01*
X196921157Y-48800500D01*
X196921158Y-48800500D01*
X197078844Y-48800500D01*
X197078845Y-48800499D01*
X197233497Y-48769737D01*
X197312969Y-48736819D01*
X197377864Y-48709939D01*
X197425316Y-48700500D01*
X198435200Y-48700500D01*
X198502239Y-48720185D01*
X198547994Y-48772989D01*
X198557938Y-48842147D01*
X198528913Y-48905703D01*
X198504092Y-48927602D01*
X198489707Y-48937213D01*
X198378213Y-49048707D01*
X198378210Y-49048711D01*
X198290609Y-49179814D01*
X198290602Y-49179827D01*
X198230264Y-49325498D01*
X198230261Y-49325510D01*
X198199500Y-49480153D01*
X198199500Y-49637846D01*
X198230261Y-49792489D01*
X198230264Y-49792501D01*
X198290061Y-49936864D01*
X198291687Y-49945040D01*
X198294477Y-49949381D01*
X198299500Y-49984316D01*
X198299500Y-50134301D01*
X198279815Y-50201340D01*
X198227011Y-50247095D01*
X198157853Y-50257039D01*
X198111350Y-50240418D01*
X198014682Y-50181980D01*
X197852391Y-50131409D01*
X197852392Y-50131409D01*
X197781858Y-50125000D01*
X197775286Y-50125000D01*
X197775286Y-52074999D01*
X197781867Y-52074999D01*
X197852388Y-52068591D01*
X197852393Y-52068590D01*
X198014682Y-52018018D01*
X198160163Y-51930072D01*
X198280358Y-51809877D01*
X198368305Y-51664395D01*
X198418876Y-51502106D01*
X198425285Y-51431572D01*
X198425285Y-51265306D01*
X198444969Y-51198266D01*
X198497773Y-51152511D01*
X198566931Y-51142567D01*
X198630487Y-51171592D01*
X198636966Y-51177624D01*
X199988181Y-52528838D01*
X200021666Y-52590161D01*
X200024500Y-52616518D01*
X200024500Y-52823336D01*
X200024501Y-52823355D01*
X200034650Y-52922707D01*
X200034651Y-52922710D01*
X200087996Y-53083694D01*
X200088001Y-53083705D01*
X200177029Y-53228040D01*
X200177032Y-53228044D01*
X200296955Y-53347967D01*
X200296959Y-53347970D01*
X200441294Y-53436998D01*
X200441297Y-53436999D01*
X200441303Y-53437003D01*
X200592454Y-53487089D01*
X200649899Y-53526862D01*
X200676722Y-53591377D01*
X200677450Y-53604795D01*
X200677450Y-54232184D01*
X200657765Y-54299223D01*
X200627763Y-54331448D01*
X200518754Y-54413053D01*
X200518753Y-54413054D01*
X200518752Y-54413055D01*
X200432506Y-54528263D01*
X200432502Y-54528270D01*
X200382210Y-54663112D01*
X200382209Y-54663116D01*
X200375800Y-54722726D01*
X200375800Y-54722733D01*
X200375800Y-54722734D01*
X200375800Y-55377269D01*
X200375801Y-55377275D01*
X200382209Y-55436883D01*
X200399178Y-55482381D01*
X200404162Y-55552073D01*
X200399179Y-55569044D01*
X200382703Y-55613220D01*
X200382701Y-55613227D01*
X200376300Y-55672755D01*
X200376300Y-55750000D01*
X200561713Y-55750000D01*
X200628752Y-55769685D01*
X200633215Y-55772783D01*
X200633970Y-55773196D01*
X200697496Y-55796889D01*
X200768817Y-55823490D01*
X200828427Y-55829899D01*
X201927472Y-55829898D01*
X201987083Y-55823490D01*
X202021174Y-55810775D01*
X202121929Y-55773196D01*
X202129712Y-55768946D01*
X202130673Y-55770706D01*
X202185339Y-55750316D01*
X202194187Y-55750000D01*
X202379599Y-55750000D01*
X202387221Y-55742378D01*
X202448544Y-55708892D01*
X202518235Y-55713876D01*
X202548153Y-55731088D01*
X202548393Y-55730730D01*
X202668182Y-55810771D01*
X202668195Y-55810778D01*
X202744678Y-55842458D01*
X202795672Y-55863580D01*
X202855213Y-55875423D01*
X202917123Y-55907807D01*
X202918702Y-55909359D01*
X203203928Y-56194585D01*
X203230808Y-56234814D01*
X203290602Y-56379172D01*
X203290609Y-56379185D01*
X203378210Y-56510288D01*
X203378213Y-56510292D01*
X203489707Y-56621786D01*
X203489711Y-56621789D01*
X203620814Y-56709390D01*
X203620827Y-56709397D01*
X203766498Y-56769735D01*
X203766503Y-56769737D01*
X203893508Y-56795000D01*
X203921153Y-56800499D01*
X203921156Y-56800500D01*
X203992256Y-56800500D01*
X204059295Y-56820185D01*
X204105050Y-56872989D01*
X204114994Y-56942147D01*
X204114729Y-56943899D01*
X204110000Y-56973755D01*
X204110000Y-57186246D01*
X204143242Y-57396127D01*
X204143242Y-57396130D01*
X204208904Y-57598217D01*
X204305375Y-57787550D01*
X204344728Y-57841716D01*
X204977037Y-57209408D01*
X204994075Y-57272993D01*
X205059901Y-57387007D01*
X205152993Y-57480099D01*
X205267007Y-57545925D01*
X205330591Y-57562962D01*
X204729971Y-58163581D01*
X204808711Y-58280895D01*
X204809920Y-58284729D01*
X204812844Y-58287491D01*
X204820343Y-58317778D01*
X204829727Y-58347529D01*
X204828671Y-58351408D01*
X204829638Y-58355312D01*
X204819573Y-58384844D01*
X204811383Y-58414947D01*
X204808397Y-58417640D01*
X204807100Y-58421447D01*
X204762051Y-58460483D01*
X204752440Y-58465380D01*
X204698282Y-58504727D01*
X204698282Y-58504728D01*
X205330591Y-59137037D01*
X205267007Y-59154075D01*
X205152993Y-59219901D01*
X205059901Y-59312993D01*
X204994075Y-59427007D01*
X204977037Y-59490591D01*
X204344728Y-58858282D01*
X204344727Y-58858282D01*
X204305380Y-58912439D01*
X204208904Y-59101782D01*
X204143242Y-59303869D01*
X204143242Y-59303872D01*
X204110000Y-59513753D01*
X204110000Y-59726246D01*
X204143242Y-59936127D01*
X204143242Y-59936130D01*
X204208904Y-60138217D01*
X204305375Y-60327550D01*
X204344728Y-60381716D01*
X204977037Y-59749408D01*
X204994075Y-59812993D01*
X205059901Y-59927007D01*
X205152993Y-60020099D01*
X205267007Y-60085925D01*
X205330590Y-60102962D01*
X204698282Y-60735269D01*
X204698282Y-60735270D01*
X204752452Y-60774626D01*
X204752451Y-60774626D01*
X204761495Y-60779234D01*
X204812292Y-60827208D01*
X204829087Y-60895029D01*
X204806550Y-60961164D01*
X204761499Y-61000202D01*
X204752182Y-61004949D01*
X204580213Y-61129890D01*
X204429890Y-61280213D01*
X204304951Y-61452179D01*
X204208444Y-61641585D01*
X204142753Y-61843760D01*
X204109500Y-62053713D01*
X204109500Y-62266286D01*
X204142753Y-62476239D01*
X204208444Y-62678414D01*
X204304951Y-62867820D01*
X204429890Y-63039786D01*
X204580213Y-63190109D01*
X204752179Y-63315048D01*
X204752181Y-63315049D01*
X204752184Y-63315051D01*
X204941588Y-63411557D01*
X205143757Y-63477246D01*
X205353713Y-63510500D01*
X205353714Y-63510500D01*
X205566286Y-63510500D01*
X205566287Y-63510500D01*
X205776243Y-63477246D01*
X205978412Y-63411557D01*
X206167816Y-63315051D01*
X206189789Y-63299086D01*
X206339786Y-63190109D01*
X206339788Y-63190106D01*
X206339792Y-63190104D01*
X206490104Y-63039792D01*
X206490106Y-63039788D01*
X206490109Y-63039786D01*
X206615048Y-62867820D01*
X206615047Y-62867820D01*
X206615051Y-62867816D01*
X206619514Y-62859054D01*
X206667488Y-62808259D01*
X206735308Y-62791463D01*
X206801444Y-62813999D01*
X206840486Y-62859056D01*
X206844951Y-62867820D01*
X206969890Y-63039786D01*
X207120213Y-63190109D01*
X207292179Y-63315048D01*
X207292181Y-63315049D01*
X207292184Y-63315051D01*
X207481588Y-63411557D01*
X207683757Y-63477246D01*
X207893713Y-63510500D01*
X207893714Y-63510500D01*
X208106286Y-63510500D01*
X208106287Y-63510500D01*
X208316243Y-63477246D01*
X208518412Y-63411557D01*
X208707816Y-63315051D01*
X208729789Y-63299086D01*
X208879786Y-63190109D01*
X208879788Y-63190106D01*
X208879792Y-63190104D01*
X209030104Y-63039792D01*
X209030106Y-63039788D01*
X209030109Y-63039786D01*
X209155048Y-62867820D01*
X209155047Y-62867820D01*
X209155051Y-62867816D01*
X209251557Y-62678412D01*
X209317246Y-62476243D01*
X209350500Y-62266287D01*
X209350500Y-62053713D01*
X209317246Y-61843757D01*
X209251557Y-61641588D01*
X209155051Y-61452184D01*
X209155049Y-61452181D01*
X209155048Y-61452179D01*
X209030109Y-61280213D01*
X208879786Y-61129890D01*
X208707817Y-61004949D01*
X208698504Y-61000204D01*
X208647707Y-60952230D01*
X208630912Y-60884409D01*
X208653449Y-60818274D01*
X208698507Y-60779232D01*
X208707555Y-60774622D01*
X208761716Y-60735270D01*
X208761717Y-60735270D01*
X208129408Y-60102962D01*
X208192993Y-60085925D01*
X208307007Y-60020099D01*
X208400099Y-59927007D01*
X208465925Y-59812993D01*
X208482962Y-59749409D01*
X209115270Y-60381717D01*
X209115270Y-60381716D01*
X209154622Y-60327554D01*
X209251095Y-60138217D01*
X209316757Y-59936130D01*
X209316757Y-59936127D01*
X209350000Y-59726246D01*
X209350000Y-59513753D01*
X209316757Y-59303872D01*
X209316757Y-59303869D01*
X209251095Y-59101782D01*
X209154624Y-58912449D01*
X209115270Y-58858282D01*
X209115269Y-58858282D01*
X208482962Y-59490590D01*
X208465925Y-59427007D01*
X208400099Y-59312993D01*
X208307007Y-59219901D01*
X208192993Y-59154075D01*
X208129409Y-59137037D01*
X208761716Y-58504728D01*
X208707550Y-58465375D01*
X208697954Y-58460486D01*
X208647157Y-58412512D01*
X208630361Y-58344692D01*
X208652897Y-58278556D01*
X208697954Y-58239514D01*
X208707554Y-58234622D01*
X208761716Y-58195270D01*
X208761717Y-58195270D01*
X208129408Y-57562962D01*
X208192993Y-57545925D01*
X208307007Y-57480099D01*
X208400099Y-57387007D01*
X208465925Y-57272993D01*
X208482962Y-57209409D01*
X209115270Y-57841717D01*
X209115270Y-57841716D01*
X209154622Y-57787554D01*
X209251095Y-57598217D01*
X209316757Y-57396130D01*
X209316757Y-57396127D01*
X209350000Y-57186246D01*
X209350000Y-56973753D01*
X209316757Y-56763872D01*
X209316757Y-56763869D01*
X209251095Y-56561782D01*
X209154624Y-56372449D01*
X209115270Y-56318282D01*
X209115269Y-56318282D01*
X208482962Y-56950590D01*
X208465925Y-56887007D01*
X208400099Y-56772993D01*
X208307007Y-56679901D01*
X208192993Y-56614075D01*
X208129409Y-56597037D01*
X208761716Y-55964728D01*
X208707547Y-55925373D01*
X208707547Y-55925372D01*
X208698500Y-55920763D01*
X208647706Y-55872788D01*
X208630912Y-55804966D01*
X208653451Y-55738832D01*
X208698508Y-55699793D01*
X208707816Y-55695051D01*
X208792614Y-55633442D01*
X208879786Y-55570109D01*
X208879788Y-55570106D01*
X208879792Y-55570104D01*
X209030104Y-55419792D01*
X209030106Y-55419788D01*
X209030109Y-55419786D01*
X209155048Y-55247820D01*
X209155047Y-55247820D01*
X209155051Y-55247816D01*
X209251557Y-55058412D01*
X209317246Y-54856243D01*
X209350500Y-54646287D01*
X209350500Y-54433713D01*
X209317246Y-54223757D01*
X209251557Y-54021588D01*
X209155051Y-53832184D01*
X209118737Y-53782202D01*
X209091855Y-53745201D01*
X209068375Y-53679395D01*
X209084201Y-53611341D01*
X209104488Y-53584639D01*
X209745114Y-52944014D01*
X209821775Y-52829282D01*
X209874580Y-52701800D01*
X209882932Y-52659810D01*
X209885190Y-52648460D01*
X209885190Y-52648457D01*
X209901500Y-52566464D01*
X209901500Y-50592007D01*
X209901500Y-50592004D01*
X209889369Y-50531024D01*
X209875876Y-50463189D01*
X209874580Y-50456671D01*
X209846547Y-50388994D01*
X209829968Y-50348969D01*
X209821778Y-50329195D01*
X209821771Y-50329182D01*
X209745115Y-50214459D01*
X209707051Y-50176395D01*
X209647542Y-50116886D01*
X209360507Y-49829851D01*
X209327022Y-49768528D01*
X209325715Y-49722772D01*
X209350500Y-49566287D01*
X209350500Y-49353713D01*
X209317246Y-49143757D01*
X209251557Y-48941588D01*
X209155051Y-48752184D01*
X209155049Y-48752181D01*
X209155048Y-48752179D01*
X209030109Y-48580213D01*
X208879786Y-48429890D01*
X208707820Y-48304951D01*
X208704623Y-48303322D01*
X208699054Y-48300485D01*
X208648259Y-48252512D01*
X208631463Y-48184692D01*
X208653999Y-48118556D01*
X208699054Y-48079515D01*
X208707816Y-48075051D01*
X208829104Y-47986931D01*
X208879786Y-47950109D01*
X208879788Y-47950106D01*
X208879792Y-47950104D01*
X209030104Y-47799792D01*
X209030106Y-47799788D01*
X209030109Y-47799786D01*
X209155048Y-47627820D01*
X209155047Y-47627820D01*
X209155051Y-47627816D01*
X209251557Y-47438412D01*
X209317246Y-47236243D01*
X209350500Y-47026287D01*
X209350500Y-46813713D01*
X209317246Y-46603757D01*
X209251557Y-46401588D01*
X209155051Y-46212184D01*
X209155049Y-46212181D01*
X209155048Y-46212179D01*
X209030109Y-46040213D01*
X208879786Y-45889890D01*
X208707820Y-45764951D01*
X208707115Y-45764591D01*
X208699054Y-45760485D01*
X208648259Y-45712512D01*
X208631463Y-45644692D01*
X208653999Y-45578556D01*
X208699054Y-45539515D01*
X208707816Y-45535051D01*
X208794138Y-45472335D01*
X208879786Y-45410109D01*
X208879788Y-45410106D01*
X208879792Y-45410104D01*
X209030104Y-45259792D01*
X209030106Y-45259788D01*
X209030109Y-45259786D01*
X209139377Y-45109390D01*
X209155051Y-45087816D01*
X209251557Y-44898412D01*
X209317246Y-44696243D01*
X209350500Y-44486287D01*
X209350500Y-44273713D01*
X209317246Y-44063757D01*
X209251557Y-43861588D01*
X209155051Y-43672184D01*
X209155049Y-43672181D01*
X209155048Y-43672179D01*
X209030109Y-43500213D01*
X208879786Y-43349890D01*
X208707820Y-43224951D01*
X208518414Y-43128444D01*
X208518413Y-43128443D01*
X208518412Y-43128443D01*
X208316243Y-43062754D01*
X208316241Y-43062753D01*
X208316240Y-43062753D01*
X208154957Y-43037208D01*
X208106287Y-43029500D01*
X207893713Y-43029500D01*
X207845042Y-43037208D01*
X207683760Y-43062753D01*
X207481585Y-43128444D01*
X207292179Y-43224951D01*
X207120215Y-43349889D01*
X207006673Y-43463431D01*
X206945350Y-43496915D01*
X206875658Y-43491931D01*
X206819725Y-43450059D01*
X206802810Y-43419082D01*
X206753797Y-43287671D01*
X206753793Y-43287664D01*
X206667547Y-43172455D01*
X206667544Y-43172452D01*
X206552335Y-43086206D01*
X206552328Y-43086202D01*
X206417482Y-43035908D01*
X206417483Y-43035908D01*
X206357883Y-43029501D01*
X206357881Y-43029500D01*
X206357873Y-43029500D01*
X206357864Y-43029500D01*
X204562129Y-43029500D01*
X204562123Y-43029501D01*
X204502516Y-43035908D01*
X204367671Y-43086202D01*
X204367664Y-43086206D01*
X204252455Y-43172452D01*
X204252452Y-43172455D01*
X204166206Y-43287664D01*
X204166202Y-43287671D01*
X204115908Y-43422517D01*
X204109501Y-43482116D01*
X204109500Y-43482135D01*
X204109500Y-45277870D01*
X204109501Y-45277876D01*
X204115908Y-45337483D01*
X204166202Y-45472328D01*
X204166206Y-45472335D01*
X204252452Y-45587544D01*
X204252455Y-45587547D01*
X204367664Y-45673793D01*
X204367671Y-45673797D01*
X204499082Y-45722810D01*
X204555016Y-45764681D01*
X204579433Y-45830145D01*
X204564582Y-45898418D01*
X204543431Y-45926673D01*
X204429889Y-46040215D01*
X204304948Y-46212184D01*
X204304947Y-46212185D01*
X204284765Y-46251795D01*
X204236791Y-46302591D01*
X204174281Y-46319500D01*
X196049865Y-46319500D01*
X195982826Y-46299815D01*
X195937071Y-46247011D01*
X195927127Y-46177853D01*
X195956152Y-46114297D01*
X195962174Y-46107827D01*
X196212215Y-45857786D01*
X196273534Y-45824304D01*
X196343226Y-45829288D01*
X196364984Y-45839928D01*
X196441303Y-45887003D01*
X196602292Y-45940349D01*
X196701655Y-45950500D01*
X197298344Y-45950499D01*
X197298352Y-45950498D01*
X197298355Y-45950498D01*
X197352760Y-45944940D01*
X197397708Y-45940349D01*
X197558697Y-45887003D01*
X197703044Y-45797968D01*
X197822968Y-45678044D01*
X197912003Y-45533697D01*
X197965349Y-45372708D01*
X197975500Y-45273345D01*
X197975499Y-44726656D01*
X197974615Y-44718005D01*
X197965349Y-44627292D01*
X197965348Y-44627289D01*
X197950162Y-44581460D01*
X197912003Y-44466303D01*
X197911999Y-44466297D01*
X197911998Y-44466294D01*
X197822970Y-44321959D01*
X197822967Y-44321955D01*
X197813693Y-44312681D01*
X197780208Y-44251358D01*
X197785192Y-44181666D01*
X197813693Y-44137319D01*
X197822968Y-44128044D01*
X197912003Y-43983697D01*
X197965349Y-43822708D01*
X197975500Y-43723345D01*
X197975499Y-43176656D01*
X197965349Y-43077292D01*
X197912003Y-42916303D01*
X197911999Y-42916297D01*
X197911998Y-42916294D01*
X197822970Y-42771959D01*
X197822967Y-42771955D01*
X197703044Y-42652032D01*
X197703040Y-42652029D01*
X197558705Y-42563001D01*
X197558699Y-42562998D01*
X197558697Y-42562997D01*
X197558694Y-42562996D01*
X197397709Y-42509651D01*
X197298346Y-42499500D01*
X196701662Y-42499500D01*
X196701644Y-42499501D01*
X196602292Y-42509650D01*
X196602289Y-42509651D01*
X196441305Y-42562996D01*
X196441294Y-42563001D01*
X196296959Y-42652029D01*
X196296955Y-42652032D01*
X196235807Y-42713181D01*
X196174484Y-42746666D01*
X196148126Y-42749500D01*
X192481004Y-42749500D01*
X192345677Y-42776418D01*
X192345671Y-42776420D01*
X192324816Y-42785059D01*
X192277363Y-42794498D01*
X189086006Y-42794498D01*
X188950679Y-42821416D01*
X188950669Y-42821419D01*
X188823194Y-42874220D01*
X188708456Y-42950885D01*
X188117038Y-43542303D01*
X188055715Y-43575788D01*
X187986023Y-43570804D01*
X187930090Y-43528932D01*
X187922789Y-43516552D01*
X187922358Y-43516813D01*
X187912320Y-43500208D01*
X187830472Y-43364815D01*
X187830470Y-43364813D01*
X187830469Y-43364811D01*
X187710188Y-43244530D01*
X187677797Y-43224949D01*
X187564606Y-43156522D01*
X187402196Y-43105914D01*
X187402194Y-43105913D01*
X187402192Y-43105913D01*
X187352778Y-43101423D01*
X187331616Y-43099500D01*
X186668384Y-43099500D01*
X186649145Y-43101248D01*
X186597807Y-43105913D01*
X186435393Y-43156522D01*
X186289811Y-43244530D01*
X186289810Y-43244531D01*
X186271161Y-43263181D01*
X186209838Y-43296666D01*
X186183480Y-43299500D01*
X185816520Y-43299500D01*
X185749481Y-43279815D01*
X185728839Y-43263181D01*
X185635188Y-43169530D01*
X185613670Y-43156522D01*
X185489606Y-43081522D01*
X185327196Y-43030914D01*
X185327194Y-43030913D01*
X185327192Y-43030913D01*
X185277778Y-43026423D01*
X185256616Y-43024500D01*
X184743384Y-43024500D01*
X184724145Y-43026248D01*
X184672807Y-43030913D01*
X184510393Y-43081522D01*
X184364811Y-43169530D01*
X184364810Y-43169531D01*
X184262327Y-43272015D01*
X184201004Y-43305500D01*
X184131312Y-43300516D01*
X184086965Y-43272015D01*
X183984877Y-43169927D01*
X183839395Y-43081980D01*
X183839396Y-43081980D01*
X183677105Y-43031409D01*
X183677106Y-43031409D01*
X183606572Y-43025000D01*
X183600000Y-43025000D01*
X183600000Y-43876000D01*
X183580315Y-43943039D01*
X183527511Y-43988794D01*
X183476000Y-44000000D01*
X183350000Y-44000000D01*
X183350000Y-44126000D01*
X183330315Y-44193039D01*
X183277511Y-44238794D01*
X183226000Y-44250000D01*
X182450001Y-44250000D01*
X182450001Y-44331582D01*
X182456408Y-44402102D01*
X182456409Y-44402107D01*
X182506981Y-44564396D01*
X182594927Y-44709877D01*
X182715122Y-44830072D01*
X182820193Y-44893590D01*
X182867381Y-44945118D01*
X182879219Y-45013978D01*
X182851950Y-45078306D01*
X182820194Y-45105823D01*
X182714814Y-45169528D01*
X182714810Y-45169531D01*
X182594530Y-45289811D01*
X182567433Y-45334635D01*
X182554653Y-45346337D01*
X182545811Y-45361240D01*
X182529420Y-45369444D01*
X182515904Y-45381821D01*
X182498604Y-45384868D01*
X182483331Y-45392513D01*
X182448060Y-45393771D01*
X182440074Y-45392913D01*
X182420254Y-45390782D01*
X182355704Y-45364043D01*
X182345831Y-45355174D01*
X181796071Y-44805414D01*
X181769191Y-44765185D01*
X181709397Y-44620827D01*
X181709390Y-44620814D01*
X181621789Y-44489711D01*
X181621786Y-44489707D01*
X181510292Y-44378213D01*
X181510288Y-44378210D01*
X181379185Y-44290609D01*
X181379172Y-44290602D01*
X181233501Y-44230264D01*
X181233489Y-44230261D01*
X181078845Y-44199500D01*
X181078842Y-44199500D01*
X180921158Y-44199500D01*
X180921155Y-44199500D01*
X180766510Y-44230261D01*
X180766498Y-44230264D01*
X180620827Y-44290602D01*
X180620814Y-44290609D01*
X180489711Y-44378210D01*
X180489707Y-44378213D01*
X180378213Y-44489707D01*
X180378210Y-44489711D01*
X180290609Y-44620814D01*
X180290602Y-44620827D01*
X180230264Y-44766498D01*
X180230261Y-44766510D01*
X180199500Y-44921153D01*
X180199500Y-45078846D01*
X180230261Y-45233489D01*
X180230264Y-45233501D01*
X180290602Y-45379171D01*
X180290609Y-45379185D01*
X180378210Y-45510288D01*
X180378213Y-45510292D01*
X180489707Y-45621786D01*
X180489711Y-45621789D01*
X180620814Y-45709390D01*
X180620827Y-45709397D01*
X180708392Y-45745667D01*
X180754948Y-45764951D01*
X180765185Y-45769191D01*
X180772117Y-45773823D01*
X180777160Y-45774920D01*
X180805414Y-45796071D01*
X180855017Y-45845674D01*
X180888502Y-45906997D01*
X180891336Y-45933355D01*
X180891336Y-46446868D01*
X180891337Y-46446874D01*
X180897744Y-46506481D01*
X180948038Y-46641326D01*
X180948042Y-46641333D01*
X181034288Y-46756542D01*
X181034291Y-46756545D01*
X181149500Y-46842791D01*
X181149507Y-46842795D01*
X181284353Y-46893089D01*
X181284352Y-46893089D01*
X181291280Y-46893833D01*
X181343963Y-46899498D01*
X182417608Y-46899497D01*
X182477219Y-46893089D01*
X182556870Y-46863381D01*
X182583856Y-46853316D01*
X182589485Y-46852300D01*
X182592254Y-46850521D01*
X182627189Y-46845498D01*
X182705103Y-46845498D01*
X182769252Y-46863380D01*
X182860394Y-46918478D01*
X183022804Y-46969086D01*
X183093384Y-46975500D01*
X183093387Y-46975500D01*
X183606613Y-46975500D01*
X183606616Y-46975500D01*
X183677196Y-46969086D01*
X183839606Y-46918478D01*
X183985185Y-46830472D01*
X184032001Y-46783656D01*
X184087319Y-46728339D01*
X184148642Y-46694854D01*
X184218334Y-46699838D01*
X184262681Y-46728339D01*
X184364811Y-46830469D01*
X184364813Y-46830470D01*
X184364815Y-46830472D01*
X184510394Y-46918478D01*
X184510395Y-46918478D01*
X184516813Y-46922358D01*
X184515376Y-46924734D01*
X184558565Y-46961740D01*
X184578621Y-47028669D01*
X184559309Y-47095817D01*
X184542304Y-47117038D01*
X184351162Y-47308181D01*
X184289839Y-47341666D01*
X184263481Y-47344500D01*
X182627189Y-47344500D01*
X182583856Y-47336682D01*
X182477218Y-47296908D01*
X182477219Y-47296908D01*
X182417619Y-47290501D01*
X182417617Y-47290500D01*
X182417609Y-47290500D01*
X182417600Y-47290500D01*
X181343965Y-47290500D01*
X181343959Y-47290501D01*
X181284352Y-47296908D01*
X181149507Y-47347202D01*
X181149500Y-47347206D01*
X181034291Y-47433452D01*
X181034288Y-47433455D01*
X180948042Y-47548664D01*
X180948038Y-47548671D01*
X180897746Y-47683513D01*
X180897745Y-47683517D01*
X180891336Y-47743127D01*
X180891336Y-47743134D01*
X180891336Y-47743135D01*
X180891336Y-48346870D01*
X180891337Y-48346876D01*
X180897744Y-48406483D01*
X180948038Y-48541328D01*
X180948042Y-48541335D01*
X181034288Y-48656544D01*
X181034291Y-48656547D01*
X181149500Y-48742793D01*
X181149507Y-48742797D01*
X181193802Y-48759318D01*
X181249736Y-48801189D01*
X181274153Y-48866653D01*
X181259302Y-48934926D01*
X181209897Y-48984332D01*
X181150469Y-48999500D01*
X180041519Y-48999500D01*
X180012078Y-48990855D01*
X179982092Y-48984332D01*
X179977076Y-48980577D01*
X179974480Y-48979815D01*
X179953838Y-48963181D01*
X179898051Y-48907394D01*
X179864566Y-48846071D01*
X179869550Y-48776379D01*
X179873198Y-48771506D01*
X179911418Y-48720448D01*
X179996782Y-48656546D01*
X180083032Y-48541331D01*
X180133327Y-48406483D01*
X180139736Y-48346873D01*
X180139735Y-47743128D01*
X180133327Y-47683517D01*
X180106882Y-47612616D01*
X180101899Y-47542926D01*
X180106884Y-47525949D01*
X180132833Y-47456378D01*
X180132833Y-47456376D01*
X180139235Y-47396843D01*
X180139236Y-47396826D01*
X180139236Y-47344999D01*
X179898027Y-47344999D01*
X179854694Y-47337181D01*
X179746718Y-47296908D01*
X179746719Y-47296908D01*
X179687119Y-47290501D01*
X179687117Y-47290500D01*
X179687109Y-47290500D01*
X179687101Y-47290500D01*
X178613465Y-47290500D01*
X178613459Y-47290501D01*
X178553852Y-47296908D01*
X178447216Y-47336682D01*
X178403883Y-47344500D01*
X177066806Y-47344500D01*
X177037365Y-47335855D01*
X177007379Y-47329332D01*
X177002363Y-47325577D01*
X176999767Y-47324815D01*
X176979125Y-47308181D01*
X176878624Y-47207680D01*
X176845139Y-47146357D01*
X176850123Y-47076665D01*
X176878620Y-47032322D01*
X176980758Y-46930185D01*
X176987836Y-46918477D01*
X176995773Y-46905348D01*
X177047301Y-46858160D01*
X177101890Y-46845498D01*
X178403883Y-46845498D01*
X178447216Y-46853316D01*
X178553853Y-46893089D01*
X178613463Y-46899498D01*
X179687108Y-46899497D01*
X179746719Y-46893089D01*
X179854694Y-46852817D01*
X179898027Y-46844999D01*
X180139236Y-46844999D01*
X180139236Y-46793171D01*
X180139235Y-46793154D01*
X180132834Y-46733626D01*
X180132833Y-46733622D01*
X180106883Y-46664047D01*
X180101899Y-46594355D01*
X180106884Y-46577379D01*
X180133324Y-46506489D01*
X180133325Y-46506486D01*
X180133324Y-46506486D01*
X180133327Y-46506481D01*
X180139736Y-46446871D01*
X180139735Y-45843126D01*
X180133327Y-45783515D01*
X180130121Y-45774920D01*
X180083033Y-45648669D01*
X180083029Y-45648662D01*
X179996783Y-45533453D01*
X179996780Y-45533450D01*
X179881571Y-45447204D01*
X179881564Y-45447200D01*
X179746718Y-45396906D01*
X179746719Y-45396906D01*
X179687119Y-45390499D01*
X179687117Y-45390498D01*
X179687109Y-45390498D01*
X179687100Y-45390498D01*
X178613465Y-45390498D01*
X178613459Y-45390499D01*
X178553852Y-45396906D01*
X178447216Y-45436680D01*
X178403883Y-45444498D01*
X176711224Y-45444498D01*
X176674335Y-45438884D01*
X176634451Y-45426456D01*
X176552482Y-45400914D01*
X176481902Y-45394500D01*
X175818670Y-45394500D01*
X175799431Y-45396248D01*
X175748093Y-45400913D01*
X175585679Y-45451522D01*
X175440097Y-45539530D01*
X175319816Y-45659811D01*
X175281969Y-45722417D01*
X175261852Y-45745667D01*
X175262764Y-45746579D01*
X174866182Y-46143159D01*
X174804859Y-46176644D01*
X174735167Y-46171660D01*
X174679234Y-46129788D01*
X174654817Y-46064324D01*
X174654501Y-46055504D01*
X174654501Y-45027678D01*
X174648093Y-44968067D01*
X174630595Y-44921153D01*
X174597799Y-44833221D01*
X174597795Y-44833214D01*
X174511549Y-44718005D01*
X174511546Y-44718002D01*
X174396337Y-44631756D01*
X174396330Y-44631752D01*
X174261488Y-44581460D01*
X174261487Y-44581459D01*
X174261485Y-44581459D01*
X174201875Y-44575050D01*
X174201865Y-44575050D01*
X173598131Y-44575050D01*
X173598125Y-44575051D01*
X173538518Y-44581458D01*
X173403673Y-44631752D01*
X173403666Y-44631756D01*
X173288457Y-44718002D01*
X173288454Y-44718005D01*
X173202208Y-44833214D01*
X173202204Y-44833221D01*
X173151910Y-44968067D01*
X173145503Y-45027666D01*
X173145503Y-45027673D01*
X173145502Y-45027685D01*
X173145502Y-45812478D01*
X173136857Y-45841918D01*
X173130334Y-45871905D01*
X173126579Y-45876920D01*
X173125817Y-45879517D01*
X173109186Y-45900155D01*
X173032150Y-45977192D01*
X172966180Y-46043162D01*
X172904857Y-46076646D01*
X172835165Y-46071662D01*
X172779232Y-46029790D01*
X172754815Y-45964326D01*
X172754499Y-45955504D01*
X172754499Y-45027678D01*
X172748091Y-44968067D01*
X172730593Y-44921153D01*
X172697797Y-44833221D01*
X172697793Y-44833214D01*
X172611547Y-44718005D01*
X172611544Y-44718002D01*
X172496335Y-44631756D01*
X172496328Y-44631752D01*
X172361482Y-44581458D01*
X172361483Y-44581458D01*
X172301883Y-44575051D01*
X172301881Y-44575050D01*
X172301873Y-44575050D01*
X172301865Y-44575050D01*
X172017069Y-44575050D01*
X171950030Y-44555365D01*
X171929388Y-44538731D01*
X171596071Y-44205414D01*
X171569191Y-44165185D01*
X171509397Y-44020827D01*
X171509390Y-44020814D01*
X171421789Y-43889711D01*
X171421786Y-43889707D01*
X171310292Y-43778213D01*
X171310288Y-43778210D01*
X171296081Y-43768717D01*
X171179185Y-43690609D01*
X171179172Y-43690602D01*
X171125636Y-43668427D01*
X182450000Y-43668427D01*
X182450000Y-43750000D01*
X183100000Y-43750000D01*
X183100000Y-43025000D01*
X183099999Y-43024999D01*
X183093436Y-43025000D01*
X183093417Y-43025001D01*
X183022897Y-43031408D01*
X183022892Y-43031409D01*
X182860603Y-43081981D01*
X182715122Y-43169927D01*
X182594927Y-43290122D01*
X182506980Y-43435604D01*
X182456409Y-43597893D01*
X182450000Y-43668427D01*
X171125636Y-43668427D01*
X171033501Y-43630264D01*
X171033489Y-43630261D01*
X170878845Y-43599500D01*
X170878842Y-43599500D01*
X170721158Y-43599500D01*
X170721155Y-43599500D01*
X170566510Y-43630261D01*
X170566498Y-43630264D01*
X170420827Y-43690602D01*
X170420814Y-43690609D01*
X170289711Y-43778210D01*
X170289707Y-43778213D01*
X170178213Y-43889707D01*
X170178210Y-43889711D01*
X170090609Y-44020814D01*
X170090602Y-44020827D01*
X170030264Y-44166498D01*
X170030261Y-44166510D01*
X169999500Y-44321153D01*
X169999500Y-44478846D01*
X170030261Y-44633489D01*
X170030264Y-44633501D01*
X170090602Y-44779172D01*
X170090609Y-44779185D01*
X170178210Y-44910288D01*
X170178213Y-44910292D01*
X170289707Y-45021786D01*
X170289711Y-45021789D01*
X170420814Y-45109390D01*
X170420827Y-45109397D01*
X170565185Y-45169191D01*
X170605414Y-45196071D01*
X171209181Y-45799838D01*
X171242666Y-45861161D01*
X171245500Y-45887518D01*
X171245500Y-46101319D01*
X171245501Y-46101326D01*
X171251908Y-46160933D01*
X171302202Y-46295778D01*
X171302206Y-46295785D01*
X171388452Y-46410994D01*
X171388455Y-46410997D01*
X171503664Y-46497243D01*
X171503671Y-46497247D01*
X171556927Y-46517110D01*
X171638517Y-46547541D01*
X171640927Y-46547800D01*
X171642673Y-46548523D01*
X171646062Y-46549324D01*
X171645932Y-46549872D01*
X171705475Y-46574532D01*
X171745327Y-46631921D01*
X171747827Y-46701746D01*
X171715357Y-46758770D01*
X171456171Y-47017956D01*
X171379506Y-47132694D01*
X171326705Y-47260169D01*
X171326702Y-47260181D01*
X171306523Y-47361627D01*
X171306522Y-47361632D01*
X171304576Y-47371420D01*
X171299784Y-47395509D01*
X171299784Y-47550058D01*
X171299705Y-47552267D01*
X171298131Y-47556993D01*
X171291966Y-47591168D01*
X171251908Y-47698567D01*
X171245501Y-47758166D01*
X171245500Y-47758185D01*
X171245500Y-48831820D01*
X171245501Y-48831826D01*
X171251908Y-48891433D01*
X171302202Y-49026278D01*
X171302203Y-49026280D01*
X171365053Y-49110236D01*
X171389470Y-49175700D01*
X171389786Y-49184547D01*
X171389786Y-50693125D01*
X171370101Y-50760164D01*
X171353468Y-50780806D01*
X171267315Y-50866959D01*
X171178287Y-51011294D01*
X171178282Y-51011305D01*
X171124937Y-51172290D01*
X171114786Y-51271647D01*
X171114786Y-51818337D01*
X171114787Y-51818355D01*
X171124936Y-51917707D01*
X171124937Y-51917710D01*
X171178282Y-52078694D01*
X171178287Y-52078705D01*
X171271109Y-52229191D01*
X171268680Y-52230688D01*
X171289938Y-52283407D01*
X171276885Y-52352047D01*
X171228795Y-52402733D01*
X171166529Y-52419500D01*
X170656806Y-52419500D01*
X170627365Y-52410855D01*
X170597379Y-52404332D01*
X170592363Y-52400577D01*
X170589767Y-52399815D01*
X170569125Y-52383181D01*
X170568270Y-52382326D01*
X170534785Y-52321003D01*
X170539769Y-52251311D01*
X170568271Y-52206963D01*
X170670357Y-52104878D01*
X170670358Y-52104877D01*
X170758305Y-51959395D01*
X170808876Y-51797106D01*
X170815286Y-51726572D01*
X170815286Y-51720000D01*
X168859286Y-51720000D01*
X168792247Y-51700315D01*
X168746492Y-51647511D01*
X168735286Y-51596000D01*
X168735286Y-51595000D01*
X167590286Y-51595000D01*
X167590286Y-52419999D01*
X168040258Y-52419999D01*
X168040272Y-52419998D01*
X168142983Y-52409505D01*
X168309405Y-52354358D01*
X168309410Y-52354356D01*
X168458631Y-52262315D01*
X168582601Y-52138345D01*
X168674642Y-51989124D01*
X168674643Y-51989120D01*
X168685698Y-51955758D01*
X168725469Y-51898312D01*
X168789984Y-51871487D01*
X168858760Y-51883800D01*
X168909961Y-51931342D01*
X168921787Y-51957859D01*
X168922264Y-51959392D01*
X168922266Y-51959395D01*
X169010213Y-52104877D01*
X169112301Y-52206965D01*
X169145786Y-52268288D01*
X169140802Y-52337980D01*
X169112301Y-52382327D01*
X169009817Y-52484810D01*
X169009816Y-52484811D01*
X168921808Y-52630393D01*
X168871199Y-52792807D01*
X168867640Y-52831979D01*
X168864786Y-52863384D01*
X168864786Y-53376616D01*
X168871200Y-53447196D01*
X168883631Y-53487089D01*
X168908612Y-53567259D01*
X168908984Y-53589910D01*
X168911650Y-53592064D01*
X168918032Y-53603359D01*
X168921807Y-53609604D01*
X168921808Y-53609606D01*
X169003959Y-53745500D01*
X169009816Y-53755188D01*
X169130097Y-53875469D01*
X169130099Y-53875470D01*
X169130101Y-53875472D01*
X169275680Y-53963478D01*
X169438090Y-54014086D01*
X169508670Y-54020500D01*
X169508673Y-54020500D01*
X170171899Y-54020500D01*
X170171902Y-54020500D01*
X170242482Y-54014086D01*
X170404892Y-53963478D01*
X170550471Y-53875472D01*
X170550475Y-53875468D01*
X170569125Y-53856819D01*
X170630448Y-53823334D01*
X170656806Y-53820500D01*
X171263412Y-53820500D01*
X171292852Y-53829144D01*
X171322839Y-53835668D01*
X171327854Y-53839422D01*
X171330451Y-53840185D01*
X171351093Y-53856819D01*
X171353467Y-53859193D01*
X171386952Y-53920516D01*
X171389786Y-53946874D01*
X171389786Y-55280500D01*
X171370101Y-55347539D01*
X171317297Y-55393294D01*
X171265786Y-55404500D01*
X170247415Y-55404500D01*
X170247409Y-55404501D01*
X170187802Y-55410908D01*
X170052957Y-55461202D01*
X170052950Y-55461206D01*
X169937741Y-55547452D01*
X169937738Y-55547455D01*
X169851492Y-55662664D01*
X169851488Y-55662671D01*
X169802133Y-55795001D01*
X169801195Y-55797517D01*
X169796223Y-55843757D01*
X169769487Y-55908306D01*
X169712095Y-55948154D01*
X169672935Y-55954500D01*
X169061290Y-55954500D01*
X168925963Y-55981418D01*
X168925953Y-55981421D01*
X168798478Y-56034222D01*
X168683740Y-56110887D01*
X168683739Y-56110888D01*
X168511448Y-56283181D01*
X168450125Y-56316666D01*
X168423767Y-56319500D01*
X168233670Y-56319500D01*
X168214431Y-56321248D01*
X168163093Y-56325913D01*
X168000679Y-56376522D01*
X167855099Y-56464529D01*
X167752966Y-56566662D01*
X167744964Y-56571030D01*
X167739496Y-56578321D01*
X167714785Y-56587509D01*
X167691643Y-56600146D01*
X167682551Y-56599495D01*
X167674007Y-56602673D01*
X167648248Y-56597042D01*
X167621951Y-56595162D01*
X167612846Y-56589304D01*
X167605749Y-56587753D01*
X167577516Y-56566573D01*
X167577017Y-56566073D01*
X167543593Y-56504717D01*
X167540786Y-56478480D01*
X167540786Y-55494499D01*
X167560471Y-55427460D01*
X167613275Y-55381705D01*
X167664786Y-55370499D01*
X168040288Y-55370499D01*
X168040294Y-55370499D01*
X168143083Y-55359999D01*
X168309620Y-55304814D01*
X168458942Y-55212712D01*
X168582998Y-55088656D01*
X168675100Y-54939334D01*
X168730285Y-54772797D01*
X168740786Y-54670009D01*
X168740785Y-53919992D01*
X168740575Y-53917940D01*
X168730285Y-53817203D01*
X168719483Y-53784606D01*
X168691994Y-53701651D01*
X168691123Y-53676328D01*
X168687028Y-53672896D01*
X168677840Y-53656544D01*
X168675102Y-53650673D01*
X168675100Y-53650666D01*
X168582998Y-53501344D01*
X168458942Y-53377288D01*
X168366174Y-53320069D01*
X168309622Y-53285187D01*
X168309617Y-53285185D01*
X168286081Y-53277386D01*
X168143083Y-53230001D01*
X168143081Y-53230000D01*
X168040296Y-53219500D01*
X166640284Y-53219500D01*
X166640267Y-53219501D01*
X166537489Y-53230000D01*
X166537486Y-53230001D01*
X166370954Y-53285185D01*
X166370949Y-53285187D01*
X166221628Y-53377289D01*
X166097575Y-53501342D01*
X166005473Y-53650663D01*
X166005471Y-53650668D01*
X165977635Y-53734670D01*
X165950287Y-53817203D01*
X165950287Y-53817204D01*
X165950286Y-53817204D01*
X165939786Y-53919983D01*
X165939786Y-54670001D01*
X165939788Y-54670022D01*
X165943689Y-54708215D01*
X165930918Y-54776908D01*
X165883037Y-54827792D01*
X165815247Y-54844711D01*
X165783442Y-54839201D01*
X165742389Y-54826409D01*
X165671858Y-54820000D01*
X165590286Y-54820000D01*
X165590286Y-55596000D01*
X165570601Y-55663039D01*
X165517797Y-55708794D01*
X165466286Y-55720000D01*
X165340286Y-55720000D01*
X165340286Y-55846000D01*
X165320601Y-55913039D01*
X165267797Y-55958794D01*
X165216286Y-55970000D01*
X164365287Y-55970000D01*
X164365287Y-55976582D01*
X164371694Y-56047102D01*
X164371695Y-56047107D01*
X164422267Y-56209396D01*
X164510213Y-56354877D01*
X164612301Y-56456965D01*
X164645786Y-56518288D01*
X164640802Y-56587980D01*
X164612301Y-56632327D01*
X164509817Y-56734810D01*
X164509816Y-56734811D01*
X164421808Y-56880393D01*
X164371199Y-57042807D01*
X164364787Y-57113371D01*
X164364786Y-57113382D01*
X160850786Y-57113382D01*
X160850786Y-55463427D01*
X164365286Y-55463427D01*
X164365286Y-55470000D01*
X165090286Y-55470000D01*
X165090286Y-54820000D01*
X165090285Y-54819999D01*
X165008703Y-54820000D01*
X164938183Y-54826408D01*
X164938178Y-54826409D01*
X164775889Y-54876981D01*
X164630408Y-54964927D01*
X164510213Y-55085122D01*
X164422266Y-55230604D01*
X164371695Y-55392893D01*
X164365286Y-55463427D01*
X160850786Y-55463427D01*
X160850786Y-51719986D01*
X165940287Y-51719986D01*
X165950780Y-51822697D01*
X166005927Y-51989119D01*
X166005929Y-51989124D01*
X166097970Y-52138345D01*
X166221940Y-52262315D01*
X166371161Y-52354356D01*
X166371166Y-52354358D01*
X166537588Y-52409505D01*
X166537595Y-52409506D01*
X166640305Y-52419999D01*
X167090285Y-52419999D01*
X167090286Y-52419998D01*
X167090286Y-51595000D01*
X165940287Y-51595000D01*
X165940287Y-51719986D01*
X160850786Y-51719986D01*
X160850786Y-50970013D01*
X165940286Y-50970013D01*
X165940286Y-51095000D01*
X167090286Y-51095000D01*
X167590286Y-51095000D01*
X168746286Y-51095000D01*
X168813325Y-51114685D01*
X168859080Y-51167489D01*
X168870286Y-51219000D01*
X168870286Y-51220000D01*
X169590286Y-51220000D01*
X170090286Y-51220000D01*
X170815285Y-51220000D01*
X170815285Y-51213417D01*
X170808877Y-51142897D01*
X170808876Y-51142892D01*
X170758304Y-50980603D01*
X170670358Y-50835122D01*
X170550163Y-50714927D01*
X170404681Y-50626980D01*
X170404682Y-50626980D01*
X170242391Y-50576409D01*
X170242392Y-50576409D01*
X170171858Y-50570000D01*
X170090286Y-50570000D01*
X170090286Y-51220000D01*
X169590286Y-51220000D01*
X169590286Y-50570000D01*
X169590285Y-50569999D01*
X169508703Y-50570000D01*
X169438183Y-50576408D01*
X169438178Y-50576409D01*
X169275889Y-50626981D01*
X169130408Y-50714927D01*
X169010214Y-50835121D01*
X169010211Y-50835125D01*
X168959313Y-50919320D01*
X168907785Y-50966507D01*
X168838926Y-50978345D01*
X168774597Y-50951076D01*
X168735224Y-50893356D01*
X168729838Y-50867758D01*
X168729791Y-50867301D01*
X168674644Y-50700880D01*
X168674642Y-50700875D01*
X168582601Y-50551654D01*
X168458631Y-50427684D01*
X168309410Y-50335643D01*
X168309405Y-50335641D01*
X168142983Y-50280494D01*
X168142976Y-50280493D01*
X168040272Y-50270000D01*
X167590286Y-50270000D01*
X167590286Y-51095000D01*
X167090286Y-51095000D01*
X167090286Y-50270000D01*
X166640314Y-50270000D01*
X166640298Y-50270001D01*
X166537588Y-50280494D01*
X166371166Y-50335641D01*
X166371161Y-50335643D01*
X166221940Y-50427684D01*
X166097970Y-50551654D01*
X166005929Y-50700875D01*
X166005927Y-50700880D01*
X165950780Y-50867302D01*
X165950779Y-50867309D01*
X165940286Y-50970013D01*
X160850786Y-50970013D01*
X160850786Y-38624500D01*
X160870471Y-38557461D01*
X160923275Y-38511706D01*
X160974786Y-38500500D01*
X211275786Y-38500500D01*
X211342825Y-38520185D01*
G37*
%TD.AperFunction*%
%TD*%
M02*
