%TF.GenerationSoftware,KiCad,Pcbnew,9.0.4*%
%TF.CreationDate,2026-03-16T14:18:50-04:00*%
%TF.ProjectId,Overdrive,4f766572-6472-4697-9665-2e6b69636164,rev?*%
%TF.SameCoordinates,Original*%
%TF.FileFunction,Legend,Bot*%
%TF.FilePolarity,Positive*%
%FSLAX46Y46*%
G04 Gerber Fmt 4.6, Leading zero omitted, Abs format (unit mm)*
G04 Created by KiCad (PCBNEW 9.0.4) date 2026-03-16 14:18:50*
%MOMM*%
%LPD*%
G01*
G04 APERTURE LIST*
%ADD10C,0.100000*%
%ADD11C,0.000000*%
G04 APERTURE END LIST*
D10*
X201743734Y-40872419D02*
X201743734Y-41062895D01*
X201362782Y-40872419D02*
X201362782Y-41062895D01*
X201077067Y-40872419D02*
X200505639Y-40872419D01*
X200791353Y-41872419D02*
X200791353Y-40872419D01*
X199743734Y-41205752D02*
X199743734Y-41872419D01*
X200172305Y-41205752D02*
X200172305Y-41729561D01*
X200172305Y-41729561D02*
X200124686Y-41824800D01*
X200124686Y-41824800D02*
X200029448Y-41872419D01*
X200029448Y-41872419D02*
X199886591Y-41872419D01*
X199886591Y-41872419D02*
X199791353Y-41824800D01*
X199791353Y-41824800D02*
X199743734Y-41777180D01*
X199267543Y-41872419D02*
X199267543Y-41205752D01*
X199267543Y-41396228D02*
X199219924Y-41300990D01*
X199219924Y-41300990D02*
X199172305Y-41253371D01*
X199172305Y-41253371D02*
X199077067Y-41205752D01*
X199077067Y-41205752D02*
X198981829Y-41205752D01*
X198648495Y-41205752D02*
X198648495Y-41872419D01*
X198648495Y-41300990D02*
X198600876Y-41253371D01*
X198600876Y-41253371D02*
X198505638Y-41205752D01*
X198505638Y-41205752D02*
X198362781Y-41205752D01*
X198362781Y-41205752D02*
X198267543Y-41253371D01*
X198267543Y-41253371D02*
X198219924Y-41348609D01*
X198219924Y-41348609D02*
X198219924Y-41872419D01*
X196981828Y-41872419D02*
X196981828Y-41205752D01*
X196981828Y-40872419D02*
X197029447Y-40920038D01*
X197029447Y-40920038D02*
X196981828Y-40967657D01*
X196981828Y-40967657D02*
X196934209Y-40920038D01*
X196934209Y-40920038D02*
X196981828Y-40872419D01*
X196981828Y-40872419D02*
X196981828Y-40967657D01*
X196648495Y-41205752D02*
X196267543Y-41205752D01*
X196505638Y-40872419D02*
X196505638Y-41729561D01*
X196505638Y-41729561D02*
X196458019Y-41824800D01*
X196458019Y-41824800D02*
X196362781Y-41872419D01*
X196362781Y-41872419D02*
X196267543Y-41872419D01*
X194743733Y-41205752D02*
X194743733Y-41872419D01*
X195172304Y-41205752D02*
X195172304Y-41729561D01*
X195172304Y-41729561D02*
X195124685Y-41824800D01*
X195124685Y-41824800D02*
X195029447Y-41872419D01*
X195029447Y-41872419D02*
X194886590Y-41872419D01*
X194886590Y-41872419D02*
X194791352Y-41824800D01*
X194791352Y-41824800D02*
X194743733Y-41777180D01*
X194267542Y-41205752D02*
X194267542Y-42205752D01*
X194267542Y-41253371D02*
X194172304Y-41205752D01*
X194172304Y-41205752D02*
X193981828Y-41205752D01*
X193981828Y-41205752D02*
X193886590Y-41253371D01*
X193886590Y-41253371D02*
X193838971Y-41300990D01*
X193838971Y-41300990D02*
X193791352Y-41396228D01*
X193791352Y-41396228D02*
X193791352Y-41681942D01*
X193791352Y-41681942D02*
X193838971Y-41777180D01*
X193838971Y-41777180D02*
X193886590Y-41824800D01*
X193886590Y-41824800D02*
X193981828Y-41872419D01*
X193981828Y-41872419D02*
X194172304Y-41872419D01*
X194172304Y-41872419D02*
X194267542Y-41824800D01*
X192743732Y-41205752D02*
X192362780Y-41205752D01*
X192600875Y-40872419D02*
X192600875Y-41729561D01*
X192600875Y-41729561D02*
X192553256Y-41824800D01*
X192553256Y-41824800D02*
X192458018Y-41872419D01*
X192458018Y-41872419D02*
X192362780Y-41872419D01*
X191886589Y-41872419D02*
X191981827Y-41824800D01*
X191981827Y-41824800D02*
X192029446Y-41777180D01*
X192029446Y-41777180D02*
X192077065Y-41681942D01*
X192077065Y-41681942D02*
X192077065Y-41396228D01*
X192077065Y-41396228D02*
X192029446Y-41300990D01*
X192029446Y-41300990D02*
X191981827Y-41253371D01*
X191981827Y-41253371D02*
X191886589Y-41205752D01*
X191886589Y-41205752D02*
X191743732Y-41205752D01*
X191743732Y-41205752D02*
X191648494Y-41253371D01*
X191648494Y-41253371D02*
X191600875Y-41300990D01*
X191600875Y-41300990D02*
X191553256Y-41396228D01*
X191553256Y-41396228D02*
X191553256Y-41681942D01*
X191553256Y-41681942D02*
X191600875Y-41777180D01*
X191600875Y-41777180D02*
X191648494Y-41824800D01*
X191648494Y-41824800D02*
X191743732Y-41872419D01*
X191743732Y-41872419D02*
X191886589Y-41872419D01*
X189838970Y-41872419D02*
X190410398Y-41872419D01*
X190124684Y-41872419D02*
X190124684Y-40872419D01*
X190124684Y-40872419D02*
X190219922Y-41015276D01*
X190219922Y-41015276D02*
X190315160Y-41110514D01*
X190315160Y-41110514D02*
X190410398Y-41158133D01*
X188886589Y-41872419D02*
X189458017Y-41872419D01*
X189172303Y-41872419D02*
X189172303Y-40872419D01*
X189172303Y-40872419D02*
X189267541Y-41015276D01*
X189267541Y-41015276D02*
X189362779Y-41110514D01*
X189362779Y-41110514D02*
X189458017Y-41158133D01*
X188505636Y-40872419D02*
X188505636Y-41062895D01*
X188124684Y-40872419D02*
X188124684Y-41062895D01*
D11*
%TO.C,G\u002A\u002A\u002A*%
G36*
X187527833Y-58395935D02*
G01*
X187512192Y-58411576D01*
X187496552Y-58395935D01*
X187512192Y-58380295D01*
X187527833Y-58395935D01*
G37*
G36*
X187715518Y-58208251D02*
G01*
X187699877Y-58223891D01*
X187684237Y-58208251D01*
X187699877Y-58192610D01*
X187715518Y-58208251D01*
G37*
G36*
X187778079Y-58583620D02*
G01*
X187762439Y-58599260D01*
X187746798Y-58583620D01*
X187762439Y-58567980D01*
X187778079Y-58583620D01*
G37*
G36*
X187997045Y-58051847D02*
G01*
X187981404Y-58067487D01*
X187965764Y-58051847D01*
X187981404Y-58036206D01*
X187997045Y-58051847D01*
G37*
G36*
X188278572Y-57832881D02*
G01*
X188262931Y-57848522D01*
X188247291Y-57832881D01*
X188262931Y-57817241D01*
X188278572Y-57832881D01*
G37*
G36*
X188278572Y-58395935D02*
G01*
X188262931Y-58411576D01*
X188247291Y-58395935D01*
X188262931Y-58380295D01*
X188278572Y-58395935D01*
G37*
G36*
X188403695Y-57801600D02*
G01*
X188388054Y-57817241D01*
X188372414Y-57801600D01*
X188388054Y-57785960D01*
X188403695Y-57801600D01*
G37*
G36*
X188528818Y-57895443D02*
G01*
X188513178Y-57911083D01*
X188497537Y-57895443D01*
X188513178Y-57879802D01*
X188528818Y-57895443D01*
G37*
G36*
X188528818Y-58083127D02*
G01*
X188513178Y-58098768D01*
X188497537Y-58083127D01*
X188513178Y-58067487D01*
X188528818Y-58083127D01*
G37*
G36*
X188841626Y-58020566D02*
G01*
X188825986Y-58036206D01*
X188810345Y-58020566D01*
X188825986Y-58004925D01*
X188841626Y-58020566D01*
G37*
G36*
X188998030Y-58051847D02*
G01*
X188982389Y-58067487D01*
X188966749Y-58051847D01*
X188982389Y-58036206D01*
X188998030Y-58051847D01*
G37*
G36*
X189279557Y-58020566D02*
G01*
X189263917Y-58036206D01*
X189248276Y-58020566D01*
X189263917Y-58004925D01*
X189279557Y-58020566D01*
G37*
G36*
X189561084Y-57238546D02*
G01*
X189545444Y-57254187D01*
X189529803Y-57238546D01*
X189545444Y-57222906D01*
X189561084Y-57238546D01*
G37*
G36*
X198976601Y-47478940D02*
G01*
X198960961Y-47494581D01*
X198945320Y-47478940D01*
X198960961Y-47463300D01*
X198976601Y-47478940D01*
G37*
G36*
X187658821Y-58421488D02*
G01*
X187673300Y-58432748D01*
X187639922Y-58440387D01*
X187608195Y-58438175D01*
X187598866Y-58423958D01*
X187609933Y-58417759D01*
X187658821Y-58421488D01*
G37*
G36*
X188309852Y-57754679D02*
G01*
X188307595Y-57771239D01*
X188288999Y-57775533D01*
X188285255Y-57770948D01*
X188288999Y-57733825D01*
X188298407Y-57728932D01*
X188309852Y-57754679D01*
G37*
G36*
X188497537Y-57692118D02*
G01*
X188495280Y-57708678D01*
X188476683Y-57712971D01*
X188472940Y-57708387D01*
X188476683Y-57671264D01*
X188486092Y-57666370D01*
X188497537Y-57692118D01*
G37*
G36*
X188643514Y-57890229D02*
G01*
X188648408Y-57899638D01*
X188622660Y-57911083D01*
X188606100Y-57908826D01*
X188601807Y-57890229D01*
X188606391Y-57886486D01*
X188643514Y-57890229D01*
G37*
G36*
X188816210Y-58077399D02*
G01*
X188830689Y-58088659D01*
X188797311Y-58096298D01*
X188765585Y-58094086D01*
X188756255Y-58079869D01*
X188767322Y-58073670D01*
X188816210Y-58077399D01*
G37*
G36*
X188847491Y-58202523D02*
G01*
X188861970Y-58213782D01*
X188828592Y-58221421D01*
X188796865Y-58219210D01*
X188787536Y-58204992D01*
X188798603Y-58198794D01*
X188847491Y-58202523D01*
G37*
G36*
X188925041Y-58140476D02*
G01*
X188929935Y-58149884D01*
X188904187Y-58161329D01*
X188887628Y-58159072D01*
X188883334Y-58140476D01*
X188887918Y-58136732D01*
X188925041Y-58140476D01*
G37*
G36*
X189498522Y-57254187D02*
G01*
X189496265Y-57270746D01*
X189477669Y-57275040D01*
X189473925Y-57270456D01*
X189477669Y-57233333D01*
X189487077Y-57228439D01*
X189498522Y-57254187D01*
G37*
G36*
X194493022Y-52509934D02*
G01*
X194497915Y-52519342D01*
X194472168Y-52530788D01*
X194455608Y-52528530D01*
X194451314Y-52509934D01*
X194455899Y-52506190D01*
X194493022Y-52509934D01*
G37*
G36*
X194618145Y-52509934D02*
G01*
X194623039Y-52519342D01*
X194597291Y-52530788D01*
X194580731Y-52528530D01*
X194576437Y-52509934D01*
X194581022Y-52506190D01*
X194618145Y-52509934D01*
G37*
G36*
X194855357Y-44877559D02*
G01*
X194860664Y-44888420D01*
X194816256Y-44893336D01*
X194773226Y-44888976D01*
X194777155Y-44877559D01*
X194791315Y-44873427D01*
X194855357Y-44877559D01*
G37*
G36*
X187702864Y-58312900D02*
G01*
X187693208Y-58326796D01*
X187666750Y-58349014D01*
X187662377Y-58348710D01*
X187655489Y-58330602D01*
X187689070Y-58299106D01*
X187706551Y-58291495D01*
X187702864Y-58312900D01*
G37*
G36*
X187921830Y-58031373D02*
G01*
X187917674Y-58037741D01*
X187886767Y-58066549D01*
X187871921Y-58053693D01*
X187874718Y-58046657D01*
X187908035Y-58017579D01*
X187925517Y-58009968D01*
X187921830Y-58031373D01*
G37*
G36*
X188234638Y-57781127D02*
G01*
X188230482Y-57787494D01*
X188199574Y-57816303D01*
X188184729Y-57803446D01*
X188187525Y-57796411D01*
X188220843Y-57767332D01*
X188238324Y-57759722D01*
X188234638Y-57781127D01*
G37*
G36*
X188584147Y-57948533D02*
G01*
X188560099Y-57973645D01*
X188531763Y-57991183D01*
X188502168Y-58001779D01*
X188513178Y-57973645D01*
X188519873Y-57965125D01*
X188569765Y-57942843D01*
X188584147Y-57948533D01*
G37*
G36*
X189110500Y-57530880D02*
G01*
X189106344Y-57537248D01*
X189075437Y-57566057D01*
X189060591Y-57553200D01*
X189063388Y-57546164D01*
X189096705Y-57517086D01*
X189114186Y-57509475D01*
X189110500Y-57530880D01*
G37*
G36*
X187611248Y-58334750D02*
G01*
X187608519Y-58354979D01*
X187585181Y-58380295D01*
X187580101Y-58379730D01*
X187559114Y-58350860D01*
X187559371Y-58346572D01*
X187585181Y-58305315D01*
X187597689Y-58303207D01*
X187611248Y-58334750D01*
G37*
G36*
X187732966Y-58381702D02*
G01*
X187762439Y-58411576D01*
X187768265Y-58422651D01*
X187766131Y-58442856D01*
X187760631Y-58441449D01*
X187731158Y-58411576D01*
X187725332Y-58400501D01*
X187727466Y-58380295D01*
X187732966Y-58381702D01*
G37*
G36*
X187814843Y-58068655D02*
G01*
X187856281Y-58098768D01*
X187861292Y-58110776D01*
X187844333Y-58130049D01*
X187835158Y-58128881D01*
X187793719Y-58098768D01*
X187788708Y-58086760D01*
X187805668Y-58067487D01*
X187814843Y-58068655D01*
G37*
G36*
X188198940Y-58382705D02*
G01*
X188200370Y-58411576D01*
X188193977Y-58420029D01*
X188149756Y-58442856D01*
X188139238Y-58440446D01*
X188137808Y-58411576D01*
X188144201Y-58403122D01*
X188188422Y-58380295D01*
X188198940Y-58382705D01*
G37*
G36*
X188388054Y-57692118D02*
G01*
X188414289Y-57715753D01*
X188434976Y-57741887D01*
X188428774Y-57744871D01*
X188388054Y-57734710D01*
X188366119Y-57722584D01*
X188341133Y-57684941D01*
X188349949Y-57673084D01*
X188388054Y-57692118D01*
G37*
G36*
X188516349Y-58162769D02*
G01*
X188544458Y-58192610D01*
X188549346Y-58204727D01*
X188530664Y-58223891D01*
X188521584Y-58222689D01*
X188497537Y-58192610D01*
X188497896Y-58185531D01*
X188511332Y-58161329D01*
X188516349Y-58162769D01*
G37*
G36*
X188709916Y-58117691D02*
G01*
X188717460Y-58126113D01*
X188729548Y-58154597D01*
X188686455Y-58161329D01*
X188648929Y-58155660D01*
X188622660Y-58131895D01*
X188627287Y-58107179D01*
X188660703Y-58088268D01*
X188709916Y-58117691D01*
G37*
G36*
X188684414Y-58224471D02*
G01*
X188713979Y-58230930D01*
X188685222Y-58255172D01*
X188654543Y-58274362D01*
X188627465Y-58282485D01*
X188622660Y-58255172D01*
X188630998Y-58238702D01*
X188677402Y-58224370D01*
X188684414Y-58224471D01*
G37*
G36*
X189304125Y-58137872D02*
G01*
X189279557Y-58161329D01*
X189252491Y-58175162D01*
X189185715Y-58189933D01*
X189166100Y-58182664D01*
X189201355Y-58161329D01*
X189223128Y-58152444D01*
X189281382Y-58134910D01*
X189304125Y-58137872D01*
G37*
G36*
X189418891Y-58038616D02*
G01*
X189420320Y-58067487D01*
X189413928Y-58075941D01*
X189369707Y-58098768D01*
X189359189Y-58096358D01*
X189357759Y-58067487D01*
X189364151Y-58059033D01*
X189408372Y-58036206D01*
X189418891Y-58038616D01*
G37*
G36*
X194683313Y-44907993D02*
G01*
X194692188Y-44910918D01*
X194685481Y-44919037D01*
X194628572Y-44922299D01*
X194607348Y-44921996D01*
X194564095Y-44917060D01*
X194573830Y-44907993D01*
X194603978Y-44903129D01*
X194683313Y-44907993D01*
G37*
G36*
X185875916Y-59683430D02*
G01*
X185827251Y-59711279D01*
X185742639Y-59747210D01*
X185630182Y-59788251D01*
X185561724Y-59808838D01*
X185545530Y-59806971D01*
X185583770Y-59782989D01*
X185678615Y-59737229D01*
X185754774Y-59705035D01*
X185835540Y-59677559D01*
X185879752Y-59671288D01*
X185875916Y-59683430D01*
G37*
G36*
X188804226Y-57649232D02*
G01*
X188817524Y-57664767D01*
X188872907Y-57700598D01*
X188875979Y-57701772D01*
X188904168Y-57716019D01*
X188872907Y-57720450D01*
X188858137Y-57720175D01*
X188798562Y-57703231D01*
X188758334Y-57671646D01*
X188758210Y-57639983D01*
X188769779Y-57633083D01*
X188804226Y-57649232D01*
G37*
G36*
X196208252Y-47349448D02*
G01*
X195973646Y-47369457D01*
X195881704Y-47377217D01*
X195754804Y-47387215D01*
X195679411Y-47391438D01*
X195648510Y-47389886D01*
X195655084Y-47382559D01*
X195692119Y-47369457D01*
X195758468Y-47357539D01*
X195866313Y-47349186D01*
X195989286Y-47346930D01*
X196208252Y-47349448D01*
G37*
G36*
X199774795Y-50451943D02*
G01*
X199777591Y-50514069D01*
X199778625Y-50622659D01*
X199777994Y-50710659D01*
X199775555Y-50783746D01*
X199771707Y-50805874D01*
X199766909Y-50771243D01*
X199765049Y-50743116D01*
X199762133Y-50605248D01*
X199766909Y-50474076D01*
X199770694Y-50442082D01*
X199774795Y-50451943D01*
G37*
G36*
X189318211Y-57342540D02*
G01*
X189342119Y-57370363D01*
X189335814Y-57375750D01*
X189295197Y-57367998D01*
X189271205Y-57363080D01*
X189248276Y-57380291D01*
X189246566Y-57389613D01*
X189213165Y-57410590D01*
X189195253Y-57402894D01*
X189215452Y-57365529D01*
X189219177Y-57361468D01*
X189266982Y-57339184D01*
X189318211Y-57342540D01*
G37*
G36*
X199655188Y-51743928D02*
G01*
X199647323Y-51807951D01*
X199628685Y-51900359D01*
X199612786Y-51963142D01*
X199591637Y-52027999D01*
X199577709Y-52047495D01*
X199575346Y-52030238D01*
X199583079Y-51966102D01*
X199602217Y-51873891D01*
X199618332Y-51812023D01*
X199639659Y-51746855D01*
X199653193Y-51726756D01*
X199655188Y-51743928D01*
G37*
G36*
X199742055Y-51201354D02*
G01*
X199739607Y-51249527D01*
X199730357Y-51387855D01*
X199719405Y-51506702D01*
X199708630Y-51584544D01*
X199703833Y-51607390D01*
X199685410Y-51672696D01*
X199673935Y-51680794D01*
X199672075Y-51635971D01*
X199682494Y-51542512D01*
X199682499Y-51542479D01*
X199696850Y-51437278D01*
X199713759Y-51299628D01*
X199729566Y-51159322D01*
X199755090Y-50919827D01*
X199742055Y-51201354D01*
G37*
G36*
X196521059Y-47324566D02*
G01*
X196569528Y-47328031D01*
X196760080Y-47349632D01*
X196965706Y-47382641D01*
X197160541Y-47422515D01*
X197318719Y-47464709D01*
X197341231Y-47472253D01*
X197372822Y-47487401D01*
X197355287Y-47491256D01*
X197297808Y-47484694D01*
X197209570Y-47468591D01*
X197099754Y-47443822D01*
X197054516Y-47433388D01*
X196912040Y-47404929D01*
X196745963Y-47376124D01*
X196583621Y-47351845D01*
X196270813Y-47309701D01*
X196521059Y-47324566D01*
G37*
G36*
X199550000Y-45966247D02*
G01*
X199632129Y-46012777D01*
X199727652Y-46102777D01*
X199829124Y-46225756D01*
X199929097Y-46371227D01*
X200020124Y-46528698D01*
X200094761Y-46687680D01*
X200145559Y-46837684D01*
X200165601Y-46915886D01*
X200128131Y-46837684D01*
X200101349Y-46781321D01*
X200054769Y-46682569D01*
X200002766Y-46571797D01*
X199918083Y-46410517D01*
X199809187Y-46243978D01*
X199697538Y-46110404D01*
X199593256Y-46023347D01*
X199572315Y-46010131D01*
X199526886Y-45975846D01*
X199524015Y-45962145D01*
X199550000Y-45966247D01*
G37*
G36*
X194082265Y-47258511D02*
G01*
X194098489Y-47329740D01*
X194135186Y-47466021D01*
X194222357Y-47665683D01*
X194335755Y-47833395D01*
X194425247Y-47937603D01*
X194566199Y-47829969D01*
X194727819Y-47721525D01*
X194975960Y-47592675D01*
X195243181Y-47488416D01*
X195504988Y-47419461D01*
X195509538Y-47418649D01*
X195518537Y-47421802D01*
X195476215Y-47441464D01*
X195389773Y-47474650D01*
X195266415Y-47518373D01*
X195133862Y-47566802D01*
X194928513Y-47653319D01*
X194748578Y-47743268D01*
X194605841Y-47830546D01*
X194512088Y-47909051D01*
X194504067Y-47917788D01*
X194463219Y-47952786D01*
X194425321Y-47953727D01*
X194376482Y-47915584D01*
X194302811Y-47833331D01*
X194282324Y-47808120D01*
X194199859Y-47681048D01*
X194130701Y-47536657D01*
X194084009Y-47396534D01*
X194068945Y-47282262D01*
X194072797Y-47246903D01*
X194082265Y-47258511D01*
G37*
G36*
X194980652Y-44902742D02*
G01*
X195075846Y-44938429D01*
X195165560Y-45006639D01*
X195224520Y-45089855D01*
X195247507Y-45177270D01*
X195232830Y-45285261D01*
X195165210Y-45395676D01*
X195041219Y-45516494D01*
X194960431Y-45585408D01*
X194795104Y-45732815D01*
X194638004Y-45880686D01*
X194499247Y-46019083D01*
X194388947Y-46138070D01*
X194317222Y-46227709D01*
X194260904Y-46322306D01*
X194175272Y-46526174D01*
X194116046Y-46752511D01*
X194090672Y-46976701D01*
X194084545Y-47197413D01*
X194073529Y-46983065D01*
X194072503Y-46960610D01*
X194074692Y-46819581D01*
X194096683Y-46685175D01*
X194143202Y-46526429D01*
X194150672Y-46504645D01*
X194221181Y-46342784D01*
X194320117Y-46183156D01*
X194454016Y-46017556D01*
X194629415Y-45837779D01*
X194852850Y-45635618D01*
X194897542Y-45596739D01*
X195032171Y-45475601D01*
X195125461Y-45382481D01*
X195183972Y-45309527D01*
X195214267Y-45248885D01*
X195222907Y-45192701D01*
X195219029Y-45160008D01*
X195174256Y-45066946D01*
X195093397Y-44984493D01*
X194994153Y-44932762D01*
X194977922Y-44927777D01*
X194938649Y-44909796D01*
X194952194Y-44901096D01*
X194980652Y-44902742D01*
G37*
G36*
X199053991Y-45982025D02*
G01*
X199156820Y-46011590D01*
X199233359Y-46015452D01*
X199312152Y-45994794D01*
X199328045Y-45989246D01*
X199397505Y-45970246D01*
X199432670Y-45969533D01*
X199432117Y-45974213D01*
X199396274Y-45995622D01*
X199323926Y-46023316D01*
X199318922Y-46024955D01*
X199232982Y-46045809D01*
X199154812Y-46042152D01*
X199052311Y-46012733D01*
X198971151Y-45988138D01*
X198795576Y-45960874D01*
X198654803Y-45979777D01*
X198552817Y-46044592D01*
X198509441Y-46100253D01*
X198483169Y-46174135D01*
X198493479Y-46259541D01*
X198542313Y-46367963D01*
X198631613Y-46510890D01*
X198723036Y-46651378D01*
X198840714Y-46854017D01*
X198918261Y-47023497D01*
X198958831Y-47166132D01*
X198961799Y-47182898D01*
X198980554Y-47286175D01*
X198996352Y-47369457D01*
X198999256Y-47384929D01*
X199000977Y-47420638D01*
X198982467Y-47400738D01*
X198971929Y-47377642D01*
X198949509Y-47298899D01*
X198930655Y-47198563D01*
X198925137Y-47166234D01*
X198864587Y-46974341D01*
X198751876Y-46749821D01*
X198587454Y-46493595D01*
X198533723Y-46413026D01*
X198468762Y-46289382D01*
X198448343Y-46190463D01*
X198471249Y-46105063D01*
X198536264Y-46021977D01*
X198575416Y-45988776D01*
X198700373Y-45936461D01*
X198859241Y-45934261D01*
X199053991Y-45982025D01*
G37*
G36*
X199445515Y-50017712D02*
G01*
X199495669Y-50380953D01*
X199503557Y-50756919D01*
X199501897Y-50797912D01*
X199492182Y-50937600D01*
X199473890Y-51044485D01*
X199441544Y-51142552D01*
X199389668Y-51255788D01*
X199366795Y-51300434D01*
X199266028Y-51455443D01*
X199158185Y-51553343D01*
X199038753Y-51598545D01*
X199005026Y-51601636D01*
X198876123Y-51576401D01*
X198746629Y-51499092D01*
X198626225Y-51376895D01*
X198524595Y-51216994D01*
X198458633Y-51073375D01*
X198361489Y-50798834D01*
X198289942Y-50507700D01*
X198245008Y-50211732D01*
X198227701Y-49922683D01*
X198239036Y-49652310D01*
X198280029Y-49412368D01*
X198351695Y-49214614D01*
X198365950Y-49187376D01*
X198371697Y-49179132D01*
X198452543Y-49179132D01*
X198462796Y-49262668D01*
X198469550Y-49294705D01*
X198486227Y-49346811D01*
X198498650Y-49350314D01*
X198515898Y-49334339D01*
X198574178Y-49340159D01*
X198662138Y-49377169D01*
X198770022Y-49438344D01*
X198888075Y-49516662D01*
X199006540Y-49605099D01*
X199115661Y-49696632D01*
X199205684Y-49784239D01*
X199266852Y-49860895D01*
X199289409Y-49919579D01*
X199293269Y-49940545D01*
X199324600Y-49965763D01*
X199332305Y-49962558D01*
X199343254Y-49922697D01*
X199338837Y-49856981D01*
X199322267Y-49790502D01*
X199296758Y-49748352D01*
X199290947Y-49743735D01*
X199278436Y-49727635D01*
X199265889Y-49694044D01*
X199248636Y-49628473D01*
X199222006Y-49516428D01*
X199184005Y-49403847D01*
X199101061Y-49255855D01*
X198993356Y-49126412D01*
X198873334Y-49029762D01*
X198753444Y-48980150D01*
X198680077Y-48972637D01*
X198614342Y-48991349D01*
X198539549Y-49048722D01*
X198522943Y-49063736D01*
X198469088Y-49122590D01*
X198452543Y-49179132D01*
X198371697Y-49179132D01*
X198465429Y-49044671D01*
X198578400Y-48960875D01*
X198708020Y-48933497D01*
X198844452Y-48956996D01*
X198971518Y-49031222D01*
X199092232Y-49160095D01*
X199211357Y-49347532D01*
X199228981Y-49380401D01*
X199355738Y-49679946D01*
X199420260Y-49922697D01*
X199445515Y-50017712D01*
G37*
G36*
X200190143Y-46948467D02*
G01*
X200214046Y-47004101D01*
X200244018Y-47092665D01*
X200266130Y-47183128D01*
X200291812Y-47355189D01*
X200308835Y-47557238D01*
X200316661Y-47770973D01*
X200314750Y-47978091D01*
X200302563Y-48160290D01*
X200279562Y-48299269D01*
X200197619Y-48542898D01*
X200042007Y-48832253D01*
X199830314Y-49094369D01*
X199628802Y-49303098D01*
X199693712Y-49685272D01*
X199717529Y-49836600D01*
X199737792Y-49988793D01*
X199750764Y-50114603D01*
X199754361Y-50196469D01*
X199753727Y-50214624D01*
X199751189Y-50259980D01*
X199747195Y-50273448D01*
X199740535Y-50248984D01*
X199729996Y-50180545D01*
X199714367Y-50062085D01*
X199692436Y-49887561D01*
X199686111Y-49839221D01*
X199645427Y-49595778D01*
X199593306Y-49366556D01*
X199533836Y-49167667D01*
X199471105Y-49015223D01*
X199428014Y-48938038D01*
X199296888Y-48748446D01*
X199127690Y-48546468D01*
X198931993Y-48344423D01*
X198721368Y-48154629D01*
X198507389Y-47989405D01*
X198425040Y-47932353D01*
X198306941Y-47855826D01*
X198196331Y-47794071D01*
X198076367Y-47738863D01*
X197930207Y-47681981D01*
X197741010Y-47615199D01*
X197739488Y-47614675D01*
X197609805Y-47568777D01*
X197509985Y-47531049D01*
X197449853Y-47505380D01*
X197439229Y-47495663D01*
X197481473Y-47502206D01*
X197574574Y-47527666D01*
X197698493Y-47567400D01*
X197838211Y-47616134D01*
X197978713Y-47668593D01*
X198104981Y-47719504D01*
X198201998Y-47763590D01*
X198261551Y-47795227D01*
X198394369Y-47873779D01*
X198511580Y-47952006D01*
X198574810Y-47996166D01*
X198645371Y-48040063D01*
X198683625Y-48056668D01*
X198694232Y-48053603D01*
X198741348Y-48012500D01*
X198800526Y-47936464D01*
X198860872Y-47842066D01*
X198911492Y-47745874D01*
X198941493Y-47664457D01*
X198951357Y-47626032D01*
X198966473Y-47589955D01*
X198973459Y-47612888D01*
X198955367Y-47724963D01*
X198896950Y-47856936D01*
X198807313Y-47986306D01*
X198722387Y-48087022D01*
X198952511Y-48314755D01*
X199025935Y-48388812D01*
X199241712Y-48628732D01*
X199406368Y-48852743D01*
X199524915Y-49067438D01*
X199566658Y-49151769D01*
X199607470Y-49220094D01*
X199633166Y-49246305D01*
X199639838Y-49243693D01*
X199682888Y-49208564D01*
X199751856Y-49141024D01*
X199835323Y-49052046D01*
X199921413Y-48948899D01*
X200071981Y-48723343D01*
X200188788Y-48484656D01*
X200260807Y-48253533D01*
X200275925Y-48141369D01*
X200284374Y-47974905D01*
X200284525Y-47782345D01*
X200277070Y-47581384D01*
X200262699Y-47389716D01*
X200242102Y-47225033D01*
X200215971Y-47105030D01*
X200198760Y-47046144D01*
X200181454Y-46971912D01*
X200179931Y-46937721D01*
X200190143Y-46948467D01*
G37*
G36*
X196955179Y-49495545D02*
G01*
X196943182Y-49812691D01*
X196897190Y-50087458D01*
X196815871Y-50326758D01*
X196697889Y-50537502D01*
X196623951Y-50633660D01*
X196477398Y-50765140D01*
X196295620Y-50858350D01*
X196179760Y-50885000D01*
X196019763Y-50893539D01*
X195845770Y-50882649D01*
X195680822Y-50853860D01*
X195547960Y-50808701D01*
X195506664Y-50786295D01*
X195367568Y-50681408D01*
X195231393Y-50540534D01*
X195114210Y-50381899D01*
X195032090Y-50223725D01*
X194983421Y-50054280D01*
X194951158Y-49821523D01*
X194943689Y-49561205D01*
X194961379Y-49289366D01*
X195004596Y-49022046D01*
X195008087Y-49005977D01*
X195057219Y-48803506D01*
X195109130Y-48646051D01*
X195171572Y-48517427D01*
X195252296Y-48401451D01*
X195262048Y-48390534D01*
X195350302Y-48390534D01*
X195353275Y-48423854D01*
X195393358Y-48422304D01*
X195422319Y-48419877D01*
X195418782Y-48458058D01*
X195416834Y-48463349D01*
X195412120Y-48493893D01*
X195443836Y-48474765D01*
X195470858Y-48456376D01*
X195511240Y-48443484D01*
X195539678Y-48434823D01*
X195592965Y-48397889D01*
X195647669Y-48368636D01*
X195734376Y-48354709D01*
X195867686Y-48354065D01*
X195902506Y-48355436D01*
X196033216Y-48369141D01*
X196142751Y-48401869D01*
X196264650Y-48462810D01*
X196385952Y-48546993D01*
X196493622Y-48650656D01*
X196573428Y-48757893D01*
X196611334Y-48852909D01*
X196614249Y-48863561D01*
X196641320Y-48922037D01*
X196686048Y-49000283D01*
X196702762Y-49027956D01*
X196740571Y-49096667D01*
X196755665Y-49134410D01*
X196759227Y-49149316D01*
X196782051Y-49209753D01*
X196819009Y-49294942D01*
X196841669Y-49342245D01*
X196878374Y-49408132D01*
X196900886Y-49433989D01*
X196902990Y-49432188D01*
X196907738Y-49390688D01*
X196906291Y-49305505D01*
X196898779Y-49191563D01*
X196893416Y-49136509D01*
X196869229Y-48992108D01*
X196826225Y-48855517D01*
X196755866Y-48697209D01*
X196740644Y-48666328D01*
X196598025Y-48421129D01*
X196445453Y-48236584D01*
X196281361Y-48111462D01*
X196104185Y-48044534D01*
X195912357Y-48034568D01*
X195827437Y-48045674D01*
X195701913Y-48082159D01*
X195583063Y-48149532D01*
X195449692Y-48258030D01*
X195439028Y-48267852D01*
X195380274Y-48334485D01*
X195350302Y-48390534D01*
X195262048Y-48390534D01*
X195359052Y-48281938D01*
X195401242Y-48239691D01*
X195586403Y-48089684D01*
X195770809Y-48000182D01*
X195958536Y-47969721D01*
X196153663Y-47996839D01*
X196257507Y-48040399D01*
X196404625Y-48143850D01*
X196550956Y-48289143D01*
X196686282Y-48465748D01*
X196800383Y-48663137D01*
X196854876Y-48779377D01*
X196891928Y-48877081D01*
X196915959Y-48975622D01*
X196931973Y-49095564D01*
X196944972Y-49257472D01*
X196950683Y-49390688D01*
X196955179Y-49495545D01*
G37*
G36*
X196918692Y-52891920D02*
G01*
X197030430Y-53001383D01*
X197076645Y-53059655D01*
X197116163Y-53109482D01*
X197143475Y-53160600D01*
X197163294Y-53232082D01*
X197172253Y-53331896D01*
X197172977Y-53477031D01*
X197172955Y-53478503D01*
X197170809Y-53607780D01*
X197176224Y-53690038D01*
X197200095Y-53733068D01*
X197253319Y-53744658D01*
X197346791Y-53732597D01*
X197491405Y-53704675D01*
X197512620Y-53700571D01*
X197937488Y-53597034D01*
X198311783Y-53462805D01*
X198634158Y-53298562D01*
X198903266Y-53104987D01*
X199117761Y-52882761D01*
X199127981Y-52869717D01*
X199246001Y-52704879D01*
X199359579Y-52523235D01*
X199456269Y-52345907D01*
X199523622Y-52194019D01*
X199535200Y-52164415D01*
X199558343Y-52119874D01*
X199568427Y-52124137D01*
X199557827Y-52187810D01*
X199514121Y-52300297D01*
X199443275Y-52439232D01*
X199352423Y-52592699D01*
X199248704Y-52748780D01*
X199139254Y-52895561D01*
X199031209Y-53021124D01*
X199020931Y-53031857D01*
X198824150Y-53201563D01*
X198578624Y-53360054D01*
X198297165Y-53501592D01*
X197992586Y-53620439D01*
X197677701Y-53710858D01*
X197365323Y-53767111D01*
X197341390Y-53770092D01*
X197211700Y-53791913D01*
X197119797Y-53824562D01*
X197044140Y-53878623D01*
X196963185Y-53964678D01*
X196951462Y-53978131D01*
X196884070Y-54052924D01*
X196787542Y-54157707D01*
X196672992Y-54280480D01*
X196551529Y-54409244D01*
X196427218Y-54545077D01*
X196249171Y-54765889D01*
X196117709Y-54972015D01*
X196027280Y-55172738D01*
X195972330Y-55377339D01*
X195956886Y-55460184D01*
X195935484Y-55567044D01*
X195918071Y-55625922D01*
X195899458Y-55645450D01*
X195874455Y-55634262D01*
X195837870Y-55600991D01*
X195836403Y-55599616D01*
X195780832Y-55553045D01*
X195746314Y-55533743D01*
X195735743Y-55542413D01*
X195712053Y-55594582D01*
X195687750Y-55675660D01*
X195668760Y-55764395D01*
X195661012Y-55839534D01*
X195660928Y-55873928D01*
X195660838Y-55910719D01*
X196184791Y-55907586D01*
X196415419Y-55908524D01*
X196620216Y-55915655D01*
X196777890Y-55929669D01*
X196896429Y-55951056D01*
X197000741Y-55977576D01*
X197202917Y-56034878D01*
X197352967Y-56089143D01*
X197457745Y-56144525D01*
X197524103Y-56205182D01*
X197558892Y-56275268D01*
X197568966Y-56358940D01*
X197562381Y-56424028D01*
X197540636Y-56543427D01*
X197506917Y-56698298D01*
X197464556Y-56875629D01*
X197416888Y-57062409D01*
X197367245Y-57245630D01*
X197318961Y-57412279D01*
X197275368Y-57549346D01*
X197239799Y-57643821D01*
X197153853Y-57810126D01*
X197001668Y-58035954D01*
X196823621Y-58243319D01*
X196636830Y-58410452D01*
X196605807Y-58433575D01*
X196472785Y-58523191D01*
X196351056Y-58582350D01*
X196216004Y-58620933D01*
X196043012Y-58648823D01*
X195877773Y-58670151D01*
X195999741Y-58423560D01*
X196033829Y-58353303D01*
X196150539Y-58081069D01*
X196232612Y-57823556D01*
X196287921Y-57557098D01*
X196295141Y-57510111D01*
X196308861Y-57374087D01*
X196297957Y-57287381D01*
X196256139Y-57241361D01*
X196177117Y-57227395D01*
X196054602Y-57236849D01*
X195980836Y-57247711D01*
X195907991Y-57263175D01*
X195879803Y-57276206D01*
X195885360Y-57296662D01*
X195916714Y-57355238D01*
X195962737Y-57423758D01*
X196008422Y-57480673D01*
X196038758Y-57504433D01*
X196051952Y-57509707D01*
X196067488Y-57551354D01*
X196057336Y-57577806D01*
X196016763Y-57595894D01*
X195935066Y-57605094D01*
X195801601Y-57607659D01*
X195799609Y-57607659D01*
X195654167Y-57604117D01*
X195553415Y-57590979D01*
X195479932Y-57564284D01*
X195416296Y-57520073D01*
X195358957Y-57473801D01*
X195311062Y-57447546D01*
X195290100Y-57465880D01*
X195285468Y-57529572D01*
X195280249Y-57570100D01*
X195254666Y-57656410D01*
X195215093Y-57754680D01*
X195169785Y-57847023D01*
X195126998Y-57915547D01*
X195094986Y-57942364D01*
X195091751Y-57941674D01*
X195073818Y-57906792D01*
X195066503Y-57835439D01*
X195066495Y-57832336D01*
X195060743Y-57743902D01*
X195047516Y-57679036D01*
X195032696Y-57648567D01*
X195003722Y-57630653D01*
X194981521Y-57666083D01*
X194972660Y-57748741D01*
X194971045Y-57787056D01*
X194944537Y-57878788D01*
X194875106Y-57967706D01*
X194846806Y-57995949D01*
X194775938Y-58054155D01*
X194734190Y-58058383D01*
X194716420Y-58006278D01*
X194717489Y-57895485D01*
X194719260Y-57824267D01*
X194713059Y-57751569D01*
X194698671Y-57723398D01*
X194698417Y-57723406D01*
X194675906Y-57752043D01*
X194645483Y-57825592D01*
X194613658Y-57928359D01*
X194558177Y-58133319D01*
X194628625Y-58208307D01*
X194661679Y-58239747D01*
X194797526Y-58327722D01*
X194959529Y-58388929D01*
X195120903Y-58412271D01*
X195269828Y-58412967D01*
X195191626Y-58474896D01*
X195176340Y-58485736D01*
X195151749Y-58503175D01*
X195057780Y-58560467D01*
X194952440Y-58617050D01*
X194920616Y-58632608D01*
X194851174Y-58662012D01*
X194782203Y-58680271D01*
X194697959Y-58689533D01*
X194582695Y-58691950D01*
X194420666Y-58689672D01*
X194333094Y-58688257D01*
X194185994Y-58689154D01*
X194081704Y-58696435D01*
X194006892Y-58711390D01*
X193948224Y-58735305D01*
X193846571Y-58788542D01*
X193849335Y-59077091D01*
X193847599Y-59203538D01*
X193833278Y-59371586D01*
X193805946Y-59490763D01*
X193753974Y-59623708D01*
X193700839Y-59734807D01*
X193660188Y-59785265D01*
X193631446Y-59775325D01*
X193614038Y-59705232D01*
X193607387Y-59575232D01*
X193604335Y-59501497D01*
X193565898Y-59286718D01*
X193487755Y-59101137D01*
X193375193Y-58952390D01*
X193233497Y-58848116D01*
X193067955Y-58795949D01*
X193060946Y-58795022D01*
X192980318Y-58789873D01*
X192936138Y-58808146D01*
X192905355Y-58858743D01*
X192885228Y-58933087D01*
X192902591Y-59034753D01*
X192918509Y-59096592D01*
X192907251Y-59128106D01*
X192861532Y-59113384D01*
X192779570Y-59051750D01*
X192659583Y-58942527D01*
X192634486Y-58918679D01*
X192534704Y-58830041D01*
X192459085Y-58783852D01*
X192391903Y-58777742D01*
X192317434Y-58809344D01*
X192219951Y-58876286D01*
X192152320Y-58927873D01*
X191910733Y-59141010D01*
X191662683Y-59401493D01*
X191416999Y-59699542D01*
X191182509Y-60025379D01*
X191109695Y-60129084D01*
X191029521Y-60232570D01*
X190963706Y-60306111D01*
X190921798Y-60338249D01*
X190916735Y-60339760D01*
X190851771Y-60362578D01*
X190751226Y-60400917D01*
X190634626Y-60447358D01*
X190611046Y-60456897D01*
X190505295Y-60498445D01*
X190425968Y-60527643D01*
X190388743Y-60538669D01*
X190388141Y-60538513D01*
X190381851Y-60505310D01*
X190379664Y-60422452D01*
X190381614Y-60301866D01*
X190387732Y-60155480D01*
X190387882Y-60152674D01*
X190413065Y-59894747D01*
X190462849Y-59585566D01*
X190535968Y-59230765D01*
X190631160Y-58835981D01*
X190747159Y-58406846D01*
X190882702Y-57948997D01*
X190883176Y-57947457D01*
X190923709Y-57811633D01*
X190933309Y-57776855D01*
X194057768Y-57776855D01*
X194077494Y-57858058D01*
X194130145Y-57989412D01*
X194216124Y-58172187D01*
X194208838Y-58181099D01*
X194165036Y-58164367D01*
X194109247Y-58137625D01*
X194074114Y-58136289D01*
X194065518Y-58172276D01*
X194078748Y-58217750D01*
X194128775Y-58300997D01*
X194204457Y-58397405D01*
X194293380Y-58491514D01*
X194383133Y-58567866D01*
X194411483Y-58587476D01*
X194530505Y-58644587D01*
X194656244Y-58656634D01*
X194809681Y-58626503D01*
X194828308Y-58620682D01*
X194904863Y-58590224D01*
X194982378Y-58552037D01*
X195046334Y-58514435D01*
X195082213Y-58485736D01*
X195075496Y-58474254D01*
X195014011Y-58463408D01*
X194909249Y-58427194D01*
X194791580Y-58374925D01*
X194682692Y-58316396D01*
X194604271Y-58261403D01*
X194529700Y-58184684D01*
X194406562Y-58008412D01*
X194310299Y-57804227D01*
X194252500Y-57594109D01*
X194242167Y-57525342D01*
X194231580Y-57390694D01*
X194235399Y-57244702D01*
X194253679Y-57062613D01*
X194263902Y-56972414D01*
X194270828Y-56894457D01*
X195082143Y-56894457D01*
X195082644Y-57052099D01*
X195086353Y-57306865D01*
X195093642Y-57501606D01*
X195104475Y-57635508D01*
X195118815Y-57707758D01*
X195155487Y-57801600D01*
X195192462Y-57707758D01*
X195198533Y-57688611D01*
X195213685Y-57590851D01*
X195221657Y-57447118D01*
X195221622Y-57269827D01*
X195217188Y-57023491D01*
X195215319Y-56734178D01*
X195217579Y-56479806D01*
X195223828Y-56267255D01*
X195233924Y-56103405D01*
X195247727Y-55995135D01*
X195256535Y-55943755D01*
X195262023Y-55873928D01*
X195254001Y-55846551D01*
X195236745Y-55862527D01*
X195200159Y-55922154D01*
X195156377Y-56010775D01*
X195134198Y-56062021D01*
X195115667Y-56115013D01*
X195102145Y-56174371D01*
X195092847Y-56249461D01*
X195086984Y-56349649D01*
X195083770Y-56484301D01*
X195082419Y-56662781D01*
X195082143Y-56894457D01*
X194270828Y-56894457D01*
X194274408Y-56854155D01*
X194278221Y-56769738D01*
X194274452Y-56733236D01*
X194271807Y-56732817D01*
X194251777Y-56764386D01*
X194221181Y-56839779D01*
X194185501Y-56945891D01*
X194171728Y-56996120D01*
X194153822Y-57061421D01*
X194122937Y-57248051D01*
X194113214Y-57462725D01*
X194112753Y-57510528D01*
X194107262Y-57636523D01*
X194096403Y-57717308D01*
X194081158Y-57744252D01*
X194070568Y-57744532D01*
X194057768Y-57776855D01*
X190933309Y-57776855D01*
X190954015Y-57701841D01*
X190971177Y-57629277D01*
X190972279Y-57605133D01*
X190972075Y-57605232D01*
X190935655Y-57623835D01*
X190860164Y-57662927D01*
X190761679Y-57714181D01*
X190661018Y-57759936D01*
X190522171Y-57808161D01*
X190401950Y-57835145D01*
X190233621Y-57856293D01*
X190349062Y-57735104D01*
X190388946Y-57690248D01*
X190456454Y-57600187D01*
X190497645Y-57525857D01*
X190517683Y-57451371D01*
X190529455Y-57352189D01*
X190528842Y-57258145D01*
X190516151Y-57188027D01*
X190491687Y-57160624D01*
X190468756Y-57177049D01*
X190418185Y-57237595D01*
X190351014Y-57332262D01*
X190275520Y-57449971D01*
X190233509Y-57517753D01*
X190132277Y-57676540D01*
X190029323Y-57833043D01*
X189941471Y-57961503D01*
X189784489Y-58183968D01*
X189383439Y-58349032D01*
X189370567Y-58354326D01*
X189201521Y-58423188D01*
X189034122Y-58490319D01*
X188887069Y-58548275D01*
X188779064Y-58589612D01*
X188734498Y-58606168D01*
X188594896Y-58658047D01*
X188434057Y-58717842D01*
X188278572Y-58775665D01*
X188254306Y-58784652D01*
X188102213Y-58839938D01*
X187916363Y-58906228D01*
X187718044Y-58975973D01*
X187528547Y-59041624D01*
X187507043Y-59049042D01*
X187306125Y-59121228D01*
X187091758Y-59202477D01*
X186888273Y-59283374D01*
X186720003Y-59354501D01*
X186702862Y-59362074D01*
X186514139Y-59443489D01*
X186338300Y-59515993D01*
X186184180Y-59576237D01*
X186060615Y-59620873D01*
X185976439Y-59646554D01*
X185940488Y-59649929D01*
X185940884Y-59647745D01*
X185975220Y-59627775D01*
X186051825Y-59594031D01*
X186157505Y-59552441D01*
X186181680Y-59543350D01*
X186362656Y-59474359D01*
X186495960Y-59419593D01*
X186591503Y-59372443D01*
X186659198Y-59326299D01*
X186708956Y-59274553D01*
X186710780Y-59271758D01*
X186782268Y-59271758D01*
X186796003Y-59270781D01*
X186854086Y-59251957D01*
X186941855Y-59217925D01*
X187042613Y-59175759D01*
X187139660Y-59132531D01*
X187216296Y-59095315D01*
X187255823Y-59071184D01*
X187265770Y-59042127D01*
X187268638Y-59009778D01*
X187313072Y-59009778D01*
X187332479Y-59056852D01*
X187381582Y-59066422D01*
X187469670Y-59042823D01*
X187606035Y-58990391D01*
X187659716Y-58969257D01*
X187794342Y-58917653D01*
X187951276Y-58858765D01*
X188106527Y-58801640D01*
X188320322Y-58723209D01*
X188570838Y-58629695D01*
X188815060Y-58536966D01*
X189042470Y-58449089D01*
X189242549Y-58370135D01*
X189404781Y-58304174D01*
X189518646Y-58255274D01*
X189567368Y-58233040D01*
X189650591Y-58190140D01*
X189698059Y-58148604D01*
X189724949Y-58091566D01*
X189746439Y-58002161D01*
X189747027Y-57999375D01*
X189760743Y-57920360D01*
X189778861Y-57798019D01*
X189799481Y-57647387D01*
X189820702Y-57483499D01*
X189840623Y-57321393D01*
X189857346Y-57176103D01*
X189868968Y-57062667D01*
X189873591Y-56996120D01*
X189873518Y-56993460D01*
X189846887Y-56969680D01*
X189780304Y-56976109D01*
X189685338Y-57008829D01*
X189573558Y-57063917D01*
X189456531Y-57137455D01*
X189421646Y-57163741D01*
X189392022Y-57201167D01*
X189409610Y-57229143D01*
X189410800Y-57229974D01*
X189424214Y-57246506D01*
X189381219Y-57238487D01*
X189354370Y-57233126D01*
X189315021Y-57242581D01*
X189321627Y-57271559D01*
X189375757Y-57301856D01*
X189413084Y-57317615D01*
X189427016Y-57336120D01*
X189397410Y-57337527D01*
X189335006Y-57319990D01*
X189302516Y-57310227D01*
X189256634Y-57314054D01*
X189203427Y-57348935D01*
X189126218Y-57423108D01*
X189064259Y-57491117D01*
X189018706Y-57562560D01*
X189015099Y-57616246D01*
X189021545Y-57637106D01*
X189022500Y-57658125D01*
X188992611Y-57626243D01*
X188950589Y-57594219D01*
X188895324Y-57610603D01*
X188852748Y-57629170D01*
X188817275Y-57610526D01*
X188811043Y-57602626D01*
X188752792Y-57584804D01*
X188653044Y-57611583D01*
X188608184Y-57612494D01*
X188543561Y-57581599D01*
X188508757Y-57553273D01*
X188503373Y-57543743D01*
X188550222Y-57565269D01*
X188574752Y-57576572D01*
X188632700Y-57595812D01*
X188646200Y-57586533D01*
X188608861Y-57550359D01*
X188577271Y-57519446D01*
X188583555Y-57504433D01*
X188593595Y-57505547D01*
X188638301Y-57535714D01*
X188660577Y-57557372D01*
X188697711Y-57565809D01*
X188712798Y-57543534D01*
X188711892Y-57520375D01*
X188715917Y-57457512D01*
X188719664Y-57430733D01*
X188729159Y-57423361D01*
X188747784Y-57473152D01*
X188772828Y-57551354D01*
X188775946Y-57464907D01*
X188784934Y-57396832D01*
X188789365Y-57383437D01*
X188879384Y-57383437D01*
X188882212Y-57410590D01*
X188890123Y-57403088D01*
X188920863Y-57355180D01*
X188963461Y-57277647D01*
X188969451Y-57266158D01*
X189025854Y-57164662D01*
X189079197Y-57090385D01*
X189147373Y-57021998D01*
X189248276Y-56938176D01*
X189305573Y-56893410D01*
X189395069Y-56830853D01*
X189486691Y-56780023D01*
X189595088Y-56734228D01*
X189734913Y-56686776D01*
X189920813Y-56630975D01*
X190181289Y-56545325D01*
X190484883Y-56417246D01*
X190793226Y-56254387D01*
X191122462Y-56048929D01*
X191139355Y-56037661D01*
X191279213Y-55939957D01*
X191400462Y-55844324D01*
X191517348Y-55737892D01*
X191644112Y-55607787D01*
X191794999Y-55441138D01*
X191863867Y-55363971D01*
X191993559Y-55221245D01*
X192115764Y-55089799D01*
X192219287Y-54981603D01*
X192292935Y-54908630D01*
X192390619Y-54816054D01*
X192509936Y-54700981D01*
X192621384Y-54591777D01*
X192728846Y-54489427D01*
X192861532Y-54370003D01*
X192981295Y-54268521D01*
X192985991Y-54264724D01*
X193085628Y-54183775D01*
X193173668Y-54111626D01*
X193231541Y-54063489D01*
X193251629Y-54046615D01*
X193393040Y-53933802D01*
X193568332Y-53801541D01*
X193761374Y-53661787D01*
X193956035Y-53526497D01*
X194071412Y-53447498D01*
X194269882Y-53307404D01*
X194419228Y-53195434D01*
X194518280Y-53112536D01*
X194565864Y-53059655D01*
X194560810Y-53037740D01*
X194531898Y-53038230D01*
X194441603Y-53061702D01*
X194310696Y-53110870D01*
X194147617Y-53181478D01*
X193960804Y-53269271D01*
X193758694Y-53369994D01*
X193549728Y-53479391D01*
X193342342Y-53593207D01*
X193144975Y-53707186D01*
X192966067Y-53817073D01*
X192814054Y-53918613D01*
X192789249Y-53936135D01*
X192644669Y-54037915D01*
X192507887Y-54133671D01*
X192393309Y-54213344D01*
X192315345Y-54266871D01*
X192226905Y-54331801D01*
X192112147Y-54424255D01*
X192002769Y-54519387D01*
X191990233Y-54530783D01*
X191774034Y-54710106D01*
X191551902Y-54857587D01*
X191295659Y-54992061D01*
X191097963Y-55070084D01*
X190909677Y-55104073D01*
X190731966Y-55087745D01*
X190551821Y-55021618D01*
X190495948Y-54992786D01*
X190418055Y-54938971D01*
X190361356Y-54868903D01*
X190305451Y-54761004D01*
X190293557Y-54735465D01*
X190253908Y-54652855D01*
X190234640Y-54622214D01*
X190231274Y-54639439D01*
X190239330Y-54700427D01*
X190272244Y-54818147D01*
X190332825Y-54953204D01*
X190407469Y-55078364D01*
X190482800Y-55167944D01*
X190607409Y-55252216D01*
X190644367Y-55277210D01*
X190858833Y-55351738D01*
X191108307Y-55377034D01*
X191357378Y-55377339D01*
X191202150Y-55536492D01*
X191117518Y-55618193D01*
X191004657Y-55716694D01*
X190906158Y-55792494D01*
X190849788Y-55831836D01*
X190782447Y-55880689D01*
X190749754Y-55907048D01*
X190706917Y-55938383D01*
X190621902Y-55988325D01*
X190508665Y-56049734D01*
X190381022Y-56115630D01*
X190252788Y-56179033D01*
X190137778Y-56232962D01*
X190049809Y-56270439D01*
X190002696Y-56284482D01*
X189992099Y-56277034D01*
X190013102Y-56238728D01*
X190075705Y-56174387D01*
X190120493Y-56130857D01*
X190167650Y-56075841D01*
X190178897Y-56047287D01*
X190177717Y-56046480D01*
X190138143Y-56053985D01*
X190057277Y-56086889D01*
X189946617Y-56139318D01*
X189817658Y-56205398D01*
X189681898Y-56279258D01*
X189550834Y-56355023D01*
X189435961Y-56426821D01*
X189432978Y-56428792D01*
X189318904Y-56512093D01*
X189213991Y-56601778D01*
X189140604Y-56678769D01*
X189139970Y-56679583D01*
X189066116Y-56798607D01*
X188993745Y-56956125D01*
X188932322Y-57128798D01*
X188891317Y-57293288D01*
X188887440Y-57315961D01*
X188879384Y-57383437D01*
X188789365Y-57383437D01*
X188808979Y-57324144D01*
X188827655Y-57280988D01*
X188856104Y-57197308D01*
X188885563Y-57097804D01*
X188910844Y-57001275D01*
X188926761Y-56926518D01*
X188928127Y-56892330D01*
X188914982Y-56894346D01*
X188862101Y-56920965D01*
X188785038Y-56968705D01*
X188682274Y-57056639D01*
X188624495Y-57139767D01*
X188575751Y-57209896D01*
X188564259Y-57232104D01*
X188444684Y-57416630D01*
X188292708Y-57591250D01*
X188124720Y-57739175D01*
X187957111Y-57843617D01*
X187839121Y-57908512D01*
X187719186Y-58002851D01*
X187597343Y-58134834D01*
X187590203Y-58143467D01*
X187477670Y-58299037D01*
X187400134Y-58456562D01*
X187349973Y-58635847D01*
X187319566Y-58856700D01*
X187314070Y-58920865D01*
X187313575Y-58965003D01*
X187313072Y-59009778D01*
X187268638Y-59009778D01*
X187272607Y-58965003D01*
X187271463Y-58861886D01*
X187261946Y-58677462D01*
X187098748Y-58829366D01*
X187014954Y-58914451D01*
X186921304Y-59024654D01*
X186853565Y-59121169D01*
X186823460Y-59174684D01*
X186790582Y-59241279D01*
X186782268Y-59271758D01*
X186710780Y-59271758D01*
X186750690Y-59210593D01*
X186794312Y-59127812D01*
X186809865Y-59100411D01*
X186880060Y-59002894D01*
X186976323Y-58890943D01*
X187082595Y-58783723D01*
X187134616Y-58734339D01*
X187239375Y-58623072D01*
X187308873Y-58524611D01*
X187355170Y-58422998D01*
X187381299Y-58361148D01*
X187442866Y-58258411D01*
X187536617Y-58139578D01*
X187670942Y-57993228D01*
X187670977Y-57993191D01*
X187794657Y-57855650D01*
X187860250Y-57771209D01*
X187944374Y-57771209D01*
X187947392Y-57800647D01*
X187991221Y-57786435D01*
X188078072Y-57728787D01*
X188078840Y-57728228D01*
X188168690Y-57653244D01*
X188265390Y-57557300D01*
X188360320Y-57451156D01*
X188444861Y-57345571D01*
X188510393Y-57251304D01*
X188548295Y-57179116D01*
X188549948Y-57139767D01*
X188534329Y-57140444D01*
X188478199Y-57165229D01*
X188398830Y-57211793D01*
X188355822Y-57239051D01*
X188254037Y-57301443D01*
X188171889Y-57349206D01*
X188105809Y-57403414D01*
X188044406Y-57522285D01*
X188039142Y-57539500D01*
X188003715Y-57639319D01*
X187968691Y-57718257D01*
X187944374Y-57771209D01*
X187860250Y-57771209D01*
X187893718Y-57728124D01*
X187962944Y-57618848D01*
X187997118Y-57536057D01*
X187991023Y-57487984D01*
X187989501Y-57487633D01*
X187952142Y-57503473D01*
X187873896Y-57545937D01*
X187765076Y-57609228D01*
X187635996Y-57687548D01*
X187576328Y-57724246D01*
X187407672Y-57826827D01*
X187212994Y-57944035D01*
X187011905Y-58064092D01*
X186824015Y-58175220D01*
X186633962Y-58287262D01*
X186405261Y-58423850D01*
X186218713Y-58538825D01*
X186067165Y-58637699D01*
X185943466Y-58725983D01*
X185840461Y-58809191D01*
X185811432Y-58836332D01*
X185751000Y-58892835D01*
X185667928Y-58982426D01*
X185584094Y-59083478D01*
X185492345Y-59201502D01*
X185435325Y-59278569D01*
X185347969Y-59404138D01*
X185260184Y-59537532D01*
X185177954Y-59668859D01*
X185107260Y-59788224D01*
X185054086Y-59885735D01*
X185024414Y-59951496D01*
X185024228Y-59975615D01*
X185025545Y-59975537D01*
X185069373Y-59963582D01*
X185153238Y-59935234D01*
X185260234Y-59896183D01*
X185272336Y-59891656D01*
X185374942Y-59855668D01*
X185450595Y-59833273D01*
X185483674Y-59829158D01*
X185482359Y-59832385D01*
X185443530Y-59852929D01*
X185362723Y-59885838D01*
X185252905Y-59925687D01*
X185230294Y-59933582D01*
X185102807Y-59980542D01*
X184990654Y-60025524D01*
X184915887Y-60059756D01*
X184893103Y-60071352D01*
X184791446Y-60118189D01*
X184649270Y-60179416D01*
X184480142Y-60249542D01*
X184297626Y-60323077D01*
X184115290Y-60394529D01*
X183946699Y-60458409D01*
X183805419Y-60509224D01*
X183755314Y-60526650D01*
X183632819Y-60570479D01*
X183534124Y-60607471D01*
X183476971Y-60631048D01*
X183449402Y-60643100D01*
X183366247Y-60676420D01*
X183250158Y-60721045D01*
X183117242Y-60770723D01*
X183107732Y-60774236D01*
X182958714Y-60830509D01*
X182775861Y-60901236D01*
X182581456Y-60977727D01*
X182397784Y-61051291D01*
X182341215Y-61073931D01*
X182188306Y-61132435D01*
X182054866Y-61179736D01*
X181953620Y-61211465D01*
X181897291Y-61223247D01*
X181858865Y-61221092D01*
X181850938Y-61206806D01*
X181881678Y-61170970D01*
X181882391Y-61170327D01*
X181928572Y-61170327D01*
X181928584Y-61172670D01*
X181930773Y-61183738D01*
X181941683Y-61188393D01*
X181968370Y-61184242D01*
X182017892Y-61168897D01*
X182097306Y-61139963D01*
X182213669Y-61095051D01*
X182374037Y-61031769D01*
X182585468Y-60947725D01*
X182588112Y-60946674D01*
X182795981Y-60864378D01*
X183007311Y-60781422D01*
X183206720Y-60703794D01*
X183378827Y-60637483D01*
X183508252Y-60588476D01*
X183648200Y-60536270D01*
X183951978Y-60422039D01*
X184204871Y-60324648D01*
X184412519Y-60240939D01*
X184580563Y-60167753D01*
X184714642Y-60101928D01*
X184820396Y-60040307D01*
X184903467Y-59979730D01*
X184969493Y-59917037D01*
X185024115Y-59849069D01*
X185072974Y-59772666D01*
X185121708Y-59684670D01*
X185170546Y-59600992D01*
X185259218Y-59464491D01*
X185367362Y-59308503D01*
X185483547Y-59149024D01*
X185596341Y-59002046D01*
X185694312Y-58883564D01*
X185716726Y-58857485D01*
X185731618Y-58836332D01*
X185724182Y-58833318D01*
X185688405Y-58851653D01*
X185618273Y-58894545D01*
X185507773Y-58965205D01*
X185350892Y-59066841D01*
X185321616Y-59085833D01*
X185169750Y-59183773D01*
X185036647Y-59268157D01*
X184907701Y-59347924D01*
X184768308Y-59432011D01*
X184603860Y-59529356D01*
X184399754Y-59648898D01*
X184304832Y-59704341D01*
X184075226Y-59838595D01*
X183891073Y-59946573D01*
X183746020Y-60032071D01*
X183633715Y-60098886D01*
X183547804Y-60150811D01*
X183481934Y-60191643D01*
X183429754Y-60225177D01*
X183384910Y-60255208D01*
X183377397Y-60260269D01*
X183295513Y-60311972D01*
X183175837Y-60383922D01*
X183033250Y-60467288D01*
X182882636Y-60553238D01*
X182783046Y-60610043D01*
X182606047Y-60714155D01*
X182433554Y-60819172D01*
X182273848Y-60919736D01*
X182135215Y-61010492D01*
X182025935Y-61086081D01*
X181954293Y-61141145D01*
X181928572Y-61170327D01*
X181882391Y-61170327D01*
X181955682Y-61104214D01*
X182000408Y-61068860D01*
X182101984Y-60997375D01*
X182236479Y-60908351D01*
X182391266Y-60809675D01*
X182553721Y-60709236D01*
X182711218Y-60614921D01*
X182851132Y-60534619D01*
X182960838Y-60476217D01*
X182967424Y-60472827D01*
X183030937Y-60436637D01*
X183132365Y-60375866D01*
X183259158Y-60298115D01*
X183398769Y-60210984D01*
X183469955Y-60166562D01*
X183626751Y-60070188D01*
X183817194Y-59954453D01*
X184028475Y-59827093D01*
X184247786Y-59695849D01*
X184462316Y-59568459D01*
X184597245Y-59488369D01*
X184808418Y-59361850D01*
X185012287Y-59238410D01*
X185197174Y-59125173D01*
X185351404Y-59029262D01*
X185463301Y-58957801D01*
X185556335Y-58897651D01*
X185700414Y-58806980D01*
X185832462Y-58726527D01*
X185932513Y-58668599D01*
X185938667Y-58665204D01*
X186042358Y-58606327D01*
X186186166Y-58522571D01*
X186357856Y-58421195D01*
X186545192Y-58309460D01*
X186735938Y-58194626D01*
X186917857Y-58083953D01*
X186956568Y-58060298D01*
X187053496Y-58001182D01*
X187183927Y-57921717D01*
X187335674Y-57829324D01*
X187496552Y-57731427D01*
X187579665Y-57680772D01*
X187757031Y-57572140D01*
X187929635Y-57465797D01*
X188081222Y-57371774D01*
X188195535Y-57300102D01*
X188248932Y-57266292D01*
X188403054Y-57168711D01*
X188570623Y-57062625D01*
X188723780Y-56965672D01*
X188810685Y-56908763D01*
X188922671Y-56829425D01*
X189008348Y-56761525D01*
X189054040Y-56715425D01*
X189054957Y-56714055D01*
X189110915Y-56639602D01*
X189178393Y-56560621D01*
X189255320Y-56477032D01*
X189118855Y-56408766D01*
X189041459Y-56365188D01*
X188917046Y-56274542D01*
X188813524Y-56174390D01*
X188742731Y-56076923D01*
X188716503Y-55994334D01*
X188718268Y-55952643D01*
X188735791Y-55919677D01*
X188783834Y-55926267D01*
X188884084Y-55944840D01*
X189014617Y-55940658D01*
X189138191Y-55911662D01*
X189236596Y-55862462D01*
X189291620Y-55797671D01*
X189298892Y-55757535D01*
X189271280Y-55668242D01*
X189192215Y-55573889D01*
X189067486Y-55482613D01*
X188993211Y-55444212D01*
X188824448Y-55385554D01*
X188631442Y-55346540D01*
X188426217Y-55326929D01*
X188220798Y-55326477D01*
X188027211Y-55344943D01*
X187857480Y-55382084D01*
X187723631Y-55437658D01*
X187637688Y-55511423D01*
X187606285Y-55551659D01*
X187585272Y-55547747D01*
X187560327Y-55490013D01*
X187551039Y-55459021D01*
X187534417Y-55359424D01*
X187527833Y-55247774D01*
X187527834Y-55245810D01*
X187534692Y-55140699D01*
X187562307Y-55067603D01*
X187621675Y-54997157D01*
X187642815Y-54974804D01*
X187694737Y-54906457D01*
X187715518Y-54856181D01*
X187708680Y-54835578D01*
X187669671Y-54770511D01*
X187603825Y-54678596D01*
X187520013Y-54572693D01*
X187324508Y-54336339D01*
X187324508Y-54098280D01*
X187325044Y-54041478D01*
X187334003Y-53912083D01*
X187345684Y-53862223D01*
X187500235Y-53862223D01*
X187503964Y-53894298D01*
X187549274Y-53970564D01*
X187590207Y-54024462D01*
X187691955Y-54123787D01*
X187832294Y-54223143D01*
X188022091Y-54330808D01*
X188101721Y-54374781D01*
X188216256Y-54452594D01*
X188271683Y-54518106D01*
X188269112Y-54573023D01*
X188209654Y-54619050D01*
X188164351Y-54642826D01*
X188169127Y-54653708D01*
X188231651Y-54658885D01*
X188240550Y-54659337D01*
X188317226Y-54662221D01*
X188438594Y-54665936D01*
X188589852Y-54670053D01*
X188756198Y-54674140D01*
X188848767Y-54676988D01*
X189066453Y-54691909D01*
X189232734Y-54718964D01*
X189355333Y-54760454D01*
X189441972Y-54818680D01*
X189500373Y-54895944D01*
X189521217Y-54939165D01*
X189523175Y-54982711D01*
X189483872Y-55020754D01*
X189465137Y-55031359D01*
X189382959Y-55055069D01*
X189282258Y-55064531D01*
X189223163Y-55064867D01*
X189172854Y-55069364D01*
X189171628Y-55083810D01*
X189211147Y-55114005D01*
X189226655Y-55122832D01*
X189306187Y-55151929D01*
X189421854Y-55181983D01*
X189554376Y-55207728D01*
X189591171Y-55213515D01*
X189735168Y-55233121D01*
X189866861Y-55246876D01*
X189961628Y-55252097D01*
X190096285Y-55252216D01*
X190086751Y-55106925D01*
X190082124Y-55048810D01*
X190066747Y-54985571D01*
X190028451Y-54951279D01*
X189951438Y-54924656D01*
X189874767Y-54898371D01*
X189695554Y-54806179D01*
X189546180Y-54685505D01*
X189442929Y-54548398D01*
X189437463Y-54536809D01*
X189411259Y-54446973D01*
X189388820Y-54316273D01*
X189373399Y-54162757D01*
X189371266Y-54132942D01*
X189355521Y-53980945D01*
X189334992Y-53885878D01*
X189308717Y-53842976D01*
X189293017Y-53835308D01*
X189267199Y-53847694D01*
X189253767Y-53912645D01*
X189248575Y-53949023D01*
X189206274Y-54061657D01*
X189119959Y-54154293D01*
X188980374Y-54237947D01*
X188939104Y-54257633D01*
X188857015Y-54290273D01*
X188777075Y-54307200D01*
X188677799Y-54311783D01*
X188537699Y-54307394D01*
X188364846Y-54291091D01*
X188088711Y-54226217D01*
X187846406Y-54117384D01*
X187645913Y-53967634D01*
X187606362Y-53930978D01*
X187535297Y-53874421D01*
X187500235Y-53862223D01*
X187345684Y-53862223D01*
X187358019Y-53809575D01*
X187402273Y-53707954D01*
X187480039Y-53555688D01*
X187499825Y-53652429D01*
X187541583Y-53770472D01*
X187650012Y-53915784D01*
X187817460Y-54044936D01*
X188042865Y-54156942D01*
X188149566Y-54193815D01*
X188268985Y-54207540D01*
X188370325Y-54175609D01*
X188470265Y-54095631D01*
X188530993Y-54022013D01*
X188554592Y-53943909D01*
X188530219Y-53856627D01*
X188457324Y-53745350D01*
X188422669Y-53702441D01*
X188304626Y-53593161D01*
X189029311Y-53593161D01*
X189051762Y-53630182D01*
X189129561Y-53682612D01*
X189257038Y-53743278D01*
X189427995Y-53809793D01*
X189636236Y-53879774D01*
X189875563Y-53950834D01*
X190139779Y-54020589D01*
X190177051Y-54029809D01*
X190363985Y-54073432D01*
X190521430Y-54103407D01*
X190672395Y-54122823D01*
X190839889Y-54134766D01*
X191046921Y-54142325D01*
X191286461Y-54145019D01*
X191605229Y-54132713D01*
X191872963Y-54099965D01*
X192094788Y-54046056D01*
X192275829Y-53970270D01*
X192344286Y-53929829D01*
X192466760Y-53848127D01*
X192604340Y-53748591D01*
X192738200Y-53644483D01*
X192816517Y-53582721D01*
X192958012Y-53476206D01*
X193120966Y-53357801D01*
X193293486Y-53235779D01*
X193463683Y-53118413D01*
X193619664Y-53013975D01*
X193749537Y-52930739D01*
X193841411Y-52876977D01*
X193886589Y-52846415D01*
X193897864Y-52821919D01*
X193889799Y-52819354D01*
X193833362Y-52828327D01*
X193735341Y-52857331D01*
X193607042Y-52902269D01*
X193459775Y-52959041D01*
X193304847Y-53023549D01*
X193153566Y-53091694D01*
X192891486Y-53211843D01*
X192547350Y-53356468D01*
X192276266Y-53453571D01*
X192242467Y-53465678D01*
X191970229Y-53540456D01*
X191724028Y-53581786D01*
X191497258Y-53590654D01*
X191283309Y-53568045D01*
X191075575Y-53514942D01*
X190867447Y-53432330D01*
X190775915Y-53385468D01*
X190590861Y-53253199D01*
X190574776Y-53234605D01*
X190671552Y-53234605D01*
X190781035Y-53305231D01*
X190829240Y-53333529D01*
X190941808Y-53389759D01*
X191059516Y-53439522D01*
X191134059Y-53462885D01*
X191268738Y-53490636D01*
X191418381Y-53509031D01*
X191570218Y-53517867D01*
X191711476Y-53516942D01*
X191829386Y-53506053D01*
X191911176Y-53484997D01*
X191944075Y-53453571D01*
X191943987Y-53451780D01*
X191915105Y-53421066D01*
X191845001Y-53373807D01*
X191747534Y-53319459D01*
X191547414Y-53216629D01*
X191109483Y-53225617D01*
X190671552Y-53234605D01*
X190574776Y-53234605D01*
X190454784Y-53095895D01*
X190373877Y-52919986D01*
X190369705Y-52905649D01*
X190337889Y-52830366D01*
X190309603Y-52815526D01*
X190289197Y-52859266D01*
X190281021Y-52959725D01*
X190295679Y-53071374D01*
X190339317Y-53206174D01*
X190404240Y-53345347D01*
X190482664Y-53476015D01*
X190566809Y-53585296D01*
X190642943Y-53654873D01*
X190648892Y-53660310D01*
X190721132Y-53688177D01*
X190732234Y-53688510D01*
X190776230Y-53704737D01*
X190768319Y-53734410D01*
X190710653Y-53762303D01*
X190649346Y-53775021D01*
X190464402Y-53780370D01*
X190238210Y-53745864D01*
X189967610Y-53671116D01*
X189850892Y-53635017D01*
X189697868Y-53592085D01*
X189564570Y-53559371D01*
X189470696Y-53541991D01*
X189462196Y-53541035D01*
X189350989Y-53535576D01*
X189235360Y-53539999D01*
X189132046Y-53552365D01*
X189057784Y-53570732D01*
X189029311Y-53593161D01*
X188304626Y-53593161D01*
X188294554Y-53583837D01*
X188136912Y-53496188D01*
X187939505Y-53434808D01*
X187692098Y-53395012D01*
X187359846Y-53358191D01*
X187456149Y-53278809D01*
X187552902Y-53278809D01*
X187567226Y-53293291D01*
X187618104Y-53302508D01*
X187714200Y-53307763D01*
X187864179Y-53310362D01*
X187969290Y-53312699D01*
X188114662Y-53320190D01*
X188234864Y-53331258D01*
X188311203Y-53344475D01*
X188368070Y-53360242D01*
X188432429Y-53372853D01*
X188460252Y-53364224D01*
X188466256Y-53333296D01*
X188457476Y-53303747D01*
X188403572Y-53242316D01*
X188314356Y-53178344D01*
X188205881Y-53121038D01*
X188094200Y-53079604D01*
X187995366Y-53063248D01*
X187932941Y-53074191D01*
X187830473Y-53110203D01*
X187718780Y-53161068D01*
X187620984Y-53216089D01*
X187560206Y-53264570D01*
X187552902Y-53278809D01*
X187456149Y-53278809D01*
X187481428Y-53257972D01*
X187657885Y-53136641D01*
X187903314Y-53029129D01*
X188160714Y-52977393D01*
X188257468Y-52967906D01*
X188328022Y-52954910D01*
X188356323Y-52936691D01*
X188353532Y-52909310D01*
X188341226Y-52881010D01*
X188279207Y-52720704D01*
X188245425Y-52583349D01*
X188235436Y-52442963D01*
X188244795Y-52273563D01*
X188250887Y-52215605D01*
X188256345Y-52186699D01*
X188639218Y-52186699D01*
X188641301Y-52362746D01*
X188649705Y-52492575D01*
X188665906Y-52586289D01*
X188691369Y-52657113D01*
X188694536Y-52663572D01*
X188771874Y-52783741D01*
X188885280Y-52917510D01*
X189018288Y-53047176D01*
X189154434Y-53155032D01*
X189227197Y-53205216D01*
X189349607Y-53289837D01*
X189412334Y-53333296D01*
X189467242Y-53371338D01*
X189471525Y-53374283D01*
X189591783Y-53444932D01*
X189739997Y-53516095D01*
X189885096Y-53572793D01*
X190130906Y-53654873D01*
X190112309Y-53585503D01*
X190106122Y-53553190D01*
X190097042Y-53460704D01*
X190093285Y-53351908D01*
X190091239Y-53288172D01*
X190082535Y-53218299D01*
X190069397Y-53193557D01*
X190036609Y-53193803D01*
X189958581Y-53183606D01*
X189864909Y-53165934D01*
X189781217Y-53145773D01*
X189733128Y-53128110D01*
X189723367Y-53122508D01*
X189662444Y-53096040D01*
X189576724Y-53064819D01*
X189513256Y-53039077D01*
X189399583Y-52981654D01*
X189287878Y-52914822D01*
X189174745Y-52830914D01*
X189002306Y-52649796D01*
X188885812Y-52443324D01*
X188826748Y-52215939D01*
X188826602Y-51972085D01*
X188886858Y-51716202D01*
X188941728Y-51578700D01*
X189010677Y-51434507D01*
X189077351Y-51318657D01*
X189126683Y-51238757D01*
X189156671Y-51177768D01*
X189157255Y-51154433D01*
X189143708Y-51159093D01*
X189091429Y-51201127D01*
X189018188Y-51276837D01*
X188934336Y-51373930D01*
X188850227Y-51480111D01*
X188776211Y-51583088D01*
X188722641Y-51670566D01*
X188714615Y-51685925D01*
X188680893Y-51757954D01*
X188659104Y-51827886D01*
X188646637Y-51911880D01*
X188640879Y-52026098D01*
X188639218Y-52186699D01*
X188256345Y-52186699D01*
X188288716Y-52015252D01*
X188355627Y-51833819D01*
X188459454Y-51653701D01*
X188608033Y-51457293D01*
X188753966Y-51301860D01*
X188976115Y-51130430D01*
X189214443Y-51014570D01*
X189225700Y-51010597D01*
X189312371Y-50980722D01*
X189356077Y-50970143D01*
X189371519Y-50977729D01*
X189373399Y-51002351D01*
X189362188Y-51029381D01*
X189317891Y-51092385D01*
X189251437Y-51170267D01*
X189181610Y-51253491D01*
X189052861Y-51456016D01*
X188956343Y-51679321D01*
X188896455Y-51908750D01*
X188877596Y-52129652D01*
X188904162Y-52327371D01*
X188945386Y-52441859D01*
X189065406Y-52639692D01*
X189236611Y-52812758D01*
X189453383Y-52956888D01*
X189710105Y-53067912D01*
X190001160Y-53141661D01*
X190032805Y-53146920D01*
X190090562Y-53147627D01*
X190122307Y-53116819D01*
X190149103Y-53040027D01*
X190169663Y-52984565D01*
X190223248Y-52873427D01*
X190287721Y-52764211D01*
X190390025Y-52609604D01*
X190409079Y-52786547D01*
X190419783Y-52856042D01*
X190450000Y-52972869D01*
X190487281Y-53060218D01*
X190546429Y-53156947D01*
X191234606Y-53168923D01*
X191405868Y-53172717D01*
X191749344Y-53186561D01*
X192032336Y-53207757D01*
X192255991Y-53236382D01*
X192589199Y-53291864D01*
X192748961Y-53223136D01*
X192781447Y-53209010D01*
X192898902Y-53156722D01*
X193040397Y-53092533D01*
X193182132Y-53027206D01*
X193232775Y-53003873D01*
X193378069Y-52938969D01*
X193515091Y-52880303D01*
X193619766Y-52838271D01*
X193688469Y-52811269D01*
X193757328Y-52780755D01*
X193783990Y-52763790D01*
X193766893Y-52742027D01*
X193714770Y-52689107D01*
X193639842Y-52618170D01*
X193634207Y-52612954D01*
X193476797Y-52444410D01*
X193350384Y-52256977D01*
X193253014Y-52043882D01*
X193182734Y-51798354D01*
X193137588Y-51513621D01*
X193115621Y-51182911D01*
X193114880Y-50799454D01*
X193116739Y-50723088D01*
X193124278Y-50517254D01*
X193136041Y-50348649D01*
X193154170Y-50198066D01*
X193180808Y-50046298D01*
X193218097Y-49874135D01*
X193220092Y-49865468D01*
X193259076Y-49703835D01*
X193298142Y-49554521D01*
X193332855Y-49433801D01*
X193358779Y-49357953D01*
X193408035Y-49240067D01*
X193212823Y-48996073D01*
X193142828Y-48906381D01*
X192921879Y-48588411D01*
X192743074Y-48272421D01*
X192610964Y-47967181D01*
X192530104Y-47681457D01*
X192513209Y-47556421D01*
X192504367Y-47363653D01*
X192508502Y-47151199D01*
X192524525Y-46939473D01*
X192551344Y-46748886D01*
X192587870Y-46599852D01*
X192663699Y-46400443D01*
X192857117Y-46019296D01*
X193109256Y-45650076D01*
X193417794Y-45296427D01*
X193559710Y-45157893D01*
X193707211Y-45036363D01*
X193844371Y-44954005D01*
X193983836Y-44903466D01*
X194138247Y-44877391D01*
X194280474Y-44876683D01*
X194409606Y-44912890D01*
X194437986Y-44926776D01*
X194465765Y-44944510D01*
X194440887Y-44940734D01*
X194392857Y-44931220D01*
X194291228Y-44921331D01*
X194175000Y-44917698D01*
X194032012Y-44930219D01*
X193891196Y-44973037D01*
X193749306Y-45051992D01*
X193595964Y-45172917D01*
X193420794Y-45341645D01*
X193221702Y-45560164D01*
X192959843Y-45908060D01*
X192759781Y-46261818D01*
X192621644Y-46621078D01*
X192545556Y-46985482D01*
X192531646Y-47354672D01*
X192580038Y-47728289D01*
X192628547Y-47905497D01*
X192738344Y-48179083D01*
X192889871Y-48465805D01*
X193076586Y-48753693D01*
X193291947Y-49030779D01*
X193467668Y-49237544D01*
X193406597Y-49360980D01*
X193383601Y-49415995D01*
X193344558Y-49530717D01*
X193302066Y-49673913D01*
X193261969Y-49826753D01*
X193234994Y-49942854D01*
X193210201Y-50070992D01*
X193192462Y-50200175D01*
X193180166Y-50345783D01*
X193171702Y-50523192D01*
X193165459Y-50747783D01*
X193163106Y-51085588D01*
X193173306Y-51378256D01*
X193197093Y-51627272D01*
X193235329Y-51841613D01*
X193288880Y-52030255D01*
X193319106Y-52111561D01*
X193403663Y-52280498D01*
X193517035Y-52429168D01*
X193674089Y-52578732D01*
X193851037Y-52729903D01*
X194013019Y-52678374D01*
X194074228Y-52659127D01*
X194175301Y-52628251D01*
X194245382Y-52607989D01*
X194289565Y-52590669D01*
X194315764Y-52564552D01*
X194326199Y-52556713D01*
X194382347Y-52550794D01*
X194470848Y-52554873D01*
X194522019Y-52558395D01*
X194618678Y-52557693D01*
X194681994Y-52547326D01*
X194683463Y-52546746D01*
X194745576Y-52530334D01*
X194842384Y-52517525D01*
X194980848Y-52507826D01*
X195167930Y-52500745D01*
X195410591Y-52495788D01*
X195438257Y-52495478D01*
X195741670Y-52505114D01*
X196029321Y-52537163D01*
X196286276Y-52589377D01*
X196497599Y-52659505D01*
X196540422Y-52676577D01*
X196605276Y-52696145D01*
X196631021Y-52693900D01*
X196633248Y-52687509D01*
X196654482Y-52702882D01*
X196691569Y-52735159D01*
X196758577Y-52775923D01*
X196804824Y-52803365D01*
X196828682Y-52821919D01*
X196918692Y-52891920D01*
G37*
%TD*%
M02*
