%TF.GenerationSoftware,KiCad,Pcbnew,9.0.4*%
%TF.CreationDate,2026-03-12T13:49:49-04:00*%
%TF.ProjectId,Overdrive,4f766572-6472-4697-9665-2e6b69636164,rev?*%
%TF.SameCoordinates,Original*%
%TF.FileFunction,Copper,L4,Bot*%
%TF.FilePolarity,Positive*%
%FSLAX46Y46*%
G04 Gerber Fmt 4.6, Leading zero omitted, Abs format (unit mm)*
G04 Created by KiCad (PCBNEW 9.0.4) date 2026-03-12 13:49:49*
%MOMM*%
%LPD*%
G01*
G04 APERTURE LIST*
G04 Aperture macros list*
%AMRoundRect*
0 Rectangle with rounded corners*
0 $1 Rounding radius*
0 $2 $3 $4 $5 $6 $7 $8 $9 X,Y pos of 4 corners*
0 Add a 4 corners polygon primitive as box body*
4,1,4,$2,$3,$4,$5,$6,$7,$8,$9,$2,$3,0*
0 Add four circle primitives for the rounded corners*
1,1,$1+$1,$2,$3*
1,1,$1+$1,$4,$5*
1,1,$1+$1,$6,$7*
1,1,$1+$1,$8,$9*
0 Add four rect primitives between the rounded corners*
20,1,$1+$1,$2,$3,$4,$5,0*
20,1,$1+$1,$4,$5,$6,$7,0*
20,1,$1+$1,$6,$7,$8,$9,0*
20,1,$1+$1,$8,$9,$2,$3,0*%
G04 Aperture macros list end*
%TA.AperFunction,ComponentPad*%
%ADD10R,1.700000X1.700000*%
%TD*%
%TA.AperFunction,ComponentPad*%
%ADD11C,1.700000*%
%TD*%
%TA.AperFunction,ComponentPad*%
%ADD12R,1.050000X1.500000*%
%TD*%
%TA.AperFunction,ComponentPad*%
%ADD13O,1.050000X1.500000*%
%TD*%
%TA.AperFunction,SMDPad,CuDef*%
%ADD14RoundRect,0.225000X0.225000X0.250000X-0.225000X0.250000X-0.225000X-0.250000X0.225000X-0.250000X0*%
%TD*%
%TA.AperFunction,SMDPad,CuDef*%
%ADD15RoundRect,0.225000X-0.250000X0.225000X-0.250000X-0.225000X0.250000X-0.225000X0.250000X0.225000X0*%
%TD*%
%TA.AperFunction,ViaPad*%
%ADD16C,0.600000*%
%TD*%
%TA.AperFunction,Conductor*%
%ADD17C,0.400000*%
%TD*%
%TA.AperFunction,Conductor*%
%ADD18C,0.200000*%
%TD*%
G04 APERTURE END LIST*
D10*
%TO.P,J1,1,Pin_1*%
%TO.N,12V*%
X205460000Y-44380000D03*
D11*
%TO.P,J1,2,Pin_2*%
X208000000Y-44380000D03*
%TO.P,J1,3,Pin_3*%
%TO.N,/CS2*%
X205460000Y-46920000D03*
%TO.P,J1,4,Pin_4*%
%TO.N,unconnected-(J1-Pin_4-Pad4)*%
X208000000Y-46920000D03*
%TO.P,J1,5,Pin_5*%
%TO.N,unconnected-(J1-Pin_5-Pad5)*%
X205460000Y-49460000D03*
%TO.P,J1,6,Pin_6*%
%TO.N,/CS0*%
X208000000Y-49460000D03*
%TO.P,J1,7,Pin_7*%
%TO.N,/MOSI*%
X205460000Y-52000000D03*
%TO.P,J1,8,Pin_8*%
%TO.N,/SPI_CLK*%
X208000000Y-52000000D03*
%TO.P,J1,9,Pin_9*%
%TO.N,/GUITAR_OUT*%
X205460000Y-54540000D03*
%TO.P,J1,10,Pin_10*%
%TO.N,/GUITAR_IN*%
X208000000Y-54540000D03*
%TO.P,J1,11,Pin_11*%
%TO.N,GND*%
X205460000Y-57080000D03*
%TO.P,J1,12,Pin_12*%
X208000000Y-57080000D03*
%TO.P,J1,13,Pin_13*%
X205460000Y-59620000D03*
%TO.P,J1,14,Pin_14*%
X208000000Y-59620000D03*
%TO.P,J1,15,Pin_15*%
%TO.N,unconnected-(J1-Pin_15-Pad15)*%
X205460000Y-62160000D03*
%TO.P,J1,16,Pin_16*%
%TO.N,unconnected-(J1-Pin_16-Pad16)*%
X208000000Y-62160000D03*
%TD*%
D12*
%TO.P,Q1,1,E*%
%TO.N,Net-(Q1-E)*%
X170820286Y-56655000D03*
D13*
%TO.P,Q1,2,B*%
%TO.N,Net-(Q1-B)*%
X172090286Y-56655000D03*
%TO.P,Q1,3,C*%
%TO.N,Net-(Q1-C)*%
X173360286Y-56655000D03*
%TD*%
D12*
%TO.P,Q2,1,E*%
%TO.N,Net-(Q1-C)*%
X176570286Y-56655000D03*
D13*
%TO.P,Q2,2,B*%
%TO.N,Net-(Q2-B)*%
X177840286Y-56655000D03*
%TO.P,Q2,3,C*%
%TO.N,Net-(Q2-C)*%
X179110286Y-56655000D03*
%TD*%
D14*
%TO.P,C12,1*%
%TO.N,GND*%
X184000000Y-45000000D03*
%TO.P,C12,2*%
%TO.N,12V*%
X182450000Y-45000000D03*
%TD*%
D15*
%TO.P,C13,1*%
%TO.N,GND*%
X189000000Y-45000000D03*
%TO.P,C13,2*%
%TO.N,12V*%
X189000000Y-46550000D03*
%TD*%
D14*
%TO.P,C11,1*%
%TO.N,GND*%
X174000000Y-44000000D03*
%TO.P,C11,2*%
%TO.N,12V*%
X172450000Y-44000000D03*
%TD*%
D16*
%TO.N,GND*%
X163000000Y-65000000D03*
X197000000Y-58000000D03*
X165000000Y-49000000D03*
X162000000Y-57000000D03*
X189000000Y-49000000D03*
X185000000Y-54000000D03*
X168000000Y-48000000D03*
X201010430Y-49394718D03*
X198000000Y-49000000D03*
X184000000Y-55000000D03*
X180000000Y-44000000D03*
X164000000Y-64000000D03*
X175000000Y-53000000D03*
X162000000Y-64000000D03*
X186000000Y-49000000D03*
X196000000Y-53000000D03*
X174000000Y-50000000D03*
X183000000Y-56000000D03*
X164000000Y-51000000D03*
X188000000Y-54000000D03*
X194000000Y-45000000D03*
%TO.N,12V*%
X190000000Y-47000000D03*
X170800000Y-44400000D03*
X176000000Y-50000000D03*
X199000000Y-49559000D03*
X183400000Y-52800000D03*
X181000000Y-45000000D03*
X202000000Y-58000000D03*
%TO.N,/SPI_CLK*%
X197000000Y-48000000D03*
X191000000Y-53000000D03*
%TO.N,/GUITAR_OUT*%
X187000000Y-58000000D03*
%TO.N,/MOSI*%
X194000000Y-61000000D03*
X204000000Y-56000000D03*
%TO.N,/CS0*%
X203000000Y-53000000D03*
X197000000Y-54000000D03*
%TO.N,/GUITAR_IN*%
X196000000Y-50000000D03*
%TO.N,5V*%
X190000000Y-51020000D03*
X187000000Y-55000000D03*
X197038460Y-55421446D03*
%TO.N,/CS2*%
X195000000Y-47000000D03*
X191000000Y-49000000D03*
%TD*%
D17*
%TO.N,12V*%
X182450000Y-45000000D02*
X181000000Y-45000000D01*
X189000000Y-46550000D02*
X189550000Y-46550000D01*
X172450000Y-44000000D02*
X171200000Y-44000000D01*
X171200000Y-44000000D02*
X170800000Y-44400000D01*
X189550000Y-46550000D02*
X190000000Y-47000000D01*
%TO.N,/SPI_CLK*%
X191000000Y-52000000D02*
X195000000Y-48000000D01*
X191000000Y-53000000D02*
X191000000Y-52000000D01*
X195000000Y-48000000D02*
X197000000Y-48000000D01*
%TO.N,/GUITAR_OUT*%
X199380654Y-54540000D02*
X195920654Y-58000000D01*
X195920654Y-58000000D02*
X187000000Y-58000000D01*
X205460000Y-54540000D02*
X199380654Y-54540000D01*
%TO.N,/MOSI*%
X200000000Y-61000000D02*
X194000000Y-61000000D01*
X204000000Y-56000000D02*
X204000000Y-57000000D01*
X204000000Y-57000000D02*
X200000000Y-61000000D01*
%TO.N,/CS0*%
X198000000Y-53000000D02*
X202000000Y-53000000D01*
X197000000Y-54000000D02*
X198000000Y-53000000D01*
X202000000Y-53000000D02*
X203000000Y-53000000D01*
%TO.N,/GUITAR_IN*%
X196661000Y-50661000D02*
X202422529Y-50661000D01*
X204962529Y-53201000D02*
X206661000Y-53201000D01*
X206661000Y-53201000D02*
X208000000Y-54540000D01*
X202422529Y-50661000D02*
X204962529Y-53201000D01*
X196661000Y-50661000D02*
X196000000Y-50000000D01*
D18*
%TO.N,/CS2*%
X191000000Y-49000000D02*
X193000000Y-49000000D01*
X193000000Y-49000000D02*
X195000000Y-47000000D01*
%TD*%
%TA.AperFunction,Conductor*%
%TO.N,GND*%
G36*
X207534075Y-59812993D02*
G01*
X207599901Y-59927007D01*
X207692993Y-60020099D01*
X207807007Y-60085925D01*
X207870590Y-60102962D01*
X207238282Y-60735269D01*
X207238282Y-60735270D01*
X207292452Y-60774626D01*
X207292451Y-60774626D01*
X207301495Y-60779234D01*
X207352292Y-60827208D01*
X207369087Y-60895029D01*
X207346550Y-60961164D01*
X207301499Y-61000202D01*
X207292182Y-61004949D01*
X207120213Y-61129890D01*
X206969890Y-61280213D01*
X206844949Y-61452182D01*
X206840484Y-61460946D01*
X206792509Y-61511742D01*
X206724688Y-61528536D01*
X206658553Y-61505998D01*
X206619516Y-61460946D01*
X206615050Y-61452182D01*
X206490109Y-61280213D01*
X206339786Y-61129890D01*
X206167817Y-61004949D01*
X206158504Y-61000204D01*
X206107707Y-60952230D01*
X206090912Y-60884409D01*
X206113449Y-60818274D01*
X206158507Y-60779232D01*
X206167555Y-60774622D01*
X206221716Y-60735270D01*
X206221717Y-60735270D01*
X205589408Y-60102962D01*
X205652993Y-60085925D01*
X205767007Y-60020099D01*
X205860099Y-59927007D01*
X205925925Y-59812993D01*
X205942962Y-59749408D01*
X206575270Y-60381717D01*
X206575270Y-60381716D01*
X206614622Y-60327554D01*
X206619514Y-60317954D01*
X206667488Y-60267157D01*
X206735308Y-60250361D01*
X206801444Y-60272897D01*
X206840486Y-60317954D01*
X206845375Y-60327550D01*
X206884728Y-60381716D01*
X207517037Y-59749408D01*
X207534075Y-59812993D01*
G37*
%TD.AperFunction*%
%TA.AperFunction,Conductor*%
G36*
X207534075Y-57272993D02*
G01*
X207599901Y-57387007D01*
X207692993Y-57480099D01*
X207807007Y-57545925D01*
X207870590Y-57562962D01*
X207238282Y-58195269D01*
X207238282Y-58195270D01*
X207292452Y-58234626D01*
X207302048Y-58239516D01*
X207352844Y-58287491D01*
X207369638Y-58355312D01*
X207347100Y-58421447D01*
X207302051Y-58460483D01*
X207292440Y-58465380D01*
X207238282Y-58504727D01*
X207238282Y-58504728D01*
X207870591Y-59137037D01*
X207807007Y-59154075D01*
X207692993Y-59219901D01*
X207599901Y-59312993D01*
X207534075Y-59427007D01*
X207517037Y-59490591D01*
X206884728Y-58858282D01*
X206884727Y-58858282D01*
X206845380Y-58912440D01*
X206840483Y-58922051D01*
X206792506Y-58972845D01*
X206724684Y-58989638D01*
X206658550Y-58967098D01*
X206619516Y-58922048D01*
X206614626Y-58912452D01*
X206575270Y-58858282D01*
X206575269Y-58858282D01*
X205942962Y-59490590D01*
X205925925Y-59427007D01*
X205860099Y-59312993D01*
X205767007Y-59219901D01*
X205652993Y-59154075D01*
X205589409Y-59137037D01*
X206221716Y-58504728D01*
X206167550Y-58465375D01*
X206157954Y-58460486D01*
X206107157Y-58412512D01*
X206090361Y-58344692D01*
X206111288Y-58280895D01*
X206190027Y-58163581D01*
X205589408Y-57562962D01*
X205652993Y-57545925D01*
X205767007Y-57480099D01*
X205860099Y-57387007D01*
X205925925Y-57272993D01*
X205942962Y-57209408D01*
X206575270Y-57841717D01*
X206575270Y-57841716D01*
X206614622Y-57787554D01*
X206619514Y-57777954D01*
X206667488Y-57727157D01*
X206735308Y-57710361D01*
X206801444Y-57732897D01*
X206840486Y-57777954D01*
X206845375Y-57787550D01*
X206884728Y-57841716D01*
X207517037Y-57209408D01*
X207534075Y-57272993D01*
G37*
%TD.AperFunction*%
%TA.AperFunction,Conductor*%
G36*
X206801444Y-55193999D02*
G01*
X206840484Y-55239054D01*
X206844591Y-55247115D01*
X206844951Y-55247820D01*
X206969890Y-55419786D01*
X207120213Y-55570109D01*
X207292179Y-55695048D01*
X207292181Y-55695049D01*
X207292184Y-55695051D01*
X207301493Y-55699794D01*
X207352290Y-55747766D01*
X207369087Y-55815587D01*
X207346552Y-55881722D01*
X207301505Y-55920760D01*
X207292446Y-55925376D01*
X207292440Y-55925380D01*
X207238282Y-55964727D01*
X207238282Y-55964728D01*
X207870591Y-56597037D01*
X207807007Y-56614075D01*
X207692993Y-56679901D01*
X207599901Y-56772993D01*
X207534075Y-56887007D01*
X207517037Y-56950591D01*
X206884728Y-56318282D01*
X206884727Y-56318282D01*
X206845380Y-56372440D01*
X206840483Y-56382051D01*
X206792506Y-56432845D01*
X206724684Y-56449638D01*
X206658550Y-56427098D01*
X206619516Y-56382048D01*
X206614626Y-56372452D01*
X206575270Y-56318282D01*
X206575269Y-56318282D01*
X205942962Y-56950590D01*
X205925925Y-56887007D01*
X205860099Y-56772993D01*
X205767007Y-56679901D01*
X205652993Y-56614075D01*
X205589408Y-56597037D01*
X206221716Y-55964728D01*
X206167547Y-55925373D01*
X206167547Y-55925372D01*
X206158500Y-55920763D01*
X206107706Y-55872788D01*
X206090912Y-55804966D01*
X206113451Y-55738832D01*
X206158508Y-55699793D01*
X206167816Y-55695051D01*
X206252614Y-55633442D01*
X206339786Y-55570109D01*
X206339788Y-55570106D01*
X206339792Y-55570104D01*
X206490104Y-55419792D01*
X206490106Y-55419788D01*
X206490109Y-55419786D01*
X206615048Y-55247820D01*
X206615047Y-55247820D01*
X206615051Y-55247816D01*
X206619514Y-55239054D01*
X206667488Y-55188259D01*
X206735308Y-55171463D01*
X206801444Y-55193999D01*
G37*
%TD.AperFunction*%
%TA.AperFunction,Conductor*%
G36*
X211342825Y-38520185D02*
G01*
X211388580Y-38572989D01*
X211399786Y-38624500D01*
X211399786Y-69375500D01*
X211380101Y-69442539D01*
X211327297Y-69488294D01*
X211275786Y-69499500D01*
X160974786Y-69499500D01*
X160907747Y-69479815D01*
X160861992Y-69427011D01*
X160850786Y-69375500D01*
X160850786Y-57921153D01*
X186199500Y-57921153D01*
X186199500Y-58078846D01*
X186230261Y-58233489D01*
X186230264Y-58233501D01*
X186290602Y-58379172D01*
X186290609Y-58379185D01*
X186378210Y-58510288D01*
X186378213Y-58510292D01*
X186489707Y-58621786D01*
X186489711Y-58621789D01*
X186620814Y-58709390D01*
X186620827Y-58709397D01*
X186766498Y-58769735D01*
X186766503Y-58769737D01*
X186921153Y-58800499D01*
X186921156Y-58800500D01*
X186921158Y-58800500D01*
X187078844Y-58800500D01*
X187078845Y-58800499D01*
X187233497Y-58769737D01*
X187308963Y-58738478D01*
X187377864Y-58709939D01*
X187425316Y-58700500D01*
X195989650Y-58700500D01*
X196080694Y-58682389D01*
X196124982Y-58673580D01*
X196224953Y-58632171D01*
X196252461Y-58620777D01*
X196252462Y-58620776D01*
X196252465Y-58620775D01*
X196367197Y-58544114D01*
X199634492Y-55276819D01*
X199695815Y-55243334D01*
X199722173Y-55240500D01*
X203328059Y-55240500D01*
X203395098Y-55260185D01*
X203440853Y-55312989D01*
X203450797Y-55382147D01*
X203421772Y-55445703D01*
X203415740Y-55452181D01*
X203378213Y-55489707D01*
X203378210Y-55489711D01*
X203290609Y-55620814D01*
X203290602Y-55620827D01*
X203230264Y-55766498D01*
X203230261Y-55766510D01*
X203199500Y-55921153D01*
X203199500Y-56078846D01*
X203230261Y-56233489D01*
X203230264Y-56233501D01*
X203290061Y-56377864D01*
X203291687Y-56386040D01*
X203294477Y-56390381D01*
X203299500Y-56425316D01*
X203299500Y-56658480D01*
X203279815Y-56725519D01*
X203263181Y-56746161D01*
X202654686Y-57354655D01*
X202593363Y-57388140D01*
X202523671Y-57383156D01*
X202498114Y-57370076D01*
X202379185Y-57290609D01*
X202379172Y-57290602D01*
X202233501Y-57230264D01*
X202233489Y-57230261D01*
X202078845Y-57199500D01*
X202078842Y-57199500D01*
X201921158Y-57199500D01*
X201921155Y-57199500D01*
X201766510Y-57230261D01*
X201766498Y-57230264D01*
X201620827Y-57290602D01*
X201620814Y-57290609D01*
X201489711Y-57378210D01*
X201489707Y-57378213D01*
X201378213Y-57489707D01*
X201378210Y-57489711D01*
X201290609Y-57620814D01*
X201290602Y-57620827D01*
X201230264Y-57766498D01*
X201230261Y-57766510D01*
X201199500Y-57921153D01*
X201199500Y-58078846D01*
X201230261Y-58233489D01*
X201230264Y-58233501D01*
X201290602Y-58379172D01*
X201290609Y-58379185D01*
X201370076Y-58498114D01*
X201390954Y-58564791D01*
X201372470Y-58632171D01*
X201354655Y-58654686D01*
X199746162Y-60263181D01*
X199684839Y-60296666D01*
X199658481Y-60299500D01*
X194425316Y-60299500D01*
X194377864Y-60290061D01*
X194233501Y-60230264D01*
X194233489Y-60230261D01*
X194078845Y-60199500D01*
X194078842Y-60199500D01*
X193921158Y-60199500D01*
X193921155Y-60199500D01*
X193766510Y-60230261D01*
X193766498Y-60230264D01*
X193620827Y-60290602D01*
X193620814Y-60290609D01*
X193489711Y-60378210D01*
X193489707Y-60378213D01*
X193378213Y-60489707D01*
X193378210Y-60489711D01*
X193290609Y-60620814D01*
X193290602Y-60620827D01*
X193230264Y-60766498D01*
X193230261Y-60766510D01*
X193199500Y-60921153D01*
X193199500Y-61078846D01*
X193230261Y-61233489D01*
X193230264Y-61233501D01*
X193290602Y-61379172D01*
X193290609Y-61379185D01*
X193378210Y-61510288D01*
X193378213Y-61510292D01*
X193489707Y-61621786D01*
X193489711Y-61621789D01*
X193620814Y-61709390D01*
X193620827Y-61709397D01*
X193766498Y-61769735D01*
X193766503Y-61769737D01*
X193921153Y-61800499D01*
X193921156Y-61800500D01*
X193921158Y-61800500D01*
X194078844Y-61800500D01*
X194078845Y-61800499D01*
X194233497Y-61769737D01*
X194308963Y-61738478D01*
X194377864Y-61709939D01*
X194425316Y-61700500D01*
X200068996Y-61700500D01*
X200160040Y-61682389D01*
X200204328Y-61673580D01*
X200281571Y-61641585D01*
X200331807Y-61620777D01*
X200331808Y-61620776D01*
X200331811Y-61620775D01*
X200446543Y-61544114D01*
X204159681Y-57830975D01*
X204221000Y-57797493D01*
X204290692Y-57802477D01*
X204342918Y-57841574D01*
X204344728Y-57841716D01*
X204977037Y-57209408D01*
X204994075Y-57272993D01*
X205059901Y-57387007D01*
X205152993Y-57480099D01*
X205267007Y-57545925D01*
X205330591Y-57562962D01*
X204729971Y-58163581D01*
X204808711Y-58280895D01*
X204809920Y-58284729D01*
X204812844Y-58287491D01*
X204820343Y-58317778D01*
X204829727Y-58347529D01*
X204828671Y-58351408D01*
X204829638Y-58355312D01*
X204819573Y-58384844D01*
X204811383Y-58414947D01*
X204808397Y-58417640D01*
X204807100Y-58421447D01*
X204762051Y-58460483D01*
X204752440Y-58465380D01*
X204698282Y-58504727D01*
X204698282Y-58504728D01*
X205330591Y-59137037D01*
X205267007Y-59154075D01*
X205152993Y-59219901D01*
X205059901Y-59312993D01*
X204994075Y-59427007D01*
X204977037Y-59490591D01*
X204344728Y-58858282D01*
X204344727Y-58858282D01*
X204305380Y-58912439D01*
X204208904Y-59101782D01*
X204143242Y-59303869D01*
X204143242Y-59303872D01*
X204110000Y-59513753D01*
X204110000Y-59726246D01*
X204143242Y-59936127D01*
X204143242Y-59936130D01*
X204208904Y-60138217D01*
X204305375Y-60327550D01*
X204344728Y-60381716D01*
X204977037Y-59749408D01*
X204994075Y-59812993D01*
X205059901Y-59927007D01*
X205152993Y-60020099D01*
X205267007Y-60085925D01*
X205330590Y-60102962D01*
X204698282Y-60735269D01*
X204698282Y-60735270D01*
X204752452Y-60774626D01*
X204752451Y-60774626D01*
X204761495Y-60779234D01*
X204812292Y-60827208D01*
X204829087Y-60895029D01*
X204806550Y-60961164D01*
X204761499Y-61000202D01*
X204752182Y-61004949D01*
X204580213Y-61129890D01*
X204429890Y-61280213D01*
X204304951Y-61452179D01*
X204208444Y-61641585D01*
X204142753Y-61843760D01*
X204109500Y-62053713D01*
X204109500Y-62266286D01*
X204142753Y-62476239D01*
X204208444Y-62678414D01*
X204304951Y-62867820D01*
X204429890Y-63039786D01*
X204580213Y-63190109D01*
X204752179Y-63315048D01*
X204752181Y-63315049D01*
X204752184Y-63315051D01*
X204941588Y-63411557D01*
X205143757Y-63477246D01*
X205353713Y-63510500D01*
X205353714Y-63510500D01*
X205566286Y-63510500D01*
X205566287Y-63510500D01*
X205776243Y-63477246D01*
X205978412Y-63411557D01*
X206167816Y-63315051D01*
X206189789Y-63299086D01*
X206339786Y-63190109D01*
X206339788Y-63190106D01*
X206339792Y-63190104D01*
X206490104Y-63039792D01*
X206490106Y-63039788D01*
X206490109Y-63039786D01*
X206615048Y-62867820D01*
X206615047Y-62867820D01*
X206615051Y-62867816D01*
X206619514Y-62859054D01*
X206667488Y-62808259D01*
X206735308Y-62791463D01*
X206801444Y-62813999D01*
X206840486Y-62859056D01*
X206844951Y-62867820D01*
X206969890Y-63039786D01*
X207120213Y-63190109D01*
X207292179Y-63315048D01*
X207292181Y-63315049D01*
X207292184Y-63315051D01*
X207481588Y-63411557D01*
X207683757Y-63477246D01*
X207893713Y-63510500D01*
X207893714Y-63510500D01*
X208106286Y-63510500D01*
X208106287Y-63510500D01*
X208316243Y-63477246D01*
X208518412Y-63411557D01*
X208707816Y-63315051D01*
X208729789Y-63299086D01*
X208879786Y-63190109D01*
X208879788Y-63190106D01*
X208879792Y-63190104D01*
X209030104Y-63039792D01*
X209030106Y-63039788D01*
X209030109Y-63039786D01*
X209155048Y-62867820D01*
X209155047Y-62867820D01*
X209155051Y-62867816D01*
X209251557Y-62678412D01*
X209317246Y-62476243D01*
X209350500Y-62266287D01*
X209350500Y-62053713D01*
X209317246Y-61843757D01*
X209251557Y-61641588D01*
X209155051Y-61452184D01*
X209155049Y-61452181D01*
X209155048Y-61452179D01*
X209030109Y-61280213D01*
X208879786Y-61129890D01*
X208707817Y-61004949D01*
X208698504Y-61000204D01*
X208647707Y-60952230D01*
X208630912Y-60884409D01*
X208653449Y-60818274D01*
X208698507Y-60779232D01*
X208707555Y-60774622D01*
X208761716Y-60735270D01*
X208761717Y-60735270D01*
X208129408Y-60102962D01*
X208192993Y-60085925D01*
X208307007Y-60020099D01*
X208400099Y-59927007D01*
X208465925Y-59812993D01*
X208482962Y-59749409D01*
X209115270Y-60381717D01*
X209115270Y-60381716D01*
X209154622Y-60327554D01*
X209251095Y-60138217D01*
X209316757Y-59936130D01*
X209316757Y-59936127D01*
X209350000Y-59726246D01*
X209350000Y-59513753D01*
X209316757Y-59303872D01*
X209316757Y-59303869D01*
X209251095Y-59101782D01*
X209154624Y-58912449D01*
X209115270Y-58858282D01*
X209115269Y-58858282D01*
X208482962Y-59490590D01*
X208465925Y-59427007D01*
X208400099Y-59312993D01*
X208307007Y-59219901D01*
X208192993Y-59154075D01*
X208129409Y-59137037D01*
X208761716Y-58504728D01*
X208707550Y-58465375D01*
X208697954Y-58460486D01*
X208647157Y-58412512D01*
X208630361Y-58344692D01*
X208652897Y-58278556D01*
X208697954Y-58239514D01*
X208707554Y-58234622D01*
X208761716Y-58195270D01*
X208761717Y-58195270D01*
X208129408Y-57562962D01*
X208192993Y-57545925D01*
X208307007Y-57480099D01*
X208400099Y-57387007D01*
X208465925Y-57272993D01*
X208482962Y-57209409D01*
X209115270Y-57841717D01*
X209115270Y-57841716D01*
X209154622Y-57787554D01*
X209251095Y-57598217D01*
X209316757Y-57396130D01*
X209316757Y-57396127D01*
X209350000Y-57186246D01*
X209350000Y-56973753D01*
X209316757Y-56763872D01*
X209316757Y-56763869D01*
X209251095Y-56561782D01*
X209154624Y-56372449D01*
X209115270Y-56318282D01*
X209115269Y-56318282D01*
X208482962Y-56950590D01*
X208465925Y-56887007D01*
X208400099Y-56772993D01*
X208307007Y-56679901D01*
X208192993Y-56614075D01*
X208129409Y-56597037D01*
X208761716Y-55964728D01*
X208707547Y-55925373D01*
X208707547Y-55925372D01*
X208698500Y-55920763D01*
X208647706Y-55872788D01*
X208630912Y-55804966D01*
X208653451Y-55738832D01*
X208698508Y-55699793D01*
X208707816Y-55695051D01*
X208792614Y-55633442D01*
X208879786Y-55570109D01*
X208879788Y-55570106D01*
X208879792Y-55570104D01*
X209030104Y-55419792D01*
X209030106Y-55419788D01*
X209030109Y-55419786D01*
X209155048Y-55247820D01*
X209155047Y-55247820D01*
X209155051Y-55247816D01*
X209251557Y-55058412D01*
X209317246Y-54856243D01*
X209350500Y-54646287D01*
X209350500Y-54433713D01*
X209317246Y-54223757D01*
X209251557Y-54021588D01*
X209155051Y-53832184D01*
X209155049Y-53832181D01*
X209155048Y-53832179D01*
X209030109Y-53660213D01*
X208879786Y-53509890D01*
X208707820Y-53384951D01*
X208707115Y-53384591D01*
X208699054Y-53380485D01*
X208648259Y-53332512D01*
X208631463Y-53264692D01*
X208653999Y-53198556D01*
X208699054Y-53159515D01*
X208707816Y-53155051D01*
X208812707Y-53078844D01*
X208879786Y-53030109D01*
X208879788Y-53030106D01*
X208879792Y-53030104D01*
X209030104Y-52879792D01*
X209030106Y-52879788D01*
X209030109Y-52879786D01*
X209155048Y-52707820D01*
X209155047Y-52707820D01*
X209155051Y-52707816D01*
X209251557Y-52518412D01*
X209317246Y-52316243D01*
X209350500Y-52106287D01*
X209350500Y-51893713D01*
X209317246Y-51683757D01*
X209251557Y-51481588D01*
X209155051Y-51292184D01*
X209155049Y-51292181D01*
X209155048Y-51292179D01*
X209030109Y-51120213D01*
X208879786Y-50969890D01*
X208707820Y-50844951D01*
X208707115Y-50844591D01*
X208699054Y-50840485D01*
X208648259Y-50792512D01*
X208631463Y-50724692D01*
X208653999Y-50658556D01*
X208699054Y-50619515D01*
X208707816Y-50615051D01*
X208729789Y-50599086D01*
X208879786Y-50490109D01*
X208879788Y-50490106D01*
X208879792Y-50490104D01*
X209030104Y-50339792D01*
X209030106Y-50339788D01*
X209030109Y-50339786D01*
X209155048Y-50167820D01*
X209155047Y-50167820D01*
X209155051Y-50167816D01*
X209251557Y-49978412D01*
X209317246Y-49776243D01*
X209350500Y-49566287D01*
X209350500Y-49353713D01*
X209317246Y-49143757D01*
X209251557Y-48941588D01*
X209155051Y-48752184D01*
X209155049Y-48752181D01*
X209155048Y-48752179D01*
X209030109Y-48580213D01*
X208879786Y-48429890D01*
X208707820Y-48304951D01*
X208707115Y-48304591D01*
X208699054Y-48300485D01*
X208648259Y-48252512D01*
X208631463Y-48184692D01*
X208653999Y-48118556D01*
X208699054Y-48079515D01*
X208707816Y-48075051D01*
X208729789Y-48059086D01*
X208879786Y-47950109D01*
X208879788Y-47950106D01*
X208879792Y-47950104D01*
X209030104Y-47799792D01*
X209030106Y-47799788D01*
X209030109Y-47799786D01*
X209155048Y-47627820D01*
X209155047Y-47627820D01*
X209155051Y-47627816D01*
X209251557Y-47438412D01*
X209317246Y-47236243D01*
X209350500Y-47026287D01*
X209350500Y-46813713D01*
X209317246Y-46603757D01*
X209251557Y-46401588D01*
X209155051Y-46212184D01*
X209155049Y-46212181D01*
X209155048Y-46212179D01*
X209030109Y-46040213D01*
X208879786Y-45889890D01*
X208707820Y-45764951D01*
X208707115Y-45764591D01*
X208699054Y-45760485D01*
X208648259Y-45712512D01*
X208631463Y-45644692D01*
X208653999Y-45578556D01*
X208699054Y-45539515D01*
X208707816Y-45535051D01*
X208794138Y-45472335D01*
X208879786Y-45410109D01*
X208879788Y-45410106D01*
X208879792Y-45410104D01*
X209030104Y-45259792D01*
X209030106Y-45259788D01*
X209030109Y-45259786D01*
X209155048Y-45087820D01*
X209155047Y-45087820D01*
X209155051Y-45087816D01*
X209251557Y-44898412D01*
X209317246Y-44696243D01*
X209350500Y-44486287D01*
X209350500Y-44273713D01*
X209317246Y-44063757D01*
X209251557Y-43861588D01*
X209155051Y-43672184D01*
X209155049Y-43672181D01*
X209155048Y-43672179D01*
X209030109Y-43500213D01*
X208879786Y-43349890D01*
X208707820Y-43224951D01*
X208518414Y-43128444D01*
X208518413Y-43128443D01*
X208518412Y-43128443D01*
X208316243Y-43062754D01*
X208316241Y-43062753D01*
X208316240Y-43062753D01*
X208154957Y-43037208D01*
X208106287Y-43029500D01*
X207893713Y-43029500D01*
X207845042Y-43037208D01*
X207683760Y-43062753D01*
X207481585Y-43128444D01*
X207292179Y-43224951D01*
X207120215Y-43349889D01*
X207006673Y-43463431D01*
X206945350Y-43496915D01*
X206875658Y-43491931D01*
X206819725Y-43450059D01*
X206802810Y-43419082D01*
X206753797Y-43287671D01*
X206753793Y-43287664D01*
X206667547Y-43172455D01*
X206667544Y-43172452D01*
X206552335Y-43086206D01*
X206552328Y-43086202D01*
X206417482Y-43035908D01*
X206417483Y-43035908D01*
X206357883Y-43029501D01*
X206357881Y-43029500D01*
X206357873Y-43029500D01*
X206357864Y-43029500D01*
X204562129Y-43029500D01*
X204562123Y-43029501D01*
X204502516Y-43035908D01*
X204367671Y-43086202D01*
X204367664Y-43086206D01*
X204252455Y-43172452D01*
X204252452Y-43172455D01*
X204166206Y-43287664D01*
X204166202Y-43287671D01*
X204115908Y-43422517D01*
X204109501Y-43482116D01*
X204109500Y-43482135D01*
X204109500Y-45277870D01*
X204109501Y-45277876D01*
X204115908Y-45337483D01*
X204166202Y-45472328D01*
X204166206Y-45472335D01*
X204252452Y-45587544D01*
X204252455Y-45587547D01*
X204367664Y-45673793D01*
X204367671Y-45673797D01*
X204499082Y-45722810D01*
X204555016Y-45764681D01*
X204579433Y-45830145D01*
X204564582Y-45898418D01*
X204543431Y-45926673D01*
X204429889Y-46040215D01*
X204304951Y-46212179D01*
X204208444Y-46401585D01*
X204142753Y-46603760D01*
X204109500Y-46813713D01*
X204109500Y-47026286D01*
X204142319Y-47233501D01*
X204142754Y-47236243D01*
X204207985Y-47437003D01*
X204208444Y-47438414D01*
X204304951Y-47627820D01*
X204429890Y-47799786D01*
X204580213Y-47950109D01*
X204752182Y-48075050D01*
X204760946Y-48079516D01*
X204811742Y-48127491D01*
X204828536Y-48195312D01*
X204805998Y-48261447D01*
X204760946Y-48300484D01*
X204752182Y-48304949D01*
X204580213Y-48429890D01*
X204429890Y-48580213D01*
X204304951Y-48752179D01*
X204208444Y-48941585D01*
X204142753Y-49143760D01*
X204109500Y-49353713D01*
X204109500Y-49566286D01*
X204141723Y-49769738D01*
X204142754Y-49776243D01*
X204195370Y-49938179D01*
X204208444Y-49978414D01*
X204304951Y-50167820D01*
X204429890Y-50339786D01*
X204580213Y-50490109D01*
X204752182Y-50615050D01*
X204760946Y-50619516D01*
X204811742Y-50667491D01*
X204828536Y-50735312D01*
X204805998Y-50801447D01*
X204760946Y-50840484D01*
X204752182Y-50844949D01*
X204580213Y-50969890D01*
X204429890Y-51120213D01*
X204304949Y-51292182D01*
X204294475Y-51312739D01*
X204246500Y-51363535D01*
X204178679Y-51380329D01*
X204112544Y-51357791D01*
X204096310Y-51344124D01*
X202869075Y-50116888D01*
X202869074Y-50116887D01*
X202754336Y-50040222D01*
X202626861Y-49987421D01*
X202626851Y-49987418D01*
X202491525Y-49960500D01*
X202491523Y-49960500D01*
X202491522Y-49960500D01*
X199885727Y-49960500D01*
X199818688Y-49940815D01*
X199772933Y-49888011D01*
X199762989Y-49818853D01*
X199768570Y-49798506D01*
X199767969Y-49798324D01*
X199769731Y-49792509D01*
X199769737Y-49792497D01*
X199800500Y-49637842D01*
X199800500Y-49480158D01*
X199800500Y-49480155D01*
X199800499Y-49480153D01*
X199780412Y-49379172D01*
X199769737Y-49325503D01*
X199731629Y-49233501D01*
X199709397Y-49179827D01*
X199709390Y-49179814D01*
X199621789Y-49048711D01*
X199621786Y-49048707D01*
X199510292Y-48937213D01*
X199510288Y-48937210D01*
X199379185Y-48849609D01*
X199379172Y-48849602D01*
X199233501Y-48789264D01*
X199233489Y-48789261D01*
X199078845Y-48758500D01*
X199078842Y-48758500D01*
X198921158Y-48758500D01*
X198921155Y-48758500D01*
X198766510Y-48789261D01*
X198766498Y-48789264D01*
X198620827Y-48849602D01*
X198620814Y-48849609D01*
X198489711Y-48937210D01*
X198489707Y-48937213D01*
X198378213Y-49048707D01*
X198378210Y-49048711D01*
X198290609Y-49179814D01*
X198290602Y-49179827D01*
X198230264Y-49325498D01*
X198230261Y-49325510D01*
X198199500Y-49480153D01*
X198199500Y-49637846D01*
X198230261Y-49792489D01*
X198232031Y-49798324D01*
X198229902Y-49798969D01*
X198236301Y-49858524D01*
X198205023Y-49921001D01*
X198144932Y-49956650D01*
X198114273Y-49960500D01*
X197002519Y-49960500D01*
X196973078Y-49951855D01*
X196943092Y-49945332D01*
X196938076Y-49941577D01*
X196935480Y-49940815D01*
X196914838Y-49924181D01*
X196796071Y-49805414D01*
X196769191Y-49765185D01*
X196709397Y-49620827D01*
X196709390Y-49620814D01*
X196621789Y-49489711D01*
X196621786Y-49489707D01*
X196510292Y-49378213D01*
X196510288Y-49378210D01*
X196379185Y-49290609D01*
X196379172Y-49290602D01*
X196233501Y-49230264D01*
X196233489Y-49230261D01*
X196078845Y-49199500D01*
X196078842Y-49199500D01*
X195921158Y-49199500D01*
X195921155Y-49199500D01*
X195766510Y-49230261D01*
X195766498Y-49230264D01*
X195620827Y-49290602D01*
X195620814Y-49290609D01*
X195489711Y-49378210D01*
X195489707Y-49378213D01*
X195378213Y-49489707D01*
X195378210Y-49489711D01*
X195290609Y-49620814D01*
X195290602Y-49620827D01*
X195230264Y-49766498D01*
X195230261Y-49766510D01*
X195199500Y-49921153D01*
X195199500Y-50078846D01*
X195230261Y-50233489D01*
X195230264Y-50233501D01*
X195290602Y-50379172D01*
X195290609Y-50379185D01*
X195378210Y-50510288D01*
X195378213Y-50510292D01*
X195489707Y-50621786D01*
X195489711Y-50621789D01*
X195620814Y-50709390D01*
X195620827Y-50709397D01*
X195765185Y-50769191D01*
X195805414Y-50796071D01*
X196214453Y-51205111D01*
X196214454Y-51205112D01*
X196329190Y-51281776D01*
X196403942Y-51312739D01*
X196456671Y-51334580D01*
X196456672Y-51334580D01*
X196456677Y-51334582D01*
X196483545Y-51339925D01*
X196483551Y-51339926D01*
X196483591Y-51339934D01*
X196573361Y-51357791D01*
X196592006Y-51361500D01*
X196592007Y-51361500D01*
X202081010Y-51361500D01*
X202148049Y-51381185D01*
X202168691Y-51397819D01*
X202801188Y-52030316D01*
X202816914Y-52059116D01*
X202833655Y-52087331D01*
X202833573Y-52089624D01*
X202834673Y-52091639D01*
X202832332Y-52124360D01*
X202831162Y-52157156D01*
X202829852Y-52159041D01*
X202829689Y-52161331D01*
X202810031Y-52187589D01*
X202791314Y-52214548D01*
X202788680Y-52216110D01*
X202787817Y-52217264D01*
X202760960Y-52232558D01*
X202635237Y-52284634D01*
X202622992Y-52289707D01*
X202622137Y-52290061D01*
X202574684Y-52299500D01*
X197931004Y-52299500D01*
X197795677Y-52326418D01*
X197795667Y-52326421D01*
X197668192Y-52379222D01*
X197553454Y-52455887D01*
X196805412Y-53203929D01*
X196765184Y-53230809D01*
X196620823Y-53290604D01*
X196620814Y-53290609D01*
X196489711Y-53378210D01*
X196489707Y-53378213D01*
X196378213Y-53489707D01*
X196378210Y-53489711D01*
X196290609Y-53620814D01*
X196290602Y-53620827D01*
X196230264Y-53766498D01*
X196230261Y-53766510D01*
X196199500Y-53921153D01*
X196199500Y-54078846D01*
X196230261Y-54233489D01*
X196230264Y-54233501D01*
X196290602Y-54379172D01*
X196290609Y-54379185D01*
X196378210Y-54510288D01*
X196378213Y-54510292D01*
X196489708Y-54621787D01*
X196493758Y-54624493D01*
X196538563Y-54678105D01*
X196547271Y-54747430D01*
X196517117Y-54810458D01*
X196512550Y-54815277D01*
X196416670Y-54911157D01*
X196329069Y-55042260D01*
X196329062Y-55042273D01*
X196268724Y-55187944D01*
X196268721Y-55187956D01*
X196237960Y-55342599D01*
X196237960Y-55500292D01*
X196268721Y-55654935D01*
X196268724Y-55654947D01*
X196329062Y-55800618D01*
X196329069Y-55800631D01*
X196416670Y-55931734D01*
X196416673Y-55931738D01*
X196528167Y-56043232D01*
X196528171Y-56043235D01*
X196617499Y-56102923D01*
X196662304Y-56156536D01*
X196671011Y-56225861D01*
X196640856Y-56288888D01*
X196636289Y-56293706D01*
X195666816Y-57263181D01*
X195605493Y-57296666D01*
X195579135Y-57299500D01*
X187425316Y-57299500D01*
X187377864Y-57290061D01*
X187233501Y-57230264D01*
X187233489Y-57230261D01*
X187078845Y-57199500D01*
X187078842Y-57199500D01*
X186921158Y-57199500D01*
X186921155Y-57199500D01*
X186766510Y-57230261D01*
X186766498Y-57230264D01*
X186620827Y-57290602D01*
X186620814Y-57290609D01*
X186489711Y-57378210D01*
X186489707Y-57378213D01*
X186378213Y-57489707D01*
X186378210Y-57489711D01*
X186290609Y-57620814D01*
X186290602Y-57620827D01*
X186230264Y-57766498D01*
X186230261Y-57766510D01*
X186199500Y-57921153D01*
X160850786Y-57921153D01*
X160850786Y-55857135D01*
X169794786Y-55857135D01*
X169794786Y-57452870D01*
X169794787Y-57452876D01*
X169801194Y-57512483D01*
X169851488Y-57647328D01*
X169851492Y-57647335D01*
X169937738Y-57762544D01*
X169937741Y-57762547D01*
X170052950Y-57848793D01*
X170052957Y-57848797D01*
X170187803Y-57899091D01*
X170187802Y-57899091D01*
X170194730Y-57899835D01*
X170247413Y-57905500D01*
X171393158Y-57905499D01*
X171452769Y-57899091D01*
X171587617Y-57848796D01*
X171588716Y-57847972D01*
X171590003Y-57847492D01*
X171595398Y-57844547D01*
X171595821Y-57845322D01*
X171654173Y-57823552D01*
X171710484Y-57832673D01*
X171791159Y-57866091D01*
X171957063Y-57899091D01*
X171989278Y-57905499D01*
X171989282Y-57905500D01*
X171989283Y-57905500D01*
X172191290Y-57905500D01*
X172191291Y-57905499D01*
X172389413Y-57866091D01*
X172576042Y-57788786D01*
X172656396Y-57735094D01*
X172723072Y-57714217D01*
X172790452Y-57732701D01*
X172794151Y-57735078D01*
X172874530Y-57788786D01*
X173061159Y-57866091D01*
X173227063Y-57899091D01*
X173259278Y-57905499D01*
X173259282Y-57905500D01*
X173259283Y-57905500D01*
X173461290Y-57905500D01*
X173461291Y-57905499D01*
X173659413Y-57866091D01*
X173846042Y-57788786D01*
X174014004Y-57676558D01*
X174156844Y-57533718D01*
X174269072Y-57365756D01*
X174346377Y-57179127D01*
X174385786Y-56981003D01*
X174385786Y-56328997D01*
X174346377Y-56130873D01*
X174269072Y-55944244D01*
X174269070Y-55944241D01*
X174269067Y-55944235D01*
X174254676Y-55922698D01*
X174254675Y-55922696D01*
X174210869Y-55857135D01*
X175544786Y-55857135D01*
X175544786Y-57452870D01*
X175544787Y-57452876D01*
X175551194Y-57512483D01*
X175601488Y-57647328D01*
X175601492Y-57647335D01*
X175687738Y-57762544D01*
X175687741Y-57762547D01*
X175802950Y-57848793D01*
X175802957Y-57848797D01*
X175937803Y-57899091D01*
X175937802Y-57899091D01*
X175944730Y-57899835D01*
X175997413Y-57905500D01*
X177143158Y-57905499D01*
X177202769Y-57899091D01*
X177337617Y-57848796D01*
X177338716Y-57847972D01*
X177340003Y-57847492D01*
X177345398Y-57844547D01*
X177345821Y-57845322D01*
X177404173Y-57823552D01*
X177460484Y-57832673D01*
X177541159Y-57866091D01*
X177707063Y-57899091D01*
X177739278Y-57905499D01*
X177739282Y-57905500D01*
X177739283Y-57905500D01*
X177941290Y-57905500D01*
X177941291Y-57905499D01*
X178139413Y-57866091D01*
X178326042Y-57788786D01*
X178406396Y-57735094D01*
X178473072Y-57714217D01*
X178540452Y-57732701D01*
X178544151Y-57735078D01*
X178624530Y-57788786D01*
X178811159Y-57866091D01*
X178977063Y-57899091D01*
X179009278Y-57905499D01*
X179009282Y-57905500D01*
X179009283Y-57905500D01*
X179211290Y-57905500D01*
X179211291Y-57905499D01*
X179409413Y-57866091D01*
X179596042Y-57788786D01*
X179764004Y-57676558D01*
X179906844Y-57533718D01*
X180019072Y-57365756D01*
X180096377Y-57179127D01*
X180135786Y-56981003D01*
X180135786Y-56328997D01*
X180096377Y-56130873D01*
X180019072Y-55944244D01*
X180019070Y-55944241D01*
X180019068Y-55944237D01*
X179906844Y-55776281D01*
X179764004Y-55633441D01*
X179596048Y-55521217D01*
X179596038Y-55521212D01*
X179409413Y-55443909D01*
X179409405Y-55443907D01*
X179211293Y-55404500D01*
X179211289Y-55404500D01*
X179009283Y-55404500D01*
X179009278Y-55404500D01*
X178811166Y-55443907D01*
X178811158Y-55443909D01*
X178624530Y-55521213D01*
X178585257Y-55547455D01*
X178551361Y-55570104D01*
X178544177Y-55574904D01*
X178477499Y-55595782D01*
X178410119Y-55577297D01*
X178406395Y-55574904D01*
X178399211Y-55570104D01*
X178365310Y-55547452D01*
X178326041Y-55521213D01*
X178139413Y-55443909D01*
X178139405Y-55443907D01*
X177941293Y-55404500D01*
X177941289Y-55404500D01*
X177739283Y-55404500D01*
X177739278Y-55404500D01*
X177541166Y-55443907D01*
X177541154Y-55443910D01*
X177460484Y-55477325D01*
X177391015Y-55484794D01*
X177345628Y-55465036D01*
X177345400Y-55465454D01*
X177340733Y-55462905D01*
X177338718Y-55462028D01*
X177337617Y-55461204D01*
X177337616Y-55461203D01*
X177337614Y-55461202D01*
X177202768Y-55410908D01*
X177202769Y-55410908D01*
X177143169Y-55404501D01*
X177143167Y-55404500D01*
X177143159Y-55404500D01*
X177143150Y-55404500D01*
X175997415Y-55404500D01*
X175997409Y-55404501D01*
X175937802Y-55410908D01*
X175802957Y-55461202D01*
X175802950Y-55461206D01*
X175687741Y-55547452D01*
X175687738Y-55547455D01*
X175601492Y-55662664D01*
X175601488Y-55662671D01*
X175551194Y-55797517D01*
X175544787Y-55857116D01*
X175544786Y-55857135D01*
X174210869Y-55857135D01*
X174156847Y-55776286D01*
X174156841Y-55776278D01*
X174014004Y-55633441D01*
X173846048Y-55521217D01*
X173846038Y-55521212D01*
X173659413Y-55443909D01*
X173659405Y-55443907D01*
X173461293Y-55404500D01*
X173461289Y-55404500D01*
X173259283Y-55404500D01*
X173259278Y-55404500D01*
X173061166Y-55443907D01*
X173061158Y-55443909D01*
X172874530Y-55521213D01*
X172835257Y-55547455D01*
X172801361Y-55570104D01*
X172794177Y-55574904D01*
X172727499Y-55595782D01*
X172660119Y-55577297D01*
X172656395Y-55574904D01*
X172649211Y-55570104D01*
X172615310Y-55547452D01*
X172576041Y-55521213D01*
X172389413Y-55443909D01*
X172389405Y-55443907D01*
X172191293Y-55404500D01*
X172191289Y-55404500D01*
X171989283Y-55404500D01*
X171989278Y-55404500D01*
X171791166Y-55443907D01*
X171791154Y-55443910D01*
X171710484Y-55477325D01*
X171641015Y-55484794D01*
X171595628Y-55465036D01*
X171595400Y-55465454D01*
X171590733Y-55462905D01*
X171588718Y-55462028D01*
X171587617Y-55461204D01*
X171587616Y-55461203D01*
X171587614Y-55461202D01*
X171452768Y-55410908D01*
X171452769Y-55410908D01*
X171393169Y-55404501D01*
X171393167Y-55404500D01*
X171393159Y-55404500D01*
X171393150Y-55404500D01*
X170247415Y-55404500D01*
X170247409Y-55404501D01*
X170187802Y-55410908D01*
X170052957Y-55461202D01*
X170052950Y-55461206D01*
X169937741Y-55547452D01*
X169937738Y-55547455D01*
X169851492Y-55662664D01*
X169851488Y-55662671D01*
X169801194Y-55797517D01*
X169794787Y-55857116D01*
X169794786Y-55857135D01*
X160850786Y-55857135D01*
X160850786Y-54921153D01*
X186199500Y-54921153D01*
X186199500Y-55078846D01*
X186230261Y-55233489D01*
X186230264Y-55233501D01*
X186290602Y-55379172D01*
X186290609Y-55379185D01*
X186378210Y-55510288D01*
X186378213Y-55510292D01*
X186489707Y-55621786D01*
X186489711Y-55621789D01*
X186620814Y-55709390D01*
X186620827Y-55709397D01*
X186758683Y-55766498D01*
X186766503Y-55769737D01*
X186876199Y-55791557D01*
X186921153Y-55800499D01*
X186921156Y-55800500D01*
X186921158Y-55800500D01*
X187078844Y-55800500D01*
X187078845Y-55800499D01*
X187233497Y-55769737D01*
X187379179Y-55709394D01*
X187510289Y-55621789D01*
X187621789Y-55510289D01*
X187709394Y-55379179D01*
X187769737Y-55233497D01*
X187800500Y-55078842D01*
X187800500Y-54921158D01*
X187800500Y-54921155D01*
X187800499Y-54921153D01*
X187798510Y-54911153D01*
X187769737Y-54766503D01*
X187761837Y-54747430D01*
X187709397Y-54620827D01*
X187709390Y-54620814D01*
X187621789Y-54489711D01*
X187621786Y-54489707D01*
X187510292Y-54378213D01*
X187510288Y-54378210D01*
X187379185Y-54290609D01*
X187379172Y-54290602D01*
X187233501Y-54230264D01*
X187233489Y-54230261D01*
X187078845Y-54199500D01*
X187078842Y-54199500D01*
X186921158Y-54199500D01*
X186921155Y-54199500D01*
X186766510Y-54230261D01*
X186766498Y-54230264D01*
X186620827Y-54290602D01*
X186620814Y-54290609D01*
X186489711Y-54378210D01*
X186489707Y-54378213D01*
X186378213Y-54489707D01*
X186378210Y-54489711D01*
X186290609Y-54620814D01*
X186290602Y-54620827D01*
X186230264Y-54766498D01*
X186230261Y-54766510D01*
X186199500Y-54921153D01*
X160850786Y-54921153D01*
X160850786Y-52721153D01*
X182599500Y-52721153D01*
X182599500Y-52878846D01*
X182630261Y-53033489D01*
X182630264Y-53033501D01*
X182690602Y-53179172D01*
X182690609Y-53179185D01*
X182778210Y-53310288D01*
X182778213Y-53310292D01*
X182889707Y-53421786D01*
X182889711Y-53421789D01*
X183020814Y-53509390D01*
X183020827Y-53509397D01*
X183166498Y-53569735D01*
X183166503Y-53569737D01*
X183321153Y-53600499D01*
X183321156Y-53600500D01*
X183321158Y-53600500D01*
X183478844Y-53600500D01*
X183478845Y-53600499D01*
X183633497Y-53569737D01*
X183779179Y-53509394D01*
X183910289Y-53421789D01*
X184021789Y-53310289D01*
X184109394Y-53179179D01*
X184169737Y-53033497D01*
X184200500Y-52878842D01*
X184200500Y-52721158D01*
X184200500Y-52721155D01*
X184200499Y-52721153D01*
X184180803Y-52622136D01*
X184169737Y-52566503D01*
X184123919Y-52455887D01*
X184109397Y-52420827D01*
X184109390Y-52420814D01*
X184021789Y-52289711D01*
X184021786Y-52289707D01*
X183910292Y-52178213D01*
X183910288Y-52178210D01*
X183779185Y-52090609D01*
X183779172Y-52090602D01*
X183633501Y-52030264D01*
X183633489Y-52030261D01*
X183478845Y-51999500D01*
X183478842Y-51999500D01*
X183321158Y-51999500D01*
X183321155Y-51999500D01*
X183166510Y-52030261D01*
X183166498Y-52030264D01*
X183020827Y-52090602D01*
X183020814Y-52090609D01*
X182889711Y-52178210D01*
X182889707Y-52178213D01*
X182778213Y-52289707D01*
X182778210Y-52289711D01*
X182690609Y-52420814D01*
X182690602Y-52420827D01*
X182630264Y-52566498D01*
X182630261Y-52566510D01*
X182599500Y-52721153D01*
X160850786Y-52721153D01*
X160850786Y-50941153D01*
X189199500Y-50941153D01*
X189199500Y-51098846D01*
X189230261Y-51253489D01*
X189230264Y-51253501D01*
X189290602Y-51399172D01*
X189290609Y-51399185D01*
X189378210Y-51530288D01*
X189378213Y-51530292D01*
X189489707Y-51641786D01*
X189489711Y-51641789D01*
X189620814Y-51729390D01*
X189620827Y-51729397D01*
X189766498Y-51789735D01*
X189766503Y-51789737D01*
X189921153Y-51820499D01*
X189921156Y-51820500D01*
X189921158Y-51820500D01*
X190078843Y-51820500D01*
X190094564Y-51817372D01*
X190151309Y-51806085D01*
X190220899Y-51812312D01*
X190276077Y-51855174D01*
X190299322Y-51921063D01*
X190299500Y-51927702D01*
X190299500Y-52574684D01*
X190290061Y-52622136D01*
X190230264Y-52766498D01*
X190230261Y-52766510D01*
X190199500Y-52921153D01*
X190199500Y-53078846D01*
X190230261Y-53233489D01*
X190230264Y-53233501D01*
X190290602Y-53379172D01*
X190290609Y-53379185D01*
X190378210Y-53510288D01*
X190378213Y-53510292D01*
X190489707Y-53621786D01*
X190489711Y-53621789D01*
X190620814Y-53709390D01*
X190620827Y-53709397D01*
X190758683Y-53766498D01*
X190766503Y-53769737D01*
X190921153Y-53800499D01*
X190921156Y-53800500D01*
X190921158Y-53800500D01*
X191078844Y-53800500D01*
X191078845Y-53800499D01*
X191233497Y-53769737D01*
X191379179Y-53709394D01*
X191510289Y-53621789D01*
X191621789Y-53510289D01*
X191709394Y-53379179D01*
X191769737Y-53233497D01*
X191800500Y-53078842D01*
X191800500Y-52921158D01*
X191800500Y-52921155D01*
X191800499Y-52921153D01*
X191792272Y-52879792D01*
X191769737Y-52766503D01*
X191750955Y-52721158D01*
X191709939Y-52622136D01*
X191708312Y-52613959D01*
X191705523Y-52609619D01*
X191700500Y-52574684D01*
X191700500Y-52341519D01*
X191720185Y-52274480D01*
X191736819Y-52253838D01*
X195253838Y-48736819D01*
X195315161Y-48703334D01*
X195341519Y-48700500D01*
X196574684Y-48700500D01*
X196622136Y-48709939D01*
X196687031Y-48736819D01*
X196766503Y-48769737D01*
X196921153Y-48800499D01*
X196921156Y-48800500D01*
X196921158Y-48800500D01*
X197078844Y-48800500D01*
X197078845Y-48800499D01*
X197233497Y-48769737D01*
X197379179Y-48709394D01*
X197510289Y-48621789D01*
X197621789Y-48510289D01*
X197709394Y-48379179D01*
X197769737Y-48233497D01*
X197800500Y-48078842D01*
X197800500Y-47921158D01*
X197800500Y-47921155D01*
X197800499Y-47921153D01*
X197776499Y-47800499D01*
X197769737Y-47766503D01*
X197746080Y-47709390D01*
X197709397Y-47620827D01*
X197709390Y-47620814D01*
X197621789Y-47489711D01*
X197621786Y-47489707D01*
X197510292Y-47378213D01*
X197510288Y-47378210D01*
X197379185Y-47290609D01*
X197379172Y-47290602D01*
X197233501Y-47230264D01*
X197233489Y-47230261D01*
X197078845Y-47199500D01*
X197078842Y-47199500D01*
X196921158Y-47199500D01*
X196921155Y-47199500D01*
X196766510Y-47230261D01*
X196766498Y-47230264D01*
X196622136Y-47290061D01*
X196574684Y-47299500D01*
X195907703Y-47299500D01*
X195840664Y-47279815D01*
X195794909Y-47227011D01*
X195784965Y-47157853D01*
X195786086Y-47151309D01*
X195800499Y-47078846D01*
X195800500Y-47078844D01*
X195800500Y-46921155D01*
X195800499Y-46921153D01*
X195769737Y-46766503D01*
X195769735Y-46766498D01*
X195709397Y-46620827D01*
X195709390Y-46620814D01*
X195621789Y-46489711D01*
X195621786Y-46489707D01*
X195510292Y-46378213D01*
X195510288Y-46378210D01*
X195379185Y-46290609D01*
X195379172Y-46290602D01*
X195233501Y-46230264D01*
X195233489Y-46230261D01*
X195078845Y-46199500D01*
X195078842Y-46199500D01*
X194921158Y-46199500D01*
X194921155Y-46199500D01*
X194766510Y-46230261D01*
X194766498Y-46230264D01*
X194620827Y-46290602D01*
X194620814Y-46290609D01*
X194489711Y-46378210D01*
X194489707Y-46378213D01*
X194378213Y-46489707D01*
X194378210Y-46489711D01*
X194290609Y-46620814D01*
X194290602Y-46620827D01*
X194230264Y-46766498D01*
X194230261Y-46766508D01*
X194199361Y-46921850D01*
X194166976Y-46983761D01*
X194165425Y-46985339D01*
X192787584Y-48363181D01*
X192726261Y-48396666D01*
X192699903Y-48399500D01*
X191579766Y-48399500D01*
X191512727Y-48379815D01*
X191510875Y-48378602D01*
X191379185Y-48290609D01*
X191379172Y-48290602D01*
X191233501Y-48230264D01*
X191233489Y-48230261D01*
X191078845Y-48199500D01*
X191078842Y-48199500D01*
X190921158Y-48199500D01*
X190921155Y-48199500D01*
X190766510Y-48230261D01*
X190766498Y-48230264D01*
X190620827Y-48290602D01*
X190620814Y-48290609D01*
X190489711Y-48378210D01*
X190489707Y-48378213D01*
X190378213Y-48489707D01*
X190378210Y-48489711D01*
X190290609Y-48620814D01*
X190290602Y-48620827D01*
X190230264Y-48766498D01*
X190230261Y-48766510D01*
X190199500Y-48921153D01*
X190199500Y-49078846D01*
X190230261Y-49233489D01*
X190230264Y-49233501D01*
X190290602Y-49379172D01*
X190290609Y-49379185D01*
X190378210Y-49510288D01*
X190378213Y-49510292D01*
X190489707Y-49621786D01*
X190489711Y-49621789D01*
X190620814Y-49709390D01*
X190620827Y-49709397D01*
X190699894Y-49742147D01*
X190766503Y-49769737D01*
X190910219Y-49798324D01*
X190921153Y-49800499D01*
X190921156Y-49800500D01*
X190921158Y-49800500D01*
X191078844Y-49800500D01*
X191078845Y-49800499D01*
X191233497Y-49769737D01*
X191379179Y-49709394D01*
X191433663Y-49672989D01*
X191510875Y-49621398D01*
X191577553Y-49600520D01*
X191579766Y-49600500D01*
X192109481Y-49600500D01*
X192176520Y-49620185D01*
X192222275Y-49672989D01*
X192232219Y-49742147D01*
X192203194Y-49805703D01*
X192197162Y-49812181D01*
X191008951Y-51000390D01*
X190947628Y-51033875D01*
X190877936Y-51028891D01*
X190822003Y-50987019D01*
X190799653Y-50936900D01*
X190781363Y-50844951D01*
X190769737Y-50786503D01*
X190746333Y-50730000D01*
X190709397Y-50640827D01*
X190709390Y-50640814D01*
X190621789Y-50509711D01*
X190621786Y-50509707D01*
X190510292Y-50398213D01*
X190510288Y-50398210D01*
X190379185Y-50310609D01*
X190379172Y-50310602D01*
X190233501Y-50250264D01*
X190233489Y-50250261D01*
X190078845Y-50219500D01*
X190078842Y-50219500D01*
X189921158Y-50219500D01*
X189921155Y-50219500D01*
X189766510Y-50250261D01*
X189766498Y-50250264D01*
X189620827Y-50310602D01*
X189620814Y-50310609D01*
X189489711Y-50398210D01*
X189489707Y-50398213D01*
X189378213Y-50509707D01*
X189378210Y-50509711D01*
X189290609Y-50640814D01*
X189290602Y-50640827D01*
X189230264Y-50786498D01*
X189230261Y-50786510D01*
X189199500Y-50941153D01*
X160850786Y-50941153D01*
X160850786Y-49921153D01*
X175199500Y-49921153D01*
X175199500Y-50078846D01*
X175230261Y-50233489D01*
X175230264Y-50233501D01*
X175290602Y-50379172D01*
X175290609Y-50379185D01*
X175378210Y-50510288D01*
X175378213Y-50510292D01*
X175489707Y-50621786D01*
X175489711Y-50621789D01*
X175620814Y-50709390D01*
X175620827Y-50709397D01*
X175715094Y-50748443D01*
X175766503Y-50769737D01*
X175881000Y-50792512D01*
X175921153Y-50800499D01*
X175921156Y-50800500D01*
X175921158Y-50800500D01*
X176078844Y-50800500D01*
X176078845Y-50800499D01*
X176233497Y-50769737D01*
X176379179Y-50709394D01*
X176510289Y-50621789D01*
X176621789Y-50510289D01*
X176709394Y-50379179D01*
X176769737Y-50233497D01*
X176800500Y-50078842D01*
X176800500Y-49921158D01*
X176800500Y-49921155D01*
X176800499Y-49921153D01*
X176776103Y-49798506D01*
X176769737Y-49766503D01*
X176769191Y-49765185D01*
X176709397Y-49620827D01*
X176709390Y-49620814D01*
X176621789Y-49489711D01*
X176621786Y-49489707D01*
X176510292Y-49378213D01*
X176510288Y-49378210D01*
X176379185Y-49290609D01*
X176379172Y-49290602D01*
X176233501Y-49230264D01*
X176233489Y-49230261D01*
X176078845Y-49199500D01*
X176078842Y-49199500D01*
X175921158Y-49199500D01*
X175921155Y-49199500D01*
X175766510Y-49230261D01*
X175766498Y-49230264D01*
X175620827Y-49290602D01*
X175620814Y-49290609D01*
X175489711Y-49378210D01*
X175489707Y-49378213D01*
X175378213Y-49489707D01*
X175378210Y-49489711D01*
X175290609Y-49620814D01*
X175290602Y-49620827D01*
X175230264Y-49766498D01*
X175230261Y-49766510D01*
X175199500Y-49921153D01*
X160850786Y-49921153D01*
X160850786Y-46276647D01*
X188024500Y-46276647D01*
X188024500Y-46823337D01*
X188024501Y-46823355D01*
X188034650Y-46922707D01*
X188034651Y-46922710D01*
X188087996Y-47083694D01*
X188088001Y-47083705D01*
X188177029Y-47228040D01*
X188177032Y-47228044D01*
X188296955Y-47347967D01*
X188296959Y-47347970D01*
X188441294Y-47436998D01*
X188441297Y-47436999D01*
X188441303Y-47437003D01*
X188602292Y-47490349D01*
X188701655Y-47500500D01*
X189298344Y-47500499D01*
X189303305Y-47499992D01*
X189371997Y-47512760D01*
X189403590Y-47535669D01*
X189489707Y-47621786D01*
X189489711Y-47621789D01*
X189620814Y-47709390D01*
X189620827Y-47709397D01*
X189758683Y-47766498D01*
X189766503Y-47769737D01*
X189917569Y-47799786D01*
X189921153Y-47800499D01*
X189921156Y-47800500D01*
X189921158Y-47800500D01*
X190078844Y-47800500D01*
X190078845Y-47800499D01*
X190233497Y-47769737D01*
X190379179Y-47709394D01*
X190510289Y-47621789D01*
X190621789Y-47510289D01*
X190709394Y-47379179D01*
X190769737Y-47233497D01*
X190800500Y-47078842D01*
X190800500Y-46921158D01*
X190800500Y-46921155D01*
X190800499Y-46921153D01*
X190769737Y-46766503D01*
X190769735Y-46766498D01*
X190709397Y-46620827D01*
X190709390Y-46620814D01*
X190621789Y-46489711D01*
X190621786Y-46489707D01*
X190510292Y-46378213D01*
X190510288Y-46378210D01*
X190379185Y-46290609D01*
X190379172Y-46290602D01*
X190234814Y-46230808D01*
X190194585Y-46203928D01*
X189996546Y-46005888D01*
X189996545Y-46005887D01*
X189881805Y-45929221D01*
X189876437Y-45926352D01*
X189877562Y-45924246D01*
X189874988Y-45922304D01*
X189863444Y-45918393D01*
X189847815Y-45901803D01*
X189837742Y-45894204D01*
X189833091Y-45888369D01*
X189822968Y-45871956D01*
X189808399Y-45857387D01*
X189804050Y-45851930D01*
X189793384Y-45825783D01*
X189779854Y-45801004D01*
X189780364Y-45793864D01*
X189777661Y-45787236D01*
X189782823Y-45759477D01*
X189784838Y-45731312D01*
X189789375Y-45724252D01*
X189790437Y-45718544D01*
X189798659Y-45709806D01*
X189813345Y-45686959D01*
X189822573Y-45677731D01*
X189911542Y-45533492D01*
X189911547Y-45533481D01*
X189964855Y-45372606D01*
X189974999Y-45273322D01*
X189975000Y-45273309D01*
X189975000Y-45250000D01*
X188025001Y-45250000D01*
X188025001Y-45273322D01*
X188035144Y-45372607D01*
X188088452Y-45533481D01*
X188088457Y-45533492D01*
X188177424Y-45677728D01*
X188177427Y-45677732D01*
X188186660Y-45686965D01*
X188220145Y-45748288D01*
X188215161Y-45817980D01*
X188186663Y-45862324D01*
X188177033Y-45871953D01*
X188177029Y-45871959D01*
X188088001Y-46016294D01*
X188087996Y-46016305D01*
X188034651Y-46177290D01*
X188024500Y-46276647D01*
X160850786Y-46276647D01*
X160850786Y-44321153D01*
X169999500Y-44321153D01*
X169999500Y-44478846D01*
X170030261Y-44633489D01*
X170030264Y-44633501D01*
X170090602Y-44779172D01*
X170090609Y-44779185D01*
X170178210Y-44910288D01*
X170178213Y-44910292D01*
X170289707Y-45021786D01*
X170289711Y-45021789D01*
X170420814Y-45109390D01*
X170420827Y-45109397D01*
X170566498Y-45169735D01*
X170566503Y-45169737D01*
X170721153Y-45200499D01*
X170721156Y-45200500D01*
X170721158Y-45200500D01*
X170878844Y-45200500D01*
X170878845Y-45200499D01*
X171033497Y-45169737D01*
X171179179Y-45109394D01*
X171310289Y-45021789D01*
X171421789Y-44910289D01*
X171508942Y-44779856D01*
X171512779Y-44774114D01*
X171515071Y-44775645D01*
X171555681Y-44734255D01*
X171623810Y-44718753D01*
X171689504Y-44742546D01*
X171703823Y-44754835D01*
X171771955Y-44822967D01*
X171771959Y-44822970D01*
X171916294Y-44911998D01*
X171916297Y-44911999D01*
X171916303Y-44912003D01*
X172077292Y-44965349D01*
X172176655Y-44975500D01*
X172723344Y-44975499D01*
X172723352Y-44975498D01*
X172723355Y-44975498D01*
X172777760Y-44969940D01*
X172822708Y-44965349D01*
X172983697Y-44912003D01*
X173128044Y-44822968D01*
X173137668Y-44813343D01*
X173198987Y-44779856D01*
X173268679Y-44784835D01*
X173313034Y-44813339D01*
X173322267Y-44822572D01*
X173322271Y-44822575D01*
X173466507Y-44911542D01*
X173466518Y-44911547D01*
X173627393Y-44964855D01*
X173726683Y-44974999D01*
X174250000Y-44974999D01*
X174273308Y-44974999D01*
X174273322Y-44974998D01*
X174372607Y-44964855D01*
X174504492Y-44921153D01*
X180199500Y-44921153D01*
X180199500Y-45078846D01*
X180230261Y-45233489D01*
X180230264Y-45233501D01*
X180290602Y-45379172D01*
X180290609Y-45379185D01*
X180378210Y-45510288D01*
X180378213Y-45510292D01*
X180489707Y-45621786D01*
X180489711Y-45621789D01*
X180620814Y-45709390D01*
X180620827Y-45709397D01*
X180754948Y-45764951D01*
X180766503Y-45769737D01*
X180887797Y-45793864D01*
X180921153Y-45800499D01*
X180921156Y-45800500D01*
X180921158Y-45800500D01*
X181078844Y-45800500D01*
X181078845Y-45800499D01*
X181233497Y-45769737D01*
X181328227Y-45730499D01*
X181377864Y-45709939D01*
X181386040Y-45708312D01*
X181390381Y-45705523D01*
X181425316Y-45700500D01*
X181598126Y-45700500D01*
X181665165Y-45720185D01*
X181685807Y-45736819D01*
X181771955Y-45822967D01*
X181771959Y-45822970D01*
X181916294Y-45911998D01*
X181916297Y-45911999D01*
X181916303Y-45912003D01*
X182077292Y-45965349D01*
X182176655Y-45975500D01*
X182723344Y-45975499D01*
X182723352Y-45975498D01*
X182723355Y-45975498D01*
X182777760Y-45969940D01*
X182822708Y-45965349D01*
X182983697Y-45912003D01*
X183128044Y-45822968D01*
X183137668Y-45813343D01*
X183198987Y-45779856D01*
X183268679Y-45784835D01*
X183313034Y-45813339D01*
X183322267Y-45822572D01*
X183322271Y-45822575D01*
X183466507Y-45911542D01*
X183466518Y-45911547D01*
X183627393Y-45964855D01*
X183726683Y-45974999D01*
X184250000Y-45974999D01*
X184273308Y-45974999D01*
X184273322Y-45974998D01*
X184372607Y-45964855D01*
X184533481Y-45911547D01*
X184533492Y-45911542D01*
X184677728Y-45822575D01*
X184677732Y-45822572D01*
X184797572Y-45702732D01*
X184797575Y-45702728D01*
X184886542Y-45558492D01*
X184886547Y-45558481D01*
X184939855Y-45397606D01*
X184949999Y-45298322D01*
X184950000Y-45298309D01*
X184950000Y-45250000D01*
X184250000Y-45250000D01*
X184250000Y-45974999D01*
X183726683Y-45974999D01*
X183750000Y-45974998D01*
X183750000Y-44750000D01*
X184250000Y-44750000D01*
X184949999Y-44750000D01*
X184949999Y-44726677D01*
X188025000Y-44726677D01*
X188025000Y-44750000D01*
X188750000Y-44750000D01*
X189250000Y-44750000D01*
X189974999Y-44750000D01*
X189974999Y-44726692D01*
X189974998Y-44726677D01*
X189964855Y-44627392D01*
X189911547Y-44466518D01*
X189911542Y-44466507D01*
X189822575Y-44322271D01*
X189822572Y-44322267D01*
X189702732Y-44202427D01*
X189702728Y-44202424D01*
X189558492Y-44113457D01*
X189558481Y-44113452D01*
X189397606Y-44060144D01*
X189298322Y-44050000D01*
X189250000Y-44050000D01*
X189250000Y-44750000D01*
X188750000Y-44750000D01*
X188750000Y-44050000D01*
X188749999Y-44049999D01*
X188701693Y-44050000D01*
X188701675Y-44050001D01*
X188602392Y-44060144D01*
X188441518Y-44113452D01*
X188441507Y-44113457D01*
X188297271Y-44202424D01*
X188297267Y-44202427D01*
X188177427Y-44322267D01*
X188177424Y-44322271D01*
X188088457Y-44466507D01*
X188088452Y-44466518D01*
X188035144Y-44627393D01*
X188025000Y-44726677D01*
X184949999Y-44726677D01*
X184949999Y-44701692D01*
X184949998Y-44701677D01*
X184939855Y-44602392D01*
X184886547Y-44441518D01*
X184886542Y-44441507D01*
X184797575Y-44297271D01*
X184797572Y-44297267D01*
X184677732Y-44177427D01*
X184677728Y-44177424D01*
X184533492Y-44088457D01*
X184533481Y-44088452D01*
X184372606Y-44035144D01*
X184273322Y-44025000D01*
X184250000Y-44025000D01*
X184250000Y-44750000D01*
X183750000Y-44750000D01*
X183750000Y-44024999D01*
X183726693Y-44025000D01*
X183726674Y-44025001D01*
X183627392Y-44035144D01*
X183466518Y-44088452D01*
X183466507Y-44088457D01*
X183322271Y-44177424D01*
X183322265Y-44177428D01*
X183313031Y-44186663D01*
X183251707Y-44220146D01*
X183182015Y-44215159D01*
X183137672Y-44186660D01*
X183128044Y-44177032D01*
X183128040Y-44177029D01*
X182983705Y-44088001D01*
X182983699Y-44087998D01*
X182983697Y-44087997D01*
X182910545Y-44063757D01*
X182822709Y-44034651D01*
X182723346Y-44024500D01*
X182176662Y-44024500D01*
X182176644Y-44024501D01*
X182077292Y-44034650D01*
X182077289Y-44034651D01*
X181916305Y-44087996D01*
X181916294Y-44088001D01*
X181771959Y-44177029D01*
X181771955Y-44177032D01*
X181685807Y-44263181D01*
X181658879Y-44277884D01*
X181633061Y-44294477D01*
X181626860Y-44295368D01*
X181624484Y-44296666D01*
X181598126Y-44299500D01*
X181425316Y-44299500D01*
X181377864Y-44290061D01*
X181233501Y-44230264D01*
X181233489Y-44230261D01*
X181078845Y-44199500D01*
X181078842Y-44199500D01*
X180921158Y-44199500D01*
X180921155Y-44199500D01*
X180766510Y-44230261D01*
X180766498Y-44230264D01*
X180620827Y-44290602D01*
X180620814Y-44290609D01*
X180489711Y-44378210D01*
X180489707Y-44378213D01*
X180378213Y-44489707D01*
X180378210Y-44489711D01*
X180290609Y-44620814D01*
X180290602Y-44620827D01*
X180230264Y-44766498D01*
X180230261Y-44766510D01*
X180199500Y-44921153D01*
X174504492Y-44921153D01*
X174533481Y-44911547D01*
X174533492Y-44911542D01*
X174677728Y-44822575D01*
X174677732Y-44822572D01*
X174797572Y-44702732D01*
X174797575Y-44702728D01*
X174886542Y-44558492D01*
X174886547Y-44558481D01*
X174939855Y-44397606D01*
X174949999Y-44298322D01*
X174950000Y-44298309D01*
X174950000Y-44250000D01*
X174250000Y-44250000D01*
X174250000Y-44974999D01*
X173726683Y-44974999D01*
X173750000Y-44974998D01*
X173750000Y-43750000D01*
X174250000Y-43750000D01*
X174949999Y-43750000D01*
X174949999Y-43701692D01*
X174949998Y-43701677D01*
X174939855Y-43602392D01*
X174886547Y-43441518D01*
X174886542Y-43441507D01*
X174797575Y-43297271D01*
X174797572Y-43297267D01*
X174677732Y-43177427D01*
X174677728Y-43177424D01*
X174533492Y-43088457D01*
X174533481Y-43088452D01*
X174372606Y-43035144D01*
X174273322Y-43025000D01*
X174250000Y-43025000D01*
X174250000Y-43750000D01*
X173750000Y-43750000D01*
X173750000Y-43024999D01*
X173726693Y-43025000D01*
X173726674Y-43025001D01*
X173627392Y-43035144D01*
X173466518Y-43088452D01*
X173466507Y-43088457D01*
X173322271Y-43177424D01*
X173322265Y-43177428D01*
X173313031Y-43186663D01*
X173251707Y-43220146D01*
X173182015Y-43215159D01*
X173137672Y-43186660D01*
X173128044Y-43177032D01*
X173128040Y-43177029D01*
X172983705Y-43088001D01*
X172983699Y-43087998D01*
X172983697Y-43087997D01*
X172907515Y-43062753D01*
X172822709Y-43034651D01*
X172723346Y-43024500D01*
X172176662Y-43024500D01*
X172176644Y-43024501D01*
X172077292Y-43034650D01*
X172077289Y-43034651D01*
X171916305Y-43087996D01*
X171916294Y-43088001D01*
X171771959Y-43177029D01*
X171771955Y-43177032D01*
X171685807Y-43263181D01*
X171624484Y-43296666D01*
X171598126Y-43299500D01*
X171131003Y-43299500D01*
X171022590Y-43321065D01*
X171022589Y-43321065D01*
X171009131Y-43323742D01*
X170995673Y-43326419D01*
X170995671Y-43326420D01*
X170942866Y-43348292D01*
X170942864Y-43348293D01*
X170942863Y-43348292D01*
X170868191Y-43379223D01*
X170803399Y-43422517D01*
X170753458Y-43455886D01*
X170753453Y-43455890D01*
X170605411Y-43603929D01*
X170565184Y-43630808D01*
X170420824Y-43690604D01*
X170420814Y-43690609D01*
X170289711Y-43778210D01*
X170289707Y-43778213D01*
X170178213Y-43889707D01*
X170178210Y-43889711D01*
X170090609Y-44020814D01*
X170090602Y-44020827D01*
X170030264Y-44166498D01*
X170030261Y-44166510D01*
X169999500Y-44321153D01*
X160850786Y-44321153D01*
X160850786Y-38624500D01*
X160870471Y-38557461D01*
X160923275Y-38511706D01*
X160974786Y-38500500D01*
X211275786Y-38500500D01*
X211342825Y-38520185D01*
G37*
%TD.AperFunction*%
%TD*%
M02*
