M48
; DRILL file {KiCad 9.0.4} date 2026-03-12T13:49:45-0400
; FORMAT={-:-/ absolute / metric / decimal}
; #@! TF.CreationDate,2026-03-12T13:49:45-04:00
; #@! TF.GenerationSoftware,Kicad,Pcbnew,9.0.4
; #@! TF.FileFunction,Plated,1,4,PTH
FMAT,2
METRIC
; #@! TA.AperFunction,Plated,PTH,ViaDrill
T1C0.300
; #@! TA.AperFunction,Plated,PTH,ComponentDrill
T2C0.750
; #@! TA.AperFunction,Plated,PTH,ComponentDrill
T3C1.000
%
G90
G05
T1
X162.0Y-57.0
X162.0Y-64.0
X163.0Y-65.0
X164.0Y-51.0
X164.0Y-64.0
X165.0Y-49.0
X168.0Y-48.0
X170.8Y-44.4
X174.0Y-50.0
X175.0Y-53.0
X176.0Y-50.0
X180.0Y-44.0
X181.0Y-45.0
X183.0Y-56.0
X183.4Y-52.8
X184.0Y-55.0
X185.0Y-54.0
X186.0Y-49.0
X187.0Y-55.0
X187.0Y-58.0
X188.0Y-54.0
X189.0Y-49.0
X190.0Y-47.0
X190.0Y-51.02
X191.0Y-49.0
X191.0Y-53.0
X194.0Y-45.0
X194.0Y-61.0
X195.0Y-47.0
X196.0Y-50.0
X196.0Y-53.0
X197.0Y-48.0
X197.0Y-54.0
X197.0Y-58.0
X197.038Y-55.421
X198.0Y-49.0
X199.0Y-49.559
X201.01Y-49.395
X202.0Y-58.0
X203.0Y-53.0
X204.0Y-56.0
T2
X170.82Y-56.655
X172.09Y-56.655
X173.36Y-56.655
X176.57Y-56.655
X177.84Y-56.655
X179.11Y-56.655
T3
X205.46Y-44.38
X205.46Y-46.92
X205.46Y-49.46
X205.46Y-52.0
X205.46Y-54.54
X205.46Y-57.08
X205.46Y-59.62
X205.46Y-62.16
X208.0Y-44.38
X208.0Y-46.92
X208.0Y-49.46
X208.0Y-52.0
X208.0Y-54.54
X208.0Y-57.08
X208.0Y-59.62
X208.0Y-62.16
M30
