%TF.GenerationSoftware,KiCad,Pcbnew,9.0.4*%
%TF.CreationDate,2026-03-16T14:18:49-04:00*%
%TF.ProjectId,Overdrive,4f766572-6472-4697-9665-2e6b69636164,rev?*%
%TF.SameCoordinates,Original*%
%TF.FileFunction,Copper,L4,Bot*%
%TF.FilePolarity,Positive*%
%FSLAX46Y46*%
G04 Gerber Fmt 4.6, Leading zero omitted, Abs format (unit mm)*
G04 Created by KiCad (PCBNEW 9.0.4) date 2026-03-16 14:18:49*
%MOMM*%
%LPD*%
G01*
G04 APERTURE LIST*
%TA.AperFunction,ComponentPad*%
%ADD10R,1.700000X1.700000*%
%TD*%
%TA.AperFunction,ComponentPad*%
%ADD11C,1.700000*%
%TD*%
%TA.AperFunction,ComponentPad*%
%ADD12R,1.050000X1.500000*%
%TD*%
%TA.AperFunction,ComponentPad*%
%ADD13O,1.050000X1.500000*%
%TD*%
%TA.AperFunction,ViaPad*%
%ADD14C,0.600000*%
%TD*%
%TA.AperFunction,Conductor*%
%ADD15C,0.400000*%
%TD*%
G04 APERTURE END LIST*
D10*
%TO.P,J1,1,Pin_1*%
%TO.N,12V*%
X205460000Y-44380000D03*
D11*
%TO.P,J1,2,Pin_2*%
X208000000Y-44380000D03*
%TO.P,J1,3,Pin_3*%
%TO.N,/CS2*%
X205460000Y-46920000D03*
%TO.P,J1,4,Pin_4*%
%TO.N,unconnected-(J1-Pin_4-Pad4)*%
X208000000Y-46920000D03*
%TO.P,J1,5,Pin_5*%
%TO.N,unconnected-(J1-Pin_5-Pad5)*%
X205460000Y-49460000D03*
%TO.P,J1,6,Pin_6*%
%TO.N,/CS0*%
X208000000Y-49460000D03*
%TO.P,J1,7,Pin_7*%
%TO.N,/MOSI*%
X205460000Y-52000000D03*
%TO.P,J1,8,Pin_8*%
%TO.N,/SPI_CLK*%
X208000000Y-52000000D03*
%TO.P,J1,9,Pin_9*%
%TO.N,/GUITAR_OUT*%
X205460000Y-54540000D03*
%TO.P,J1,10,Pin_10*%
%TO.N,/GUITAR_IN*%
X208000000Y-54540000D03*
%TO.P,J1,11,Pin_11*%
%TO.N,GND*%
X205460000Y-57080000D03*
%TO.P,J1,12,Pin_12*%
X208000000Y-57080000D03*
%TO.P,J1,13,Pin_13*%
X205460000Y-59620000D03*
%TO.P,J1,14,Pin_14*%
X208000000Y-59620000D03*
%TO.P,J1,15,Pin_15*%
%TO.N,unconnected-(J1-Pin_15-Pad15)*%
X205460000Y-62160000D03*
%TO.P,J1,16,Pin_16*%
%TO.N,unconnected-(J1-Pin_16-Pad16)*%
X208000000Y-62160000D03*
%TD*%
D12*
%TO.P,Q1,1,E*%
%TO.N,Net-(Q1-E)*%
X170820286Y-56655000D03*
D13*
%TO.P,Q1,2,B*%
%TO.N,Net-(Q1-B)*%
X172090286Y-56655000D03*
%TO.P,Q1,3,C*%
%TO.N,Net-(Q1-C)*%
X173360286Y-56655000D03*
%TD*%
D12*
%TO.P,Q2,1,E*%
%TO.N,Net-(Q1-C)*%
X176570286Y-56655000D03*
D13*
%TO.P,Q2,2,B*%
%TO.N,Net-(Q2-B)*%
X177840286Y-56655000D03*
%TO.P,Q2,3,C*%
%TO.N,Net-(Q2-C)*%
X179110286Y-56655000D03*
%TD*%
D14*
%TO.N,GND*%
X166000000Y-64000000D03*
X203500000Y-54500000D03*
X165000000Y-49000000D03*
X197000000Y-60000000D03*
X162000000Y-57000000D03*
X190500000Y-49000000D03*
X184000000Y-56500000D03*
X168000000Y-48000000D03*
X187000000Y-47500000D03*
X201010430Y-49394718D03*
X197000000Y-48000000D03*
X187500000Y-53500000D03*
X184000000Y-55500000D03*
X164000000Y-64000000D03*
X189000000Y-53500000D03*
X175000000Y-53000000D03*
X200000000Y-57000000D03*
X192000000Y-56500000D03*
X162000000Y-64000000D03*
X194324313Y-47853324D03*
X184500000Y-49000000D03*
X190000000Y-48000000D03*
X192000000Y-55000000D03*
X174000000Y-50000000D03*
X183000000Y-56000000D03*
X196500000Y-57500000D03*
X164000000Y-51000000D03*
X195000000Y-46000000D03*
X194000000Y-45000000D03*
%TO.N,12V*%
X189146892Y-44929378D03*
X170800000Y-44400000D03*
X176000000Y-50000000D03*
X199000000Y-49559000D03*
X183400000Y-52800000D03*
X181000000Y-45000000D03*
X202000000Y-58000000D03*
%TO.N,/SPI_CLK*%
X193000000Y-53500000D03*
%TO.N,/MOSI*%
X202500000Y-53000000D03*
X199500000Y-53500000D03*
%TO.N,/CS0*%
X198000000Y-54150000D03*
%TO.N,5V*%
X190000000Y-51020000D03*
X196500000Y-56000000D03*
X188500000Y-50500000D03*
X190500000Y-50970000D03*
X197250000Y-56250000D03*
X188000000Y-57000000D03*
X188500000Y-51000000D03*
X187000000Y-55000000D03*
X187394067Y-56855606D03*
X187565189Y-57474903D03*
X197038460Y-55421446D03*
%TO.N,/CS2*%
X199000000Y-52500000D03*
X203000000Y-48500000D03*
%TD*%
D15*
%TO.N,/SPI_CLK*%
X198670346Y-55741000D02*
X205957471Y-55741000D01*
X206661000Y-53339000D02*
X208000000Y-52000000D01*
X206661000Y-55037471D02*
X206661000Y-53339000D01*
X196429346Y-53500000D02*
X198670346Y-55741000D01*
X193000000Y-53500000D02*
X196429346Y-53500000D01*
X205957471Y-55741000D02*
X206661000Y-55037471D01*
%TO.N,/MOSI*%
X199500000Y-53500000D02*
X202000000Y-53500000D01*
X202000000Y-53500000D02*
X202500000Y-53000000D01*
%TO.N,/CS0*%
X202270654Y-54150000D02*
X204259000Y-52161654D01*
X206799000Y-50661000D02*
X208000000Y-49460000D01*
X198000000Y-54150000D02*
X202270654Y-54150000D01*
X205100529Y-50661000D02*
X206799000Y-50661000D01*
X204259000Y-52161654D02*
X204259000Y-51502529D01*
X204259000Y-51502529D02*
X205100529Y-50661000D01*
%TO.N,/CS2*%
X199000000Y-52500000D02*
X203000000Y-48500000D01*
%TD*%
%TA.AperFunction,Conductor*%
%TO.N,GND*%
G36*
X207534075Y-59812993D02*
G01*
X207599901Y-59927007D01*
X207692993Y-60020099D01*
X207807007Y-60085925D01*
X207870590Y-60102962D01*
X207238282Y-60735269D01*
X207238282Y-60735270D01*
X207292452Y-60774626D01*
X207292451Y-60774626D01*
X207301495Y-60779234D01*
X207352292Y-60827208D01*
X207369087Y-60895029D01*
X207346550Y-60961164D01*
X207301499Y-61000202D01*
X207292182Y-61004949D01*
X207120213Y-61129890D01*
X206969890Y-61280213D01*
X206844949Y-61452182D01*
X206840484Y-61460946D01*
X206792509Y-61511742D01*
X206724688Y-61528536D01*
X206658553Y-61505998D01*
X206619516Y-61460946D01*
X206615050Y-61452182D01*
X206490109Y-61280213D01*
X206339786Y-61129890D01*
X206167817Y-61004949D01*
X206158504Y-61000204D01*
X206107707Y-60952230D01*
X206090912Y-60884409D01*
X206113449Y-60818274D01*
X206158507Y-60779232D01*
X206167555Y-60774622D01*
X206221716Y-60735270D01*
X206221717Y-60735270D01*
X205589408Y-60102962D01*
X205652993Y-60085925D01*
X205767007Y-60020099D01*
X205860099Y-59927007D01*
X205925925Y-59812993D01*
X205942962Y-59749408D01*
X206575270Y-60381717D01*
X206575270Y-60381716D01*
X206614622Y-60327554D01*
X206619514Y-60317954D01*
X206667488Y-60267157D01*
X206735308Y-60250361D01*
X206801444Y-60272897D01*
X206840486Y-60317954D01*
X206845375Y-60327550D01*
X206884728Y-60381716D01*
X207517037Y-59749408D01*
X207534075Y-59812993D01*
G37*
%TD.AperFunction*%
%TA.AperFunction,Conductor*%
G36*
X207534075Y-57272993D02*
G01*
X207599901Y-57387007D01*
X207692993Y-57480099D01*
X207807007Y-57545925D01*
X207870590Y-57562962D01*
X207238282Y-58195269D01*
X207238282Y-58195270D01*
X207292452Y-58234626D01*
X207302048Y-58239516D01*
X207352844Y-58287491D01*
X207369638Y-58355312D01*
X207347100Y-58421447D01*
X207302051Y-58460483D01*
X207292440Y-58465380D01*
X207238282Y-58504727D01*
X207238282Y-58504728D01*
X207870591Y-59137037D01*
X207807007Y-59154075D01*
X207692993Y-59219901D01*
X207599901Y-59312993D01*
X207534075Y-59427007D01*
X207517037Y-59490591D01*
X206884728Y-58858282D01*
X206884727Y-58858282D01*
X206845380Y-58912440D01*
X206840483Y-58922051D01*
X206792506Y-58972845D01*
X206724684Y-58989638D01*
X206658550Y-58967098D01*
X206619516Y-58922048D01*
X206614626Y-58912452D01*
X206575270Y-58858282D01*
X206575269Y-58858282D01*
X205942962Y-59490590D01*
X205925925Y-59427007D01*
X205860099Y-59312993D01*
X205767007Y-59219901D01*
X205652993Y-59154075D01*
X205589409Y-59137037D01*
X206221716Y-58504728D01*
X206167550Y-58465375D01*
X206157954Y-58460486D01*
X206107157Y-58412512D01*
X206090361Y-58344692D01*
X206111288Y-58280895D01*
X206190027Y-58163581D01*
X205589408Y-57562962D01*
X205652993Y-57545925D01*
X205767007Y-57480099D01*
X205860099Y-57387007D01*
X205925925Y-57272993D01*
X205942962Y-57209409D01*
X206575270Y-57841717D01*
X206575270Y-57841716D01*
X206614622Y-57787554D01*
X206619514Y-57777954D01*
X206667488Y-57727157D01*
X206735308Y-57710361D01*
X206801444Y-57732897D01*
X206840486Y-57777954D01*
X206845375Y-57787550D01*
X206884728Y-57841716D01*
X207517037Y-57209408D01*
X207534075Y-57272993D01*
G37*
%TD.AperFunction*%
%TA.AperFunction,Conductor*%
G36*
X207175650Y-55615991D02*
G01*
X207205201Y-55631855D01*
X207292179Y-55695048D01*
X207292181Y-55695049D01*
X207292184Y-55695051D01*
X207301493Y-55699794D01*
X207352290Y-55747766D01*
X207369087Y-55815587D01*
X207346552Y-55881722D01*
X207301505Y-55920760D01*
X207292446Y-55925376D01*
X207292440Y-55925380D01*
X207238282Y-55964727D01*
X207238282Y-55964728D01*
X207870591Y-56597037D01*
X207807007Y-56614075D01*
X207692993Y-56679901D01*
X207599901Y-56772993D01*
X207534075Y-56887007D01*
X207517037Y-56950591D01*
X206884728Y-56318282D01*
X206884727Y-56318282D01*
X206845380Y-56372440D01*
X206840483Y-56382051D01*
X206837573Y-56385131D01*
X206836518Y-56389233D01*
X206813791Y-56410309D01*
X206792506Y-56432845D01*
X206788394Y-56433863D01*
X206785288Y-56436744D01*
X206754771Y-56442188D01*
X206724684Y-56449638D01*
X206720673Y-56448271D01*
X206716505Y-56449015D01*
X206687897Y-56437100D01*
X206658550Y-56427098D01*
X206654803Y-56423317D01*
X206652006Y-56422152D01*
X206644641Y-56413061D01*
X206628006Y-56396273D01*
X206549821Y-56283195D01*
X206539292Y-56251354D01*
X206528017Y-56219753D01*
X206528358Y-56218285D01*
X206527886Y-56216858D01*
X206536243Y-56184378D01*
X206543843Y-56151699D01*
X206545066Y-56150088D01*
X206545297Y-56149193D01*
X206546820Y-56147779D01*
X206564130Y-56124997D01*
X207044637Y-55644490D01*
X207105958Y-55611007D01*
X207175650Y-55615991D01*
G37*
%TD.AperFunction*%
%TA.AperFunction,Conductor*%
G36*
X204524040Y-52989783D02*
G01*
X204568388Y-53018284D01*
X204580213Y-53030109D01*
X204752182Y-53155050D01*
X204760946Y-53159516D01*
X204811742Y-53207491D01*
X204828536Y-53275312D01*
X204805998Y-53341447D01*
X204760946Y-53380484D01*
X204752182Y-53384949D01*
X204580213Y-53509890D01*
X204429890Y-53660213D01*
X204304951Y-53832179D01*
X204208444Y-54021585D01*
X204142753Y-54223760D01*
X204130599Y-54300499D01*
X204109500Y-54433713D01*
X204109500Y-54646287D01*
X204142754Y-54856243D01*
X204149883Y-54878183D01*
X204151878Y-54948022D01*
X204115798Y-55007855D01*
X204053098Y-55038684D01*
X204031952Y-55040500D01*
X202574681Y-55040500D01*
X202507642Y-55020815D01*
X202461887Y-54968011D01*
X202451943Y-54898853D01*
X202480968Y-54835297D01*
X202527229Y-54801939D01*
X202602461Y-54770777D01*
X202602462Y-54770776D01*
X202602465Y-54770775D01*
X202717197Y-54694114D01*
X204393026Y-53018283D01*
X204454349Y-52984799D01*
X204524040Y-52989783D01*
G37*
%TD.AperFunction*%
%TA.AperFunction,Conductor*%
G36*
X211342825Y-38520185D02*
G01*
X211388580Y-38572989D01*
X211399786Y-38624500D01*
X211399786Y-69375500D01*
X211380101Y-69442539D01*
X211327297Y-69488294D01*
X211275786Y-69499500D01*
X160974786Y-69499500D01*
X160907747Y-69479815D01*
X160861992Y-69427011D01*
X160850786Y-69375500D01*
X160850786Y-55857135D01*
X169794786Y-55857135D01*
X169794786Y-57452870D01*
X169794787Y-57452876D01*
X169801194Y-57512483D01*
X169851488Y-57647328D01*
X169851492Y-57647335D01*
X169937738Y-57762544D01*
X169937741Y-57762547D01*
X170052950Y-57848793D01*
X170052957Y-57848797D01*
X170187803Y-57899091D01*
X170187802Y-57899091D01*
X170194730Y-57899835D01*
X170247413Y-57905500D01*
X171393158Y-57905499D01*
X171452769Y-57899091D01*
X171587617Y-57848796D01*
X171588716Y-57847972D01*
X171590003Y-57847492D01*
X171595398Y-57844547D01*
X171595821Y-57845322D01*
X171654173Y-57823552D01*
X171710484Y-57832673D01*
X171791159Y-57866091D01*
X171957063Y-57899091D01*
X171989278Y-57905499D01*
X171989282Y-57905500D01*
X171989283Y-57905500D01*
X172191290Y-57905500D01*
X172191291Y-57905499D01*
X172389413Y-57866091D01*
X172576042Y-57788786D01*
X172656396Y-57735094D01*
X172723072Y-57714217D01*
X172790452Y-57732701D01*
X172794151Y-57735078D01*
X172874530Y-57788786D01*
X173061159Y-57866091D01*
X173227063Y-57899091D01*
X173259278Y-57905499D01*
X173259282Y-57905500D01*
X173259283Y-57905500D01*
X173461290Y-57905500D01*
X173461291Y-57905499D01*
X173659413Y-57866091D01*
X173846042Y-57788786D01*
X174014004Y-57676558D01*
X174156844Y-57533718D01*
X174269072Y-57365756D01*
X174346377Y-57179127D01*
X174385786Y-56981003D01*
X174385786Y-56328997D01*
X174346377Y-56130873D01*
X174269072Y-55944244D01*
X174269070Y-55944241D01*
X174269067Y-55944235D01*
X174254676Y-55922698D01*
X174254675Y-55922696D01*
X174210869Y-55857135D01*
X175544786Y-55857135D01*
X175544786Y-57452870D01*
X175544787Y-57452876D01*
X175551194Y-57512483D01*
X175601488Y-57647328D01*
X175601492Y-57647335D01*
X175687738Y-57762544D01*
X175687741Y-57762547D01*
X175802950Y-57848793D01*
X175802957Y-57848797D01*
X175937803Y-57899091D01*
X175937802Y-57899091D01*
X175944730Y-57899835D01*
X175997413Y-57905500D01*
X177143158Y-57905499D01*
X177202769Y-57899091D01*
X177337617Y-57848796D01*
X177338716Y-57847972D01*
X177340003Y-57847492D01*
X177345398Y-57844547D01*
X177345821Y-57845322D01*
X177404173Y-57823552D01*
X177460484Y-57832673D01*
X177541159Y-57866091D01*
X177707063Y-57899091D01*
X177739278Y-57905499D01*
X177739282Y-57905500D01*
X177739283Y-57905500D01*
X177941290Y-57905500D01*
X177941291Y-57905499D01*
X178139413Y-57866091D01*
X178326042Y-57788786D01*
X178406396Y-57735094D01*
X178473072Y-57714217D01*
X178540452Y-57732701D01*
X178544151Y-57735078D01*
X178624530Y-57788786D01*
X178811159Y-57866091D01*
X178977063Y-57899091D01*
X179009278Y-57905499D01*
X179009282Y-57905500D01*
X179009283Y-57905500D01*
X179211290Y-57905500D01*
X179211291Y-57905499D01*
X179409413Y-57866091D01*
X179596042Y-57788786D01*
X179764004Y-57676558D01*
X179906844Y-57533718D01*
X180019072Y-57365756D01*
X180096377Y-57179127D01*
X180135786Y-56981003D01*
X180135786Y-56776759D01*
X186593567Y-56776759D01*
X186593567Y-56934452D01*
X186624328Y-57089095D01*
X186624331Y-57089107D01*
X186684671Y-57234782D01*
X186684672Y-57234784D01*
X186684673Y-57234785D01*
X186721973Y-57290609D01*
X186743791Y-57323261D01*
X186764669Y-57389939D01*
X186764689Y-57392152D01*
X186764689Y-57553749D01*
X186795450Y-57708392D01*
X186795453Y-57708404D01*
X186855791Y-57854075D01*
X186855798Y-57854088D01*
X186943399Y-57985191D01*
X186943402Y-57985195D01*
X187054896Y-58096689D01*
X187054900Y-58096692D01*
X187186003Y-58184293D01*
X187186016Y-58184300D01*
X187319321Y-58239516D01*
X187331692Y-58244640D01*
X187486342Y-58275402D01*
X187486345Y-58275403D01*
X187486347Y-58275403D01*
X187644033Y-58275403D01*
X187644034Y-58275402D01*
X187798686Y-58244640D01*
X187944368Y-58184297D01*
X188075478Y-58096692D01*
X188186978Y-57985192D01*
X188229768Y-57921153D01*
X201199500Y-57921153D01*
X201199500Y-58078846D01*
X201230261Y-58233489D01*
X201230264Y-58233501D01*
X201290602Y-58379172D01*
X201290609Y-58379185D01*
X201378210Y-58510288D01*
X201378213Y-58510292D01*
X201489707Y-58621786D01*
X201489711Y-58621789D01*
X201620814Y-58709390D01*
X201620827Y-58709397D01*
X201766498Y-58769735D01*
X201766503Y-58769737D01*
X201921153Y-58800499D01*
X201921156Y-58800500D01*
X201921158Y-58800500D01*
X202078844Y-58800500D01*
X202078845Y-58800499D01*
X202233497Y-58769737D01*
X202379179Y-58709394D01*
X202510289Y-58621789D01*
X202621789Y-58510289D01*
X202709394Y-58379179D01*
X202769737Y-58233497D01*
X202779524Y-58184293D01*
X202791554Y-58123819D01*
X202791554Y-58123818D01*
X202800499Y-58078846D01*
X202800500Y-58078844D01*
X202800500Y-57921155D01*
X202800499Y-57921153D01*
X202796111Y-57899091D01*
X202769737Y-57766503D01*
X202768097Y-57762544D01*
X202709397Y-57620827D01*
X202709390Y-57620814D01*
X202621789Y-57489711D01*
X202621786Y-57489707D01*
X202510292Y-57378213D01*
X202510288Y-57378210D01*
X202379185Y-57290609D01*
X202379172Y-57290602D01*
X202233501Y-57230264D01*
X202233489Y-57230261D01*
X202078845Y-57199500D01*
X202078842Y-57199500D01*
X201921158Y-57199500D01*
X201921155Y-57199500D01*
X201766510Y-57230261D01*
X201766498Y-57230264D01*
X201620827Y-57290602D01*
X201620814Y-57290609D01*
X201489711Y-57378210D01*
X201489707Y-57378213D01*
X201378213Y-57489707D01*
X201378210Y-57489711D01*
X201290609Y-57620814D01*
X201290602Y-57620827D01*
X201230264Y-57766498D01*
X201230261Y-57766510D01*
X201199500Y-57921153D01*
X188229768Y-57921153D01*
X188274583Y-57854082D01*
X188305846Y-57778603D01*
X188306046Y-57778135D01*
X188327873Y-57751548D01*
X188349448Y-57724776D01*
X188350183Y-57724374D01*
X188350381Y-57724134D01*
X188350974Y-57723942D01*
X188372714Y-57712071D01*
X188379179Y-57709394D01*
X188379182Y-57709391D01*
X188379184Y-57709391D01*
X188428321Y-57676558D01*
X188510289Y-57621789D01*
X188621789Y-57510289D01*
X188709394Y-57379179D01*
X188714952Y-57365762D01*
X188732556Y-57323261D01*
X188769737Y-57233497D01*
X188800500Y-57078842D01*
X188800500Y-56921158D01*
X188800500Y-56921155D01*
X188800499Y-56921153D01*
X188790679Y-56871786D01*
X188769737Y-56766503D01*
X188733866Y-56679901D01*
X188709397Y-56620827D01*
X188709390Y-56620814D01*
X188621789Y-56489711D01*
X188621786Y-56489707D01*
X188510292Y-56378213D01*
X188510288Y-56378210D01*
X188379185Y-56290609D01*
X188379172Y-56290602D01*
X188233501Y-56230264D01*
X188233489Y-56230261D01*
X188078845Y-56199500D01*
X188078842Y-56199500D01*
X187921158Y-56199500D01*
X187921152Y-56199500D01*
X187918992Y-56199930D01*
X187917840Y-56199826D01*
X187915096Y-56200097D01*
X187915044Y-56199576D01*
X187849402Y-56193693D01*
X187825929Y-56181412D01*
X187773254Y-56146217D01*
X187773250Y-56146215D01*
X187773246Y-56146212D01*
X187773242Y-56146210D01*
X187773238Y-56146208D01*
X187627568Y-56085870D01*
X187627556Y-56085867D01*
X187472912Y-56055106D01*
X187472909Y-56055106D01*
X187315225Y-56055106D01*
X187315222Y-56055106D01*
X187160577Y-56085867D01*
X187160565Y-56085870D01*
X187014894Y-56146208D01*
X187014881Y-56146215D01*
X186883778Y-56233816D01*
X186883774Y-56233819D01*
X186772280Y-56345313D01*
X186772277Y-56345317D01*
X186684676Y-56476420D01*
X186684669Y-56476433D01*
X186624331Y-56622104D01*
X186624328Y-56622116D01*
X186593567Y-56776759D01*
X180135786Y-56776759D01*
X180135786Y-56328997D01*
X180096377Y-56130873D01*
X180019072Y-55944244D01*
X180019070Y-55944241D01*
X180019068Y-55944237D01*
X179906844Y-55776281D01*
X179764004Y-55633441D01*
X179596048Y-55521217D01*
X179596038Y-55521212D01*
X179409413Y-55443909D01*
X179409405Y-55443907D01*
X179211293Y-55404500D01*
X179211289Y-55404500D01*
X179009283Y-55404500D01*
X179009278Y-55404500D01*
X178811166Y-55443907D01*
X178811158Y-55443909D01*
X178624530Y-55521213D01*
X178585257Y-55547455D01*
X178551361Y-55570104D01*
X178544177Y-55574904D01*
X178477499Y-55595782D01*
X178410119Y-55577297D01*
X178406395Y-55574904D01*
X178399211Y-55570104D01*
X178365310Y-55547452D01*
X178326041Y-55521213D01*
X178139413Y-55443909D01*
X178139405Y-55443907D01*
X177941293Y-55404500D01*
X177941289Y-55404500D01*
X177739283Y-55404500D01*
X177739278Y-55404500D01*
X177541166Y-55443907D01*
X177541154Y-55443910D01*
X177460484Y-55477325D01*
X177391015Y-55484794D01*
X177345628Y-55465036D01*
X177345400Y-55465454D01*
X177340733Y-55462905D01*
X177338718Y-55462028D01*
X177337617Y-55461204D01*
X177337616Y-55461203D01*
X177337614Y-55461202D01*
X177202768Y-55410908D01*
X177202769Y-55410908D01*
X177143169Y-55404501D01*
X177143167Y-55404500D01*
X177143159Y-55404500D01*
X177143150Y-55404500D01*
X175997415Y-55404500D01*
X175997409Y-55404501D01*
X175937802Y-55410908D01*
X175802957Y-55461202D01*
X175802950Y-55461206D01*
X175687741Y-55547452D01*
X175687738Y-55547455D01*
X175601492Y-55662664D01*
X175601488Y-55662671D01*
X175551194Y-55797517D01*
X175544787Y-55857116D01*
X175544786Y-55857135D01*
X174210869Y-55857135D01*
X174156847Y-55776286D01*
X174156841Y-55776278D01*
X174014004Y-55633441D01*
X173846048Y-55521217D01*
X173846038Y-55521212D01*
X173659413Y-55443909D01*
X173659405Y-55443907D01*
X173461293Y-55404500D01*
X173461289Y-55404500D01*
X173259283Y-55404500D01*
X173259278Y-55404500D01*
X173061166Y-55443907D01*
X173061158Y-55443909D01*
X172874530Y-55521213D01*
X172835257Y-55547455D01*
X172801361Y-55570104D01*
X172794177Y-55574904D01*
X172727499Y-55595782D01*
X172660119Y-55577297D01*
X172656395Y-55574904D01*
X172649211Y-55570104D01*
X172615310Y-55547452D01*
X172576041Y-55521213D01*
X172389413Y-55443909D01*
X172389405Y-55443907D01*
X172191293Y-55404500D01*
X172191289Y-55404500D01*
X171989283Y-55404500D01*
X171989278Y-55404500D01*
X171791166Y-55443907D01*
X171791154Y-55443910D01*
X171710484Y-55477325D01*
X171641015Y-55484794D01*
X171595628Y-55465036D01*
X171595400Y-55465454D01*
X171590733Y-55462905D01*
X171588718Y-55462028D01*
X171587617Y-55461204D01*
X171587616Y-55461203D01*
X171587614Y-55461202D01*
X171452768Y-55410908D01*
X171452769Y-55410908D01*
X171393169Y-55404501D01*
X171393167Y-55404500D01*
X171393159Y-55404500D01*
X171393150Y-55404500D01*
X170247415Y-55404500D01*
X170247409Y-55404501D01*
X170187802Y-55410908D01*
X170052957Y-55461202D01*
X170052950Y-55461206D01*
X169937741Y-55547452D01*
X169937738Y-55547455D01*
X169851492Y-55662664D01*
X169851488Y-55662671D01*
X169801194Y-55797517D01*
X169794787Y-55857116D01*
X169794786Y-55857135D01*
X160850786Y-55857135D01*
X160850786Y-54921153D01*
X186199500Y-54921153D01*
X186199500Y-55078846D01*
X186230261Y-55233489D01*
X186230264Y-55233501D01*
X186290602Y-55379172D01*
X186290609Y-55379185D01*
X186378210Y-55510288D01*
X186378213Y-55510292D01*
X186489707Y-55621786D01*
X186489711Y-55621789D01*
X186620814Y-55709390D01*
X186620827Y-55709397D01*
X186758683Y-55766498D01*
X186766503Y-55769737D01*
X186876199Y-55791557D01*
X186921153Y-55800499D01*
X186921156Y-55800500D01*
X186921158Y-55800500D01*
X187078844Y-55800500D01*
X187078845Y-55800499D01*
X187233497Y-55769737D01*
X187379179Y-55709394D01*
X187510289Y-55621789D01*
X187621789Y-55510289D01*
X187709394Y-55379179D01*
X187769737Y-55233497D01*
X187800500Y-55078842D01*
X187800500Y-54921158D01*
X187800500Y-54921155D01*
X187800499Y-54921153D01*
X187791951Y-54878181D01*
X187769737Y-54766503D01*
X187769735Y-54766498D01*
X187709397Y-54620827D01*
X187709390Y-54620814D01*
X187621789Y-54489711D01*
X187621786Y-54489707D01*
X187510292Y-54378213D01*
X187510288Y-54378210D01*
X187379185Y-54290609D01*
X187379172Y-54290602D01*
X187233501Y-54230264D01*
X187233489Y-54230261D01*
X187078845Y-54199500D01*
X187078842Y-54199500D01*
X186921158Y-54199500D01*
X186921155Y-54199500D01*
X186766510Y-54230261D01*
X186766498Y-54230264D01*
X186620827Y-54290602D01*
X186620814Y-54290609D01*
X186489711Y-54378210D01*
X186489707Y-54378213D01*
X186378213Y-54489707D01*
X186378210Y-54489711D01*
X186290609Y-54620814D01*
X186290602Y-54620827D01*
X186230264Y-54766498D01*
X186230261Y-54766510D01*
X186199500Y-54921153D01*
X160850786Y-54921153D01*
X160850786Y-52721153D01*
X182599500Y-52721153D01*
X182599500Y-52878846D01*
X182630261Y-53033489D01*
X182630264Y-53033501D01*
X182690602Y-53179172D01*
X182690609Y-53179185D01*
X182778210Y-53310288D01*
X182778213Y-53310292D01*
X182889707Y-53421786D01*
X182889711Y-53421789D01*
X183020814Y-53509390D01*
X183020827Y-53509397D01*
X183116340Y-53548959D01*
X183166503Y-53569737D01*
X183321153Y-53600499D01*
X183321156Y-53600500D01*
X183321158Y-53600500D01*
X183478844Y-53600500D01*
X183478845Y-53600499D01*
X183633497Y-53569737D01*
X183779179Y-53509394D01*
X183910289Y-53421789D01*
X183910925Y-53421153D01*
X192199500Y-53421153D01*
X192199500Y-53578846D01*
X192230261Y-53733489D01*
X192230264Y-53733501D01*
X192290602Y-53879172D01*
X192290609Y-53879185D01*
X192378210Y-54010288D01*
X192378213Y-54010292D01*
X192489707Y-54121786D01*
X192489711Y-54121789D01*
X192620814Y-54209390D01*
X192620827Y-54209397D01*
X192687031Y-54236819D01*
X192766503Y-54269737D01*
X192921153Y-54300499D01*
X192921156Y-54300500D01*
X192921158Y-54300500D01*
X193078844Y-54300500D01*
X193078845Y-54300499D01*
X193233497Y-54269737D01*
X193328794Y-54230264D01*
X193377864Y-54209939D01*
X193425316Y-54200500D01*
X196087827Y-54200500D01*
X196154866Y-54220185D01*
X196175508Y-54236819D01*
X196547322Y-54608633D01*
X196580807Y-54669956D01*
X196575823Y-54739648D01*
X196533951Y-54795581D01*
X196528538Y-54799412D01*
X196528171Y-54799657D01*
X196528164Y-54799663D01*
X196416673Y-54911153D01*
X196416670Y-54911157D01*
X196329069Y-55042260D01*
X196329064Y-55042269D01*
X196267681Y-55190463D01*
X196223840Y-55244866D01*
X196200573Y-55257571D01*
X196120824Y-55290604D01*
X196120814Y-55290609D01*
X195989711Y-55378210D01*
X195989707Y-55378213D01*
X195878213Y-55489707D01*
X195878210Y-55489711D01*
X195790609Y-55620814D01*
X195790602Y-55620827D01*
X195730264Y-55766498D01*
X195730261Y-55766510D01*
X195699500Y-55921153D01*
X195699500Y-56078846D01*
X195730261Y-56233489D01*
X195730264Y-56233501D01*
X195790602Y-56379172D01*
X195790609Y-56379185D01*
X195878210Y-56510288D01*
X195878213Y-56510292D01*
X195989707Y-56621786D01*
X195989711Y-56621789D01*
X196120814Y-56709390D01*
X196120827Y-56709397D01*
X196258683Y-56766498D01*
X196266503Y-56769737D01*
X196411450Y-56798569D01*
X196421153Y-56800499D01*
X196421156Y-56800500D01*
X196421158Y-56800500D01*
X196578842Y-56800500D01*
X196588548Y-56798569D01*
X196658138Y-56804792D01*
X196700427Y-56832505D01*
X196739707Y-56871786D01*
X196739711Y-56871789D01*
X196870814Y-56959390D01*
X196870827Y-56959397D01*
X197016498Y-57019735D01*
X197016503Y-57019737D01*
X197171153Y-57050499D01*
X197171156Y-57050500D01*
X197171158Y-57050500D01*
X197328844Y-57050500D01*
X197328845Y-57050499D01*
X197483497Y-57019737D01*
X197629179Y-56959394D01*
X197760289Y-56871789D01*
X197871789Y-56760289D01*
X197959394Y-56629179D01*
X197962323Y-56622109D01*
X197979764Y-56580000D01*
X198019737Y-56483497D01*
X198042304Y-56370044D01*
X198074688Y-56308134D01*
X198135404Y-56273560D01*
X198205173Y-56277299D01*
X198232811Y-56291133D01*
X198338538Y-56361777D01*
X198455707Y-56410309D01*
X198466018Y-56414580D01*
X198466022Y-56414580D01*
X198466023Y-56414581D01*
X198601349Y-56441500D01*
X204077315Y-56441500D01*
X204144354Y-56461185D01*
X204190109Y-56513989D01*
X204200053Y-56583147D01*
X204195246Y-56603818D01*
X204143242Y-56763869D01*
X204143242Y-56763872D01*
X204110000Y-56973753D01*
X204110000Y-57186246D01*
X204143242Y-57396127D01*
X204143242Y-57396130D01*
X204208904Y-57598217D01*
X204305375Y-57787550D01*
X204344728Y-57841716D01*
X204977036Y-57209407D01*
X204994075Y-57272993D01*
X205059901Y-57387007D01*
X205152993Y-57480099D01*
X205267007Y-57545925D01*
X205330591Y-57562962D01*
X204729971Y-58163581D01*
X204808711Y-58280895D01*
X204809920Y-58284729D01*
X204812844Y-58287491D01*
X204820343Y-58317778D01*
X204829727Y-58347529D01*
X204828671Y-58351408D01*
X204829638Y-58355312D01*
X204819573Y-58384844D01*
X204811383Y-58414947D01*
X204808397Y-58417640D01*
X204807100Y-58421447D01*
X204762051Y-58460483D01*
X204752440Y-58465380D01*
X204698282Y-58504727D01*
X204698282Y-58504728D01*
X205330591Y-59137037D01*
X205267007Y-59154075D01*
X205152993Y-59219901D01*
X205059901Y-59312993D01*
X204994075Y-59427007D01*
X204977037Y-59490591D01*
X204344728Y-58858282D01*
X204344727Y-58858282D01*
X204305380Y-58912439D01*
X204208904Y-59101782D01*
X204143242Y-59303869D01*
X204143242Y-59303872D01*
X204110000Y-59513753D01*
X204110000Y-59726246D01*
X204143242Y-59936127D01*
X204143242Y-59936130D01*
X204208904Y-60138217D01*
X204305375Y-60327550D01*
X204344728Y-60381716D01*
X204977037Y-59749408D01*
X204994075Y-59812993D01*
X205059901Y-59927007D01*
X205152993Y-60020099D01*
X205267007Y-60085925D01*
X205330590Y-60102962D01*
X204698282Y-60735269D01*
X204698282Y-60735270D01*
X204752452Y-60774626D01*
X204752451Y-60774626D01*
X204761495Y-60779234D01*
X204812292Y-60827208D01*
X204829087Y-60895029D01*
X204806550Y-60961164D01*
X204761499Y-61000202D01*
X204752182Y-61004949D01*
X204580213Y-61129890D01*
X204429890Y-61280213D01*
X204304951Y-61452179D01*
X204208444Y-61641585D01*
X204142753Y-61843760D01*
X204109500Y-62053713D01*
X204109500Y-62266286D01*
X204142753Y-62476239D01*
X204208444Y-62678414D01*
X204304951Y-62867820D01*
X204429890Y-63039786D01*
X204580213Y-63190109D01*
X204752179Y-63315048D01*
X204752181Y-63315049D01*
X204752184Y-63315051D01*
X204941588Y-63411557D01*
X205143757Y-63477246D01*
X205353713Y-63510500D01*
X205353714Y-63510500D01*
X205566286Y-63510500D01*
X205566287Y-63510500D01*
X205776243Y-63477246D01*
X205978412Y-63411557D01*
X206167816Y-63315051D01*
X206189789Y-63299086D01*
X206339786Y-63190109D01*
X206339788Y-63190106D01*
X206339792Y-63190104D01*
X206490104Y-63039792D01*
X206490106Y-63039788D01*
X206490109Y-63039786D01*
X206615048Y-62867820D01*
X206615047Y-62867820D01*
X206615051Y-62867816D01*
X206619514Y-62859054D01*
X206667488Y-62808259D01*
X206735308Y-62791463D01*
X206801444Y-62813999D01*
X206840486Y-62859056D01*
X206844951Y-62867820D01*
X206969890Y-63039786D01*
X207120213Y-63190109D01*
X207292179Y-63315048D01*
X207292181Y-63315049D01*
X207292184Y-63315051D01*
X207481588Y-63411557D01*
X207683757Y-63477246D01*
X207893713Y-63510500D01*
X207893714Y-63510500D01*
X208106286Y-63510500D01*
X208106287Y-63510500D01*
X208316243Y-63477246D01*
X208518412Y-63411557D01*
X208707816Y-63315051D01*
X208729789Y-63299086D01*
X208879786Y-63190109D01*
X208879788Y-63190106D01*
X208879792Y-63190104D01*
X209030104Y-63039792D01*
X209030106Y-63039788D01*
X209030109Y-63039786D01*
X209155048Y-62867820D01*
X209155047Y-62867820D01*
X209155051Y-62867816D01*
X209251557Y-62678412D01*
X209317246Y-62476243D01*
X209350500Y-62266287D01*
X209350500Y-62053713D01*
X209317246Y-61843757D01*
X209251557Y-61641588D01*
X209155051Y-61452184D01*
X209155049Y-61452181D01*
X209155048Y-61452179D01*
X209030109Y-61280213D01*
X208879786Y-61129890D01*
X208707817Y-61004949D01*
X208698504Y-61000204D01*
X208647707Y-60952230D01*
X208630912Y-60884409D01*
X208653449Y-60818274D01*
X208698507Y-60779232D01*
X208707555Y-60774622D01*
X208761716Y-60735270D01*
X208761717Y-60735270D01*
X208129408Y-60102962D01*
X208192993Y-60085925D01*
X208307007Y-60020099D01*
X208400099Y-59927007D01*
X208465925Y-59812993D01*
X208482962Y-59749409D01*
X209115270Y-60381717D01*
X209115270Y-60381716D01*
X209154622Y-60327554D01*
X209251095Y-60138217D01*
X209316757Y-59936130D01*
X209316757Y-59936127D01*
X209350000Y-59726246D01*
X209350000Y-59513753D01*
X209316757Y-59303872D01*
X209316757Y-59303869D01*
X209251095Y-59101782D01*
X209154624Y-58912449D01*
X209115270Y-58858282D01*
X209115269Y-58858282D01*
X208482962Y-59490590D01*
X208465925Y-59427007D01*
X208400099Y-59312993D01*
X208307007Y-59219901D01*
X208192993Y-59154075D01*
X208129409Y-59137037D01*
X208761716Y-58504728D01*
X208707550Y-58465375D01*
X208697954Y-58460486D01*
X208647157Y-58412512D01*
X208630361Y-58344692D01*
X208652897Y-58278556D01*
X208697954Y-58239514D01*
X208707554Y-58234622D01*
X208761716Y-58195270D01*
X208761717Y-58195270D01*
X208129408Y-57562962D01*
X208192993Y-57545925D01*
X208307007Y-57480099D01*
X208400099Y-57387007D01*
X208465925Y-57272993D01*
X208482962Y-57209409D01*
X209115270Y-57841717D01*
X209115270Y-57841716D01*
X209154622Y-57787554D01*
X209251095Y-57598217D01*
X209316757Y-57396130D01*
X209316757Y-57396127D01*
X209350000Y-57186246D01*
X209350000Y-56973753D01*
X209316757Y-56763872D01*
X209316757Y-56763869D01*
X209251095Y-56561782D01*
X209154624Y-56372449D01*
X209115270Y-56318282D01*
X209115269Y-56318282D01*
X208482962Y-56950590D01*
X208465925Y-56887007D01*
X208400099Y-56772993D01*
X208307007Y-56679901D01*
X208192993Y-56614075D01*
X208129409Y-56597037D01*
X208761716Y-55964728D01*
X208707547Y-55925373D01*
X208707547Y-55925372D01*
X208698500Y-55920763D01*
X208647706Y-55872788D01*
X208630912Y-55804966D01*
X208653451Y-55738832D01*
X208698508Y-55699793D01*
X208707816Y-55695051D01*
X208792614Y-55633442D01*
X208879786Y-55570109D01*
X208879788Y-55570106D01*
X208879792Y-55570104D01*
X209030104Y-55419792D01*
X209030106Y-55419788D01*
X209030109Y-55419786D01*
X209155048Y-55247820D01*
X209155047Y-55247820D01*
X209155051Y-55247816D01*
X209251557Y-55058412D01*
X209317246Y-54856243D01*
X209350500Y-54646287D01*
X209350500Y-54433713D01*
X209317246Y-54223757D01*
X209251557Y-54021588D01*
X209155051Y-53832184D01*
X209155049Y-53832181D01*
X209155048Y-53832179D01*
X209030109Y-53660213D01*
X208879786Y-53509890D01*
X208707820Y-53384951D01*
X208707115Y-53384591D01*
X208699054Y-53380485D01*
X208648259Y-53332512D01*
X208631463Y-53264692D01*
X208653999Y-53198556D01*
X208699054Y-53159515D01*
X208707816Y-53155051D01*
X208754940Y-53120814D01*
X208879786Y-53030109D01*
X208879788Y-53030106D01*
X208879792Y-53030104D01*
X209030104Y-52879792D01*
X209030106Y-52879788D01*
X209030109Y-52879786D01*
X209155048Y-52707820D01*
X209155047Y-52707820D01*
X209155051Y-52707816D01*
X209251557Y-52518412D01*
X209317246Y-52316243D01*
X209350500Y-52106287D01*
X209350500Y-51893713D01*
X209317246Y-51683757D01*
X209251557Y-51481588D01*
X209155051Y-51292184D01*
X209155049Y-51292181D01*
X209155048Y-51292179D01*
X209030109Y-51120213D01*
X208879786Y-50969890D01*
X208707820Y-50844951D01*
X208707115Y-50844591D01*
X208699054Y-50840485D01*
X208648259Y-50792512D01*
X208631463Y-50724692D01*
X208653999Y-50658556D01*
X208699054Y-50619515D01*
X208707816Y-50615051D01*
X208757654Y-50578842D01*
X208879786Y-50490109D01*
X208879788Y-50490106D01*
X208879792Y-50490104D01*
X209030104Y-50339792D01*
X209030106Y-50339788D01*
X209030109Y-50339786D01*
X209145628Y-50180786D01*
X209155051Y-50167816D01*
X209251557Y-49978412D01*
X209317246Y-49776243D01*
X209350500Y-49566287D01*
X209350500Y-49353713D01*
X209317246Y-49143757D01*
X209251557Y-48941588D01*
X209155051Y-48752184D01*
X209155049Y-48752181D01*
X209155048Y-48752179D01*
X209030109Y-48580213D01*
X208879786Y-48429890D01*
X208707820Y-48304951D01*
X208707115Y-48304591D01*
X208699054Y-48300485D01*
X208648259Y-48252512D01*
X208631463Y-48184692D01*
X208653999Y-48118556D01*
X208699054Y-48079515D01*
X208707816Y-48075051D01*
X208729789Y-48059086D01*
X208879786Y-47950109D01*
X208879788Y-47950106D01*
X208879792Y-47950104D01*
X209030104Y-47799792D01*
X209030106Y-47799788D01*
X209030109Y-47799786D01*
X209155048Y-47627820D01*
X209155047Y-47627820D01*
X209155051Y-47627816D01*
X209251557Y-47438412D01*
X209317246Y-47236243D01*
X209350500Y-47026287D01*
X209350500Y-46813713D01*
X209317246Y-46603757D01*
X209251557Y-46401588D01*
X209155051Y-46212184D01*
X209155049Y-46212181D01*
X209155048Y-46212179D01*
X209030109Y-46040213D01*
X208879786Y-45889890D01*
X208707820Y-45764951D01*
X208707115Y-45764591D01*
X208699054Y-45760485D01*
X208648259Y-45712512D01*
X208631463Y-45644692D01*
X208653999Y-45578556D01*
X208699054Y-45539515D01*
X208707816Y-45535051D01*
X208794138Y-45472335D01*
X208879786Y-45410109D01*
X208879788Y-45410106D01*
X208879792Y-45410104D01*
X209030104Y-45259792D01*
X209030106Y-45259788D01*
X209030109Y-45259786D01*
X209155048Y-45087820D01*
X209155047Y-45087820D01*
X209155051Y-45087816D01*
X209251557Y-44898412D01*
X209317246Y-44696243D01*
X209350500Y-44486287D01*
X209350500Y-44273713D01*
X209317246Y-44063757D01*
X209251557Y-43861588D01*
X209155051Y-43672184D01*
X209155049Y-43672181D01*
X209155048Y-43672179D01*
X209030109Y-43500213D01*
X208879786Y-43349890D01*
X208707820Y-43224951D01*
X208518414Y-43128444D01*
X208518413Y-43128443D01*
X208518412Y-43128443D01*
X208316243Y-43062754D01*
X208316241Y-43062753D01*
X208316240Y-43062753D01*
X208154957Y-43037208D01*
X208106287Y-43029500D01*
X207893713Y-43029500D01*
X207845042Y-43037208D01*
X207683760Y-43062753D01*
X207481585Y-43128444D01*
X207292179Y-43224951D01*
X207120215Y-43349889D01*
X207006673Y-43463431D01*
X206945350Y-43496915D01*
X206875658Y-43491931D01*
X206819725Y-43450059D01*
X206802810Y-43419082D01*
X206753797Y-43287671D01*
X206753793Y-43287664D01*
X206667547Y-43172455D01*
X206667544Y-43172452D01*
X206552335Y-43086206D01*
X206552328Y-43086202D01*
X206417482Y-43035908D01*
X206417483Y-43035908D01*
X206357883Y-43029501D01*
X206357881Y-43029500D01*
X206357873Y-43029500D01*
X206357864Y-43029500D01*
X204562129Y-43029500D01*
X204562123Y-43029501D01*
X204502516Y-43035908D01*
X204367671Y-43086202D01*
X204367664Y-43086206D01*
X204252455Y-43172452D01*
X204252452Y-43172455D01*
X204166206Y-43287664D01*
X204166202Y-43287671D01*
X204115908Y-43422517D01*
X204109501Y-43482116D01*
X204109500Y-43482135D01*
X204109500Y-45277870D01*
X204109501Y-45277876D01*
X204115908Y-45337483D01*
X204166202Y-45472328D01*
X204166206Y-45472335D01*
X204252452Y-45587544D01*
X204252455Y-45587547D01*
X204367664Y-45673793D01*
X204367671Y-45673797D01*
X204499082Y-45722810D01*
X204555016Y-45764681D01*
X204579433Y-45830145D01*
X204564582Y-45898418D01*
X204543431Y-45926673D01*
X204429889Y-46040215D01*
X204304951Y-46212179D01*
X204208444Y-46401585D01*
X204142753Y-46603760D01*
X204109500Y-46813713D01*
X204109500Y-47026286D01*
X204142753Y-47236239D01*
X204208444Y-47438414D01*
X204304951Y-47627820D01*
X204429890Y-47799786D01*
X204580213Y-47950109D01*
X204752182Y-48075050D01*
X204760946Y-48079516D01*
X204811742Y-48127491D01*
X204828536Y-48195312D01*
X204805998Y-48261447D01*
X204760946Y-48300484D01*
X204752182Y-48304949D01*
X204580213Y-48429890D01*
X204429890Y-48580213D01*
X204304951Y-48752179D01*
X204208444Y-48941585D01*
X204142753Y-49143760D01*
X204109500Y-49353713D01*
X204109500Y-49566286D01*
X204141210Y-49766498D01*
X204142754Y-49776243D01*
X204208443Y-49978412D01*
X204281000Y-50120814D01*
X204304951Y-50167819D01*
X204368144Y-50254798D01*
X204391624Y-50320604D01*
X204375798Y-50388658D01*
X204355507Y-50415364D01*
X203714888Y-51055982D01*
X203714887Y-51055983D01*
X203699614Y-51078842D01*
X203670918Y-51121789D01*
X203654515Y-51146337D01*
X203638223Y-51170720D01*
X203585421Y-51298196D01*
X203585418Y-51298206D01*
X203558500Y-51433533D01*
X203558500Y-51820134D01*
X203538815Y-51887173D01*
X203522181Y-51907815D01*
X203107122Y-52322873D01*
X203045799Y-52356358D01*
X202976107Y-52351374D01*
X202950550Y-52338294D01*
X202879185Y-52290609D01*
X202879172Y-52290602D01*
X202733501Y-52230264D01*
X202733489Y-52230261D01*
X202578845Y-52199500D01*
X202578842Y-52199500D01*
X202421158Y-52199500D01*
X202421155Y-52199500D01*
X202266510Y-52230261D01*
X202266498Y-52230264D01*
X202120827Y-52290602D01*
X202120814Y-52290609D01*
X201989711Y-52378210D01*
X201989707Y-52378213D01*
X201878213Y-52489707D01*
X201878210Y-52489711D01*
X201790609Y-52620814D01*
X201790602Y-52620827D01*
X201748302Y-52722952D01*
X201704462Y-52777356D01*
X201638167Y-52799421D01*
X201633741Y-52799500D01*
X199990518Y-52799500D01*
X199923479Y-52779815D01*
X199877724Y-52727011D01*
X199867780Y-52657853D01*
X199896805Y-52594297D01*
X199902837Y-52587819D01*
X201520766Y-50969890D01*
X203194586Y-49296069D01*
X203234810Y-49269192D01*
X203289435Y-49246566D01*
X203379173Y-49209397D01*
X203379176Y-49209395D01*
X203379179Y-49209394D01*
X203510289Y-49121789D01*
X203621789Y-49010289D01*
X203709394Y-48879179D01*
X203769737Y-48733497D01*
X203800500Y-48578842D01*
X203800500Y-48421158D01*
X203800500Y-48421155D01*
X203800499Y-48421153D01*
X203769737Y-48266503D01*
X203735850Y-48184692D01*
X203709397Y-48120827D01*
X203709390Y-48120814D01*
X203621789Y-47989711D01*
X203621786Y-47989707D01*
X203510292Y-47878213D01*
X203510288Y-47878210D01*
X203379185Y-47790609D01*
X203379172Y-47790602D01*
X203233501Y-47730264D01*
X203233489Y-47730261D01*
X203078845Y-47699500D01*
X203078842Y-47699500D01*
X202921158Y-47699500D01*
X202921155Y-47699500D01*
X202766510Y-47730261D01*
X202766498Y-47730264D01*
X202620827Y-47790602D01*
X202620814Y-47790609D01*
X202489711Y-47878210D01*
X202489707Y-47878213D01*
X202378213Y-47989707D01*
X202378210Y-47989711D01*
X202290609Y-48120814D01*
X202290604Y-48120823D01*
X202230809Y-48265184D01*
X202203929Y-48305412D01*
X198805412Y-51703929D01*
X198765184Y-51730809D01*
X198620823Y-51790604D01*
X198620814Y-51790609D01*
X198489711Y-51878210D01*
X198489707Y-51878213D01*
X198378213Y-51989707D01*
X198378210Y-51989711D01*
X198290609Y-52120814D01*
X198290602Y-52120827D01*
X198230264Y-52266498D01*
X198230261Y-52266510D01*
X198199500Y-52421153D01*
X198199500Y-52578846D01*
X198230261Y-52733489D01*
X198230264Y-52733501D01*
X198290602Y-52879172D01*
X198290609Y-52879185D01*
X198378210Y-53010288D01*
X198378213Y-53010292D01*
X198489707Y-53121786D01*
X198489711Y-53121789D01*
X198620816Y-53209391D01*
X198620817Y-53209391D01*
X198620821Y-53209394D01*
X198624551Y-53210939D01*
X198633326Y-53218010D01*
X198644138Y-53221185D01*
X198660039Y-53239536D01*
X198678954Y-53254778D01*
X198682513Y-53265473D01*
X198689893Y-53273989D01*
X198693349Y-53298026D01*
X198701020Y-53321072D01*
X198698233Y-53331991D01*
X198699837Y-53343147D01*
X198689747Y-53365239D01*
X198683742Y-53388771D01*
X198675494Y-53396450D01*
X198670812Y-53406703D01*
X198650380Y-53419833D01*
X198632606Y-53436383D01*
X198619989Y-53439364D01*
X198612034Y-53444477D01*
X198577099Y-53449500D01*
X198425316Y-53449500D01*
X198377864Y-53440061D01*
X198233501Y-53380264D01*
X198233489Y-53380261D01*
X198078845Y-53349500D01*
X198078842Y-53349500D01*
X197921158Y-53349500D01*
X197921155Y-53349500D01*
X197766510Y-53380261D01*
X197766498Y-53380264D01*
X197620827Y-53440602D01*
X197620814Y-53440609D01*
X197549449Y-53488295D01*
X197482772Y-53509173D01*
X197415392Y-53490689D01*
X197392877Y-53472874D01*
X196875892Y-52955888D01*
X196875891Y-52955887D01*
X196761153Y-52879222D01*
X196633678Y-52826421D01*
X196633668Y-52826418D01*
X196498342Y-52799500D01*
X196498340Y-52799500D01*
X196498339Y-52799500D01*
X193425316Y-52799500D01*
X193377864Y-52790061D01*
X193233501Y-52730264D01*
X193233489Y-52730261D01*
X193078845Y-52699500D01*
X193078842Y-52699500D01*
X192921158Y-52699500D01*
X192921155Y-52699500D01*
X192766510Y-52730261D01*
X192766498Y-52730264D01*
X192620827Y-52790602D01*
X192620814Y-52790609D01*
X192489711Y-52878210D01*
X192489707Y-52878213D01*
X192378213Y-52989707D01*
X192378210Y-52989711D01*
X192290609Y-53120814D01*
X192290602Y-53120827D01*
X192230264Y-53266498D01*
X192230261Y-53266510D01*
X192199500Y-53421153D01*
X183910925Y-53421153D01*
X183951817Y-53380261D01*
X184004694Y-53327385D01*
X184021786Y-53310292D01*
X184021789Y-53310289D01*
X184109394Y-53179179D01*
X184119389Y-53155050D01*
X184123067Y-53146166D01*
X184169737Y-53033497D01*
X184200500Y-52878842D01*
X184200500Y-52721158D01*
X184200500Y-52721155D01*
X184200499Y-52721153D01*
X184180543Y-52620827D01*
X184169737Y-52566503D01*
X184137929Y-52489711D01*
X184109397Y-52420827D01*
X184109390Y-52420814D01*
X184021789Y-52289711D01*
X184021786Y-52289707D01*
X183910292Y-52178213D01*
X183910288Y-52178210D01*
X183779185Y-52090609D01*
X183779172Y-52090602D01*
X183633501Y-52030264D01*
X183633489Y-52030261D01*
X183478845Y-51999500D01*
X183478842Y-51999500D01*
X183321158Y-51999500D01*
X183321155Y-51999500D01*
X183166510Y-52030261D01*
X183166498Y-52030264D01*
X183020827Y-52090602D01*
X183020814Y-52090609D01*
X182889711Y-52178210D01*
X182889707Y-52178213D01*
X182778213Y-52289707D01*
X182778210Y-52289711D01*
X182690609Y-52420814D01*
X182690602Y-52420827D01*
X182630264Y-52566498D01*
X182630261Y-52566510D01*
X182599500Y-52721153D01*
X160850786Y-52721153D01*
X160850786Y-49921153D01*
X175199500Y-49921153D01*
X175199500Y-50078846D01*
X175230261Y-50233489D01*
X175230264Y-50233501D01*
X175290602Y-50379172D01*
X175290609Y-50379185D01*
X175378210Y-50510288D01*
X175378213Y-50510292D01*
X175489707Y-50621786D01*
X175489711Y-50621789D01*
X175620814Y-50709390D01*
X175620827Y-50709397D01*
X175686256Y-50736498D01*
X175766503Y-50769737D01*
X175881000Y-50792512D01*
X175921153Y-50800499D01*
X175921156Y-50800500D01*
X175921158Y-50800500D01*
X176078844Y-50800500D01*
X176078845Y-50800499D01*
X176233497Y-50769737D01*
X176379179Y-50709394D01*
X176510289Y-50621789D01*
X176621789Y-50510289D01*
X176681348Y-50421153D01*
X187699500Y-50421153D01*
X187699500Y-50578846D01*
X187728733Y-50725809D01*
X187728733Y-50774191D01*
X187699500Y-50921153D01*
X187699500Y-51078846D01*
X187730261Y-51233489D01*
X187730264Y-51233501D01*
X187790602Y-51379172D01*
X187790609Y-51379185D01*
X187878210Y-51510288D01*
X187878213Y-51510292D01*
X187989707Y-51621786D01*
X187989711Y-51621789D01*
X188120814Y-51709390D01*
X188120827Y-51709397D01*
X188266498Y-51769735D01*
X188266503Y-51769737D01*
X188421153Y-51800499D01*
X188421156Y-51800500D01*
X188421158Y-51800500D01*
X188578844Y-51800500D01*
X188578845Y-51800499D01*
X188733497Y-51769737D01*
X188879179Y-51709394D01*
X189010289Y-51621789D01*
X189121789Y-51510289D01*
X189140215Y-51482711D01*
X189193827Y-51437907D01*
X189263152Y-51429199D01*
X189326180Y-51459353D01*
X189346420Y-51482711D01*
X189378210Y-51530288D01*
X189378213Y-51530292D01*
X189489707Y-51641786D01*
X189489711Y-51641789D01*
X189620814Y-51729390D01*
X189620827Y-51729397D01*
X189720060Y-51770500D01*
X189766503Y-51789737D01*
X189919318Y-51820134D01*
X189921153Y-51820499D01*
X189921156Y-51820500D01*
X189921158Y-51820500D01*
X190078844Y-51820500D01*
X190078845Y-51820499D01*
X190233497Y-51789737D01*
X190291002Y-51765916D01*
X190360471Y-51758448D01*
X190362648Y-51758861D01*
X190421157Y-51770500D01*
X190421158Y-51770500D01*
X190578844Y-51770500D01*
X190578845Y-51770499D01*
X190733497Y-51739737D01*
X190846166Y-51693067D01*
X190879172Y-51679397D01*
X190879172Y-51679396D01*
X190879179Y-51679394D01*
X191010289Y-51591789D01*
X191121789Y-51480289D01*
X191209394Y-51349179D01*
X191269737Y-51203497D01*
X191300500Y-51048842D01*
X191300500Y-50891158D01*
X191300500Y-50891155D01*
X191300499Y-50891153D01*
X191282467Y-50800500D01*
X191269737Y-50736503D01*
X191267043Y-50730000D01*
X191209397Y-50590827D01*
X191209390Y-50590814D01*
X191121789Y-50459711D01*
X191121786Y-50459707D01*
X191010292Y-50348213D01*
X191010288Y-50348210D01*
X190879185Y-50260609D01*
X190879172Y-50260602D01*
X190733501Y-50200264D01*
X190733489Y-50200261D01*
X190578845Y-50169500D01*
X190578842Y-50169500D01*
X190421158Y-50169500D01*
X190421155Y-50169500D01*
X190266511Y-50200260D01*
X190266506Y-50200262D01*
X190266504Y-50200262D01*
X190266503Y-50200263D01*
X190266501Y-50200264D01*
X190208995Y-50224083D01*
X190139525Y-50231550D01*
X190137353Y-50231138D01*
X190078845Y-50219500D01*
X190078842Y-50219500D01*
X189921158Y-50219500D01*
X189921155Y-50219500D01*
X189766510Y-50250261D01*
X189766498Y-50250264D01*
X189620827Y-50310602D01*
X189620814Y-50310609D01*
X189489711Y-50398210D01*
X189485001Y-50402076D01*
X189483650Y-50400430D01*
X189430769Y-50429288D01*
X189361079Y-50424285D01*
X189305156Y-50382399D01*
X189282826Y-50332308D01*
X189269737Y-50266503D01*
X189263010Y-50250263D01*
X189209397Y-50120827D01*
X189209390Y-50120814D01*
X189121789Y-49989711D01*
X189121786Y-49989707D01*
X189010292Y-49878213D01*
X189010288Y-49878210D01*
X188879185Y-49790609D01*
X188879172Y-49790602D01*
X188733501Y-49730264D01*
X188733489Y-49730261D01*
X188578845Y-49699500D01*
X188578842Y-49699500D01*
X188421158Y-49699500D01*
X188421155Y-49699500D01*
X188266510Y-49730261D01*
X188266498Y-49730264D01*
X188120827Y-49790602D01*
X188120814Y-49790609D01*
X187989711Y-49878210D01*
X187989707Y-49878213D01*
X187878213Y-49989707D01*
X187878210Y-49989711D01*
X187790609Y-50120814D01*
X187790602Y-50120827D01*
X187730264Y-50266498D01*
X187730261Y-50266510D01*
X187699500Y-50421153D01*
X176681348Y-50421153D01*
X176709394Y-50379179D01*
X176769737Y-50233497D01*
X176800500Y-50078842D01*
X176800500Y-49921158D01*
X176800500Y-49921155D01*
X176800499Y-49921153D01*
X176774908Y-49792501D01*
X176769737Y-49766503D01*
X176769735Y-49766498D01*
X176709397Y-49620827D01*
X176709395Y-49620823D01*
X176709394Y-49620821D01*
X176657367Y-49542957D01*
X176621789Y-49489710D01*
X176612232Y-49480153D01*
X198199500Y-49480153D01*
X198199500Y-49637846D01*
X198230261Y-49792489D01*
X198230264Y-49792501D01*
X198290602Y-49938172D01*
X198290609Y-49938185D01*
X198378210Y-50069288D01*
X198378213Y-50069292D01*
X198489707Y-50180786D01*
X198489711Y-50180789D01*
X198620814Y-50268390D01*
X198620827Y-50268397D01*
X198746868Y-50320604D01*
X198766503Y-50328737D01*
X198921153Y-50359499D01*
X198921156Y-50359500D01*
X198921158Y-50359500D01*
X199078844Y-50359500D01*
X199078845Y-50359499D01*
X199233497Y-50328737D01*
X199379179Y-50268394D01*
X199510289Y-50180789D01*
X199621789Y-50069289D01*
X199709394Y-49938179D01*
X199769737Y-49792497D01*
X199800500Y-49637842D01*
X199800500Y-49480158D01*
X199800500Y-49480155D01*
X199800499Y-49480153D01*
X199769737Y-49325503D01*
X199769735Y-49325498D01*
X199709397Y-49179827D01*
X199709390Y-49179814D01*
X199621789Y-49048711D01*
X199621786Y-49048707D01*
X199510292Y-48937213D01*
X199510288Y-48937210D01*
X199379185Y-48849609D01*
X199379172Y-48849602D01*
X199233501Y-48789264D01*
X199233489Y-48789261D01*
X199078845Y-48758500D01*
X199078842Y-48758500D01*
X198921158Y-48758500D01*
X198921155Y-48758500D01*
X198766510Y-48789261D01*
X198766498Y-48789264D01*
X198620827Y-48849602D01*
X198620814Y-48849609D01*
X198489711Y-48937210D01*
X198489707Y-48937213D01*
X198378213Y-49048707D01*
X198378210Y-49048711D01*
X198290609Y-49179814D01*
X198290602Y-49179827D01*
X198230264Y-49325498D01*
X198230261Y-49325510D01*
X198199500Y-49480153D01*
X176612232Y-49480153D01*
X176510292Y-49378213D01*
X176510288Y-49378210D01*
X176379185Y-49290609D01*
X176379172Y-49290602D01*
X176233501Y-49230264D01*
X176233489Y-49230261D01*
X176078845Y-49199500D01*
X176078842Y-49199500D01*
X175921158Y-49199500D01*
X175921155Y-49199500D01*
X175766510Y-49230261D01*
X175766498Y-49230264D01*
X175620827Y-49290602D01*
X175620814Y-49290609D01*
X175489711Y-49378210D01*
X175489707Y-49378213D01*
X175378213Y-49489707D01*
X175378210Y-49489711D01*
X175290609Y-49620814D01*
X175290602Y-49620827D01*
X175230264Y-49766498D01*
X175230261Y-49766510D01*
X175199500Y-49921153D01*
X160850786Y-49921153D01*
X160850786Y-44321153D01*
X169999500Y-44321153D01*
X169999500Y-44478846D01*
X170030261Y-44633489D01*
X170030264Y-44633501D01*
X170090602Y-44779172D01*
X170090609Y-44779185D01*
X170178210Y-44910288D01*
X170178213Y-44910292D01*
X170289707Y-45021786D01*
X170289711Y-45021789D01*
X170420814Y-45109390D01*
X170420827Y-45109397D01*
X170549946Y-45162879D01*
X170566503Y-45169737D01*
X170721153Y-45200499D01*
X170721156Y-45200500D01*
X170721158Y-45200500D01*
X170878844Y-45200500D01*
X170878845Y-45200499D01*
X171033497Y-45169737D01*
X171179179Y-45109394D01*
X171310289Y-45021789D01*
X171410925Y-44921153D01*
X180199500Y-44921153D01*
X180199500Y-45078846D01*
X180230261Y-45233489D01*
X180230264Y-45233501D01*
X180290602Y-45379172D01*
X180290609Y-45379185D01*
X180378210Y-45510288D01*
X180378213Y-45510292D01*
X180489707Y-45621786D01*
X180489711Y-45621789D01*
X180620814Y-45709390D01*
X180620827Y-45709397D01*
X180754948Y-45764951D01*
X180766503Y-45769737D01*
X180896816Y-45795658D01*
X180921153Y-45800499D01*
X180921156Y-45800500D01*
X180921158Y-45800500D01*
X181078844Y-45800500D01*
X181078845Y-45800499D01*
X181233497Y-45769737D01*
X181350080Y-45721447D01*
X181379172Y-45709397D01*
X181379172Y-45709396D01*
X181379179Y-45709394D01*
X181510289Y-45621789D01*
X181621789Y-45510289D01*
X181709394Y-45379179D01*
X181769737Y-45233497D01*
X181800500Y-45078842D01*
X181800500Y-44921158D01*
X181800500Y-44921155D01*
X181790053Y-44868636D01*
X181790053Y-44868635D01*
X181786452Y-44850531D01*
X188346392Y-44850531D01*
X188346392Y-45008224D01*
X188377153Y-45162867D01*
X188377156Y-45162879D01*
X188437494Y-45308550D01*
X188437501Y-45308563D01*
X188525102Y-45439666D01*
X188525105Y-45439670D01*
X188636599Y-45551164D01*
X188636603Y-45551167D01*
X188767706Y-45638768D01*
X188767719Y-45638775D01*
X188852271Y-45673797D01*
X188913395Y-45699115D01*
X189025665Y-45721447D01*
X189068045Y-45729877D01*
X189068048Y-45729878D01*
X189068050Y-45729878D01*
X189225736Y-45729878D01*
X189225737Y-45729877D01*
X189380389Y-45699115D01*
X189526071Y-45638772D01*
X189657181Y-45551167D01*
X189768681Y-45439667D01*
X189856286Y-45308557D01*
X189916629Y-45162875D01*
X189947392Y-45008220D01*
X189947392Y-44850536D01*
X189947392Y-44850533D01*
X189947391Y-44850531D01*
X189930678Y-44766510D01*
X189916629Y-44695881D01*
X189885541Y-44620827D01*
X189856289Y-44550205D01*
X189856282Y-44550192D01*
X189768681Y-44419089D01*
X189768678Y-44419085D01*
X189657184Y-44307591D01*
X189657180Y-44307588D01*
X189526077Y-44219987D01*
X189526064Y-44219980D01*
X189380393Y-44159642D01*
X189380381Y-44159639D01*
X189225737Y-44128878D01*
X189225734Y-44128878D01*
X189068050Y-44128878D01*
X189068047Y-44128878D01*
X188913402Y-44159639D01*
X188913390Y-44159642D01*
X188767719Y-44219980D01*
X188767706Y-44219987D01*
X188636603Y-44307588D01*
X188636599Y-44307591D01*
X188525105Y-44419085D01*
X188525102Y-44419089D01*
X188437501Y-44550192D01*
X188437494Y-44550205D01*
X188377156Y-44695876D01*
X188377153Y-44695888D01*
X188346392Y-44850531D01*
X181786452Y-44850531D01*
X181778243Y-44809266D01*
X181769737Y-44766503D01*
X181740483Y-44695876D01*
X181709397Y-44620827D01*
X181709390Y-44620814D01*
X181621789Y-44489711D01*
X181621786Y-44489707D01*
X181510292Y-44378213D01*
X181510288Y-44378210D01*
X181379185Y-44290609D01*
X181379172Y-44290602D01*
X181233501Y-44230264D01*
X181233489Y-44230261D01*
X181078845Y-44199500D01*
X181078842Y-44199500D01*
X180921158Y-44199500D01*
X180921155Y-44199500D01*
X180766510Y-44230261D01*
X180766498Y-44230264D01*
X180620827Y-44290602D01*
X180620814Y-44290609D01*
X180489711Y-44378210D01*
X180489707Y-44378213D01*
X180378213Y-44489707D01*
X180378210Y-44489711D01*
X180290609Y-44620814D01*
X180290602Y-44620827D01*
X180230264Y-44766498D01*
X180230261Y-44766510D01*
X180199500Y-44921153D01*
X171410925Y-44921153D01*
X171421789Y-44910289D01*
X171509394Y-44779179D01*
X171569737Y-44633497D01*
X171600500Y-44478842D01*
X171600500Y-44321158D01*
X171600500Y-44321155D01*
X171600499Y-44321153D01*
X171594422Y-44290602D01*
X171569737Y-44166503D01*
X171566894Y-44159639D01*
X171509397Y-44020827D01*
X171509390Y-44020814D01*
X171421789Y-43889711D01*
X171421786Y-43889707D01*
X171310292Y-43778213D01*
X171310288Y-43778210D01*
X171179185Y-43690609D01*
X171179172Y-43690602D01*
X171033501Y-43630264D01*
X171033489Y-43630261D01*
X170878845Y-43599500D01*
X170878842Y-43599500D01*
X170721158Y-43599500D01*
X170721155Y-43599500D01*
X170566510Y-43630261D01*
X170566498Y-43630264D01*
X170420827Y-43690602D01*
X170420814Y-43690609D01*
X170289711Y-43778210D01*
X170289707Y-43778213D01*
X170178213Y-43889707D01*
X170178210Y-43889711D01*
X170090609Y-44020814D01*
X170090602Y-44020827D01*
X170030264Y-44166498D01*
X170030261Y-44166510D01*
X169999500Y-44321153D01*
X160850786Y-44321153D01*
X160850786Y-38624500D01*
X160870471Y-38557461D01*
X160923275Y-38511706D01*
X160974786Y-38500500D01*
X211275786Y-38500500D01*
X211342825Y-38520185D01*
G37*
%TD.AperFunction*%
%TD*%
M02*
