M48
; DRILL file {KiCad 9.0.4} date 2026-03-16T14:18:46-0400
; FORMAT={-:-/ absolute / metric / decimal}
; #@! TF.CreationDate,2026-03-16T14:18:46-04:00
; #@! TF.GenerationSoftware,Kicad,Pcbnew,9.0.4
; #@! TF.FileFunction,Plated,1,4,PTH
FMAT,2
METRIC
; #@! TA.AperFunction,Plated,PTH,ViaDrill
T1C0.300
; #@! TA.AperFunction,Plated,PTH,ComponentDrill
T2C0.750
; #@! TA.AperFunction,Plated,PTH,ComponentDrill
T3C1.000
%
G90
G05
T1
X162.0Y-57.0
X162.0Y-64.0
X164.0Y-51.0
X164.0Y-64.0
X165.0Y-49.0
X166.0Y-64.0
X168.0Y-48.0
X170.8Y-44.4
X174.0Y-50.0
X175.0Y-53.0
X176.0Y-50.0
X181.0Y-45.0
X183.0Y-56.0
X183.4Y-52.8
X184.0Y-55.5
X184.0Y-56.5
X184.5Y-49.0
X187.0Y-47.5
X187.0Y-55.0
X187.394Y-56.856
X187.5Y-53.5
X187.565Y-57.475
X188.0Y-57.0
X188.5Y-50.5
X188.5Y-51.0
X189.0Y-53.5
X189.147Y-44.929
X190.0Y-48.0
X190.0Y-51.02
X190.5Y-49.0
X190.5Y-50.97
X192.0Y-55.0
X192.0Y-56.5
X193.0Y-53.5
X194.0Y-45.0
X194.324Y-47.853
X195.0Y-46.0
X196.5Y-56.0
X196.5Y-57.5
X197.0Y-48.0
X197.0Y-60.0
X197.038Y-55.421
X197.25Y-56.25
X198.0Y-54.15
X199.0Y-49.559
X199.0Y-52.5
X199.5Y-53.5
X200.0Y-57.0
X201.01Y-49.395
X202.0Y-58.0
X202.5Y-53.0
X203.0Y-48.5
X203.5Y-54.5
T2
X170.82Y-56.655
X172.09Y-56.655
X173.36Y-56.655
X176.57Y-56.655
X177.84Y-56.655
X179.11Y-56.655
T3
X205.46Y-44.38
X205.46Y-46.92
X205.46Y-49.46
X205.46Y-52.0
X205.46Y-54.54
X205.46Y-57.08
X205.46Y-59.62
X205.46Y-62.16
X208.0Y-44.38
X208.0Y-46.92
X208.0Y-49.46
X208.0Y-52.0
X208.0Y-54.54
X208.0Y-57.08
X208.0Y-59.62
X208.0Y-62.16
M30
