%TF.GenerationSoftware,KiCad,Pcbnew,9.0.4*%
%TF.CreationDate,2026-03-16T14:18:50-04:00*%
%TF.ProjectId,Overdrive,4f766572-6472-4697-9665-2e6b69636164,rev?*%
%TF.SameCoordinates,Original*%
%TF.FileFunction,Legend,Top*%
%TF.FilePolarity,Positive*%
%FSLAX46Y46*%
G04 Gerber Fmt 4.6, Leading zero omitted, Abs format (unit mm)*
G04 Created by KiCad (PCBNEW 9.0.4) date 2026-03-16 14:18:50*
%MOMM*%
%LPD*%
G01*
G04 APERTURE LIST*
%ADD10C,0.100000*%
%ADD11C,0.150000*%
%ADD12C,0.120000*%
%ADD13C,0.152400*%
G04 APERTURE END LIST*
D10*
X186494360Y-64262475D02*
X186684836Y-64262475D01*
X186684836Y-64262475D02*
X186780074Y-64310094D01*
X186780074Y-64310094D02*
X186875312Y-64405332D01*
X186875312Y-64405332D02*
X186922931Y-64595808D01*
X186922931Y-64595808D02*
X186922931Y-64929141D01*
X186922931Y-64929141D02*
X186875312Y-65119617D01*
X186875312Y-65119617D02*
X186780074Y-65214856D01*
X186780074Y-65214856D02*
X186684836Y-65262475D01*
X186684836Y-65262475D02*
X186494360Y-65262475D01*
X186494360Y-65262475D02*
X186399122Y-65214856D01*
X186399122Y-65214856D02*
X186303884Y-65119617D01*
X186303884Y-65119617D02*
X186256265Y-64929141D01*
X186256265Y-64929141D02*
X186256265Y-64595808D01*
X186256265Y-64595808D02*
X186303884Y-64405332D01*
X186303884Y-64405332D02*
X186399122Y-64310094D01*
X186399122Y-64310094D02*
X186494360Y-64262475D01*
X187256265Y-64595808D02*
X187494360Y-65262475D01*
X187494360Y-65262475D02*
X187732455Y-64595808D01*
X188494360Y-65214856D02*
X188399122Y-65262475D01*
X188399122Y-65262475D02*
X188208646Y-65262475D01*
X188208646Y-65262475D02*
X188113408Y-65214856D01*
X188113408Y-65214856D02*
X188065789Y-65119617D01*
X188065789Y-65119617D02*
X188065789Y-64738665D01*
X188065789Y-64738665D02*
X188113408Y-64643427D01*
X188113408Y-64643427D02*
X188208646Y-64595808D01*
X188208646Y-64595808D02*
X188399122Y-64595808D01*
X188399122Y-64595808D02*
X188494360Y-64643427D01*
X188494360Y-64643427D02*
X188541979Y-64738665D01*
X188541979Y-64738665D02*
X188541979Y-64833903D01*
X188541979Y-64833903D02*
X188065789Y-64929141D01*
X188970551Y-65262475D02*
X188970551Y-64595808D01*
X188970551Y-64786284D02*
X189018170Y-64691046D01*
X189018170Y-64691046D02*
X189065789Y-64643427D01*
X189065789Y-64643427D02*
X189161027Y-64595808D01*
X189161027Y-64595808D02*
X189256265Y-64595808D01*
X190018170Y-65262475D02*
X190018170Y-64262475D01*
X190018170Y-65214856D02*
X189922932Y-65262475D01*
X189922932Y-65262475D02*
X189732456Y-65262475D01*
X189732456Y-65262475D02*
X189637218Y-65214856D01*
X189637218Y-65214856D02*
X189589599Y-65167236D01*
X189589599Y-65167236D02*
X189541980Y-65071998D01*
X189541980Y-65071998D02*
X189541980Y-64786284D01*
X189541980Y-64786284D02*
X189589599Y-64691046D01*
X189589599Y-64691046D02*
X189637218Y-64643427D01*
X189637218Y-64643427D02*
X189732456Y-64595808D01*
X189732456Y-64595808D02*
X189922932Y-64595808D01*
X189922932Y-64595808D02*
X190018170Y-64643427D01*
X190494361Y-65262475D02*
X190494361Y-64595808D01*
X190494361Y-64786284D02*
X190541980Y-64691046D01*
X190541980Y-64691046D02*
X190589599Y-64643427D01*
X190589599Y-64643427D02*
X190684837Y-64595808D01*
X190684837Y-64595808D02*
X190780075Y-64595808D01*
X191113409Y-65262475D02*
X191113409Y-64595808D01*
X191113409Y-64262475D02*
X191065790Y-64310094D01*
X191065790Y-64310094D02*
X191113409Y-64357713D01*
X191113409Y-64357713D02*
X191161028Y-64310094D01*
X191161028Y-64310094D02*
X191113409Y-64262475D01*
X191113409Y-64262475D02*
X191113409Y-64357713D01*
X191494361Y-64595808D02*
X191732456Y-65262475D01*
X191732456Y-65262475D02*
X191970551Y-64595808D01*
X192732456Y-65214856D02*
X192637218Y-65262475D01*
X192637218Y-65262475D02*
X192446742Y-65262475D01*
X192446742Y-65262475D02*
X192351504Y-65214856D01*
X192351504Y-65214856D02*
X192303885Y-65119617D01*
X192303885Y-65119617D02*
X192303885Y-64738665D01*
X192303885Y-64738665D02*
X192351504Y-64643427D01*
X192351504Y-64643427D02*
X192446742Y-64595808D01*
X192446742Y-64595808D02*
X192637218Y-64595808D01*
X192637218Y-64595808D02*
X192732456Y-64643427D01*
X192732456Y-64643427D02*
X192780075Y-64738665D01*
X192780075Y-64738665D02*
X192780075Y-64833903D01*
X192780075Y-64833903D02*
X192303885Y-64929141D01*
X193970552Y-64738665D02*
X194303885Y-64738665D01*
X194446742Y-65262475D02*
X193970552Y-65262475D01*
X193970552Y-65262475D02*
X193970552Y-64262475D01*
X193970552Y-64262475D02*
X194446742Y-64262475D01*
X194732457Y-64595808D02*
X195113409Y-64595808D01*
X194875314Y-65262475D02*
X194875314Y-64405332D01*
X194875314Y-64405332D02*
X194922933Y-64310094D01*
X194922933Y-64310094D02*
X195018171Y-64262475D01*
X195018171Y-64262475D02*
X195113409Y-64262475D01*
X195303886Y-64595808D02*
X195684838Y-64595808D01*
X195446743Y-65262475D02*
X195446743Y-64405332D01*
X195446743Y-64405332D02*
X195494362Y-64310094D01*
X195494362Y-64310094D02*
X195589600Y-64262475D01*
X195589600Y-64262475D02*
X195684838Y-64262475D01*
X196399124Y-65214856D02*
X196303886Y-65262475D01*
X196303886Y-65262475D02*
X196113410Y-65262475D01*
X196113410Y-65262475D02*
X196018172Y-65214856D01*
X196018172Y-65214856D02*
X195970553Y-65119617D01*
X195970553Y-65119617D02*
X195970553Y-64738665D01*
X195970553Y-64738665D02*
X196018172Y-64643427D01*
X196018172Y-64643427D02*
X196113410Y-64595808D01*
X196113410Y-64595808D02*
X196303886Y-64595808D01*
X196303886Y-64595808D02*
X196399124Y-64643427D01*
X196399124Y-64643427D02*
X196446743Y-64738665D01*
X196446743Y-64738665D02*
X196446743Y-64833903D01*
X196446743Y-64833903D02*
X195970553Y-64929141D01*
X197303886Y-65214856D02*
X197208648Y-65262475D01*
X197208648Y-65262475D02*
X197018172Y-65262475D01*
X197018172Y-65262475D02*
X196922934Y-65214856D01*
X196922934Y-65214856D02*
X196875315Y-65167236D01*
X196875315Y-65167236D02*
X196827696Y-65071998D01*
X196827696Y-65071998D02*
X196827696Y-64786284D01*
X196827696Y-64786284D02*
X196875315Y-64691046D01*
X196875315Y-64691046D02*
X196922934Y-64643427D01*
X196922934Y-64643427D02*
X197018172Y-64595808D01*
X197018172Y-64595808D02*
X197208648Y-64595808D01*
X197208648Y-64595808D02*
X197303886Y-64643427D01*
X197589601Y-64595808D02*
X197970553Y-64595808D01*
X197732458Y-64262475D02*
X197732458Y-65119617D01*
X197732458Y-65119617D02*
X197780077Y-65214856D01*
X197780077Y-65214856D02*
X197875315Y-65262475D01*
X197875315Y-65262475D02*
X197970553Y-65262475D01*
X199065792Y-65262475D02*
X199065792Y-64262475D01*
X199065792Y-64262475D02*
X199446744Y-64262475D01*
X199446744Y-64262475D02*
X199541982Y-64310094D01*
X199541982Y-64310094D02*
X199589601Y-64357713D01*
X199589601Y-64357713D02*
X199637220Y-64452951D01*
X199637220Y-64452951D02*
X199637220Y-64595808D01*
X199637220Y-64595808D02*
X199589601Y-64691046D01*
X199589601Y-64691046D02*
X199541982Y-64738665D01*
X199541982Y-64738665D02*
X199446744Y-64786284D01*
X199446744Y-64786284D02*
X199065792Y-64786284D01*
X200446744Y-65214856D02*
X200351506Y-65262475D01*
X200351506Y-65262475D02*
X200161030Y-65262475D01*
X200161030Y-65262475D02*
X200065792Y-65214856D01*
X200065792Y-65214856D02*
X200018173Y-65119617D01*
X200018173Y-65119617D02*
X200018173Y-64738665D01*
X200018173Y-64738665D02*
X200065792Y-64643427D01*
X200065792Y-64643427D02*
X200161030Y-64595808D01*
X200161030Y-64595808D02*
X200351506Y-64595808D01*
X200351506Y-64595808D02*
X200446744Y-64643427D01*
X200446744Y-64643427D02*
X200494363Y-64738665D01*
X200494363Y-64738665D02*
X200494363Y-64833903D01*
X200494363Y-64833903D02*
X200018173Y-64929141D01*
X201351506Y-65262475D02*
X201351506Y-64262475D01*
X201351506Y-65214856D02*
X201256268Y-65262475D01*
X201256268Y-65262475D02*
X201065792Y-65262475D01*
X201065792Y-65262475D02*
X200970554Y-65214856D01*
X200970554Y-65214856D02*
X200922935Y-65167236D01*
X200922935Y-65167236D02*
X200875316Y-65071998D01*
X200875316Y-65071998D02*
X200875316Y-64786284D01*
X200875316Y-64786284D02*
X200922935Y-64691046D01*
X200922935Y-64691046D02*
X200970554Y-64643427D01*
X200970554Y-64643427D02*
X201065792Y-64595808D01*
X201065792Y-64595808D02*
X201256268Y-64595808D01*
X201256268Y-64595808D02*
X201351506Y-64643427D01*
X202256268Y-65262475D02*
X202256268Y-64738665D01*
X202256268Y-64738665D02*
X202208649Y-64643427D01*
X202208649Y-64643427D02*
X202113411Y-64595808D01*
X202113411Y-64595808D02*
X201922935Y-64595808D01*
X201922935Y-64595808D02*
X201827697Y-64643427D01*
X202256268Y-65214856D02*
X202161030Y-65262475D01*
X202161030Y-65262475D02*
X201922935Y-65262475D01*
X201922935Y-65262475D02*
X201827697Y-65214856D01*
X201827697Y-65214856D02*
X201780078Y-65119617D01*
X201780078Y-65119617D02*
X201780078Y-65024379D01*
X201780078Y-65024379D02*
X201827697Y-64929141D01*
X201827697Y-64929141D02*
X201922935Y-64881522D01*
X201922935Y-64881522D02*
X202161030Y-64881522D01*
X202161030Y-64881522D02*
X202256268Y-64833903D01*
X202875316Y-65262475D02*
X202780078Y-65214856D01*
X202780078Y-65214856D02*
X202732459Y-65119617D01*
X202732459Y-65119617D02*
X202732459Y-64262475D01*
X186303884Y-66872419D02*
X186303884Y-65872419D01*
X186875312Y-66872419D02*
X186446741Y-66300990D01*
X186875312Y-65872419D02*
X186303884Y-66443847D01*
X187208646Y-66205752D02*
X187446741Y-66872419D01*
X187684836Y-66205752D02*
X187446741Y-66872419D01*
X187446741Y-66872419D02*
X187351503Y-67110514D01*
X187351503Y-67110514D02*
X187303884Y-67158133D01*
X187303884Y-67158133D02*
X187208646Y-67205752D01*
X188208646Y-66872419D02*
X188113408Y-66824800D01*
X188113408Y-66824800D02*
X188065789Y-66729561D01*
X188065789Y-66729561D02*
X188065789Y-65872419D01*
X188970551Y-66824800D02*
X188875313Y-66872419D01*
X188875313Y-66872419D02*
X188684837Y-66872419D01*
X188684837Y-66872419D02*
X188589599Y-66824800D01*
X188589599Y-66824800D02*
X188541980Y-66729561D01*
X188541980Y-66729561D02*
X188541980Y-66348609D01*
X188541980Y-66348609D02*
X188589599Y-66253371D01*
X188589599Y-66253371D02*
X188684837Y-66205752D01*
X188684837Y-66205752D02*
X188875313Y-66205752D01*
X188875313Y-66205752D02*
X188970551Y-66253371D01*
X188970551Y-66253371D02*
X189018170Y-66348609D01*
X189018170Y-66348609D02*
X189018170Y-66443847D01*
X189018170Y-66443847D02*
X188541980Y-66539085D01*
X190637218Y-66872419D02*
X190637218Y-65872419D01*
X190637218Y-66824800D02*
X190541980Y-66872419D01*
X190541980Y-66872419D02*
X190351504Y-66872419D01*
X190351504Y-66872419D02*
X190256266Y-66824800D01*
X190256266Y-66824800D02*
X190208647Y-66777180D01*
X190208647Y-66777180D02*
X190161028Y-66681942D01*
X190161028Y-66681942D02*
X190161028Y-66396228D01*
X190161028Y-66396228D02*
X190208647Y-66300990D01*
X190208647Y-66300990D02*
X190256266Y-66253371D01*
X190256266Y-66253371D02*
X190351504Y-66205752D01*
X190351504Y-66205752D02*
X190541980Y-66205752D01*
X190541980Y-66205752D02*
X190637218Y-66253371D01*
X191494361Y-66824800D02*
X191399123Y-66872419D01*
X191399123Y-66872419D02*
X191208647Y-66872419D01*
X191208647Y-66872419D02*
X191113409Y-66824800D01*
X191113409Y-66824800D02*
X191065790Y-66729561D01*
X191065790Y-66729561D02*
X191065790Y-66348609D01*
X191065790Y-66348609D02*
X191113409Y-66253371D01*
X191113409Y-66253371D02*
X191208647Y-66205752D01*
X191208647Y-66205752D02*
X191399123Y-66205752D01*
X191399123Y-66205752D02*
X191494361Y-66253371D01*
X191494361Y-66253371D02*
X191541980Y-66348609D01*
X191541980Y-66348609D02*
X191541980Y-66443847D01*
X191541980Y-66443847D02*
X191065790Y-66539085D01*
X192732457Y-66872419D02*
X192732457Y-65872419D01*
X192732457Y-65872419D02*
X193303885Y-66872419D01*
X193303885Y-66872419D02*
X193303885Y-65872419D01*
X193922933Y-66872419D02*
X193827695Y-66824800D01*
X193827695Y-66824800D02*
X193780076Y-66777180D01*
X193780076Y-66777180D02*
X193732457Y-66681942D01*
X193732457Y-66681942D02*
X193732457Y-66396228D01*
X193732457Y-66396228D02*
X193780076Y-66300990D01*
X193780076Y-66300990D02*
X193827695Y-66253371D01*
X193827695Y-66253371D02*
X193922933Y-66205752D01*
X193922933Y-66205752D02*
X194065790Y-66205752D01*
X194065790Y-66205752D02*
X194161028Y-66253371D01*
X194161028Y-66253371D02*
X194208647Y-66300990D01*
X194208647Y-66300990D02*
X194256266Y-66396228D01*
X194256266Y-66396228D02*
X194256266Y-66681942D01*
X194256266Y-66681942D02*
X194208647Y-66777180D01*
X194208647Y-66777180D02*
X194161028Y-66824800D01*
X194161028Y-66824800D02*
X194065790Y-66872419D01*
X194065790Y-66872419D02*
X193922933Y-66872419D01*
X194684838Y-66872419D02*
X194684838Y-65872419D01*
X194684838Y-66253371D02*
X194780076Y-66205752D01*
X194780076Y-66205752D02*
X194970552Y-66205752D01*
X194970552Y-66205752D02*
X195065790Y-66253371D01*
X195065790Y-66253371D02*
X195113409Y-66300990D01*
X195113409Y-66300990D02*
X195161028Y-66396228D01*
X195161028Y-66396228D02*
X195161028Y-66681942D01*
X195161028Y-66681942D02*
X195113409Y-66777180D01*
X195113409Y-66777180D02*
X195065790Y-66824800D01*
X195065790Y-66824800D02*
X194970552Y-66872419D01*
X194970552Y-66872419D02*
X194780076Y-66872419D01*
X194780076Y-66872419D02*
X194684838Y-66824800D01*
X195970552Y-66824800D02*
X195875314Y-66872419D01*
X195875314Y-66872419D02*
X195684838Y-66872419D01*
X195684838Y-66872419D02*
X195589600Y-66824800D01*
X195589600Y-66824800D02*
X195541981Y-66729561D01*
X195541981Y-66729561D02*
X195541981Y-66348609D01*
X195541981Y-66348609D02*
X195589600Y-66253371D01*
X195589600Y-66253371D02*
X195684838Y-66205752D01*
X195684838Y-66205752D02*
X195875314Y-66205752D01*
X195875314Y-66205752D02*
X195970552Y-66253371D01*
X195970552Y-66253371D02*
X196018171Y-66348609D01*
X196018171Y-66348609D02*
X196018171Y-66443847D01*
X196018171Y-66443847D02*
X195541981Y-66539085D01*
X196589600Y-66872419D02*
X196494362Y-66824800D01*
X196494362Y-66824800D02*
X196446743Y-66729561D01*
X196446743Y-66729561D02*
X196446743Y-65872419D01*
D11*
X178623958Y-49895044D02*
X178671578Y-49942663D01*
X178671578Y-49942663D02*
X178719197Y-50085520D01*
X178719197Y-50085520D02*
X178719197Y-50180758D01*
X178719197Y-50180758D02*
X178671578Y-50323615D01*
X178671578Y-50323615D02*
X178576339Y-50418853D01*
X178576339Y-50418853D02*
X178481101Y-50466472D01*
X178481101Y-50466472D02*
X178290625Y-50514091D01*
X178290625Y-50514091D02*
X178147768Y-50514091D01*
X178147768Y-50514091D02*
X177957292Y-50466472D01*
X177957292Y-50466472D02*
X177862054Y-50418853D01*
X177862054Y-50418853D02*
X177766816Y-50323615D01*
X177766816Y-50323615D02*
X177719197Y-50180758D01*
X177719197Y-50180758D02*
X177719197Y-50085520D01*
X177719197Y-50085520D02*
X177766816Y-49942663D01*
X177766816Y-49942663D02*
X177814435Y-49895044D01*
X177719197Y-49037901D02*
X177719197Y-49228377D01*
X177719197Y-49228377D02*
X177766816Y-49323615D01*
X177766816Y-49323615D02*
X177814435Y-49371234D01*
X177814435Y-49371234D02*
X177957292Y-49466472D01*
X177957292Y-49466472D02*
X178147768Y-49514091D01*
X178147768Y-49514091D02*
X178528720Y-49514091D01*
X178528720Y-49514091D02*
X178623958Y-49466472D01*
X178623958Y-49466472D02*
X178671578Y-49418853D01*
X178671578Y-49418853D02*
X178719197Y-49323615D01*
X178719197Y-49323615D02*
X178719197Y-49133139D01*
X178719197Y-49133139D02*
X178671578Y-49037901D01*
X178671578Y-49037901D02*
X178623958Y-48990282D01*
X178623958Y-48990282D02*
X178528720Y-48942663D01*
X178528720Y-48942663D02*
X178290625Y-48942663D01*
X178290625Y-48942663D02*
X178195387Y-48990282D01*
X178195387Y-48990282D02*
X178147768Y-49037901D01*
X178147768Y-49037901D02*
X178100149Y-49133139D01*
X178100149Y-49133139D02*
X178100149Y-49323615D01*
X178100149Y-49323615D02*
X178147768Y-49418853D01*
X178147768Y-49418853D02*
X178195387Y-49466472D01*
X178195387Y-49466472D02*
X178290625Y-49514091D01*
X178582142Y-42929580D02*
X178534523Y-42977200D01*
X178534523Y-42977200D02*
X178391666Y-43024819D01*
X178391666Y-43024819D02*
X178296428Y-43024819D01*
X178296428Y-43024819D02*
X178153571Y-42977200D01*
X178153571Y-42977200D02*
X178058333Y-42881961D01*
X178058333Y-42881961D02*
X178010714Y-42786723D01*
X178010714Y-42786723D02*
X177963095Y-42596247D01*
X177963095Y-42596247D02*
X177963095Y-42453390D01*
X177963095Y-42453390D02*
X178010714Y-42262914D01*
X178010714Y-42262914D02*
X178058333Y-42167676D01*
X178058333Y-42167676D02*
X178153571Y-42072438D01*
X178153571Y-42072438D02*
X178296428Y-42024819D01*
X178296428Y-42024819D02*
X178391666Y-42024819D01*
X178391666Y-42024819D02*
X178534523Y-42072438D01*
X178534523Y-42072438D02*
X178582142Y-42120057D01*
X179534523Y-43024819D02*
X178963095Y-43024819D01*
X179248809Y-43024819D02*
X179248809Y-42024819D01*
X179248809Y-42024819D02*
X179153571Y-42167676D01*
X179153571Y-42167676D02*
X179058333Y-42262914D01*
X179058333Y-42262914D02*
X178963095Y-42310533D01*
X179915476Y-42120057D02*
X179963095Y-42072438D01*
X179963095Y-42072438D02*
X180058333Y-42024819D01*
X180058333Y-42024819D02*
X180296428Y-42024819D01*
X180296428Y-42024819D02*
X180391666Y-42072438D01*
X180391666Y-42072438D02*
X180439285Y-42120057D01*
X180439285Y-42120057D02*
X180486904Y-42215295D01*
X180486904Y-42215295D02*
X180486904Y-42310533D01*
X180486904Y-42310533D02*
X180439285Y-42453390D01*
X180439285Y-42453390D02*
X179867857Y-43024819D01*
X179867857Y-43024819D02*
X180486904Y-43024819D01*
X177712191Y-63599819D02*
X177712191Y-62599819D01*
X177712191Y-62599819D02*
X177950286Y-62599819D01*
X177950286Y-62599819D02*
X178093143Y-62647438D01*
X178093143Y-62647438D02*
X178188381Y-62742676D01*
X178188381Y-62742676D02*
X178236000Y-62837914D01*
X178236000Y-62837914D02*
X178283619Y-63028390D01*
X178283619Y-63028390D02*
X178283619Y-63171247D01*
X178283619Y-63171247D02*
X178236000Y-63361723D01*
X178236000Y-63361723D02*
X178188381Y-63456961D01*
X178188381Y-63456961D02*
X178093143Y-63552200D01*
X178093143Y-63552200D02*
X177950286Y-63599819D01*
X177950286Y-63599819D02*
X177712191Y-63599819D01*
X178664572Y-62695057D02*
X178712191Y-62647438D01*
X178712191Y-62647438D02*
X178807429Y-62599819D01*
X178807429Y-62599819D02*
X179045524Y-62599819D01*
X179045524Y-62599819D02*
X179140762Y-62647438D01*
X179140762Y-62647438D02*
X179188381Y-62695057D01*
X179188381Y-62695057D02*
X179236000Y-62790295D01*
X179236000Y-62790295D02*
X179236000Y-62885533D01*
X179236000Y-62885533D02*
X179188381Y-63028390D01*
X179188381Y-63028390D02*
X178616953Y-63599819D01*
X178616953Y-63599819D02*
X179236000Y-63599819D01*
X190872845Y-41454819D02*
X190872845Y-42264342D01*
X190872845Y-42264342D02*
X190920464Y-42359580D01*
X190920464Y-42359580D02*
X190968083Y-42407200D01*
X190968083Y-42407200D02*
X191063321Y-42454819D01*
X191063321Y-42454819D02*
X191253797Y-42454819D01*
X191253797Y-42454819D02*
X191349035Y-42407200D01*
X191349035Y-42407200D02*
X191396654Y-42359580D01*
X191396654Y-42359580D02*
X191444273Y-42264342D01*
X191444273Y-42264342D02*
X191444273Y-41454819D01*
X192444273Y-42454819D02*
X191872845Y-42454819D01*
X192158559Y-42454819D02*
X192158559Y-41454819D01*
X192158559Y-41454819D02*
X192063321Y-41597676D01*
X192063321Y-41597676D02*
X191968083Y-41692914D01*
X191968083Y-41692914D02*
X191872845Y-41740533D01*
X194207566Y-45693647D02*
X194207566Y-45931742D01*
X193969471Y-45836504D02*
X194207566Y-45931742D01*
X194207566Y-45931742D02*
X194445661Y-45836504D01*
X194064709Y-46122218D02*
X194207566Y-45931742D01*
X194207566Y-45931742D02*
X194350423Y-46122218D01*
X193597445Y-47098503D02*
X193597445Y-46860408D01*
X193835540Y-46955646D02*
X193597445Y-46860408D01*
X193597445Y-46860408D02*
X193359350Y-46955646D01*
X193740302Y-46669932D02*
X193597445Y-46860408D01*
X193597445Y-46860408D02*
X193454588Y-46669932D01*
X165699866Y-52461666D02*
X165747486Y-52509285D01*
X165747486Y-52509285D02*
X165795105Y-52652142D01*
X165795105Y-52652142D02*
X165795105Y-52747380D01*
X165795105Y-52747380D02*
X165747486Y-52890237D01*
X165747486Y-52890237D02*
X165652247Y-52985475D01*
X165652247Y-52985475D02*
X165557009Y-53033094D01*
X165557009Y-53033094D02*
X165366533Y-53080713D01*
X165366533Y-53080713D02*
X165223676Y-53080713D01*
X165223676Y-53080713D02*
X165033200Y-53033094D01*
X165033200Y-53033094D02*
X164937962Y-52985475D01*
X164937962Y-52985475D02*
X164842724Y-52890237D01*
X164842724Y-52890237D02*
X164795105Y-52747380D01*
X164795105Y-52747380D02*
X164795105Y-52652142D01*
X164795105Y-52652142D02*
X164842724Y-52509285D01*
X164842724Y-52509285D02*
X164890343Y-52461666D01*
X164795105Y-51556904D02*
X164795105Y-52033094D01*
X164795105Y-52033094D02*
X165271295Y-52080713D01*
X165271295Y-52080713D02*
X165223676Y-52033094D01*
X165223676Y-52033094D02*
X165176057Y-51937856D01*
X165176057Y-51937856D02*
X165176057Y-51699761D01*
X165176057Y-51699761D02*
X165223676Y-51604523D01*
X165223676Y-51604523D02*
X165271295Y-51556904D01*
X165271295Y-51556904D02*
X165366533Y-51509285D01*
X165366533Y-51509285D02*
X165604628Y-51509285D01*
X165604628Y-51509285D02*
X165699866Y-51556904D01*
X165699866Y-51556904D02*
X165747486Y-51604523D01*
X165747486Y-51604523D02*
X165795105Y-51699761D01*
X165795105Y-51699761D02*
X165795105Y-51937856D01*
X165795105Y-51937856D02*
X165747486Y-52033094D01*
X165747486Y-52033094D02*
X165699866Y-52080713D01*
X167812191Y-63599819D02*
X167812191Y-62599819D01*
X167812191Y-62599819D02*
X168050286Y-62599819D01*
X168050286Y-62599819D02*
X168193143Y-62647438D01*
X168193143Y-62647438D02*
X168288381Y-62742676D01*
X168288381Y-62742676D02*
X168336000Y-62837914D01*
X168336000Y-62837914D02*
X168383619Y-63028390D01*
X168383619Y-63028390D02*
X168383619Y-63171247D01*
X168383619Y-63171247D02*
X168336000Y-63361723D01*
X168336000Y-63361723D02*
X168288381Y-63456961D01*
X168288381Y-63456961D02*
X168193143Y-63552200D01*
X168193143Y-63552200D02*
X168050286Y-63599819D01*
X168050286Y-63599819D02*
X167812191Y-63599819D01*
X169240762Y-62933152D02*
X169240762Y-63599819D01*
X169002667Y-62552200D02*
X168764572Y-63266485D01*
X168764572Y-63266485D02*
X169383619Y-63266485D01*
X210781666Y-41564819D02*
X210781666Y-42279104D01*
X210781666Y-42279104D02*
X210734047Y-42421961D01*
X210734047Y-42421961D02*
X210638809Y-42517200D01*
X210638809Y-42517200D02*
X210495952Y-42564819D01*
X210495952Y-42564819D02*
X210400714Y-42564819D01*
X211781666Y-42564819D02*
X211210238Y-42564819D01*
X211495952Y-42564819D02*
X211495952Y-41564819D01*
X211495952Y-41564819D02*
X211400714Y-41707676D01*
X211400714Y-41707676D02*
X211305476Y-41802914D01*
X211305476Y-41802914D02*
X211210238Y-41850533D01*
X194522887Y-48261796D02*
X194475268Y-48309416D01*
X194475268Y-48309416D02*
X194332411Y-48357035D01*
X194332411Y-48357035D02*
X194237173Y-48357035D01*
X194237173Y-48357035D02*
X194094316Y-48309416D01*
X194094316Y-48309416D02*
X193999078Y-48214177D01*
X193999078Y-48214177D02*
X193951459Y-48118939D01*
X193951459Y-48118939D02*
X193903840Y-47928463D01*
X193903840Y-47928463D02*
X193903840Y-47785606D01*
X193903840Y-47785606D02*
X193951459Y-47595130D01*
X193951459Y-47595130D02*
X193999078Y-47499892D01*
X193999078Y-47499892D02*
X194094316Y-47404654D01*
X194094316Y-47404654D02*
X194237173Y-47357035D01*
X194237173Y-47357035D02*
X194332411Y-47357035D01*
X194332411Y-47357035D02*
X194475268Y-47404654D01*
X194475268Y-47404654D02*
X194522887Y-47452273D01*
X195475268Y-48357035D02*
X194903840Y-48357035D01*
X195189554Y-48357035D02*
X195189554Y-47357035D01*
X195189554Y-47357035D02*
X195094316Y-47499892D01*
X195094316Y-47499892D02*
X194999078Y-47595130D01*
X194999078Y-47595130D02*
X194903840Y-47642749D01*
X196094316Y-47357035D02*
X196189554Y-47357035D01*
X196189554Y-47357035D02*
X196284792Y-47404654D01*
X196284792Y-47404654D02*
X196332411Y-47452273D01*
X196332411Y-47452273D02*
X196380030Y-47547511D01*
X196380030Y-47547511D02*
X196427649Y-47737987D01*
X196427649Y-47737987D02*
X196427649Y-47976082D01*
X196427649Y-47976082D02*
X196380030Y-48166558D01*
X196380030Y-48166558D02*
X196332411Y-48261796D01*
X196332411Y-48261796D02*
X196284792Y-48309416D01*
X196284792Y-48309416D02*
X196189554Y-48357035D01*
X196189554Y-48357035D02*
X196094316Y-48357035D01*
X196094316Y-48357035D02*
X195999078Y-48309416D01*
X195999078Y-48309416D02*
X195951459Y-48261796D01*
X195951459Y-48261796D02*
X195903840Y-48166558D01*
X195903840Y-48166558D02*
X195856221Y-47976082D01*
X195856221Y-47976082D02*
X195856221Y-47737987D01*
X195856221Y-47737987D02*
X195903840Y-47547511D01*
X195903840Y-47547511D02*
X195951459Y-47452273D01*
X195951459Y-47452273D02*
X195999078Y-47404654D01*
X195999078Y-47404654D02*
X196094316Y-47357035D01*
X173483619Y-50499819D02*
X173150286Y-50023628D01*
X172912191Y-50499819D02*
X172912191Y-49499819D01*
X172912191Y-49499819D02*
X173293143Y-49499819D01*
X173293143Y-49499819D02*
X173388381Y-49547438D01*
X173388381Y-49547438D02*
X173436000Y-49595057D01*
X173436000Y-49595057D02*
X173483619Y-49690295D01*
X173483619Y-49690295D02*
X173483619Y-49833152D01*
X173483619Y-49833152D02*
X173436000Y-49928390D01*
X173436000Y-49928390D02*
X173388381Y-49976009D01*
X173388381Y-49976009D02*
X173293143Y-50023628D01*
X173293143Y-50023628D02*
X172912191Y-50023628D01*
X173816953Y-49499819D02*
X174483619Y-49499819D01*
X174483619Y-49499819D02*
X174055048Y-50499819D01*
X168082142Y-43929580D02*
X168034523Y-43977200D01*
X168034523Y-43977200D02*
X167891666Y-44024819D01*
X167891666Y-44024819D02*
X167796428Y-44024819D01*
X167796428Y-44024819D02*
X167653571Y-43977200D01*
X167653571Y-43977200D02*
X167558333Y-43881961D01*
X167558333Y-43881961D02*
X167510714Y-43786723D01*
X167510714Y-43786723D02*
X167463095Y-43596247D01*
X167463095Y-43596247D02*
X167463095Y-43453390D01*
X167463095Y-43453390D02*
X167510714Y-43262914D01*
X167510714Y-43262914D02*
X167558333Y-43167676D01*
X167558333Y-43167676D02*
X167653571Y-43072438D01*
X167653571Y-43072438D02*
X167796428Y-43024819D01*
X167796428Y-43024819D02*
X167891666Y-43024819D01*
X167891666Y-43024819D02*
X168034523Y-43072438D01*
X168034523Y-43072438D02*
X168082142Y-43120057D01*
X169034523Y-44024819D02*
X168463095Y-44024819D01*
X168748809Y-44024819D02*
X168748809Y-43024819D01*
X168748809Y-43024819D02*
X168653571Y-43167676D01*
X168653571Y-43167676D02*
X168558333Y-43262914D01*
X168558333Y-43262914D02*
X168463095Y-43310533D01*
X169367857Y-43024819D02*
X169986904Y-43024819D01*
X169986904Y-43024819D02*
X169653571Y-43405771D01*
X169653571Y-43405771D02*
X169796428Y-43405771D01*
X169796428Y-43405771D02*
X169891666Y-43453390D01*
X169891666Y-43453390D02*
X169939285Y-43501009D01*
X169939285Y-43501009D02*
X169986904Y-43596247D01*
X169986904Y-43596247D02*
X169986904Y-43834342D01*
X169986904Y-43834342D02*
X169939285Y-43929580D01*
X169939285Y-43929580D02*
X169891666Y-43977200D01*
X169891666Y-43977200D02*
X169796428Y-44024819D01*
X169796428Y-44024819D02*
X169510714Y-44024819D01*
X169510714Y-44024819D02*
X169415476Y-43977200D01*
X169415476Y-43977200D02*
X169367857Y-43929580D01*
X183439916Y-47728288D02*
X183106583Y-47252097D01*
X182868488Y-47728288D02*
X182868488Y-46728288D01*
X182868488Y-46728288D02*
X183249440Y-46728288D01*
X183249440Y-46728288D02*
X183344678Y-46775907D01*
X183344678Y-46775907D02*
X183392297Y-46823526D01*
X183392297Y-46823526D02*
X183439916Y-46918764D01*
X183439916Y-46918764D02*
X183439916Y-47061621D01*
X183439916Y-47061621D02*
X183392297Y-47156859D01*
X183392297Y-47156859D02*
X183344678Y-47204478D01*
X183344678Y-47204478D02*
X183249440Y-47252097D01*
X183249440Y-47252097D02*
X182868488Y-47252097D01*
X184392297Y-47728288D02*
X183820869Y-47728288D01*
X184106583Y-47728288D02*
X184106583Y-46728288D01*
X184106583Y-46728288D02*
X184011345Y-46871145D01*
X184011345Y-46871145D02*
X183916107Y-46966383D01*
X183916107Y-46966383D02*
X183820869Y-47014002D01*
X164355105Y-56987857D02*
X163878914Y-57321190D01*
X164355105Y-57559285D02*
X163355105Y-57559285D01*
X163355105Y-57559285D02*
X163355105Y-57178333D01*
X163355105Y-57178333D02*
X163402724Y-57083095D01*
X163402724Y-57083095D02*
X163450343Y-57035476D01*
X163450343Y-57035476D02*
X163545581Y-56987857D01*
X163545581Y-56987857D02*
X163688438Y-56987857D01*
X163688438Y-56987857D02*
X163783676Y-57035476D01*
X163783676Y-57035476D02*
X163831295Y-57083095D01*
X163831295Y-57083095D02*
X163878914Y-57178333D01*
X163878914Y-57178333D02*
X163878914Y-57559285D01*
X164355105Y-56035476D02*
X164355105Y-56606904D01*
X164355105Y-56321190D02*
X163355105Y-56321190D01*
X163355105Y-56321190D02*
X163497962Y-56416428D01*
X163497962Y-56416428D02*
X163593200Y-56511666D01*
X163593200Y-56511666D02*
X163640819Y-56606904D01*
X163355105Y-55416428D02*
X163355105Y-55321190D01*
X163355105Y-55321190D02*
X163402724Y-55225952D01*
X163402724Y-55225952D02*
X163450343Y-55178333D01*
X163450343Y-55178333D02*
X163545581Y-55130714D01*
X163545581Y-55130714D02*
X163736057Y-55083095D01*
X163736057Y-55083095D02*
X163974152Y-55083095D01*
X163974152Y-55083095D02*
X164164628Y-55130714D01*
X164164628Y-55130714D02*
X164259866Y-55178333D01*
X164259866Y-55178333D02*
X164307486Y-55225952D01*
X164307486Y-55225952D02*
X164355105Y-55321190D01*
X164355105Y-55321190D02*
X164355105Y-55416428D01*
X164355105Y-55416428D02*
X164307486Y-55511666D01*
X164307486Y-55511666D02*
X164259866Y-55559285D01*
X164259866Y-55559285D02*
X164164628Y-55606904D01*
X164164628Y-55606904D02*
X163974152Y-55654523D01*
X163974152Y-55654523D02*
X163736057Y-55654523D01*
X163736057Y-55654523D02*
X163545581Y-55606904D01*
X163545581Y-55606904D02*
X163450343Y-55559285D01*
X163450343Y-55559285D02*
X163402724Y-55511666D01*
X163402724Y-55511666D02*
X163355105Y-55416428D01*
X172712191Y-63599819D02*
X172712191Y-62599819D01*
X172712191Y-62599819D02*
X172950286Y-62599819D01*
X172950286Y-62599819D02*
X173093143Y-62647438D01*
X173093143Y-62647438D02*
X173188381Y-62742676D01*
X173188381Y-62742676D02*
X173236000Y-62837914D01*
X173236000Y-62837914D02*
X173283619Y-63028390D01*
X173283619Y-63028390D02*
X173283619Y-63171247D01*
X173283619Y-63171247D02*
X173236000Y-63361723D01*
X173236000Y-63361723D02*
X173188381Y-63456961D01*
X173188381Y-63456961D02*
X173093143Y-63552200D01*
X173093143Y-63552200D02*
X172950286Y-63599819D01*
X172950286Y-63599819D02*
X172712191Y-63599819D01*
X173616953Y-62599819D02*
X174236000Y-62599819D01*
X174236000Y-62599819D02*
X173902667Y-62980771D01*
X173902667Y-62980771D02*
X174045524Y-62980771D01*
X174045524Y-62980771D02*
X174140762Y-63028390D01*
X174140762Y-63028390D02*
X174188381Y-63076009D01*
X174188381Y-63076009D02*
X174236000Y-63171247D01*
X174236000Y-63171247D02*
X174236000Y-63409342D01*
X174236000Y-63409342D02*
X174188381Y-63504580D01*
X174188381Y-63504580D02*
X174140762Y-63552200D01*
X174140762Y-63552200D02*
X174045524Y-63599819D01*
X174045524Y-63599819D02*
X173759810Y-63599819D01*
X173759810Y-63599819D02*
X173664572Y-63552200D01*
X173664572Y-63552200D02*
X173616953Y-63504580D01*
X188159819Y-42641952D02*
X187683628Y-42975285D01*
X188159819Y-43213380D02*
X187159819Y-43213380D01*
X187159819Y-43213380D02*
X187159819Y-42832428D01*
X187159819Y-42832428D02*
X187207438Y-42737190D01*
X187207438Y-42737190D02*
X187255057Y-42689571D01*
X187255057Y-42689571D02*
X187350295Y-42641952D01*
X187350295Y-42641952D02*
X187493152Y-42641952D01*
X187493152Y-42641952D02*
X187588390Y-42689571D01*
X187588390Y-42689571D02*
X187636009Y-42737190D01*
X187636009Y-42737190D02*
X187683628Y-42832428D01*
X187683628Y-42832428D02*
X187683628Y-43213380D01*
X187159819Y-42308618D02*
X187159819Y-41689571D01*
X187159819Y-41689571D02*
X187540771Y-42022904D01*
X187540771Y-42022904D02*
X187540771Y-41880047D01*
X187540771Y-41880047D02*
X187588390Y-41784809D01*
X187588390Y-41784809D02*
X187636009Y-41737190D01*
X187636009Y-41737190D02*
X187731247Y-41689571D01*
X187731247Y-41689571D02*
X187969342Y-41689571D01*
X187969342Y-41689571D02*
X188064580Y-41737190D01*
X188064580Y-41737190D02*
X188112200Y-41784809D01*
X188112200Y-41784809D02*
X188159819Y-41880047D01*
X188159819Y-41880047D02*
X188159819Y-42165761D01*
X188159819Y-42165761D02*
X188112200Y-42260999D01*
X188112200Y-42260999D02*
X188064580Y-42308618D01*
X199359580Y-44391666D02*
X199407200Y-44439285D01*
X199407200Y-44439285D02*
X199454819Y-44582142D01*
X199454819Y-44582142D02*
X199454819Y-44677380D01*
X199454819Y-44677380D02*
X199407200Y-44820237D01*
X199407200Y-44820237D02*
X199311961Y-44915475D01*
X199311961Y-44915475D02*
X199216723Y-44963094D01*
X199216723Y-44963094D02*
X199026247Y-45010713D01*
X199026247Y-45010713D02*
X198883390Y-45010713D01*
X198883390Y-45010713D02*
X198692914Y-44963094D01*
X198692914Y-44963094D02*
X198597676Y-44915475D01*
X198597676Y-44915475D02*
X198502438Y-44820237D01*
X198502438Y-44820237D02*
X198454819Y-44677380D01*
X198454819Y-44677380D02*
X198454819Y-44582142D01*
X198454819Y-44582142D02*
X198502438Y-44439285D01*
X198502438Y-44439285D02*
X198550057Y-44391666D01*
X199454819Y-43915475D02*
X199454819Y-43724999D01*
X199454819Y-43724999D02*
X199407200Y-43629761D01*
X199407200Y-43629761D02*
X199359580Y-43582142D01*
X199359580Y-43582142D02*
X199216723Y-43486904D01*
X199216723Y-43486904D02*
X199026247Y-43439285D01*
X199026247Y-43439285D02*
X198645295Y-43439285D01*
X198645295Y-43439285D02*
X198550057Y-43486904D01*
X198550057Y-43486904D02*
X198502438Y-43534523D01*
X198502438Y-43534523D02*
X198454819Y-43629761D01*
X198454819Y-43629761D02*
X198454819Y-43820237D01*
X198454819Y-43820237D02*
X198502438Y-43915475D01*
X198502438Y-43915475D02*
X198550057Y-43963094D01*
X198550057Y-43963094D02*
X198645295Y-44010713D01*
X198645295Y-44010713D02*
X198883390Y-44010713D01*
X198883390Y-44010713D02*
X198978628Y-43963094D01*
X198978628Y-43963094D02*
X199026247Y-43915475D01*
X199026247Y-43915475D02*
X199073866Y-43820237D01*
X199073866Y-43820237D02*
X199073866Y-43629761D01*
X199073866Y-43629761D02*
X199026247Y-43534523D01*
X199026247Y-43534523D02*
X198978628Y-43486904D01*
X198978628Y-43486904D02*
X198883390Y-43439285D01*
X183899823Y-59671510D02*
X183852204Y-59719130D01*
X183852204Y-59719130D02*
X183709347Y-59766749D01*
X183709347Y-59766749D02*
X183614109Y-59766749D01*
X183614109Y-59766749D02*
X183471252Y-59719130D01*
X183471252Y-59719130D02*
X183376014Y-59623891D01*
X183376014Y-59623891D02*
X183328395Y-59528653D01*
X183328395Y-59528653D02*
X183280776Y-59338177D01*
X183280776Y-59338177D02*
X183280776Y-59195320D01*
X183280776Y-59195320D02*
X183328395Y-59004844D01*
X183328395Y-59004844D02*
X183376014Y-58909606D01*
X183376014Y-58909606D02*
X183471252Y-58814368D01*
X183471252Y-58814368D02*
X183614109Y-58766749D01*
X183614109Y-58766749D02*
X183709347Y-58766749D01*
X183709347Y-58766749D02*
X183852204Y-58814368D01*
X183852204Y-58814368D02*
X183899823Y-58861987D01*
X184471252Y-59195320D02*
X184376014Y-59147701D01*
X184376014Y-59147701D02*
X184328395Y-59100082D01*
X184328395Y-59100082D02*
X184280776Y-59004844D01*
X184280776Y-59004844D02*
X184280776Y-58957225D01*
X184280776Y-58957225D02*
X184328395Y-58861987D01*
X184328395Y-58861987D02*
X184376014Y-58814368D01*
X184376014Y-58814368D02*
X184471252Y-58766749D01*
X184471252Y-58766749D02*
X184661728Y-58766749D01*
X184661728Y-58766749D02*
X184756966Y-58814368D01*
X184756966Y-58814368D02*
X184804585Y-58861987D01*
X184804585Y-58861987D02*
X184852204Y-58957225D01*
X184852204Y-58957225D02*
X184852204Y-59004844D01*
X184852204Y-59004844D02*
X184804585Y-59100082D01*
X184804585Y-59100082D02*
X184756966Y-59147701D01*
X184756966Y-59147701D02*
X184661728Y-59195320D01*
X184661728Y-59195320D02*
X184471252Y-59195320D01*
X184471252Y-59195320D02*
X184376014Y-59242939D01*
X184376014Y-59242939D02*
X184328395Y-59290558D01*
X184328395Y-59290558D02*
X184280776Y-59385796D01*
X184280776Y-59385796D02*
X184280776Y-59576272D01*
X184280776Y-59576272D02*
X184328395Y-59671510D01*
X184328395Y-59671510D02*
X184376014Y-59719130D01*
X184376014Y-59719130D02*
X184471252Y-59766749D01*
X184471252Y-59766749D02*
X184661728Y-59766749D01*
X184661728Y-59766749D02*
X184756966Y-59719130D01*
X184756966Y-59719130D02*
X184804585Y-59671510D01*
X184804585Y-59671510D02*
X184852204Y-59576272D01*
X184852204Y-59576272D02*
X184852204Y-59385796D01*
X184852204Y-59385796D02*
X184804585Y-59290558D01*
X184804585Y-59290558D02*
X184756966Y-59242939D01*
X184756966Y-59242939D02*
X184661728Y-59195320D01*
X182612191Y-63599819D02*
X182612191Y-62599819D01*
X182612191Y-62599819D02*
X182850286Y-62599819D01*
X182850286Y-62599819D02*
X182993143Y-62647438D01*
X182993143Y-62647438D02*
X183088381Y-62742676D01*
X183088381Y-62742676D02*
X183136000Y-62837914D01*
X183136000Y-62837914D02*
X183183619Y-63028390D01*
X183183619Y-63028390D02*
X183183619Y-63171247D01*
X183183619Y-63171247D02*
X183136000Y-63361723D01*
X183136000Y-63361723D02*
X183088381Y-63456961D01*
X183088381Y-63456961D02*
X182993143Y-63552200D01*
X182993143Y-63552200D02*
X182850286Y-63599819D01*
X182850286Y-63599819D02*
X182612191Y-63599819D01*
X184136000Y-63599819D02*
X183564572Y-63599819D01*
X183850286Y-63599819D02*
X183850286Y-62599819D01*
X183850286Y-62599819D02*
X183755048Y-62742676D01*
X183755048Y-62742676D02*
X183659810Y-62837914D01*
X183659810Y-62837914D02*
X183564572Y-62885533D01*
X193832584Y-48662291D02*
X193832584Y-49471814D01*
X193832584Y-49471814D02*
X193880203Y-49567052D01*
X193880203Y-49567052D02*
X193927822Y-49614672D01*
X193927822Y-49614672D02*
X194023060Y-49662291D01*
X194023060Y-49662291D02*
X194213536Y-49662291D01*
X194213536Y-49662291D02*
X194308774Y-49614672D01*
X194308774Y-49614672D02*
X194356393Y-49567052D01*
X194356393Y-49567052D02*
X194404012Y-49471814D01*
X194404012Y-49471814D02*
X194404012Y-48662291D01*
X194832584Y-48757529D02*
X194880203Y-48709910D01*
X194880203Y-48709910D02*
X194975441Y-48662291D01*
X194975441Y-48662291D02*
X195213536Y-48662291D01*
X195213536Y-48662291D02*
X195308774Y-48709910D01*
X195308774Y-48709910D02*
X195356393Y-48757529D01*
X195356393Y-48757529D02*
X195404012Y-48852767D01*
X195404012Y-48852767D02*
X195404012Y-48948005D01*
X195404012Y-48948005D02*
X195356393Y-49090862D01*
X195356393Y-49090862D02*
X194784965Y-49662291D01*
X194784965Y-49662291D02*
X195404012Y-49662291D01*
X199058333Y-61359580D02*
X199010714Y-61407200D01*
X199010714Y-61407200D02*
X198867857Y-61454819D01*
X198867857Y-61454819D02*
X198772619Y-61454819D01*
X198772619Y-61454819D02*
X198629762Y-61407200D01*
X198629762Y-61407200D02*
X198534524Y-61311961D01*
X198534524Y-61311961D02*
X198486905Y-61216723D01*
X198486905Y-61216723D02*
X198439286Y-61026247D01*
X198439286Y-61026247D02*
X198439286Y-60883390D01*
X198439286Y-60883390D02*
X198486905Y-60692914D01*
X198486905Y-60692914D02*
X198534524Y-60597676D01*
X198534524Y-60597676D02*
X198629762Y-60502438D01*
X198629762Y-60502438D02*
X198772619Y-60454819D01*
X198772619Y-60454819D02*
X198867857Y-60454819D01*
X198867857Y-60454819D02*
X199010714Y-60502438D01*
X199010714Y-60502438D02*
X199058333Y-60550057D01*
X199439286Y-60550057D02*
X199486905Y-60502438D01*
X199486905Y-60502438D02*
X199582143Y-60454819D01*
X199582143Y-60454819D02*
X199820238Y-60454819D01*
X199820238Y-60454819D02*
X199915476Y-60502438D01*
X199915476Y-60502438D02*
X199963095Y-60550057D01*
X199963095Y-60550057D02*
X200010714Y-60645295D01*
X200010714Y-60645295D02*
X200010714Y-60740533D01*
X200010714Y-60740533D02*
X199963095Y-60883390D01*
X199963095Y-60883390D02*
X199391667Y-61454819D01*
X199391667Y-61454819D02*
X200010714Y-61454819D01*
X183378801Y-43010227D02*
X183045468Y-42534036D01*
X182807373Y-43010227D02*
X182807373Y-42010227D01*
X182807373Y-42010227D02*
X183188325Y-42010227D01*
X183188325Y-42010227D02*
X183283563Y-42057846D01*
X183283563Y-42057846D02*
X183331182Y-42105465D01*
X183331182Y-42105465D02*
X183378801Y-42200703D01*
X183378801Y-42200703D02*
X183378801Y-42343560D01*
X183378801Y-42343560D02*
X183331182Y-42438798D01*
X183331182Y-42438798D02*
X183283563Y-42486417D01*
X183283563Y-42486417D02*
X183188325Y-42534036D01*
X183188325Y-42534036D02*
X182807373Y-42534036D01*
X183759754Y-42105465D02*
X183807373Y-42057846D01*
X183807373Y-42057846D02*
X183902611Y-42010227D01*
X183902611Y-42010227D02*
X184140706Y-42010227D01*
X184140706Y-42010227D02*
X184235944Y-42057846D01*
X184235944Y-42057846D02*
X184283563Y-42105465D01*
X184283563Y-42105465D02*
X184331182Y-42200703D01*
X184331182Y-42200703D02*
X184331182Y-42295941D01*
X184331182Y-42295941D02*
X184283563Y-42438798D01*
X184283563Y-42438798D02*
X183712135Y-43010227D01*
X183712135Y-43010227D02*
X184331182Y-43010227D01*
X186697428Y-62249819D02*
X186364095Y-61773628D01*
X186126000Y-62249819D02*
X186126000Y-61249819D01*
X186126000Y-61249819D02*
X186506952Y-61249819D01*
X186506952Y-61249819D02*
X186602190Y-61297438D01*
X186602190Y-61297438D02*
X186649809Y-61345057D01*
X186649809Y-61345057D02*
X186697428Y-61440295D01*
X186697428Y-61440295D02*
X186697428Y-61583152D01*
X186697428Y-61583152D02*
X186649809Y-61678390D01*
X186649809Y-61678390D02*
X186602190Y-61726009D01*
X186602190Y-61726009D02*
X186506952Y-61773628D01*
X186506952Y-61773628D02*
X186126000Y-61773628D01*
X187649809Y-62249819D02*
X187078381Y-62249819D01*
X187364095Y-62249819D02*
X187364095Y-61249819D01*
X187364095Y-61249819D02*
X187268857Y-61392676D01*
X187268857Y-61392676D02*
X187173619Y-61487914D01*
X187173619Y-61487914D02*
X187078381Y-61535533D01*
X188506952Y-61583152D02*
X188506952Y-62249819D01*
X188268857Y-61202200D02*
X188030762Y-61916485D01*
X188030762Y-61916485D02*
X188649809Y-61916485D01*
X171359580Y-50166666D02*
X171407200Y-50214285D01*
X171407200Y-50214285D02*
X171454819Y-50357142D01*
X171454819Y-50357142D02*
X171454819Y-50452380D01*
X171454819Y-50452380D02*
X171407200Y-50595237D01*
X171407200Y-50595237D02*
X171311961Y-50690475D01*
X171311961Y-50690475D02*
X171216723Y-50738094D01*
X171216723Y-50738094D02*
X171026247Y-50785713D01*
X171026247Y-50785713D02*
X170883390Y-50785713D01*
X170883390Y-50785713D02*
X170692914Y-50738094D01*
X170692914Y-50738094D02*
X170597676Y-50690475D01*
X170597676Y-50690475D02*
X170502438Y-50595237D01*
X170502438Y-50595237D02*
X170454819Y-50452380D01*
X170454819Y-50452380D02*
X170454819Y-50357142D01*
X170454819Y-50357142D02*
X170502438Y-50214285D01*
X170502438Y-50214285D02*
X170550057Y-50166666D01*
X170788152Y-49309523D02*
X171454819Y-49309523D01*
X170407200Y-49547618D02*
X171121485Y-49785713D01*
X171121485Y-49785713D02*
X171121485Y-49166666D01*
X181467849Y-59566229D02*
X181420230Y-59613849D01*
X181420230Y-59613849D02*
X181277373Y-59661468D01*
X181277373Y-59661468D02*
X181182135Y-59661468D01*
X181182135Y-59661468D02*
X181039278Y-59613849D01*
X181039278Y-59613849D02*
X180944040Y-59518610D01*
X180944040Y-59518610D02*
X180896421Y-59423372D01*
X180896421Y-59423372D02*
X180848802Y-59232896D01*
X180848802Y-59232896D02*
X180848802Y-59090039D01*
X180848802Y-59090039D02*
X180896421Y-58899563D01*
X180896421Y-58899563D02*
X180944040Y-58804325D01*
X180944040Y-58804325D02*
X181039278Y-58709087D01*
X181039278Y-58709087D02*
X181182135Y-58661468D01*
X181182135Y-58661468D02*
X181277373Y-58661468D01*
X181277373Y-58661468D02*
X181420230Y-58709087D01*
X181420230Y-58709087D02*
X181467849Y-58756706D01*
X181801183Y-58661468D02*
X182467849Y-58661468D01*
X182467849Y-58661468D02*
X182039278Y-59661468D01*
X184925105Y-51786666D02*
X184448914Y-52119999D01*
X184925105Y-52358094D02*
X183925105Y-52358094D01*
X183925105Y-52358094D02*
X183925105Y-51977142D01*
X183925105Y-51977142D02*
X183972724Y-51881904D01*
X183972724Y-51881904D02*
X184020343Y-51834285D01*
X184020343Y-51834285D02*
X184115581Y-51786666D01*
X184115581Y-51786666D02*
X184258438Y-51786666D01*
X184258438Y-51786666D02*
X184353676Y-51834285D01*
X184353676Y-51834285D02*
X184401295Y-51881904D01*
X184401295Y-51881904D02*
X184448914Y-51977142D01*
X184448914Y-51977142D02*
X184448914Y-52358094D01*
X183925105Y-50881904D02*
X183925105Y-51358094D01*
X183925105Y-51358094D02*
X184401295Y-51405713D01*
X184401295Y-51405713D02*
X184353676Y-51358094D01*
X184353676Y-51358094D02*
X184306057Y-51262856D01*
X184306057Y-51262856D02*
X184306057Y-51024761D01*
X184306057Y-51024761D02*
X184353676Y-50929523D01*
X184353676Y-50929523D02*
X184401295Y-50881904D01*
X184401295Y-50881904D02*
X184496533Y-50834285D01*
X184496533Y-50834285D02*
X184734628Y-50834285D01*
X184734628Y-50834285D02*
X184829866Y-50881904D01*
X184829866Y-50881904D02*
X184877486Y-50929523D01*
X184877486Y-50929523D02*
X184925105Y-51024761D01*
X184925105Y-51024761D02*
X184925105Y-51262856D01*
X184925105Y-51262856D02*
X184877486Y-51358094D01*
X184877486Y-51358094D02*
X184829866Y-51405713D01*
X183362295Y-51536785D02*
X182981342Y-51803452D01*
X183362295Y-51993928D02*
X182562295Y-51993928D01*
X182562295Y-51993928D02*
X182562295Y-51689166D01*
X182562295Y-51689166D02*
X182600390Y-51612976D01*
X182600390Y-51612976D02*
X182638485Y-51574881D01*
X182638485Y-51574881D02*
X182714676Y-51536785D01*
X182714676Y-51536785D02*
X182828961Y-51536785D01*
X182828961Y-51536785D02*
X182905152Y-51574881D01*
X182905152Y-51574881D02*
X182943247Y-51612976D01*
X182943247Y-51612976D02*
X182981342Y-51689166D01*
X182981342Y-51689166D02*
X182981342Y-51993928D01*
X183362295Y-50774881D02*
X183362295Y-51232024D01*
X183362295Y-51003452D02*
X182562295Y-51003452D01*
X182562295Y-51003452D02*
X182676580Y-51079643D01*
X182676580Y-51079643D02*
X182752771Y-51155833D01*
X182752771Y-51155833D02*
X182790866Y-51232024D01*
X183362295Y-50012976D02*
X183362295Y-50470119D01*
X183362295Y-50241547D02*
X182562295Y-50241547D01*
X182562295Y-50241547D02*
X182676580Y-50317738D01*
X182676580Y-50317738D02*
X182752771Y-50393928D01*
X182752771Y-50393928D02*
X182790866Y-50470119D01*
X187652271Y-53981809D02*
X187604652Y-54029429D01*
X187604652Y-54029429D02*
X187461795Y-54077048D01*
X187461795Y-54077048D02*
X187366557Y-54077048D01*
X187366557Y-54077048D02*
X187223700Y-54029429D01*
X187223700Y-54029429D02*
X187128462Y-53934190D01*
X187128462Y-53934190D02*
X187080843Y-53838952D01*
X187080843Y-53838952D02*
X187033224Y-53648476D01*
X187033224Y-53648476D02*
X187033224Y-53505619D01*
X187033224Y-53505619D02*
X187080843Y-53315143D01*
X187080843Y-53315143D02*
X187128462Y-53219905D01*
X187128462Y-53219905D02*
X187223700Y-53124667D01*
X187223700Y-53124667D02*
X187366557Y-53077048D01*
X187366557Y-53077048D02*
X187461795Y-53077048D01*
X187461795Y-53077048D02*
X187604652Y-53124667D01*
X187604652Y-53124667D02*
X187652271Y-53172286D01*
X187985605Y-53077048D02*
X188604652Y-53077048D01*
X188604652Y-53077048D02*
X188271319Y-53458000D01*
X188271319Y-53458000D02*
X188414176Y-53458000D01*
X188414176Y-53458000D02*
X188509414Y-53505619D01*
X188509414Y-53505619D02*
X188557033Y-53553238D01*
X188557033Y-53553238D02*
X188604652Y-53648476D01*
X188604652Y-53648476D02*
X188604652Y-53886571D01*
X188604652Y-53886571D02*
X188557033Y-53981809D01*
X188557033Y-53981809D02*
X188509414Y-54029429D01*
X188509414Y-54029429D02*
X188414176Y-54077048D01*
X188414176Y-54077048D02*
X188128462Y-54077048D01*
X188128462Y-54077048D02*
X188033224Y-54029429D01*
X188033224Y-54029429D02*
X187985605Y-53981809D01*
X183335412Y-49272444D02*
X183287793Y-49320064D01*
X183287793Y-49320064D02*
X183144936Y-49367683D01*
X183144936Y-49367683D02*
X183049698Y-49367683D01*
X183049698Y-49367683D02*
X182906841Y-49320064D01*
X182906841Y-49320064D02*
X182811603Y-49224825D01*
X182811603Y-49224825D02*
X182763984Y-49129587D01*
X182763984Y-49129587D02*
X182716365Y-48939111D01*
X182716365Y-48939111D02*
X182716365Y-48796254D01*
X182716365Y-48796254D02*
X182763984Y-48605778D01*
X182763984Y-48605778D02*
X182811603Y-48510540D01*
X182811603Y-48510540D02*
X182906841Y-48415302D01*
X182906841Y-48415302D02*
X183049698Y-48367683D01*
X183049698Y-48367683D02*
X183144936Y-48367683D01*
X183144936Y-48367683D02*
X183287793Y-48415302D01*
X183287793Y-48415302D02*
X183335412Y-48462921D01*
X184287793Y-49367683D02*
X183716365Y-49367683D01*
X184002079Y-49367683D02*
X184002079Y-48367683D01*
X184002079Y-48367683D02*
X183906841Y-48510540D01*
X183906841Y-48510540D02*
X183811603Y-48605778D01*
X183811603Y-48605778D02*
X183716365Y-48653397D01*
X185192555Y-48367683D02*
X184716365Y-48367683D01*
X184716365Y-48367683D02*
X184668746Y-48843873D01*
X184668746Y-48843873D02*
X184716365Y-48796254D01*
X184716365Y-48796254D02*
X184811603Y-48748635D01*
X184811603Y-48748635D02*
X185049698Y-48748635D01*
X185049698Y-48748635D02*
X185144936Y-48796254D01*
X185144936Y-48796254D02*
X185192555Y-48843873D01*
X185192555Y-48843873D02*
X185240174Y-48939111D01*
X185240174Y-48939111D02*
X185240174Y-49177206D01*
X185240174Y-49177206D02*
X185192555Y-49272444D01*
X185192555Y-49272444D02*
X185144936Y-49320064D01*
X185144936Y-49320064D02*
X185049698Y-49367683D01*
X185049698Y-49367683D02*
X184811603Y-49367683D01*
X184811603Y-49367683D02*
X184716365Y-49320064D01*
X184716365Y-49320064D02*
X184668746Y-49272444D01*
X197889966Y-49313991D02*
X197413775Y-49647324D01*
X197889966Y-49885419D02*
X196889966Y-49885419D01*
X196889966Y-49885419D02*
X196889966Y-49504467D01*
X196889966Y-49504467D02*
X196937585Y-49409229D01*
X196937585Y-49409229D02*
X196985204Y-49361610D01*
X196985204Y-49361610D02*
X197080442Y-49313991D01*
X197080442Y-49313991D02*
X197223299Y-49313991D01*
X197223299Y-49313991D02*
X197318537Y-49361610D01*
X197318537Y-49361610D02*
X197366156Y-49409229D01*
X197366156Y-49409229D02*
X197413775Y-49504467D01*
X197413775Y-49504467D02*
X197413775Y-49885419D01*
X197223299Y-48456848D02*
X197889966Y-48456848D01*
X196842347Y-48694943D02*
X197556632Y-48933038D01*
X197556632Y-48933038D02*
X197556632Y-48313991D01*
X162812191Y-63599819D02*
X162812191Y-62599819D01*
X162812191Y-62599819D02*
X163050286Y-62599819D01*
X163050286Y-62599819D02*
X163193143Y-62647438D01*
X163193143Y-62647438D02*
X163288381Y-62742676D01*
X163288381Y-62742676D02*
X163336000Y-62837914D01*
X163336000Y-62837914D02*
X163383619Y-63028390D01*
X163383619Y-63028390D02*
X163383619Y-63171247D01*
X163383619Y-63171247D02*
X163336000Y-63361723D01*
X163336000Y-63361723D02*
X163288381Y-63456961D01*
X163288381Y-63456961D02*
X163193143Y-63552200D01*
X163193143Y-63552200D02*
X163050286Y-63599819D01*
X163050286Y-63599819D02*
X162812191Y-63599819D01*
X164288381Y-62599819D02*
X163812191Y-62599819D01*
X163812191Y-62599819D02*
X163764572Y-63076009D01*
X163764572Y-63076009D02*
X163812191Y-63028390D01*
X163812191Y-63028390D02*
X163907429Y-62980771D01*
X163907429Y-62980771D02*
X164145524Y-62980771D01*
X164145524Y-62980771D02*
X164240762Y-63028390D01*
X164240762Y-63028390D02*
X164288381Y-63076009D01*
X164288381Y-63076009D02*
X164336000Y-63171247D01*
X164336000Y-63171247D02*
X164336000Y-63409342D01*
X164336000Y-63409342D02*
X164288381Y-63504580D01*
X164288381Y-63504580D02*
X164240762Y-63552200D01*
X164240762Y-63552200D02*
X164145524Y-63599819D01*
X164145524Y-63599819D02*
X163907429Y-63599819D01*
X163907429Y-63599819D02*
X163812191Y-63552200D01*
X163812191Y-63552200D02*
X163764572Y-63504580D01*
X183454819Y-56142857D02*
X182978628Y-56476190D01*
X183454819Y-56714285D02*
X182454819Y-56714285D01*
X182454819Y-56714285D02*
X182454819Y-56333333D01*
X182454819Y-56333333D02*
X182502438Y-56238095D01*
X182502438Y-56238095D02*
X182550057Y-56190476D01*
X182550057Y-56190476D02*
X182645295Y-56142857D01*
X182645295Y-56142857D02*
X182788152Y-56142857D01*
X182788152Y-56142857D02*
X182883390Y-56190476D01*
X182883390Y-56190476D02*
X182931009Y-56238095D01*
X182931009Y-56238095D02*
X182978628Y-56333333D01*
X182978628Y-56333333D02*
X182978628Y-56714285D01*
X183454819Y-55190476D02*
X183454819Y-55761904D01*
X183454819Y-55476190D02*
X182454819Y-55476190D01*
X182454819Y-55476190D02*
X182597676Y-55571428D01*
X182597676Y-55571428D02*
X182692914Y-55666666D01*
X182692914Y-55666666D02*
X182740533Y-55761904D01*
X182454819Y-54857142D02*
X182454819Y-54238095D01*
X182454819Y-54238095D02*
X182835771Y-54571428D01*
X182835771Y-54571428D02*
X182835771Y-54428571D01*
X182835771Y-54428571D02*
X182883390Y-54333333D01*
X182883390Y-54333333D02*
X182931009Y-54285714D01*
X182931009Y-54285714D02*
X183026247Y-54238095D01*
X183026247Y-54238095D02*
X183264342Y-54238095D01*
X183264342Y-54238095D02*
X183359580Y-54285714D01*
X183359580Y-54285714D02*
X183407200Y-54333333D01*
X183407200Y-54333333D02*
X183454819Y-54428571D01*
X183454819Y-54428571D02*
X183454819Y-54714285D01*
X183454819Y-54714285D02*
X183407200Y-54809523D01*
X183407200Y-54809523D02*
X183359580Y-54857142D01*
X169824223Y-49910908D02*
X169348032Y-50244241D01*
X169824223Y-50482336D02*
X168824223Y-50482336D01*
X168824223Y-50482336D02*
X168824223Y-50101384D01*
X168824223Y-50101384D02*
X168871842Y-50006146D01*
X168871842Y-50006146D02*
X168919461Y-49958527D01*
X168919461Y-49958527D02*
X169014699Y-49910908D01*
X169014699Y-49910908D02*
X169157556Y-49910908D01*
X169157556Y-49910908D02*
X169252794Y-49958527D01*
X169252794Y-49958527D02*
X169300413Y-50006146D01*
X169300413Y-50006146D02*
X169348032Y-50101384D01*
X169348032Y-50101384D02*
X169348032Y-50482336D01*
X169252794Y-49339479D02*
X169205175Y-49434717D01*
X169205175Y-49434717D02*
X169157556Y-49482336D01*
X169157556Y-49482336D02*
X169062318Y-49529955D01*
X169062318Y-49529955D02*
X169014699Y-49529955D01*
X169014699Y-49529955D02*
X168919461Y-49482336D01*
X168919461Y-49482336D02*
X168871842Y-49434717D01*
X168871842Y-49434717D02*
X168824223Y-49339479D01*
X168824223Y-49339479D02*
X168824223Y-49149003D01*
X168824223Y-49149003D02*
X168871842Y-49053765D01*
X168871842Y-49053765D02*
X168919461Y-49006146D01*
X168919461Y-49006146D02*
X169014699Y-48958527D01*
X169014699Y-48958527D02*
X169062318Y-48958527D01*
X169062318Y-48958527D02*
X169157556Y-49006146D01*
X169157556Y-49006146D02*
X169205175Y-49053765D01*
X169205175Y-49053765D02*
X169252794Y-49149003D01*
X169252794Y-49149003D02*
X169252794Y-49339479D01*
X169252794Y-49339479D02*
X169300413Y-49434717D01*
X169300413Y-49434717D02*
X169348032Y-49482336D01*
X169348032Y-49482336D02*
X169443270Y-49529955D01*
X169443270Y-49529955D02*
X169633746Y-49529955D01*
X169633746Y-49529955D02*
X169728984Y-49482336D01*
X169728984Y-49482336D02*
X169776604Y-49434717D01*
X169776604Y-49434717D02*
X169824223Y-49339479D01*
X169824223Y-49339479D02*
X169824223Y-49149003D01*
X169824223Y-49149003D02*
X169776604Y-49053765D01*
X169776604Y-49053765D02*
X169728984Y-49006146D01*
X169728984Y-49006146D02*
X169633746Y-48958527D01*
X169633746Y-48958527D02*
X169443270Y-48958527D01*
X169443270Y-48958527D02*
X169348032Y-49006146D01*
X169348032Y-49006146D02*
X169300413Y-49053765D01*
X169300413Y-49053765D02*
X169252794Y-49149003D01*
X175447428Y-50499819D02*
X175114095Y-50023628D01*
X174876000Y-50499819D02*
X174876000Y-49499819D01*
X174876000Y-49499819D02*
X175256952Y-49499819D01*
X175256952Y-49499819D02*
X175352190Y-49547438D01*
X175352190Y-49547438D02*
X175399809Y-49595057D01*
X175399809Y-49595057D02*
X175447428Y-49690295D01*
X175447428Y-49690295D02*
X175447428Y-49833152D01*
X175447428Y-49833152D02*
X175399809Y-49928390D01*
X175399809Y-49928390D02*
X175352190Y-49976009D01*
X175352190Y-49976009D02*
X175256952Y-50023628D01*
X175256952Y-50023628D02*
X174876000Y-50023628D01*
X176399809Y-50499819D02*
X175828381Y-50499819D01*
X176114095Y-50499819D02*
X176114095Y-49499819D01*
X176114095Y-49499819D02*
X176018857Y-49642676D01*
X176018857Y-49642676D02*
X175923619Y-49737914D01*
X175923619Y-49737914D02*
X175828381Y-49785533D01*
X176780762Y-49595057D02*
X176828381Y-49547438D01*
X176828381Y-49547438D02*
X176923619Y-49499819D01*
X176923619Y-49499819D02*
X177161714Y-49499819D01*
X177161714Y-49499819D02*
X177256952Y-49547438D01*
X177256952Y-49547438D02*
X177304571Y-49595057D01*
X177304571Y-49595057D02*
X177352190Y-49690295D01*
X177352190Y-49690295D02*
X177352190Y-49785533D01*
X177352190Y-49785533D02*
X177304571Y-49928390D01*
X177304571Y-49928390D02*
X176733143Y-50499819D01*
X176733143Y-50499819D02*
X177352190Y-50499819D01*
X167977726Y-56359317D02*
X167644393Y-55883126D01*
X167406298Y-56359317D02*
X167406298Y-55359317D01*
X167406298Y-55359317D02*
X167787250Y-55359317D01*
X167787250Y-55359317D02*
X167882488Y-55406936D01*
X167882488Y-55406936D02*
X167930107Y-55454555D01*
X167930107Y-55454555D02*
X167977726Y-55549793D01*
X167977726Y-55549793D02*
X167977726Y-55692650D01*
X167977726Y-55692650D02*
X167930107Y-55787888D01*
X167930107Y-55787888D02*
X167882488Y-55835507D01*
X167882488Y-55835507D02*
X167787250Y-55883126D01*
X167787250Y-55883126D02*
X167406298Y-55883126D01*
X168453917Y-56359317D02*
X168644393Y-56359317D01*
X168644393Y-56359317D02*
X168739631Y-56311698D01*
X168739631Y-56311698D02*
X168787250Y-56264078D01*
X168787250Y-56264078D02*
X168882488Y-56121221D01*
X168882488Y-56121221D02*
X168930107Y-55930745D01*
X168930107Y-55930745D02*
X168930107Y-55549793D01*
X168930107Y-55549793D02*
X168882488Y-55454555D01*
X168882488Y-55454555D02*
X168834869Y-55406936D01*
X168834869Y-55406936D02*
X168739631Y-55359317D01*
X168739631Y-55359317D02*
X168549155Y-55359317D01*
X168549155Y-55359317D02*
X168453917Y-55406936D01*
X168453917Y-55406936D02*
X168406298Y-55454555D01*
X168406298Y-55454555D02*
X168358679Y-55549793D01*
X168358679Y-55549793D02*
X168358679Y-55787888D01*
X168358679Y-55787888D02*
X168406298Y-55883126D01*
X168406298Y-55883126D02*
X168453917Y-55930745D01*
X168453917Y-55930745D02*
X168549155Y-55978364D01*
X168549155Y-55978364D02*
X168739631Y-55978364D01*
X168739631Y-55978364D02*
X168834869Y-55930745D01*
X168834869Y-55930745D02*
X168882488Y-55883126D01*
X168882488Y-55883126D02*
X168930107Y-55787888D01*
X199982950Y-53217840D02*
X200030570Y-53265459D01*
X200030570Y-53265459D02*
X200078189Y-53408316D01*
X200078189Y-53408316D02*
X200078189Y-53503554D01*
X200078189Y-53503554D02*
X200030570Y-53646411D01*
X200030570Y-53646411D02*
X199935331Y-53741649D01*
X199935331Y-53741649D02*
X199840093Y-53789268D01*
X199840093Y-53789268D02*
X199649617Y-53836887D01*
X199649617Y-53836887D02*
X199506760Y-53836887D01*
X199506760Y-53836887D02*
X199316284Y-53789268D01*
X199316284Y-53789268D02*
X199221046Y-53741649D01*
X199221046Y-53741649D02*
X199125808Y-53646411D01*
X199125808Y-53646411D02*
X199078189Y-53503554D01*
X199078189Y-53503554D02*
X199078189Y-53408316D01*
X199078189Y-53408316D02*
X199125808Y-53265459D01*
X199125808Y-53265459D02*
X199173427Y-53217840D01*
X200078189Y-52265459D02*
X200078189Y-52836887D01*
X200078189Y-52551173D02*
X199078189Y-52551173D01*
X199078189Y-52551173D02*
X199221046Y-52646411D01*
X199221046Y-52646411D02*
X199316284Y-52741649D01*
X199316284Y-52741649D02*
X199363903Y-52836887D01*
X172495047Y-59845057D02*
X172399809Y-59797438D01*
X172399809Y-59797438D02*
X172304571Y-59702200D01*
X172304571Y-59702200D02*
X172161714Y-59559342D01*
X172161714Y-59559342D02*
X172066476Y-59511723D01*
X172066476Y-59511723D02*
X171971238Y-59511723D01*
X172018857Y-59749819D02*
X171923619Y-59702200D01*
X171923619Y-59702200D02*
X171828381Y-59606961D01*
X171828381Y-59606961D02*
X171780762Y-59416485D01*
X171780762Y-59416485D02*
X171780762Y-59083152D01*
X171780762Y-59083152D02*
X171828381Y-58892676D01*
X171828381Y-58892676D02*
X171923619Y-58797438D01*
X171923619Y-58797438D02*
X172018857Y-58749819D01*
X172018857Y-58749819D02*
X172209333Y-58749819D01*
X172209333Y-58749819D02*
X172304571Y-58797438D01*
X172304571Y-58797438D02*
X172399809Y-58892676D01*
X172399809Y-58892676D02*
X172447428Y-59083152D01*
X172447428Y-59083152D02*
X172447428Y-59416485D01*
X172447428Y-59416485D02*
X172399809Y-59606961D01*
X172399809Y-59606961D02*
X172304571Y-59702200D01*
X172304571Y-59702200D02*
X172209333Y-59749819D01*
X172209333Y-59749819D02*
X172018857Y-59749819D01*
X173399809Y-59749819D02*
X172828381Y-59749819D01*
X173114095Y-59749819D02*
X173114095Y-58749819D01*
X173114095Y-58749819D02*
X173018857Y-58892676D01*
X173018857Y-58892676D02*
X172923619Y-58987914D01*
X172923619Y-58987914D02*
X172828381Y-59035533D01*
X192852190Y-57340180D02*
X192852190Y-56530657D01*
X192852190Y-56530657D02*
X192804571Y-56435419D01*
X192804571Y-56435419D02*
X192756952Y-56387800D01*
X192756952Y-56387800D02*
X192661714Y-56340180D01*
X192661714Y-56340180D02*
X192471238Y-56340180D01*
X192471238Y-56340180D02*
X192376000Y-56387800D01*
X192376000Y-56387800D02*
X192328381Y-56435419D01*
X192328381Y-56435419D02*
X192280762Y-56530657D01*
X192280762Y-56530657D02*
X192280762Y-57340180D01*
X191328381Y-57340180D02*
X191804571Y-57340180D01*
X191804571Y-57340180D02*
X191852190Y-56863990D01*
X191852190Y-56863990D02*
X191804571Y-56911609D01*
X191804571Y-56911609D02*
X191709333Y-56959228D01*
X191709333Y-56959228D02*
X191471238Y-56959228D01*
X191471238Y-56959228D02*
X191376000Y-56911609D01*
X191376000Y-56911609D02*
X191328381Y-56863990D01*
X191328381Y-56863990D02*
X191280762Y-56768752D01*
X191280762Y-56768752D02*
X191280762Y-56530657D01*
X191280762Y-56530657D02*
X191328381Y-56435419D01*
X191328381Y-56435419D02*
X191376000Y-56387800D01*
X191376000Y-56387800D02*
X191471238Y-56340180D01*
X191471238Y-56340180D02*
X191709333Y-56340180D01*
X191709333Y-56340180D02*
X191804571Y-56387800D01*
X191804571Y-56387800D02*
X191852190Y-56435419D01*
X196479788Y-58783292D02*
X196479788Y-59021387D01*
X196241693Y-58926149D02*
X196479788Y-59021387D01*
X196479788Y-59021387D02*
X196717883Y-58926149D01*
X196336931Y-59211863D02*
X196479788Y-59021387D01*
X196479788Y-59021387D02*
X196622645Y-59211863D01*
X195874751Y-60130335D02*
X195874751Y-59892240D01*
X196112846Y-59987478D02*
X195874751Y-59892240D01*
X195874751Y-59892240D02*
X195636656Y-59987478D01*
X196017608Y-59701764D02*
X195874751Y-59892240D01*
X195874751Y-59892240D02*
X195731894Y-59701764D01*
X179245047Y-59845057D02*
X179149809Y-59797438D01*
X179149809Y-59797438D02*
X179054571Y-59702200D01*
X179054571Y-59702200D02*
X178911714Y-59559342D01*
X178911714Y-59559342D02*
X178816476Y-59511723D01*
X178816476Y-59511723D02*
X178721238Y-59511723D01*
X178768857Y-59749819D02*
X178673619Y-59702200D01*
X178673619Y-59702200D02*
X178578381Y-59606961D01*
X178578381Y-59606961D02*
X178530762Y-59416485D01*
X178530762Y-59416485D02*
X178530762Y-59083152D01*
X178530762Y-59083152D02*
X178578381Y-58892676D01*
X178578381Y-58892676D02*
X178673619Y-58797438D01*
X178673619Y-58797438D02*
X178768857Y-58749819D01*
X178768857Y-58749819D02*
X178959333Y-58749819D01*
X178959333Y-58749819D02*
X179054571Y-58797438D01*
X179054571Y-58797438D02*
X179149809Y-58892676D01*
X179149809Y-58892676D02*
X179197428Y-59083152D01*
X179197428Y-59083152D02*
X179197428Y-59416485D01*
X179197428Y-59416485D02*
X179149809Y-59606961D01*
X179149809Y-59606961D02*
X179054571Y-59702200D01*
X179054571Y-59702200D02*
X178959333Y-59749819D01*
X178959333Y-59749819D02*
X178768857Y-59749819D01*
X179578381Y-58845057D02*
X179626000Y-58797438D01*
X179626000Y-58797438D02*
X179721238Y-58749819D01*
X179721238Y-58749819D02*
X179959333Y-58749819D01*
X179959333Y-58749819D02*
X180054571Y-58797438D01*
X180054571Y-58797438D02*
X180102190Y-58845057D01*
X180102190Y-58845057D02*
X180149809Y-58940295D01*
X180149809Y-58940295D02*
X180149809Y-59035533D01*
X180149809Y-59035533D02*
X180102190Y-59178390D01*
X180102190Y-59178390D02*
X179530762Y-59749819D01*
X179530762Y-59749819D02*
X180149809Y-59749819D01*
X200758320Y-56162194D02*
X200758320Y-55352671D01*
X200758320Y-55352671D02*
X200710701Y-55257433D01*
X200710701Y-55257433D02*
X200663082Y-55209814D01*
X200663082Y-55209814D02*
X200567844Y-55162194D01*
X200567844Y-55162194D02*
X200377368Y-55162194D01*
X200377368Y-55162194D02*
X200282130Y-55209814D01*
X200282130Y-55209814D02*
X200234511Y-55257433D01*
X200234511Y-55257433D02*
X200186892Y-55352671D01*
X200186892Y-55352671D02*
X200186892Y-56162194D01*
X199282130Y-55828861D02*
X199282130Y-55162194D01*
X199520225Y-56209814D02*
X199758320Y-55495528D01*
X199758320Y-55495528D02*
X199139273Y-55495528D01*
X202676827Y-56986517D02*
X202676827Y-57224612D01*
X202438732Y-57129374D02*
X202676827Y-57224612D01*
X202676827Y-57224612D02*
X202914922Y-57129374D01*
X202533970Y-57415088D02*
X202676827Y-57224612D01*
X202676827Y-57224612D02*
X202819684Y-57415088D01*
X201362820Y-58785074D02*
X201362820Y-58546979D01*
X201600915Y-58642217D02*
X201362820Y-58546979D01*
X201362820Y-58546979D02*
X201124725Y-58642217D01*
X201505677Y-58356503D02*
X201362820Y-58546979D01*
X201362820Y-58546979D02*
X201219963Y-58356503D01*
X184522385Y-53719418D02*
X184474766Y-53767038D01*
X184474766Y-53767038D02*
X184331909Y-53814657D01*
X184331909Y-53814657D02*
X184236671Y-53814657D01*
X184236671Y-53814657D02*
X184093814Y-53767038D01*
X184093814Y-53767038D02*
X183998576Y-53671799D01*
X183998576Y-53671799D02*
X183950957Y-53576561D01*
X183950957Y-53576561D02*
X183903338Y-53386085D01*
X183903338Y-53386085D02*
X183903338Y-53243228D01*
X183903338Y-53243228D02*
X183950957Y-53052752D01*
X183950957Y-53052752D02*
X183998576Y-52957514D01*
X183998576Y-52957514D02*
X184093814Y-52862276D01*
X184093814Y-52862276D02*
X184236671Y-52814657D01*
X184236671Y-52814657D02*
X184331909Y-52814657D01*
X184331909Y-52814657D02*
X184474766Y-52862276D01*
X184474766Y-52862276D02*
X184522385Y-52909895D01*
X185474766Y-53814657D02*
X184903338Y-53814657D01*
X185189052Y-53814657D02*
X185189052Y-52814657D01*
X185189052Y-52814657D02*
X185093814Y-52957514D01*
X185093814Y-52957514D02*
X184998576Y-53052752D01*
X184998576Y-53052752D02*
X184903338Y-53100371D01*
X186331909Y-53147990D02*
X186331909Y-53814657D01*
X186093814Y-52767038D02*
X185855719Y-53481323D01*
X185855719Y-53481323D02*
X186474766Y-53481323D01*
X176605105Y-44711666D02*
X176128914Y-45044999D01*
X176605105Y-45283094D02*
X175605105Y-45283094D01*
X175605105Y-45283094D02*
X175605105Y-44902142D01*
X175605105Y-44902142D02*
X175652724Y-44806904D01*
X175652724Y-44806904D02*
X175700343Y-44759285D01*
X175700343Y-44759285D02*
X175795581Y-44711666D01*
X175795581Y-44711666D02*
X175938438Y-44711666D01*
X175938438Y-44711666D02*
X176033676Y-44759285D01*
X176033676Y-44759285D02*
X176081295Y-44806904D01*
X176081295Y-44806904D02*
X176128914Y-44902142D01*
X176128914Y-44902142D02*
X176128914Y-45283094D01*
X175605105Y-43854523D02*
X175605105Y-44044999D01*
X175605105Y-44044999D02*
X175652724Y-44140237D01*
X175652724Y-44140237D02*
X175700343Y-44187856D01*
X175700343Y-44187856D02*
X175843200Y-44283094D01*
X175843200Y-44283094D02*
X176033676Y-44330713D01*
X176033676Y-44330713D02*
X176414628Y-44330713D01*
X176414628Y-44330713D02*
X176509866Y-44283094D01*
X176509866Y-44283094D02*
X176557486Y-44235475D01*
X176557486Y-44235475D02*
X176605105Y-44140237D01*
X176605105Y-44140237D02*
X176605105Y-43949761D01*
X176605105Y-43949761D02*
X176557486Y-43854523D01*
X176557486Y-43854523D02*
X176509866Y-43806904D01*
X176509866Y-43806904D02*
X176414628Y-43759285D01*
X176414628Y-43759285D02*
X176176533Y-43759285D01*
X176176533Y-43759285D02*
X176081295Y-43806904D01*
X176081295Y-43806904D02*
X176033676Y-43854523D01*
X176033676Y-43854523D02*
X175986057Y-43949761D01*
X175986057Y-43949761D02*
X175986057Y-44140237D01*
X175986057Y-44140237D02*
X176033676Y-44235475D01*
X176033676Y-44235475D02*
X176081295Y-44283094D01*
X176081295Y-44283094D02*
X176176533Y-44330713D01*
X172188096Y-43454819D02*
X172188096Y-44264342D01*
X172188096Y-44264342D02*
X172235715Y-44359580D01*
X172235715Y-44359580D02*
X172283334Y-44407200D01*
X172283334Y-44407200D02*
X172378572Y-44454819D01*
X172378572Y-44454819D02*
X172569048Y-44454819D01*
X172569048Y-44454819D02*
X172664286Y-44407200D01*
X172664286Y-44407200D02*
X172711905Y-44359580D01*
X172711905Y-44359580D02*
X172759524Y-44264342D01*
X172759524Y-44264342D02*
X172759524Y-43454819D01*
X173140477Y-43454819D02*
X173759524Y-43454819D01*
X173759524Y-43454819D02*
X173426191Y-43835771D01*
X173426191Y-43835771D02*
X173569048Y-43835771D01*
X173569048Y-43835771D02*
X173664286Y-43883390D01*
X173664286Y-43883390D02*
X173711905Y-43931009D01*
X173711905Y-43931009D02*
X173759524Y-44026247D01*
X173759524Y-44026247D02*
X173759524Y-44264342D01*
X173759524Y-44264342D02*
X173711905Y-44359580D01*
X173711905Y-44359580D02*
X173664286Y-44407200D01*
X173664286Y-44407200D02*
X173569048Y-44454819D01*
X173569048Y-44454819D02*
X173283334Y-44454819D01*
X173283334Y-44454819D02*
X173188096Y-44407200D01*
X173188096Y-44407200D02*
X173140477Y-44359580D01*
X170354821Y-48564499D02*
X170592916Y-48564499D01*
X170497678Y-48802594D02*
X170592916Y-48564499D01*
X170592916Y-48564499D02*
X170497678Y-48326404D01*
X170783392Y-48707356D02*
X170592916Y-48564499D01*
X170592916Y-48564499D02*
X170783392Y-48421642D01*
X170354821Y-48564499D02*
X170592916Y-48564499D01*
X170497678Y-48802594D02*
X170592916Y-48564499D01*
X170592916Y-48564499D02*
X170497678Y-48326404D01*
X170783392Y-48707356D02*
X170592916Y-48564499D01*
X170592916Y-48564499D02*
X170783392Y-48421642D01*
X190359580Y-48642857D02*
X190407200Y-48690476D01*
X190407200Y-48690476D02*
X190454819Y-48833333D01*
X190454819Y-48833333D02*
X190454819Y-48928571D01*
X190454819Y-48928571D02*
X190407200Y-49071428D01*
X190407200Y-49071428D02*
X190311961Y-49166666D01*
X190311961Y-49166666D02*
X190216723Y-49214285D01*
X190216723Y-49214285D02*
X190026247Y-49261904D01*
X190026247Y-49261904D02*
X189883390Y-49261904D01*
X189883390Y-49261904D02*
X189692914Y-49214285D01*
X189692914Y-49214285D02*
X189597676Y-49166666D01*
X189597676Y-49166666D02*
X189502438Y-49071428D01*
X189502438Y-49071428D02*
X189454819Y-48928571D01*
X189454819Y-48928571D02*
X189454819Y-48833333D01*
X189454819Y-48833333D02*
X189502438Y-48690476D01*
X189502438Y-48690476D02*
X189550057Y-48642857D01*
X190454819Y-47690476D02*
X190454819Y-48261904D01*
X190454819Y-47976190D02*
X189454819Y-47976190D01*
X189454819Y-47976190D02*
X189597676Y-48071428D01*
X189597676Y-48071428D02*
X189692914Y-48166666D01*
X189692914Y-48166666D02*
X189740533Y-48261904D01*
X190454819Y-46738095D02*
X190454819Y-47309523D01*
X190454819Y-47023809D02*
X189454819Y-47023809D01*
X189454819Y-47023809D02*
X189597676Y-47119047D01*
X189597676Y-47119047D02*
X189692914Y-47214285D01*
X189692914Y-47214285D02*
X189740533Y-47309523D01*
X179753631Y-47454819D02*
X179753631Y-48264342D01*
X179753631Y-48264342D02*
X179801250Y-48359580D01*
X179801250Y-48359580D02*
X179848869Y-48407200D01*
X179848869Y-48407200D02*
X179944107Y-48454819D01*
X179944107Y-48454819D02*
X180134583Y-48454819D01*
X180134583Y-48454819D02*
X180229821Y-48407200D01*
X180229821Y-48407200D02*
X180277440Y-48359580D01*
X180277440Y-48359580D02*
X180325059Y-48264342D01*
X180325059Y-48264342D02*
X180325059Y-47454819D01*
X181229821Y-47454819D02*
X181039345Y-47454819D01*
X181039345Y-47454819D02*
X180944107Y-47502438D01*
X180944107Y-47502438D02*
X180896488Y-47550057D01*
X180896488Y-47550057D02*
X180801250Y-47692914D01*
X180801250Y-47692914D02*
X180753631Y-47883390D01*
X180753631Y-47883390D02*
X180753631Y-48264342D01*
X180753631Y-48264342D02*
X180801250Y-48359580D01*
X180801250Y-48359580D02*
X180848869Y-48407200D01*
X180848869Y-48407200D02*
X180944107Y-48454819D01*
X180944107Y-48454819D02*
X181134583Y-48454819D01*
X181134583Y-48454819D02*
X181229821Y-48407200D01*
X181229821Y-48407200D02*
X181277440Y-48359580D01*
X181277440Y-48359580D02*
X181325059Y-48264342D01*
X181325059Y-48264342D02*
X181325059Y-48026247D01*
X181325059Y-48026247D02*
X181277440Y-47931009D01*
X181277440Y-47931009D02*
X181229821Y-47883390D01*
X181229821Y-47883390D02*
X181134583Y-47835771D01*
X181134583Y-47835771D02*
X180944107Y-47835771D01*
X180944107Y-47835771D02*
X180848869Y-47883390D01*
X180848869Y-47883390D02*
X180801250Y-47931009D01*
X180801250Y-47931009D02*
X180753631Y-48026247D01*
X178896286Y-44581218D02*
X178896286Y-44819313D01*
X178658191Y-44724075D02*
X178896286Y-44819313D01*
X178896286Y-44819313D02*
X179134381Y-44724075D01*
X178753429Y-45009789D02*
X178896286Y-44819313D01*
X178896286Y-44819313D02*
X179039143Y-45009789D01*
X178896286Y-44581218D02*
X178896286Y-44819313D01*
X178658191Y-44724075D02*
X178896286Y-44819313D01*
X178896286Y-44819313D02*
X179134381Y-44724075D01*
X178753429Y-45009789D02*
X178896286Y-44819313D01*
X178896286Y-44819313D02*
X179039143Y-45009789D01*
D12*
%TO.C,C6*%
X177830286Y-52029420D02*
X177830286Y-52310580D01*
X178850286Y-52029420D02*
X178850286Y-52310580D01*
%TO.C,C12*%
X179084420Y-43490000D02*
X179365580Y-43490000D01*
X179084420Y-44510000D02*
X179365580Y-44510000D01*
%TO.C,D2*%
X180810286Y-60145000D02*
X176800286Y-60145000D01*
X180810286Y-62145000D02*
X176800286Y-62145000D01*
X180810286Y-62145000D02*
X180810286Y-60145000D01*
D13*
%TO.C,U1*%
X190631450Y-44686738D02*
X190631450Y-45413260D01*
X190631450Y-46700999D02*
X192638050Y-46700999D01*
X192638050Y-43398999D02*
X190631450Y-43398999D01*
D12*
%TO.C,C5*%
X166430286Y-52108748D02*
X166430286Y-53531252D01*
X168250286Y-52108748D02*
X168250286Y-53531252D01*
%TO.C,D4*%
X170910286Y-60145000D02*
X166900286Y-60145000D01*
X170910286Y-62145000D02*
X166900286Y-62145000D01*
X170910286Y-62145000D02*
X170910286Y-60145000D01*
%TO.C,J1*%
X204190000Y-43110000D02*
X205460000Y-43110000D01*
X204190000Y-44380000D02*
X204190000Y-43110000D01*
X206537358Y-46490000D02*
X206922642Y-46490000D01*
X206537358Y-47350000D02*
X206922642Y-47350000D01*
X206537358Y-49030000D02*
X206922642Y-49030000D01*
X206537358Y-49890000D02*
X206922642Y-49890000D01*
X206537358Y-51570000D02*
X206922642Y-51570000D01*
X206537358Y-52430000D02*
X206922642Y-52430000D01*
X206537358Y-54110000D02*
X206922642Y-54110000D01*
X206537358Y-54970000D02*
X206922642Y-54970000D01*
X206537358Y-56650000D02*
X206922642Y-56650000D01*
X206537358Y-57510000D02*
X206922642Y-57510000D01*
X206537358Y-59190000D02*
X206922642Y-59190000D01*
X206537358Y-60050000D02*
X206922642Y-60050000D01*
X206537358Y-61730000D02*
X206922642Y-61730000D01*
X206537358Y-62590000D02*
X206922642Y-62590000D01*
X206620000Y-43950000D02*
X206922642Y-43950000D01*
X206620000Y-44810000D02*
X206922642Y-44810000D01*
X209077358Y-43950000D02*
X209390000Y-43950000D01*
X209077358Y-44810000D02*
X209390000Y-44810000D01*
X209077358Y-46490000D02*
X209390000Y-46490000D01*
X209077358Y-47350000D02*
X209390000Y-47350000D01*
X209077358Y-49030000D02*
X209390000Y-49030000D01*
X209077358Y-49890000D02*
X209390000Y-49890000D01*
X209077358Y-51570000D02*
X209390000Y-51570000D01*
X209077358Y-52430000D02*
X209390000Y-52430000D01*
X209077358Y-54110000D02*
X209390000Y-54110000D01*
X209077358Y-54970000D02*
X209390000Y-54970000D01*
X209077358Y-56650000D02*
X209390000Y-56650000D01*
X209077358Y-57510000D02*
X209390000Y-57510000D01*
X209077358Y-59190000D02*
X209390000Y-59190000D01*
X209077358Y-60050000D02*
X209390000Y-60050000D01*
X209077358Y-61730000D02*
X209390000Y-61730000D01*
X209077358Y-62590000D02*
X209390000Y-62590000D01*
X209390000Y-43000000D02*
X209390000Y-63540000D01*
X209390000Y-45650000D02*
X212150000Y-45650000D01*
X209390000Y-48190000D02*
X212150000Y-48190000D01*
X209390000Y-50730000D02*
X212150000Y-50730000D01*
X209390000Y-53270000D02*
X212150000Y-53270000D01*
X209390000Y-55810000D02*
X212150000Y-55810000D01*
X209390000Y-58350000D02*
X212150000Y-58350000D01*
X209390000Y-60890000D02*
X212150000Y-60890000D01*
X209390000Y-63540000D02*
X212150000Y-63540000D01*
X212150000Y-43000000D02*
X209390000Y-43000000D01*
X212150000Y-46490000D02*
X218150000Y-46490000D01*
X212150000Y-49030000D02*
X218150000Y-49030000D01*
X212150000Y-51570000D02*
X218150000Y-51570000D01*
X212150000Y-54110000D02*
X218150000Y-54110000D01*
X212150000Y-56650000D02*
X218150000Y-56650000D01*
X212150000Y-59190000D02*
X218150000Y-59190000D01*
X212150000Y-61730000D02*
X218150000Y-61730000D01*
X212150000Y-63540000D02*
X212150000Y-43000000D01*
X218150000Y-46490000D02*
X218150000Y-47350000D01*
X218150000Y-47350000D02*
X212150000Y-47350000D01*
X218150000Y-49030000D02*
X218150000Y-49890000D01*
X218150000Y-49890000D02*
X212150000Y-49890000D01*
X218150000Y-51570000D02*
X218150000Y-52430000D01*
X218150000Y-52430000D02*
X212150000Y-52430000D01*
X218150000Y-54110000D02*
X218150000Y-54970000D01*
X218150000Y-54970000D02*
X212150000Y-54970000D01*
X218150000Y-56650000D02*
X218150000Y-57510000D01*
X218150000Y-57510000D02*
X212150000Y-57510000D01*
X218150000Y-59190000D02*
X218150000Y-60050000D01*
X218150000Y-60050000D02*
X212150000Y-60050000D01*
X218150000Y-61730000D02*
X218150000Y-62590000D01*
X218150000Y-62590000D02*
X212150000Y-62590000D01*
X212150000Y-43950000D02*
X218150000Y-43950000D01*
X218150000Y-44810000D01*
X212150000Y-44810000D01*
X212150000Y-43950000D01*
G36*
X212150000Y-43950000D02*
G01*
X218150000Y-43950000D01*
X218150000Y-44810000D01*
X212150000Y-44810000D01*
X212150000Y-43950000D01*
G37*
%TO.C,C10*%
X192365580Y-47490000D02*
X192084420Y-47490000D01*
X192365580Y-48510000D02*
X192084420Y-48510000D01*
%TO.C,R7*%
X173317786Y-52532258D02*
X173317786Y-52057742D01*
X174362786Y-52532258D02*
X174362786Y-52057742D01*
%TO.C,C13*%
X168584420Y-44490000D02*
X168865580Y-44490000D01*
X168584420Y-45510000D02*
X168865580Y-45510000D01*
%TO.C,R1*%
X183937742Y-45477500D02*
X184412258Y-45477500D01*
X183937742Y-46522500D02*
X184412258Y-46522500D01*
%TO.C,R10*%
X164817786Y-56307742D02*
X164817786Y-56782258D01*
X165862786Y-56307742D02*
X165862786Y-56782258D01*
%TO.C,D3*%
X175810286Y-60145000D02*
X171800286Y-60145000D01*
X175810286Y-62145000D02*
X171800286Y-62145000D01*
X175810286Y-62145000D02*
X175810286Y-60145000D01*
%TO.C,R3*%
X186477500Y-45062258D02*
X186477500Y-44587742D01*
X187522500Y-45062258D02*
X187522500Y-44587742D01*
%TO.C,C9*%
X196490000Y-44365580D02*
X196490000Y-44084420D01*
X197510000Y-44365580D02*
X197510000Y-44084420D01*
%TO.C,C8*%
X185330286Y-57379420D02*
X185330286Y-57660580D01*
X186350286Y-57379420D02*
X186350286Y-57660580D01*
%TO.C,D1*%
X185710286Y-60145000D02*
X181700286Y-60145000D01*
X185710286Y-62145000D02*
X181700286Y-62145000D01*
X185710286Y-62145000D02*
X185710286Y-60145000D01*
%TO.C,U2*%
X192650286Y-49735000D02*
X191850286Y-49735000D01*
X192650286Y-49735000D02*
X193450286Y-49735000D01*
X192650286Y-52855000D02*
X191850286Y-52855000D01*
X192650286Y-52855000D02*
X193450286Y-52855000D01*
X191350286Y-49810000D02*
X191110286Y-49480000D01*
X191590286Y-49480000D01*
X191350286Y-49810000D01*
G36*
X191350286Y-49810000D02*
G01*
X191110286Y-49480000D01*
X191590286Y-49480000D01*
X191350286Y-49810000D01*
G37*
%TO.C,C2*%
X199084420Y-58490000D02*
X199365580Y-58490000D01*
X199084420Y-59510000D02*
X199365580Y-59510000D01*
%TO.C,R2*%
X184412258Y-43477500D02*
X183937742Y-43477500D01*
X184412258Y-44522500D02*
X183937742Y-44522500D01*
%TO.C,R14*%
X188077544Y-59772500D02*
X187603028Y-59772500D01*
X188077544Y-60817500D02*
X187603028Y-60817500D01*
%TO.C,C4*%
X171580286Y-52179420D02*
X171580286Y-52460580D01*
X172600286Y-52179420D02*
X172600286Y-52460580D01*
%TO.C,C7*%
X181974706Y-57285000D02*
X182255866Y-57285000D01*
X181974706Y-58305000D02*
X182255866Y-58305000D01*
%TO.C,R5*%
X185377786Y-51857258D02*
X185377786Y-51382742D01*
X186422786Y-51857258D02*
X186422786Y-51382742D01*
%TO.C,R11*%
X180528028Y-51022500D02*
X181002544Y-51022500D01*
X180528028Y-52067500D02*
X181002544Y-52067500D01*
%TO.C,C3*%
X188544850Y-51856688D02*
X188263690Y-51856688D01*
X188544850Y-52876688D02*
X188263690Y-52876688D01*
%TO.C,C15*%
X187134420Y-48490000D02*
X187415580Y-48490000D01*
X187134420Y-49510000D02*
X187415580Y-49510000D01*
%TO.C,R4*%
X195477500Y-50412258D02*
X195477500Y-49937742D01*
X196522500Y-50412258D02*
X196522500Y-49937742D01*
%TO.C,D5*%
X165910286Y-60145000D02*
X161900286Y-60145000D01*
X165910286Y-62145000D02*
X161900286Y-62145000D01*
X165910286Y-62145000D02*
X165910286Y-60145000D01*
%TO.C,R13*%
X181067786Y-54357258D02*
X181067786Y-53882742D01*
X182112786Y-54357258D02*
X182112786Y-53882742D01*
%TO.C,R8*%
X169317786Y-52057742D02*
X169317786Y-52532258D01*
X170362786Y-52057742D02*
X170362786Y-52532258D01*
%TO.C,R12*%
X175817786Y-51982742D02*
X175817786Y-52457258D01*
X176862786Y-51982742D02*
X176862786Y-52457258D01*
%TO.C,R9*%
X167428028Y-56772500D02*
X167902544Y-56772500D01*
X167428028Y-57817500D02*
X167902544Y-57817500D01*
%TO.C,C1*%
X200490000Y-51915580D02*
X200490000Y-51634420D01*
X201510000Y-51915580D02*
X201510000Y-51634420D01*
%TO.C,Q1*%
X170290286Y-58505000D02*
X173890286Y-58505000D01*
X170251808Y-58493478D02*
G75*
G02*
X172090286Y-54054999I1838478J1838478D01*
G01*
X172090286Y-54055000D02*
G75*
G02*
X173928764Y-58493478I0J-2600000D01*
G01*
D13*
%TO.C,U5*%
X189969386Y-59423900D02*
X194211186Y-59423900D01*
X194211186Y-54166100D02*
X189969386Y-54166100D01*
D12*
%TO.C,Q2*%
X176040286Y-58505000D02*
X179640286Y-58505000D01*
X176001808Y-58493478D02*
G75*
G02*
X177840286Y-54054999I1838478J1838478D01*
G01*
X177840286Y-54055000D02*
G75*
G02*
X179678764Y-58493478I0J-2600000D01*
G01*
D13*
%TO.C,U4*%
X198996700Y-55662139D02*
X198996700Y-56337861D01*
X198996700Y-57651000D02*
X201003300Y-57651000D01*
X201003300Y-54349000D02*
X198996700Y-54349000D01*
D12*
%TO.C,C14*%
X185084420Y-53990000D02*
X185365580Y-53990000D01*
X185084420Y-55010000D02*
X185365580Y-55010000D01*
%TO.C,R6*%
X175627786Y-46882742D02*
X175627786Y-47357258D01*
X176672786Y-46882742D02*
X176672786Y-47357258D01*
D13*
%TO.C,U3*%
X171299001Y-45926450D02*
X171299001Y-47933050D01*
X173313262Y-45926450D02*
X172586740Y-45926450D01*
X174601001Y-47933050D02*
X174601001Y-45926450D01*
D12*
%TO.C,C11*%
X187990000Y-46865580D02*
X187990000Y-46584420D01*
X189010000Y-46865580D02*
X189010000Y-46584420D01*
D13*
%TO.C,U6*%
X179512236Y-48745999D02*
X181518836Y-48745999D01*
X181518836Y-45443999D02*
X179512236Y-45443999D01*
X181518836Y-47458260D02*
X181518836Y-46731738D01*
%TD*%
M02*
