%TF.GenerationSoftware,KiCad,Pcbnew,9.0.4*%
%TF.CreationDate,2026-03-12T13:46:24-04:00*%
%TF.ProjectId,BigMuffRipOff,4269674d-7566-4665-9269-704f66662e6b,rev?*%
%TF.SameCoordinates,Original*%
%TF.FileFunction,Copper,L3,Inr*%
%TF.FilePolarity,Positive*%
%FSLAX46Y46*%
G04 Gerber Fmt 4.6, Leading zero omitted, Abs format (unit mm)*
G04 Created by KiCad (PCBNEW 9.0.4) date 2026-03-12 13:46:24*
%MOMM*%
%LPD*%
G01*
G04 APERTURE LIST*
%TA.AperFunction,ComponentPad*%
%ADD10R,1.050000X1.500000*%
%TD*%
%TA.AperFunction,ComponentPad*%
%ADD11O,1.050000X1.500000*%
%TD*%
%TA.AperFunction,ComponentPad*%
%ADD12R,1.500000X1.050000*%
%TD*%
%TA.AperFunction,ComponentPad*%
%ADD13O,1.500000X1.050000*%
%TD*%
%TA.AperFunction,ComponentPad*%
%ADD14R,1.700000X1.700000*%
%TD*%
%TA.AperFunction,ComponentPad*%
%ADD15C,1.700000*%
%TD*%
%TA.AperFunction,ViaPad*%
%ADD16C,0.700000*%
%TD*%
%TA.AperFunction,ViaPad*%
%ADD17C,0.600000*%
%TD*%
G04 APERTURE END LIST*
D10*
%TO.N,Net-(Q4-C)*%
%TO.C,Q4*%
X167540000Y-91140000D03*
D11*
%TO.N,Net-(Q4-B)*%
X166270000Y-91140000D03*
%TO.N,Net-(Q4-E)*%
X165000000Y-91140000D03*
%TD*%
D12*
%TO.N,Net-(Q2-C)*%
%TO.C,Q2*%
X144250000Y-85980000D03*
D13*
%TO.N,Net-(Q2-B)*%
X144250000Y-87250000D03*
%TO.N,Net-(Q2-E)*%
X144250000Y-88520000D03*
%TD*%
D14*
%TO.N,12V*%
%TO.C,J1*%
X177540000Y-78110000D03*
D15*
X180080000Y-78110000D03*
%TO.N,/CS2*%
X177540000Y-80650000D03*
%TO.N,/CS1*%
X180080000Y-80650000D03*
%TO.N,/CS3*%
X177540000Y-83190000D03*
%TO.N,/CS0*%
X180080000Y-83190000D03*
%TO.N,/MOSI*%
X177540000Y-85730000D03*
%TO.N,/SPI_CLK*%
X180080000Y-85730000D03*
%TO.N,/GUITAR_OUT*%
X177540000Y-88270000D03*
%TO.N,/GUITAR_IN*%
X180080000Y-88270000D03*
%TO.N,GND*%
X177540000Y-90810000D03*
X180080000Y-90810000D03*
X177540000Y-93350000D03*
X180080000Y-93350000D03*
%TO.N,unconnected-(J1-Pin_15-Pad15)*%
X177540000Y-95890000D03*
%TO.N,unconnected-(J1-Pin_16-Pad16)*%
X180080000Y-95890000D03*
%TD*%
D10*
%TO.N,Net-(Q1-C)*%
%TO.C,Q1*%
X132750000Y-89250000D03*
D11*
%TO.N,Net-(Q1-B)*%
X134020000Y-89250000D03*
%TO.N,Net-(Q1-E)*%
X135290000Y-89250000D03*
%TD*%
D12*
%TO.N,Net-(Q3-C)*%
%TO.C,Q3*%
X155250000Y-86000000D03*
D13*
%TO.N,Net-(Q3-B)*%
X155250000Y-87270000D03*
%TO.N,Net-(Q3-E)*%
X155250000Y-88540000D03*
%TD*%
D16*
%TO.N,GND*%
X166400000Y-77200000D03*
D17*
X140400000Y-99200000D03*
X135200000Y-95750000D03*
X152000000Y-92250000D03*
X128200000Y-75600000D03*
X160250000Y-92500000D03*
X127250000Y-84750000D03*
X170000000Y-98000000D03*
X163250000Y-86250000D03*
X145000000Y-92500000D03*
X159750000Y-95250000D03*
X138000000Y-82000000D03*
D16*
X170600000Y-77200000D03*
D17*
X136750000Y-92750000D03*
X163250000Y-81000000D03*
X154200000Y-79500000D03*
X133600000Y-99600000D03*
X153600000Y-77400000D03*
X123800000Y-101400000D03*
X142800000Y-77400000D03*
X170000000Y-82500000D03*
X149000000Y-77400000D03*
X164000000Y-99250000D03*
X164000000Y-97000000D03*
X170000000Y-95000000D03*
X147800000Y-90200000D03*
X130000000Y-78400000D03*
X146400000Y-99200000D03*
X139750000Y-89750000D03*
X126000000Y-91000000D03*
X140500000Y-91750000D03*
X156750000Y-98000000D03*
X140373686Y-79472130D03*
X136000000Y-81750000D03*
X147500000Y-97250000D03*
X170400000Y-86400000D03*
X150860363Y-89520726D03*
X164000000Y-93250000D03*
D16*
X164200000Y-79600000D03*
D17*
X128800000Y-74000000D03*
X138600000Y-77400000D03*
D16*
X173200000Y-78600000D03*
D17*
X127600000Y-95200000D03*
X123600000Y-97000000D03*
X159500000Y-88500000D03*
D16*
%TO.N,9V*%
X164400000Y-73200000D03*
D17*
X127500000Y-77800000D03*
D16*
X164400000Y-72200000D03*
D17*
X132500000Y-77800000D03*
X154250000Y-100500000D03*
D16*
X162400000Y-74200000D03*
X163400000Y-72200000D03*
D17*
X126000000Y-88500000D03*
D16*
X162400000Y-72200000D03*
X163400000Y-74200000D03*
D17*
X173000000Y-89750000D03*
X149000000Y-79550000D03*
X130400000Y-99800000D03*
D16*
X163400000Y-73200000D03*
D17*
X154750000Y-94750000D03*
X159750000Y-79500000D03*
X171300000Y-88000000D03*
D16*
X162400000Y-73200000D03*
D17*
X151800000Y-93600000D03*
D16*
X164400000Y-74200000D03*
D17*
%TO.N,/CS2*%
X129000000Y-83400000D03*
%TO.N,/CS3*%
X135600000Y-95000000D03*
X174800000Y-85000000D03*
%TO.N,/MOSI*%
X131800000Y-83200000D03*
X133600000Y-94000000D03*
X166000000Y-81551000D03*
X168200000Y-98200000D03*
X137000000Y-81200000D03*
%TO.N,/SPI_CLK*%
X139600000Y-93200000D03*
X134200000Y-82600000D03*
X165600000Y-98200000D03*
X173600000Y-81800000D03*
%TO.N,/CS0*%
X170000000Y-96400000D03*
X175400000Y-85800000D03*
%TO.N,/CS1*%
X163600000Y-83075000D03*
X171000000Y-83075000D03*
%TO.N,4.5V*%
X141000000Y-97500000D03*
X132000000Y-81400000D03*
X169000000Y-83825000D03*
X142250000Y-94250000D03*
X134750000Y-84500000D03*
X163750000Y-95750000D03*
X161264827Y-96358702D03*
X128500000Y-81550000D03*
X156250000Y-90500000D03*
%TD*%
%TA.AperFunction,Conductor*%
%TO.N,4.5V*%
G36*
X129308222Y-78824092D02*
G01*
X129344285Y-78859516D01*
X129378210Y-78910288D01*
X129378213Y-78910292D01*
X129489707Y-79021786D01*
X129489711Y-79021789D01*
X129620814Y-79109390D01*
X129620827Y-79109397D01*
X129766498Y-79169735D01*
X129766503Y-79169737D01*
X129904251Y-79197137D01*
X129921153Y-79200499D01*
X129921156Y-79200500D01*
X129921158Y-79200500D01*
X130078844Y-79200500D01*
X130078845Y-79200499D01*
X130233497Y-79169737D01*
X130379179Y-79109394D01*
X130510289Y-79021789D01*
X130621789Y-78910289D01*
X130643223Y-78878211D01*
X130655715Y-78859516D01*
X130709327Y-78814711D01*
X130758817Y-78804407D01*
X131199511Y-78804407D01*
X131266550Y-78824092D01*
X131276973Y-78831579D01*
X132203462Y-79572770D01*
X132243514Y-79630019D01*
X132250000Y-79669597D01*
X132250000Y-80431102D01*
X133651305Y-81841844D01*
X133684583Y-81903278D01*
X133679365Y-81972952D01*
X133651011Y-82016910D01*
X133578210Y-82089711D01*
X133490609Y-82220814D01*
X133490602Y-82220827D01*
X133430264Y-82366498D01*
X133430261Y-82366510D01*
X133399500Y-82521153D01*
X133399500Y-82678846D01*
X133430261Y-82833489D01*
X133430264Y-82833501D01*
X133490602Y-82979172D01*
X133490609Y-82979185D01*
X133578210Y-83110288D01*
X133578213Y-83110292D01*
X133689707Y-83221786D01*
X133689711Y-83221789D01*
X133820814Y-83309390D01*
X133820827Y-83309397D01*
X133966498Y-83369735D01*
X133966503Y-83369737D01*
X134121153Y-83400499D01*
X134121156Y-83400500D01*
X134121158Y-83400500D01*
X134278844Y-83400500D01*
X134278845Y-83400499D01*
X134433497Y-83369737D01*
X134579179Y-83309394D01*
X134710289Y-83221789D01*
X134821789Y-83110289D01*
X134909394Y-82979179D01*
X134969737Y-82833497D01*
X135000500Y-82678842D01*
X135000500Y-82643295D01*
X135020185Y-82576256D01*
X135072989Y-82530501D01*
X135125329Y-82519298D01*
X135774832Y-82523657D01*
X135798162Y-82526034D01*
X135897158Y-82545726D01*
X135921157Y-82550500D01*
X135921158Y-82550500D01*
X136078843Y-82550500D01*
X136091056Y-82548070D01*
X136187082Y-82528969D01*
X136212079Y-82526592D01*
X137351631Y-82534240D01*
X137418534Y-82554373D01*
X137438478Y-82570556D01*
X137489707Y-82621786D01*
X137489711Y-82621789D01*
X137620814Y-82709390D01*
X137620827Y-82709397D01*
X137713247Y-82747678D01*
X137766503Y-82769737D01*
X137921153Y-82800499D01*
X137921156Y-82800500D01*
X137921158Y-82800500D01*
X138078844Y-82800500D01*
X138078845Y-82800499D01*
X138233497Y-82769737D01*
X138379179Y-82709394D01*
X138510289Y-82621789D01*
X138552867Y-82579210D01*
X138614188Y-82545726D01*
X138641368Y-82542896D01*
X162707274Y-82704411D01*
X162774176Y-82724544D01*
X162819576Y-82777654D01*
X162829055Y-82846877D01*
X162828055Y-82852598D01*
X162799500Y-82996153D01*
X162799500Y-83153846D01*
X162830261Y-83308489D01*
X162830264Y-83308501D01*
X162890602Y-83454172D01*
X162890609Y-83454185D01*
X162978210Y-83585288D01*
X162978213Y-83585292D01*
X163089707Y-83696786D01*
X163089711Y-83696789D01*
X163220814Y-83784390D01*
X163220827Y-83784397D01*
X163311101Y-83821789D01*
X163366503Y-83844737D01*
X163521153Y-83875499D01*
X163521156Y-83875500D01*
X163521158Y-83875500D01*
X163678844Y-83875500D01*
X163678845Y-83875499D01*
X163833497Y-83844737D01*
X163979179Y-83784394D01*
X164110289Y-83696789D01*
X164221789Y-83585289D01*
X164309394Y-83454179D01*
X164369737Y-83308497D01*
X164400500Y-83153842D01*
X164400500Y-82996158D01*
X164400500Y-82996155D01*
X164374333Y-82864609D01*
X164380560Y-82795017D01*
X164423423Y-82739840D01*
X164489312Y-82716595D01*
X164496731Y-82716421D01*
X169154117Y-82747678D01*
X169221018Y-82767811D01*
X169266418Y-82820921D01*
X169267841Y-82824221D01*
X169290604Y-82879175D01*
X169290609Y-82879185D01*
X169378209Y-83010287D01*
X169378210Y-83010288D01*
X169378211Y-83010289D01*
X169463682Y-83095760D01*
X169497166Y-83157081D01*
X169500000Y-83183440D01*
X169500000Y-94316559D01*
X169480315Y-94383598D01*
X169463681Y-94404240D01*
X169378213Y-94489707D01*
X169378210Y-94489711D01*
X169290609Y-94620814D01*
X169290602Y-94620827D01*
X169230264Y-94766498D01*
X169230261Y-94766510D01*
X169199500Y-94921153D01*
X169199500Y-95078846D01*
X169230261Y-95233489D01*
X169230264Y-95233501D01*
X169290602Y-95379172D01*
X169290609Y-95379185D01*
X169378209Y-95510287D01*
X169378210Y-95510288D01*
X169378211Y-95510289D01*
X169463682Y-95595760D01*
X169478388Y-95622691D01*
X169494977Y-95648505D01*
X169495868Y-95654704D01*
X169497166Y-95657081D01*
X169500000Y-95683440D01*
X169500000Y-95716559D01*
X169480315Y-95783598D01*
X169463681Y-95804240D01*
X169378213Y-95889707D01*
X169378210Y-95889711D01*
X169290609Y-96020814D01*
X169290602Y-96020827D01*
X169230264Y-96166498D01*
X169230261Y-96166510D01*
X169199500Y-96321153D01*
X169199500Y-96478846D01*
X169230261Y-96633489D01*
X169230264Y-96633501D01*
X169290602Y-96779172D01*
X169290609Y-96779185D01*
X169378209Y-96910287D01*
X169378210Y-96910288D01*
X169378211Y-96910289D01*
X169463682Y-96995760D01*
X169478388Y-97022691D01*
X169494977Y-97048505D01*
X169495868Y-97054704D01*
X169497166Y-97057081D01*
X169500000Y-97083440D01*
X169500000Y-97316559D01*
X169480315Y-97383598D01*
X169463681Y-97404240D01*
X169378213Y-97489707D01*
X169378210Y-97489711D01*
X169290609Y-97620814D01*
X169290602Y-97620827D01*
X169230264Y-97766498D01*
X169230261Y-97766508D01*
X169198613Y-97925613D01*
X169166228Y-97987524D01*
X169105512Y-98022098D01*
X169035743Y-98018358D01*
X168979071Y-97977491D01*
X168962435Y-97948873D01*
X168909397Y-97820827D01*
X168909390Y-97820814D01*
X168821789Y-97689711D01*
X168821786Y-97689707D01*
X168710292Y-97578213D01*
X168710288Y-97578210D01*
X168579185Y-97490609D01*
X168579172Y-97490602D01*
X168433501Y-97430264D01*
X168433489Y-97430261D01*
X168278845Y-97399500D01*
X168278842Y-97399500D01*
X168121158Y-97399500D01*
X168121155Y-97399500D01*
X167966510Y-97430261D01*
X167966498Y-97430264D01*
X167820827Y-97490602D01*
X167820814Y-97490609D01*
X167689711Y-97578210D01*
X167689707Y-97578213D01*
X167578213Y-97689707D01*
X167578210Y-97689711D01*
X167490609Y-97820814D01*
X167490602Y-97820827D01*
X167430264Y-97966498D01*
X167430261Y-97966510D01*
X167399500Y-98121153D01*
X167399500Y-98278846D01*
X167430261Y-98433489D01*
X167430264Y-98433501D01*
X167490344Y-98578548D01*
X167497813Y-98648017D01*
X167466538Y-98710496D01*
X167406448Y-98746148D01*
X167375783Y-98750000D01*
X166424217Y-98750000D01*
X166357178Y-98730315D01*
X166311423Y-98677511D01*
X166301479Y-98608353D01*
X166309656Y-98578548D01*
X166369735Y-98433501D01*
X166369737Y-98433497D01*
X166400500Y-98278842D01*
X166400500Y-98121158D01*
X166400500Y-98121155D01*
X166400499Y-98121153D01*
X166369737Y-97966503D01*
X166366792Y-97959394D01*
X166309397Y-97820827D01*
X166309390Y-97820814D01*
X166221789Y-97689711D01*
X166221786Y-97689707D01*
X166110292Y-97578213D01*
X166110288Y-97578210D01*
X165979185Y-97490609D01*
X165979172Y-97490602D01*
X165833501Y-97430264D01*
X165833489Y-97430261D01*
X165678845Y-97399500D01*
X165678842Y-97399500D01*
X165521158Y-97399500D01*
X165521155Y-97399500D01*
X165366510Y-97430261D01*
X165366498Y-97430264D01*
X165220827Y-97490602D01*
X165220814Y-97490609D01*
X165089711Y-97578210D01*
X165089707Y-97578213D01*
X164978213Y-97689707D01*
X164978210Y-97689711D01*
X164890609Y-97820814D01*
X164890602Y-97820827D01*
X164830264Y-97966498D01*
X164830261Y-97966510D01*
X164799500Y-98121153D01*
X164799500Y-98278846D01*
X164830261Y-98433489D01*
X164830264Y-98433501D01*
X164890344Y-98578548D01*
X164893851Y-98611173D01*
X164898521Y-98643647D01*
X164897567Y-98645734D01*
X164897813Y-98648017D01*
X164883124Y-98677360D01*
X164869496Y-98707203D01*
X164867565Y-98708443D01*
X164866538Y-98710496D01*
X164838328Y-98727233D01*
X164810718Y-98744977D01*
X164807687Y-98745412D01*
X164806448Y-98746148D01*
X164775783Y-98750000D01*
X164683441Y-98750000D01*
X164616402Y-98730315D01*
X164595760Y-98713681D01*
X164510292Y-98628213D01*
X164510288Y-98628210D01*
X164379185Y-98540609D01*
X164379172Y-98540602D01*
X164233501Y-98480264D01*
X164233489Y-98480261D01*
X164078845Y-98449500D01*
X164078842Y-98449500D01*
X163921158Y-98449500D01*
X163921155Y-98449500D01*
X163766510Y-98480261D01*
X163766498Y-98480264D01*
X163620827Y-98540602D01*
X163620814Y-98540609D01*
X163489711Y-98628210D01*
X163489707Y-98628213D01*
X163404240Y-98713681D01*
X163342917Y-98747166D01*
X163316559Y-98750000D01*
X157431441Y-98750000D01*
X157364402Y-98730315D01*
X157318647Y-98677511D01*
X157308703Y-98608353D01*
X157337728Y-98544797D01*
X157343760Y-98538319D01*
X157371786Y-98510292D01*
X157371789Y-98510289D01*
X157459394Y-98379179D01*
X157519737Y-98233497D01*
X157550500Y-98078842D01*
X157550500Y-97921158D01*
X157550500Y-97921155D01*
X157550499Y-97921153D01*
X157530543Y-97820827D01*
X157519737Y-97766503D01*
X157487929Y-97689711D01*
X157459397Y-97620827D01*
X157459390Y-97620814D01*
X157371789Y-97489711D01*
X157371786Y-97489707D01*
X157260292Y-97378213D01*
X157260288Y-97378210D01*
X157129185Y-97290609D01*
X157129172Y-97290602D01*
X156983501Y-97230264D01*
X156983491Y-97230261D01*
X156849808Y-97203669D01*
X156821677Y-97188954D01*
X156792797Y-97175765D01*
X156790940Y-97172875D01*
X156787897Y-97171284D01*
X156772184Y-97143691D01*
X156755023Y-97116987D01*
X156754362Y-97112393D01*
X156753323Y-97110568D01*
X156750000Y-97082052D01*
X156750000Y-96921153D01*
X163199500Y-96921153D01*
X163199500Y-97078846D01*
X163230261Y-97233489D01*
X163230264Y-97233501D01*
X163290602Y-97379172D01*
X163290609Y-97379185D01*
X163378210Y-97510288D01*
X163378213Y-97510292D01*
X163489707Y-97621786D01*
X163489711Y-97621789D01*
X163620814Y-97709390D01*
X163620827Y-97709397D01*
X163758683Y-97766498D01*
X163766503Y-97769737D01*
X163921153Y-97800499D01*
X163921156Y-97800500D01*
X163921158Y-97800500D01*
X164078844Y-97800500D01*
X164078845Y-97800499D01*
X164233497Y-97769737D01*
X164379179Y-97709394D01*
X164510289Y-97621789D01*
X164621789Y-97510289D01*
X164709394Y-97379179D01*
X164769737Y-97233497D01*
X164800500Y-97078842D01*
X164800500Y-96921158D01*
X164800500Y-96921155D01*
X164800499Y-96921153D01*
X164790486Y-96870814D01*
X164769737Y-96766503D01*
X164769735Y-96766498D01*
X164709397Y-96620827D01*
X164709390Y-96620814D01*
X164621789Y-96489711D01*
X164621786Y-96489707D01*
X164510292Y-96378213D01*
X164510288Y-96378210D01*
X164379185Y-96290609D01*
X164379172Y-96290602D01*
X164233501Y-96230264D01*
X164233489Y-96230261D01*
X164078845Y-96199500D01*
X164078842Y-96199500D01*
X163921158Y-96199500D01*
X163921155Y-96199500D01*
X163766510Y-96230261D01*
X163766498Y-96230264D01*
X163620827Y-96290602D01*
X163620814Y-96290609D01*
X163489711Y-96378210D01*
X163489707Y-96378213D01*
X163378213Y-96489707D01*
X163378210Y-96489711D01*
X163290609Y-96620814D01*
X163290602Y-96620827D01*
X163230264Y-96766498D01*
X163230261Y-96766510D01*
X163199500Y-96921153D01*
X156750000Y-96921153D01*
X156750000Y-95171153D01*
X158949500Y-95171153D01*
X158949500Y-95328846D01*
X158980261Y-95483489D01*
X158980264Y-95483501D01*
X159040602Y-95629172D01*
X159040609Y-95629185D01*
X159128210Y-95760288D01*
X159128213Y-95760292D01*
X159239707Y-95871786D01*
X159239711Y-95871789D01*
X159370814Y-95959390D01*
X159370827Y-95959397D01*
X159470060Y-96000500D01*
X159516503Y-96019737D01*
X159671153Y-96050499D01*
X159671156Y-96050500D01*
X159671158Y-96050500D01*
X159828844Y-96050500D01*
X159828845Y-96050499D01*
X159983497Y-96019737D01*
X160129179Y-95959394D01*
X160260289Y-95871789D01*
X160371789Y-95760289D01*
X160459394Y-95629179D01*
X160519737Y-95483497D01*
X160550500Y-95328842D01*
X160550500Y-95171158D01*
X160550500Y-95171155D01*
X160550499Y-95171153D01*
X160540553Y-95121153D01*
X160519737Y-95016503D01*
X160506066Y-94983497D01*
X160459397Y-94870827D01*
X160459390Y-94870814D01*
X160371789Y-94739711D01*
X160371786Y-94739707D01*
X160260292Y-94628213D01*
X160260288Y-94628210D01*
X160129185Y-94540609D01*
X160129172Y-94540602D01*
X159983501Y-94480264D01*
X159983489Y-94480261D01*
X159828845Y-94449500D01*
X159828842Y-94449500D01*
X159671158Y-94449500D01*
X159671155Y-94449500D01*
X159516510Y-94480261D01*
X159516498Y-94480264D01*
X159370827Y-94540602D01*
X159370814Y-94540609D01*
X159239711Y-94628210D01*
X159239707Y-94628213D01*
X159128213Y-94739707D01*
X159128210Y-94739711D01*
X159040609Y-94870814D01*
X159040602Y-94870827D01*
X158980264Y-95016498D01*
X158980261Y-95016510D01*
X158949500Y-95171153D01*
X156750000Y-95171153D01*
X156750000Y-92750000D01*
X152844927Y-92750000D01*
X152818845Y-92742341D01*
X152791990Y-92738132D01*
X152785814Y-92732642D01*
X152777888Y-92730315D01*
X152760090Y-92709775D01*
X152739770Y-92691712D01*
X152737542Y-92683753D01*
X152732133Y-92677511D01*
X152728264Y-92650606D01*
X152720937Y-92624428D01*
X152723033Y-92614226D01*
X152722189Y-92608353D01*
X152726402Y-92589560D01*
X152728122Y-92583964D01*
X152769737Y-92483497D01*
X152782138Y-92421153D01*
X159449500Y-92421153D01*
X159449500Y-92578846D01*
X159480261Y-92733489D01*
X159480264Y-92733501D01*
X159540602Y-92879172D01*
X159540609Y-92879185D01*
X159628210Y-93010288D01*
X159628213Y-93010292D01*
X159739707Y-93121786D01*
X159739711Y-93121789D01*
X159870814Y-93209390D01*
X159870827Y-93209397D01*
X160016498Y-93269735D01*
X160016503Y-93269737D01*
X160171153Y-93300499D01*
X160171156Y-93300500D01*
X160171158Y-93300500D01*
X160328844Y-93300500D01*
X160328845Y-93300499D01*
X160483497Y-93269737D01*
X160629179Y-93209394D01*
X160686411Y-93171153D01*
X163199500Y-93171153D01*
X163199500Y-93328846D01*
X163230261Y-93483489D01*
X163230264Y-93483501D01*
X163290602Y-93629172D01*
X163290609Y-93629185D01*
X163378210Y-93760288D01*
X163378213Y-93760292D01*
X163489707Y-93871786D01*
X163489711Y-93871789D01*
X163620814Y-93959390D01*
X163620827Y-93959397D01*
X163720060Y-94000500D01*
X163766503Y-94019737D01*
X163871418Y-94040606D01*
X163921153Y-94050499D01*
X163921156Y-94050500D01*
X163921158Y-94050500D01*
X164078844Y-94050500D01*
X164078845Y-94050499D01*
X164233497Y-94019737D01*
X164379179Y-93959394D01*
X164510289Y-93871789D01*
X164621789Y-93760289D01*
X164709394Y-93629179D01*
X164712854Y-93620827D01*
X164730102Y-93579185D01*
X164769737Y-93483497D01*
X164800500Y-93328842D01*
X164800500Y-93171158D01*
X164800500Y-93171155D01*
X164800499Y-93171153D01*
X164792150Y-93129179D01*
X164769737Y-93016503D01*
X164753876Y-92978211D01*
X164709397Y-92870827D01*
X164709390Y-92870814D01*
X164621789Y-92739711D01*
X164621786Y-92739707D01*
X164510292Y-92628213D01*
X164510288Y-92628210D01*
X164379185Y-92540609D01*
X164379172Y-92540602D01*
X164233501Y-92480264D01*
X164233489Y-92480261D01*
X164078845Y-92449500D01*
X164078842Y-92449500D01*
X163921158Y-92449500D01*
X163921155Y-92449500D01*
X163766510Y-92480261D01*
X163766498Y-92480264D01*
X163620827Y-92540602D01*
X163620814Y-92540609D01*
X163489711Y-92628210D01*
X163489707Y-92628213D01*
X163378213Y-92739707D01*
X163378210Y-92739711D01*
X163290609Y-92870814D01*
X163290602Y-92870827D01*
X163230264Y-93016498D01*
X163230261Y-93016510D01*
X163199500Y-93171153D01*
X160686411Y-93171153D01*
X160760289Y-93121789D01*
X160760925Y-93121153D01*
X160804694Y-93077385D01*
X160871786Y-93010292D01*
X160871789Y-93010289D01*
X160959394Y-92879179D01*
X160962854Y-92870827D01*
X161014497Y-92746148D01*
X161019737Y-92733497D01*
X161050500Y-92578842D01*
X161050500Y-92421158D01*
X161050500Y-92421155D01*
X161050499Y-92421153D01*
X161044402Y-92390500D01*
X161019737Y-92266503D01*
X161011884Y-92247544D01*
X160959397Y-92120827D01*
X160959390Y-92120814D01*
X160871789Y-91989711D01*
X160871786Y-91989707D01*
X160760292Y-91878213D01*
X160760288Y-91878210D01*
X160629185Y-91790609D01*
X160629172Y-91790602D01*
X160483501Y-91730264D01*
X160483489Y-91730261D01*
X160328845Y-91699500D01*
X160328842Y-91699500D01*
X160171158Y-91699500D01*
X160171155Y-91699500D01*
X160016510Y-91730261D01*
X160016498Y-91730264D01*
X159870827Y-91790602D01*
X159870814Y-91790609D01*
X159739711Y-91878210D01*
X159739707Y-91878213D01*
X159628213Y-91989707D01*
X159628210Y-91989711D01*
X159540609Y-92120814D01*
X159540602Y-92120827D01*
X159480264Y-92266498D01*
X159480261Y-92266510D01*
X159449500Y-92421153D01*
X152782138Y-92421153D01*
X152796251Y-92350199D01*
X152800500Y-92328844D01*
X152800500Y-92171155D01*
X152800499Y-92171153D01*
X152798590Y-92161558D01*
X152769737Y-92016503D01*
X152761858Y-91997482D01*
X152709397Y-91870827D01*
X152709390Y-91870814D01*
X152621789Y-91739711D01*
X152621786Y-91739707D01*
X152510292Y-91628213D01*
X152510288Y-91628210D01*
X152379185Y-91540609D01*
X152379172Y-91540602D01*
X152233501Y-91480264D01*
X152233489Y-91480261D01*
X152078845Y-91449500D01*
X152078842Y-91449500D01*
X151921158Y-91449500D01*
X151921155Y-91449500D01*
X151766510Y-91480261D01*
X151766498Y-91480264D01*
X151620827Y-91540602D01*
X151620814Y-91540609D01*
X151489711Y-91628210D01*
X151489707Y-91628213D01*
X151378213Y-91739707D01*
X151378210Y-91739711D01*
X151290609Y-91870814D01*
X151290602Y-91870827D01*
X151230264Y-92016498D01*
X151230261Y-92016510D01*
X151199500Y-92171153D01*
X151199500Y-92328846D01*
X151230261Y-92483489D01*
X151230263Y-92483497D01*
X151269495Y-92578213D01*
X151269634Y-92578547D01*
X151277103Y-92648017D01*
X151245828Y-92710496D01*
X151185739Y-92746148D01*
X151155073Y-92750000D01*
X148500000Y-92750000D01*
X148500000Y-96949016D01*
X148480315Y-97016055D01*
X148427511Y-97061810D01*
X148358353Y-97071754D01*
X148294797Y-97042729D01*
X148261439Y-96996469D01*
X148209395Y-96870823D01*
X148209390Y-96870814D01*
X148121789Y-96739711D01*
X148121786Y-96739707D01*
X148010292Y-96628213D01*
X148010288Y-96628210D01*
X147879185Y-96540609D01*
X147879172Y-96540602D01*
X147733501Y-96480264D01*
X147733489Y-96480261D01*
X147578845Y-96449500D01*
X147578842Y-96449500D01*
X147421158Y-96449500D01*
X147421155Y-96449500D01*
X147266510Y-96480261D01*
X147266498Y-96480264D01*
X147120827Y-96540602D01*
X147120814Y-96540609D01*
X146989711Y-96628210D01*
X146989707Y-96628213D01*
X146878213Y-96739707D01*
X146878210Y-96739711D01*
X146790609Y-96870814D01*
X146790602Y-96870827D01*
X146730264Y-97016498D01*
X146730261Y-97016510D01*
X146699500Y-97171153D01*
X146699500Y-97328846D01*
X146730261Y-97483489D01*
X146730264Y-97483501D01*
X146790602Y-97629172D01*
X146790609Y-97629185D01*
X146878210Y-97760288D01*
X146878213Y-97760292D01*
X146906240Y-97788319D01*
X146939725Y-97849642D01*
X146934741Y-97919334D01*
X146892869Y-97975267D01*
X146827405Y-97999684D01*
X146818559Y-98000000D01*
X127872681Y-98000000D01*
X127805642Y-97980315D01*
X127759887Y-97927511D01*
X127748688Y-97877326D01*
X127748084Y-97820814D01*
X127729613Y-96093490D01*
X127748580Y-96026246D01*
X127800891Y-95979929D01*
X127829415Y-95970548D01*
X127833497Y-95969737D01*
X127979179Y-95909394D01*
X128110289Y-95821789D01*
X128221789Y-95710289D01*
X128247939Y-95671153D01*
X134399500Y-95671153D01*
X134399500Y-95828846D01*
X134430261Y-95983489D01*
X134430264Y-95983501D01*
X134490602Y-96129172D01*
X134490609Y-96129185D01*
X134578210Y-96260288D01*
X134578213Y-96260292D01*
X134689707Y-96371786D01*
X134689711Y-96371789D01*
X134820814Y-96459390D01*
X134820827Y-96459397D01*
X134894013Y-96489711D01*
X134966503Y-96519737D01*
X135121153Y-96550499D01*
X135121156Y-96550500D01*
X135121158Y-96550500D01*
X135278844Y-96550500D01*
X135278845Y-96550499D01*
X135433497Y-96519737D01*
X135579179Y-96459394D01*
X135710289Y-96371789D01*
X135821789Y-96260289D01*
X135909394Y-96129179D01*
X135969737Y-95983497D01*
X136000500Y-95828842D01*
X136000500Y-95761426D01*
X136020185Y-95694387D01*
X136055607Y-95658325D01*
X136110289Y-95621789D01*
X136221789Y-95510289D01*
X136309394Y-95379179D01*
X136312854Y-95370827D01*
X136350954Y-95278844D01*
X136369737Y-95233497D01*
X136400500Y-95078842D01*
X136400500Y-94921158D01*
X136400500Y-94921155D01*
X136400499Y-94921153D01*
X136380543Y-94820827D01*
X136369737Y-94766503D01*
X136369735Y-94766498D01*
X136309397Y-94620827D01*
X136309390Y-94620814D01*
X136221789Y-94489711D01*
X136221786Y-94489707D01*
X136110292Y-94378213D01*
X136110288Y-94378210D01*
X135979185Y-94290609D01*
X135979172Y-94290602D01*
X135833501Y-94230264D01*
X135833489Y-94230261D01*
X135678845Y-94199500D01*
X135678842Y-94199500D01*
X135521158Y-94199500D01*
X135521155Y-94199500D01*
X135366510Y-94230261D01*
X135366498Y-94230264D01*
X135220827Y-94290602D01*
X135220814Y-94290609D01*
X135089711Y-94378210D01*
X135089707Y-94378213D01*
X134978213Y-94489707D01*
X134978210Y-94489711D01*
X134890609Y-94620814D01*
X134890602Y-94620827D01*
X134830264Y-94766498D01*
X134830261Y-94766510D01*
X134799500Y-94921153D01*
X134799500Y-94988572D01*
X134779815Y-95055611D01*
X134744392Y-95091674D01*
X134689707Y-95128213D01*
X134578213Y-95239707D01*
X134578210Y-95239711D01*
X134490609Y-95370814D01*
X134490602Y-95370827D01*
X134430264Y-95516498D01*
X134430261Y-95516510D01*
X134399500Y-95671153D01*
X128247939Y-95671153D01*
X128309394Y-95579179D01*
X128369737Y-95433497D01*
X128400500Y-95278842D01*
X128400500Y-95121158D01*
X128400500Y-95121155D01*
X128400499Y-95121153D01*
X128394635Y-95091674D01*
X128369737Y-94966503D01*
X128350955Y-94921158D01*
X128309397Y-94820827D01*
X128309390Y-94820814D01*
X128221789Y-94689711D01*
X128221786Y-94689707D01*
X128110292Y-94578213D01*
X128110288Y-94578210D01*
X127979185Y-94490609D01*
X127979172Y-94490602D01*
X127833501Y-94430264D01*
X127833495Y-94430262D01*
X127810289Y-94425646D01*
X127748379Y-94393259D01*
X127713807Y-94332542D01*
X127710492Y-94305367D01*
X127706384Y-93921153D01*
X132799500Y-93921153D01*
X132799500Y-94078846D01*
X132830261Y-94233489D01*
X132830264Y-94233501D01*
X132890602Y-94379172D01*
X132890609Y-94379185D01*
X132978210Y-94510288D01*
X132978213Y-94510292D01*
X133089707Y-94621786D01*
X133089711Y-94621789D01*
X133220814Y-94709390D01*
X133220827Y-94709397D01*
X133294013Y-94739711D01*
X133366503Y-94769737D01*
X133521153Y-94800499D01*
X133521156Y-94800500D01*
X133521158Y-94800500D01*
X133678844Y-94800500D01*
X133678845Y-94800499D01*
X133833497Y-94769737D01*
X133979179Y-94709394D01*
X134110289Y-94621789D01*
X134221789Y-94510289D01*
X134309394Y-94379179D01*
X134369737Y-94233497D01*
X134400500Y-94078842D01*
X134400500Y-93921158D01*
X134400500Y-93921155D01*
X134400499Y-93921153D01*
X134380734Y-93821789D01*
X134369737Y-93766503D01*
X134333427Y-93678842D01*
X134309397Y-93620827D01*
X134309390Y-93620814D01*
X134221789Y-93489711D01*
X134221786Y-93489707D01*
X134110292Y-93378213D01*
X134110288Y-93378210D01*
X133979185Y-93290609D01*
X133979172Y-93290602D01*
X133833501Y-93230264D01*
X133833489Y-93230261D01*
X133678845Y-93199500D01*
X133678842Y-93199500D01*
X133521158Y-93199500D01*
X133521155Y-93199500D01*
X133366510Y-93230261D01*
X133366498Y-93230264D01*
X133220827Y-93290602D01*
X133220814Y-93290609D01*
X133089711Y-93378210D01*
X133089707Y-93378213D01*
X132978213Y-93489707D01*
X132978210Y-93489711D01*
X132890609Y-93620814D01*
X132890602Y-93620827D01*
X132830264Y-93766498D01*
X132830261Y-93766510D01*
X132799500Y-93921153D01*
X127706384Y-93921153D01*
X127693017Y-92671153D01*
X135949500Y-92671153D01*
X135949500Y-92828846D01*
X135980261Y-92983489D01*
X135980264Y-92983501D01*
X136040602Y-93129172D01*
X136040609Y-93129185D01*
X136128210Y-93260288D01*
X136128213Y-93260292D01*
X136239707Y-93371786D01*
X136239711Y-93371789D01*
X136370814Y-93459390D01*
X136370827Y-93459397D01*
X136444013Y-93489711D01*
X136516503Y-93519737D01*
X136671153Y-93550499D01*
X136671156Y-93550500D01*
X136671158Y-93550500D01*
X136828844Y-93550500D01*
X136828845Y-93550499D01*
X136983497Y-93519737D01*
X137129179Y-93459394D01*
X137260289Y-93371789D01*
X137371789Y-93260289D01*
X137459394Y-93129179D01*
X137459395Y-93129176D01*
X137459397Y-93129173D01*
X137462719Y-93121153D01*
X138799500Y-93121153D01*
X138799500Y-93278846D01*
X138830261Y-93433489D01*
X138830264Y-93433501D01*
X138890602Y-93579172D01*
X138890609Y-93579185D01*
X138978210Y-93710288D01*
X138978213Y-93710292D01*
X139089707Y-93821786D01*
X139089711Y-93821789D01*
X139220814Y-93909390D01*
X139220827Y-93909397D01*
X139366498Y-93969735D01*
X139366503Y-93969737D01*
X139521153Y-94000499D01*
X139521156Y-94000500D01*
X139521158Y-94000500D01*
X139678844Y-94000500D01*
X139678845Y-94000499D01*
X139833497Y-93969737D01*
X139979179Y-93909394D01*
X140110289Y-93821789D01*
X140221789Y-93710289D01*
X140309394Y-93579179D01*
X140369737Y-93433497D01*
X140400500Y-93278842D01*
X140400500Y-93121158D01*
X140400500Y-93121155D01*
X140400499Y-93121153D01*
X140379684Y-93016510D01*
X140369737Y-92966503D01*
X140333569Y-92879185D01*
X140309397Y-92820827D01*
X140309390Y-92820814D01*
X140250271Y-92732337D01*
X140229393Y-92665660D01*
X140247877Y-92598280D01*
X140299856Y-92551589D01*
X140368826Y-92540413D01*
X140377565Y-92541829D01*
X140421155Y-92550500D01*
X140421158Y-92550500D01*
X140578844Y-92550500D01*
X140578845Y-92550499D01*
X140733497Y-92519737D01*
X140879179Y-92459394D01*
X140936411Y-92421153D01*
X144199500Y-92421153D01*
X144199500Y-92578846D01*
X144230261Y-92733489D01*
X144230264Y-92733501D01*
X144290602Y-92879172D01*
X144290609Y-92879185D01*
X144378210Y-93010288D01*
X144378213Y-93010292D01*
X144489707Y-93121786D01*
X144489711Y-93121789D01*
X144620814Y-93209390D01*
X144620827Y-93209397D01*
X144766498Y-93269735D01*
X144766503Y-93269737D01*
X144921153Y-93300499D01*
X144921156Y-93300500D01*
X144921158Y-93300500D01*
X145078844Y-93300500D01*
X145078845Y-93300499D01*
X145233497Y-93269737D01*
X145379179Y-93209394D01*
X145510289Y-93121789D01*
X145621789Y-93010289D01*
X145709394Y-92879179D01*
X145712854Y-92870827D01*
X145764497Y-92746148D01*
X145769737Y-92733497D01*
X145800500Y-92578842D01*
X145800500Y-92421158D01*
X145800500Y-92421155D01*
X145800499Y-92421153D01*
X145794402Y-92390500D01*
X145769737Y-92266503D01*
X145761884Y-92247544D01*
X145709397Y-92120827D01*
X145709390Y-92120814D01*
X145621789Y-91989711D01*
X145621786Y-91989707D01*
X145510292Y-91878213D01*
X145510288Y-91878210D01*
X145379185Y-91790609D01*
X145379172Y-91790602D01*
X145233501Y-91730264D01*
X145233489Y-91730261D01*
X145078845Y-91699500D01*
X145078842Y-91699500D01*
X144921158Y-91699500D01*
X144921155Y-91699500D01*
X144766510Y-91730261D01*
X144766498Y-91730264D01*
X144620827Y-91790602D01*
X144620814Y-91790609D01*
X144489711Y-91878210D01*
X144489707Y-91878213D01*
X144378213Y-91989707D01*
X144378210Y-91989711D01*
X144290609Y-92120814D01*
X144290602Y-92120827D01*
X144230264Y-92266498D01*
X144230261Y-92266510D01*
X144199500Y-92421153D01*
X140936411Y-92421153D01*
X141010289Y-92371789D01*
X141030989Y-92351089D01*
X141054694Y-92327385D01*
X141121786Y-92260292D01*
X141121789Y-92260289D01*
X141209394Y-92129179D01*
X141212854Y-92120827D01*
X141223067Y-92096166D01*
X141269737Y-91983497D01*
X141300500Y-91828842D01*
X141300500Y-91671158D01*
X141300500Y-91671155D01*
X141300499Y-91671153D01*
X141274531Y-91540606D01*
X141269737Y-91516503D01*
X141269735Y-91516498D01*
X141209397Y-91370827D01*
X141209390Y-91370814D01*
X141121789Y-91239711D01*
X141121786Y-91239707D01*
X141010292Y-91128213D01*
X141010288Y-91128210D01*
X140879185Y-91040609D01*
X140879172Y-91040602D01*
X140733501Y-90980264D01*
X140733489Y-90980261D01*
X140578845Y-90949500D01*
X140578842Y-90949500D01*
X140421158Y-90949500D01*
X140421155Y-90949500D01*
X140266510Y-90980261D01*
X140266498Y-90980264D01*
X140120827Y-91040602D01*
X140120814Y-91040609D01*
X139989711Y-91128210D01*
X139989707Y-91128213D01*
X139878213Y-91239707D01*
X139878210Y-91239711D01*
X139790609Y-91370814D01*
X139790602Y-91370827D01*
X139730264Y-91516498D01*
X139730261Y-91516510D01*
X139699500Y-91671153D01*
X139699500Y-91828846D01*
X139730261Y-91983489D01*
X139730264Y-91983501D01*
X139790602Y-92129172D01*
X139790609Y-92129185D01*
X139849728Y-92217662D01*
X139870606Y-92284340D01*
X139852122Y-92351720D01*
X139800143Y-92398410D01*
X139731173Y-92409586D01*
X139722436Y-92408171D01*
X139678842Y-92399500D01*
X139521158Y-92399500D01*
X139521155Y-92399500D01*
X139366510Y-92430261D01*
X139366498Y-92430264D01*
X139220827Y-92490602D01*
X139220814Y-92490609D01*
X139089711Y-92578210D01*
X139089707Y-92578213D01*
X138978213Y-92689707D01*
X138978210Y-92689711D01*
X138890609Y-92820814D01*
X138890602Y-92820827D01*
X138830264Y-92966498D01*
X138830261Y-92966510D01*
X138799500Y-93121153D01*
X137462719Y-93121153D01*
X137484895Y-93067614D01*
X137484895Y-93067613D01*
X137519737Y-92983497D01*
X137550500Y-92828842D01*
X137550500Y-92671158D01*
X137550500Y-92671155D01*
X137550499Y-92671153D01*
X137538007Y-92608353D01*
X137519737Y-92516503D01*
X137519735Y-92516498D01*
X137459397Y-92370827D01*
X137459390Y-92370814D01*
X137371789Y-92239711D01*
X137371786Y-92239707D01*
X137260292Y-92128213D01*
X137260288Y-92128210D01*
X137129185Y-92040609D01*
X137129172Y-92040602D01*
X136983501Y-91980264D01*
X136983489Y-91980261D01*
X136828845Y-91949500D01*
X136828842Y-91949500D01*
X136671158Y-91949500D01*
X136671155Y-91949500D01*
X136516510Y-91980261D01*
X136516498Y-91980264D01*
X136370827Y-92040602D01*
X136370814Y-92040609D01*
X136239711Y-92128210D01*
X136239707Y-92128213D01*
X136128213Y-92239707D01*
X136128210Y-92239711D01*
X136040609Y-92370814D01*
X136040602Y-92370827D01*
X135980264Y-92516498D01*
X135980261Y-92516510D01*
X135949500Y-92671153D01*
X127693017Y-92671153D01*
X127647902Y-88452135D01*
X131724500Y-88452135D01*
X131724500Y-90047870D01*
X131724501Y-90047876D01*
X131730908Y-90107483D01*
X131781202Y-90242328D01*
X131781206Y-90242335D01*
X131867452Y-90357544D01*
X131867455Y-90357547D01*
X131982664Y-90443793D01*
X131982671Y-90443797D01*
X132117517Y-90494091D01*
X132117516Y-90494091D01*
X132124444Y-90494835D01*
X132177127Y-90500500D01*
X133322872Y-90500499D01*
X133382483Y-90494091D01*
X133517331Y-90443796D01*
X133518430Y-90442972D01*
X133519717Y-90442492D01*
X133525112Y-90439547D01*
X133525535Y-90440322D01*
X133583887Y-90418552D01*
X133640198Y-90427673D01*
X133720873Y-90461091D01*
X133886777Y-90494091D01*
X133918992Y-90500499D01*
X133918996Y-90500500D01*
X133918997Y-90500500D01*
X134121004Y-90500500D01*
X134121005Y-90500499D01*
X134319127Y-90461091D01*
X134505756Y-90383786D01*
X134586110Y-90330094D01*
X134652786Y-90309217D01*
X134720166Y-90327701D01*
X134723865Y-90330078D01*
X134804244Y-90383786D01*
X134990873Y-90461091D01*
X135156777Y-90494091D01*
X135188992Y-90500499D01*
X135188996Y-90500500D01*
X135188997Y-90500500D01*
X135391004Y-90500500D01*
X135391005Y-90500499D01*
X135589127Y-90461091D01*
X135775756Y-90383786D01*
X135943718Y-90271558D01*
X136086558Y-90128718D01*
X136198786Y-89960756D01*
X136276091Y-89774127D01*
X136287861Y-89714953D01*
X136296574Y-89671153D01*
X138949500Y-89671153D01*
X138949500Y-89828846D01*
X138980261Y-89983489D01*
X138980264Y-89983501D01*
X139040602Y-90129172D01*
X139040609Y-90129185D01*
X139128210Y-90260288D01*
X139128213Y-90260292D01*
X139239707Y-90371786D01*
X139239711Y-90371789D01*
X139370814Y-90459390D01*
X139370827Y-90459397D01*
X139470060Y-90500500D01*
X139516503Y-90519737D01*
X139671153Y-90550499D01*
X139671156Y-90550500D01*
X139671158Y-90550500D01*
X139828844Y-90550500D01*
X139828845Y-90550499D01*
X139983497Y-90519737D01*
X140125082Y-90461091D01*
X140129172Y-90459397D01*
X140129172Y-90459396D01*
X140129179Y-90459394D01*
X140260289Y-90371789D01*
X140371789Y-90260289D01*
X140459394Y-90129179D01*
X140459395Y-90129176D01*
X140459397Y-90129173D01*
X140462719Y-90121153D01*
X146999500Y-90121153D01*
X146999500Y-90278846D01*
X147030261Y-90433489D01*
X147030264Y-90433501D01*
X147090602Y-90579172D01*
X147090609Y-90579185D01*
X147178210Y-90710288D01*
X147178213Y-90710292D01*
X147289707Y-90821786D01*
X147289711Y-90821789D01*
X147420814Y-90909390D01*
X147420827Y-90909397D01*
X147517646Y-90949500D01*
X147566503Y-90969737D01*
X147721153Y-91000499D01*
X147721156Y-91000500D01*
X147721158Y-91000500D01*
X147878844Y-91000500D01*
X147878845Y-91000499D01*
X148033497Y-90969737D01*
X148179179Y-90909394D01*
X148310289Y-90821789D01*
X148318086Y-90813992D01*
X163974500Y-90813992D01*
X163974500Y-91466007D01*
X164013907Y-91664119D01*
X164013909Y-91664127D01*
X164091212Y-91850752D01*
X164091217Y-91850762D01*
X164203441Y-92018718D01*
X164346281Y-92161558D01*
X164514237Y-92273782D01*
X164514241Y-92273784D01*
X164514244Y-92273786D01*
X164700873Y-92351091D01*
X164898987Y-92390498D01*
X164898992Y-92390499D01*
X164898996Y-92390500D01*
X164898997Y-92390500D01*
X165101004Y-92390500D01*
X165101005Y-92390499D01*
X165299127Y-92351091D01*
X165485756Y-92273786D01*
X165566110Y-92220094D01*
X165632786Y-92199217D01*
X165700166Y-92217701D01*
X165703865Y-92220078D01*
X165784244Y-92273786D01*
X165970873Y-92351091D01*
X166168987Y-92390498D01*
X166168992Y-92390499D01*
X166168996Y-92390500D01*
X166168997Y-92390500D01*
X166371004Y-92390500D01*
X166371005Y-92390499D01*
X166569127Y-92351091D01*
X166649798Y-92317674D01*
X166719267Y-92310205D01*
X166764658Y-92329962D01*
X166764886Y-92329546D01*
X166769540Y-92332087D01*
X166771562Y-92332967D01*
X166772669Y-92333796D01*
X166772670Y-92333796D01*
X166772671Y-92333797D01*
X166907517Y-92384091D01*
X166907516Y-92384091D01*
X166912874Y-92384667D01*
X166967127Y-92390500D01*
X168112872Y-92390499D01*
X168172483Y-92384091D01*
X168307331Y-92333796D01*
X168422546Y-92247546D01*
X168508796Y-92132331D01*
X168559091Y-91997483D01*
X168565500Y-91937873D01*
X168565499Y-90342128D01*
X168559091Y-90282517D01*
X168557720Y-90278842D01*
X168508797Y-90147671D01*
X168508793Y-90147664D01*
X168422547Y-90032455D01*
X168422544Y-90032452D01*
X168307335Y-89946206D01*
X168307328Y-89946202D01*
X168172482Y-89895908D01*
X168172483Y-89895908D01*
X168112883Y-89889501D01*
X168112881Y-89889500D01*
X168112873Y-89889500D01*
X168112864Y-89889500D01*
X166967129Y-89889500D01*
X166967123Y-89889501D01*
X166907516Y-89895908D01*
X166772672Y-89946202D01*
X166772665Y-89946206D01*
X166771556Y-89947037D01*
X166770258Y-89947520D01*
X166764887Y-89950454D01*
X166764465Y-89949681D01*
X166706090Y-89971449D01*
X166649800Y-89962325D01*
X166569127Y-89928909D01*
X166569119Y-89928907D01*
X166371007Y-89889500D01*
X166371003Y-89889500D01*
X166168997Y-89889500D01*
X166168992Y-89889500D01*
X165970880Y-89928907D01*
X165970872Y-89928909D01*
X165784244Y-90006213D01*
X165703891Y-90059904D01*
X165637213Y-90080782D01*
X165569833Y-90062297D01*
X165566109Y-90059904D01*
X165485755Y-90006213D01*
X165299127Y-89928909D01*
X165299119Y-89928907D01*
X165101007Y-89889500D01*
X165101003Y-89889500D01*
X164898997Y-89889500D01*
X164898992Y-89889500D01*
X164700880Y-89928907D01*
X164700872Y-89928909D01*
X164514247Y-90006212D01*
X164514237Y-90006217D01*
X164346281Y-90118441D01*
X164203441Y-90261281D01*
X164091217Y-90429237D01*
X164091212Y-90429247D01*
X164013909Y-90615872D01*
X164013907Y-90615880D01*
X163974500Y-90813992D01*
X148318086Y-90813992D01*
X148411855Y-90720224D01*
X148421786Y-90710292D01*
X148421789Y-90710289D01*
X148509394Y-90579179D01*
X148569737Y-90433497D01*
X148600500Y-90278842D01*
X148600500Y-90121158D01*
X148600500Y-90121155D01*
X148600499Y-90121153D01*
X148582856Y-90032455D01*
X148569737Y-89966503D01*
X148569735Y-89966498D01*
X148509397Y-89820827D01*
X148509390Y-89820814D01*
X148421789Y-89689711D01*
X148421786Y-89689707D01*
X148310292Y-89578213D01*
X148310288Y-89578210D01*
X148251448Y-89538894D01*
X148179185Y-89490609D01*
X148179172Y-89490602D01*
X148061543Y-89441879D01*
X150059863Y-89441879D01*
X150059863Y-89599572D01*
X150090624Y-89754215D01*
X150090627Y-89754227D01*
X150150965Y-89899898D01*
X150150972Y-89899911D01*
X150238573Y-90031014D01*
X150238576Y-90031018D01*
X150350070Y-90142512D01*
X150350074Y-90142515D01*
X150481177Y-90230116D01*
X150481190Y-90230123D01*
X150611417Y-90284064D01*
X150626866Y-90290463D01*
X150781516Y-90321225D01*
X150781519Y-90321226D01*
X150781521Y-90321226D01*
X150939207Y-90321226D01*
X150939208Y-90321225D01*
X151093860Y-90290463D01*
X151239542Y-90230120D01*
X151370652Y-90142515D01*
X151482152Y-90031015D01*
X151569757Y-89899905D01*
X151574067Y-89889501D01*
X151602517Y-89820814D01*
X151630100Y-89754223D01*
X151660863Y-89599568D01*
X151660863Y-89441884D01*
X151660863Y-89441881D01*
X151660862Y-89441879D01*
X151646729Y-89370827D01*
X151630100Y-89287229D01*
X151597860Y-89209394D01*
X151569760Y-89141553D01*
X151569753Y-89141540D01*
X151482152Y-89010437D01*
X151482149Y-89010433D01*
X151370655Y-88898939D01*
X151370651Y-88898936D01*
X151239548Y-88811335D01*
X151239535Y-88811328D01*
X151093864Y-88750990D01*
X151093852Y-88750987D01*
X150939208Y-88720226D01*
X150939205Y-88720226D01*
X150781521Y-88720226D01*
X150781518Y-88720226D01*
X150626873Y-88750987D01*
X150626861Y-88750990D01*
X150481190Y-88811328D01*
X150481177Y-88811335D01*
X150350074Y-88898936D01*
X150350070Y-88898939D01*
X150238576Y-89010433D01*
X150238573Y-89010437D01*
X150150972Y-89141540D01*
X150150965Y-89141553D01*
X150090627Y-89287224D01*
X150090624Y-89287236D01*
X150059863Y-89441879D01*
X148061543Y-89441879D01*
X148033501Y-89430264D01*
X148033489Y-89430261D01*
X147878845Y-89399500D01*
X147878842Y-89399500D01*
X147721158Y-89399500D01*
X147721155Y-89399500D01*
X147566510Y-89430261D01*
X147566498Y-89430264D01*
X147420827Y-89490602D01*
X147420814Y-89490609D01*
X147289711Y-89578210D01*
X147289707Y-89578213D01*
X147178213Y-89689707D01*
X147178210Y-89689711D01*
X147090609Y-89820814D01*
X147090602Y-89820827D01*
X147030264Y-89966498D01*
X147030261Y-89966510D01*
X146999500Y-90121153D01*
X140462719Y-90121153D01*
X140484895Y-90067614D01*
X140484895Y-90067613D01*
X140488088Y-90059904D01*
X140519737Y-89983497D01*
X140550500Y-89828842D01*
X140550500Y-89671158D01*
X140550500Y-89671155D01*
X140550499Y-89671153D01*
X140544476Y-89640875D01*
X140519737Y-89516503D01*
X140515424Y-89506090D01*
X140459397Y-89370827D01*
X140459390Y-89370814D01*
X140371789Y-89239711D01*
X140371786Y-89239707D01*
X140260292Y-89128213D01*
X140260288Y-89128210D01*
X140129185Y-89040609D01*
X140129172Y-89040602D01*
X139983501Y-88980264D01*
X139983489Y-88980261D01*
X139828845Y-88949500D01*
X139828842Y-88949500D01*
X139671158Y-88949500D01*
X139671155Y-88949500D01*
X139516510Y-88980261D01*
X139516498Y-88980264D01*
X139370827Y-89040602D01*
X139370814Y-89040609D01*
X139239711Y-89128210D01*
X139239707Y-89128213D01*
X139128213Y-89239707D01*
X139128210Y-89239711D01*
X139040609Y-89370814D01*
X139040602Y-89370827D01*
X138980264Y-89516498D01*
X138980261Y-89516510D01*
X138949500Y-89671153D01*
X136296574Y-89671153D01*
X136302597Y-89640875D01*
X136315499Y-89576007D01*
X136315500Y-89576004D01*
X136315500Y-88923996D01*
X136315499Y-88923992D01*
X136294640Y-88819127D01*
X136276091Y-88725873D01*
X136198786Y-88539244D01*
X136198784Y-88539241D01*
X136198782Y-88539237D01*
X136086558Y-88371281D01*
X135943718Y-88228441D01*
X135775762Y-88116217D01*
X135775752Y-88116212D01*
X135589127Y-88038909D01*
X135589119Y-88038907D01*
X135391007Y-87999500D01*
X135391003Y-87999500D01*
X135188997Y-87999500D01*
X135188992Y-87999500D01*
X134990880Y-88038907D01*
X134990872Y-88038909D01*
X134804244Y-88116213D01*
X134723891Y-88169904D01*
X134657213Y-88190782D01*
X134589833Y-88172297D01*
X134586109Y-88169904D01*
X134505755Y-88116213D01*
X134319127Y-88038909D01*
X134319119Y-88038907D01*
X134121007Y-87999500D01*
X134121003Y-87999500D01*
X133918997Y-87999500D01*
X133918992Y-87999500D01*
X133720880Y-88038907D01*
X133720868Y-88038910D01*
X133640198Y-88072325D01*
X133570729Y-88079794D01*
X133525342Y-88060036D01*
X133525114Y-88060454D01*
X133520447Y-88057905D01*
X133518432Y-88057028D01*
X133517331Y-88056204D01*
X133517330Y-88056203D01*
X133517328Y-88056202D01*
X133382482Y-88005908D01*
X133382483Y-88005908D01*
X133322883Y-87999501D01*
X133322881Y-87999500D01*
X133322873Y-87999500D01*
X133322864Y-87999500D01*
X132177129Y-87999500D01*
X132177123Y-87999501D01*
X132117516Y-88005908D01*
X131982671Y-88056202D01*
X131982664Y-88056206D01*
X131867455Y-88142452D01*
X131867452Y-88142455D01*
X131781206Y-88257664D01*
X131781202Y-88257671D01*
X131730908Y-88392517D01*
X131724501Y-88452116D01*
X131724500Y-88452135D01*
X127647902Y-88452135D01*
X127616712Y-85535331D01*
X127617591Y-85532216D01*
X127616803Y-85529075D01*
X127627012Y-85498814D01*
X127635679Y-85468088D01*
X127638412Y-85465023D01*
X127639139Y-85462872D01*
X127648533Y-85453682D01*
X127663294Y-85437139D01*
X127667417Y-85433844D01*
X127707390Y-85407135D01*
X142999500Y-85407135D01*
X142999500Y-86552870D01*
X142999501Y-86552876D01*
X143005908Y-86612483D01*
X143056202Y-86747328D01*
X143056203Y-86747330D01*
X143056204Y-86747331D01*
X143057028Y-86748432D01*
X143057509Y-86749721D01*
X143060454Y-86755114D01*
X143059678Y-86755537D01*
X143081448Y-86813895D01*
X143072325Y-86870198D01*
X143038910Y-86950868D01*
X143038907Y-86950880D01*
X142999500Y-87148992D01*
X142999500Y-87351007D01*
X143038907Y-87549119D01*
X143038909Y-87549127D01*
X143116213Y-87735755D01*
X143169904Y-87816109D01*
X143190782Y-87882787D01*
X143172297Y-87950167D01*
X143169904Y-87953891D01*
X143116213Y-88034244D01*
X143038909Y-88220872D01*
X143038907Y-88220880D01*
X142999500Y-88418992D01*
X142999500Y-88621007D01*
X143038907Y-88819119D01*
X143038909Y-88819127D01*
X143116212Y-89005752D01*
X143116217Y-89005762D01*
X143228441Y-89173718D01*
X143371281Y-89316558D01*
X143539237Y-89428782D01*
X143539241Y-89428784D01*
X143539244Y-89428786D01*
X143725873Y-89506091D01*
X143890786Y-89538894D01*
X143923992Y-89545499D01*
X143923996Y-89545500D01*
X143923997Y-89545500D01*
X144576004Y-89545500D01*
X144576005Y-89545499D01*
X144774127Y-89506091D01*
X144960756Y-89428786D01*
X145128718Y-89316558D01*
X145271558Y-89173718D01*
X145360503Y-89040602D01*
X145383782Y-89005762D01*
X145383782Y-89005761D01*
X145383786Y-89005756D01*
X145461091Y-88819127D01*
X145500500Y-88621003D01*
X145500500Y-88418997D01*
X145461091Y-88220873D01*
X145394643Y-88060454D01*
X145383787Y-88034246D01*
X145360571Y-87999501D01*
X145330094Y-87953889D01*
X145309217Y-87887214D01*
X145327701Y-87819834D01*
X145330078Y-87816134D01*
X145383786Y-87735756D01*
X145461091Y-87549127D01*
X145500500Y-87351003D01*
X145500500Y-87148997D01*
X145461091Y-86950873D01*
X145427673Y-86870198D01*
X145420205Y-86800730D01*
X145439964Y-86755340D01*
X145439547Y-86755112D01*
X145442095Y-86750444D01*
X145442972Y-86748431D01*
X145443796Y-86747331D01*
X145494091Y-86612483D01*
X145500500Y-86552873D01*
X145500499Y-85427135D01*
X153999500Y-85427135D01*
X153999500Y-86572870D01*
X153999501Y-86572876D01*
X154005908Y-86632483D01*
X154056202Y-86767328D01*
X154056203Y-86767330D01*
X154056204Y-86767331D01*
X154057028Y-86768432D01*
X154057509Y-86769721D01*
X154060454Y-86775114D01*
X154059678Y-86775537D01*
X154081448Y-86833895D01*
X154072325Y-86890198D01*
X154038910Y-86970868D01*
X154038907Y-86970880D01*
X153999500Y-87168992D01*
X153999500Y-87371007D01*
X154038907Y-87569119D01*
X154038909Y-87569127D01*
X154116213Y-87755755D01*
X154169904Y-87836109D01*
X154190782Y-87902787D01*
X154172297Y-87970167D01*
X154169904Y-87973891D01*
X154116213Y-88054244D01*
X154038909Y-88240872D01*
X154038907Y-88240880D01*
X153999500Y-88438992D01*
X153999500Y-88641007D01*
X154038907Y-88839119D01*
X154038909Y-88839127D01*
X154116212Y-89025752D01*
X154116217Y-89025762D01*
X154228441Y-89193718D01*
X154371281Y-89336558D01*
X154539237Y-89448782D01*
X154539241Y-89448784D01*
X154539244Y-89448786D01*
X154725873Y-89526091D01*
X154923992Y-89565499D01*
X154923996Y-89565500D01*
X154923997Y-89565500D01*
X155576004Y-89565500D01*
X155576005Y-89565499D01*
X155774127Y-89526091D01*
X155960756Y-89448786D01*
X156128718Y-89336558D01*
X156271558Y-89193718D01*
X156383786Y-89025756D01*
X156461091Y-88839127D01*
X156500500Y-88641003D01*
X156500500Y-88438997D01*
X156496951Y-88421153D01*
X158699500Y-88421153D01*
X158699500Y-88578846D01*
X158730261Y-88733489D01*
X158730264Y-88733501D01*
X158790602Y-88879172D01*
X158790609Y-88879185D01*
X158878210Y-89010288D01*
X158878213Y-89010292D01*
X158989707Y-89121786D01*
X158989711Y-89121789D01*
X159120814Y-89209390D01*
X159120827Y-89209397D01*
X159194013Y-89239711D01*
X159266503Y-89269737D01*
X159421153Y-89300499D01*
X159421156Y-89300500D01*
X159421158Y-89300500D01*
X159578844Y-89300500D01*
X159578845Y-89300499D01*
X159733497Y-89269737D01*
X159879179Y-89209394D01*
X160010289Y-89121789D01*
X160121789Y-89010289D01*
X160209394Y-88879179D01*
X160269737Y-88733497D01*
X160300500Y-88578842D01*
X160300500Y-88421158D01*
X160300500Y-88421155D01*
X160300499Y-88421153D01*
X160269738Y-88266510D01*
X160269737Y-88266503D01*
X160259121Y-88240873D01*
X160209397Y-88120827D01*
X160209390Y-88120814D01*
X160121789Y-87989711D01*
X160121786Y-87989707D01*
X160010292Y-87878213D01*
X160010288Y-87878210D01*
X159879185Y-87790609D01*
X159879172Y-87790602D01*
X159733501Y-87730264D01*
X159733489Y-87730261D01*
X159578845Y-87699500D01*
X159578842Y-87699500D01*
X159421158Y-87699500D01*
X159421155Y-87699500D01*
X159266510Y-87730261D01*
X159266498Y-87730264D01*
X159120827Y-87790602D01*
X159120814Y-87790609D01*
X158989711Y-87878210D01*
X158989707Y-87878213D01*
X158878213Y-87989707D01*
X158878210Y-87989711D01*
X158790609Y-88120814D01*
X158790602Y-88120827D01*
X158730264Y-88266498D01*
X158730261Y-88266510D01*
X158699500Y-88421153D01*
X156496951Y-88421153D01*
X156461091Y-88240873D01*
X156394369Y-88079794D01*
X156383787Y-88054246D01*
X156373538Y-88038907D01*
X156330094Y-87973889D01*
X156309217Y-87907214D01*
X156327701Y-87839834D01*
X156330078Y-87836134D01*
X156383786Y-87755756D01*
X156461091Y-87569127D01*
X156500500Y-87371003D01*
X156500500Y-87168997D01*
X156461091Y-86970873D01*
X156427673Y-86890198D01*
X156420205Y-86820730D01*
X156439964Y-86775340D01*
X156439547Y-86775112D01*
X156442095Y-86770444D01*
X156442972Y-86768431D01*
X156443796Y-86767331D01*
X156494091Y-86632483D01*
X156500500Y-86572873D01*
X156500499Y-86171153D01*
X162449500Y-86171153D01*
X162449500Y-86328846D01*
X162480261Y-86483489D01*
X162480264Y-86483501D01*
X162540602Y-86629172D01*
X162540609Y-86629185D01*
X162628210Y-86760288D01*
X162628213Y-86760292D01*
X162739707Y-86871786D01*
X162739711Y-86871789D01*
X162870814Y-86959390D01*
X162870827Y-86959397D01*
X163016498Y-87019735D01*
X163016503Y-87019737D01*
X163171153Y-87050499D01*
X163171156Y-87050500D01*
X163171158Y-87050500D01*
X163328844Y-87050500D01*
X163328845Y-87050499D01*
X163483497Y-87019737D01*
X163629179Y-86959394D01*
X163760289Y-86871789D01*
X163871789Y-86760289D01*
X163959394Y-86629179D01*
X164019737Y-86483497D01*
X164050500Y-86328842D01*
X164050500Y-86171158D01*
X164050500Y-86171155D01*
X164050499Y-86171153D01*
X164019738Y-86016510D01*
X164019737Y-86016503D01*
X164019735Y-86016498D01*
X163959397Y-85870827D01*
X163959390Y-85870814D01*
X163871789Y-85739711D01*
X163871786Y-85739707D01*
X163760292Y-85628213D01*
X163760288Y-85628210D01*
X163629185Y-85540609D01*
X163629172Y-85540602D01*
X163483501Y-85480264D01*
X163483489Y-85480261D01*
X163328845Y-85449500D01*
X163328842Y-85449500D01*
X163171158Y-85449500D01*
X163171155Y-85449500D01*
X163016510Y-85480261D01*
X163016498Y-85480264D01*
X162870827Y-85540602D01*
X162870814Y-85540609D01*
X162739711Y-85628210D01*
X162739707Y-85628213D01*
X162628213Y-85739707D01*
X162628210Y-85739711D01*
X162540609Y-85870814D01*
X162540602Y-85870827D01*
X162480264Y-86016498D01*
X162480261Y-86016510D01*
X162449500Y-86171153D01*
X156500499Y-86171153D01*
X156500499Y-85870827D01*
X156500499Y-85427129D01*
X156500498Y-85427123D01*
X156500497Y-85427116D01*
X156494091Y-85367517D01*
X156486631Y-85347517D01*
X156443797Y-85232671D01*
X156443793Y-85232664D01*
X156357547Y-85117455D01*
X156357544Y-85117452D01*
X156242335Y-85031206D01*
X156242328Y-85031202D01*
X156107482Y-84980908D01*
X156107483Y-84980908D01*
X156047883Y-84974501D01*
X156047881Y-84974500D01*
X156047873Y-84974500D01*
X156047864Y-84974500D01*
X154452129Y-84974500D01*
X154452123Y-84974501D01*
X154392516Y-84980908D01*
X154257671Y-85031202D01*
X154257664Y-85031206D01*
X154142455Y-85117452D01*
X154142452Y-85117455D01*
X154056206Y-85232664D01*
X154056202Y-85232671D01*
X154005908Y-85367517D01*
X154001650Y-85407127D01*
X153999501Y-85427123D01*
X153999500Y-85427135D01*
X145500499Y-85427135D01*
X145500499Y-85407128D01*
X145494091Y-85347517D01*
X145461558Y-85260292D01*
X145443797Y-85212671D01*
X145443793Y-85212664D01*
X145357547Y-85097455D01*
X145357544Y-85097452D01*
X145242335Y-85011206D01*
X145242328Y-85011202D01*
X145107482Y-84960908D01*
X145107483Y-84960908D01*
X145047883Y-84954501D01*
X145047881Y-84954500D01*
X145047873Y-84954500D01*
X145047864Y-84954500D01*
X143452129Y-84954500D01*
X143452123Y-84954501D01*
X143392516Y-84960908D01*
X143257671Y-85011202D01*
X143257664Y-85011206D01*
X143142455Y-85097452D01*
X143142452Y-85097455D01*
X143056206Y-85212664D01*
X143056202Y-85212671D01*
X143005908Y-85347517D01*
X143003299Y-85371789D01*
X142999501Y-85407123D01*
X142999500Y-85407135D01*
X127707390Y-85407135D01*
X127760289Y-85371789D01*
X127871789Y-85260289D01*
X127959394Y-85129179D01*
X127964252Y-85117452D01*
X127999977Y-85031202D01*
X128019737Y-84983497D01*
X128050500Y-84828842D01*
X128050500Y-84671158D01*
X128050500Y-84671155D01*
X128050499Y-84671153D01*
X128019738Y-84516510D01*
X128019737Y-84516503D01*
X128019735Y-84516498D01*
X127959397Y-84370827D01*
X127959390Y-84370814D01*
X127871789Y-84239711D01*
X127871786Y-84239707D01*
X127760292Y-84128213D01*
X127760288Y-84128210D01*
X127654926Y-84057809D01*
X127610121Y-84004197D01*
X127599824Y-83956037D01*
X127593035Y-83321153D01*
X128199500Y-83321153D01*
X128199500Y-83478846D01*
X128230261Y-83633489D01*
X128230264Y-83633501D01*
X128290602Y-83779172D01*
X128290609Y-83779185D01*
X128378210Y-83910288D01*
X128378213Y-83910292D01*
X128489707Y-84021786D01*
X128489711Y-84021789D01*
X128620814Y-84109390D01*
X128620827Y-84109397D01*
X128666254Y-84128213D01*
X128766503Y-84169737D01*
X128921153Y-84200499D01*
X128921156Y-84200500D01*
X128921158Y-84200500D01*
X129078844Y-84200500D01*
X129078845Y-84200499D01*
X129233497Y-84169737D01*
X129379179Y-84109394D01*
X129510289Y-84021789D01*
X129621789Y-83910289D01*
X129709394Y-83779179D01*
X129769737Y-83633497D01*
X129800500Y-83478842D01*
X129800500Y-83321158D01*
X129800500Y-83321155D01*
X129800499Y-83321153D01*
X129796391Y-83300500D01*
X129769737Y-83166503D01*
X129750955Y-83121158D01*
X129750953Y-83121153D01*
X130999500Y-83121153D01*
X130999500Y-83278846D01*
X131030261Y-83433489D01*
X131030264Y-83433501D01*
X131090602Y-83579172D01*
X131090609Y-83579185D01*
X131178210Y-83710288D01*
X131178213Y-83710292D01*
X131289707Y-83821786D01*
X131289711Y-83821789D01*
X131420814Y-83909390D01*
X131420827Y-83909397D01*
X131517646Y-83949500D01*
X131566503Y-83969737D01*
X131721153Y-84000499D01*
X131721156Y-84000500D01*
X131721158Y-84000500D01*
X131878844Y-84000500D01*
X131878845Y-84000499D01*
X132033497Y-83969737D01*
X132179179Y-83909394D01*
X132310289Y-83821789D01*
X132421789Y-83710289D01*
X132509394Y-83579179D01*
X132569737Y-83433497D01*
X132600500Y-83278842D01*
X132600500Y-83121158D01*
X132600500Y-83121155D01*
X132600499Y-83121153D01*
X132580543Y-83020827D01*
X132569737Y-82966503D01*
X132537929Y-82889711D01*
X132509397Y-82820827D01*
X132509390Y-82820814D01*
X132421789Y-82689711D01*
X132421786Y-82689707D01*
X132310292Y-82578213D01*
X132310288Y-82578210D01*
X132179185Y-82490609D01*
X132179172Y-82490602D01*
X132033501Y-82430264D01*
X132033489Y-82430261D01*
X131878845Y-82399500D01*
X131878842Y-82399500D01*
X131721158Y-82399500D01*
X131721155Y-82399500D01*
X131566510Y-82430261D01*
X131566498Y-82430264D01*
X131420827Y-82490602D01*
X131420814Y-82490609D01*
X131289711Y-82578210D01*
X131289707Y-82578213D01*
X131178213Y-82689707D01*
X131178210Y-82689711D01*
X131090609Y-82820814D01*
X131090602Y-82820827D01*
X131030264Y-82966498D01*
X131030261Y-82966510D01*
X130999500Y-83121153D01*
X129750953Y-83121153D01*
X129709397Y-83020827D01*
X129709390Y-83020814D01*
X129621789Y-82889711D01*
X129621786Y-82889707D01*
X129510292Y-82778213D01*
X129510288Y-82778210D01*
X129379185Y-82690609D01*
X129379172Y-82690602D01*
X129233501Y-82630264D01*
X129233489Y-82630261D01*
X129078845Y-82599500D01*
X129078842Y-82599500D01*
X128921158Y-82599500D01*
X128921155Y-82599500D01*
X128766510Y-82630261D01*
X128766498Y-82630264D01*
X128620827Y-82690602D01*
X128620814Y-82690609D01*
X128489711Y-82778210D01*
X128489707Y-82778213D01*
X128378213Y-82889707D01*
X128378210Y-82889711D01*
X128290609Y-83020814D01*
X128290602Y-83020827D01*
X128230264Y-83166498D01*
X128230261Y-83166510D01*
X128199500Y-83321153D01*
X127593035Y-83321153D01*
X127555290Y-79791275D01*
X127574257Y-79724030D01*
X127591676Y-79702195D01*
X127624330Y-79669597D01*
X128454677Y-78840652D01*
X128516028Y-78807219D01*
X128542284Y-78804407D01*
X129241183Y-78804407D01*
X129308222Y-78824092D01*
G37*
%TD.AperFunction*%
%TD*%
%TA.AperFunction,NonConductor*%
G36*
X148439273Y-97444341D02*
G01*
X148486884Y-97495478D01*
X148500000Y-97550983D01*
X148500000Y-97876000D01*
X148480315Y-97943039D01*
X148427511Y-97988794D01*
X148376000Y-98000000D01*
X148181441Y-98000000D01*
X148114402Y-97980315D01*
X148068647Y-97927511D01*
X148058703Y-97858353D01*
X148087728Y-97794797D01*
X148093760Y-97788319D01*
X148121786Y-97760292D01*
X148121789Y-97760289D01*
X148209394Y-97629179D01*
X148212456Y-97621786D01*
X148261439Y-97503531D01*
X148305280Y-97449127D01*
X148371574Y-97427062D01*
X148439273Y-97444341D01*
G37*
%TD.AperFunction*%
%TA.AperFunction,NonConductor*%
G36*
X169164256Y-98181641D02*
G01*
X169220928Y-98222507D01*
X169237564Y-98251125D01*
X169290604Y-98379175D01*
X169290609Y-98379185D01*
X169378210Y-98510288D01*
X169378213Y-98510292D01*
X169406240Y-98538319D01*
X169439725Y-98599642D01*
X169434741Y-98669334D01*
X169392869Y-98725267D01*
X169327405Y-98749684D01*
X169318559Y-98750000D01*
X169024217Y-98750000D01*
X168957178Y-98730315D01*
X168911423Y-98677511D01*
X168901479Y-98608353D01*
X168909656Y-98578548D01*
X168969735Y-98433501D01*
X168969737Y-98433497D01*
X169000500Y-98278842D01*
X169000500Y-98278841D01*
X169001386Y-98274387D01*
X169033770Y-98212476D01*
X169094486Y-98177902D01*
X169164256Y-98181641D01*
G37*
%TD.AperFunction*%
%TA.AperFunction,Conductor*%
%TO.N,9V*%
G36*
X127399500Y-75521153D02*
G01*
X127399500Y-75678846D01*
X127430261Y-75833489D01*
X127430264Y-75833501D01*
X127490602Y-75979172D01*
X127490609Y-75979185D01*
X127578210Y-76110288D01*
X127578213Y-76110292D01*
X127689707Y-76221786D01*
X127689711Y-76221789D01*
X127820814Y-76309390D01*
X127820827Y-76309397D01*
X127917646Y-76349500D01*
X127966503Y-76369737D01*
X128121153Y-76400499D01*
X128121156Y-76400500D01*
X128121158Y-76400500D01*
X128278844Y-76400500D01*
X128278845Y-76400499D01*
X128433497Y-76369737D01*
X128579179Y-76309394D01*
X128710289Y-76221789D01*
X128821789Y-76110289D01*
X128909394Y-75979179D01*
X128969737Y-75833497D01*
X129000500Y-75678842D01*
X129000500Y-75521158D01*
X129000500Y-75521155D01*
X129000499Y-75521153D01*
X128996292Y-75500000D01*
X130900000Y-75500000D01*
X128400000Y-78000000D01*
X128399999Y-78000000D01*
X126750000Y-79649999D01*
X126750000Y-84066559D01*
X126730315Y-84133598D01*
X126713681Y-84154240D01*
X126628213Y-84239707D01*
X126628210Y-84239711D01*
X126540609Y-84370814D01*
X126540602Y-84370827D01*
X126480264Y-84516498D01*
X126480261Y-84516510D01*
X126449500Y-84671153D01*
X126449500Y-84828846D01*
X126480261Y-84983489D01*
X126480264Y-84983501D01*
X126540602Y-85129172D01*
X126540609Y-85129185D01*
X126628209Y-85260287D01*
X126628210Y-85260288D01*
X126628211Y-85260289D01*
X126713682Y-85345760D01*
X126747166Y-85407081D01*
X126750000Y-85433440D01*
X126750000Y-90318559D01*
X126730315Y-90385598D01*
X126677511Y-90431353D01*
X126608353Y-90441297D01*
X126544797Y-90412272D01*
X126538319Y-90406240D01*
X126510292Y-90378213D01*
X126510288Y-90378210D01*
X126379185Y-90290609D01*
X126379172Y-90290602D01*
X126233501Y-90230264D01*
X126233489Y-90230261D01*
X126078845Y-90199500D01*
X126078842Y-90199500D01*
X125921158Y-90199500D01*
X125921155Y-90199500D01*
X125766510Y-90230261D01*
X125766498Y-90230264D01*
X125620827Y-90290602D01*
X125620814Y-90290609D01*
X125489711Y-90378210D01*
X125489707Y-90378213D01*
X125378213Y-90489707D01*
X125378210Y-90489711D01*
X125290609Y-90620814D01*
X125290602Y-90620827D01*
X125230264Y-90766498D01*
X125230261Y-90766510D01*
X125199500Y-90921153D01*
X125199500Y-91078846D01*
X125230261Y-91233489D01*
X125230264Y-91233501D01*
X125290602Y-91379172D01*
X125290609Y-91379185D01*
X125378210Y-91510288D01*
X125378213Y-91510292D01*
X125489707Y-91621786D01*
X125489711Y-91621789D01*
X125620814Y-91709390D01*
X125620827Y-91709397D01*
X125694013Y-91739711D01*
X125766503Y-91769737D01*
X125871418Y-91790606D01*
X125921153Y-91800499D01*
X125921156Y-91800500D01*
X125921158Y-91800500D01*
X126078844Y-91800500D01*
X126078845Y-91800499D01*
X126233497Y-91769737D01*
X126379179Y-91709394D01*
X126510289Y-91621789D01*
X126510292Y-91621786D01*
X126538319Y-91593760D01*
X126599642Y-91560275D01*
X126669334Y-91565259D01*
X126725267Y-91607131D01*
X126749684Y-91672595D01*
X126750000Y-91681441D01*
X126750000Y-99100000D01*
X132755073Y-99100000D01*
X132822112Y-99119685D01*
X132867867Y-99172489D01*
X132877811Y-99241647D01*
X132869634Y-99271450D01*
X132853059Y-99311466D01*
X132830263Y-99366502D01*
X132830261Y-99366510D01*
X132799500Y-99521153D01*
X132799500Y-99678846D01*
X132830261Y-99833489D01*
X132830264Y-99833501D01*
X132890602Y-99979172D01*
X132890609Y-99979185D01*
X132978210Y-100110288D01*
X132978213Y-100110292D01*
X133089707Y-100221786D01*
X133089711Y-100221789D01*
X133220814Y-100309390D01*
X133220827Y-100309397D01*
X133366498Y-100369735D01*
X133366503Y-100369737D01*
X133521153Y-100400499D01*
X133521156Y-100400500D01*
X133521158Y-100400500D01*
X133678844Y-100400500D01*
X133678845Y-100400499D01*
X133833497Y-100369737D01*
X133979179Y-100309394D01*
X134110289Y-100221789D01*
X134221789Y-100110289D01*
X134309394Y-99979179D01*
X134369737Y-99833497D01*
X134400500Y-99678842D01*
X134400500Y-99521158D01*
X134400500Y-99521155D01*
X134400499Y-99521153D01*
X134369738Y-99366510D01*
X134369737Y-99366503D01*
X134330365Y-99271452D01*
X134322897Y-99201983D01*
X134354172Y-99139504D01*
X134414261Y-99103852D01*
X134444927Y-99100000D01*
X139475500Y-99100000D01*
X139542539Y-99119685D01*
X139588294Y-99172489D01*
X139599500Y-99224000D01*
X139599500Y-99278846D01*
X139630261Y-99433489D01*
X139630264Y-99433501D01*
X139690602Y-99579172D01*
X139690609Y-99579185D01*
X139778210Y-99710288D01*
X139778213Y-99710292D01*
X139889707Y-99821786D01*
X139889711Y-99821789D01*
X140020814Y-99909390D01*
X140020827Y-99909397D01*
X140166498Y-99969735D01*
X140166503Y-99969737D01*
X140321153Y-100000499D01*
X140321156Y-100000500D01*
X140321158Y-100000500D01*
X140478844Y-100000500D01*
X140478845Y-100000499D01*
X140633497Y-99969737D01*
X140779179Y-99909394D01*
X140910289Y-99821789D01*
X141021789Y-99710289D01*
X141109394Y-99579179D01*
X141169737Y-99433497D01*
X141200500Y-99278842D01*
X141200500Y-99224000D01*
X141220185Y-99156961D01*
X141272989Y-99111206D01*
X141324500Y-99100000D01*
X145475500Y-99100000D01*
X145542539Y-99119685D01*
X145588294Y-99172489D01*
X145599500Y-99224000D01*
X145599500Y-99278846D01*
X145630261Y-99433489D01*
X145630264Y-99433501D01*
X145690602Y-99579172D01*
X145690609Y-99579185D01*
X145778210Y-99710288D01*
X145778213Y-99710292D01*
X145889707Y-99821786D01*
X145889711Y-99821789D01*
X146020814Y-99909390D01*
X146020827Y-99909397D01*
X146166498Y-99969735D01*
X146166503Y-99969737D01*
X146321153Y-100000499D01*
X146321156Y-100000500D01*
X146321158Y-100000500D01*
X146478844Y-100000500D01*
X146478845Y-100000499D01*
X146633497Y-99969737D01*
X146779179Y-99909394D01*
X146910289Y-99821789D01*
X147021789Y-99710289D01*
X147109394Y-99579179D01*
X147169737Y-99433497D01*
X147200500Y-99278842D01*
X147200500Y-99224000D01*
X147220185Y-99156961D01*
X147272989Y-99111206D01*
X147324500Y-99100000D01*
X149312922Y-99100000D01*
X149311776Y-93624026D01*
X149331447Y-93556982D01*
X149384241Y-93511216D01*
X149435776Y-93500000D01*
X155876000Y-93500000D01*
X155943039Y-93519685D01*
X155988794Y-93572489D01*
X156000000Y-93624000D01*
X156000000Y-97694189D01*
X155990562Y-97741636D01*
X155980263Y-97766503D01*
X155980262Y-97766507D01*
X155980261Y-97766510D01*
X155980260Y-97766511D01*
X155949500Y-97921153D01*
X155949500Y-98078846D01*
X155980261Y-98233489D01*
X155980263Y-98233497D01*
X155990561Y-98258358D01*
X156000000Y-98305811D01*
X156000000Y-99750000D01*
X163316559Y-99750000D01*
X163383598Y-99769685D01*
X163404240Y-99786319D01*
X163489707Y-99871786D01*
X163489711Y-99871789D01*
X163620814Y-99959390D01*
X163620827Y-99959397D01*
X163720060Y-100000500D01*
X163766503Y-100019737D01*
X163921153Y-100050499D01*
X163921156Y-100050500D01*
X163921158Y-100050500D01*
X164078844Y-100050500D01*
X164078845Y-100050499D01*
X164233497Y-100019737D01*
X164379179Y-99959394D01*
X164510289Y-99871789D01*
X164548589Y-99833489D01*
X164595760Y-99786319D01*
X164657083Y-99752834D01*
X164683441Y-99750000D01*
X171500000Y-99750000D01*
X171500000Y-102499500D01*
X122559500Y-102499500D01*
X122492461Y-102479815D01*
X122446706Y-102427011D01*
X122435500Y-102375500D01*
X122435500Y-101321153D01*
X122999500Y-101321153D01*
X122999500Y-101478846D01*
X123030261Y-101633489D01*
X123030264Y-101633501D01*
X123090602Y-101779172D01*
X123090609Y-101779185D01*
X123178210Y-101910288D01*
X123178213Y-101910292D01*
X123289707Y-102021786D01*
X123289711Y-102021789D01*
X123420814Y-102109390D01*
X123420827Y-102109397D01*
X123566498Y-102169735D01*
X123566503Y-102169737D01*
X123721153Y-102200499D01*
X123721156Y-102200500D01*
X123721158Y-102200500D01*
X123878844Y-102200500D01*
X123878845Y-102200499D01*
X124033497Y-102169737D01*
X124179179Y-102109394D01*
X124310289Y-102021789D01*
X124421789Y-101910289D01*
X124509394Y-101779179D01*
X124569737Y-101633497D01*
X124600500Y-101478842D01*
X124600500Y-101321158D01*
X124600500Y-101321155D01*
X124600499Y-101321153D01*
X124569738Y-101166510D01*
X124569737Y-101166503D01*
X124569735Y-101166498D01*
X124509397Y-101020827D01*
X124509390Y-101020814D01*
X124421789Y-100889711D01*
X124421786Y-100889707D01*
X124310292Y-100778213D01*
X124310288Y-100778210D01*
X124179185Y-100690609D01*
X124179172Y-100690602D01*
X124033501Y-100630264D01*
X124033489Y-100630261D01*
X123878845Y-100599500D01*
X123878842Y-100599500D01*
X123721158Y-100599500D01*
X123721155Y-100599500D01*
X123566510Y-100630261D01*
X123566498Y-100630264D01*
X123420827Y-100690602D01*
X123420814Y-100690609D01*
X123289711Y-100778210D01*
X123289707Y-100778213D01*
X123178213Y-100889707D01*
X123178210Y-100889711D01*
X123090609Y-101020814D01*
X123090602Y-101020827D01*
X123030264Y-101166498D01*
X123030261Y-101166510D01*
X122999500Y-101321153D01*
X122435500Y-101321153D01*
X122435500Y-96921153D01*
X122799500Y-96921153D01*
X122799500Y-97078846D01*
X122830261Y-97233489D01*
X122830264Y-97233501D01*
X122890602Y-97379172D01*
X122890609Y-97379185D01*
X122978210Y-97510288D01*
X122978213Y-97510292D01*
X123089707Y-97621786D01*
X123089711Y-97621789D01*
X123220814Y-97709390D01*
X123220827Y-97709397D01*
X123366498Y-97769735D01*
X123366503Y-97769737D01*
X123521153Y-97800499D01*
X123521156Y-97800500D01*
X123521158Y-97800500D01*
X123678844Y-97800500D01*
X123678845Y-97800499D01*
X123833497Y-97769737D01*
X123979179Y-97709394D01*
X124110289Y-97621789D01*
X124221789Y-97510289D01*
X124309394Y-97379179D01*
X124369737Y-97233497D01*
X124400500Y-97078842D01*
X124400500Y-96921158D01*
X124400500Y-96921155D01*
X124400499Y-96921153D01*
X124369738Y-96766510D01*
X124369737Y-96766503D01*
X124369735Y-96766498D01*
X124309397Y-96620827D01*
X124309390Y-96620814D01*
X124221789Y-96489711D01*
X124221786Y-96489707D01*
X124110292Y-96378213D01*
X124110288Y-96378210D01*
X123979185Y-96290609D01*
X123979172Y-96290602D01*
X123833501Y-96230264D01*
X123833489Y-96230261D01*
X123678845Y-96199500D01*
X123678842Y-96199500D01*
X123521158Y-96199500D01*
X123521155Y-96199500D01*
X123366510Y-96230261D01*
X123366498Y-96230264D01*
X123220827Y-96290602D01*
X123220814Y-96290609D01*
X123089711Y-96378210D01*
X123089707Y-96378213D01*
X122978213Y-96489707D01*
X122978210Y-96489711D01*
X122890609Y-96620814D01*
X122890602Y-96620827D01*
X122830264Y-96766498D01*
X122830261Y-96766510D01*
X122799500Y-96921153D01*
X122435500Y-96921153D01*
X122435500Y-75624000D01*
X122455185Y-75556961D01*
X122507989Y-75511206D01*
X122559500Y-75500000D01*
X123600000Y-75500000D01*
X127403708Y-75500000D01*
X127399500Y-75521153D01*
G37*
%TD.AperFunction*%
%TD*%
%TA.AperFunction,Conductor*%
%TO.N,9V*%
G36*
X175693039Y-71520185D02*
G01*
X175738794Y-71572989D01*
X175750000Y-71624500D01*
X175750000Y-84578304D01*
X175730315Y-84645343D01*
X175677511Y-84691098D01*
X175608353Y-84701042D01*
X175544797Y-84672017D01*
X175511440Y-84625759D01*
X175509396Y-84620826D01*
X175509390Y-84620814D01*
X175421789Y-84489711D01*
X175421786Y-84489707D01*
X175310292Y-84378213D01*
X175310288Y-84378210D01*
X175179185Y-84290609D01*
X175179172Y-84290602D01*
X175033501Y-84230264D01*
X175033489Y-84230261D01*
X174878845Y-84199500D01*
X174878842Y-84199500D01*
X174721158Y-84199500D01*
X174721155Y-84199500D01*
X174566510Y-84230261D01*
X174566498Y-84230264D01*
X174420827Y-84290602D01*
X174420814Y-84290609D01*
X174289711Y-84378210D01*
X174289707Y-84378213D01*
X174178213Y-84489707D01*
X174178210Y-84489711D01*
X174090609Y-84620814D01*
X174090602Y-84620827D01*
X174030264Y-84766498D01*
X174030261Y-84766510D01*
X173999500Y-84921153D01*
X173999500Y-85078846D01*
X174030261Y-85233489D01*
X174030264Y-85233501D01*
X174090602Y-85379172D01*
X174090609Y-85379185D01*
X174178210Y-85510288D01*
X174178213Y-85510292D01*
X174289707Y-85621786D01*
X174289711Y-85621789D01*
X174420814Y-85709390D01*
X174420827Y-85709397D01*
X174522952Y-85751698D01*
X174577356Y-85795538D01*
X174599421Y-85861833D01*
X174599500Y-85866259D01*
X174599500Y-85878846D01*
X174630261Y-86033489D01*
X174630264Y-86033501D01*
X174690602Y-86179172D01*
X174690609Y-86179185D01*
X174778210Y-86310288D01*
X174778213Y-86310292D01*
X174889707Y-86421786D01*
X174889711Y-86421789D01*
X175020814Y-86509390D01*
X175020827Y-86509397D01*
X175125787Y-86552872D01*
X175166503Y-86569737D01*
X175321153Y-86600499D01*
X175321156Y-86600500D01*
X175321158Y-86600500D01*
X175478844Y-86600500D01*
X175542011Y-86587934D01*
X175601809Y-86576040D01*
X175671399Y-86582267D01*
X175726577Y-86625129D01*
X175749822Y-86691019D01*
X175750000Y-86697657D01*
X175750000Y-102375500D01*
X175730315Y-102442539D01*
X175677511Y-102488294D01*
X175626000Y-102499500D01*
X171500000Y-102499500D01*
X171500000Y-99750000D01*
X170500000Y-99750000D01*
X170500000Y-98683440D01*
X170519685Y-98616401D01*
X170536314Y-98595763D01*
X170621789Y-98510289D01*
X170709394Y-98379179D01*
X170769737Y-98233497D01*
X170800500Y-98078842D01*
X170800500Y-97921158D01*
X170800500Y-97921155D01*
X170800499Y-97921153D01*
X170790680Y-97871789D01*
X170769737Y-97766503D01*
X170709795Y-97621789D01*
X170709397Y-97620827D01*
X170709390Y-97620814D01*
X170621789Y-97489711D01*
X170621786Y-97489707D01*
X170536319Y-97404240D01*
X170521615Y-97377312D01*
X170505023Y-97351494D01*
X170504131Y-97345293D01*
X170502834Y-97342917D01*
X170500000Y-97316559D01*
X170500000Y-97083440D01*
X170519685Y-97016401D01*
X170536314Y-96995763D01*
X170621789Y-96910289D01*
X170709394Y-96779179D01*
X170769737Y-96633497D01*
X170800500Y-96478842D01*
X170800500Y-96321158D01*
X170800500Y-96321155D01*
X170800499Y-96321153D01*
X170782420Y-96230263D01*
X170769737Y-96166503D01*
X170752631Y-96125205D01*
X170709397Y-96020827D01*
X170709390Y-96020814D01*
X170621789Y-95889711D01*
X170621786Y-95889707D01*
X170536319Y-95804240D01*
X170521615Y-95777312D01*
X170505023Y-95751494D01*
X170504131Y-95745293D01*
X170502834Y-95742917D01*
X170500000Y-95716559D01*
X170500000Y-95683440D01*
X170519685Y-95616401D01*
X170536314Y-95595763D01*
X170621789Y-95510289D01*
X170709394Y-95379179D01*
X170769737Y-95233497D01*
X170800500Y-95078842D01*
X170800500Y-94921158D01*
X170800500Y-94921155D01*
X170800499Y-94921153D01*
X170790487Y-94870821D01*
X170769737Y-94766503D01*
X170767163Y-94760289D01*
X170709397Y-94620827D01*
X170709390Y-94620814D01*
X170621789Y-94489711D01*
X170621786Y-94489707D01*
X170536319Y-94404240D01*
X170502834Y-94342917D01*
X170500000Y-94316559D01*
X170500000Y-87298055D01*
X170519685Y-87231016D01*
X170572489Y-87185261D01*
X170599803Y-87176439D01*
X170633497Y-87169737D01*
X170779179Y-87109394D01*
X170910289Y-87021789D01*
X171021789Y-86910289D01*
X171109394Y-86779179D01*
X171169737Y-86633497D01*
X171200500Y-86478842D01*
X171200500Y-86321158D01*
X171200500Y-86321155D01*
X171200499Y-86321153D01*
X171198338Y-86310288D01*
X171169737Y-86166503D01*
X171169735Y-86166498D01*
X171109397Y-86020827D01*
X171109390Y-86020814D01*
X171021789Y-85889711D01*
X171021786Y-85889707D01*
X170910292Y-85778213D01*
X170910288Y-85778210D01*
X170779185Y-85690609D01*
X170779172Y-85690602D01*
X170633501Y-85630264D01*
X170633492Y-85630261D01*
X170599807Y-85623561D01*
X170537897Y-85591175D01*
X170503323Y-85530459D01*
X170500000Y-85501944D01*
X170500000Y-83919927D01*
X170519685Y-83852888D01*
X170572489Y-83807133D01*
X170641647Y-83797189D01*
X170671450Y-83805365D01*
X170766503Y-83844737D01*
X170921153Y-83875499D01*
X170921156Y-83875500D01*
X170921158Y-83875500D01*
X171078844Y-83875500D01*
X171078845Y-83875499D01*
X171233497Y-83844737D01*
X171379179Y-83784394D01*
X171510289Y-83696789D01*
X171621789Y-83585289D01*
X171709394Y-83454179D01*
X171769737Y-83308497D01*
X171800500Y-83153842D01*
X171800500Y-82996158D01*
X171800500Y-82996155D01*
X171800499Y-82996153D01*
X171769738Y-82841510D01*
X171769737Y-82841503D01*
X171725000Y-82733497D01*
X171709397Y-82695827D01*
X171709390Y-82695814D01*
X171621789Y-82564711D01*
X171621786Y-82564707D01*
X171510292Y-82453213D01*
X171510288Y-82453210D01*
X171379185Y-82365609D01*
X171379172Y-82365602D01*
X171233501Y-82305264D01*
X171233489Y-82305261D01*
X171078845Y-82274500D01*
X171078842Y-82274500D01*
X170921158Y-82274500D01*
X170884129Y-82281865D01*
X170814538Y-82275636D01*
X170759361Y-82232772D01*
X170745383Y-82207707D01*
X170709394Y-82120821D01*
X170709390Y-82120814D01*
X170621789Y-81989711D01*
X170621786Y-81989707D01*
X170536319Y-81904240D01*
X170521615Y-81877312D01*
X170505023Y-81851494D01*
X170504131Y-81845293D01*
X170502834Y-81842917D01*
X170500000Y-81816559D01*
X170500000Y-81750000D01*
X170305811Y-81750000D01*
X170258363Y-81740562D01*
X170233497Y-81730263D01*
X170233490Y-81730261D01*
X170233489Y-81730261D01*
X170233488Y-81730260D01*
X170187703Y-81721153D01*
X172799500Y-81721153D01*
X172799500Y-81878846D01*
X172830261Y-82033489D01*
X172830264Y-82033501D01*
X172890602Y-82179172D01*
X172890609Y-82179185D01*
X172978210Y-82310288D01*
X172978213Y-82310292D01*
X173089707Y-82421786D01*
X173089711Y-82421789D01*
X173220814Y-82509390D01*
X173220827Y-82509397D01*
X173320060Y-82550500D01*
X173366503Y-82569737D01*
X173516131Y-82599500D01*
X173521153Y-82600499D01*
X173521156Y-82600500D01*
X173521158Y-82600500D01*
X173678844Y-82600500D01*
X173678845Y-82600499D01*
X173833497Y-82569737D01*
X173979179Y-82509394D01*
X174110289Y-82421789D01*
X174221789Y-82310289D01*
X174309394Y-82179179D01*
X174369737Y-82033497D01*
X174400500Y-81878842D01*
X174400500Y-81721158D01*
X174400500Y-81721155D01*
X174400499Y-81721153D01*
X174391818Y-81677511D01*
X174369737Y-81566503D01*
X174358063Y-81538319D01*
X174309397Y-81420827D01*
X174309390Y-81420814D01*
X174221789Y-81289711D01*
X174221786Y-81289707D01*
X174110292Y-81178213D01*
X174110288Y-81178210D01*
X173979185Y-81090609D01*
X173979172Y-81090602D01*
X173833501Y-81030264D01*
X173833489Y-81030261D01*
X173678845Y-80999500D01*
X173678842Y-80999500D01*
X173521158Y-80999500D01*
X173521155Y-80999500D01*
X173366510Y-81030261D01*
X173366498Y-81030264D01*
X173220827Y-81090602D01*
X173220814Y-81090609D01*
X173089711Y-81178210D01*
X173089707Y-81178213D01*
X172978213Y-81289707D01*
X172978210Y-81289711D01*
X172890609Y-81420814D01*
X172890602Y-81420827D01*
X172830264Y-81566498D01*
X172830261Y-81566510D01*
X172799500Y-81721153D01*
X170187703Y-81721153D01*
X170078845Y-81699500D01*
X170078842Y-81699500D01*
X169921158Y-81699500D01*
X169921155Y-81699500D01*
X169766511Y-81730260D01*
X169766510Y-81730261D01*
X169766507Y-81730262D01*
X169766503Y-81730263D01*
X169741636Y-81740562D01*
X169694189Y-81750000D01*
X166924500Y-81750000D01*
X166857461Y-81730315D01*
X166811706Y-81677511D01*
X166800500Y-81626000D01*
X166800500Y-81472155D01*
X166800499Y-81472153D01*
X166800301Y-81471158D01*
X166769737Y-81317503D01*
X166737513Y-81239707D01*
X166709397Y-81171827D01*
X166709390Y-81171814D01*
X166621789Y-81040711D01*
X166621786Y-81040707D01*
X166510292Y-80929213D01*
X166510288Y-80929210D01*
X166379185Y-80841609D01*
X166379172Y-80841602D01*
X166233501Y-80781264D01*
X166233489Y-80781261D01*
X166078845Y-80750500D01*
X166078842Y-80750500D01*
X165921158Y-80750500D01*
X165921155Y-80750500D01*
X165766510Y-80781261D01*
X165766498Y-80781264D01*
X165620827Y-80841602D01*
X165620814Y-80841609D01*
X165489711Y-80929210D01*
X165489707Y-80929213D01*
X165378213Y-81040707D01*
X165378210Y-81040711D01*
X165290609Y-81171814D01*
X165290602Y-81171827D01*
X165230264Y-81317498D01*
X165230261Y-81317510D01*
X165199500Y-81472153D01*
X165199500Y-81626000D01*
X165179815Y-81693039D01*
X165127011Y-81738794D01*
X165075500Y-81750000D01*
X163931441Y-81750000D01*
X163864402Y-81730315D01*
X163818647Y-81677511D01*
X163808703Y-81608353D01*
X163837728Y-81544797D01*
X163843760Y-81538319D01*
X163871786Y-81510292D01*
X163871789Y-81510289D01*
X163959394Y-81379179D01*
X163962854Y-81370827D01*
X163985355Y-81316503D01*
X164019737Y-81233497D01*
X164050500Y-81078842D01*
X164050500Y-80921158D01*
X164050500Y-80921155D01*
X164050499Y-80921153D01*
X164043229Y-80884603D01*
X164019737Y-80766503D01*
X163959394Y-80620821D01*
X163959393Y-80620819D01*
X163957205Y-80615537D01*
X163949736Y-80546067D01*
X163981011Y-80483588D01*
X164041100Y-80447936D01*
X164095957Y-80446467D01*
X164116233Y-80450500D01*
X164283768Y-80450500D01*
X164283769Y-80450499D01*
X164448082Y-80417816D01*
X164602863Y-80353703D01*
X164742162Y-80260626D01*
X164860626Y-80142162D01*
X164953703Y-80002863D01*
X165017816Y-79848082D01*
X165050500Y-79683767D01*
X165050500Y-79516233D01*
X165017816Y-79351918D01*
X164955096Y-79200500D01*
X164953704Y-79197139D01*
X164860626Y-79057837D01*
X164742162Y-78939373D01*
X164602860Y-78846295D01*
X164448082Y-78782184D01*
X164448074Y-78782182D01*
X164283771Y-78749500D01*
X164283767Y-78749500D01*
X164116233Y-78749500D01*
X164116228Y-78749500D01*
X163951925Y-78782182D01*
X163951917Y-78782184D01*
X163797139Y-78846295D01*
X163657837Y-78939373D01*
X163539373Y-79057837D01*
X163446295Y-79197139D01*
X163382184Y-79351917D01*
X163382182Y-79351925D01*
X163349500Y-79516228D01*
X163349500Y-79683771D01*
X163382182Y-79848074D01*
X163382184Y-79848082D01*
X163446296Y-80002861D01*
X163446298Y-80002865D01*
X163449558Y-80007744D01*
X163470436Y-80074421D01*
X163451951Y-80141801D01*
X163399972Y-80188491D01*
X163334311Y-80200038D01*
X163328845Y-80199500D01*
X163328842Y-80199500D01*
X163171158Y-80199500D01*
X163171155Y-80199500D01*
X163016510Y-80230261D01*
X163016498Y-80230264D01*
X162870827Y-80290602D01*
X162870814Y-80290609D01*
X162739711Y-80378210D01*
X162739707Y-80378213D01*
X162628213Y-80489707D01*
X162628210Y-80489711D01*
X162540609Y-80620814D01*
X162540602Y-80620827D01*
X162480264Y-80766498D01*
X162480261Y-80766510D01*
X162449500Y-80921153D01*
X162449500Y-81078846D01*
X162480261Y-81233489D01*
X162480264Y-81233501D01*
X162540602Y-81379172D01*
X162540609Y-81379185D01*
X162628210Y-81510288D01*
X162628213Y-81510292D01*
X162656240Y-81538319D01*
X162689725Y-81599642D01*
X162684741Y-81669334D01*
X162642869Y-81725267D01*
X162577405Y-81749684D01*
X162568559Y-81750000D01*
X138845755Y-81750000D01*
X138778716Y-81730315D01*
X138732961Y-81677511D01*
X138731219Y-81673513D01*
X138709394Y-81620821D01*
X138709391Y-81620816D01*
X138709390Y-81620814D01*
X138621789Y-81489711D01*
X138621786Y-81489707D01*
X138510292Y-81378213D01*
X138510288Y-81378210D01*
X138379185Y-81290609D01*
X138379172Y-81290602D01*
X138233501Y-81230264D01*
X138233489Y-81230261D01*
X138078845Y-81199500D01*
X138078842Y-81199500D01*
X137921158Y-81199500D01*
X137917848Y-81199500D01*
X137850809Y-81179815D01*
X137805054Y-81127011D01*
X137796231Y-81099692D01*
X137769738Y-80966508D01*
X137769737Y-80966507D01*
X137769737Y-80966503D01*
X137750955Y-80921158D01*
X137709397Y-80820827D01*
X137709390Y-80820814D01*
X137621789Y-80689711D01*
X137621786Y-80689707D01*
X137510292Y-80578213D01*
X137510288Y-80578210D01*
X137379185Y-80490609D01*
X137379172Y-80490602D01*
X137233501Y-80430264D01*
X137233489Y-80430261D01*
X137078845Y-80399500D01*
X137078842Y-80399500D01*
X136921158Y-80399500D01*
X136921155Y-80399500D01*
X136766510Y-80430261D01*
X136766498Y-80430264D01*
X136620827Y-80490602D01*
X136620814Y-80490609D01*
X136489711Y-80578210D01*
X136489707Y-80578213D01*
X136378213Y-80689707D01*
X136378210Y-80689711D01*
X136290609Y-80820814D01*
X136290604Y-80820824D01*
X136264186Y-80884603D01*
X136220344Y-80939007D01*
X136154050Y-80961071D01*
X136125434Y-80958767D01*
X136078846Y-80949500D01*
X136078842Y-80949500D01*
X135921158Y-80949500D01*
X135921155Y-80949500D01*
X135766510Y-80980261D01*
X135766498Y-80980264D01*
X135620827Y-81040602D01*
X135620814Y-81040609D01*
X135489711Y-81128210D01*
X135489707Y-81128213D01*
X135378213Y-81239707D01*
X135378210Y-81239711D01*
X135290609Y-81370814D01*
X135290602Y-81370827D01*
X135230264Y-81516498D01*
X135230261Y-81516510D01*
X135203670Y-81650191D01*
X135171285Y-81712102D01*
X135110569Y-81746677D01*
X135082053Y-81750000D01*
X134801362Y-81750000D01*
X134734323Y-81730315D01*
X134713681Y-81713681D01*
X133036319Y-80036319D01*
X133002834Y-79974996D01*
X133000000Y-79948638D01*
X133000000Y-79393283D01*
X139573186Y-79393283D01*
X139573186Y-79550976D01*
X139603947Y-79705619D01*
X139603950Y-79705631D01*
X139664288Y-79851302D01*
X139664295Y-79851315D01*
X139751896Y-79982418D01*
X139751899Y-79982422D01*
X139863393Y-80093916D01*
X139863397Y-80093919D01*
X139994500Y-80181520D01*
X139994513Y-80181527D01*
X140140184Y-80241865D01*
X140140189Y-80241867D01*
X140280290Y-80269735D01*
X140294839Y-80272629D01*
X140294842Y-80272630D01*
X140294844Y-80272630D01*
X140452530Y-80272630D01*
X140452531Y-80272629D01*
X140607183Y-80241867D01*
X140752865Y-80181524D01*
X140883975Y-80093919D01*
X140995475Y-79982419D01*
X141083080Y-79851309D01*
X141143423Y-79705627D01*
X141174186Y-79550972D01*
X141174186Y-79421153D01*
X153399500Y-79421153D01*
X153399500Y-79578846D01*
X153430261Y-79733489D01*
X153430264Y-79733501D01*
X153490602Y-79879172D01*
X153490609Y-79879185D01*
X153578210Y-80010288D01*
X153578213Y-80010292D01*
X153689707Y-80121786D01*
X153689711Y-80121789D01*
X153820814Y-80209390D01*
X153820827Y-80209397D01*
X153944507Y-80260626D01*
X153966503Y-80269737D01*
X154121153Y-80300499D01*
X154121156Y-80300500D01*
X154121158Y-80300500D01*
X154278844Y-80300500D01*
X154278845Y-80300499D01*
X154433497Y-80269737D01*
X154579179Y-80209394D01*
X154710289Y-80121789D01*
X154821789Y-80010289D01*
X154909394Y-79879179D01*
X154969737Y-79733497D01*
X155000500Y-79578842D01*
X155000500Y-79421158D01*
X155000500Y-79421155D01*
X155000499Y-79421153D01*
X154987082Y-79353703D01*
X154969737Y-79266503D01*
X154942398Y-79200500D01*
X154909397Y-79120827D01*
X154909390Y-79120814D01*
X154821789Y-78989711D01*
X154821786Y-78989707D01*
X154710292Y-78878213D01*
X154710288Y-78878210D01*
X154579185Y-78790609D01*
X154579172Y-78790602D01*
X154433501Y-78730264D01*
X154433489Y-78730261D01*
X154278845Y-78699500D01*
X154278842Y-78699500D01*
X154121158Y-78699500D01*
X154121155Y-78699500D01*
X153966510Y-78730261D01*
X153966498Y-78730264D01*
X153820827Y-78790602D01*
X153820814Y-78790609D01*
X153689711Y-78878210D01*
X153689707Y-78878213D01*
X153578213Y-78989707D01*
X153578210Y-78989711D01*
X153490609Y-79120814D01*
X153490602Y-79120827D01*
X153430264Y-79266498D01*
X153430261Y-79266510D01*
X153399500Y-79421153D01*
X141174186Y-79421153D01*
X141174186Y-79393288D01*
X141174186Y-79393285D01*
X141174185Y-79393283D01*
X141148968Y-79266510D01*
X141143423Y-79238633D01*
X141127628Y-79200500D01*
X141083083Y-79092957D01*
X141083076Y-79092944D01*
X140995475Y-78961841D01*
X140995472Y-78961837D01*
X140883978Y-78850343D01*
X140883974Y-78850340D01*
X140752871Y-78762739D01*
X140752858Y-78762732D01*
X140607187Y-78702394D01*
X140607175Y-78702391D01*
X140452531Y-78671630D01*
X140452528Y-78671630D01*
X140294844Y-78671630D01*
X140294841Y-78671630D01*
X140140196Y-78702391D01*
X140140184Y-78702394D01*
X139994513Y-78762732D01*
X139994500Y-78762739D01*
X139863397Y-78850340D01*
X139863393Y-78850343D01*
X139751899Y-78961837D01*
X139751896Y-78961841D01*
X139664295Y-79092944D01*
X139664288Y-79092957D01*
X139603950Y-79238628D01*
X139603947Y-79238640D01*
X139573186Y-79393283D01*
X133000000Y-79393283D01*
X133000000Y-79199999D01*
X132999999Y-79199997D01*
X132299565Y-78604628D01*
X132299556Y-78604622D01*
X132195563Y-78516228D01*
X172349500Y-78516228D01*
X172349500Y-78683771D01*
X172382182Y-78848074D01*
X172382184Y-78848082D01*
X172446295Y-79002860D01*
X172539373Y-79142162D01*
X172657837Y-79260626D01*
X172750494Y-79322537D01*
X172797137Y-79353703D01*
X172951918Y-79417816D01*
X173116228Y-79450499D01*
X173116232Y-79450500D01*
X173116233Y-79450500D01*
X173283768Y-79450500D01*
X173283769Y-79450499D01*
X173448082Y-79417816D01*
X173602863Y-79353703D01*
X173742162Y-79260626D01*
X173860626Y-79142162D01*
X173953703Y-79002863D01*
X174017816Y-78848082D01*
X174050500Y-78683767D01*
X174050500Y-78516233D01*
X174017816Y-78351918D01*
X173953703Y-78197137D01*
X173895072Y-78109390D01*
X173860626Y-78057837D01*
X173742162Y-77939373D01*
X173602860Y-77846295D01*
X173448082Y-77782184D01*
X173448074Y-77782182D01*
X173283771Y-77749500D01*
X173283767Y-77749500D01*
X173116233Y-77749500D01*
X173116228Y-77749500D01*
X172951925Y-77782182D01*
X172951917Y-77782184D01*
X172797139Y-77846295D01*
X172657837Y-77939373D01*
X172539373Y-78057837D01*
X172446295Y-78197139D01*
X172382184Y-78351917D01*
X172382182Y-78351925D01*
X172349500Y-78516228D01*
X132195563Y-78516228D01*
X131588235Y-78000000D01*
X130761761Y-78000000D01*
X130694722Y-77980315D01*
X130658658Y-77944890D01*
X130654972Y-77939374D01*
X130621789Y-77889711D01*
X130621787Y-77889708D01*
X130510292Y-77778213D01*
X130510288Y-77778210D01*
X130379185Y-77690609D01*
X130379172Y-77690602D01*
X130233501Y-77630264D01*
X130233489Y-77630261D01*
X130078845Y-77599500D01*
X130078842Y-77599500D01*
X129921158Y-77599500D01*
X129921155Y-77599500D01*
X129766510Y-77630261D01*
X129766498Y-77630264D01*
X129620827Y-77690602D01*
X129620814Y-77690609D01*
X129489711Y-77778210D01*
X129489707Y-77778213D01*
X129378212Y-77889708D01*
X129364461Y-77910289D01*
X129345028Y-77939374D01*
X129341342Y-77944890D01*
X129287730Y-77989696D01*
X129238239Y-78000000D01*
X128400000Y-78000000D01*
X129078847Y-77321153D01*
X137799500Y-77321153D01*
X137799500Y-77478846D01*
X137830261Y-77633489D01*
X137830264Y-77633501D01*
X137890602Y-77779172D01*
X137890609Y-77779185D01*
X137978210Y-77910288D01*
X137978213Y-77910292D01*
X138089707Y-78021786D01*
X138089711Y-78021789D01*
X138220814Y-78109390D01*
X138220827Y-78109397D01*
X138358695Y-78166503D01*
X138366503Y-78169737D01*
X138504251Y-78197137D01*
X138521153Y-78200499D01*
X138521156Y-78200500D01*
X138521158Y-78200500D01*
X138678844Y-78200500D01*
X138678845Y-78200499D01*
X138833497Y-78169737D01*
X138979179Y-78109394D01*
X139110289Y-78021789D01*
X139221789Y-77910289D01*
X139309394Y-77779179D01*
X139369737Y-77633497D01*
X139400500Y-77478842D01*
X139400500Y-77321158D01*
X139400500Y-77321155D01*
X139400499Y-77321153D01*
X141999500Y-77321153D01*
X141999500Y-77478846D01*
X142030261Y-77633489D01*
X142030264Y-77633501D01*
X142090602Y-77779172D01*
X142090609Y-77779185D01*
X142178210Y-77910288D01*
X142178213Y-77910292D01*
X142289707Y-78021786D01*
X142289711Y-78021789D01*
X142420814Y-78109390D01*
X142420827Y-78109397D01*
X142558695Y-78166503D01*
X142566503Y-78169737D01*
X142704251Y-78197137D01*
X142721153Y-78200499D01*
X142721156Y-78200500D01*
X142721158Y-78200500D01*
X142878844Y-78200500D01*
X142878845Y-78200499D01*
X143033497Y-78169737D01*
X143179179Y-78109394D01*
X143310289Y-78021789D01*
X143421789Y-77910289D01*
X143509394Y-77779179D01*
X143569737Y-77633497D01*
X143600500Y-77478842D01*
X143600500Y-77321158D01*
X143600500Y-77321155D01*
X143600499Y-77321153D01*
X148199500Y-77321153D01*
X148199500Y-77478846D01*
X148230261Y-77633489D01*
X148230264Y-77633501D01*
X148290602Y-77779172D01*
X148290609Y-77779185D01*
X148378210Y-77910288D01*
X148378213Y-77910292D01*
X148489707Y-78021786D01*
X148489711Y-78021789D01*
X148620814Y-78109390D01*
X148620827Y-78109397D01*
X148758695Y-78166503D01*
X148766503Y-78169737D01*
X148904251Y-78197137D01*
X148921153Y-78200499D01*
X148921156Y-78200500D01*
X148921158Y-78200500D01*
X149078844Y-78200500D01*
X149078845Y-78200499D01*
X149233497Y-78169737D01*
X149379179Y-78109394D01*
X149510289Y-78021789D01*
X149621789Y-77910289D01*
X149709394Y-77779179D01*
X149769737Y-77633497D01*
X149800500Y-77478842D01*
X149800500Y-77321158D01*
X149800500Y-77321155D01*
X149800499Y-77321153D01*
X152799500Y-77321153D01*
X152799500Y-77478846D01*
X152830261Y-77633489D01*
X152830264Y-77633501D01*
X152890602Y-77779172D01*
X152890609Y-77779185D01*
X152978210Y-77910288D01*
X152978213Y-77910292D01*
X153089707Y-78021786D01*
X153089711Y-78021789D01*
X153220814Y-78109390D01*
X153220827Y-78109397D01*
X153358695Y-78166503D01*
X153366503Y-78169737D01*
X153504251Y-78197137D01*
X153521153Y-78200499D01*
X153521156Y-78200500D01*
X153521158Y-78200500D01*
X153678844Y-78200500D01*
X153678845Y-78200499D01*
X153833497Y-78169737D01*
X153979179Y-78109394D01*
X154110289Y-78021789D01*
X154221789Y-77910289D01*
X154309394Y-77779179D01*
X154369737Y-77633497D01*
X154400500Y-77478842D01*
X154400500Y-77321158D01*
X154400500Y-77321155D01*
X154400499Y-77321153D01*
X154369738Y-77166510D01*
X154369737Y-77166503D01*
X154348913Y-77116228D01*
X165549500Y-77116228D01*
X165549500Y-77283771D01*
X165582182Y-77448074D01*
X165582184Y-77448082D01*
X165646295Y-77602860D01*
X165739373Y-77742162D01*
X165857837Y-77860626D01*
X165932168Y-77910292D01*
X165997137Y-77953703D01*
X166151918Y-78017816D01*
X166316228Y-78050499D01*
X166316232Y-78050500D01*
X166316233Y-78050500D01*
X166483768Y-78050500D01*
X166483769Y-78050499D01*
X166648082Y-78017816D01*
X166802863Y-77953703D01*
X166942162Y-77860626D01*
X167060626Y-77742162D01*
X167153703Y-77602863D01*
X167217816Y-77448082D01*
X167250500Y-77283767D01*
X167250500Y-77116233D01*
X167250499Y-77116228D01*
X169749500Y-77116228D01*
X169749500Y-77283771D01*
X169782182Y-77448074D01*
X169782184Y-77448082D01*
X169846295Y-77602860D01*
X169939373Y-77742162D01*
X170057837Y-77860626D01*
X170132168Y-77910292D01*
X170197137Y-77953703D01*
X170351918Y-78017816D01*
X170516228Y-78050499D01*
X170516232Y-78050500D01*
X170516233Y-78050500D01*
X170683768Y-78050500D01*
X170683769Y-78050499D01*
X170848082Y-78017816D01*
X171002863Y-77953703D01*
X171142162Y-77860626D01*
X171260626Y-77742162D01*
X171353703Y-77602863D01*
X171417816Y-77448082D01*
X171450500Y-77283767D01*
X171450500Y-77116233D01*
X171417816Y-76951918D01*
X171353703Y-76797137D01*
X171282521Y-76690606D01*
X171260626Y-76657837D01*
X171142162Y-76539373D01*
X171002860Y-76446295D01*
X170848082Y-76382184D01*
X170848074Y-76382182D01*
X170683771Y-76349500D01*
X170683767Y-76349500D01*
X170516233Y-76349500D01*
X170516228Y-76349500D01*
X170351925Y-76382182D01*
X170351917Y-76382184D01*
X170197139Y-76446295D01*
X170057837Y-76539373D01*
X169939373Y-76657837D01*
X169846295Y-76797139D01*
X169782184Y-76951917D01*
X169782182Y-76951925D01*
X169749500Y-77116228D01*
X167250499Y-77116228D01*
X167217816Y-76951918D01*
X167153703Y-76797137D01*
X167082521Y-76690606D01*
X167060626Y-76657837D01*
X166942162Y-76539373D01*
X166802860Y-76446295D01*
X166648082Y-76382184D01*
X166648074Y-76382182D01*
X166483771Y-76349500D01*
X166483767Y-76349500D01*
X166316233Y-76349500D01*
X166316228Y-76349500D01*
X166151925Y-76382182D01*
X166151917Y-76382184D01*
X165997139Y-76446295D01*
X165857837Y-76539373D01*
X165739373Y-76657837D01*
X165646295Y-76797139D01*
X165582184Y-76951917D01*
X165582182Y-76951925D01*
X165549500Y-77116228D01*
X154348913Y-77116228D01*
X154309397Y-77020827D01*
X154309390Y-77020814D01*
X154221789Y-76889711D01*
X154221786Y-76889707D01*
X154110292Y-76778213D01*
X154110288Y-76778210D01*
X153979185Y-76690609D01*
X153979172Y-76690602D01*
X153833501Y-76630264D01*
X153833489Y-76630261D01*
X153678845Y-76599500D01*
X153678842Y-76599500D01*
X153521158Y-76599500D01*
X153521155Y-76599500D01*
X153366510Y-76630261D01*
X153366498Y-76630264D01*
X153220827Y-76690602D01*
X153220814Y-76690609D01*
X153089711Y-76778210D01*
X153089707Y-76778213D01*
X152978213Y-76889707D01*
X152978210Y-76889711D01*
X152890609Y-77020814D01*
X152890602Y-77020827D01*
X152830264Y-77166498D01*
X152830261Y-77166510D01*
X152799500Y-77321153D01*
X149800499Y-77321153D01*
X149769738Y-77166510D01*
X149769737Y-77166503D01*
X149748913Y-77116228D01*
X149709397Y-77020827D01*
X149709390Y-77020814D01*
X149621789Y-76889711D01*
X149621786Y-76889707D01*
X149510292Y-76778213D01*
X149510288Y-76778210D01*
X149379185Y-76690609D01*
X149379172Y-76690602D01*
X149233501Y-76630264D01*
X149233489Y-76630261D01*
X149078845Y-76599500D01*
X149078842Y-76599500D01*
X148921158Y-76599500D01*
X148921155Y-76599500D01*
X148766510Y-76630261D01*
X148766498Y-76630264D01*
X148620827Y-76690602D01*
X148620814Y-76690609D01*
X148489711Y-76778210D01*
X148489707Y-76778213D01*
X148378213Y-76889707D01*
X148378210Y-76889711D01*
X148290609Y-77020814D01*
X148290602Y-77020827D01*
X148230264Y-77166498D01*
X148230261Y-77166510D01*
X148199500Y-77321153D01*
X143600499Y-77321153D01*
X143569738Y-77166510D01*
X143569737Y-77166503D01*
X143548913Y-77116228D01*
X143509397Y-77020827D01*
X143509390Y-77020814D01*
X143421789Y-76889711D01*
X143421786Y-76889707D01*
X143310292Y-76778213D01*
X143310288Y-76778210D01*
X143179185Y-76690609D01*
X143179172Y-76690602D01*
X143033501Y-76630264D01*
X143033489Y-76630261D01*
X142878845Y-76599500D01*
X142878842Y-76599500D01*
X142721158Y-76599500D01*
X142721155Y-76599500D01*
X142566510Y-76630261D01*
X142566498Y-76630264D01*
X142420827Y-76690602D01*
X142420814Y-76690609D01*
X142289711Y-76778210D01*
X142289707Y-76778213D01*
X142178213Y-76889707D01*
X142178210Y-76889711D01*
X142090609Y-77020814D01*
X142090602Y-77020827D01*
X142030264Y-77166498D01*
X142030261Y-77166510D01*
X141999500Y-77321153D01*
X139400499Y-77321153D01*
X139369738Y-77166510D01*
X139369737Y-77166503D01*
X139348913Y-77116228D01*
X139309397Y-77020827D01*
X139309390Y-77020814D01*
X139221789Y-76889711D01*
X139221786Y-76889707D01*
X139110292Y-76778213D01*
X139110288Y-76778210D01*
X138979185Y-76690609D01*
X138979172Y-76690602D01*
X138833501Y-76630264D01*
X138833489Y-76630261D01*
X138678845Y-76599500D01*
X138678842Y-76599500D01*
X138521158Y-76599500D01*
X138521155Y-76599500D01*
X138366510Y-76630261D01*
X138366498Y-76630264D01*
X138220827Y-76690602D01*
X138220814Y-76690609D01*
X138089711Y-76778210D01*
X138089707Y-76778213D01*
X137978213Y-76889707D01*
X137978210Y-76889711D01*
X137890609Y-77020814D01*
X137890602Y-77020827D01*
X137830264Y-77166498D01*
X137830261Y-77166510D01*
X137799500Y-77321153D01*
X129078847Y-77321153D01*
X130900000Y-75500000D01*
X128996291Y-75500000D01*
X128969738Y-75366510D01*
X128969737Y-75366503D01*
X128969735Y-75366498D01*
X128909397Y-75220827D01*
X128909390Y-75220814D01*
X128821789Y-75089711D01*
X128821786Y-75089707D01*
X128744260Y-75012181D01*
X128710775Y-74950858D01*
X128715759Y-74881166D01*
X128757631Y-74825233D01*
X128823095Y-74800816D01*
X128831941Y-74800500D01*
X128878844Y-74800500D01*
X128878845Y-74800499D01*
X129033497Y-74769737D01*
X129179179Y-74709394D01*
X129310289Y-74621789D01*
X129421789Y-74510289D01*
X129509394Y-74379179D01*
X129569737Y-74233497D01*
X129600500Y-74078842D01*
X129600500Y-73921158D01*
X129600500Y-73921155D01*
X129600499Y-73921153D01*
X129569738Y-73766510D01*
X129569737Y-73766503D01*
X129569735Y-73766498D01*
X129509397Y-73620827D01*
X129509390Y-73620814D01*
X129421789Y-73489711D01*
X129421786Y-73489707D01*
X129310292Y-73378213D01*
X129310288Y-73378210D01*
X129179185Y-73290609D01*
X129179172Y-73290602D01*
X129033501Y-73230264D01*
X129033489Y-73230261D01*
X128878845Y-73199500D01*
X128878842Y-73199500D01*
X128721158Y-73199500D01*
X128721155Y-73199500D01*
X128566510Y-73230261D01*
X128566498Y-73230264D01*
X128420827Y-73290602D01*
X128420814Y-73290609D01*
X128289711Y-73378210D01*
X128289707Y-73378213D01*
X128178213Y-73489707D01*
X128178210Y-73489711D01*
X128090609Y-73620814D01*
X128090602Y-73620827D01*
X128030264Y-73766498D01*
X128030261Y-73766510D01*
X127999500Y-73921153D01*
X127999500Y-74078846D01*
X128030261Y-74233489D01*
X128030264Y-74233501D01*
X128090602Y-74379172D01*
X128090609Y-74379185D01*
X128178210Y-74510288D01*
X128178213Y-74510292D01*
X128255740Y-74587819D01*
X128289225Y-74649142D01*
X128284241Y-74718834D01*
X128242369Y-74774767D01*
X128176905Y-74799184D01*
X128168059Y-74799500D01*
X128121155Y-74799500D01*
X127966510Y-74830261D01*
X127966498Y-74830264D01*
X127820827Y-74890602D01*
X127820814Y-74890609D01*
X127689711Y-74978210D01*
X127689707Y-74978213D01*
X127578213Y-75089707D01*
X127578210Y-75089711D01*
X127490609Y-75220814D01*
X127490602Y-75220827D01*
X127430264Y-75366498D01*
X127430261Y-75366510D01*
X127403708Y-75500000D01*
X123600000Y-75500000D01*
X123600000Y-71624500D01*
X123619685Y-71557461D01*
X123672489Y-71511706D01*
X123724000Y-71500500D01*
X175626000Y-71500500D01*
X175693039Y-71520185D01*
G37*
%TD.AperFunction*%
%TD*%
M02*
