M48
; DRILL file {KiCad 9.0.4} date 2026-03-12T13:46:21-0400
; FORMAT={-:-/ absolute / metric / decimal}
; #@! TF.CreationDate,2026-03-12T13:46:21-04:00
; #@! TF.GenerationSoftware,Kicad,Pcbnew,9.0.4
; #@! TF.FileFunction,Plated,1,4,PTH
FMAT,2
METRIC
; #@! TA.AperFunction,Plated,PTH,ViaDrill
T1C0.300
; #@! TA.AperFunction,Plated,PTH,ComponentDrill
T2C0.750
; #@! TA.AperFunction,Plated,PTH,ComponentDrill
T3C1.000
%
G90
G05
T1
X123.6Y-97.0
X123.8Y-101.4
X126.0Y-88.5
X126.0Y-91.0
X127.25Y-84.75
X127.5Y-77.8
X127.6Y-95.2
X128.2Y-75.6
X128.5Y-81.55
X128.8Y-74.0
X129.0Y-83.4
X130.0Y-78.4
X130.4Y-99.8
X131.8Y-83.2
X132.0Y-81.4
X132.5Y-77.8
X133.6Y-94.0
X133.6Y-99.6
X134.2Y-82.6
X134.75Y-84.5
X135.2Y-95.75
X135.6Y-95.0
X136.0Y-81.75
X136.75Y-92.75
X137.0Y-81.2
X138.0Y-82.0
X138.6Y-77.4
X139.6Y-93.2
X139.75Y-89.75
X140.374Y-79.472
X140.4Y-99.2
X140.5Y-91.75
X141.0Y-97.5
X142.25Y-94.25
X142.8Y-77.4
X145.0Y-92.5
X146.4Y-99.2
X147.5Y-97.25
X147.8Y-90.2
X149.0Y-77.4
X149.0Y-79.55
X150.86Y-89.521
X151.8Y-93.6
X152.0Y-92.25
X153.6Y-77.4
X154.2Y-79.5
X154.25Y-100.5
X154.75Y-94.75
X156.25Y-90.5
X156.75Y-98.0
X159.5Y-88.5
X159.75Y-79.5
X159.75Y-95.25
X160.25Y-92.5
X161.265Y-96.359
X162.4Y-72.2
X162.4Y-73.2
X162.4Y-74.2
X163.25Y-81.0
X163.25Y-86.25
X163.4Y-72.2
X163.4Y-73.2
X163.4Y-74.2
X163.6Y-83.075
X163.75Y-95.75
X164.0Y-93.25
X164.0Y-97.0
X164.0Y-99.25
X164.2Y-79.6
X164.4Y-72.2
X164.4Y-73.2
X164.4Y-74.2
X165.6Y-98.2
X166.0Y-81.551
X166.4Y-77.2
X168.2Y-98.2
X169.0Y-83.825
X170.0Y-82.5
X170.0Y-95.0
X170.0Y-96.4
X170.0Y-98.0
X170.4Y-86.4
X170.6Y-77.2
X171.0Y-83.075
X171.3Y-88.0
X173.0Y-89.75
X173.2Y-78.6
X173.6Y-81.8
X174.8Y-85.0
X175.4Y-85.8
T2
X132.75Y-89.25
X134.02Y-89.25
X135.29Y-89.25
X144.25Y-85.98
X144.25Y-87.25
X144.25Y-88.52
X155.25Y-86.0
X155.25Y-87.27
X155.25Y-88.54
X165.0Y-91.14
X166.27Y-91.14
X167.54Y-91.14
T3
X177.54Y-78.11
X177.54Y-80.65
X177.54Y-83.19
X177.54Y-85.73
X177.54Y-88.27
X177.54Y-90.81
X177.54Y-93.35
X177.54Y-95.89
X180.08Y-78.11
X180.08Y-80.65
X180.08Y-83.19
X180.08Y-85.73
X180.08Y-88.27
X180.08Y-90.81
X180.08Y-93.35
X180.08Y-95.89
M30
