%TF.GenerationSoftware,KiCad,Pcbnew,9.0.4*%
%TF.CreationDate,2026-03-16T14:22:06-04:00*%
%TF.ProjectId,phase90,70686173-6539-4302-9e6b-696361645f70,rev?*%
%TF.SameCoordinates,Original*%
%TF.FileFunction,Soldermask,Bot*%
%TF.FilePolarity,Negative*%
%FSLAX46Y46*%
G04 Gerber Fmt 4.6, Leading zero omitted, Abs format (unit mm)*
G04 Created by KiCad (PCBNEW 9.0.4) date 2026-03-16 14:22:06*
%MOMM*%
%LPD*%
G01*
G04 APERTURE LIST*
G04 Aperture macros list*
%AMRoundRect*
0 Rectangle with rounded corners*
0 $1 Rounding radius*
0 $2 $3 $4 $5 $6 $7 $8 $9 X,Y pos of 4 corners*
0 Add a 4 corners polygon primitive as box body*
4,1,4,$2,$3,$4,$5,$6,$7,$8,$9,$2,$3,0*
0 Add four circle primitives for the rounded corners*
1,1,$1+$1,$2,$3*
1,1,$1+$1,$4,$5*
1,1,$1+$1,$6,$7*
1,1,$1+$1,$8,$9*
0 Add four rect primitives between the rounded corners*
20,1,$1+$1,$2,$3,$4,$5,0*
20,1,$1+$1,$4,$5,$6,$7,0*
20,1,$1+$1,$6,$7,$8,$9,0*
20,1,$1+$1,$8,$9,$2,$3,0*%
G04 Aperture macros list end*
%ADD10R,1.300000X1.300000*%
%ADD11C,1.300000*%
%ADD12R,1.700000X1.700000*%
%ADD13C,1.700000*%
%ADD14RoundRect,0.225000X-0.225000X-0.250000X0.225000X-0.250000X0.225000X0.250000X-0.225000X0.250000X0*%
%ADD15RoundRect,0.225000X-0.250000X0.225000X-0.250000X-0.225000X0.250000X-0.225000X0.250000X0.225000X0*%
%ADD16RoundRect,0.225000X0.225000X0.250000X-0.225000X0.250000X-0.225000X-0.250000X0.225000X-0.250000X0*%
G04 APERTURE END LIST*
D10*
%TO.C,Q1*%
X88473571Y-93130000D03*
D11*
X87203571Y-94400000D03*
X85933571Y-93130000D03*
%TD*%
D12*
%TO.C,J1*%
X129060000Y-87110000D03*
D13*
X131600000Y-87110000D03*
X129060000Y-89650000D03*
X131600000Y-89650000D03*
X129060000Y-92190000D03*
X131600000Y-92190000D03*
X129060000Y-94730000D03*
X131600000Y-94730000D03*
X129060000Y-97270000D03*
X131600000Y-97270000D03*
X129060000Y-99810000D03*
X131600000Y-99810000D03*
X129060000Y-102350000D03*
X131600000Y-102350000D03*
X129060000Y-104890000D03*
X131600000Y-104890000D03*
%TD*%
D10*
%TO.C,Q2*%
X97102142Y-93130000D03*
D11*
X95832142Y-94400000D03*
X94562142Y-93130000D03*
%TD*%
D10*
%TO.C,Q3*%
X105730714Y-93130000D03*
D11*
X104460714Y-94400000D03*
X103190714Y-93130000D03*
%TD*%
D10*
%TO.C,Q4*%
X114359285Y-93130000D03*
D11*
X113089285Y-94400000D03*
X111819285Y-93130000D03*
%TD*%
D14*
%TO.C,C11*%
X109000000Y-91000000D03*
X110550000Y-91000000D03*
%TD*%
D15*
%TO.C,C12*%
X107000000Y-107225000D03*
X107000000Y-108775000D03*
%TD*%
D14*
%TO.C,C3*%
X92000000Y-91000000D03*
X93550000Y-91000000D03*
%TD*%
D15*
%TO.C,C17*%
X124000000Y-91000000D03*
X124000000Y-92550000D03*
%TD*%
%TO.C,C15*%
X82000000Y-88000000D03*
X82000000Y-89550000D03*
%TD*%
D14*
%TO.C,C10*%
X100000000Y-91000000D03*
X101550000Y-91000000D03*
%TD*%
%TO.C,C14*%
X118000000Y-108000000D03*
X119550000Y-108000000D03*
%TD*%
%TO.C,C16*%
X117000000Y-91000000D03*
X118550000Y-91000000D03*
%TD*%
D15*
%TO.C,C13*%
X113000000Y-106000000D03*
X113000000Y-107550000D03*
%TD*%
D16*
%TO.C,C18*%
X96550000Y-110000000D03*
X95000000Y-110000000D03*
%TD*%
M02*
