M48
; DRILL file {KiCad 9.0.4} date 2026-03-12T13:50:59-0400
; FORMAT={-:-/ absolute / metric / decimal}
; #@! TF.CreationDate,2026-03-12T13:50:59-04:00
; #@! TF.GenerationSoftware,Kicad,Pcbnew,9.0.4
; #@! TF.FileFunction,Plated,1,4,PTH
FMAT,2
METRIC
; #@! TA.AperFunction,Plated,PTH,ViaDrill
T1C0.300
; #@! TA.AperFunction,Plated,PTH,ComponentDrill
T2C0.750
; #@! TA.AperFunction,Plated,PTH,ComponentDrill
T3C1.000
%
G90
G05
T1
X80.232Y-91.328
X81.077Y-102.055
X81.077Y-106.055
X83.0Y-96.0
X84.0Y-88.5
X85.8Y-90.4
X86.2Y-98.6
X86.25Y-86.45
X87.8Y-85.0
X88.4Y-88.6
X89.366Y-108.234
X90.0Y-103.8
X90.0Y-106.8
X90.2Y-89.6
X90.6Y-108.2
X91.0Y-92.0
X91.2Y-88.4
X91.4Y-111.0
X92.0Y-98.6
X94.4Y-107.6
X94.8Y-98.6
X95.1Y-86.5
X95.4Y-90.6
X95.6Y-101.8
X96.4Y-85.0
X97.0Y-88.6
X97.0Y-106.4
X98.0Y-110.0
X99.0Y-89.6
X99.0Y-92.0
X99.0Y-102.8
X99.8Y-88.4
X100.0Y-102.0
X100.6Y-98.6
X102.2Y-101.2
X103.0Y-106.4
X103.4Y-90.4
X103.4Y-98.6
X103.7Y-86.5
X105.0Y-85.0
X105.6Y-88.6
X107.6Y-89.6
X107.6Y-102.2
X108.0Y-92.0
X108.4Y-88.2
X109.0Y-106.4
X109.4Y-98.6
X111.0Y-102.8
X112.0Y-101.6
X112.2Y-98.6
X112.3Y-86.5
X112.6Y-90.8
X114.0Y-85.0
X114.2Y-88.6
X115.0Y-106.4
X115.4Y-103.6
X116.0Y-92.0
X116.2Y-89.6
X116.4Y-103.6
X116.4Y-108.8
X118.0Y-98.6
X119.2Y-83.2
X119.2Y-85.0
X122.4Y-93.2
X123.0Y-85.4
X125.0Y-89.6
X125.2Y-93.2
X125.6Y-85.4
T2
X85.934Y-93.13
X87.204Y-94.4
X88.474Y-93.13
X94.562Y-93.13
X95.832Y-94.4
X97.102Y-93.13
X103.191Y-93.13
X104.461Y-94.4
X105.731Y-93.13
X111.819Y-93.13
X113.089Y-94.4
X114.359Y-93.13
T3
X129.06Y-87.11
X129.06Y-89.65
X129.06Y-92.19
X129.06Y-94.73
X129.06Y-97.27
X129.06Y-99.81
X129.06Y-102.35
X129.06Y-104.89
X131.6Y-87.11
X131.6Y-89.65
X131.6Y-92.19
X131.6Y-94.73
X131.6Y-97.27
X131.6Y-99.81
X131.6Y-102.35
X131.6Y-104.89
M30
