%TF.GenerationSoftware,KiCad,Pcbnew,9.0.4*%
%TF.CreationDate,2026-03-16T14:22:05-04:00*%
%TF.ProjectId,phase90,70686173-6539-4302-9e6b-696361645f70,rev?*%
%TF.SameCoordinates,Original*%
%TF.FileFunction,Copper,L2,Inr*%
%TF.FilePolarity,Positive*%
%FSLAX46Y46*%
G04 Gerber Fmt 4.6, Leading zero omitted, Abs format (unit mm)*
G04 Created by KiCad (PCBNEW 9.0.4) date 2026-03-16 14:22:05*
%MOMM*%
%LPD*%
G01*
G04 APERTURE LIST*
%TA.AperFunction,ComponentPad*%
%ADD10R,1.300000X1.300000*%
%TD*%
%TA.AperFunction,ComponentPad*%
%ADD11C,1.300000*%
%TD*%
%TA.AperFunction,ComponentPad*%
%ADD12R,1.700000X1.700000*%
%TD*%
%TA.AperFunction,ComponentPad*%
%ADD13C,1.700000*%
%TD*%
%TA.AperFunction,ViaPad*%
%ADD14C,0.600000*%
%TD*%
%TA.AperFunction,ViaPad*%
%ADD15C,0.700000*%
%TD*%
G04 APERTURE END LIST*
D10*
%TO.N,Net-(Q1-D)*%
%TO.C,Q1*%
X88473571Y-93130000D03*
D11*
%TO.N,Net-(Q1-S)*%
X87203571Y-94400000D03*
%TO.N,/Oscillator/Oscillator*%
X85933571Y-93130000D03*
%TD*%
D12*
%TO.N,12V*%
%TO.C,J1*%
X129060000Y-87110000D03*
D13*
X131600000Y-87110000D03*
%TO.N,unconnected-(J1-Pin_3-Pad3)*%
X129060000Y-89650000D03*
%TO.N,unconnected-(J1-Pin_4-Pad4)*%
X131600000Y-89650000D03*
%TO.N,unconnected-(J1-Pin_5-Pad5)*%
X129060000Y-92190000D03*
%TO.N,/CS0*%
X131600000Y-92190000D03*
%TO.N,/MOSI*%
X129060000Y-94730000D03*
%TO.N,/SPI_CLK*%
X131600000Y-94730000D03*
%TO.N,/GUITAR_OUT*%
X129060000Y-97270000D03*
%TO.N,/GUITAR_IN*%
X131600000Y-97270000D03*
%TO.N,GND*%
X129060000Y-99810000D03*
X131600000Y-99810000D03*
X129060000Y-102350000D03*
X131600000Y-102350000D03*
%TO.N,unconnected-(J1-Pin_15-Pad15)*%
X129060000Y-104890000D03*
%TO.N,unconnected-(J1-Pin_16-Pad16)*%
X131600000Y-104890000D03*
%TD*%
D10*
%TO.N,Net-(Q2-D)*%
%TO.C,Q2*%
X97102142Y-93130000D03*
D11*
%TO.N,Net-(Q2-S)*%
X95832142Y-94400000D03*
%TO.N,/Oscillator/Oscillator*%
X94562142Y-93130000D03*
%TD*%
D10*
%TO.N,Net-(Q3-D)*%
%TO.C,Q3*%
X105730714Y-93130000D03*
D11*
%TO.N,Net-(Q3-S)*%
X104460714Y-94400000D03*
%TO.N,/Oscillator/Oscillator*%
X103190714Y-93130000D03*
%TD*%
D10*
%TO.N,Net-(Q4-D)*%
%TO.C,Q4*%
X114359285Y-93130000D03*
D11*
%TO.N,Net-(Q4-S)*%
X113089285Y-94400000D03*
%TO.N,/Oscillator/Oscillator*%
X111819285Y-93130000D03*
%TD*%
D14*
%TO.N,Net-(Q1-D)*%
X88400000Y-88600000D03*
X86250000Y-86450000D03*
%TO.N,Net-(Q2-D)*%
X97000000Y-88600000D03*
X95100000Y-86500000D03*
%TO.N,Net-(Q3-D)*%
X103700000Y-86500000D03*
X105600000Y-88600000D03*
%TO.N,Net-(Q4-D)*%
X114200000Y-88600000D03*
X112300000Y-86500000D03*
%TO.N,/MOSI*%
X90600000Y-108200000D03*
%TO.N,12V*%
X99000000Y-89600000D03*
X83000000Y-96000000D03*
X116400000Y-108800000D03*
X91400000Y-111000000D03*
X84000000Y-88500000D03*
X90200000Y-89600000D03*
X98000000Y-110000000D03*
X92000000Y-98600000D03*
X125000000Y-89600000D03*
X103000000Y-106400000D03*
X118000000Y-98600000D03*
D15*
X81077381Y-102055000D03*
D14*
X116200000Y-89600000D03*
X100600000Y-98600000D03*
X97000000Y-106400000D03*
X109400000Y-98600000D03*
X107600000Y-89600000D03*
X109000000Y-106400000D03*
X125600000Y-85400000D03*
X102200000Y-101200000D03*
X115000000Y-106400000D03*
%TO.N,GND*%
X99000000Y-92000000D03*
X99800000Y-88400000D03*
X91000000Y-92000000D03*
X103400000Y-90400000D03*
X103400000Y-98600000D03*
X119200000Y-83200000D03*
X90000000Y-103800000D03*
X85800000Y-90400000D03*
X108400000Y-88200000D03*
X123000000Y-85400000D03*
D15*
X81077381Y-106055000D03*
D14*
X96400000Y-85000000D03*
X95400000Y-90600000D03*
X91200000Y-88400000D03*
X125200000Y-93200000D03*
X112600000Y-90800000D03*
X86200000Y-98600000D03*
X112200000Y-98600000D03*
X105000000Y-85000000D03*
X107600000Y-102200000D03*
X108000000Y-92000000D03*
X122400000Y-93200000D03*
X116000000Y-92000000D03*
X119200000Y-85000000D03*
X87800000Y-85000000D03*
X114000000Y-85000000D03*
X94800000Y-98600000D03*
X112000000Y-101600000D03*
X95600000Y-101800000D03*
X80232325Y-91328280D03*
X100000000Y-102000000D03*
%TO.N,/SPI_CLK*%
X89365952Y-108234048D03*
%TO.N,/CS0*%
X90000000Y-106800000D03*
%TO.N,6V oscillator*%
X99000000Y-102800000D03*
X116400000Y-103600000D03*
X94400000Y-107600000D03*
X115400000Y-103600000D03*
X111000000Y-102800000D03*
%TD*%
%TA.AperFunction,Conductor*%
%TO.N,GND*%
G36*
X131134075Y-100002993D02*
G01*
X131199901Y-100117007D01*
X131292993Y-100210099D01*
X131407007Y-100275925D01*
X131470590Y-100292962D01*
X130838282Y-100925269D01*
X130838282Y-100925270D01*
X130892452Y-100964626D01*
X130902048Y-100969516D01*
X130952844Y-101017491D01*
X130969638Y-101085312D01*
X130947100Y-101151447D01*
X130902051Y-101190483D01*
X130892440Y-101195380D01*
X130838282Y-101234727D01*
X130838282Y-101234728D01*
X131470591Y-101867037D01*
X131407007Y-101884075D01*
X131292993Y-101949901D01*
X131199901Y-102042993D01*
X131134075Y-102157007D01*
X131117037Y-102220591D01*
X130484728Y-101588282D01*
X130484727Y-101588282D01*
X130445380Y-101642440D01*
X130440483Y-101652051D01*
X130392506Y-101702845D01*
X130324684Y-101719638D01*
X130258550Y-101697098D01*
X130219516Y-101652048D01*
X130214626Y-101642452D01*
X130175270Y-101588282D01*
X130175269Y-101588282D01*
X129542962Y-102220590D01*
X129525925Y-102157007D01*
X129460099Y-102042993D01*
X129367007Y-101949901D01*
X129252993Y-101884075D01*
X129189409Y-101867037D01*
X129821716Y-101234728D01*
X129767550Y-101195375D01*
X129757954Y-101190486D01*
X129707157Y-101142512D01*
X129690361Y-101074692D01*
X129711288Y-101010895D01*
X129790027Y-100893581D01*
X129189408Y-100292962D01*
X129252993Y-100275925D01*
X129367007Y-100210099D01*
X129460099Y-100117007D01*
X129525925Y-100002993D01*
X129542962Y-99939408D01*
X130175270Y-100571717D01*
X130175270Y-100571716D01*
X130214622Y-100517554D01*
X130219514Y-100507954D01*
X130267488Y-100457157D01*
X130335308Y-100440361D01*
X130401444Y-100462897D01*
X130440486Y-100507954D01*
X130445375Y-100517550D01*
X130484728Y-100571716D01*
X131117037Y-99939408D01*
X131134075Y-100002993D01*
G37*
%TD.AperFunction*%
%TA.AperFunction,Conductor*%
G36*
X133842539Y-80520185D02*
G01*
X133888294Y-80572989D01*
X133899500Y-80624500D01*
X133899500Y-111375500D01*
X133879815Y-111442539D01*
X133827011Y-111488294D01*
X133775500Y-111499500D01*
X92245134Y-111499500D01*
X92178095Y-111479815D01*
X92132340Y-111427011D01*
X92122396Y-111357853D01*
X92130573Y-111328047D01*
X92169737Y-111233497D01*
X92200500Y-111078842D01*
X92200500Y-110921158D01*
X92200500Y-110921155D01*
X92200499Y-110921153D01*
X92169738Y-110766510D01*
X92169737Y-110766503D01*
X92109794Y-110621786D01*
X92109397Y-110620827D01*
X92109390Y-110620814D01*
X92021789Y-110489711D01*
X92021786Y-110489707D01*
X91910292Y-110378213D01*
X91910288Y-110378210D01*
X91779185Y-110290609D01*
X91779172Y-110290602D01*
X91633501Y-110230264D01*
X91633489Y-110230261D01*
X91478845Y-110199500D01*
X91478842Y-110199500D01*
X91321158Y-110199500D01*
X91321155Y-110199500D01*
X91166510Y-110230261D01*
X91166498Y-110230264D01*
X91020827Y-110290602D01*
X91020814Y-110290609D01*
X90889711Y-110378210D01*
X90889707Y-110378213D01*
X90778213Y-110489707D01*
X90778210Y-110489711D01*
X90690609Y-110620814D01*
X90690602Y-110620827D01*
X90630264Y-110766498D01*
X90630261Y-110766510D01*
X90599500Y-110921153D01*
X90599500Y-111078846D01*
X90630261Y-111233489D01*
X90630263Y-111233497D01*
X90669427Y-111328047D01*
X90676896Y-111397517D01*
X90645621Y-111459996D01*
X90585532Y-111495648D01*
X90554866Y-111499500D01*
X76606881Y-111499500D01*
X76539842Y-111479815D01*
X76494087Y-111427011D01*
X76482881Y-111375500D01*
X76482881Y-109921153D01*
X97199500Y-109921153D01*
X97199500Y-110078846D01*
X97230261Y-110233489D01*
X97230264Y-110233501D01*
X97290602Y-110379172D01*
X97290609Y-110379185D01*
X97378210Y-110510288D01*
X97378213Y-110510292D01*
X97489707Y-110621786D01*
X97489711Y-110621789D01*
X97620814Y-110709390D01*
X97620827Y-110709397D01*
X97758683Y-110766498D01*
X97766503Y-110769737D01*
X97921153Y-110800499D01*
X97921156Y-110800500D01*
X97921158Y-110800500D01*
X98078844Y-110800500D01*
X98078845Y-110800499D01*
X98233497Y-110769737D01*
X98379179Y-110709394D01*
X98510289Y-110621789D01*
X98621789Y-110510289D01*
X98709394Y-110379179D01*
X98769737Y-110233497D01*
X98800500Y-110078842D01*
X98800500Y-109921158D01*
X98800500Y-109921155D01*
X98800499Y-109921153D01*
X98769738Y-109766510D01*
X98769737Y-109766503D01*
X98769735Y-109766498D01*
X98709397Y-109620827D01*
X98709390Y-109620814D01*
X98621789Y-109489711D01*
X98621786Y-109489707D01*
X98510292Y-109378213D01*
X98510288Y-109378210D01*
X98379185Y-109290609D01*
X98379172Y-109290602D01*
X98233501Y-109230264D01*
X98233489Y-109230261D01*
X98078845Y-109199500D01*
X98078842Y-109199500D01*
X97921158Y-109199500D01*
X97921155Y-109199500D01*
X97766510Y-109230261D01*
X97766498Y-109230264D01*
X97620827Y-109290602D01*
X97620814Y-109290609D01*
X97489711Y-109378210D01*
X97489707Y-109378213D01*
X97378213Y-109489707D01*
X97378210Y-109489711D01*
X97290609Y-109620814D01*
X97290602Y-109620827D01*
X97230264Y-109766498D01*
X97230261Y-109766510D01*
X97199500Y-109921153D01*
X76482881Y-109921153D01*
X76482881Y-108155201D01*
X88565452Y-108155201D01*
X88565452Y-108312894D01*
X88596213Y-108467537D01*
X88596216Y-108467549D01*
X88656554Y-108613220D01*
X88656561Y-108613233D01*
X88744162Y-108744336D01*
X88744165Y-108744340D01*
X88855659Y-108855834D01*
X88855663Y-108855837D01*
X88986766Y-108943438D01*
X88986779Y-108943445D01*
X89124522Y-109000499D01*
X89132455Y-109003785D01*
X89287105Y-109034547D01*
X89287108Y-109034548D01*
X89287110Y-109034548D01*
X89444796Y-109034548D01*
X89444797Y-109034547D01*
X89599449Y-109003785D01*
X89745131Y-108943442D01*
X89876241Y-108855837D01*
X89912318Y-108819760D01*
X89973640Y-108786274D01*
X90043332Y-108791258D01*
X90084939Y-108817999D01*
X90085001Y-108817924D01*
X90085647Y-108818454D01*
X90087688Y-108819766D01*
X90089711Y-108821789D01*
X90220814Y-108909390D01*
X90220827Y-108909397D01*
X90366498Y-108969735D01*
X90366503Y-108969737D01*
X90521153Y-109000499D01*
X90521156Y-109000500D01*
X90521158Y-109000500D01*
X90678844Y-109000500D01*
X90678845Y-109000499D01*
X90833497Y-108969737D01*
X90979179Y-108909394D01*
X91110289Y-108821789D01*
X91210925Y-108721153D01*
X115599500Y-108721153D01*
X115599500Y-108878846D01*
X115630261Y-109033489D01*
X115630264Y-109033501D01*
X115690602Y-109179172D01*
X115690609Y-109179185D01*
X115778210Y-109310288D01*
X115778213Y-109310292D01*
X115889707Y-109421786D01*
X115889711Y-109421789D01*
X116020814Y-109509390D01*
X116020827Y-109509397D01*
X116166498Y-109569735D01*
X116166503Y-109569737D01*
X116321153Y-109600499D01*
X116321156Y-109600500D01*
X116321158Y-109600500D01*
X116478844Y-109600500D01*
X116478845Y-109600499D01*
X116633497Y-109569737D01*
X116779179Y-109509394D01*
X116910289Y-109421789D01*
X117021789Y-109310289D01*
X117109394Y-109179179D01*
X117169737Y-109033497D01*
X117200500Y-108878842D01*
X117200500Y-108721158D01*
X117200500Y-108721155D01*
X117200499Y-108721153D01*
X117179031Y-108613227D01*
X117169737Y-108566503D01*
X117169735Y-108566498D01*
X117109397Y-108420827D01*
X117109390Y-108420814D01*
X117021789Y-108289711D01*
X117021786Y-108289707D01*
X116910292Y-108178213D01*
X116910288Y-108178210D01*
X116779185Y-108090609D01*
X116779172Y-108090602D01*
X116633501Y-108030264D01*
X116633489Y-108030261D01*
X116478845Y-107999500D01*
X116478842Y-107999500D01*
X116321158Y-107999500D01*
X116321155Y-107999500D01*
X116166510Y-108030261D01*
X116166498Y-108030264D01*
X116020827Y-108090602D01*
X116020814Y-108090609D01*
X115889711Y-108178210D01*
X115889707Y-108178213D01*
X115778213Y-108289707D01*
X115778210Y-108289711D01*
X115690609Y-108420814D01*
X115690602Y-108420827D01*
X115630264Y-108566498D01*
X115630261Y-108566510D01*
X115599500Y-108721153D01*
X91210925Y-108721153D01*
X91221789Y-108710289D01*
X91309394Y-108579179D01*
X91369737Y-108433497D01*
X91400500Y-108278842D01*
X91400500Y-108121158D01*
X91400500Y-108121155D01*
X91400499Y-108121153D01*
X91376511Y-108000558D01*
X91369737Y-107966503D01*
X91323497Y-107854869D01*
X91309397Y-107820827D01*
X91309390Y-107820814D01*
X91221789Y-107689711D01*
X91221786Y-107689707D01*
X91110292Y-107578213D01*
X91110288Y-107578210D01*
X91024897Y-107521153D01*
X93599500Y-107521153D01*
X93599500Y-107678846D01*
X93630261Y-107833489D01*
X93630264Y-107833501D01*
X93690602Y-107979172D01*
X93690609Y-107979185D01*
X93778210Y-108110288D01*
X93778213Y-108110292D01*
X93889707Y-108221786D01*
X93889711Y-108221789D01*
X94020814Y-108309390D01*
X94020827Y-108309397D01*
X94166498Y-108369735D01*
X94166503Y-108369737D01*
X94321153Y-108400499D01*
X94321156Y-108400500D01*
X94321158Y-108400500D01*
X94478844Y-108400500D01*
X94478845Y-108400499D01*
X94633497Y-108369737D01*
X94779179Y-108309394D01*
X94910289Y-108221789D01*
X95021789Y-108110289D01*
X95109394Y-107979179D01*
X95169737Y-107833497D01*
X95200500Y-107678842D01*
X95200500Y-107521158D01*
X95200500Y-107521155D01*
X95200499Y-107521153D01*
X95194422Y-107490602D01*
X95169737Y-107366503D01*
X95122454Y-107252351D01*
X95109397Y-107220827D01*
X95109390Y-107220814D01*
X95021789Y-107089711D01*
X95021786Y-107089707D01*
X94910292Y-106978213D01*
X94910288Y-106978210D01*
X94779185Y-106890609D01*
X94779172Y-106890602D01*
X94633501Y-106830264D01*
X94633489Y-106830261D01*
X94478845Y-106799500D01*
X94478842Y-106799500D01*
X94321158Y-106799500D01*
X94321155Y-106799500D01*
X94166510Y-106830261D01*
X94166498Y-106830264D01*
X94020827Y-106890602D01*
X94020814Y-106890609D01*
X93889711Y-106978210D01*
X93889707Y-106978213D01*
X93778213Y-107089707D01*
X93778210Y-107089711D01*
X93690609Y-107220814D01*
X93690602Y-107220827D01*
X93630264Y-107366498D01*
X93630261Y-107366510D01*
X93599500Y-107521153D01*
X91024897Y-107521153D01*
X90979185Y-107490609D01*
X90979172Y-107490602D01*
X90833501Y-107430264D01*
X90833491Y-107430261D01*
X90757879Y-107415221D01*
X90695968Y-107382836D01*
X90661394Y-107322120D01*
X90665134Y-107252351D01*
X90678970Y-107224712D01*
X90709389Y-107179187D01*
X90709390Y-107179184D01*
X90709394Y-107179179D01*
X90769737Y-107033497D01*
X90800500Y-106878842D01*
X90800500Y-106721158D01*
X90800500Y-106721155D01*
X90800499Y-106721153D01*
X90769738Y-106566510D01*
X90769737Y-106566503D01*
X90733427Y-106478842D01*
X90709397Y-106420827D01*
X90709390Y-106420814D01*
X90684763Y-106383957D01*
X90642798Y-106321153D01*
X96199500Y-106321153D01*
X96199500Y-106478846D01*
X96230261Y-106633489D01*
X96230264Y-106633501D01*
X96290602Y-106779172D01*
X96290609Y-106779185D01*
X96378210Y-106910288D01*
X96378213Y-106910292D01*
X96489707Y-107021786D01*
X96489711Y-107021789D01*
X96620814Y-107109390D01*
X96620827Y-107109397D01*
X96766498Y-107169735D01*
X96766503Y-107169737D01*
X96921153Y-107200499D01*
X96921156Y-107200500D01*
X96921158Y-107200500D01*
X97078844Y-107200500D01*
X97078845Y-107200499D01*
X97233497Y-107169737D01*
X97379179Y-107109394D01*
X97510289Y-107021789D01*
X97621789Y-106910289D01*
X97709394Y-106779179D01*
X97769737Y-106633497D01*
X97800500Y-106478842D01*
X97800500Y-106321158D01*
X97800500Y-106321155D01*
X97800499Y-106321153D01*
X102199500Y-106321153D01*
X102199500Y-106478846D01*
X102230261Y-106633489D01*
X102230264Y-106633501D01*
X102290602Y-106779172D01*
X102290609Y-106779185D01*
X102378210Y-106910288D01*
X102378213Y-106910292D01*
X102489707Y-107021786D01*
X102489711Y-107021789D01*
X102620814Y-107109390D01*
X102620827Y-107109397D01*
X102766498Y-107169735D01*
X102766503Y-107169737D01*
X102921153Y-107200499D01*
X102921156Y-107200500D01*
X102921158Y-107200500D01*
X103078844Y-107200500D01*
X103078845Y-107200499D01*
X103233497Y-107169737D01*
X103379179Y-107109394D01*
X103510289Y-107021789D01*
X103621789Y-106910289D01*
X103709394Y-106779179D01*
X103769737Y-106633497D01*
X103800500Y-106478842D01*
X103800500Y-106321158D01*
X103800500Y-106321155D01*
X103800499Y-106321153D01*
X108199500Y-106321153D01*
X108199500Y-106478846D01*
X108230261Y-106633489D01*
X108230264Y-106633501D01*
X108290602Y-106779172D01*
X108290609Y-106779185D01*
X108378210Y-106910288D01*
X108378213Y-106910292D01*
X108489707Y-107021786D01*
X108489711Y-107021789D01*
X108620814Y-107109390D01*
X108620827Y-107109397D01*
X108766498Y-107169735D01*
X108766503Y-107169737D01*
X108921153Y-107200499D01*
X108921156Y-107200500D01*
X108921158Y-107200500D01*
X109078844Y-107200500D01*
X109078845Y-107200499D01*
X109233497Y-107169737D01*
X109379179Y-107109394D01*
X109510289Y-107021789D01*
X109621789Y-106910289D01*
X109709394Y-106779179D01*
X109769737Y-106633497D01*
X109800500Y-106478842D01*
X109800500Y-106321158D01*
X109800500Y-106321155D01*
X109800499Y-106321153D01*
X114199500Y-106321153D01*
X114199500Y-106478846D01*
X114230261Y-106633489D01*
X114230264Y-106633501D01*
X114290602Y-106779172D01*
X114290609Y-106779185D01*
X114378210Y-106910288D01*
X114378213Y-106910292D01*
X114489707Y-107021786D01*
X114489711Y-107021789D01*
X114620814Y-107109390D01*
X114620827Y-107109397D01*
X114766498Y-107169735D01*
X114766503Y-107169737D01*
X114921153Y-107200499D01*
X114921156Y-107200500D01*
X114921158Y-107200500D01*
X115078844Y-107200500D01*
X115078845Y-107200499D01*
X115233497Y-107169737D01*
X115379179Y-107109394D01*
X115510289Y-107021789D01*
X115621789Y-106910289D01*
X115709394Y-106779179D01*
X115769737Y-106633497D01*
X115800500Y-106478842D01*
X115800500Y-106321158D01*
X115800500Y-106321155D01*
X115800499Y-106321153D01*
X115772066Y-106178211D01*
X115769737Y-106166503D01*
X115738298Y-106090602D01*
X115709397Y-106020827D01*
X115709390Y-106020814D01*
X115621789Y-105889711D01*
X115621786Y-105889707D01*
X115510292Y-105778213D01*
X115510288Y-105778210D01*
X115379185Y-105690609D01*
X115379172Y-105690602D01*
X115233501Y-105630264D01*
X115233489Y-105630261D01*
X115078845Y-105599500D01*
X115078842Y-105599500D01*
X114921158Y-105599500D01*
X114921155Y-105599500D01*
X114766510Y-105630261D01*
X114766498Y-105630264D01*
X114620827Y-105690602D01*
X114620814Y-105690609D01*
X114489711Y-105778210D01*
X114489707Y-105778213D01*
X114378213Y-105889707D01*
X114378210Y-105889711D01*
X114290609Y-106020814D01*
X114290602Y-106020827D01*
X114230264Y-106166498D01*
X114230261Y-106166510D01*
X114199500Y-106321153D01*
X109800499Y-106321153D01*
X109772066Y-106178211D01*
X109769737Y-106166503D01*
X109738298Y-106090602D01*
X109709397Y-106020827D01*
X109709390Y-106020814D01*
X109621789Y-105889711D01*
X109621786Y-105889707D01*
X109510292Y-105778213D01*
X109510288Y-105778210D01*
X109379185Y-105690609D01*
X109379172Y-105690602D01*
X109233501Y-105630264D01*
X109233489Y-105630261D01*
X109078845Y-105599500D01*
X109078842Y-105599500D01*
X108921158Y-105599500D01*
X108921155Y-105599500D01*
X108766510Y-105630261D01*
X108766498Y-105630264D01*
X108620827Y-105690602D01*
X108620814Y-105690609D01*
X108489711Y-105778210D01*
X108489707Y-105778213D01*
X108378213Y-105889707D01*
X108378210Y-105889711D01*
X108290609Y-106020814D01*
X108290602Y-106020827D01*
X108230264Y-106166498D01*
X108230261Y-106166510D01*
X108199500Y-106321153D01*
X103800499Y-106321153D01*
X103772066Y-106178211D01*
X103769737Y-106166503D01*
X103738298Y-106090602D01*
X103709397Y-106020827D01*
X103709390Y-106020814D01*
X103621789Y-105889711D01*
X103621786Y-105889707D01*
X103510292Y-105778213D01*
X103510288Y-105778210D01*
X103379185Y-105690609D01*
X103379172Y-105690602D01*
X103233501Y-105630264D01*
X103233489Y-105630261D01*
X103078845Y-105599500D01*
X103078842Y-105599500D01*
X102921158Y-105599500D01*
X102921155Y-105599500D01*
X102766510Y-105630261D01*
X102766498Y-105630264D01*
X102620827Y-105690602D01*
X102620814Y-105690609D01*
X102489711Y-105778210D01*
X102489707Y-105778213D01*
X102378213Y-105889707D01*
X102378210Y-105889711D01*
X102290609Y-106020814D01*
X102290602Y-106020827D01*
X102230264Y-106166498D01*
X102230261Y-106166510D01*
X102199500Y-106321153D01*
X97800499Y-106321153D01*
X97772066Y-106178211D01*
X97769737Y-106166503D01*
X97738298Y-106090602D01*
X97709397Y-106020827D01*
X97709390Y-106020814D01*
X97621789Y-105889711D01*
X97621786Y-105889707D01*
X97510292Y-105778213D01*
X97510288Y-105778210D01*
X97379185Y-105690609D01*
X97379172Y-105690602D01*
X97233501Y-105630264D01*
X97233489Y-105630261D01*
X97078845Y-105599500D01*
X97078842Y-105599500D01*
X96921158Y-105599500D01*
X96921155Y-105599500D01*
X96766510Y-105630261D01*
X96766498Y-105630264D01*
X96620827Y-105690602D01*
X96620814Y-105690609D01*
X96489711Y-105778210D01*
X96489707Y-105778213D01*
X96378213Y-105889707D01*
X96378210Y-105889711D01*
X96290609Y-106020814D01*
X96290602Y-106020827D01*
X96230264Y-106166498D01*
X96230261Y-106166510D01*
X96199500Y-106321153D01*
X90642798Y-106321153D01*
X90621789Y-106289711D01*
X90621786Y-106289707D01*
X90510292Y-106178213D01*
X90510288Y-106178210D01*
X90379185Y-106090609D01*
X90379172Y-106090602D01*
X90233501Y-106030264D01*
X90233489Y-106030261D01*
X90078845Y-105999500D01*
X90078842Y-105999500D01*
X89921158Y-105999500D01*
X89921155Y-105999500D01*
X89766510Y-106030261D01*
X89766498Y-106030264D01*
X89620827Y-106090602D01*
X89620814Y-106090609D01*
X89489711Y-106178210D01*
X89489707Y-106178213D01*
X89378213Y-106289707D01*
X89378210Y-106289711D01*
X89290609Y-106420814D01*
X89290602Y-106420827D01*
X89230264Y-106566498D01*
X89230261Y-106566510D01*
X89199500Y-106721153D01*
X89199500Y-106878846D01*
X89230261Y-107033489D01*
X89230264Y-107033501D01*
X89290602Y-107179172D01*
X89290609Y-107179185D01*
X89337117Y-107248788D01*
X89357995Y-107315465D01*
X89339511Y-107382845D01*
X89287532Y-107429536D01*
X89258207Y-107439296D01*
X89132460Y-107464309D01*
X89132450Y-107464312D01*
X88986779Y-107524650D01*
X88986766Y-107524657D01*
X88855663Y-107612258D01*
X88855659Y-107612261D01*
X88744165Y-107723755D01*
X88744162Y-107723759D01*
X88656561Y-107854862D01*
X88656554Y-107854875D01*
X88596216Y-108000546D01*
X88596213Y-108000558D01*
X88565452Y-108155201D01*
X76482881Y-108155201D01*
X76482881Y-101971228D01*
X80226881Y-101971228D01*
X80226881Y-102138771D01*
X80259563Y-102303074D01*
X80259565Y-102303082D01*
X80323676Y-102457860D01*
X80416754Y-102597162D01*
X80535218Y-102715626D01*
X80586811Y-102750099D01*
X80674518Y-102808703D01*
X80829299Y-102872816D01*
X80993609Y-102905499D01*
X80993613Y-102905500D01*
X80993614Y-102905500D01*
X81161149Y-102905500D01*
X81161150Y-102905499D01*
X81325463Y-102872816D01*
X81480244Y-102808703D01*
X81611271Y-102721153D01*
X98199500Y-102721153D01*
X98199500Y-102878846D01*
X98230261Y-103033489D01*
X98230264Y-103033501D01*
X98290602Y-103179172D01*
X98290609Y-103179185D01*
X98378210Y-103310288D01*
X98378213Y-103310292D01*
X98489707Y-103421786D01*
X98489711Y-103421789D01*
X98620814Y-103509390D01*
X98620827Y-103509397D01*
X98766498Y-103569735D01*
X98766503Y-103569737D01*
X98921153Y-103600499D01*
X98921156Y-103600500D01*
X98921158Y-103600500D01*
X99078844Y-103600500D01*
X99078845Y-103600499D01*
X99233497Y-103569737D01*
X99379179Y-103509394D01*
X99510289Y-103421789D01*
X99621789Y-103310289D01*
X99709394Y-103179179D01*
X99769737Y-103033497D01*
X99800500Y-102878842D01*
X99800500Y-102721158D01*
X99800500Y-102721155D01*
X99800499Y-102721153D01*
X110199500Y-102721153D01*
X110199500Y-102878846D01*
X110230261Y-103033489D01*
X110230264Y-103033501D01*
X110290602Y-103179172D01*
X110290609Y-103179185D01*
X110378210Y-103310288D01*
X110378213Y-103310292D01*
X110489707Y-103421786D01*
X110489711Y-103421789D01*
X110620814Y-103509390D01*
X110620827Y-103509397D01*
X110766498Y-103569735D01*
X110766503Y-103569737D01*
X110921153Y-103600499D01*
X110921156Y-103600500D01*
X110921158Y-103600500D01*
X111078844Y-103600500D01*
X111078845Y-103600499D01*
X111233497Y-103569737D01*
X111350790Y-103521153D01*
X114599500Y-103521153D01*
X114599500Y-103678846D01*
X114630261Y-103833489D01*
X114630264Y-103833501D01*
X114690602Y-103979172D01*
X114690609Y-103979185D01*
X114778210Y-104110288D01*
X114778213Y-104110292D01*
X114889707Y-104221786D01*
X114889711Y-104221789D01*
X115020814Y-104309390D01*
X115020827Y-104309397D01*
X115166498Y-104369735D01*
X115166503Y-104369737D01*
X115321153Y-104400499D01*
X115321156Y-104400500D01*
X115321158Y-104400500D01*
X115478844Y-104400500D01*
X115478845Y-104400499D01*
X115633497Y-104369737D01*
X115779179Y-104309394D01*
X115831110Y-104274694D01*
X115897785Y-104253816D01*
X115965165Y-104272300D01*
X115968863Y-104274676D01*
X116020821Y-104309394D01*
X116020823Y-104309395D01*
X116020825Y-104309396D01*
X116166498Y-104369735D01*
X116166503Y-104369737D01*
X116321153Y-104400499D01*
X116321156Y-104400500D01*
X116321158Y-104400500D01*
X116478844Y-104400500D01*
X116478845Y-104400499D01*
X116633497Y-104369737D01*
X116746166Y-104323067D01*
X116779172Y-104309397D01*
X116779172Y-104309396D01*
X116779179Y-104309394D01*
X116910289Y-104221789D01*
X117021789Y-104110289D01*
X117109394Y-103979179D01*
X117169737Y-103833497D01*
X117200500Y-103678842D01*
X117200500Y-103521158D01*
X117200500Y-103521155D01*
X117200499Y-103521153D01*
X117180734Y-103421788D01*
X117169737Y-103366503D01*
X117146452Y-103310288D01*
X117109397Y-103220827D01*
X117109390Y-103220814D01*
X117021789Y-103089711D01*
X117021786Y-103089707D01*
X116910292Y-102978213D01*
X116910288Y-102978210D01*
X116779185Y-102890609D01*
X116779172Y-102890602D01*
X116633501Y-102830264D01*
X116633489Y-102830261D01*
X116478845Y-102799500D01*
X116478842Y-102799500D01*
X116321158Y-102799500D01*
X116321155Y-102799500D01*
X116166510Y-102830261D01*
X116166498Y-102830264D01*
X116020827Y-102890602D01*
X116020814Y-102890609D01*
X115968891Y-102925304D01*
X115902214Y-102946182D01*
X115834833Y-102927698D01*
X115831109Y-102925304D01*
X115779185Y-102890609D01*
X115779172Y-102890602D01*
X115633501Y-102830264D01*
X115633489Y-102830261D01*
X115478845Y-102799500D01*
X115478842Y-102799500D01*
X115321158Y-102799500D01*
X115321155Y-102799500D01*
X115166510Y-102830261D01*
X115166498Y-102830264D01*
X115020827Y-102890602D01*
X115020814Y-102890609D01*
X114889711Y-102978210D01*
X114889707Y-102978213D01*
X114778213Y-103089707D01*
X114778210Y-103089711D01*
X114690609Y-103220814D01*
X114690602Y-103220827D01*
X114630264Y-103366498D01*
X114630261Y-103366510D01*
X114599500Y-103521153D01*
X111350790Y-103521153D01*
X111379179Y-103509394D01*
X111510289Y-103421789D01*
X111621789Y-103310289D01*
X111709394Y-103179179D01*
X111769737Y-103033497D01*
X111800500Y-102878842D01*
X111800500Y-102721158D01*
X111800500Y-102721155D01*
X111800499Y-102721153D01*
X111789554Y-102666130D01*
X111769737Y-102566503D01*
X111759999Y-102542993D01*
X111709397Y-102420827D01*
X111709390Y-102420814D01*
X111633857Y-102307772D01*
X111633856Y-102307771D01*
X111621787Y-102289708D01*
X111510292Y-102178213D01*
X111510288Y-102178210D01*
X111379185Y-102090609D01*
X111379172Y-102090602D01*
X111233501Y-102030264D01*
X111233489Y-102030261D01*
X111078845Y-101999500D01*
X111078842Y-101999500D01*
X110921158Y-101999500D01*
X110921155Y-101999500D01*
X110766510Y-102030261D01*
X110766498Y-102030264D01*
X110620827Y-102090602D01*
X110620814Y-102090609D01*
X110489711Y-102178210D01*
X110489707Y-102178213D01*
X110378213Y-102289707D01*
X110378210Y-102289711D01*
X110290609Y-102420814D01*
X110290602Y-102420827D01*
X110230264Y-102566498D01*
X110230261Y-102566510D01*
X110199500Y-102721153D01*
X99800499Y-102721153D01*
X99789554Y-102666130D01*
X99769737Y-102566503D01*
X99759999Y-102542993D01*
X99709397Y-102420827D01*
X99709390Y-102420814D01*
X99621789Y-102289711D01*
X99621786Y-102289707D01*
X99510292Y-102178213D01*
X99510288Y-102178210D01*
X99379185Y-102090609D01*
X99379172Y-102090602D01*
X99233501Y-102030264D01*
X99233489Y-102030261D01*
X99078845Y-101999500D01*
X99078842Y-101999500D01*
X98921158Y-101999500D01*
X98921155Y-101999500D01*
X98766510Y-102030261D01*
X98766498Y-102030264D01*
X98620827Y-102090602D01*
X98620814Y-102090609D01*
X98489711Y-102178210D01*
X98489707Y-102178213D01*
X98378213Y-102289707D01*
X98378210Y-102289711D01*
X98290609Y-102420814D01*
X98290602Y-102420827D01*
X98230264Y-102566498D01*
X98230261Y-102566510D01*
X98199500Y-102721153D01*
X81611271Y-102721153D01*
X81619543Y-102715626D01*
X81631615Y-102703554D01*
X81707785Y-102627385D01*
X81738004Y-102597165D01*
X81738007Y-102597162D01*
X81758496Y-102566498D01*
X81831084Y-102457863D01*
X81895197Y-102303082D01*
X81927881Y-102138767D01*
X81927881Y-101971233D01*
X81895197Y-101806918D01*
X81831084Y-101652137D01*
X81782330Y-101579172D01*
X81738007Y-101512837D01*
X81619543Y-101394373D01*
X81480241Y-101301295D01*
X81325463Y-101237184D01*
X81325457Y-101237182D01*
X81322946Y-101236683D01*
X81322945Y-101236682D01*
X81161152Y-101204500D01*
X81161148Y-101204500D01*
X80993614Y-101204500D01*
X80993609Y-101204500D01*
X80829306Y-101237182D01*
X80829298Y-101237184D01*
X80674520Y-101301295D01*
X80535218Y-101394373D01*
X80416754Y-101512837D01*
X80323676Y-101652139D01*
X80259565Y-101806917D01*
X80259563Y-101806925D01*
X80226881Y-101971228D01*
X76482881Y-101971228D01*
X76482881Y-101121153D01*
X101399500Y-101121153D01*
X101399500Y-101278846D01*
X101430261Y-101433489D01*
X101430264Y-101433501D01*
X101490602Y-101579172D01*
X101490609Y-101579185D01*
X101578210Y-101710288D01*
X101578213Y-101710292D01*
X101689707Y-101821786D01*
X101689711Y-101821789D01*
X101820814Y-101909390D01*
X101820827Y-101909397D01*
X101918614Y-101949901D01*
X101966503Y-101969737D01*
X102116131Y-101999500D01*
X102121153Y-102000499D01*
X102121156Y-102000500D01*
X102121158Y-102000500D01*
X102278844Y-102000500D01*
X102278845Y-102000499D01*
X102433497Y-101969737D01*
X102579179Y-101909394D01*
X102710289Y-101821789D01*
X102821789Y-101710289D01*
X102909394Y-101579179D01*
X102969737Y-101433497D01*
X103000500Y-101278842D01*
X103000500Y-101121158D01*
X103000500Y-101121155D01*
X103000499Y-101121153D01*
X102992593Y-101081408D01*
X102969737Y-100966503D01*
X102934032Y-100880302D01*
X102909397Y-100820827D01*
X102909390Y-100820814D01*
X102821789Y-100689711D01*
X102821786Y-100689707D01*
X102710292Y-100578213D01*
X102710288Y-100578210D01*
X102579185Y-100490609D01*
X102579172Y-100490602D01*
X102433501Y-100430264D01*
X102433489Y-100430261D01*
X102278845Y-100399500D01*
X102278842Y-100399500D01*
X102121158Y-100399500D01*
X102121155Y-100399500D01*
X101966510Y-100430261D01*
X101966498Y-100430264D01*
X101820827Y-100490602D01*
X101820814Y-100490609D01*
X101689711Y-100578210D01*
X101689707Y-100578213D01*
X101578213Y-100689707D01*
X101578210Y-100689711D01*
X101490609Y-100820814D01*
X101490602Y-100820827D01*
X101430264Y-100966498D01*
X101430261Y-100966510D01*
X101399500Y-101121153D01*
X76482881Y-101121153D01*
X76482881Y-99703753D01*
X127710000Y-99703753D01*
X127710000Y-99916246D01*
X127743242Y-100126127D01*
X127743242Y-100126130D01*
X127808904Y-100328217D01*
X127905375Y-100517550D01*
X127944728Y-100571716D01*
X128577037Y-99939408D01*
X128594075Y-100002993D01*
X128659901Y-100117007D01*
X128752993Y-100210099D01*
X128867007Y-100275925D01*
X128930591Y-100292962D01*
X128329971Y-100893581D01*
X128408711Y-101010895D01*
X128409920Y-101014729D01*
X128412844Y-101017491D01*
X128420343Y-101047778D01*
X128429727Y-101077529D01*
X128428671Y-101081408D01*
X128429638Y-101085312D01*
X128419573Y-101114844D01*
X128411383Y-101144947D01*
X128408397Y-101147640D01*
X128407100Y-101151447D01*
X128362051Y-101190483D01*
X128352440Y-101195380D01*
X128298282Y-101234727D01*
X128298282Y-101234728D01*
X128930591Y-101867037D01*
X128867007Y-101884075D01*
X128752993Y-101949901D01*
X128659901Y-102042993D01*
X128594075Y-102157007D01*
X128577037Y-102220591D01*
X127944728Y-101588282D01*
X127944727Y-101588282D01*
X127905380Y-101642439D01*
X127808904Y-101831782D01*
X127743242Y-102033869D01*
X127743242Y-102033872D01*
X127710000Y-102243753D01*
X127710000Y-102456246D01*
X127743242Y-102666127D01*
X127743242Y-102666130D01*
X127808904Y-102868217D01*
X127905375Y-103057550D01*
X127944728Y-103111716D01*
X128577037Y-102479408D01*
X128594075Y-102542993D01*
X128659901Y-102657007D01*
X128752993Y-102750099D01*
X128867007Y-102815925D01*
X128930590Y-102832962D01*
X128298282Y-103465269D01*
X128298282Y-103465270D01*
X128352449Y-103504624D01*
X128541784Y-103601096D01*
X128640711Y-103633239D01*
X128698387Y-103672676D01*
X128725586Y-103737034D01*
X128713672Y-103805881D01*
X128666428Y-103857357D01*
X128640722Y-103869097D01*
X128639522Y-103869487D01*
X128637550Y-103870128D01*
X128483211Y-103948768D01*
X128403256Y-104006859D01*
X128343072Y-104050586D01*
X128343070Y-104050588D01*
X128343069Y-104050588D01*
X128220588Y-104173069D01*
X128220588Y-104173070D01*
X128220586Y-104173072D01*
X128185193Y-104221786D01*
X128118768Y-104313211D01*
X128040128Y-104467552D01*
X127986597Y-104632302D01*
X127959500Y-104803389D01*
X127959500Y-104976611D01*
X127986598Y-105147701D01*
X128040127Y-105312445D01*
X128118768Y-105466788D01*
X128220586Y-105606928D01*
X128343072Y-105729414D01*
X128483212Y-105831232D01*
X128637555Y-105909873D01*
X128802299Y-105963402D01*
X128973389Y-105990500D01*
X128973390Y-105990500D01*
X129146610Y-105990500D01*
X129146611Y-105990500D01*
X129317701Y-105963402D01*
X129482445Y-105909873D01*
X129636788Y-105831232D01*
X129776928Y-105729414D01*
X129899414Y-105606928D01*
X130001232Y-105466788D01*
X130079873Y-105312445D01*
X130133402Y-105147701D01*
X130160500Y-104976611D01*
X130160500Y-104803389D01*
X130133402Y-104632299D01*
X130079873Y-104467555D01*
X130001232Y-104313212D01*
X129899414Y-104173072D01*
X129776928Y-104050586D01*
X129636788Y-103948768D01*
X129482446Y-103870127D01*
X129479284Y-103869100D01*
X129478236Y-103868383D01*
X129477952Y-103868266D01*
X129477976Y-103868206D01*
X129421609Y-103829661D01*
X129394413Y-103765302D01*
X129406329Y-103696456D01*
X129453574Y-103644981D01*
X129479288Y-103633239D01*
X129578215Y-103601096D01*
X129767554Y-103504622D01*
X129821716Y-103465270D01*
X129821717Y-103465270D01*
X129189408Y-102832962D01*
X129252993Y-102815925D01*
X129367007Y-102750099D01*
X129460099Y-102657007D01*
X129525925Y-102542993D01*
X129542962Y-102479408D01*
X130175270Y-103111717D01*
X130175270Y-103111716D01*
X130214622Y-103057554D01*
X130219514Y-103047954D01*
X130267488Y-102997157D01*
X130335308Y-102980361D01*
X130401444Y-103002897D01*
X130440486Y-103047954D01*
X130445375Y-103057550D01*
X130484728Y-103111716D01*
X131117037Y-102479408D01*
X131134075Y-102542993D01*
X131199901Y-102657007D01*
X131292993Y-102750099D01*
X131407007Y-102815925D01*
X131470590Y-102832962D01*
X130838282Y-103465269D01*
X130838282Y-103465270D01*
X130892449Y-103504624D01*
X131081784Y-103601096D01*
X131180711Y-103633239D01*
X131238387Y-103672676D01*
X131265586Y-103737034D01*
X131253672Y-103805881D01*
X131206428Y-103857357D01*
X131180722Y-103869097D01*
X131179522Y-103869487D01*
X131177550Y-103870128D01*
X131023211Y-103948768D01*
X130943256Y-104006859D01*
X130883072Y-104050586D01*
X130883070Y-104050588D01*
X130883069Y-104050588D01*
X130760588Y-104173069D01*
X130760588Y-104173070D01*
X130760586Y-104173072D01*
X130725193Y-104221786D01*
X130658768Y-104313211D01*
X130580128Y-104467552D01*
X130526597Y-104632302D01*
X130499500Y-104803389D01*
X130499500Y-104976611D01*
X130526598Y-105147701D01*
X130580127Y-105312445D01*
X130658768Y-105466788D01*
X130760586Y-105606928D01*
X130883072Y-105729414D01*
X131023212Y-105831232D01*
X131177555Y-105909873D01*
X131342299Y-105963402D01*
X131513389Y-105990500D01*
X131513390Y-105990500D01*
X131686610Y-105990500D01*
X131686611Y-105990500D01*
X131857701Y-105963402D01*
X132022445Y-105909873D01*
X132176788Y-105831232D01*
X132316928Y-105729414D01*
X132439414Y-105606928D01*
X132541232Y-105466788D01*
X132619873Y-105312445D01*
X132673402Y-105147701D01*
X132700500Y-104976611D01*
X132700500Y-104803389D01*
X132673402Y-104632299D01*
X132619873Y-104467555D01*
X132541232Y-104313212D01*
X132439414Y-104173072D01*
X132316928Y-104050586D01*
X132176788Y-103948768D01*
X132022446Y-103870127D01*
X132019284Y-103869100D01*
X132018236Y-103868383D01*
X132017952Y-103868266D01*
X132017976Y-103868206D01*
X131961609Y-103829661D01*
X131934413Y-103765302D01*
X131946329Y-103696456D01*
X131993574Y-103644981D01*
X132019288Y-103633239D01*
X132118215Y-103601096D01*
X132307554Y-103504622D01*
X132361716Y-103465270D01*
X132361717Y-103465270D01*
X131729408Y-102832962D01*
X131792993Y-102815925D01*
X131907007Y-102750099D01*
X132000099Y-102657007D01*
X132065925Y-102542993D01*
X132082962Y-102479408D01*
X132715270Y-103111717D01*
X132715270Y-103111716D01*
X132754622Y-103057554D01*
X132851095Y-102868217D01*
X132916757Y-102666130D01*
X132916757Y-102666127D01*
X132950000Y-102456246D01*
X132950000Y-102243753D01*
X132916757Y-102033872D01*
X132916757Y-102033869D01*
X132851095Y-101831782D01*
X132754624Y-101642449D01*
X132715270Y-101588282D01*
X132715269Y-101588282D01*
X132082962Y-102220590D01*
X132065925Y-102157007D01*
X132000099Y-102042993D01*
X131907007Y-101949901D01*
X131792993Y-101884075D01*
X131729409Y-101867037D01*
X132361716Y-101234728D01*
X132307550Y-101195375D01*
X132297954Y-101190486D01*
X132247157Y-101142512D01*
X132230361Y-101074692D01*
X132252897Y-101008556D01*
X132297954Y-100969514D01*
X132307554Y-100964622D01*
X132361716Y-100925270D01*
X132361717Y-100925270D01*
X131729408Y-100292962D01*
X131792993Y-100275925D01*
X131907007Y-100210099D01*
X132000099Y-100117007D01*
X132065925Y-100002993D01*
X132082962Y-99939408D01*
X132715270Y-100571717D01*
X132715270Y-100571716D01*
X132754622Y-100517554D01*
X132851095Y-100328217D01*
X132916757Y-100126130D01*
X132916757Y-100126127D01*
X132950000Y-99916246D01*
X132950000Y-99703753D01*
X132916757Y-99493872D01*
X132916757Y-99493869D01*
X132851095Y-99291782D01*
X132754624Y-99102449D01*
X132715270Y-99048282D01*
X132715269Y-99048282D01*
X132082962Y-99680590D01*
X132065925Y-99617007D01*
X132000099Y-99502993D01*
X131907007Y-99409901D01*
X131792993Y-99344075D01*
X131729409Y-99327037D01*
X132361716Y-98694728D01*
X132307550Y-98655375D01*
X132118217Y-98558904D01*
X132019287Y-98526760D01*
X131961611Y-98487323D01*
X131934413Y-98422964D01*
X131946328Y-98354118D01*
X131993572Y-98302642D01*
X132019290Y-98290897D01*
X132022445Y-98289873D01*
X132176788Y-98211232D01*
X132316928Y-98109414D01*
X132439414Y-97986928D01*
X132541232Y-97846788D01*
X132619873Y-97692445D01*
X132673402Y-97527701D01*
X132700500Y-97356611D01*
X132700500Y-97183389D01*
X132673402Y-97012299D01*
X132619873Y-96847555D01*
X132541232Y-96693212D01*
X132439414Y-96553072D01*
X132316928Y-96430586D01*
X132176788Y-96328768D01*
X132022445Y-96250127D01*
X131857701Y-96196598D01*
X131857699Y-96196597D01*
X131857698Y-96196597D01*
X131726271Y-96175781D01*
X131686611Y-96169500D01*
X131513389Y-96169500D01*
X131473728Y-96175781D01*
X131342302Y-96196597D01*
X131177552Y-96250128D01*
X131023211Y-96328768D01*
X130953837Y-96379172D01*
X130883072Y-96430586D01*
X130883070Y-96430588D01*
X130883069Y-96430588D01*
X130760588Y-96553069D01*
X130760588Y-96553070D01*
X130760586Y-96553072D01*
X130716859Y-96613256D01*
X130658768Y-96693211D01*
X130580128Y-96847552D01*
X130526597Y-97012302D01*
X130499500Y-97183389D01*
X130499500Y-97356611D01*
X130526598Y-97527701D01*
X130580127Y-97692445D01*
X130658768Y-97846788D01*
X130760586Y-97986928D01*
X130883072Y-98109414D01*
X131023212Y-98211232D01*
X131177555Y-98289873D01*
X131180708Y-98290897D01*
X131181752Y-98291611D01*
X131182048Y-98291734D01*
X131182022Y-98291795D01*
X131238383Y-98330330D01*
X131265585Y-98394688D01*
X131253674Y-98463535D01*
X131206433Y-98515013D01*
X131180712Y-98526760D01*
X131081783Y-98558904D01*
X130892439Y-98655380D01*
X130838282Y-98694727D01*
X130838282Y-98694728D01*
X131470591Y-99327037D01*
X131407007Y-99344075D01*
X131292993Y-99409901D01*
X131199901Y-99502993D01*
X131134075Y-99617007D01*
X131117037Y-99680591D01*
X130484728Y-99048282D01*
X130484727Y-99048282D01*
X130445380Y-99102440D01*
X130440483Y-99112051D01*
X130392506Y-99162845D01*
X130324684Y-99179638D01*
X130258550Y-99157098D01*
X130219516Y-99112048D01*
X130214626Y-99102452D01*
X130175270Y-99048282D01*
X130175269Y-99048282D01*
X129542962Y-99680590D01*
X129525925Y-99617007D01*
X129460099Y-99502993D01*
X129367007Y-99409901D01*
X129252993Y-99344075D01*
X129189409Y-99327037D01*
X129821716Y-98694728D01*
X129767550Y-98655375D01*
X129578217Y-98558904D01*
X129479287Y-98526760D01*
X129421611Y-98487323D01*
X129394413Y-98422964D01*
X129406328Y-98354118D01*
X129453572Y-98302642D01*
X129479290Y-98290897D01*
X129482445Y-98289873D01*
X129636788Y-98211232D01*
X129776928Y-98109414D01*
X129899414Y-97986928D01*
X130001232Y-97846788D01*
X130079873Y-97692445D01*
X130133402Y-97527701D01*
X130160500Y-97356611D01*
X130160500Y-97183389D01*
X130133402Y-97012299D01*
X130079873Y-96847555D01*
X130001232Y-96693212D01*
X129899414Y-96553072D01*
X129776928Y-96430586D01*
X129636788Y-96328768D01*
X129482445Y-96250127D01*
X129317701Y-96196598D01*
X129317699Y-96196597D01*
X129317698Y-96196597D01*
X129186271Y-96175781D01*
X129146611Y-96169500D01*
X128973389Y-96169500D01*
X128933728Y-96175781D01*
X128802302Y-96196597D01*
X128637552Y-96250128D01*
X128483211Y-96328768D01*
X128413837Y-96379172D01*
X128343072Y-96430586D01*
X128343070Y-96430588D01*
X128343069Y-96430588D01*
X128220588Y-96553069D01*
X128220588Y-96553070D01*
X128220586Y-96553072D01*
X128176859Y-96613256D01*
X128118768Y-96693211D01*
X128040128Y-96847552D01*
X127986597Y-97012302D01*
X127959500Y-97183389D01*
X127959500Y-97356611D01*
X127986598Y-97527701D01*
X128040127Y-97692445D01*
X128118768Y-97846788D01*
X128220586Y-97986928D01*
X128343072Y-98109414D01*
X128483212Y-98211232D01*
X128637555Y-98289873D01*
X128640708Y-98290897D01*
X128641752Y-98291611D01*
X128642048Y-98291734D01*
X128642022Y-98291795D01*
X128698383Y-98330330D01*
X128725585Y-98394688D01*
X128713674Y-98463535D01*
X128666433Y-98515013D01*
X128640712Y-98526760D01*
X128541783Y-98558904D01*
X128352439Y-98655380D01*
X128298282Y-98694727D01*
X128298282Y-98694728D01*
X128930591Y-99327037D01*
X128867007Y-99344075D01*
X128752993Y-99409901D01*
X128659901Y-99502993D01*
X128594075Y-99617007D01*
X128577037Y-99680591D01*
X127944728Y-99048282D01*
X127944727Y-99048282D01*
X127905380Y-99102439D01*
X127808904Y-99291782D01*
X127743242Y-99493869D01*
X127743242Y-99493872D01*
X127710000Y-99703753D01*
X76482881Y-99703753D01*
X76482881Y-98521153D01*
X91199500Y-98521153D01*
X91199500Y-98678846D01*
X91230261Y-98833489D01*
X91230264Y-98833501D01*
X91290602Y-98979172D01*
X91290609Y-98979185D01*
X91378210Y-99110288D01*
X91378213Y-99110292D01*
X91489707Y-99221786D01*
X91489711Y-99221789D01*
X91620814Y-99309390D01*
X91620827Y-99309397D01*
X91766498Y-99369735D01*
X91766503Y-99369737D01*
X91921153Y-99400499D01*
X91921156Y-99400500D01*
X91921158Y-99400500D01*
X92078844Y-99400500D01*
X92078845Y-99400499D01*
X92233497Y-99369737D01*
X92379179Y-99309394D01*
X92510289Y-99221789D01*
X92621789Y-99110289D01*
X92709394Y-98979179D01*
X92769737Y-98833497D01*
X92800500Y-98678842D01*
X92800500Y-98521158D01*
X92800500Y-98521155D01*
X92800499Y-98521153D01*
X99799500Y-98521153D01*
X99799500Y-98678846D01*
X99830261Y-98833489D01*
X99830264Y-98833501D01*
X99890602Y-98979172D01*
X99890609Y-98979185D01*
X99978210Y-99110288D01*
X99978213Y-99110292D01*
X100089707Y-99221786D01*
X100089711Y-99221789D01*
X100220814Y-99309390D01*
X100220827Y-99309397D01*
X100366498Y-99369735D01*
X100366503Y-99369737D01*
X100521153Y-99400499D01*
X100521156Y-99400500D01*
X100521158Y-99400500D01*
X100678844Y-99400500D01*
X100678845Y-99400499D01*
X100833497Y-99369737D01*
X100979179Y-99309394D01*
X101110289Y-99221789D01*
X101221789Y-99110289D01*
X101309394Y-98979179D01*
X101369737Y-98833497D01*
X101400500Y-98678842D01*
X101400500Y-98521158D01*
X101400500Y-98521155D01*
X101400499Y-98521153D01*
X108599500Y-98521153D01*
X108599500Y-98678846D01*
X108630261Y-98833489D01*
X108630264Y-98833501D01*
X108690602Y-98979172D01*
X108690609Y-98979185D01*
X108778210Y-99110288D01*
X108778213Y-99110292D01*
X108889707Y-99221786D01*
X108889711Y-99221789D01*
X109020814Y-99309390D01*
X109020827Y-99309397D01*
X109166498Y-99369735D01*
X109166503Y-99369737D01*
X109321153Y-99400499D01*
X109321156Y-99400500D01*
X109321158Y-99400500D01*
X109478844Y-99400500D01*
X109478845Y-99400499D01*
X109633497Y-99369737D01*
X109779179Y-99309394D01*
X109910289Y-99221789D01*
X110021789Y-99110289D01*
X110109394Y-98979179D01*
X110169737Y-98833497D01*
X110200500Y-98678842D01*
X110200500Y-98521158D01*
X110200500Y-98521155D01*
X110200499Y-98521153D01*
X117199500Y-98521153D01*
X117199500Y-98678846D01*
X117230261Y-98833489D01*
X117230264Y-98833501D01*
X117290602Y-98979172D01*
X117290609Y-98979185D01*
X117378210Y-99110288D01*
X117378213Y-99110292D01*
X117489707Y-99221786D01*
X117489711Y-99221789D01*
X117620814Y-99309390D01*
X117620827Y-99309397D01*
X117766498Y-99369735D01*
X117766503Y-99369737D01*
X117921153Y-99400499D01*
X117921156Y-99400500D01*
X117921158Y-99400500D01*
X118078844Y-99400500D01*
X118078845Y-99400499D01*
X118233497Y-99369737D01*
X118379179Y-99309394D01*
X118510289Y-99221789D01*
X118621789Y-99110289D01*
X118709394Y-98979179D01*
X118769737Y-98833497D01*
X118800500Y-98678842D01*
X118800500Y-98521158D01*
X118800500Y-98521155D01*
X118800499Y-98521153D01*
X118769738Y-98366510D01*
X118769737Y-98366503D01*
X118738420Y-98290896D01*
X118709397Y-98220827D01*
X118709390Y-98220814D01*
X118621789Y-98089711D01*
X118621786Y-98089707D01*
X118510292Y-97978213D01*
X118510288Y-97978210D01*
X118379185Y-97890609D01*
X118379172Y-97890602D01*
X118233501Y-97830264D01*
X118233489Y-97830261D01*
X118078845Y-97799500D01*
X118078842Y-97799500D01*
X117921158Y-97799500D01*
X117921155Y-97799500D01*
X117766510Y-97830261D01*
X117766498Y-97830264D01*
X117620827Y-97890602D01*
X117620814Y-97890609D01*
X117489711Y-97978210D01*
X117489707Y-97978213D01*
X117378213Y-98089707D01*
X117378210Y-98089711D01*
X117290609Y-98220814D01*
X117290602Y-98220827D01*
X117230264Y-98366498D01*
X117230261Y-98366510D01*
X117199500Y-98521153D01*
X110200499Y-98521153D01*
X110169738Y-98366510D01*
X110169737Y-98366503D01*
X110138420Y-98290896D01*
X110109397Y-98220827D01*
X110109390Y-98220814D01*
X110021789Y-98089711D01*
X110021786Y-98089707D01*
X109910292Y-97978213D01*
X109910288Y-97978210D01*
X109779185Y-97890609D01*
X109779172Y-97890602D01*
X109633501Y-97830264D01*
X109633489Y-97830261D01*
X109478845Y-97799500D01*
X109478842Y-97799500D01*
X109321158Y-97799500D01*
X109321155Y-97799500D01*
X109166510Y-97830261D01*
X109166498Y-97830264D01*
X109020827Y-97890602D01*
X109020814Y-97890609D01*
X108889711Y-97978210D01*
X108889707Y-97978213D01*
X108778213Y-98089707D01*
X108778210Y-98089711D01*
X108690609Y-98220814D01*
X108690602Y-98220827D01*
X108630264Y-98366498D01*
X108630261Y-98366510D01*
X108599500Y-98521153D01*
X101400499Y-98521153D01*
X101369738Y-98366510D01*
X101369737Y-98366503D01*
X101338420Y-98290896D01*
X101309397Y-98220827D01*
X101309390Y-98220814D01*
X101221789Y-98089711D01*
X101221786Y-98089707D01*
X101110292Y-97978213D01*
X101110288Y-97978210D01*
X100979185Y-97890609D01*
X100979172Y-97890602D01*
X100833501Y-97830264D01*
X100833489Y-97830261D01*
X100678845Y-97799500D01*
X100678842Y-97799500D01*
X100521158Y-97799500D01*
X100521155Y-97799500D01*
X100366510Y-97830261D01*
X100366498Y-97830264D01*
X100220827Y-97890602D01*
X100220814Y-97890609D01*
X100089711Y-97978210D01*
X100089707Y-97978213D01*
X99978213Y-98089707D01*
X99978210Y-98089711D01*
X99890609Y-98220814D01*
X99890602Y-98220827D01*
X99830264Y-98366498D01*
X99830261Y-98366510D01*
X99799500Y-98521153D01*
X92800499Y-98521153D01*
X92769738Y-98366510D01*
X92769737Y-98366503D01*
X92738420Y-98290896D01*
X92709397Y-98220827D01*
X92709390Y-98220814D01*
X92621789Y-98089711D01*
X92621786Y-98089707D01*
X92510292Y-97978213D01*
X92510288Y-97978210D01*
X92379185Y-97890609D01*
X92379172Y-97890602D01*
X92233501Y-97830264D01*
X92233489Y-97830261D01*
X92078845Y-97799500D01*
X92078842Y-97799500D01*
X91921158Y-97799500D01*
X91921155Y-97799500D01*
X91766510Y-97830261D01*
X91766498Y-97830264D01*
X91620827Y-97890602D01*
X91620814Y-97890609D01*
X91489711Y-97978210D01*
X91489707Y-97978213D01*
X91378213Y-98089707D01*
X91378210Y-98089711D01*
X91290609Y-98220814D01*
X91290602Y-98220827D01*
X91230264Y-98366498D01*
X91230261Y-98366510D01*
X91199500Y-98521153D01*
X76482881Y-98521153D01*
X76482881Y-95921153D01*
X82199500Y-95921153D01*
X82199500Y-96078846D01*
X82230261Y-96233489D01*
X82230264Y-96233501D01*
X82290602Y-96379172D01*
X82290609Y-96379185D01*
X82378210Y-96510288D01*
X82378213Y-96510292D01*
X82489707Y-96621786D01*
X82489711Y-96621789D01*
X82620814Y-96709390D01*
X82620827Y-96709397D01*
X82766498Y-96769735D01*
X82766503Y-96769737D01*
X82921153Y-96800499D01*
X82921156Y-96800500D01*
X82921158Y-96800500D01*
X83078844Y-96800500D01*
X83078845Y-96800499D01*
X83233497Y-96769737D01*
X83379179Y-96709394D01*
X83510289Y-96621789D01*
X83621789Y-96510289D01*
X83709394Y-96379179D01*
X83769737Y-96233497D01*
X83800500Y-96078842D01*
X83800500Y-95921158D01*
X83800500Y-95921155D01*
X83800499Y-95921153D01*
X83782467Y-95830500D01*
X83769737Y-95766503D01*
X83762848Y-95749871D01*
X83709397Y-95620827D01*
X83709390Y-95620814D01*
X83621789Y-95489711D01*
X83621786Y-95489707D01*
X83510292Y-95378213D01*
X83510288Y-95378210D01*
X83379185Y-95290609D01*
X83379172Y-95290602D01*
X83233501Y-95230264D01*
X83233489Y-95230261D01*
X83078845Y-95199500D01*
X83078842Y-95199500D01*
X82921158Y-95199500D01*
X82921155Y-95199500D01*
X82766510Y-95230261D01*
X82766498Y-95230264D01*
X82620827Y-95290602D01*
X82620814Y-95290609D01*
X82489711Y-95378210D01*
X82489707Y-95378213D01*
X82378213Y-95489707D01*
X82378210Y-95489711D01*
X82290609Y-95620814D01*
X82290602Y-95620827D01*
X82230264Y-95766498D01*
X82230261Y-95766510D01*
X82199500Y-95921153D01*
X76482881Y-95921153D01*
X76482881Y-93039448D01*
X84783071Y-93039448D01*
X84783071Y-93220551D01*
X84811400Y-93399410D01*
X84867358Y-93571636D01*
X84867359Y-93571639D01*
X84949577Y-93732997D01*
X85056012Y-93879494D01*
X85056016Y-93879499D01*
X85184071Y-94007554D01*
X85184076Y-94007558D01*
X85311858Y-94100396D01*
X85330577Y-94113996D01*
X85436055Y-94167740D01*
X85491931Y-94196211D01*
X85491934Y-94196212D01*
X85576822Y-94223793D01*
X85664162Y-94252171D01*
X85747000Y-94265291D01*
X85843020Y-94280500D01*
X85929071Y-94280500D01*
X85996110Y-94300185D01*
X86041865Y-94352989D01*
X86053071Y-94404500D01*
X86053071Y-94490551D01*
X86081400Y-94669410D01*
X86137358Y-94841636D01*
X86137359Y-94841639D01*
X86219577Y-95002997D01*
X86326012Y-95149494D01*
X86326016Y-95149499D01*
X86454071Y-95277554D01*
X86454076Y-95277558D01*
X86558084Y-95353123D01*
X86600577Y-95383996D01*
X86706055Y-95437740D01*
X86761931Y-95466211D01*
X86761934Y-95466212D01*
X86832914Y-95489274D01*
X86934162Y-95522171D01*
X87017000Y-95535291D01*
X87113020Y-95550500D01*
X87113025Y-95550500D01*
X87294122Y-95550500D01*
X87380830Y-95536765D01*
X87472980Y-95522171D01*
X87645210Y-95466211D01*
X87806565Y-95383996D01*
X87953072Y-95277553D01*
X88081124Y-95149501D01*
X88187567Y-95002994D01*
X88269782Y-94841639D01*
X88325742Y-94669409D01*
X88340336Y-94577259D01*
X88354071Y-94490551D01*
X88354071Y-94404499D01*
X88373756Y-94337460D01*
X88426560Y-94291705D01*
X88478071Y-94280499D01*
X89171442Y-94280499D01*
X89171443Y-94280499D01*
X89231054Y-94274091D01*
X89365902Y-94223796D01*
X89481117Y-94137546D01*
X89567367Y-94022331D01*
X89617662Y-93887483D01*
X89624071Y-93827873D01*
X89624070Y-93039448D01*
X93411642Y-93039448D01*
X93411642Y-93220551D01*
X93439971Y-93399410D01*
X93495929Y-93571636D01*
X93495930Y-93571639D01*
X93578148Y-93732997D01*
X93684583Y-93879494D01*
X93684587Y-93879499D01*
X93812642Y-94007554D01*
X93812647Y-94007558D01*
X93940429Y-94100396D01*
X93959148Y-94113996D01*
X94064626Y-94167740D01*
X94120502Y-94196211D01*
X94120505Y-94196212D01*
X94205393Y-94223793D01*
X94292733Y-94252171D01*
X94375571Y-94265291D01*
X94471591Y-94280500D01*
X94557642Y-94280500D01*
X94624681Y-94300185D01*
X94670436Y-94352989D01*
X94681642Y-94404500D01*
X94681642Y-94490551D01*
X94709971Y-94669410D01*
X94765929Y-94841636D01*
X94765930Y-94841639D01*
X94848148Y-95002997D01*
X94954583Y-95149494D01*
X94954587Y-95149499D01*
X95082642Y-95277554D01*
X95082647Y-95277558D01*
X95186655Y-95353123D01*
X95229148Y-95383996D01*
X95334626Y-95437740D01*
X95390502Y-95466211D01*
X95390505Y-95466212D01*
X95461485Y-95489274D01*
X95562733Y-95522171D01*
X95645571Y-95535291D01*
X95741591Y-95550500D01*
X95741596Y-95550500D01*
X95922693Y-95550500D01*
X96009401Y-95536765D01*
X96101551Y-95522171D01*
X96273781Y-95466211D01*
X96435136Y-95383996D01*
X96581643Y-95277553D01*
X96709695Y-95149501D01*
X96816138Y-95002994D01*
X96898353Y-94841639D01*
X96954313Y-94669409D01*
X96968907Y-94577259D01*
X96982642Y-94490551D01*
X96982642Y-94404499D01*
X97002327Y-94337460D01*
X97055131Y-94291705D01*
X97106642Y-94280499D01*
X97800013Y-94280499D01*
X97800014Y-94280499D01*
X97859625Y-94274091D01*
X97994473Y-94223796D01*
X98109688Y-94137546D01*
X98195938Y-94022331D01*
X98246233Y-93887483D01*
X98252642Y-93827873D01*
X98252641Y-93039448D01*
X102040214Y-93039448D01*
X102040214Y-93220551D01*
X102068543Y-93399410D01*
X102124501Y-93571636D01*
X102124502Y-93571639D01*
X102206720Y-93732997D01*
X102313155Y-93879494D01*
X102313159Y-93879499D01*
X102441214Y-94007554D01*
X102441219Y-94007558D01*
X102569001Y-94100396D01*
X102587720Y-94113996D01*
X102693198Y-94167740D01*
X102749074Y-94196211D01*
X102749077Y-94196212D01*
X102833965Y-94223793D01*
X102921305Y-94252171D01*
X103004143Y-94265291D01*
X103100163Y-94280500D01*
X103186214Y-94280500D01*
X103253253Y-94300185D01*
X103299008Y-94352989D01*
X103310214Y-94404500D01*
X103310214Y-94490551D01*
X103338543Y-94669410D01*
X103394501Y-94841636D01*
X103394502Y-94841639D01*
X103476720Y-95002997D01*
X103583155Y-95149494D01*
X103583159Y-95149499D01*
X103711214Y-95277554D01*
X103711219Y-95277558D01*
X103815227Y-95353123D01*
X103857720Y-95383996D01*
X103963198Y-95437740D01*
X104019074Y-95466211D01*
X104019077Y-95466212D01*
X104090057Y-95489274D01*
X104191305Y-95522171D01*
X104274143Y-95535291D01*
X104370163Y-95550500D01*
X104370168Y-95550500D01*
X104551265Y-95550500D01*
X104637973Y-95536765D01*
X104730123Y-95522171D01*
X104902353Y-95466211D01*
X105063708Y-95383996D01*
X105210215Y-95277553D01*
X105338267Y-95149501D01*
X105444710Y-95002994D01*
X105526925Y-94841639D01*
X105582885Y-94669409D01*
X105597479Y-94577259D01*
X105611214Y-94490551D01*
X105611214Y-94404499D01*
X105630899Y-94337460D01*
X105683703Y-94291705D01*
X105735214Y-94280499D01*
X106428585Y-94280499D01*
X106428586Y-94280499D01*
X106488197Y-94274091D01*
X106623045Y-94223796D01*
X106738260Y-94137546D01*
X106824510Y-94022331D01*
X106874805Y-93887483D01*
X106881214Y-93827873D01*
X106881213Y-93039448D01*
X110668785Y-93039448D01*
X110668785Y-93220551D01*
X110697114Y-93399410D01*
X110753072Y-93571636D01*
X110753073Y-93571639D01*
X110835291Y-93732997D01*
X110941726Y-93879494D01*
X110941730Y-93879499D01*
X111069785Y-94007554D01*
X111069790Y-94007558D01*
X111197572Y-94100396D01*
X111216291Y-94113996D01*
X111321769Y-94167740D01*
X111377645Y-94196211D01*
X111377648Y-94196212D01*
X111462536Y-94223793D01*
X111549876Y-94252171D01*
X111632714Y-94265291D01*
X111728734Y-94280500D01*
X111814785Y-94280500D01*
X111881824Y-94300185D01*
X111927579Y-94352989D01*
X111938785Y-94404500D01*
X111938785Y-94490551D01*
X111967114Y-94669410D01*
X112023072Y-94841636D01*
X112023073Y-94841639D01*
X112105291Y-95002997D01*
X112211726Y-95149494D01*
X112211730Y-95149499D01*
X112339785Y-95277554D01*
X112339790Y-95277558D01*
X112443798Y-95353123D01*
X112486291Y-95383996D01*
X112591769Y-95437740D01*
X112647645Y-95466211D01*
X112647648Y-95466212D01*
X112718628Y-95489274D01*
X112819876Y-95522171D01*
X112902714Y-95535291D01*
X112998734Y-95550500D01*
X112998739Y-95550500D01*
X113179836Y-95550500D01*
X113266544Y-95536765D01*
X113358694Y-95522171D01*
X113530924Y-95466211D01*
X113692279Y-95383996D01*
X113838786Y-95277553D01*
X113966838Y-95149501D01*
X114073281Y-95002994D01*
X114155496Y-94841639D01*
X114211456Y-94669409D01*
X114217109Y-94633720D01*
X128082500Y-94633720D01*
X128082500Y-94826279D01*
X128120062Y-95015118D01*
X128120066Y-95015132D01*
X128193746Y-95193013D01*
X128193753Y-95193026D01*
X128300725Y-95353119D01*
X128300728Y-95353123D01*
X128436876Y-95489271D01*
X128436880Y-95489274D01*
X128596973Y-95596246D01*
X128596986Y-95596253D01*
X128745806Y-95657896D01*
X128774874Y-95669936D01*
X128963720Y-95707499D01*
X128963724Y-95707500D01*
X128963725Y-95707500D01*
X129156276Y-95707500D01*
X129156277Y-95707499D01*
X129345126Y-95669936D01*
X129523020Y-95596250D01*
X129683120Y-95489274D01*
X129819274Y-95353120D01*
X129926250Y-95193020D01*
X129999936Y-95015126D01*
X130037500Y-94826275D01*
X130037500Y-94643389D01*
X130499500Y-94643389D01*
X130499500Y-94816611D01*
X130526598Y-94987701D01*
X130579170Y-95149501D01*
X130580128Y-95152447D01*
X130619776Y-95230261D01*
X130658768Y-95306788D01*
X130760586Y-95446928D01*
X130883072Y-95569414D01*
X131023212Y-95671232D01*
X131177555Y-95749873D01*
X131342299Y-95803402D01*
X131513389Y-95830500D01*
X131513390Y-95830500D01*
X131686610Y-95830500D01*
X131686611Y-95830500D01*
X131857701Y-95803402D01*
X132022445Y-95749873D01*
X132176788Y-95671232D01*
X132316928Y-95569414D01*
X132439414Y-95446928D01*
X132541232Y-95306788D01*
X132619873Y-95152445D01*
X132673402Y-94987701D01*
X132700500Y-94816611D01*
X132700500Y-94643389D01*
X132673402Y-94472299D01*
X132619873Y-94307555D01*
X132541232Y-94153212D01*
X132439414Y-94013072D01*
X132316928Y-93890586D01*
X132176788Y-93788768D01*
X132022445Y-93710127D01*
X131857701Y-93656598D01*
X131857699Y-93656597D01*
X131857698Y-93656597D01*
X131726271Y-93635781D01*
X131686611Y-93629500D01*
X131513389Y-93629500D01*
X131473728Y-93635781D01*
X131342302Y-93656597D01*
X131177552Y-93710128D01*
X131023211Y-93788768D01*
X130969375Y-93827883D01*
X130883072Y-93890586D01*
X130883070Y-93890588D01*
X130883069Y-93890588D01*
X130760588Y-94013069D01*
X130760588Y-94013070D01*
X130760586Y-94013072D01*
X130753859Y-94022331D01*
X130658768Y-94153211D01*
X130580128Y-94307552D01*
X130526597Y-94472302D01*
X130501031Y-94633720D01*
X130499500Y-94643389D01*
X130037500Y-94643389D01*
X130037500Y-94633725D01*
X129999936Y-94444874D01*
X129955444Y-94337460D01*
X129926253Y-94266986D01*
X129926246Y-94266973D01*
X129819274Y-94106880D01*
X129819271Y-94106876D01*
X129683123Y-93970728D01*
X129683119Y-93970725D01*
X129523026Y-93863753D01*
X129523013Y-93863746D01*
X129345132Y-93790066D01*
X129345128Y-93790064D01*
X129345126Y-93790064D01*
X129345122Y-93790063D01*
X129345118Y-93790062D01*
X129156279Y-93752500D01*
X129156275Y-93752500D01*
X128963725Y-93752500D01*
X128963720Y-93752500D01*
X128774881Y-93790062D01*
X128774867Y-93790066D01*
X128596986Y-93863746D01*
X128596973Y-93863753D01*
X128436880Y-93970725D01*
X128436876Y-93970728D01*
X128300728Y-94106876D01*
X128300725Y-94106880D01*
X128193753Y-94266973D01*
X128193746Y-94266986D01*
X128120066Y-94444867D01*
X128120062Y-94444881D01*
X128082500Y-94633720D01*
X114217109Y-94633720D01*
X114239785Y-94490546D01*
X114239785Y-94398902D01*
X114240288Y-94393337D01*
X114251140Y-94365827D01*
X114259470Y-94337460D01*
X114263816Y-94333693D01*
X114265928Y-94328342D01*
X114289928Y-94311067D01*
X114312274Y-94291705D01*
X114318803Y-94290284D01*
X114322636Y-94287526D01*
X114334313Y-94286910D01*
X114363785Y-94280499D01*
X115057156Y-94280499D01*
X115057157Y-94280499D01*
X115116768Y-94274091D01*
X115251616Y-94223796D01*
X115366831Y-94137546D01*
X115453081Y-94022331D01*
X115503376Y-93887483D01*
X115509785Y-93827873D01*
X115509784Y-92432128D01*
X115503376Y-92372517D01*
X115467605Y-92276611D01*
X115453082Y-92237671D01*
X115453081Y-92237670D01*
X115453081Y-92237669D01*
X115366831Y-92122454D01*
X115366829Y-92122453D01*
X115366829Y-92122452D01*
X115341364Y-92103389D01*
X127959500Y-92103389D01*
X127959500Y-92276610D01*
X127984132Y-92432135D01*
X127986598Y-92447701D01*
X128040127Y-92612445D01*
X128118768Y-92766788D01*
X128220586Y-92906928D01*
X128343072Y-93029414D01*
X128483212Y-93131232D01*
X128637555Y-93209873D01*
X128802299Y-93263402D01*
X128973389Y-93290500D01*
X128973390Y-93290500D01*
X129146610Y-93290500D01*
X129146611Y-93290500D01*
X129317701Y-93263402D01*
X129482445Y-93209873D01*
X129636788Y-93131232D01*
X129776928Y-93029414D01*
X129899414Y-92906928D01*
X130001232Y-92766788D01*
X130079873Y-92612445D01*
X130133402Y-92447701D01*
X130160500Y-92276611D01*
X130160500Y-92103389D01*
X130499500Y-92103389D01*
X130499500Y-92276610D01*
X130524132Y-92432135D01*
X130526598Y-92447701D01*
X130580127Y-92612445D01*
X130658768Y-92766788D01*
X130760586Y-92906928D01*
X130883072Y-93029414D01*
X131023212Y-93131232D01*
X131177555Y-93209873D01*
X131342299Y-93263402D01*
X131513389Y-93290500D01*
X131513390Y-93290500D01*
X131686610Y-93290500D01*
X131686611Y-93290500D01*
X131857701Y-93263402D01*
X132022445Y-93209873D01*
X132176788Y-93131232D01*
X132316928Y-93029414D01*
X132439414Y-92906928D01*
X132541232Y-92766788D01*
X132619873Y-92612445D01*
X132673402Y-92447701D01*
X132700500Y-92276611D01*
X132700500Y-92103389D01*
X132673402Y-91932299D01*
X132619873Y-91767555D01*
X132541232Y-91613212D01*
X132439414Y-91473072D01*
X132316928Y-91350586D01*
X132176788Y-91248768D01*
X132022445Y-91170127D01*
X131857701Y-91116598D01*
X131857699Y-91116597D01*
X131857698Y-91116597D01*
X131726271Y-91095781D01*
X131686611Y-91089500D01*
X131513389Y-91089500D01*
X131473728Y-91095781D01*
X131342302Y-91116597D01*
X131177552Y-91170128D01*
X131023211Y-91248768D01*
X130943256Y-91306859D01*
X130883072Y-91350586D01*
X130883070Y-91350588D01*
X130883069Y-91350588D01*
X130760588Y-91473069D01*
X130760588Y-91473070D01*
X130760586Y-91473072D01*
X130716859Y-91533256D01*
X130658768Y-91613211D01*
X130580128Y-91767552D01*
X130526597Y-91932302D01*
X130499500Y-92103389D01*
X130160500Y-92103389D01*
X130133402Y-91932299D01*
X130079873Y-91767555D01*
X130001232Y-91613212D01*
X129899414Y-91473072D01*
X129776928Y-91350586D01*
X129636788Y-91248768D01*
X129482445Y-91170127D01*
X129317701Y-91116598D01*
X129317699Y-91116597D01*
X129317698Y-91116597D01*
X129186271Y-91095781D01*
X129146611Y-91089500D01*
X128973389Y-91089500D01*
X128933728Y-91095781D01*
X128802302Y-91116597D01*
X128637552Y-91170128D01*
X128483211Y-91248768D01*
X128403256Y-91306859D01*
X128343072Y-91350586D01*
X128343070Y-91350588D01*
X128343069Y-91350588D01*
X128220588Y-91473069D01*
X128220588Y-91473070D01*
X128220586Y-91473072D01*
X128176859Y-91533256D01*
X128118768Y-91613211D01*
X128040128Y-91767552D01*
X127986597Y-91932302D01*
X127959500Y-92103389D01*
X115341364Y-92103389D01*
X115251620Y-92036206D01*
X115251613Y-92036202D01*
X115116767Y-91985908D01*
X115116768Y-91985908D01*
X115057168Y-91979501D01*
X115057166Y-91979500D01*
X115057158Y-91979500D01*
X115057149Y-91979500D01*
X113661414Y-91979500D01*
X113661408Y-91979501D01*
X113601801Y-91985908D01*
X113466956Y-92036202D01*
X113466949Y-92036206D01*
X113351740Y-92122452D01*
X113351737Y-92122455D01*
X113265491Y-92237664D01*
X113265487Y-92237671D01*
X113215193Y-92372517D01*
X113208786Y-92432116D01*
X113208786Y-92432123D01*
X113208785Y-92432135D01*
X113208785Y-92972868D01*
X113189100Y-93039907D01*
X113136296Y-93085662D01*
X113067138Y-93095606D01*
X113003582Y-93066581D01*
X112965808Y-93007803D01*
X112962312Y-92992266D01*
X112948795Y-92906928D01*
X112941456Y-92860591D01*
X112885496Y-92688361D01*
X112885496Y-92688360D01*
X112857025Y-92632484D01*
X112803281Y-92527006D01*
X112734354Y-92432135D01*
X112696843Y-92380505D01*
X112696839Y-92380500D01*
X112568784Y-92252445D01*
X112568779Y-92252441D01*
X112422282Y-92146006D01*
X112422281Y-92146005D01*
X112422279Y-92146004D01*
X112338643Y-92103389D01*
X112260924Y-92063788D01*
X112260921Y-92063787D01*
X112088695Y-92007829D01*
X111909836Y-91979500D01*
X111909831Y-91979500D01*
X111728739Y-91979500D01*
X111728734Y-91979500D01*
X111549874Y-92007829D01*
X111377648Y-92063787D01*
X111377645Y-92063788D01*
X111216287Y-92146006D01*
X111069790Y-92252441D01*
X111069785Y-92252445D01*
X110941730Y-92380500D01*
X110941726Y-92380505D01*
X110835291Y-92527002D01*
X110753073Y-92688360D01*
X110753072Y-92688363D01*
X110697114Y-92860589D01*
X110668785Y-93039448D01*
X106881213Y-93039448D01*
X106881213Y-92432128D01*
X106874805Y-92372517D01*
X106839034Y-92276611D01*
X106824511Y-92237671D01*
X106824507Y-92237664D01*
X106738261Y-92122455D01*
X106738258Y-92122452D01*
X106623049Y-92036206D01*
X106623042Y-92036202D01*
X106488196Y-91985908D01*
X106488197Y-91985908D01*
X106428597Y-91979501D01*
X106428595Y-91979500D01*
X106428587Y-91979500D01*
X106428578Y-91979500D01*
X105032843Y-91979500D01*
X105032837Y-91979501D01*
X104973230Y-91985908D01*
X104838385Y-92036202D01*
X104838378Y-92036206D01*
X104723169Y-92122452D01*
X104723166Y-92122455D01*
X104636920Y-92237664D01*
X104636916Y-92237671D01*
X104586622Y-92372517D01*
X104580215Y-92432116D01*
X104580215Y-92432123D01*
X104580214Y-92432135D01*
X104580214Y-92972868D01*
X104560529Y-93039907D01*
X104507725Y-93085662D01*
X104438567Y-93095606D01*
X104375011Y-93066581D01*
X104337237Y-93007803D01*
X104333741Y-92992266D01*
X104320224Y-92906928D01*
X104312885Y-92860591D01*
X104256925Y-92688361D01*
X104256925Y-92688360D01*
X104228454Y-92632484D01*
X104174710Y-92527006D01*
X104105783Y-92432135D01*
X104068272Y-92380505D01*
X104068268Y-92380500D01*
X103940213Y-92252445D01*
X103940208Y-92252441D01*
X103793711Y-92146006D01*
X103793710Y-92146005D01*
X103793708Y-92146004D01*
X103710072Y-92103389D01*
X103632353Y-92063788D01*
X103632350Y-92063787D01*
X103460124Y-92007829D01*
X103281265Y-91979500D01*
X103281260Y-91979500D01*
X103100168Y-91979500D01*
X103100163Y-91979500D01*
X102921303Y-92007829D01*
X102749077Y-92063787D01*
X102749074Y-92063788D01*
X102587716Y-92146006D01*
X102441219Y-92252441D01*
X102441214Y-92252445D01*
X102313159Y-92380500D01*
X102313155Y-92380505D01*
X102206720Y-92527002D01*
X102124502Y-92688360D01*
X102124501Y-92688363D01*
X102068543Y-92860589D01*
X102040214Y-93039448D01*
X98252641Y-93039448D01*
X98252641Y-92432128D01*
X98246233Y-92372517D01*
X98210462Y-92276611D01*
X98195939Y-92237671D01*
X98195935Y-92237664D01*
X98109689Y-92122455D01*
X98109686Y-92122452D01*
X97994477Y-92036206D01*
X97994470Y-92036202D01*
X97859624Y-91985908D01*
X97859625Y-91985908D01*
X97800025Y-91979501D01*
X97800023Y-91979500D01*
X97800015Y-91979500D01*
X97800006Y-91979500D01*
X96404271Y-91979500D01*
X96404265Y-91979501D01*
X96344658Y-91985908D01*
X96209813Y-92036202D01*
X96209806Y-92036206D01*
X96094597Y-92122452D01*
X96094594Y-92122455D01*
X96008348Y-92237664D01*
X96008344Y-92237671D01*
X95958050Y-92372517D01*
X95951643Y-92432116D01*
X95951643Y-92432123D01*
X95951642Y-92432135D01*
X95951642Y-92972868D01*
X95931957Y-93039907D01*
X95879153Y-93085662D01*
X95809995Y-93095606D01*
X95746439Y-93066581D01*
X95708665Y-93007803D01*
X95705169Y-92992266D01*
X95691652Y-92906928D01*
X95684313Y-92860591D01*
X95628353Y-92688361D01*
X95628353Y-92688360D01*
X95599882Y-92632484D01*
X95546138Y-92527006D01*
X95477211Y-92432135D01*
X95439700Y-92380505D01*
X95439696Y-92380500D01*
X95311641Y-92252445D01*
X95311636Y-92252441D01*
X95165139Y-92146006D01*
X95165138Y-92146005D01*
X95165136Y-92146004D01*
X95081500Y-92103389D01*
X95003781Y-92063788D01*
X95003778Y-92063787D01*
X94831552Y-92007829D01*
X94652693Y-91979500D01*
X94652688Y-91979500D01*
X94471596Y-91979500D01*
X94471591Y-91979500D01*
X94292731Y-92007829D01*
X94120505Y-92063787D01*
X94120502Y-92063788D01*
X93959144Y-92146006D01*
X93812647Y-92252441D01*
X93812642Y-92252445D01*
X93684587Y-92380500D01*
X93684583Y-92380505D01*
X93578148Y-92527002D01*
X93495930Y-92688360D01*
X93495929Y-92688363D01*
X93439971Y-92860589D01*
X93411642Y-93039448D01*
X89624070Y-93039448D01*
X89624070Y-92432128D01*
X89617662Y-92372517D01*
X89581891Y-92276611D01*
X89567368Y-92237671D01*
X89567364Y-92237664D01*
X89481118Y-92122455D01*
X89481115Y-92122452D01*
X89365906Y-92036206D01*
X89365899Y-92036202D01*
X89231053Y-91985908D01*
X89231054Y-91985908D01*
X89171454Y-91979501D01*
X89171452Y-91979500D01*
X89171444Y-91979500D01*
X89171435Y-91979500D01*
X87775700Y-91979500D01*
X87775694Y-91979501D01*
X87716087Y-91985908D01*
X87581242Y-92036202D01*
X87581235Y-92036206D01*
X87466026Y-92122452D01*
X87466023Y-92122455D01*
X87379777Y-92237664D01*
X87379773Y-92237671D01*
X87329479Y-92372517D01*
X87323072Y-92432116D01*
X87323072Y-92432123D01*
X87323071Y-92432135D01*
X87323071Y-92972868D01*
X87303386Y-93039907D01*
X87250582Y-93085662D01*
X87181424Y-93095606D01*
X87117868Y-93066581D01*
X87080094Y-93007803D01*
X87076598Y-92992266D01*
X87063081Y-92906928D01*
X87055742Y-92860591D01*
X86999782Y-92688361D01*
X86999782Y-92688360D01*
X86971311Y-92632484D01*
X86917567Y-92527006D01*
X86848640Y-92432135D01*
X86811129Y-92380505D01*
X86811125Y-92380500D01*
X86683070Y-92252445D01*
X86683065Y-92252441D01*
X86536568Y-92146006D01*
X86536567Y-92146005D01*
X86536565Y-92146004D01*
X86452929Y-92103389D01*
X86375210Y-92063788D01*
X86375207Y-92063787D01*
X86202981Y-92007829D01*
X86024122Y-91979500D01*
X86024117Y-91979500D01*
X85843025Y-91979500D01*
X85843020Y-91979500D01*
X85664160Y-92007829D01*
X85491934Y-92063787D01*
X85491931Y-92063788D01*
X85330573Y-92146006D01*
X85184076Y-92252441D01*
X85184071Y-92252445D01*
X85056016Y-92380500D01*
X85056012Y-92380505D01*
X84949577Y-92527002D01*
X84867359Y-92688360D01*
X84867358Y-92688363D01*
X84811400Y-92860589D01*
X84783071Y-93039448D01*
X76482881Y-93039448D01*
X76482881Y-89521153D01*
X89399500Y-89521153D01*
X89399500Y-89678846D01*
X89430261Y-89833489D01*
X89430264Y-89833501D01*
X89490602Y-89979172D01*
X89490609Y-89979185D01*
X89578210Y-90110288D01*
X89578213Y-90110292D01*
X89689707Y-90221786D01*
X89689711Y-90221789D01*
X89820814Y-90309390D01*
X89820827Y-90309397D01*
X89959721Y-90366928D01*
X89966503Y-90369737D01*
X90121153Y-90400499D01*
X90121156Y-90400500D01*
X90121158Y-90400500D01*
X90278844Y-90400500D01*
X90278845Y-90400499D01*
X90433497Y-90369737D01*
X90579179Y-90309394D01*
X90710289Y-90221789D01*
X90821789Y-90110289D01*
X90909394Y-89979179D01*
X90969737Y-89833497D01*
X91000500Y-89678842D01*
X91000500Y-89521158D01*
X91000500Y-89521155D01*
X91000499Y-89521153D01*
X98199500Y-89521153D01*
X98199500Y-89678846D01*
X98230261Y-89833489D01*
X98230264Y-89833501D01*
X98290602Y-89979172D01*
X98290609Y-89979185D01*
X98378210Y-90110288D01*
X98378213Y-90110292D01*
X98489707Y-90221786D01*
X98489711Y-90221789D01*
X98620814Y-90309390D01*
X98620827Y-90309397D01*
X98759721Y-90366928D01*
X98766503Y-90369737D01*
X98921153Y-90400499D01*
X98921156Y-90400500D01*
X98921158Y-90400500D01*
X99078844Y-90400500D01*
X99078845Y-90400499D01*
X99233497Y-90369737D01*
X99379179Y-90309394D01*
X99510289Y-90221789D01*
X99621789Y-90110289D01*
X99709394Y-89979179D01*
X99769737Y-89833497D01*
X99800500Y-89678842D01*
X99800500Y-89521158D01*
X99800500Y-89521155D01*
X99800499Y-89521153D01*
X106799500Y-89521153D01*
X106799500Y-89678846D01*
X106830261Y-89833489D01*
X106830264Y-89833501D01*
X106890602Y-89979172D01*
X106890609Y-89979185D01*
X106978210Y-90110288D01*
X106978213Y-90110292D01*
X107089707Y-90221786D01*
X107089711Y-90221789D01*
X107220814Y-90309390D01*
X107220827Y-90309397D01*
X107359721Y-90366928D01*
X107366503Y-90369737D01*
X107521153Y-90400499D01*
X107521156Y-90400500D01*
X107521158Y-90400500D01*
X107678844Y-90400500D01*
X107678845Y-90400499D01*
X107833497Y-90369737D01*
X107979179Y-90309394D01*
X108110289Y-90221789D01*
X108221789Y-90110289D01*
X108309394Y-89979179D01*
X108369737Y-89833497D01*
X108400500Y-89678842D01*
X108400500Y-89521158D01*
X108400500Y-89521155D01*
X108400499Y-89521153D01*
X115399500Y-89521153D01*
X115399500Y-89678846D01*
X115430261Y-89833489D01*
X115430264Y-89833501D01*
X115490602Y-89979172D01*
X115490609Y-89979185D01*
X115578210Y-90110288D01*
X115578213Y-90110292D01*
X115689707Y-90221786D01*
X115689711Y-90221789D01*
X115820814Y-90309390D01*
X115820827Y-90309397D01*
X115959721Y-90366928D01*
X115966503Y-90369737D01*
X116121153Y-90400499D01*
X116121156Y-90400500D01*
X116121158Y-90400500D01*
X116278844Y-90400500D01*
X116278845Y-90400499D01*
X116433497Y-90369737D01*
X116579179Y-90309394D01*
X116710289Y-90221789D01*
X116821789Y-90110289D01*
X116909394Y-89979179D01*
X116969737Y-89833497D01*
X117000500Y-89678842D01*
X117000500Y-89521158D01*
X117000500Y-89521155D01*
X117000499Y-89521153D01*
X124199500Y-89521153D01*
X124199500Y-89678846D01*
X124230261Y-89833489D01*
X124230264Y-89833501D01*
X124290602Y-89979172D01*
X124290609Y-89979185D01*
X124378210Y-90110288D01*
X124378213Y-90110292D01*
X124489707Y-90221786D01*
X124489711Y-90221789D01*
X124620814Y-90309390D01*
X124620827Y-90309397D01*
X124759721Y-90366928D01*
X124766503Y-90369737D01*
X124921153Y-90400499D01*
X124921156Y-90400500D01*
X124921158Y-90400500D01*
X125078844Y-90400500D01*
X125078845Y-90400499D01*
X125233497Y-90369737D01*
X125379179Y-90309394D01*
X125510289Y-90221789D01*
X125621789Y-90110289D01*
X125709394Y-89979179D01*
X125769737Y-89833497D01*
X125800500Y-89678842D01*
X125800500Y-89563389D01*
X127959500Y-89563389D01*
X127959500Y-89736611D01*
X127986598Y-89907701D01*
X128040127Y-90072445D01*
X128118768Y-90226788D01*
X128220586Y-90366928D01*
X128343072Y-90489414D01*
X128483212Y-90591232D01*
X128637555Y-90669873D01*
X128802299Y-90723402D01*
X128973389Y-90750500D01*
X128973390Y-90750500D01*
X129146610Y-90750500D01*
X129146611Y-90750500D01*
X129317701Y-90723402D01*
X129482445Y-90669873D01*
X129636788Y-90591232D01*
X129776928Y-90489414D01*
X129899414Y-90366928D01*
X130001232Y-90226788D01*
X130079873Y-90072445D01*
X130133402Y-89907701D01*
X130160500Y-89736611D01*
X130160500Y-89563389D01*
X130499500Y-89563389D01*
X130499500Y-89736611D01*
X130526598Y-89907701D01*
X130580127Y-90072445D01*
X130658768Y-90226788D01*
X130760586Y-90366928D01*
X130883072Y-90489414D01*
X131023212Y-90591232D01*
X131177555Y-90669873D01*
X131342299Y-90723402D01*
X131513389Y-90750500D01*
X131513390Y-90750500D01*
X131686610Y-90750500D01*
X131686611Y-90750500D01*
X131857701Y-90723402D01*
X132022445Y-90669873D01*
X132176788Y-90591232D01*
X132316928Y-90489414D01*
X132439414Y-90366928D01*
X132541232Y-90226788D01*
X132619873Y-90072445D01*
X132673402Y-89907701D01*
X132700500Y-89736611D01*
X132700500Y-89563389D01*
X132673402Y-89392299D01*
X132619873Y-89227555D01*
X132541232Y-89073212D01*
X132439414Y-88933072D01*
X132316928Y-88810586D01*
X132176788Y-88708768D01*
X132022445Y-88630127D01*
X131857701Y-88576598D01*
X131857699Y-88576597D01*
X131857698Y-88576597D01*
X131726271Y-88555781D01*
X131686611Y-88549500D01*
X131513389Y-88549500D01*
X131473728Y-88555781D01*
X131342302Y-88576597D01*
X131177552Y-88630128D01*
X131023211Y-88708768D01*
X130943256Y-88766859D01*
X130883072Y-88810586D01*
X130883070Y-88810588D01*
X130883069Y-88810588D01*
X130760588Y-88933069D01*
X130760588Y-88933070D01*
X130760586Y-88933072D01*
X130727789Y-88978213D01*
X130658768Y-89073211D01*
X130580128Y-89227552D01*
X130526597Y-89392302D01*
X130506189Y-89521155D01*
X130499500Y-89563389D01*
X130160500Y-89563389D01*
X130133402Y-89392299D01*
X130079873Y-89227555D01*
X130001232Y-89073212D01*
X129899414Y-88933072D01*
X129776928Y-88810586D01*
X129636788Y-88708768D01*
X129482445Y-88630127D01*
X129317701Y-88576598D01*
X129317699Y-88576597D01*
X129317698Y-88576597D01*
X129186271Y-88555781D01*
X129146611Y-88549500D01*
X128973389Y-88549500D01*
X128933728Y-88555781D01*
X128802302Y-88576597D01*
X128637552Y-88630128D01*
X128483211Y-88708768D01*
X128403256Y-88766859D01*
X128343072Y-88810586D01*
X128343070Y-88810588D01*
X128343069Y-88810588D01*
X128220588Y-88933069D01*
X128220588Y-88933070D01*
X128220586Y-88933072D01*
X128187789Y-88978213D01*
X128118768Y-89073211D01*
X128040128Y-89227552D01*
X127986597Y-89392302D01*
X127966189Y-89521155D01*
X127959500Y-89563389D01*
X125800500Y-89563389D01*
X125800500Y-89521158D01*
X125800500Y-89521155D01*
X125800499Y-89521153D01*
X125775097Y-89393449D01*
X125769737Y-89366503D01*
X125742398Y-89300500D01*
X125709397Y-89220827D01*
X125709390Y-89220814D01*
X125621789Y-89089711D01*
X125621786Y-89089707D01*
X125510292Y-88978213D01*
X125510288Y-88978210D01*
X125379185Y-88890609D01*
X125379172Y-88890602D01*
X125233501Y-88830264D01*
X125233489Y-88830261D01*
X125078845Y-88799500D01*
X125078842Y-88799500D01*
X124921158Y-88799500D01*
X124921155Y-88799500D01*
X124766510Y-88830261D01*
X124766498Y-88830264D01*
X124620827Y-88890602D01*
X124620814Y-88890609D01*
X124489711Y-88978210D01*
X124489707Y-88978213D01*
X124378213Y-89089707D01*
X124378210Y-89089711D01*
X124290609Y-89220814D01*
X124290602Y-89220827D01*
X124230264Y-89366498D01*
X124230261Y-89366510D01*
X124199500Y-89521153D01*
X117000499Y-89521153D01*
X116975097Y-89393449D01*
X116969737Y-89366503D01*
X116942398Y-89300500D01*
X116909397Y-89220827D01*
X116909390Y-89220814D01*
X116821789Y-89089711D01*
X116821786Y-89089707D01*
X116710292Y-88978213D01*
X116710288Y-88978210D01*
X116579185Y-88890609D01*
X116579172Y-88890602D01*
X116433501Y-88830264D01*
X116433489Y-88830261D01*
X116278845Y-88799500D01*
X116278842Y-88799500D01*
X116121158Y-88799500D01*
X116121155Y-88799500D01*
X115966510Y-88830261D01*
X115966498Y-88830264D01*
X115820827Y-88890602D01*
X115820814Y-88890609D01*
X115689711Y-88978210D01*
X115689707Y-88978213D01*
X115578213Y-89089707D01*
X115578210Y-89089711D01*
X115490609Y-89220814D01*
X115490602Y-89220827D01*
X115430264Y-89366498D01*
X115430261Y-89366510D01*
X115399500Y-89521153D01*
X108400499Y-89521153D01*
X108375097Y-89393449D01*
X108369737Y-89366503D01*
X108342398Y-89300500D01*
X108309397Y-89220827D01*
X108309390Y-89220814D01*
X108221789Y-89089711D01*
X108221786Y-89089707D01*
X108110292Y-88978213D01*
X108110288Y-88978210D01*
X107979185Y-88890609D01*
X107979172Y-88890602D01*
X107833501Y-88830264D01*
X107833489Y-88830261D01*
X107678845Y-88799500D01*
X107678842Y-88799500D01*
X107521158Y-88799500D01*
X107521155Y-88799500D01*
X107366510Y-88830261D01*
X107366498Y-88830264D01*
X107220827Y-88890602D01*
X107220814Y-88890609D01*
X107089711Y-88978210D01*
X107089707Y-88978213D01*
X106978213Y-89089707D01*
X106978210Y-89089711D01*
X106890609Y-89220814D01*
X106890602Y-89220827D01*
X106830264Y-89366498D01*
X106830261Y-89366510D01*
X106799500Y-89521153D01*
X99800499Y-89521153D01*
X99775097Y-89393449D01*
X99769737Y-89366503D01*
X99742398Y-89300500D01*
X99709397Y-89220827D01*
X99709390Y-89220814D01*
X99621789Y-89089711D01*
X99621786Y-89089707D01*
X99510292Y-88978213D01*
X99510288Y-88978210D01*
X99379185Y-88890609D01*
X99379172Y-88890602D01*
X99233501Y-88830264D01*
X99233489Y-88830261D01*
X99078845Y-88799500D01*
X99078842Y-88799500D01*
X98921158Y-88799500D01*
X98921155Y-88799500D01*
X98766510Y-88830261D01*
X98766498Y-88830264D01*
X98620827Y-88890602D01*
X98620814Y-88890609D01*
X98489711Y-88978210D01*
X98489707Y-88978213D01*
X98378213Y-89089707D01*
X98378210Y-89089711D01*
X98290609Y-89220814D01*
X98290602Y-89220827D01*
X98230264Y-89366498D01*
X98230261Y-89366510D01*
X98199500Y-89521153D01*
X91000499Y-89521153D01*
X90975097Y-89393449D01*
X90969737Y-89366503D01*
X90942398Y-89300500D01*
X90909397Y-89220827D01*
X90909390Y-89220814D01*
X90821789Y-89089711D01*
X90821786Y-89089707D01*
X90710292Y-88978213D01*
X90710288Y-88978210D01*
X90579185Y-88890609D01*
X90579172Y-88890602D01*
X90433501Y-88830264D01*
X90433489Y-88830261D01*
X90278845Y-88799500D01*
X90278842Y-88799500D01*
X90121158Y-88799500D01*
X90121155Y-88799500D01*
X89966510Y-88830261D01*
X89966498Y-88830264D01*
X89820827Y-88890602D01*
X89820814Y-88890609D01*
X89689711Y-88978210D01*
X89689707Y-88978213D01*
X89578213Y-89089707D01*
X89578210Y-89089711D01*
X89490609Y-89220814D01*
X89490602Y-89220827D01*
X89430264Y-89366498D01*
X89430261Y-89366510D01*
X89399500Y-89521153D01*
X76482881Y-89521153D01*
X76482881Y-88421153D01*
X83199500Y-88421153D01*
X83199500Y-88578846D01*
X83230261Y-88733489D01*
X83230264Y-88733501D01*
X83290602Y-88879172D01*
X83290609Y-88879185D01*
X83378210Y-89010288D01*
X83378213Y-89010292D01*
X83489707Y-89121786D01*
X83489711Y-89121789D01*
X83620814Y-89209390D01*
X83620827Y-89209397D01*
X83766498Y-89269735D01*
X83766503Y-89269737D01*
X83921153Y-89300499D01*
X83921156Y-89300500D01*
X83921158Y-89300500D01*
X84078844Y-89300500D01*
X84078845Y-89300499D01*
X84233497Y-89269737D01*
X84351592Y-89220821D01*
X84379172Y-89209397D01*
X84379172Y-89209396D01*
X84379179Y-89209394D01*
X84510289Y-89121789D01*
X84621789Y-89010289D01*
X84709394Y-88879179D01*
X84769737Y-88733497D01*
X84800500Y-88578842D01*
X84800500Y-88521153D01*
X87599500Y-88521153D01*
X87599500Y-88678846D01*
X87630261Y-88833489D01*
X87630264Y-88833501D01*
X87690602Y-88979172D01*
X87690609Y-88979185D01*
X87778210Y-89110288D01*
X87778213Y-89110292D01*
X87889707Y-89221786D01*
X87889711Y-89221789D01*
X88020814Y-89309390D01*
X88020827Y-89309397D01*
X88158683Y-89366498D01*
X88166503Y-89369737D01*
X88321153Y-89400499D01*
X88321156Y-89400500D01*
X88321158Y-89400500D01*
X88478844Y-89400500D01*
X88478845Y-89400499D01*
X88489179Y-89398443D01*
X88514287Y-89393450D01*
X88514292Y-89393449D01*
X88599800Y-89376439D01*
X88633497Y-89369737D01*
X88779179Y-89309394D01*
X88910289Y-89221789D01*
X89021789Y-89110289D01*
X89109394Y-88979179D01*
X89169737Y-88833497D01*
X89200500Y-88678842D01*
X89200500Y-88521158D01*
X89200500Y-88521155D01*
X89200499Y-88521153D01*
X96199500Y-88521153D01*
X96199500Y-88678846D01*
X96230261Y-88833489D01*
X96230264Y-88833501D01*
X96290602Y-88979172D01*
X96290609Y-88979185D01*
X96378210Y-89110288D01*
X96378213Y-89110292D01*
X96489707Y-89221786D01*
X96489711Y-89221789D01*
X96620814Y-89309390D01*
X96620827Y-89309397D01*
X96758683Y-89366498D01*
X96766503Y-89369737D01*
X96921153Y-89400499D01*
X96921156Y-89400500D01*
X96921158Y-89400500D01*
X97078844Y-89400500D01*
X97078845Y-89400499D01*
X97089179Y-89398443D01*
X97114287Y-89393450D01*
X97114292Y-89393449D01*
X97199800Y-89376439D01*
X97233497Y-89369737D01*
X97379179Y-89309394D01*
X97510289Y-89221789D01*
X97621789Y-89110289D01*
X97709394Y-88979179D01*
X97769737Y-88833497D01*
X97800500Y-88678842D01*
X97800500Y-88521158D01*
X97800500Y-88521155D01*
X97800499Y-88521153D01*
X104799500Y-88521153D01*
X104799500Y-88678846D01*
X104830261Y-88833489D01*
X104830264Y-88833501D01*
X104890602Y-88979172D01*
X104890609Y-88979185D01*
X104978210Y-89110288D01*
X104978213Y-89110292D01*
X105089707Y-89221786D01*
X105089711Y-89221789D01*
X105220814Y-89309390D01*
X105220827Y-89309397D01*
X105358683Y-89366498D01*
X105366503Y-89369737D01*
X105521153Y-89400499D01*
X105521156Y-89400500D01*
X105521158Y-89400500D01*
X105678844Y-89400500D01*
X105678845Y-89400499D01*
X105689179Y-89398443D01*
X105714287Y-89393450D01*
X105714292Y-89393449D01*
X105799800Y-89376439D01*
X105833497Y-89369737D01*
X105979179Y-89309394D01*
X106110289Y-89221789D01*
X106221789Y-89110289D01*
X106309394Y-88979179D01*
X106369737Y-88833497D01*
X106400500Y-88678842D01*
X106400500Y-88521158D01*
X106400500Y-88521155D01*
X106400499Y-88521153D01*
X113399500Y-88521153D01*
X113399500Y-88678846D01*
X113430261Y-88833489D01*
X113430264Y-88833501D01*
X113490602Y-88979172D01*
X113490609Y-88979185D01*
X113578210Y-89110288D01*
X113578213Y-89110292D01*
X113689707Y-89221786D01*
X113689711Y-89221789D01*
X113820814Y-89309390D01*
X113820827Y-89309397D01*
X113958683Y-89366498D01*
X113966503Y-89369737D01*
X114121153Y-89400499D01*
X114121156Y-89400500D01*
X114121158Y-89400500D01*
X114278844Y-89400500D01*
X114278845Y-89400499D01*
X114289179Y-89398443D01*
X114314287Y-89393450D01*
X114314292Y-89393449D01*
X114399800Y-89376439D01*
X114433497Y-89369737D01*
X114579179Y-89309394D01*
X114710289Y-89221789D01*
X114821789Y-89110289D01*
X114909394Y-88979179D01*
X114969737Y-88833497D01*
X115000500Y-88678842D01*
X115000500Y-88521158D01*
X115000500Y-88521155D01*
X115000499Y-88521153D01*
X114969737Y-88366503D01*
X114928314Y-88266498D01*
X114909397Y-88220827D01*
X114909390Y-88220814D01*
X114821789Y-88089711D01*
X114821786Y-88089707D01*
X114710292Y-87978213D01*
X114710288Y-87978210D01*
X114579185Y-87890609D01*
X114579172Y-87890602D01*
X114433501Y-87830264D01*
X114433489Y-87830261D01*
X114278845Y-87799500D01*
X114278842Y-87799500D01*
X114121158Y-87799500D01*
X114121155Y-87799500D01*
X113966510Y-87830261D01*
X113966498Y-87830264D01*
X113820827Y-87890602D01*
X113820814Y-87890609D01*
X113689711Y-87978210D01*
X113689707Y-87978213D01*
X113578213Y-88089707D01*
X113578210Y-88089711D01*
X113490609Y-88220814D01*
X113490602Y-88220827D01*
X113430264Y-88366498D01*
X113430261Y-88366510D01*
X113399500Y-88521153D01*
X106400499Y-88521153D01*
X106369737Y-88366503D01*
X106328314Y-88266498D01*
X106309397Y-88220827D01*
X106309390Y-88220814D01*
X106221789Y-88089711D01*
X106221786Y-88089707D01*
X106110292Y-87978213D01*
X106110288Y-87978210D01*
X105979185Y-87890609D01*
X105979172Y-87890602D01*
X105833501Y-87830264D01*
X105833489Y-87830261D01*
X105678845Y-87799500D01*
X105678842Y-87799500D01*
X105521158Y-87799500D01*
X105521155Y-87799500D01*
X105366510Y-87830261D01*
X105366498Y-87830264D01*
X105220827Y-87890602D01*
X105220814Y-87890609D01*
X105089711Y-87978210D01*
X105089707Y-87978213D01*
X104978213Y-88089707D01*
X104978210Y-88089711D01*
X104890609Y-88220814D01*
X104890602Y-88220827D01*
X104830264Y-88366498D01*
X104830261Y-88366510D01*
X104799500Y-88521153D01*
X97800499Y-88521153D01*
X97769737Y-88366503D01*
X97728314Y-88266498D01*
X97709397Y-88220827D01*
X97709390Y-88220814D01*
X97621789Y-88089711D01*
X97621786Y-88089707D01*
X97510292Y-87978213D01*
X97510288Y-87978210D01*
X97379185Y-87890609D01*
X97379172Y-87890602D01*
X97233501Y-87830264D01*
X97233489Y-87830261D01*
X97078845Y-87799500D01*
X97078842Y-87799500D01*
X96921158Y-87799500D01*
X96921155Y-87799500D01*
X96766510Y-87830261D01*
X96766498Y-87830264D01*
X96620827Y-87890602D01*
X96620814Y-87890609D01*
X96489711Y-87978210D01*
X96489707Y-87978213D01*
X96378213Y-88089707D01*
X96378210Y-88089711D01*
X96290609Y-88220814D01*
X96290602Y-88220827D01*
X96230264Y-88366498D01*
X96230261Y-88366510D01*
X96199500Y-88521153D01*
X89200499Y-88521153D01*
X89169737Y-88366503D01*
X89128314Y-88266498D01*
X89109397Y-88220827D01*
X89109390Y-88220814D01*
X89021789Y-88089711D01*
X89021786Y-88089707D01*
X88910292Y-87978213D01*
X88910288Y-87978210D01*
X88779185Y-87890609D01*
X88779172Y-87890602D01*
X88633501Y-87830264D01*
X88633489Y-87830261D01*
X88478845Y-87799500D01*
X88478842Y-87799500D01*
X88321158Y-87799500D01*
X88321155Y-87799500D01*
X88166510Y-87830261D01*
X88166498Y-87830264D01*
X88020827Y-87890602D01*
X88020814Y-87890609D01*
X87889711Y-87978210D01*
X87889707Y-87978213D01*
X87778213Y-88089707D01*
X87778210Y-88089711D01*
X87690609Y-88220814D01*
X87690602Y-88220827D01*
X87630264Y-88366498D01*
X87630261Y-88366510D01*
X87599500Y-88521153D01*
X84800500Y-88521153D01*
X84800500Y-88421158D01*
X84800500Y-88421155D01*
X84800499Y-88421153D01*
X84769738Y-88266510D01*
X84769737Y-88266503D01*
X84746540Y-88210499D01*
X84709397Y-88120827D01*
X84709390Y-88120814D01*
X84621789Y-87989711D01*
X84621786Y-87989707D01*
X84510292Y-87878213D01*
X84510288Y-87878210D01*
X84379185Y-87790609D01*
X84379172Y-87790602D01*
X84233501Y-87730264D01*
X84233489Y-87730261D01*
X84078845Y-87699500D01*
X84078842Y-87699500D01*
X83921158Y-87699500D01*
X83921155Y-87699500D01*
X83766510Y-87730261D01*
X83766498Y-87730264D01*
X83620827Y-87790602D01*
X83620814Y-87790609D01*
X83489711Y-87878210D01*
X83489707Y-87878213D01*
X83378213Y-87989707D01*
X83378210Y-87989711D01*
X83290609Y-88120814D01*
X83290602Y-88120827D01*
X83230264Y-88266498D01*
X83230261Y-88266510D01*
X83199500Y-88421153D01*
X76482881Y-88421153D01*
X76482881Y-86371153D01*
X85449500Y-86371153D01*
X85449500Y-86528846D01*
X85480261Y-86683489D01*
X85480264Y-86683501D01*
X85540602Y-86829172D01*
X85540609Y-86829185D01*
X85628210Y-86960288D01*
X85628213Y-86960292D01*
X85739707Y-87071786D01*
X85739711Y-87071789D01*
X85870814Y-87159390D01*
X85870827Y-87159397D01*
X86016498Y-87219735D01*
X86016503Y-87219737D01*
X86171153Y-87250499D01*
X86171156Y-87250500D01*
X86171158Y-87250500D01*
X86328844Y-87250500D01*
X86328845Y-87250499D01*
X86483497Y-87219737D01*
X86629179Y-87159394D01*
X86760289Y-87071789D01*
X86871789Y-86960289D01*
X86959394Y-86829179D01*
X87019737Y-86683497D01*
X87050500Y-86528842D01*
X87050500Y-86421153D01*
X94299500Y-86421153D01*
X94299500Y-86578846D01*
X94330261Y-86733489D01*
X94330264Y-86733501D01*
X94390602Y-86879172D01*
X94390609Y-86879185D01*
X94478210Y-87010288D01*
X94478213Y-87010292D01*
X94589707Y-87121786D01*
X94589711Y-87121789D01*
X94720814Y-87209390D01*
X94720827Y-87209397D01*
X94820060Y-87250500D01*
X94866503Y-87269737D01*
X95021153Y-87300499D01*
X95021156Y-87300500D01*
X95021158Y-87300500D01*
X95178844Y-87300500D01*
X95178845Y-87300499D01*
X95333497Y-87269737D01*
X95479179Y-87209394D01*
X95610289Y-87121789D01*
X95721789Y-87010289D01*
X95809394Y-86879179D01*
X95869737Y-86733497D01*
X95900500Y-86578842D01*
X95900500Y-86421158D01*
X95900500Y-86421155D01*
X95900499Y-86421153D01*
X102899500Y-86421153D01*
X102899500Y-86578846D01*
X102930261Y-86733489D01*
X102930264Y-86733501D01*
X102990602Y-86879172D01*
X102990609Y-86879185D01*
X103078210Y-87010288D01*
X103078213Y-87010292D01*
X103189707Y-87121786D01*
X103189711Y-87121789D01*
X103320814Y-87209390D01*
X103320827Y-87209397D01*
X103420060Y-87250500D01*
X103466503Y-87269737D01*
X103621153Y-87300499D01*
X103621156Y-87300500D01*
X103621158Y-87300500D01*
X103778844Y-87300500D01*
X103778845Y-87300499D01*
X103933497Y-87269737D01*
X104079179Y-87209394D01*
X104210289Y-87121789D01*
X104321789Y-87010289D01*
X104409394Y-86879179D01*
X104469737Y-86733497D01*
X104500500Y-86578842D01*
X104500500Y-86421158D01*
X104500500Y-86421155D01*
X104500499Y-86421153D01*
X111499500Y-86421153D01*
X111499500Y-86578846D01*
X111530261Y-86733489D01*
X111530264Y-86733501D01*
X111590602Y-86879172D01*
X111590609Y-86879185D01*
X111678210Y-87010288D01*
X111678213Y-87010292D01*
X111789707Y-87121786D01*
X111789711Y-87121789D01*
X111920814Y-87209390D01*
X111920827Y-87209397D01*
X112020060Y-87250500D01*
X112066503Y-87269737D01*
X112221153Y-87300499D01*
X112221156Y-87300500D01*
X112221158Y-87300500D01*
X112378844Y-87300500D01*
X112378845Y-87300499D01*
X112533497Y-87269737D01*
X112679179Y-87209394D01*
X112810289Y-87121789D01*
X112921789Y-87010289D01*
X113009394Y-86879179D01*
X113069737Y-86733497D01*
X113100500Y-86578842D01*
X113100500Y-86421158D01*
X113100500Y-86421155D01*
X113100499Y-86421153D01*
X113090553Y-86371153D01*
X113069737Y-86266503D01*
X113056821Y-86235321D01*
X127959500Y-86235321D01*
X127959500Y-87984678D01*
X127974032Y-88057735D01*
X127974033Y-88057739D01*
X127974034Y-88057740D01*
X128029399Y-88140601D01*
X128112260Y-88195966D01*
X128112264Y-88195967D01*
X128185321Y-88210499D01*
X128185324Y-88210500D01*
X128185326Y-88210500D01*
X129934676Y-88210500D01*
X129934677Y-88210499D01*
X130007740Y-88195966D01*
X130090601Y-88140601D01*
X130145966Y-88057740D01*
X130160500Y-87984674D01*
X130160500Y-87023389D01*
X130499500Y-87023389D01*
X130499500Y-87196611D01*
X130526598Y-87367701D01*
X130580127Y-87532445D01*
X130658768Y-87686788D01*
X130760586Y-87826928D01*
X130883072Y-87949414D01*
X131023212Y-88051232D01*
X131177555Y-88129873D01*
X131342299Y-88183402D01*
X131513389Y-88210500D01*
X131513390Y-88210500D01*
X131686610Y-88210500D01*
X131686611Y-88210500D01*
X131857701Y-88183402D01*
X132022445Y-88129873D01*
X132176788Y-88051232D01*
X132316928Y-87949414D01*
X132439414Y-87826928D01*
X132541232Y-87686788D01*
X132619873Y-87532445D01*
X132673402Y-87367701D01*
X132700500Y-87196611D01*
X132700500Y-87023389D01*
X132673402Y-86852299D01*
X132619873Y-86687555D01*
X132541232Y-86533212D01*
X132439414Y-86393072D01*
X132316928Y-86270586D01*
X132176788Y-86168768D01*
X132022445Y-86090127D01*
X131857701Y-86036598D01*
X131857699Y-86036597D01*
X131857698Y-86036597D01*
X131726271Y-86015781D01*
X131686611Y-86009500D01*
X131513389Y-86009500D01*
X131473728Y-86015781D01*
X131342302Y-86036597D01*
X131177552Y-86090128D01*
X131023211Y-86168768D01*
X130957501Y-86216510D01*
X130883072Y-86270586D01*
X130883070Y-86270588D01*
X130883069Y-86270588D01*
X130760588Y-86393069D01*
X130760588Y-86393070D01*
X130760586Y-86393072D01*
X130716859Y-86453256D01*
X130658768Y-86533211D01*
X130580128Y-86687552D01*
X130526597Y-86852302D01*
X130501575Y-87010288D01*
X130499500Y-87023389D01*
X130160500Y-87023389D01*
X130160500Y-86235326D01*
X130160500Y-86235323D01*
X130160499Y-86235321D01*
X130145967Y-86162264D01*
X130145966Y-86162260D01*
X130090601Y-86079399D01*
X130007740Y-86024034D01*
X130007739Y-86024033D01*
X130007735Y-86024032D01*
X129934677Y-86009500D01*
X129934674Y-86009500D01*
X128185326Y-86009500D01*
X128185323Y-86009500D01*
X128112264Y-86024032D01*
X128112260Y-86024033D01*
X128029399Y-86079399D01*
X127974033Y-86162260D01*
X127974032Y-86162264D01*
X127959500Y-86235321D01*
X113056821Y-86235321D01*
X113009397Y-86120827D01*
X113009390Y-86120814D01*
X112921789Y-85989711D01*
X112921786Y-85989707D01*
X112810292Y-85878213D01*
X112810288Y-85878210D01*
X112679185Y-85790609D01*
X112679172Y-85790602D01*
X112533501Y-85730264D01*
X112533489Y-85730261D01*
X112378845Y-85699500D01*
X112378842Y-85699500D01*
X112221158Y-85699500D01*
X112221155Y-85699500D01*
X112066510Y-85730261D01*
X112066498Y-85730264D01*
X111920827Y-85790602D01*
X111920814Y-85790609D01*
X111789711Y-85878210D01*
X111789707Y-85878213D01*
X111678213Y-85989707D01*
X111678210Y-85989711D01*
X111590609Y-86120814D01*
X111590602Y-86120827D01*
X111530264Y-86266498D01*
X111530261Y-86266510D01*
X111499500Y-86421153D01*
X104500499Y-86421153D01*
X104490553Y-86371153D01*
X104469737Y-86266503D01*
X104456821Y-86235321D01*
X104409397Y-86120827D01*
X104409390Y-86120814D01*
X104321789Y-85989711D01*
X104321786Y-85989707D01*
X104210292Y-85878213D01*
X104210288Y-85878210D01*
X104079185Y-85790609D01*
X104079172Y-85790602D01*
X103933501Y-85730264D01*
X103933489Y-85730261D01*
X103778845Y-85699500D01*
X103778842Y-85699500D01*
X103621158Y-85699500D01*
X103621155Y-85699500D01*
X103466510Y-85730261D01*
X103466498Y-85730264D01*
X103320827Y-85790602D01*
X103320814Y-85790609D01*
X103189711Y-85878210D01*
X103189707Y-85878213D01*
X103078213Y-85989707D01*
X103078210Y-85989711D01*
X102990609Y-86120814D01*
X102990602Y-86120827D01*
X102930264Y-86266498D01*
X102930261Y-86266510D01*
X102899500Y-86421153D01*
X95900499Y-86421153D01*
X95890553Y-86371153D01*
X95869737Y-86266503D01*
X95856821Y-86235321D01*
X95809397Y-86120827D01*
X95809390Y-86120814D01*
X95721789Y-85989711D01*
X95721786Y-85989707D01*
X95610292Y-85878213D01*
X95610288Y-85878210D01*
X95479185Y-85790609D01*
X95479172Y-85790602D01*
X95333501Y-85730264D01*
X95333489Y-85730261D01*
X95178845Y-85699500D01*
X95178842Y-85699500D01*
X95021158Y-85699500D01*
X95021155Y-85699500D01*
X94866510Y-85730261D01*
X94866498Y-85730264D01*
X94720827Y-85790602D01*
X94720814Y-85790609D01*
X94589711Y-85878210D01*
X94589707Y-85878213D01*
X94478213Y-85989707D01*
X94478210Y-85989711D01*
X94390609Y-86120814D01*
X94390602Y-86120827D01*
X94330264Y-86266498D01*
X94330261Y-86266510D01*
X94299500Y-86421153D01*
X87050500Y-86421153D01*
X87050500Y-86371158D01*
X87050500Y-86371155D01*
X87050499Y-86371153D01*
X87029684Y-86266510D01*
X87019737Y-86216503D01*
X87019735Y-86216498D01*
X86959397Y-86070827D01*
X86959390Y-86070814D01*
X86871789Y-85939711D01*
X86871786Y-85939707D01*
X86760292Y-85828213D01*
X86760288Y-85828210D01*
X86629185Y-85740609D01*
X86629172Y-85740602D01*
X86483501Y-85680264D01*
X86483489Y-85680261D01*
X86328845Y-85649500D01*
X86328842Y-85649500D01*
X86171158Y-85649500D01*
X86171155Y-85649500D01*
X86016510Y-85680261D01*
X86016498Y-85680264D01*
X85870827Y-85740602D01*
X85870814Y-85740609D01*
X85739711Y-85828210D01*
X85739707Y-85828213D01*
X85628213Y-85939707D01*
X85628210Y-85939711D01*
X85540609Y-86070814D01*
X85540602Y-86070827D01*
X85480264Y-86216498D01*
X85480261Y-86216510D01*
X85449500Y-86371153D01*
X76482881Y-86371153D01*
X76482881Y-85321153D01*
X124799500Y-85321153D01*
X124799500Y-85478846D01*
X124830261Y-85633489D01*
X124830264Y-85633501D01*
X124890602Y-85779172D01*
X124890609Y-85779185D01*
X124978210Y-85910288D01*
X124978213Y-85910292D01*
X125089707Y-86021786D01*
X125089711Y-86021789D01*
X125220814Y-86109390D01*
X125220827Y-86109397D01*
X125366498Y-86169735D01*
X125366503Y-86169737D01*
X125521153Y-86200499D01*
X125521156Y-86200500D01*
X125521158Y-86200500D01*
X125678844Y-86200500D01*
X125678845Y-86200499D01*
X125833497Y-86169737D01*
X125966434Y-86114673D01*
X125966435Y-86114673D01*
X125970453Y-86113008D01*
X125979179Y-86109394D01*
X126110289Y-86021789D01*
X126221789Y-85910289D01*
X126309394Y-85779179D01*
X126369737Y-85633497D01*
X126400500Y-85478842D01*
X126400500Y-85321158D01*
X126400500Y-85321155D01*
X126400499Y-85321153D01*
X126369738Y-85166510D01*
X126369737Y-85166503D01*
X126369735Y-85166498D01*
X126309397Y-85020827D01*
X126309390Y-85020814D01*
X126221789Y-84889711D01*
X126221786Y-84889707D01*
X126110292Y-84778213D01*
X126110288Y-84778210D01*
X125979185Y-84690609D01*
X125979172Y-84690602D01*
X125833501Y-84630264D01*
X125833489Y-84630261D01*
X125678845Y-84599500D01*
X125678842Y-84599500D01*
X125521158Y-84599500D01*
X125521155Y-84599500D01*
X125366510Y-84630261D01*
X125366498Y-84630264D01*
X125220827Y-84690602D01*
X125220814Y-84690609D01*
X125089711Y-84778210D01*
X125089707Y-84778213D01*
X124978213Y-84889707D01*
X124978210Y-84889711D01*
X124890609Y-85020814D01*
X124890602Y-85020827D01*
X124830264Y-85166498D01*
X124830261Y-85166510D01*
X124799500Y-85321153D01*
X76482881Y-85321153D01*
X76482881Y-80624500D01*
X76502566Y-80557461D01*
X76555370Y-80511706D01*
X76606881Y-80500500D01*
X133775500Y-80500500D01*
X133842539Y-80520185D01*
G37*
%TD.AperFunction*%
%TD*%
M02*
