%TF.GenerationSoftware,KiCad,Pcbnew,9.0.4*%
%TF.CreationDate,2026-03-12T13:51:04-04:00*%
%TF.ProjectId,phase90,70686173-6539-4302-9e6b-696361645f70,rev?*%
%TF.SameCoordinates,Original*%
%TF.FileFunction,Paste,Top*%
%TF.FilePolarity,Positive*%
%FSLAX46Y46*%
G04 Gerber Fmt 4.6, Leading zero omitted, Abs format (unit mm)*
G04 Created by KiCad (PCBNEW 9.0.4) date 2026-03-12 13:51:04*
%MOMM*%
%LPD*%
G01*
G04 APERTURE LIST*
G04 Aperture macros list*
%AMRoundRect*
0 Rectangle with rounded corners*
0 $1 Rounding radius*
0 $2 $3 $4 $5 $6 $7 $8 $9 X,Y pos of 4 corners*
0 Add a 4 corners polygon primitive as box body*
4,1,4,$2,$3,$4,$5,$6,$7,$8,$9,$2,$3,0*
0 Add four circle primitives for the rounded corners*
1,1,$1+$1,$2,$3*
1,1,$1+$1,$4,$5*
1,1,$1+$1,$6,$7*
1,1,$1+$1,$8,$9*
0 Add four rect primitives between the rounded corners*
20,1,$1+$1,$2,$3,$4,$5,0*
20,1,$1+$1,$4,$5,$6,$7,0*
20,1,$1+$1,$6,$7,$8,$9,0*
20,1,$1+$1,$8,$9,$2,$3,0*%
G04 Aperture macros list end*
%ADD10RoundRect,0.200000X0.275000X-0.200000X0.275000X0.200000X-0.275000X0.200000X-0.275000X-0.200000X0*%
%ADD11RoundRect,0.200000X0.200000X0.275000X-0.200000X0.275000X-0.200000X-0.275000X0.200000X-0.275000X0*%
%ADD12RoundRect,0.150000X-0.150000X0.512500X-0.150000X-0.512500X0.150000X-0.512500X0.150000X0.512500X0*%
%ADD13RoundRect,0.200000X-0.200000X-0.275000X0.200000X-0.275000X0.200000X0.275000X-0.200000X0.275000X0*%
%ADD14RoundRect,0.225000X0.250000X-0.225000X0.250000X0.225000X-0.250000X0.225000X-0.250000X-0.225000X0*%
%ADD15RoundRect,0.087500X-0.087500X0.725000X-0.087500X-0.725000X0.087500X-0.725000X0.087500X0.725000X0*%
%ADD16RoundRect,0.200000X-0.275000X0.200000X-0.275000X-0.200000X0.275000X-0.200000X0.275000X0.200000X0*%
%ADD17RoundRect,0.225000X-0.250000X0.225000X-0.250000X-0.225000X0.250000X-0.225000X0.250000X0.225000X0*%
%ADD18RoundRect,0.225000X-0.225000X-0.250000X0.225000X-0.250000X0.225000X0.250000X-0.225000X0.250000X0*%
%ADD19RoundRect,0.225000X0.225000X0.250000X-0.225000X0.250000X-0.225000X-0.250000X0.225000X-0.250000X0*%
G04 APERTURE END LIST*
D10*
%TO.C,R27*%
X108775000Y-95205000D03*
X108775000Y-93555000D03*
%TD*%
D11*
%TO.C,R23*%
X95907143Y-97600000D03*
X94257143Y-97600000D03*
%TD*%
D12*
%TO.C,U1*%
X96047619Y-103670000D03*
X95097619Y-103670000D03*
X94147619Y-103670000D03*
X94147619Y-105945000D03*
X96047619Y-105945000D03*
%TD*%
D13*
%TO.C,R1*%
X80142500Y-103000000D03*
X81792500Y-103000000D03*
%TD*%
D12*
%TO.C,U8*%
X97982142Y-86662500D03*
X97032142Y-86662500D03*
X96082142Y-86662500D03*
X96082142Y-88937500D03*
X97982142Y-88937500D03*
%TD*%
D11*
%TO.C,R9*%
X117554286Y-104900000D03*
X115904286Y-104900000D03*
%TD*%
%TO.C,R3*%
X81792500Y-100835000D03*
X80142500Y-100835000D03*
%TD*%
D14*
%TO.C,C2*%
X115400000Y-83975000D03*
X115400000Y-82425000D03*
%TD*%
D15*
%TO.C,U12*%
X91365952Y-105357500D03*
X90865952Y-105357500D03*
X90365952Y-105357500D03*
X89865952Y-105357500D03*
X89365952Y-105357500D03*
X89365952Y-109582500D03*
X89865952Y-109582500D03*
X90365952Y-109582500D03*
X90865952Y-109582500D03*
X91365952Y-109582500D03*
%TD*%
D16*
%TO.C,R41*%
X120800000Y-82750000D03*
X120800000Y-84400000D03*
%TD*%
D11*
%TO.C,R26*%
X108850000Y-97600000D03*
X107200000Y-97600000D03*
%TD*%
D10*
%TO.C,R24*%
X93897619Y-89195000D03*
X93897619Y-87545000D03*
%TD*%
%TO.C,R19*%
X85268619Y-89195000D03*
X85268619Y-87545000D03*
%TD*%
%TO.C,R34*%
X111154761Y-89195000D03*
X111154761Y-87545000D03*
%TD*%
D12*
%TO.C,U10*%
X115239285Y-86662500D03*
X114289285Y-86662500D03*
X113339285Y-86662500D03*
X113339285Y-88937500D03*
X115239285Y-88937500D03*
%TD*%
%TO.C,U2*%
X102030952Y-103670000D03*
X101080952Y-103670000D03*
X100130952Y-103670000D03*
X100130952Y-105945000D03*
X102030952Y-105945000D03*
%TD*%
D10*
%TO.C,R12*%
X110153452Y-105632500D03*
X110153452Y-103982500D03*
%TD*%
D11*
%TO.C,R31*%
X117478571Y-97600000D03*
X115828571Y-97600000D03*
%TD*%
D12*
%TO.C,U5*%
X108014286Y-103670000D03*
X107064286Y-103670000D03*
X106114286Y-103670000D03*
X106114286Y-105945000D03*
X108014286Y-105945000D03*
%TD*%
D11*
%TO.C,R33*%
X113164285Y-97600000D03*
X111514285Y-97600000D03*
%TD*%
D13*
%TO.C,R15*%
X80950000Y-90025000D03*
X82600000Y-90025000D03*
%TD*%
D17*
%TO.C,C7*%
X102526190Y-84000000D03*
X102526190Y-85550000D03*
%TD*%
D13*
%TO.C,R10*%
X103479286Y-101195000D03*
X105129286Y-101195000D03*
%TD*%
D10*
%TO.C,R14*%
X104170119Y-105632500D03*
X104170119Y-103982500D03*
%TD*%
%TO.C,R32*%
X117403571Y-95205000D03*
X117403571Y-93555000D03*
%TD*%
D11*
%TO.C,R11*%
X108572619Y-101195000D03*
X106922619Y-101195000D03*
%TD*%
D18*
%TO.C,C1*%
X98825000Y-108345000D03*
X100375000Y-108345000D03*
%TD*%
D17*
%TO.C,C6*%
X93897619Y-84000000D03*
X93897619Y-85550000D03*
%TD*%
D16*
%TO.C,R20*%
X91733095Y-83950000D03*
X91733095Y-85600000D03*
%TD*%
D10*
%TO.C,R35*%
X117600000Y-85600000D03*
X117600000Y-83950000D03*
%TD*%
D16*
%TO.C,R25*%
X100361666Y-83950000D03*
X100361666Y-85600000D03*
%TD*%
D17*
%TO.C,C8*%
X111154761Y-84000000D03*
X111154761Y-85550000D03*
%TD*%
D11*
%TO.C,R4*%
X98797619Y-101195000D03*
X97147619Y-101195000D03*
%TD*%
D16*
%TO.C,R40*%
X122855000Y-82750000D03*
X122855000Y-84400000D03*
%TD*%
%TO.C,R36*%
X117618952Y-87545000D03*
X117618952Y-89195000D03*
%TD*%
D10*
%TO.C,R37*%
X119783618Y-89195000D03*
X119783618Y-87545000D03*
%TD*%
D12*
%TO.C,U7*%
X89353571Y-86662500D03*
X88403571Y-86662500D03*
X87453571Y-86662500D03*
X87453571Y-88937500D03*
X89353571Y-88937500D03*
%TD*%
%TO.C,U11*%
X123868285Y-86662500D03*
X122918285Y-86662500D03*
X121968285Y-86662500D03*
X121968285Y-88937500D03*
X123868285Y-88937500D03*
%TD*%
D11*
%TO.C,R8*%
X117554286Y-102400000D03*
X115904286Y-102400000D03*
%TD*%
D13*
%TO.C,R7*%
X115904286Y-107400000D03*
X117554286Y-107400000D03*
%TD*%
D10*
%TO.C,R39*%
X124910000Y-84400000D03*
X124910000Y-82750000D03*
%TD*%
D11*
%TO.C,R18*%
X87278857Y-97600000D03*
X85628857Y-97600000D03*
%TD*%
%TO.C,R13*%
X112450000Y-108345000D03*
X110800000Y-108345000D03*
%TD*%
%TO.C,R2*%
X81792500Y-105165000D03*
X80142500Y-105165000D03*
%TD*%
D10*
%TO.C,R16*%
X91517857Y-95205000D03*
X91517857Y-93555000D03*
%TD*%
D12*
%TO.C,U6*%
X113997619Y-103670000D03*
X113047619Y-103670000D03*
X112097619Y-103670000D03*
X112097619Y-105945000D03*
X113997619Y-105945000D03*
%TD*%
D18*
%TO.C,C4*%
X81000000Y-88025000D03*
X82550000Y-88025000D03*
%TD*%
D17*
%TO.C,C9*%
X119783618Y-93605000D03*
X119783618Y-95155000D03*
%TD*%
D11*
%TO.C,R28*%
X104535714Y-97600000D03*
X102885714Y-97600000D03*
%TD*%
D12*
%TO.C,U3*%
X82137500Y-92912500D03*
X81187500Y-92912500D03*
X80237500Y-92912500D03*
X80237500Y-95187500D03*
X82137500Y-95187500D03*
%TD*%
D10*
%TO.C,R29*%
X102526190Y-89195000D03*
X102526190Y-87545000D03*
%TD*%
D12*
%TO.C,U9*%
X106610714Y-86662500D03*
X105660714Y-86662500D03*
X104710714Y-86662500D03*
X104710714Y-88937500D03*
X106610714Y-88937500D03*
%TD*%
D19*
%TO.C,C5*%
X81742500Y-86000000D03*
X80192500Y-86000000D03*
%TD*%
D10*
%TO.C,R22*%
X100146428Y-95205000D03*
X100146428Y-93555000D03*
%TD*%
D16*
%TO.C,R6*%
X98186786Y-103982500D03*
X98186786Y-105632500D03*
%TD*%
%TO.C,R38*%
X90547619Y-101120000D03*
X90547619Y-102770000D03*
%TD*%
D11*
%TO.C,R5*%
X94147619Y-101195000D03*
X92497619Y-101195000D03*
%TD*%
D16*
%TO.C,R30*%
X108990237Y-83950000D03*
X108990237Y-85600000D03*
%TD*%
D11*
%TO.C,R21*%
X100221428Y-97600000D03*
X98571428Y-97600000D03*
%TD*%
%TO.C,R17*%
X91592857Y-97600000D03*
X89942857Y-97600000D03*
%TD*%
M02*
