%TF.GenerationSoftware,KiCad,Pcbnew,9.0.4*%
%TF.CreationDate,2026-03-12T13:51:04-04:00*%
%TF.ProjectId,phase90,70686173-6539-4302-9e6b-696361645f70,rev?*%
%TF.SameCoordinates,Original*%
%TF.FileFunction,Legend,Bot*%
%TF.FilePolarity,Positive*%
%FSLAX46Y46*%
G04 Gerber Fmt 4.6, Leading zero omitted, Abs format (unit mm)*
G04 Created by KiCad (PCBNEW 9.0.4) date 2026-03-12 13:51:04*
%MOMM*%
%LPD*%
G01*
G04 APERTURE LIST*
%ADD10C,0.160000*%
%ADD11C,0.150000*%
%ADD12C,0.120000*%
G04 APERTURE END LIST*
D10*
X123504260Y-95439467D02*
X123504260Y-95629943D01*
X123123308Y-95439467D02*
X123123308Y-95629943D01*
X122123308Y-96344228D02*
X122170927Y-96391848D01*
X122170927Y-96391848D02*
X122313784Y-96439467D01*
X122313784Y-96439467D02*
X122409022Y-96439467D01*
X122409022Y-96439467D02*
X122551879Y-96391848D01*
X122551879Y-96391848D02*
X122647117Y-96296609D01*
X122647117Y-96296609D02*
X122694736Y-96201371D01*
X122694736Y-96201371D02*
X122742355Y-96010895D01*
X122742355Y-96010895D02*
X122742355Y-95868038D01*
X122742355Y-95868038D02*
X122694736Y-95677562D01*
X122694736Y-95677562D02*
X122647117Y-95582324D01*
X122647117Y-95582324D02*
X122551879Y-95487086D01*
X122551879Y-95487086D02*
X122409022Y-95439467D01*
X122409022Y-95439467D02*
X122313784Y-95439467D01*
X122313784Y-95439467D02*
X122170927Y-95487086D01*
X122170927Y-95487086D02*
X122123308Y-95534705D01*
X121266165Y-96439467D02*
X121266165Y-95915657D01*
X121266165Y-95915657D02*
X121313784Y-95820419D01*
X121313784Y-95820419D02*
X121409022Y-95772800D01*
X121409022Y-95772800D02*
X121599498Y-95772800D01*
X121599498Y-95772800D02*
X121694736Y-95820419D01*
X121266165Y-96391848D02*
X121361403Y-96439467D01*
X121361403Y-96439467D02*
X121599498Y-96439467D01*
X121599498Y-96439467D02*
X121694736Y-96391848D01*
X121694736Y-96391848D02*
X121742355Y-96296609D01*
X121742355Y-96296609D02*
X121742355Y-96201371D01*
X121742355Y-96201371D02*
X121694736Y-96106133D01*
X121694736Y-96106133D02*
X121599498Y-96058514D01*
X121599498Y-96058514D02*
X121361403Y-96058514D01*
X121361403Y-96058514D02*
X121266165Y-96010895D01*
X120789974Y-95772800D02*
X120789974Y-96439467D01*
X120789974Y-95868038D02*
X120742355Y-95820419D01*
X120742355Y-95820419D02*
X120647117Y-95772800D01*
X120647117Y-95772800D02*
X120504260Y-95772800D01*
X120504260Y-95772800D02*
X120409022Y-95820419D01*
X120409022Y-95820419D02*
X120361403Y-95915657D01*
X120361403Y-95915657D02*
X120361403Y-96439467D01*
X119123307Y-96439467D02*
X119123307Y-95439467D01*
X117456641Y-95772800D02*
X117456641Y-96582324D01*
X117456641Y-96582324D02*
X117504260Y-96677562D01*
X117504260Y-96677562D02*
X117551879Y-96725181D01*
X117551879Y-96725181D02*
X117647117Y-96772800D01*
X117647117Y-96772800D02*
X117789974Y-96772800D01*
X117789974Y-96772800D02*
X117885212Y-96725181D01*
X117456641Y-96391848D02*
X117551879Y-96439467D01*
X117551879Y-96439467D02*
X117742355Y-96439467D01*
X117742355Y-96439467D02*
X117837593Y-96391848D01*
X117837593Y-96391848D02*
X117885212Y-96344228D01*
X117885212Y-96344228D02*
X117932831Y-96248990D01*
X117932831Y-96248990D02*
X117932831Y-95963276D01*
X117932831Y-95963276D02*
X117885212Y-95868038D01*
X117885212Y-95868038D02*
X117837593Y-95820419D01*
X117837593Y-95820419D02*
X117742355Y-95772800D01*
X117742355Y-95772800D02*
X117551879Y-95772800D01*
X117551879Y-95772800D02*
X117456641Y-95820419D01*
X116599498Y-96391848D02*
X116694736Y-96439467D01*
X116694736Y-96439467D02*
X116885212Y-96439467D01*
X116885212Y-96439467D02*
X116980450Y-96391848D01*
X116980450Y-96391848D02*
X117028069Y-96296609D01*
X117028069Y-96296609D02*
X117028069Y-95915657D01*
X117028069Y-95915657D02*
X116980450Y-95820419D01*
X116980450Y-95820419D02*
X116885212Y-95772800D01*
X116885212Y-95772800D02*
X116694736Y-95772800D01*
X116694736Y-95772800D02*
X116599498Y-95820419D01*
X116599498Y-95820419D02*
X116551879Y-95915657D01*
X116551879Y-95915657D02*
X116551879Y-96010895D01*
X116551879Y-96010895D02*
X117028069Y-96106133D01*
X116266164Y-95772800D02*
X115885212Y-95772800D01*
X116123307Y-95439467D02*
X116123307Y-96296609D01*
X116123307Y-96296609D02*
X116075688Y-96391848D01*
X116075688Y-96391848D02*
X115980450Y-96439467D01*
X115980450Y-96439467D02*
X115885212Y-96439467D01*
X114932830Y-95772800D02*
X114551878Y-95772800D01*
X114789973Y-95439467D02*
X114789973Y-96296609D01*
X114789973Y-96296609D02*
X114742354Y-96391848D01*
X114742354Y-96391848D02*
X114647116Y-96439467D01*
X114647116Y-96439467D02*
X114551878Y-96439467D01*
X114218544Y-96439467D02*
X114218544Y-95439467D01*
X113789973Y-96439467D02*
X113789973Y-95915657D01*
X113789973Y-95915657D02*
X113837592Y-95820419D01*
X113837592Y-95820419D02*
X113932830Y-95772800D01*
X113932830Y-95772800D02*
X114075687Y-95772800D01*
X114075687Y-95772800D02*
X114170925Y-95820419D01*
X114170925Y-95820419D02*
X114218544Y-95868038D01*
X112932830Y-96391848D02*
X113028068Y-96439467D01*
X113028068Y-96439467D02*
X113218544Y-96439467D01*
X113218544Y-96439467D02*
X113313782Y-96391848D01*
X113313782Y-96391848D02*
X113361401Y-96296609D01*
X113361401Y-96296609D02*
X113361401Y-95915657D01*
X113361401Y-95915657D02*
X113313782Y-95820419D01*
X113313782Y-95820419D02*
X113218544Y-95772800D01*
X113218544Y-95772800D02*
X113028068Y-95772800D01*
X113028068Y-95772800D02*
X112932830Y-95820419D01*
X112932830Y-95820419D02*
X112885211Y-95915657D01*
X112885211Y-95915657D02*
X112885211Y-96010895D01*
X112885211Y-96010895D02*
X113361401Y-96106133D01*
X111694734Y-95772800D02*
X111694734Y-96772800D01*
X111694734Y-95820419D02*
X111599496Y-95772800D01*
X111599496Y-95772800D02*
X111409020Y-95772800D01*
X111409020Y-95772800D02*
X111313782Y-95820419D01*
X111313782Y-95820419D02*
X111266163Y-95868038D01*
X111266163Y-95868038D02*
X111218544Y-95963276D01*
X111218544Y-95963276D02*
X111218544Y-96248990D01*
X111218544Y-96248990D02*
X111266163Y-96344228D01*
X111266163Y-96344228D02*
X111313782Y-96391848D01*
X111313782Y-96391848D02*
X111409020Y-96439467D01*
X111409020Y-96439467D02*
X111599496Y-96439467D01*
X111599496Y-96439467D02*
X111694734Y-96391848D01*
X110361401Y-95772800D02*
X110361401Y-96439467D01*
X110789972Y-95772800D02*
X110789972Y-96296609D01*
X110789972Y-96296609D02*
X110742353Y-96391848D01*
X110742353Y-96391848D02*
X110647115Y-96439467D01*
X110647115Y-96439467D02*
X110504258Y-96439467D01*
X110504258Y-96439467D02*
X110409020Y-96391848D01*
X110409020Y-96391848D02*
X110361401Y-96344228D01*
X109885210Y-96439467D02*
X109885210Y-95772800D01*
X109885210Y-95963276D02*
X109837591Y-95868038D01*
X109837591Y-95868038D02*
X109789972Y-95820419D01*
X109789972Y-95820419D02*
X109694734Y-95772800D01*
X109694734Y-95772800D02*
X109599496Y-95772800D01*
X109266162Y-95772800D02*
X109266162Y-96772800D01*
X109266162Y-95820419D02*
X109170924Y-95772800D01*
X109170924Y-95772800D02*
X108980448Y-95772800D01*
X108980448Y-95772800D02*
X108885210Y-95820419D01*
X108885210Y-95820419D02*
X108837591Y-95868038D01*
X108837591Y-95868038D02*
X108789972Y-95963276D01*
X108789972Y-95963276D02*
X108789972Y-96248990D01*
X108789972Y-96248990D02*
X108837591Y-96344228D01*
X108837591Y-96344228D02*
X108885210Y-96391848D01*
X108885210Y-96391848D02*
X108980448Y-96439467D01*
X108980448Y-96439467D02*
X109170924Y-96439467D01*
X109170924Y-96439467D02*
X109266162Y-96391848D01*
X108218543Y-96439467D02*
X108313781Y-96391848D01*
X108313781Y-96391848D02*
X108361400Y-96296609D01*
X108361400Y-96296609D02*
X108361400Y-95439467D01*
X107456638Y-96391848D02*
X107551876Y-96439467D01*
X107551876Y-96439467D02*
X107742352Y-96439467D01*
X107742352Y-96439467D02*
X107837590Y-96391848D01*
X107837590Y-96391848D02*
X107885209Y-96296609D01*
X107885209Y-96296609D02*
X107885209Y-95915657D01*
X107885209Y-95915657D02*
X107837590Y-95820419D01*
X107837590Y-95820419D02*
X107742352Y-95772800D01*
X107742352Y-95772800D02*
X107551876Y-95772800D01*
X107551876Y-95772800D02*
X107456638Y-95820419D01*
X107456638Y-95820419D02*
X107409019Y-95915657D01*
X107409019Y-95915657D02*
X107409019Y-96010895D01*
X107409019Y-96010895D02*
X107885209Y-96106133D01*
X106075685Y-96439467D02*
X106170923Y-96391848D01*
X106170923Y-96391848D02*
X106218542Y-96344228D01*
X106218542Y-96344228D02*
X106266161Y-96248990D01*
X106266161Y-96248990D02*
X106266161Y-95963276D01*
X106266161Y-95963276D02*
X106218542Y-95868038D01*
X106218542Y-95868038D02*
X106170923Y-95820419D01*
X106170923Y-95820419D02*
X106075685Y-95772800D01*
X106075685Y-95772800D02*
X105932828Y-95772800D01*
X105932828Y-95772800D02*
X105837590Y-95820419D01*
X105837590Y-95820419D02*
X105789971Y-95868038D01*
X105789971Y-95868038D02*
X105742352Y-95963276D01*
X105742352Y-95963276D02*
X105742352Y-96248990D01*
X105742352Y-96248990D02*
X105789971Y-96344228D01*
X105789971Y-96344228D02*
X105837590Y-96391848D01*
X105837590Y-96391848D02*
X105932828Y-96439467D01*
X105932828Y-96439467D02*
X106075685Y-96439467D01*
X105313780Y-95772800D02*
X105313780Y-96439467D01*
X105313780Y-95868038D02*
X105266161Y-95820419D01*
X105266161Y-95820419D02*
X105170923Y-95772800D01*
X105170923Y-95772800D02*
X105028066Y-95772800D01*
X105028066Y-95772800D02*
X104932828Y-95820419D01*
X104932828Y-95820419D02*
X104885209Y-95915657D01*
X104885209Y-95915657D02*
X104885209Y-96439467D01*
X104028066Y-96391848D02*
X104123304Y-96439467D01*
X104123304Y-96439467D02*
X104313780Y-96439467D01*
X104313780Y-96439467D02*
X104409018Y-96391848D01*
X104409018Y-96391848D02*
X104456637Y-96296609D01*
X104456637Y-96296609D02*
X104456637Y-95915657D01*
X104456637Y-95915657D02*
X104409018Y-95820419D01*
X104409018Y-95820419D02*
X104313780Y-95772800D01*
X104313780Y-95772800D02*
X104123304Y-95772800D01*
X104123304Y-95772800D02*
X104028066Y-95820419D01*
X104028066Y-95820419D02*
X103980447Y-95915657D01*
X103980447Y-95915657D02*
X103980447Y-96010895D01*
X103980447Y-96010895D02*
X104456637Y-96106133D01*
X103409018Y-96344228D02*
X103361399Y-96391848D01*
X103361399Y-96391848D02*
X103409018Y-96439467D01*
X103409018Y-96439467D02*
X103456637Y-96391848D01*
X103456637Y-96391848D02*
X103409018Y-96344228D01*
X103409018Y-96344228D02*
X103409018Y-96439467D01*
X103599494Y-95487086D02*
X103504256Y-95439467D01*
X103504256Y-95439467D02*
X103266161Y-95439467D01*
X103266161Y-95439467D02*
X103170923Y-95487086D01*
X103170923Y-95487086D02*
X103123304Y-95582324D01*
X103123304Y-95582324D02*
X103123304Y-95677562D01*
X103123304Y-95677562D02*
X103170923Y-95772800D01*
X103170923Y-95772800D02*
X103218542Y-95820419D01*
X103218542Y-95820419D02*
X103313780Y-95868038D01*
X103313780Y-95868038D02*
X103361399Y-95915657D01*
X103361399Y-95915657D02*
X103409018Y-96010895D01*
X103409018Y-96010895D02*
X103409018Y-96058514D01*
X123551879Y-97049411D02*
X123313784Y-98049411D01*
X123313784Y-98049411D02*
X123123308Y-97335125D01*
X123123308Y-97335125D02*
X122932832Y-98049411D01*
X122932832Y-98049411D02*
X122694737Y-97049411D01*
X121885213Y-98049411D02*
X121885213Y-97525601D01*
X121885213Y-97525601D02*
X121932832Y-97430363D01*
X121932832Y-97430363D02*
X122028070Y-97382744D01*
X122028070Y-97382744D02*
X122218546Y-97382744D01*
X122218546Y-97382744D02*
X122313784Y-97430363D01*
X121885213Y-98001792D02*
X121980451Y-98049411D01*
X121980451Y-98049411D02*
X122218546Y-98049411D01*
X122218546Y-98049411D02*
X122313784Y-98001792D01*
X122313784Y-98001792D02*
X122361403Y-97906553D01*
X122361403Y-97906553D02*
X122361403Y-97811315D01*
X122361403Y-97811315D02*
X122313784Y-97716077D01*
X122313784Y-97716077D02*
X122218546Y-97668458D01*
X122218546Y-97668458D02*
X121980451Y-97668458D01*
X121980451Y-97668458D02*
X121885213Y-97620839D01*
X121409022Y-98049411D02*
X121409022Y-97382744D01*
X121409022Y-97049411D02*
X121456641Y-97097030D01*
X121456641Y-97097030D02*
X121409022Y-97144649D01*
X121409022Y-97144649D02*
X121361403Y-97097030D01*
X121361403Y-97097030D02*
X121409022Y-97049411D01*
X121409022Y-97049411D02*
X121409022Y-97144649D01*
X121075689Y-97382744D02*
X120694737Y-97382744D01*
X120932832Y-97049411D02*
X120932832Y-97906553D01*
X120932832Y-97906553D02*
X120885213Y-98001792D01*
X120885213Y-98001792D02*
X120789975Y-98049411D01*
X120789975Y-98049411D02*
X120694737Y-98049411D01*
X119599498Y-97382744D02*
X119599498Y-98049411D01*
X119599498Y-97477982D02*
X119551879Y-97430363D01*
X119551879Y-97430363D02*
X119456641Y-97382744D01*
X119456641Y-97382744D02*
X119313784Y-97382744D01*
X119313784Y-97382744D02*
X119218546Y-97430363D01*
X119218546Y-97430363D02*
X119170927Y-97525601D01*
X119170927Y-97525601D02*
X119170927Y-98049411D01*
X118551879Y-98049411D02*
X118647117Y-98001792D01*
X118647117Y-98001792D02*
X118694736Y-97954172D01*
X118694736Y-97954172D02*
X118742355Y-97858934D01*
X118742355Y-97858934D02*
X118742355Y-97573220D01*
X118742355Y-97573220D02*
X118694736Y-97477982D01*
X118694736Y-97477982D02*
X118647117Y-97430363D01*
X118647117Y-97430363D02*
X118551879Y-97382744D01*
X118551879Y-97382744D02*
X118409022Y-97382744D01*
X118409022Y-97382744D02*
X118313784Y-97430363D01*
X118313784Y-97430363D02*
X118266165Y-97477982D01*
X118266165Y-97477982D02*
X118218546Y-97573220D01*
X118218546Y-97573220D02*
X118218546Y-97858934D01*
X118218546Y-97858934D02*
X118266165Y-97954172D01*
X118266165Y-97954172D02*
X118313784Y-98001792D01*
X118313784Y-98001792D02*
X118409022Y-98049411D01*
X118409022Y-98049411D02*
X118551879Y-98049411D01*
X117742355Y-98001792D02*
X117742355Y-98049411D01*
X117742355Y-98049411D02*
X117789974Y-98144649D01*
X117789974Y-98144649D02*
X117837593Y-98192268D01*
X116123308Y-98001792D02*
X116218546Y-98049411D01*
X116218546Y-98049411D02*
X116409022Y-98049411D01*
X116409022Y-98049411D02*
X116504260Y-98001792D01*
X116504260Y-98001792D02*
X116551879Y-97954172D01*
X116551879Y-97954172D02*
X116599498Y-97858934D01*
X116599498Y-97858934D02*
X116599498Y-97573220D01*
X116599498Y-97573220D02*
X116551879Y-97477982D01*
X116551879Y-97477982D02*
X116504260Y-97430363D01*
X116504260Y-97430363D02*
X116409022Y-97382744D01*
X116409022Y-97382744D02*
X116218546Y-97382744D01*
X116218546Y-97382744D02*
X116123308Y-97430363D01*
X115266165Y-98049411D02*
X115266165Y-97525601D01*
X115266165Y-97525601D02*
X115313784Y-97430363D01*
X115313784Y-97430363D02*
X115409022Y-97382744D01*
X115409022Y-97382744D02*
X115599498Y-97382744D01*
X115599498Y-97382744D02*
X115694736Y-97430363D01*
X115266165Y-98001792D02*
X115361403Y-98049411D01*
X115361403Y-98049411D02*
X115599498Y-98049411D01*
X115599498Y-98049411D02*
X115694736Y-98001792D01*
X115694736Y-98001792D02*
X115742355Y-97906553D01*
X115742355Y-97906553D02*
X115742355Y-97811315D01*
X115742355Y-97811315D02*
X115694736Y-97716077D01*
X115694736Y-97716077D02*
X115599498Y-97668458D01*
X115599498Y-97668458D02*
X115361403Y-97668458D01*
X115361403Y-97668458D02*
X115266165Y-97620839D01*
X114789974Y-97382744D02*
X114789974Y-98049411D01*
X114789974Y-97477982D02*
X114742355Y-97430363D01*
X114742355Y-97430363D02*
X114647117Y-97382744D01*
X114647117Y-97382744D02*
X114504260Y-97382744D01*
X114504260Y-97382744D02*
X114409022Y-97430363D01*
X114409022Y-97430363D02*
X114361403Y-97525601D01*
X114361403Y-97525601D02*
X114361403Y-98049411D01*
X113123307Y-98049411D02*
X113123307Y-97049411D01*
X111456641Y-97382744D02*
X111456641Y-98192268D01*
X111456641Y-98192268D02*
X111504260Y-98287506D01*
X111504260Y-98287506D02*
X111551879Y-98335125D01*
X111551879Y-98335125D02*
X111647117Y-98382744D01*
X111647117Y-98382744D02*
X111789974Y-98382744D01*
X111789974Y-98382744D02*
X111885212Y-98335125D01*
X111456641Y-98001792D02*
X111551879Y-98049411D01*
X111551879Y-98049411D02*
X111742355Y-98049411D01*
X111742355Y-98049411D02*
X111837593Y-98001792D01*
X111837593Y-98001792D02*
X111885212Y-97954172D01*
X111885212Y-97954172D02*
X111932831Y-97858934D01*
X111932831Y-97858934D02*
X111932831Y-97573220D01*
X111932831Y-97573220D02*
X111885212Y-97477982D01*
X111885212Y-97477982D02*
X111837593Y-97430363D01*
X111837593Y-97430363D02*
X111742355Y-97382744D01*
X111742355Y-97382744D02*
X111551879Y-97382744D01*
X111551879Y-97382744D02*
X111456641Y-97430363D01*
X110599498Y-98001792D02*
X110694736Y-98049411D01*
X110694736Y-98049411D02*
X110885212Y-98049411D01*
X110885212Y-98049411D02*
X110980450Y-98001792D01*
X110980450Y-98001792D02*
X111028069Y-97906553D01*
X111028069Y-97906553D02*
X111028069Y-97525601D01*
X111028069Y-97525601D02*
X110980450Y-97430363D01*
X110980450Y-97430363D02*
X110885212Y-97382744D01*
X110885212Y-97382744D02*
X110694736Y-97382744D01*
X110694736Y-97382744D02*
X110599498Y-97430363D01*
X110599498Y-97430363D02*
X110551879Y-97525601D01*
X110551879Y-97525601D02*
X110551879Y-97620839D01*
X110551879Y-97620839D02*
X111028069Y-97716077D01*
X110266164Y-97382744D02*
X109885212Y-97382744D01*
X110123307Y-97049411D02*
X110123307Y-97906553D01*
X110123307Y-97906553D02*
X110075688Y-98001792D01*
X110075688Y-98001792D02*
X109980450Y-98049411D01*
X109980450Y-98049411D02*
X109885212Y-98049411D01*
X108932830Y-97382744D02*
X108551878Y-97382744D01*
X108789973Y-97049411D02*
X108789973Y-97906553D01*
X108789973Y-97906553D02*
X108742354Y-98001792D01*
X108742354Y-98001792D02*
X108647116Y-98049411D01*
X108647116Y-98049411D02*
X108551878Y-98049411D01*
X108218544Y-98049411D02*
X108218544Y-97049411D01*
X107789973Y-98049411D02*
X107789973Y-97525601D01*
X107789973Y-97525601D02*
X107837592Y-97430363D01*
X107837592Y-97430363D02*
X107932830Y-97382744D01*
X107932830Y-97382744D02*
X108075687Y-97382744D01*
X108075687Y-97382744D02*
X108170925Y-97430363D01*
X108170925Y-97430363D02*
X108218544Y-97477982D01*
X106932830Y-98001792D02*
X107028068Y-98049411D01*
X107028068Y-98049411D02*
X107218544Y-98049411D01*
X107218544Y-98049411D02*
X107313782Y-98001792D01*
X107313782Y-98001792D02*
X107361401Y-97906553D01*
X107361401Y-97906553D02*
X107361401Y-97525601D01*
X107361401Y-97525601D02*
X107313782Y-97430363D01*
X107313782Y-97430363D02*
X107218544Y-97382744D01*
X107218544Y-97382744D02*
X107028068Y-97382744D01*
X107028068Y-97382744D02*
X106932830Y-97430363D01*
X106932830Y-97430363D02*
X106885211Y-97525601D01*
X106885211Y-97525601D02*
X106885211Y-97620839D01*
X106885211Y-97620839D02*
X107361401Y-97716077D01*
X105694734Y-97382744D02*
X105694734Y-98382744D01*
X105694734Y-97430363D02*
X105599496Y-97382744D01*
X105599496Y-97382744D02*
X105409020Y-97382744D01*
X105409020Y-97382744D02*
X105313782Y-97430363D01*
X105313782Y-97430363D02*
X105266163Y-97477982D01*
X105266163Y-97477982D02*
X105218544Y-97573220D01*
X105218544Y-97573220D02*
X105218544Y-97858934D01*
X105218544Y-97858934D02*
X105266163Y-97954172D01*
X105266163Y-97954172D02*
X105313782Y-98001792D01*
X105313782Y-98001792D02*
X105409020Y-98049411D01*
X105409020Y-98049411D02*
X105599496Y-98049411D01*
X105599496Y-98049411D02*
X105694734Y-98001792D01*
X104361401Y-97382744D02*
X104361401Y-98049411D01*
X104789972Y-97382744D02*
X104789972Y-97906553D01*
X104789972Y-97906553D02*
X104742353Y-98001792D01*
X104742353Y-98001792D02*
X104647115Y-98049411D01*
X104647115Y-98049411D02*
X104504258Y-98049411D01*
X104504258Y-98049411D02*
X104409020Y-98001792D01*
X104409020Y-98001792D02*
X104361401Y-97954172D01*
X103885210Y-98049411D02*
X103885210Y-97382744D01*
X103885210Y-97573220D02*
X103837591Y-97477982D01*
X103837591Y-97477982D02*
X103789972Y-97430363D01*
X103789972Y-97430363D02*
X103694734Y-97382744D01*
X103694734Y-97382744D02*
X103599496Y-97382744D01*
X103266162Y-97382744D02*
X103266162Y-98382744D01*
X103266162Y-97430363D02*
X103170924Y-97382744D01*
X103170924Y-97382744D02*
X102980448Y-97382744D01*
X102980448Y-97382744D02*
X102885210Y-97430363D01*
X102885210Y-97430363D02*
X102837591Y-97477982D01*
X102837591Y-97477982D02*
X102789972Y-97573220D01*
X102789972Y-97573220D02*
X102789972Y-97858934D01*
X102789972Y-97858934D02*
X102837591Y-97954172D01*
X102837591Y-97954172D02*
X102885210Y-98001792D01*
X102885210Y-98001792D02*
X102980448Y-98049411D01*
X102980448Y-98049411D02*
X103170924Y-98049411D01*
X103170924Y-98049411D02*
X103266162Y-98001792D01*
X102218543Y-98049411D02*
X102313781Y-98001792D01*
X102313781Y-98001792D02*
X102361400Y-97906553D01*
X102361400Y-97906553D02*
X102361400Y-97049411D01*
X101456638Y-98001792D02*
X101551876Y-98049411D01*
X101551876Y-98049411D02*
X101742352Y-98049411D01*
X101742352Y-98049411D02*
X101837590Y-98001792D01*
X101837590Y-98001792D02*
X101885209Y-97906553D01*
X101885209Y-97906553D02*
X101885209Y-97525601D01*
X101885209Y-97525601D02*
X101837590Y-97430363D01*
X101837590Y-97430363D02*
X101742352Y-97382744D01*
X101742352Y-97382744D02*
X101551876Y-97382744D01*
X101551876Y-97382744D02*
X101456638Y-97430363D01*
X101456638Y-97430363D02*
X101409019Y-97525601D01*
X101409019Y-97525601D02*
X101409019Y-97620839D01*
X101409019Y-97620839D02*
X101885209Y-97716077D01*
X100075685Y-98049411D02*
X100170923Y-98001792D01*
X100170923Y-98001792D02*
X100218542Y-97954172D01*
X100218542Y-97954172D02*
X100266161Y-97858934D01*
X100266161Y-97858934D02*
X100266161Y-97573220D01*
X100266161Y-97573220D02*
X100218542Y-97477982D01*
X100218542Y-97477982D02*
X100170923Y-97430363D01*
X100170923Y-97430363D02*
X100075685Y-97382744D01*
X100075685Y-97382744D02*
X99932828Y-97382744D01*
X99932828Y-97382744D02*
X99837590Y-97430363D01*
X99837590Y-97430363D02*
X99789971Y-97477982D01*
X99789971Y-97477982D02*
X99742352Y-97573220D01*
X99742352Y-97573220D02*
X99742352Y-97858934D01*
X99742352Y-97858934D02*
X99789971Y-97954172D01*
X99789971Y-97954172D02*
X99837590Y-98001792D01*
X99837590Y-98001792D02*
X99932828Y-98049411D01*
X99932828Y-98049411D02*
X100075685Y-98049411D01*
X99313780Y-97382744D02*
X99313780Y-98049411D01*
X99313780Y-97477982D02*
X99266161Y-97430363D01*
X99266161Y-97430363D02*
X99170923Y-97382744D01*
X99170923Y-97382744D02*
X99028066Y-97382744D01*
X99028066Y-97382744D02*
X98932828Y-97430363D01*
X98932828Y-97430363D02*
X98885209Y-97525601D01*
X98885209Y-97525601D02*
X98885209Y-98049411D01*
X98028066Y-98001792D02*
X98123304Y-98049411D01*
X98123304Y-98049411D02*
X98313780Y-98049411D01*
X98313780Y-98049411D02*
X98409018Y-98001792D01*
X98409018Y-98001792D02*
X98456637Y-97906553D01*
X98456637Y-97906553D02*
X98456637Y-97525601D01*
X98456637Y-97525601D02*
X98409018Y-97430363D01*
X98409018Y-97430363D02*
X98313780Y-97382744D01*
X98313780Y-97382744D02*
X98123304Y-97382744D01*
X98123304Y-97382744D02*
X98028066Y-97430363D01*
X98028066Y-97430363D02*
X97980447Y-97525601D01*
X97980447Y-97525601D02*
X97980447Y-97620839D01*
X97980447Y-97620839D02*
X98456637Y-97716077D01*
X97409018Y-97954172D02*
X97361399Y-98001792D01*
X97361399Y-98001792D02*
X97409018Y-98049411D01*
X97409018Y-98049411D02*
X97456637Y-98001792D01*
X97456637Y-98001792D02*
X97409018Y-97954172D01*
X97409018Y-97954172D02*
X97409018Y-98049411D01*
X97599494Y-97097030D02*
X97504256Y-97049411D01*
X97504256Y-97049411D02*
X97266161Y-97049411D01*
X97266161Y-97049411D02*
X97170923Y-97097030D01*
X97170923Y-97097030D02*
X97123304Y-97192268D01*
X97123304Y-97192268D02*
X97123304Y-97287506D01*
X97123304Y-97287506D02*
X97170923Y-97382744D01*
X97170923Y-97382744D02*
X97218542Y-97430363D01*
X97218542Y-97430363D02*
X97313780Y-97477982D01*
X97313780Y-97477982D02*
X97361399Y-97525601D01*
X97361399Y-97525601D02*
X97409018Y-97620839D01*
X97409018Y-97620839D02*
X97409018Y-97668458D01*
X96742351Y-97049411D02*
X96742351Y-97239887D01*
X96361399Y-97049411D02*
X96361399Y-97239887D01*
X95170922Y-97668458D02*
X94409018Y-97668458D01*
X93932827Y-98049411D02*
X93932827Y-97049411D01*
X93361399Y-98049411D02*
X93789970Y-97477982D01*
X93361399Y-97049411D02*
X93932827Y-97620839D01*
X93028065Y-97382744D02*
X92789970Y-98049411D01*
X92551875Y-97382744D02*
X92789970Y-98049411D01*
X92789970Y-98049411D02*
X92885208Y-98287506D01*
X92885208Y-98287506D02*
X92932827Y-98335125D01*
X92932827Y-98335125D02*
X93028065Y-98382744D01*
X92028065Y-98049411D02*
X92123303Y-98001792D01*
X92123303Y-98001792D02*
X92170922Y-97906553D01*
X92170922Y-97906553D02*
X92170922Y-97049411D01*
X91266160Y-98001792D02*
X91361398Y-98049411D01*
X91361398Y-98049411D02*
X91551874Y-98049411D01*
X91551874Y-98049411D02*
X91647112Y-98001792D01*
X91647112Y-98001792D02*
X91694731Y-97906553D01*
X91694731Y-97906553D02*
X91694731Y-97525601D01*
X91694731Y-97525601D02*
X91647112Y-97430363D01*
X91647112Y-97430363D02*
X91551874Y-97382744D01*
X91551874Y-97382744D02*
X91361398Y-97382744D01*
X91361398Y-97382744D02*
X91266160Y-97430363D01*
X91266160Y-97430363D02*
X91218541Y-97525601D01*
X91218541Y-97525601D02*
X91218541Y-97620839D01*
X91218541Y-97620839D02*
X91694731Y-97716077D01*
X89599493Y-98049411D02*
X89599493Y-97049411D01*
X89599493Y-98001792D02*
X89694731Y-98049411D01*
X89694731Y-98049411D02*
X89885207Y-98049411D01*
X89885207Y-98049411D02*
X89980445Y-98001792D01*
X89980445Y-98001792D02*
X90028064Y-97954172D01*
X90028064Y-97954172D02*
X90075683Y-97858934D01*
X90075683Y-97858934D02*
X90075683Y-97573220D01*
X90075683Y-97573220D02*
X90028064Y-97477982D01*
X90028064Y-97477982D02*
X89980445Y-97430363D01*
X89980445Y-97430363D02*
X89885207Y-97382744D01*
X89885207Y-97382744D02*
X89694731Y-97382744D01*
X89694731Y-97382744D02*
X89599493Y-97430363D01*
X88742350Y-98001792D02*
X88837588Y-98049411D01*
X88837588Y-98049411D02*
X89028064Y-98049411D01*
X89028064Y-98049411D02*
X89123302Y-98001792D01*
X89123302Y-98001792D02*
X89170921Y-97906553D01*
X89170921Y-97906553D02*
X89170921Y-97525601D01*
X89170921Y-97525601D02*
X89123302Y-97430363D01*
X89123302Y-97430363D02*
X89028064Y-97382744D01*
X89028064Y-97382744D02*
X88837588Y-97382744D01*
X88837588Y-97382744D02*
X88742350Y-97430363D01*
X88742350Y-97430363D02*
X88694731Y-97525601D01*
X88694731Y-97525601D02*
X88694731Y-97620839D01*
X88694731Y-97620839D02*
X89170921Y-97716077D01*
X87504254Y-98049411D02*
X87504254Y-97049411D01*
X87504254Y-97049411D02*
X86932826Y-98049411D01*
X86932826Y-98049411D02*
X86932826Y-97049411D01*
X86313778Y-98049411D02*
X86409016Y-98001792D01*
X86409016Y-98001792D02*
X86456635Y-97954172D01*
X86456635Y-97954172D02*
X86504254Y-97858934D01*
X86504254Y-97858934D02*
X86504254Y-97573220D01*
X86504254Y-97573220D02*
X86456635Y-97477982D01*
X86456635Y-97477982D02*
X86409016Y-97430363D01*
X86409016Y-97430363D02*
X86313778Y-97382744D01*
X86313778Y-97382744D02*
X86170921Y-97382744D01*
X86170921Y-97382744D02*
X86075683Y-97430363D01*
X86075683Y-97430363D02*
X86028064Y-97477982D01*
X86028064Y-97477982D02*
X85980445Y-97573220D01*
X85980445Y-97573220D02*
X85980445Y-97858934D01*
X85980445Y-97858934D02*
X86028064Y-97954172D01*
X86028064Y-97954172D02*
X86075683Y-98001792D01*
X86075683Y-98001792D02*
X86170921Y-98049411D01*
X86170921Y-98049411D02*
X86313778Y-98049411D01*
X85551873Y-98049411D02*
X85551873Y-97049411D01*
X85551873Y-97430363D02*
X85456635Y-97382744D01*
X85456635Y-97382744D02*
X85266159Y-97382744D01*
X85266159Y-97382744D02*
X85170921Y-97430363D01*
X85170921Y-97430363D02*
X85123302Y-97477982D01*
X85123302Y-97477982D02*
X85075683Y-97573220D01*
X85075683Y-97573220D02*
X85075683Y-97858934D01*
X85075683Y-97858934D02*
X85123302Y-97954172D01*
X85123302Y-97954172D02*
X85170921Y-98001792D01*
X85170921Y-98001792D02*
X85266159Y-98049411D01*
X85266159Y-98049411D02*
X85456635Y-98049411D01*
X85456635Y-98049411D02*
X85551873Y-98001792D01*
X84266159Y-98001792D02*
X84361397Y-98049411D01*
X84361397Y-98049411D02*
X84551873Y-98049411D01*
X84551873Y-98049411D02*
X84647111Y-98001792D01*
X84647111Y-98001792D02*
X84694730Y-97906553D01*
X84694730Y-97906553D02*
X84694730Y-97525601D01*
X84694730Y-97525601D02*
X84647111Y-97430363D01*
X84647111Y-97430363D02*
X84551873Y-97382744D01*
X84551873Y-97382744D02*
X84361397Y-97382744D01*
X84361397Y-97382744D02*
X84266159Y-97430363D01*
X84266159Y-97430363D02*
X84218540Y-97525601D01*
X84218540Y-97525601D02*
X84218540Y-97620839D01*
X84218540Y-97620839D02*
X84694730Y-97716077D01*
X83647111Y-98049411D02*
X83742349Y-98001792D01*
X83742349Y-98001792D02*
X83789968Y-97906553D01*
X83789968Y-97906553D02*
X83789968Y-97049411D01*
X123504260Y-100269299D02*
X123504260Y-100459775D01*
X123123308Y-100269299D02*
X123123308Y-100459775D01*
X122361403Y-100745489D02*
X122694736Y-100745489D01*
X122694736Y-101269299D02*
X122694736Y-100269299D01*
X122694736Y-100269299D02*
X122218546Y-100269299D01*
X121837593Y-101269299D02*
X121837593Y-100602632D01*
X121837593Y-100793108D02*
X121789974Y-100697870D01*
X121789974Y-100697870D02*
X121742355Y-100650251D01*
X121742355Y-100650251D02*
X121647117Y-100602632D01*
X121647117Y-100602632D02*
X121551879Y-100602632D01*
X120789974Y-101269299D02*
X120789974Y-100745489D01*
X120789974Y-100745489D02*
X120837593Y-100650251D01*
X120837593Y-100650251D02*
X120932831Y-100602632D01*
X120932831Y-100602632D02*
X121123307Y-100602632D01*
X121123307Y-100602632D02*
X121218545Y-100650251D01*
X120789974Y-101221680D02*
X120885212Y-101269299D01*
X120885212Y-101269299D02*
X121123307Y-101269299D01*
X121123307Y-101269299D02*
X121218545Y-101221680D01*
X121218545Y-101221680D02*
X121266164Y-101126441D01*
X121266164Y-101126441D02*
X121266164Y-101031203D01*
X121266164Y-101031203D02*
X121218545Y-100935965D01*
X121218545Y-100935965D02*
X121123307Y-100888346D01*
X121123307Y-100888346D02*
X120885212Y-100888346D01*
X120885212Y-100888346D02*
X120789974Y-100840727D01*
X120313783Y-100602632D02*
X120313783Y-101269299D01*
X120313783Y-100697870D02*
X120266164Y-100650251D01*
X120266164Y-100650251D02*
X120170926Y-100602632D01*
X120170926Y-100602632D02*
X120028069Y-100602632D01*
X120028069Y-100602632D02*
X119932831Y-100650251D01*
X119932831Y-100650251D02*
X119885212Y-100745489D01*
X119885212Y-100745489D02*
X119885212Y-101269299D01*
X119409021Y-101269299D02*
X119409021Y-100269299D01*
X119313783Y-100888346D02*
X119028069Y-101269299D01*
X119028069Y-100602632D02*
X119409021Y-100983584D01*
X118456640Y-101269299D02*
X118551878Y-101221680D01*
X118551878Y-101221680D02*
X118599497Y-101126441D01*
X118599497Y-101126441D02*
X118599497Y-100269299D01*
X118170925Y-100602632D02*
X117932830Y-101269299D01*
X117694735Y-100602632D02*
X117932830Y-101269299D01*
X117932830Y-101269299D02*
X118028068Y-101507394D01*
X118028068Y-101507394D02*
X118075687Y-101555013D01*
X118075687Y-101555013D02*
X118170925Y-101602632D01*
X117313782Y-101174060D02*
X117266163Y-101221680D01*
X117266163Y-101221680D02*
X117313782Y-101269299D01*
X117313782Y-101269299D02*
X117361401Y-101221680D01*
X117361401Y-101221680D02*
X117313782Y-101174060D01*
X117313782Y-101174060D02*
X117313782Y-101269299D01*
X116837592Y-101174060D02*
X116789973Y-101221680D01*
X116789973Y-101221680D02*
X116837592Y-101269299D01*
X116837592Y-101269299D02*
X116885211Y-101221680D01*
X116885211Y-101221680D02*
X116837592Y-101174060D01*
X116837592Y-101174060D02*
X116837592Y-101269299D01*
X116361402Y-101174060D02*
X116313783Y-101221680D01*
X116313783Y-101221680D02*
X116361402Y-101269299D01*
X116361402Y-101269299D02*
X116409021Y-101221680D01*
X116409021Y-101221680D02*
X116361402Y-101174060D01*
X116361402Y-101174060D02*
X116361402Y-101269299D01*
X115932831Y-100269299D02*
X115932831Y-100459775D01*
X115551879Y-100269299D02*
X115551879Y-100459775D01*
X114361402Y-100888346D02*
X113599498Y-100888346D01*
X112361402Y-101269299D02*
X112361402Y-100269299D01*
X112361402Y-100269299D02*
X112028069Y-100983584D01*
X112028069Y-100983584D02*
X111694736Y-100269299D01*
X111694736Y-100269299D02*
X111694736Y-101269299D01*
X110789974Y-101269299D02*
X110789974Y-100745489D01*
X110789974Y-100745489D02*
X110837593Y-100650251D01*
X110837593Y-100650251D02*
X110932831Y-100602632D01*
X110932831Y-100602632D02*
X111123307Y-100602632D01*
X111123307Y-100602632D02*
X111218545Y-100650251D01*
X110789974Y-101221680D02*
X110885212Y-101269299D01*
X110885212Y-101269299D02*
X111123307Y-101269299D01*
X111123307Y-101269299D02*
X111218545Y-101221680D01*
X111218545Y-101221680D02*
X111266164Y-101126441D01*
X111266164Y-101126441D02*
X111266164Y-101031203D01*
X111266164Y-101031203D02*
X111218545Y-100935965D01*
X111218545Y-100935965D02*
X111123307Y-100888346D01*
X111123307Y-100888346D02*
X110885212Y-100888346D01*
X110885212Y-100888346D02*
X110789974Y-100840727D01*
X110313783Y-101269299D02*
X110313783Y-100602632D01*
X110313783Y-100793108D02*
X110266164Y-100697870D01*
X110266164Y-100697870D02*
X110218545Y-100650251D01*
X110218545Y-100650251D02*
X110123307Y-100602632D01*
X110123307Y-100602632D02*
X110028069Y-100602632D01*
X109266164Y-101221680D02*
X109361402Y-101269299D01*
X109361402Y-101269299D02*
X109551878Y-101269299D01*
X109551878Y-101269299D02*
X109647116Y-101221680D01*
X109647116Y-101221680D02*
X109694735Y-101174060D01*
X109694735Y-101174060D02*
X109742354Y-101078822D01*
X109742354Y-101078822D02*
X109742354Y-100793108D01*
X109742354Y-100793108D02*
X109694735Y-100697870D01*
X109694735Y-100697870D02*
X109647116Y-100650251D01*
X109647116Y-100650251D02*
X109551878Y-100602632D01*
X109551878Y-100602632D02*
X109361402Y-100602632D01*
X109361402Y-100602632D02*
X109266164Y-100650251D01*
X108694735Y-101269299D02*
X108789973Y-101221680D01*
X108789973Y-101221680D02*
X108837592Y-101174060D01*
X108837592Y-101174060D02*
X108885211Y-101078822D01*
X108885211Y-101078822D02*
X108885211Y-100793108D01*
X108885211Y-100793108D02*
X108837592Y-100697870D01*
X108837592Y-100697870D02*
X108789973Y-100650251D01*
X108789973Y-100650251D02*
X108694735Y-100602632D01*
X108694735Y-100602632D02*
X108551878Y-100602632D01*
X108551878Y-100602632D02*
X108456640Y-100650251D01*
X108456640Y-100650251D02*
X108409021Y-100697870D01*
X108409021Y-100697870D02*
X108361402Y-100793108D01*
X108361402Y-100793108D02*
X108361402Y-101078822D01*
X108361402Y-101078822D02*
X108409021Y-101174060D01*
X108409021Y-101174060D02*
X108456640Y-101221680D01*
X108456640Y-101221680D02*
X108551878Y-101269299D01*
X108551878Y-101269299D02*
X108694735Y-101269299D01*
X106980449Y-100793108D02*
X106980449Y-101269299D01*
X107313782Y-100269299D02*
X106980449Y-100793108D01*
X106980449Y-100793108D02*
X106647116Y-100269299D01*
X105885211Y-101269299D02*
X105885211Y-100745489D01*
X105885211Y-100745489D02*
X105932830Y-100650251D01*
X105932830Y-100650251D02*
X106028068Y-100602632D01*
X106028068Y-100602632D02*
X106218544Y-100602632D01*
X106218544Y-100602632D02*
X106313782Y-100650251D01*
X105885211Y-101221680D02*
X105980449Y-101269299D01*
X105980449Y-101269299D02*
X106218544Y-101269299D01*
X106218544Y-101269299D02*
X106313782Y-101221680D01*
X106313782Y-101221680D02*
X106361401Y-101126441D01*
X106361401Y-101126441D02*
X106361401Y-101031203D01*
X106361401Y-101031203D02*
X106313782Y-100935965D01*
X106313782Y-100935965D02*
X106218544Y-100888346D01*
X106218544Y-100888346D02*
X105980449Y-100888346D01*
X105980449Y-100888346D02*
X105885211Y-100840727D01*
X105409020Y-101269299D02*
X105409020Y-100602632D01*
X105409020Y-100269299D02*
X105456639Y-100316918D01*
X105456639Y-100316918D02*
X105409020Y-100364537D01*
X105409020Y-100364537D02*
X105361401Y-100316918D01*
X105361401Y-100316918D02*
X105409020Y-100269299D01*
X105409020Y-100269299D02*
X105409020Y-100364537D01*
X104932830Y-100602632D02*
X104932830Y-101602632D01*
X104932830Y-100650251D02*
X104837592Y-100602632D01*
X104837592Y-100602632D02*
X104647116Y-100602632D01*
X104647116Y-100602632D02*
X104551878Y-100650251D01*
X104551878Y-100650251D02*
X104504259Y-100697870D01*
X104504259Y-100697870D02*
X104456640Y-100793108D01*
X104456640Y-100793108D02*
X104456640Y-101078822D01*
X104456640Y-101078822D02*
X104504259Y-101174060D01*
X104504259Y-101174060D02*
X104551878Y-101221680D01*
X104551878Y-101221680D02*
X104647116Y-101269299D01*
X104647116Y-101269299D02*
X104837592Y-101269299D01*
X104837592Y-101269299D02*
X104932830Y-101221680D01*
X103647116Y-101221680D02*
X103742354Y-101269299D01*
X103742354Y-101269299D02*
X103932830Y-101269299D01*
X103932830Y-101269299D02*
X104028068Y-101221680D01*
X104028068Y-101221680D02*
X104075687Y-101126441D01*
X104075687Y-101126441D02*
X104075687Y-100745489D01*
X104075687Y-100745489D02*
X104028068Y-100650251D01*
X104028068Y-100650251D02*
X103932830Y-100602632D01*
X103932830Y-100602632D02*
X103742354Y-100602632D01*
X103742354Y-100602632D02*
X103647116Y-100650251D01*
X103647116Y-100650251D02*
X103599497Y-100745489D01*
X103599497Y-100745489D02*
X103599497Y-100840727D01*
X103599497Y-100840727D02*
X104075687Y-100935965D01*
X103170925Y-100602632D02*
X103170925Y-101269299D01*
X103170925Y-100697870D02*
X103123306Y-100650251D01*
X103123306Y-100650251D02*
X103028068Y-100602632D01*
X103028068Y-100602632D02*
X102885211Y-100602632D01*
X102885211Y-100602632D02*
X102789973Y-100650251D01*
X102789973Y-100650251D02*
X102742354Y-100745489D01*
X102742354Y-100745489D02*
X102742354Y-101269299D01*
D11*
X110417857Y-92789580D02*
X110465476Y-92837200D01*
X110465476Y-92837200D02*
X110608333Y-92884819D01*
X110608333Y-92884819D02*
X110703571Y-92884819D01*
X110703571Y-92884819D02*
X110846428Y-92837200D01*
X110846428Y-92837200D02*
X110941666Y-92741961D01*
X110941666Y-92741961D02*
X110989285Y-92646723D01*
X110989285Y-92646723D02*
X111036904Y-92456247D01*
X111036904Y-92456247D02*
X111036904Y-92313390D01*
X111036904Y-92313390D02*
X110989285Y-92122914D01*
X110989285Y-92122914D02*
X110941666Y-92027676D01*
X110941666Y-92027676D02*
X110846428Y-91932438D01*
X110846428Y-91932438D02*
X110703571Y-91884819D01*
X110703571Y-91884819D02*
X110608333Y-91884819D01*
X110608333Y-91884819D02*
X110465476Y-91932438D01*
X110465476Y-91932438D02*
X110417857Y-91980057D01*
X109465476Y-92884819D02*
X110036904Y-92884819D01*
X109751190Y-92884819D02*
X109751190Y-91884819D01*
X109751190Y-91884819D02*
X109846428Y-92027676D01*
X109846428Y-92027676D02*
X109941666Y-92122914D01*
X109941666Y-92122914D02*
X110036904Y-92170533D01*
X108513095Y-92884819D02*
X109084523Y-92884819D01*
X108798809Y-92884819D02*
X108798809Y-91884819D01*
X108798809Y-91884819D02*
X108894047Y-92027676D01*
X108894047Y-92027676D02*
X108989285Y-92122914D01*
X108989285Y-92122914D02*
X109084523Y-92170533D01*
X105929580Y-107357142D02*
X105977200Y-107309523D01*
X105977200Y-107309523D02*
X106024819Y-107166666D01*
X106024819Y-107166666D02*
X106024819Y-107071428D01*
X106024819Y-107071428D02*
X105977200Y-106928571D01*
X105977200Y-106928571D02*
X105881961Y-106833333D01*
X105881961Y-106833333D02*
X105786723Y-106785714D01*
X105786723Y-106785714D02*
X105596247Y-106738095D01*
X105596247Y-106738095D02*
X105453390Y-106738095D01*
X105453390Y-106738095D02*
X105262914Y-106785714D01*
X105262914Y-106785714D02*
X105167676Y-106833333D01*
X105167676Y-106833333D02*
X105072438Y-106928571D01*
X105072438Y-106928571D02*
X105024819Y-107071428D01*
X105024819Y-107071428D02*
X105024819Y-107166666D01*
X105024819Y-107166666D02*
X105072438Y-107309523D01*
X105072438Y-107309523D02*
X105120057Y-107357142D01*
X106024819Y-108309523D02*
X106024819Y-107738095D01*
X106024819Y-108023809D02*
X105024819Y-108023809D01*
X105024819Y-108023809D02*
X105167676Y-107928571D01*
X105167676Y-107928571D02*
X105262914Y-107833333D01*
X105262914Y-107833333D02*
X105310533Y-107738095D01*
X105120057Y-108690476D02*
X105072438Y-108738095D01*
X105072438Y-108738095D02*
X105024819Y-108833333D01*
X105024819Y-108833333D02*
X105024819Y-109071428D01*
X105024819Y-109071428D02*
X105072438Y-109166666D01*
X105072438Y-109166666D02*
X105120057Y-109214285D01*
X105120057Y-109214285D02*
X105215295Y-109261904D01*
X105215295Y-109261904D02*
X105310533Y-109261904D01*
X105310533Y-109261904D02*
X105453390Y-109214285D01*
X105453390Y-109214285D02*
X106024819Y-108642857D01*
X106024819Y-108642857D02*
X106024819Y-109261904D01*
X92941666Y-92789580D02*
X92989285Y-92837200D01*
X92989285Y-92837200D02*
X93132142Y-92884819D01*
X93132142Y-92884819D02*
X93227380Y-92884819D01*
X93227380Y-92884819D02*
X93370237Y-92837200D01*
X93370237Y-92837200D02*
X93465475Y-92741961D01*
X93465475Y-92741961D02*
X93513094Y-92646723D01*
X93513094Y-92646723D02*
X93560713Y-92456247D01*
X93560713Y-92456247D02*
X93560713Y-92313390D01*
X93560713Y-92313390D02*
X93513094Y-92122914D01*
X93513094Y-92122914D02*
X93465475Y-92027676D01*
X93465475Y-92027676D02*
X93370237Y-91932438D01*
X93370237Y-91932438D02*
X93227380Y-91884819D01*
X93227380Y-91884819D02*
X93132142Y-91884819D01*
X93132142Y-91884819D02*
X92989285Y-91932438D01*
X92989285Y-91932438D02*
X92941666Y-91980057D01*
X92608332Y-91884819D02*
X91989285Y-91884819D01*
X91989285Y-91884819D02*
X92322618Y-92265771D01*
X92322618Y-92265771D02*
X92179761Y-92265771D01*
X92179761Y-92265771D02*
X92084523Y-92313390D01*
X92084523Y-92313390D02*
X92036904Y-92361009D01*
X92036904Y-92361009D02*
X91989285Y-92456247D01*
X91989285Y-92456247D02*
X91989285Y-92694342D01*
X91989285Y-92694342D02*
X92036904Y-92789580D01*
X92036904Y-92789580D02*
X92084523Y-92837200D01*
X92084523Y-92837200D02*
X92179761Y-92884819D01*
X92179761Y-92884819D02*
X92465475Y-92884819D01*
X92465475Y-92884819D02*
X92560713Y-92837200D01*
X92560713Y-92837200D02*
X92608332Y-92789580D01*
X122929580Y-91132142D02*
X122977200Y-91084523D01*
X122977200Y-91084523D02*
X123024819Y-90941666D01*
X123024819Y-90941666D02*
X123024819Y-90846428D01*
X123024819Y-90846428D02*
X122977200Y-90703571D01*
X122977200Y-90703571D02*
X122881961Y-90608333D01*
X122881961Y-90608333D02*
X122786723Y-90560714D01*
X122786723Y-90560714D02*
X122596247Y-90513095D01*
X122596247Y-90513095D02*
X122453390Y-90513095D01*
X122453390Y-90513095D02*
X122262914Y-90560714D01*
X122262914Y-90560714D02*
X122167676Y-90608333D01*
X122167676Y-90608333D02*
X122072438Y-90703571D01*
X122072438Y-90703571D02*
X122024819Y-90846428D01*
X122024819Y-90846428D02*
X122024819Y-90941666D01*
X122024819Y-90941666D02*
X122072438Y-91084523D01*
X122072438Y-91084523D02*
X122120057Y-91132142D01*
X123024819Y-92084523D02*
X123024819Y-91513095D01*
X123024819Y-91798809D02*
X122024819Y-91798809D01*
X122024819Y-91798809D02*
X122167676Y-91703571D01*
X122167676Y-91703571D02*
X122262914Y-91608333D01*
X122262914Y-91608333D02*
X122310533Y-91513095D01*
X122024819Y-92417857D02*
X122024819Y-93084523D01*
X122024819Y-93084523D02*
X123024819Y-92655952D01*
X80929580Y-88132142D02*
X80977200Y-88084523D01*
X80977200Y-88084523D02*
X81024819Y-87941666D01*
X81024819Y-87941666D02*
X81024819Y-87846428D01*
X81024819Y-87846428D02*
X80977200Y-87703571D01*
X80977200Y-87703571D02*
X80881961Y-87608333D01*
X80881961Y-87608333D02*
X80786723Y-87560714D01*
X80786723Y-87560714D02*
X80596247Y-87513095D01*
X80596247Y-87513095D02*
X80453390Y-87513095D01*
X80453390Y-87513095D02*
X80262914Y-87560714D01*
X80262914Y-87560714D02*
X80167676Y-87608333D01*
X80167676Y-87608333D02*
X80072438Y-87703571D01*
X80072438Y-87703571D02*
X80024819Y-87846428D01*
X80024819Y-87846428D02*
X80024819Y-87941666D01*
X80024819Y-87941666D02*
X80072438Y-88084523D01*
X80072438Y-88084523D02*
X80120057Y-88132142D01*
X81024819Y-89084523D02*
X81024819Y-88513095D01*
X81024819Y-88798809D02*
X80024819Y-88798809D01*
X80024819Y-88798809D02*
X80167676Y-88703571D01*
X80167676Y-88703571D02*
X80262914Y-88608333D01*
X80262914Y-88608333D02*
X80310533Y-88513095D01*
X80024819Y-89989285D02*
X80024819Y-89513095D01*
X80024819Y-89513095D02*
X80501009Y-89465476D01*
X80501009Y-89465476D02*
X80453390Y-89513095D01*
X80453390Y-89513095D02*
X80405771Y-89608333D01*
X80405771Y-89608333D02*
X80405771Y-89846428D01*
X80405771Y-89846428D02*
X80453390Y-89941666D01*
X80453390Y-89941666D02*
X80501009Y-89989285D01*
X80501009Y-89989285D02*
X80596247Y-90036904D01*
X80596247Y-90036904D02*
X80834342Y-90036904D01*
X80834342Y-90036904D02*
X80929580Y-89989285D01*
X80929580Y-89989285D02*
X80977200Y-89941666D01*
X80977200Y-89941666D02*
X81024819Y-89846428D01*
X81024819Y-89846428D02*
X81024819Y-89608333D01*
X81024819Y-89608333D02*
X80977200Y-89513095D01*
X80977200Y-89513095D02*
X80929580Y-89465476D01*
X101417857Y-92789580D02*
X101465476Y-92837200D01*
X101465476Y-92837200D02*
X101608333Y-92884819D01*
X101608333Y-92884819D02*
X101703571Y-92884819D01*
X101703571Y-92884819D02*
X101846428Y-92837200D01*
X101846428Y-92837200D02*
X101941666Y-92741961D01*
X101941666Y-92741961D02*
X101989285Y-92646723D01*
X101989285Y-92646723D02*
X102036904Y-92456247D01*
X102036904Y-92456247D02*
X102036904Y-92313390D01*
X102036904Y-92313390D02*
X101989285Y-92122914D01*
X101989285Y-92122914D02*
X101941666Y-92027676D01*
X101941666Y-92027676D02*
X101846428Y-91932438D01*
X101846428Y-91932438D02*
X101703571Y-91884819D01*
X101703571Y-91884819D02*
X101608333Y-91884819D01*
X101608333Y-91884819D02*
X101465476Y-91932438D01*
X101465476Y-91932438D02*
X101417857Y-91980057D01*
X100465476Y-92884819D02*
X101036904Y-92884819D01*
X100751190Y-92884819D02*
X100751190Y-91884819D01*
X100751190Y-91884819D02*
X100846428Y-92027676D01*
X100846428Y-92027676D02*
X100941666Y-92122914D01*
X100941666Y-92122914D02*
X101036904Y-92170533D01*
X99846428Y-91884819D02*
X99751190Y-91884819D01*
X99751190Y-91884819D02*
X99655952Y-91932438D01*
X99655952Y-91932438D02*
X99608333Y-91980057D01*
X99608333Y-91980057D02*
X99560714Y-92075295D01*
X99560714Y-92075295D02*
X99513095Y-92265771D01*
X99513095Y-92265771D02*
X99513095Y-92503866D01*
X99513095Y-92503866D02*
X99560714Y-92694342D01*
X99560714Y-92694342D02*
X99608333Y-92789580D01*
X99608333Y-92789580D02*
X99655952Y-92837200D01*
X99655952Y-92837200D02*
X99751190Y-92884819D01*
X99751190Y-92884819D02*
X99846428Y-92884819D01*
X99846428Y-92884819D02*
X99941666Y-92837200D01*
X99941666Y-92837200D02*
X99989285Y-92789580D01*
X99989285Y-92789580D02*
X100036904Y-92694342D01*
X100036904Y-92694342D02*
X100084523Y-92503866D01*
X100084523Y-92503866D02*
X100084523Y-92265771D01*
X100084523Y-92265771D02*
X100036904Y-92075295D01*
X100036904Y-92075295D02*
X99989285Y-91980057D01*
X99989285Y-91980057D02*
X99941666Y-91932438D01*
X99941666Y-91932438D02*
X99846428Y-91884819D01*
X119417857Y-109789580D02*
X119465476Y-109837200D01*
X119465476Y-109837200D02*
X119608333Y-109884819D01*
X119608333Y-109884819D02*
X119703571Y-109884819D01*
X119703571Y-109884819D02*
X119846428Y-109837200D01*
X119846428Y-109837200D02*
X119941666Y-109741961D01*
X119941666Y-109741961D02*
X119989285Y-109646723D01*
X119989285Y-109646723D02*
X120036904Y-109456247D01*
X120036904Y-109456247D02*
X120036904Y-109313390D01*
X120036904Y-109313390D02*
X119989285Y-109122914D01*
X119989285Y-109122914D02*
X119941666Y-109027676D01*
X119941666Y-109027676D02*
X119846428Y-108932438D01*
X119846428Y-108932438D02*
X119703571Y-108884819D01*
X119703571Y-108884819D02*
X119608333Y-108884819D01*
X119608333Y-108884819D02*
X119465476Y-108932438D01*
X119465476Y-108932438D02*
X119417857Y-108980057D01*
X118465476Y-109884819D02*
X119036904Y-109884819D01*
X118751190Y-109884819D02*
X118751190Y-108884819D01*
X118751190Y-108884819D02*
X118846428Y-109027676D01*
X118846428Y-109027676D02*
X118941666Y-109122914D01*
X118941666Y-109122914D02*
X119036904Y-109170533D01*
X117608333Y-109218152D02*
X117608333Y-109884819D01*
X117846428Y-108837200D02*
X118084523Y-109551485D01*
X118084523Y-109551485D02*
X117465476Y-109551485D01*
X118417857Y-92789580D02*
X118465476Y-92837200D01*
X118465476Y-92837200D02*
X118608333Y-92884819D01*
X118608333Y-92884819D02*
X118703571Y-92884819D01*
X118703571Y-92884819D02*
X118846428Y-92837200D01*
X118846428Y-92837200D02*
X118941666Y-92741961D01*
X118941666Y-92741961D02*
X118989285Y-92646723D01*
X118989285Y-92646723D02*
X119036904Y-92456247D01*
X119036904Y-92456247D02*
X119036904Y-92313390D01*
X119036904Y-92313390D02*
X118989285Y-92122914D01*
X118989285Y-92122914D02*
X118941666Y-92027676D01*
X118941666Y-92027676D02*
X118846428Y-91932438D01*
X118846428Y-91932438D02*
X118703571Y-91884819D01*
X118703571Y-91884819D02*
X118608333Y-91884819D01*
X118608333Y-91884819D02*
X118465476Y-91932438D01*
X118465476Y-91932438D02*
X118417857Y-91980057D01*
X117465476Y-92884819D02*
X118036904Y-92884819D01*
X117751190Y-92884819D02*
X117751190Y-91884819D01*
X117751190Y-91884819D02*
X117846428Y-92027676D01*
X117846428Y-92027676D02*
X117941666Y-92122914D01*
X117941666Y-92122914D02*
X118036904Y-92170533D01*
X116608333Y-91884819D02*
X116798809Y-91884819D01*
X116798809Y-91884819D02*
X116894047Y-91932438D01*
X116894047Y-91932438D02*
X116941666Y-91980057D01*
X116941666Y-91980057D02*
X117036904Y-92122914D01*
X117036904Y-92122914D02*
X117084523Y-92313390D01*
X117084523Y-92313390D02*
X117084523Y-92694342D01*
X117084523Y-92694342D02*
X117036904Y-92789580D01*
X117036904Y-92789580D02*
X116989285Y-92837200D01*
X116989285Y-92837200D02*
X116894047Y-92884819D01*
X116894047Y-92884819D02*
X116703571Y-92884819D01*
X116703571Y-92884819D02*
X116608333Y-92837200D01*
X116608333Y-92837200D02*
X116560714Y-92789580D01*
X116560714Y-92789580D02*
X116513095Y-92694342D01*
X116513095Y-92694342D02*
X116513095Y-92456247D01*
X116513095Y-92456247D02*
X116560714Y-92361009D01*
X116560714Y-92361009D02*
X116608333Y-92313390D01*
X116608333Y-92313390D02*
X116703571Y-92265771D01*
X116703571Y-92265771D02*
X116894047Y-92265771D01*
X116894047Y-92265771D02*
X116989285Y-92313390D01*
X116989285Y-92313390D02*
X117036904Y-92361009D01*
X117036904Y-92361009D02*
X117084523Y-92456247D01*
X111929580Y-106132142D02*
X111977200Y-106084523D01*
X111977200Y-106084523D02*
X112024819Y-105941666D01*
X112024819Y-105941666D02*
X112024819Y-105846428D01*
X112024819Y-105846428D02*
X111977200Y-105703571D01*
X111977200Y-105703571D02*
X111881961Y-105608333D01*
X111881961Y-105608333D02*
X111786723Y-105560714D01*
X111786723Y-105560714D02*
X111596247Y-105513095D01*
X111596247Y-105513095D02*
X111453390Y-105513095D01*
X111453390Y-105513095D02*
X111262914Y-105560714D01*
X111262914Y-105560714D02*
X111167676Y-105608333D01*
X111167676Y-105608333D02*
X111072438Y-105703571D01*
X111072438Y-105703571D02*
X111024819Y-105846428D01*
X111024819Y-105846428D02*
X111024819Y-105941666D01*
X111024819Y-105941666D02*
X111072438Y-106084523D01*
X111072438Y-106084523D02*
X111120057Y-106132142D01*
X112024819Y-107084523D02*
X112024819Y-106513095D01*
X112024819Y-106798809D02*
X111024819Y-106798809D01*
X111024819Y-106798809D02*
X111167676Y-106703571D01*
X111167676Y-106703571D02*
X111262914Y-106608333D01*
X111262914Y-106608333D02*
X111310533Y-106513095D01*
X111024819Y-107417857D02*
X111024819Y-108036904D01*
X111024819Y-108036904D02*
X111405771Y-107703571D01*
X111405771Y-107703571D02*
X111405771Y-107846428D01*
X111405771Y-107846428D02*
X111453390Y-107941666D01*
X111453390Y-107941666D02*
X111501009Y-107989285D01*
X111501009Y-107989285D02*
X111596247Y-108036904D01*
X111596247Y-108036904D02*
X111834342Y-108036904D01*
X111834342Y-108036904D02*
X111929580Y-107989285D01*
X111929580Y-107989285D02*
X111977200Y-107941666D01*
X111977200Y-107941666D02*
X112024819Y-107846428D01*
X112024819Y-107846428D02*
X112024819Y-107560714D01*
X112024819Y-107560714D02*
X111977200Y-107465476D01*
X111977200Y-107465476D02*
X111929580Y-107417857D01*
X96417857Y-108929580D02*
X96465476Y-108977200D01*
X96465476Y-108977200D02*
X96608333Y-109024819D01*
X96608333Y-109024819D02*
X96703571Y-109024819D01*
X96703571Y-109024819D02*
X96846428Y-108977200D01*
X96846428Y-108977200D02*
X96941666Y-108881961D01*
X96941666Y-108881961D02*
X96989285Y-108786723D01*
X96989285Y-108786723D02*
X97036904Y-108596247D01*
X97036904Y-108596247D02*
X97036904Y-108453390D01*
X97036904Y-108453390D02*
X96989285Y-108262914D01*
X96989285Y-108262914D02*
X96941666Y-108167676D01*
X96941666Y-108167676D02*
X96846428Y-108072438D01*
X96846428Y-108072438D02*
X96703571Y-108024819D01*
X96703571Y-108024819D02*
X96608333Y-108024819D01*
X96608333Y-108024819D02*
X96465476Y-108072438D01*
X96465476Y-108072438D02*
X96417857Y-108120057D01*
X95465476Y-109024819D02*
X96036904Y-109024819D01*
X95751190Y-109024819D02*
X95751190Y-108024819D01*
X95751190Y-108024819D02*
X95846428Y-108167676D01*
X95846428Y-108167676D02*
X95941666Y-108262914D01*
X95941666Y-108262914D02*
X96036904Y-108310533D01*
X94894047Y-108453390D02*
X94989285Y-108405771D01*
X94989285Y-108405771D02*
X95036904Y-108358152D01*
X95036904Y-108358152D02*
X95084523Y-108262914D01*
X95084523Y-108262914D02*
X95084523Y-108215295D01*
X95084523Y-108215295D02*
X95036904Y-108120057D01*
X95036904Y-108120057D02*
X94989285Y-108072438D01*
X94989285Y-108072438D02*
X94894047Y-108024819D01*
X94894047Y-108024819D02*
X94703571Y-108024819D01*
X94703571Y-108024819D02*
X94608333Y-108072438D01*
X94608333Y-108072438D02*
X94560714Y-108120057D01*
X94560714Y-108120057D02*
X94513095Y-108215295D01*
X94513095Y-108215295D02*
X94513095Y-108262914D01*
X94513095Y-108262914D02*
X94560714Y-108358152D01*
X94560714Y-108358152D02*
X94608333Y-108405771D01*
X94608333Y-108405771D02*
X94703571Y-108453390D01*
X94703571Y-108453390D02*
X94894047Y-108453390D01*
X94894047Y-108453390D02*
X94989285Y-108501009D01*
X94989285Y-108501009D02*
X95036904Y-108548628D01*
X95036904Y-108548628D02*
X95084523Y-108643866D01*
X95084523Y-108643866D02*
X95084523Y-108834342D01*
X95084523Y-108834342D02*
X95036904Y-108929580D01*
X95036904Y-108929580D02*
X94989285Y-108977200D01*
X94989285Y-108977200D02*
X94894047Y-109024819D01*
X94894047Y-109024819D02*
X94703571Y-109024819D01*
X94703571Y-109024819D02*
X94608333Y-108977200D01*
X94608333Y-108977200D02*
X94560714Y-108929580D01*
X94560714Y-108929580D02*
X94513095Y-108834342D01*
X94513095Y-108834342D02*
X94513095Y-108643866D01*
X94513095Y-108643866D02*
X94560714Y-108548628D01*
X94560714Y-108548628D02*
X94608333Y-108501009D01*
X94608333Y-108501009D02*
X94703571Y-108453390D01*
D12*
%TO.C,C11*%
X109634420Y-90490000D02*
X109915580Y-90490000D01*
X109634420Y-91510000D02*
X109915580Y-91510000D01*
%TO.C,C12*%
X106490000Y-107859420D02*
X106490000Y-108140580D01*
X107510000Y-107859420D02*
X107510000Y-108140580D01*
%TO.C,C3*%
X92634420Y-90490000D02*
X92915580Y-90490000D01*
X92634420Y-91510000D02*
X92915580Y-91510000D01*
%TO.C,C17*%
X123490000Y-91634420D02*
X123490000Y-91915580D01*
X124510000Y-91634420D02*
X124510000Y-91915580D01*
%TO.C,C15*%
X81490000Y-88634420D02*
X81490000Y-88915580D01*
X82510000Y-88634420D02*
X82510000Y-88915580D01*
%TO.C,C10*%
X100634420Y-90490000D02*
X100915580Y-90490000D01*
X100634420Y-91510000D02*
X100915580Y-91510000D01*
%TO.C,C14*%
X118634420Y-107490000D02*
X118915580Y-107490000D01*
X118634420Y-108510000D02*
X118915580Y-108510000D01*
%TO.C,C16*%
X117634420Y-90490000D02*
X117915580Y-90490000D01*
X117634420Y-91510000D02*
X117915580Y-91510000D01*
%TO.C,C13*%
X112490000Y-106634420D02*
X112490000Y-106915580D01*
X113510000Y-106634420D02*
X113510000Y-106915580D01*
%TO.C,C18*%
X95915580Y-109490000D02*
X95634420Y-109490000D01*
X95915580Y-110510000D02*
X95634420Y-110510000D01*
%TD*%
M02*
